<?xml version="1.0" encoding="UTF-8"?>
<svg width="165px" height="165px" viewBox="0 0 165 165" version="1.1" xmlns="http://www.w3.org/2000/svg" xmlns:xlink="http://www.w3.org/1999/xlink">
    <!-- Generator: sketchtool 51.2 (57519) - http://www.bohemiancoding.com/sketch -->
    <title>74783AC4-F0FB-4187-8757-ACBF1FA1B89A</title>
    <desc>Created with sketchtool.</desc>
    <defs>
        <path d="M58.3070579,110.293239 C88.9588615,110.293239 111,86.1518036 111,55.5 C111,24.8481964 86.1518036,0 55.5,0 C47.6172096,0 42.9374903,0.985269471 36.1462964,3.94814131 C34.5499123,4.64461407 46.4392347,2.11175371 46.8149887,5.97635711 C46.8415997,6.37994466 46.8241336,8.44405621 46.8744299,8.41705505 C47.0123204,10.9215558 47.0999418,12.6201585 47.1372942,13.5128631 C47.2908134,17.1819002 47.306721,18.6787214 47.3175603,18.7049838 C41.4753225,19.1232742 24.0835694,11.7187169 22.8781144,12.58888 C21.7939047,13.3715216 20.7390897,14.1923563 19.7156412,15.0494122 C7.55826623,25.2302382 0,38.4023677 0,55.5 C0,86.1518036 27.6552543,110.293239 58.3070579,110.293239 Z" id="path-1"></path>
    </defs>
    <g id="FLUJO-" stroke="none" stroke-width="1" fill="none" fill-rule="evenodd">
        <g id="1.-Home_Campaña-navidad" transform="translate(-300.000000, -887.000000)">
            <g id="Group-27" transform="translate(301.000000, 888.000000)">
                <g id="Group-20" transform="translate(33.000000, 30.000000)">
                    <mask id="mask-2" fill="white">
                        <use xlink:href="#path-1"></use>
                    </mask>
                    <use id="Oval-3" fill="#DEDEDE" xlink:href="#path-1"></use>
                    <ellipse id="Oval-3-Copy-5" fill="#FFFFFF" mask="url(#mask-2)" cx="49.5" cy="43.245283" rx="55.5" ry="57.245283"></ellipse>
                </g>
                <path d="M81.5,163 C126.511207,163 163,126.511207 163,81.5 C163,36.4887929 126.511207,0 81.5,0 C36.4887929,0 0,36.4887929 0,81.5 C0,126.511207 36.4887929,163 81.5,163 Z" id="Oval-3-Copy-4" stroke="#FFFFFF" stroke-width="2" stroke-dasharray="12,6"></path>
                <path d="M35.3216172,50.7760427 L37.1226968,42.0000069 L78.7983141,41.9999944 C80.4132167,41.9999944 81.7383517,43.278332 81.7963887,44.8921914 C82.0403267,51.6754811 82.2060563,55.0821227 82.2935774,55.1121164 C82.4800303,55.4604612 82.7220465,55.5015095 83.019626,55.2352613 L83.0195964,55.2352281 C84.5898083,53.8303393 86.9945462,53.9365101 88.4348362,55.4743147 L88.4348362,55.4743147 C90.4680228,57.6451579 90.5269704,61.002979 88.5712329,63.2438491 L82.2935774,70.4367422 L81.7335988,113.039429 C81.7120247,114.680764 80.3753345,116 78.7338579,116 L30,116 C28.3431458,116 27,114.656854 27,113 L27,53.67479 L32.6545447,53.1606047 C33.9721098,53.0407944 35.055645,52.0720331 35.3216172,50.7760427 Z" id="Rectangle-13" fill="#E62228"></path>
                <g id="registra" transform="translate(17.000000, 35.000000)" fill="#FFFFFF">
                    <path d="M16.0562182,14.9003777 C16.0562182,15.3344785 15.7037706,15.6877616 15.2702601,15.6877616 L5.61398042,15.6877616 L16.0562182,5.2263848 L16.0562182,14.9003777 Z M58.3836028,11.2316086 C59.1490014,11.2316086 59.7712671,10.6080178 59.7712671,9.84142691 L59.7712671,4.04883994 C59.7712671,2.08077272 58.1738965,0.479719729 56.2105678,0.479719729 L17.4434909,0.479719729 C17.0730294,0.479719729 16.7246937,0.624289204 16.4621203,0.887142795 L1.28181259,16.0947923 C1.02354685,16.3537227 0.875323077,16.7119098 0.875323077,17.077747 L0.875323077,72.0773108 C0.875518881,74.0457704 2.47367273,75.6470195 4.43837203,75.6470195 L56.210372,75.6470195 C58.1737007,75.6470195 59.7710713,74.0457704 59.7710713,72.077507 L59.7710713,44.0482909 C59.7710713,43.6769612 59.6269594,43.3277974 59.3647776,43.0653362 C59.1027916,42.8026787 58.7542601,42.6581093 58.3836028,42.6581093 C57.6185958,42.6581093 56.9959385,43.2818961 56.9959385,44.0482909 L56.9959385,72.077507 C56.9959385,72.5125885 56.6438825,72.8666563 56.2107636,72.8666563 L4.43837203,72.8666563 C4.00407832,72.8666563 3.65084755,72.5125885 3.65084755,72.077507 L3.65084755,18.468321 L15.2702601,18.468321 C17.2339804,18.468321 18.831351,16.8678565 18.831351,14.9003777 L18.831351,3.25988685 L56.2105678,3.25988685 C56.6436867,3.25988685 56.9957427,3.6137584 56.9957427,4.04883994 L56.9957427,9.84142691 C56.9957427,10.6080178 57.6184,11.2316086 58.3836028,11.2316086 Z" id="Fill-4"></path>
                    <path d="M14.8435076,40.2897984 C13.9545342,40.2897984 13.2313902,40.8978442 13.2313902,41.6448992 C13.2313902,42.3921454 13.9545342,43 14.8435076,43 L36.8153459,43 L40,40.2897984 L14.8435076,40.2897984 Z" id="Fill-6"></path>
                    <path d="M29.5912811,55.0105607 L14.6191133,55.0105607 C13.8539105,55.0105607 13.231449,55.6341514 13.231449,56.4007423 C13.231449,57.1673332 13.8539105,57.7909239 14.6191133,57.7909239 L29.7136587,57.7909239 C29.6439524,57.6324272 29.3494629,57.4664763 29.3099105,57.2875789 C29.183421,56.5286382 29.444428,55.7695014 29.5912811,55.0105607" id="Fill-8"></path>
                    <path d="M66.3728099,24.7120649 L64.4824704,26.6059749 L59.8911623,22.0066206 L61.7819251,20.1127106 C62.187028,19.7067314 62.7264598,19.483245 63.3007437,19.483245 C63.8748865,19.483245 64.4141772,19.7068728 64.8191391,20.1127106 L66.3728099,21.6693412 C66.7779128,22.0751791 67.0009946,22.6154481 67.0009946,23.1906324 C67.0009946,23.7659581 66.7779128,24.3062271 66.3728099,24.7120649 Z M38.0720426,53.0647369 L33.4811577,48.465524 L58.4771822,23.4235898 L63.0682081,28.0229441 L38.0720426,53.0647369 Z M31.1951692,55.3544484 L32.5717573,50.3879882 L36.1527773,53.9756457 L31.1951692,55.3544484 Z M67.7872133,20.2525134 L66.2335425,18.6961655 C64.6165171,17.0762067 61.9849704,17.0762067 60.3673806,18.6961655 L44.5171448,34.57572 L42.5173104,36.5791822 L33.928309,45.1837645 L31.9267815,47.187368 L31.3599759,47.7566153 C31.2382052,47.8787483 31.1494522,48.0309905 31.103312,48.1975099 L28.9983568,55.7919503 C28.8925306,56.3388631 28.7193988,56.8859173 28.8104094,57.4329715 C29.0573374,57.9100536 29.7406929,57.7955539 29.7406929,57.7955539 C29.8242251,57.7860829 29.9728052,57.7678478 30.0152768,57.7606385 C30.3345899,57.6718659 38.3395714,55.4466136 38.3395714,55.4466136 C38.5052248,55.400531 38.6573324,55.3117584 38.7791032,55.1896253 L67.7873544,26.1286101 C69.4042387,24.5086513 69.4042387,21.8727549 67.7872133,20.2525134 Z" id="Fill-10"></path>
                    <path d="M14.760768,25.5691342 C13.9174199,25.5691342 13.2313902,26.1143767 13.2313902,26.7844813 C13.2313902,27.454929 13.9174199,28 14.760768,28 L51.7765886,28 L55,25.5691342 L14.760768,25.5691342 Z" id="Fill-12"></path>
                </g>
            </g>
        </g>
    </g>
</svg>