<?xml version="1.0" encoding="UTF-8"?>
<svg width="165px" height="165px" viewBox="0 0 165 165" version="1.1" xmlns="http://www.w3.org/2000/svg" xmlns:xlink="http://www.w3.org/1999/xlink">
    <!-- Generator: sketchtool 51.2 (57519) - http://www.bohemiancoding.com/sketch -->
    <title>935C1525-D311-451A-AE7F-A2C6905D4E01</title>
    <desc>Created with sketchtool.</desc>
    <defs>
        <path d="M55.5,111 C86.1518036,111 111,86.1518036 111,55.5 C111,24.8481964 86.1518036,0 55.5,0 C24.8481964,0 0,24.8481964 0,55.5 C0,58.5774992 5.20810479,60.3355338 5.68979617,63.2767509 C6.65651298,69.1795428 3.59685313,76.0300242 6.27025211,81.1504654 C15.532336,98.890412 34.1019951,111 55.5,111 Z" id="path-1"></path>
    </defs>
    <g id="FLUJO-" stroke="none" stroke-width="1" fill="none" fill-rule="evenodd">
        <g id="1.-Home_Campaña-navidad" transform="translate(-978.000000, -894.000000)">
            <g id="Group-29" transform="translate(979.000000, 895.000000)">
                <g id="Group-2" transform="translate(32.000000, 29.000000)">
                    <mask id="mask-2" fill="white">
                        <use xlink:href="#path-1"></use>
                    </mask>
                    <use id="Oval-3" fill="#DEDEDE" xlink:href="#path-1"></use>
                    <ellipse id="Oval-3-Copy-5" fill="#FFFFFF" mask="url(#mask-2)" cx="49.5" cy="43.245283" rx="55.5" ry="57.245283"></ellipse>
                </g>
                <path d="M81.5,163 C126.511207,163 163,126.511207 163,81.5 C163,36.4887929 126.511207,0 81.5,0 C36.4887929,0 0,36.4887929 0,81.5 C0,126.511207 36.4887929,163 81.5,163 Z" id="Oval-3-Copy-3" stroke="#FFFFFF" stroke-width="2" stroke-dasharray="12,6"></path>
                <g id="sms" transform="translate(17.000000, 42.000000)">
                    <path d="M19.1775172,71.3407724 C19.7033379,72.2611034 20.6059034,72.5339586 21.4516966,72.0573793 C21.4549793,72.0556414 21.4578759,72.0533241 21.4605793,72.0506207 L38.9065103,54.6046897 L80.9318069,54.6046897 C84.2667034,54.6046897 86.9701517,51.9012414 86.9701517,48.5665379 L86.9701517,10.0381517 C86.9701517,8.42805517 86.3414069,6.91238621 85.1997793,5.77056552 C84.0579586,4.62874483 82.5422897,4 80.9321931,4 L15.0381517,4 C11.7032552,4 9,6.70325517 9,10.0379586 L9,48.5665379 C9,51.9014345 11.7034483,54.6046897 15.0383448,54.6046897 L19.1775172,54.6046897 L19.1775172,71.3407724 Z" id="Path" fill="#E62228"></path>
                    <path d="M6.12451034,48.284869 C4.38735172,48.284869 2.97924138,46.8767586 2.97924138,45.1397931 L2.97924138,6.6116 C2.97924138,4.87463448 4.38735172,3.46671724 6.12431724,3.46671724 L72.0181655,3.46671724 C73.755131,3.46671724 75.1632414,4.87463448 75.1632414,6.6116 L75.1632414,45.1399862 C75.1632414,46.8769517 73.755131,48.284869 72.0183586,48.284869 L29.3923172,48.284869 C29.0341103,48.284869 28.6894207,48.4186897 28.4217793,48.6616138 L28.3997655,48.6816966 C28.3876,48.6927034 28.3752414,48.7037103 28.3634621,48.7156828 L13.1565655,63.9221931 L13.1565655,49.7314069 C13.1565655,49.6842897 13.1544414,49.643931 13.1501931,49.6111034 C13.0797103,48.848731 12.4608138,48.284869 11.7090621,48.284869 L6.12451034,48.284869 Z M10.2636828,67.9142207 C10.7895034,68.8345517 11.692069,69.1074069 12.5378621,68.6308276 C12.5411448,68.6290897 12.5440414,68.6267724 12.5467448,68.624069 L29.9926759,51.1781379 L72.0179724,51.1781379 C75.352869,51.1781379 78.0563172,48.4746897 78.0563172,45.1399862 L78.0563172,6.6116 C78.0563172,5.00150345 77.4275724,3.48583448 76.2859448,2.34401379 C75.1441241,1.2021931 73.6284552,0.573448276 72.0183586,0.573448276 L6.12431724,0.573448276 C2.78942069,0.573448276 0.0861655172,3.27670345 0.0861655172,6.6114069 L0.0861655172,45.1399862 C0.0861655172,48.4748828 2.78961379,51.1781379 6.12451034,51.1781379 L10.2636828,51.1781379 L10.2636828,67.9142207 Z" id="Fill-4" fill="#000000"></path>
                    <path d="M6.12451034,48.284869 C4.38735172,48.284869 2.97924138,46.8767586 2.97924138,45.1397931 L2.97924138,6.6116 C2.97924138,4.87463448 4.38735172,3.46671724 6.12431724,3.46671724 L72.0181655,3.46671724 C73.755131,3.46671724 75.1632414,4.87463448 75.1632414,6.6116 L75.1632414,45.1399862 C75.1632414,46.8769517 73.755131,48.284869 72.0183586,48.284869 L29.3923172,48.284869 C29.0341103,48.284869 28.6894207,48.4186897 28.4217793,48.6616138 L28.3997655,48.6816966 C28.3876,48.6927034 28.3752414,48.7037103 28.3634621,48.7156828 L13.1565655,63.9221931 L13.1565655,49.7314069 C13.1565655,49.6842897 13.1544414,49.643931 13.1501931,49.6111034 C13.0797103,48.848731 12.4608138,48.284869 11.7090621,48.284869 L6.12451034,48.284869 Z M10.2636828,67.9142207 C10.7895034,68.8345517 11.692069,69.1074069 12.5378621,68.6308276 C12.5411448,68.6290897 12.5440414,68.6267724 12.5467448,68.624069 L29.9926759,51.1781379 L72.0179724,51.1781379 C75.352869,51.1781379 78.0563172,48.4746897 78.0563172,45.1399862 L78.0563172,6.6116 C78.0563172,5.00150345 77.4275724,3.48583448 76.2859448,2.34401379 C75.1441241,1.2021931 73.6284552,0.573448276 72.0183586,0.573448276 L6.12431724,0.573448276 C2.78942069,0.573448276 0.0861655172,3.27670345 0.0861655172,6.6114069 L0.0861655172,45.1399862 C0.0861655172,48.4748828 2.78961379,51.1781379 6.12451034,51.1781379 L10.2636828,51.1781379 L10.2636828,67.9142207 Z" id="Stroke-6" fill="#FFFFFF"></path>
                    <path d="M55.2101131,16.4179917 C55.2101131,16.8262124 55.0515752,17.2097159 54.7636579,17.4976331 L37.4718234,34.7896607 C37.370251,34.8912331 37.1922097,34.89104 37.0908303,34.7896607 L28.6856166,26.3844469 C28.3976993,26.0965297 28.2391614,25.7130262 28.2391614,25.3048055 C28.2391614,24.8963917 28.3976993,24.5128883 28.6856166,24.224971 C28.9733407,23.9370538 29.356651,23.778709 29.7650648,23.778709 C30.1736717,23.778709 30.5569821,23.9370538 30.8447062,24.224971 L35.8653959,29.2456607 C36.2436855,29.6237572 36.7465269,29.8321159 37.2812303,29.8321159 C37.81632,29.8321159 38.3189683,29.6237572 38.6970648,29.2454676 L52.6043752,15.3383503 C52.8920993,15.0504331 53.2754097,14.8918952 53.6840166,14.8918952 C54.0924303,14.8918952 54.4757407,15.0504331 54.7636579,15.3383503 C55.0515752,15.6260745 55.2101131,16.0095779 55.2101131,16.4179917 M56.5245683,13.57744 C54.9583062,12.011371 52.40992,12.0111779 50.8434648,13.57744 L37.2812303,27.1394814 L32.6056166,22.4640607 C31.8482648,21.7063228 30.8392993,21.2892193 29.7650648,21.2892193 C28.6908303,21.2892193 27.6820579,21.7063228 26.9245131,22.4640607 C26.1669683,23.2216055 25.7498648,24.2303779 25.7498648,25.3046124 C25.7498648,26.3788469 26.1669683,27.3876193 26.9245131,28.144971 L35.32992,36.5501848 C35.8501407,37.0709848 36.543189,37.3575503 37.2812303,37.3575503 C38.0192717,37.3575503 38.7121269,37.0709848 39.2327338,36.5501848 L56.5245683,19.2583503 C58.0906372,17.6922814 58.0906372,15.1437021 56.5245683,13.57744" id="Fill-8" fill="#FFFFFF"></path>
                </g>
            </g>
        </g>
    </g>
</svg>