<?xml version="1.0" encoding="UTF-8"?>
<svg width="29px" height="29px" viewBox="0 0 29 29" version="1.1" xmlns="http://www.w3.org/2000/svg" xmlns:xlink="http://www.w3.org/1999/xlink">
    <!-- Generator: sketchtool 51.2 (57519) - http://www.bohemiancoding.com/sketch -->
    <title>84DE50A9-FDC4-4DBA-B946-84D7BB04F194</title>
    <desc>Created with sketchtool.</desc>
    <defs></defs>
    <g id="FLUJO_-MOVIL" stroke="none" stroke-width="1" fill="none" fill-rule="evenodd">
        <g id="2.1.-Arma-tu-mancha-MENU-Copy-2" transform="translate(-43.000000, -87.000000)" fill="#FFFFFF">
            <g id="Group-28" transform="translate(43.000000, 87.000000)">
                <g id="Group-8-Copy">
                    <path d="M14.4736738,27.0962837 C7.51357092,27.0962837 1.85106383,21.4337766 1.85106383,14.4736738 C1.85106383,7.51346809 7.51357092,1.85106383 14.4736738,1.85106383 C21.4337766,1.85106383 27.0962837,7.51357092 27.0962837,14.4736738 C27.0962837,21.4337766 21.4337766,27.0962837 14.4736738,27.0962837 M14.4736738,0 C6.49291489,0 0,6.49291489 0,14.4736738 C0,22.4543298 6.49291489,28.9473475 14.4736738,28.9473475 C22.4543298,28.9473475 28.9473475,22.4543298 28.9473475,14.4736738 C28.9473475,6.49291489 22.4544326,0 14.4736738,0" id="Fill-1"></path>
                    <path d="M22.3493506,11.564142 C22.2730835,11.3292428 22.0722968,11.1562057 21.8286485,11.1152883 L17.3686565,10.3668454 L15.2786898,6.35650242 C15.16451,6.13742223 14.9380064,6 14.6909115,6 C14.443905,6 14.2173129,6.13742223 14.1031332,6.35650242 L12.0130781,10.3668454 L7.55317445,11.1152883 C7.30952617,11.1561173 7.10882786,11.3291544 7.03247235,11.564142 C6.95611685,11.7991296 7.01674171,12.0570062 7.1898672,12.2333132 L10.3580903,15.4603052 L9.69174711,19.9332883 C9.65533685,20.1776435 9.75785118,20.4219104 9.95775413,20.567198 C10.1574803,20.7123088 10.4216315,20.734314 10.6427443,20.6242879 L14.6909115,18.6082905 L18.7389903,20.6242879 C18.8325788,20.6708612 18.9336791,20.6938385 19.034426,20.6938385 C19.172025,20.6938385 19.3087402,20.6510653 19.4240688,20.5672864 C19.6239718,20.4219988 19.7264861,20.1777319 19.6900758,19.9333766 L19.023821,15.4603936 L22.1920441,12.2333132 C22.3650812,12.0570062 22.4257061,11.7991296 22.3493506,11.564142 Z" id="Fill-4"></path>
                </g>
            </g>
        </g>
    </g>
</svg>