<?xml version="1.0" encoding="UTF-8"?>
<svg width="29px" height="29px" viewBox="0 0 29 29" version="1.1" xmlns="http://www.w3.org/2000/svg" xmlns:xlink="http://www.w3.org/1999/xlink">
    <!-- Generator: sketchtool 51.2 (57519) - http://www.bohemiancoding.com/sketch -->
    <title>D595CB25-D748-4F88-91A3-EAE139408BC8</title>
    <desc>Created with sketchtool.</desc>
    <defs></defs>
    <g id="FLUJO_-MOVIL" stroke="none" stroke-width="1" fill="none" fill-rule="evenodd">
        <g id="2.1.-Arma-tu-mancha-MENU-Copy-2" transform="translate(-43.000000, -167.000000)" fill="#FFFFFF">
            <g id="Group-27" transform="translate(43.000000, 167.000000)">
                <g id="Group-8">
                    <g id="Group-3">
                        <path d="M14.473684,27.148967 C7.51358121,27.148967 1.85107411,21.4864599 1.85107411,14.5263571 C1.85107411,7.56615142 7.51358121,1.90374716 14.473684,1.90374716 C21.4337869,1.90374716 27.096294,7.56625426 27.096294,14.5263571 C27.096294,21.4864599 21.4337869,27.148967 14.473684,27.148967 M14.473684,0.0526833333 C6.49292518,0.0526833333 1.02836879e-05,6.54559823 1.02836879e-05,14.5263571 C1.02836879e-05,22.5070131 6.49292518,29.0000309 14.473684,29.0000309 C22.4543401,29.0000309 28.9473578,22.5070131 28.9473578,14.5263571 C28.9473578,6.54559823 22.4544429,0.0526833333 14.473684,0.0526833333" id="Fill-1"></path>
                    </g>
                    <path d="M14.5,5.86021505 C11.8349379,5.86021505 9.66666667,8.00929903 9.66666667,10.6510042 C9.66666667,11.1560196 10.079617,11.5653351 10.5891172,11.5653351 C11.0986174,11.5653351 11.5115677,11.1560196 11.5115677,10.6510042 C11.5115677,9.01770442 12.8521959,7.68887685 14.5,7.68887685 C16.1478041,7.68887685 17.4884323,9.01770442 17.4884323,10.6510042 C17.4884323,12.2843039 16.1478041,13.6131315 14.5,13.6131315 C13.9904998,13.6131315 13.5775495,14.022447 13.5775495,14.5273608 L13.5775495,18.0426583 C13.5775495,18.5476738 13.9904998,18.9569892 14.5,18.9569892 C15.0095002,18.9569892 15.4224505,18.5476738 15.4224505,18.0426583 L15.4224505,15.3543223 C17.6478112,14.9262123 19.3333333,12.9800082 19.3333333,10.6510042 C19.3333333,8.00929903 17.1651646,5.86021505 14.5,5.86021505" id="Fill-4" stroke="#FFFFFF"></path>
                    <path d="M14.344086,20.516129 C14.0977419,20.516129 13.856595,20.615914 13.6830108,20.7894982 C13.5083871,20.9641219 13.4086022,21.2052688 13.4086022,21.4516129 C13.4086022,21.697957 13.5083871,21.9388961 13.6830108,22.1125842 C13.856595,22.2873118 14.0977419,22.3870968 14.344086,22.3870968 C14.5904301,22.3870968 14.8314731,22.2873118 15.0050573,22.1125842 C15.1797849,21.9388961 15.2795699,21.697957 15.2795699,21.4516129 C15.2795699,21.2052688 15.1797849,20.9641219 15.0050573,20.7894982 C14.8314731,20.615914 14.5904301,20.516129 14.344086,20.516129" id="Fill-6" stroke="#FFFFFF"></path>
                </g>
            </g>
        </g>
    </g>
</svg>