<?xml version="1.0" encoding="UTF-8"?>
<svg width="165px" height="197px" viewBox="0 0 165 197" version="1.1" xmlns="http://www.w3.org/2000/svg" xmlns:xlink="http://www.w3.org/1999/xlink">
    <!-- Generator: sketchtool 51.2 (57519) - http://www.bohemiancoding.com/sketch -->
    <title>0ED6FADB-3CDC-451D-A888-491C085C6A22</title>
    <desc>Created with sketchtool.</desc>
    <defs>
        <polygon id="path-1" points="0 0.001 164.9998 0.001 164.9998 165 0 165"></polygon>
    </defs>
    <g id="FLUJO-" stroke="none" stroke-width="1" fill="none" fill-rule="evenodd">
        <g id="1.-Home_Campaña-navidad" transform="translate(-292.000000, -756.000000)">
            <g id="Group-2" transform="translate(292.000000, 752.000000)">
                <g id="Group-18" transform="translate(0.000000, 35.000000)">
                    <path d="M136.3579,57.7725 C138.0679,63.2815 139.0009,69.1495 139.0009,75.2445 C139.0009,106.8595 114.1519,132.4895 83.5009,132.4895 C69.3169,132.4895 56.3929,126.9835 46.5829,117.9545 L44.1289,117.9545 C54.8939,132.7065 72.9999,142.2925 92.3069,142.2925 C122.9599,142.2925 145.0009,118.1505 145.0009,87.4995 C145.0009,76.5595 141.8219,66.3685 136.3579,57.7725" id="Fill-1" fill="#DFDFDF"></path>
                    <g id="Group-5" transform="translate(0.000000, 0.999000)">
                        <mask id="mask-2" fill="white">
                            <use xlink:href="#path-1"></use>
                        </mask>
                        <g id="Clip-4"></g>
                        <path d="M74.7378,2.3692 L74.5488,0.3782 C78.5468,-0.0048 82.6498,-0.0968 86.6758,0.1042 L86.5758,2.1012 C82.6478,1.9062 78.6418,1.9952 74.7378,2.3692 Z M104.0858,4.9262 C100.2948,3.8732 96.3878,3.0952 92.4758,2.6122 L92.7218,0.6262 C96.7318,1.1222 100.7358,1.9202 104.6208,2.9992 L104.0858,4.9262 Z M57.3788,5.9972 L56.7558,4.0972 C60.5898,2.8392 64.5518,1.8572 68.5308,1.1782 L68.8668,3.1502 C64.9838,3.8122 61.1188,4.7702 57.3788,5.9972 Z M120.5348,11.5342 C117.0658,9.6702 113.4288,8.0512 109.7298,6.7212 L110.4058,4.8392 C114.1988,6.2022 117.9258,7.8622 121.4818,9.7722 L120.5348,11.5342 Z M41.2318,13.3682 L40.2048,11.6522 C43.6738,9.5772 47.3238,7.7442 51.0518,6.2052 L51.8158,8.0542 C48.1768,9.5562 44.6148,11.3442 41.2318,13.3682 Z M135.1378,21.5932 C132.1578,19.0142 128.9628,16.6362 125.6418,14.5252 L126.7168,12.8372 C130.1188,15.0012 133.3918,17.4382 136.4468,20.0802 L135.1378,21.5932 Z M27.0988,24.0982 L25.7218,22.6462 C28.6518,19.8672 31.8098,17.2812 35.1108,14.9602 L36.2608,16.5962 C33.0408,18.8612 29.9588,21.3852 27.0988,24.0982 Z M147.2048,34.5992 C144.8608,31.4372 142.2588,28.4192 139.4738,25.6292 L140.8898,24.2162 C143.7438,27.0762 146.4078,30.1682 148.8098,33.4082 L147.2048,34.5992 Z M15.6458,37.6432 L13.9858,36.5272 C16.2378,33.1792 18.7578,29.9682 21.4738,26.9832 L22.9528,28.3292 C20.3018,31.2432 17.8428,34.3762 15.6458,37.6432 Z M156.1398,49.9312 C154.5488,46.3352 152.6698,42.8212 150.5578,39.4862 L152.2478,38.4162 C154.4118,41.8332 156.3378,45.4352 157.9678,49.1212 L156.1398,49.9312 Z M7.4368,53.3542 L5.5738,52.6302 C7.0348,48.8712 8.7888,45.1882 10.7888,41.6832 L12.5248,42.6752 C10.5758,46.0942 8.8628,49.6872 7.4368,53.3542 Z M161.4818,66.8602 C160.7178,62.9892 159.6618,59.1462 158.3378,55.4372 L160.2198,54.7652 C161.5778,58.5662 162.6618,62.5062 163.4448,66.4732 L161.4818,66.8602 Z M2.8878,70.4962 L0.9098,70.2012 C1.5078,66.2072 2.4078,62.2252 3.5858,58.3662 L5.4978,58.9502 C4.3488,62.7152 3.4698,66.6002 2.8878,70.4962 Z M164.9738,84.5852 L162.9738,84.5362 C162.9898,83.8592 162.9998,83.1802 162.9998,82.4982 C162.9998,79.2312 162.8018,75.9372 162.4098,72.7092 L164.3958,72.4692 C164.7968,75.7762 164.9998,79.1512 164.9998,82.5002 C164.9998,83.1982 164.9898,83.8922 164.9738,84.5852 Z M0.2068,88.3622 C0.0698,86.4262 -0.0002,84.4532 -0.0002,82.5002 C0.0018,80.4092 0.0798,78.3002 0.2358,76.2322 L2.2298,76.3812 C2.0778,78.4002 2.0018,80.4592 1.9998,82.5002 C1.9998,84.4072 2.0678,86.3312 2.2008,88.2222 L0.2068,88.3622 Z M162.5348,102.5982 L160.5948,102.1122 C161.5488,98.3002 162.2278,94.3752 162.6128,90.4482 L164.6028,90.6432 C164.2088,94.6682 163.5128,98.6902 162.5348,102.5982 Z M3.4678,106.2442 C2.3098,102.3812 1.4288,98.3952 0.8528,94.3972 L2.8318,94.1112 C3.3938,98.0122 4.2538,101.9012 5.3838,105.6702 L3.4678,106.2442 Z M156.1908,119.6342 L154.4058,118.7332 C156.1808,115.2152 157.7088,111.5362 158.9448,107.8002 L160.8428,108.4282 C159.5778,112.2582 158.0108,116.0282 156.1908,119.6342 Z M10.5988,122.9812 C8.6128,119.4602 6.8728,115.7652 5.4308,111.9972 L7.2988,111.2822 C8.7068,114.9582 10.4018,118.5632 12.3418,121.9992 L10.5988,122.9812 Z M146.2628,134.8542 L144.7178,133.5842 C147.2198,130.5402 149.5168,127.2862 151.5448,123.9142 L153.2588,124.9452 C151.1808,128.4012 148.8258,131.7352 146.2628,134.8542 Z M21.2238,137.7412 C18.5188,134.7432 16.0128,131.5192 13.7768,128.1592 L15.4408,127.0512 C17.6248,130.3292 20.0698,133.4752 22.7088,136.4012 L21.2238,137.7412 Z M133.2498,147.5492 L132.0168,145.9732 C135.1228,143.5472 138.0738,140.8712 140.7908,138.0192 L142.2378,139.3992 C139.4548,142.3212 136.4288,145.0632 133.2498,147.5492 Z M34.8018,149.8222 C31.5128,147.4892 28.3668,144.8892 25.4508,142.0962 L26.8338,140.6512 C29.6808,143.3772 32.7518,145.9142 35.9608,148.1912 L34.8018,149.8222 Z M117.7728,157.1002 L116.9178,155.2922 C120.4778,153.6062 123.9428,151.6402 127.2168,149.4472 L128.3298,151.1092 C124.9738,153.3562 121.4238,155.3712 117.7728,157.1002 Z M50.6888,158.6422 C46.9718,157.0882 43.3358,155.2412 39.8788,153.1512 L40.9138,151.4392 C44.2868,153.4782 47.8358,155.2812 51.4608,156.7982 L50.6888,158.6422 Z M100.5678,163.0152 L100.1328,161.0632 C103.9758,160.2042 107.7908,159.0502 111.4698,157.6312 L112.1888,159.4972 C108.4178,160.9512 104.5078,162.1352 100.5678,163.0152 Z M68.1268,163.7512 C64.1478,163.0532 60.1908,162.0512 56.3648,160.7742 L56.9978,158.8762 C60.7298,160.1222 64.5918,161.0992 68.4718,161.7822 L68.1268,163.7512 Z M82.4858,165.0002 C79.7048,165.0002 76.8958,164.8592 74.1398,164.5822 L74.3418,162.5922 C77.0308,162.8632 79.7708,163.0002 82.4858,163.0002 L82.4998,163.0002 C86.4528,163.0002 90.4268,162.7112 94.3078,162.1402 L94.5988,164.1192 C90.6208,164.7032 86.5508,165.0002 82.4998,165.0002 L82.4858,165.0002 Z" id="Fill-3" fill="#FFFFFF" mask="url(#mask-2)"></path>
                    </g>
                    <path d="M76.3843,48.2306 C77.1493,48.2306 77.7723,47.6066 77.7723,46.8406 L77.7723,41.0476 C77.7723,39.0796 76.1743,37.4786 74.2103,37.4786 L35.4443,37.4786 C35.0733,37.4786 34.7253,37.6236 34.4623,37.8866 L19.2813,53.0936 C19.0243,53.3526 18.8753,53.7106 18.8753,54.0766 L18.8753,109.0766 C18.8753,111.0446 20.4743,112.6466 22.4393,112.6466 L74.2103,112.6466 C76.1743,112.6466 77.7713,111.0446 77.7713,109.0766 L77.7713,81.0476 C77.7713,80.6756 77.6273,80.3266 77.3643,80.0646 C77.1033,79.8016 76.7543,79.6576 76.3843,79.6576 C75.6183,79.6576 74.9963,80.2806 74.9963,81.0476 L74.9963,109.0766 C74.9963,109.5116 74.6443,109.8656 74.2113,109.8656 L22.4393,109.8656 C22.0043,109.8656 21.6513,109.5116 21.6513,109.0766 L21.6513,55.4676 L33.2713,55.4676 C35.2343,55.4676 36.8313,53.8666 36.8313,51.8996 L36.8313,40.2586 L74.2103,40.2586 C74.6443,40.2586 74.9953,40.6126 74.9953,41.0476 L74.9953,46.8406 C74.9953,47.6066 75.6183,48.2306 76.3843,48.2306 Z M34.0563,51.8996 C34.0563,52.3336 33.7033,52.6866 33.2713,52.6866 L23.6133,52.6866 L34.0563,42.2256 L34.0563,51.8996 Z" id="Fill-6" fill="#FFFFFF"></path>
                    <path d="M32.8442,77.2887 C31.9542,77.2887 31.2322,77.8967 31.2322,78.6437 C31.2322,79.3917 31.9542,79.9987 32.8442,79.9987 L54.8162,79.9987 L58.0002,77.2887 L32.8442,77.2887 Z" id="Fill-8" fill="#FFFFFF"></path>
                    <path d="M47.5913,92.0094 L32.6193,92.0094 C31.8543,92.0094 31.2323,92.6334 31.2323,93.3994 C31.2323,94.1664 31.8543,94.7904 32.6193,94.7904 L47.7143,94.7904 C47.6443,94.6314 47.3503,94.4654 47.3103,94.2864 C47.1843,93.5274 47.4453,92.7684 47.5913,92.0094" id="Fill-10" fill="#FFFFFF"></path>
                    <path d="M85.7876,57.2515 L84.2336,55.6945 C82.6166,54.0755 79.9846,54.0755 78.3676,55.6945 L62.5166,71.5745 L60.5176,73.5785 L51.9286,82.1825 L49.9276,84.1865 L49.3596,84.7555 C49.2386,84.8775 49.1496,85.0295 49.1036,85.1965 L46.9986,92.7915 C46.8926,93.3375 46.7196,93.8845 46.8106,94.4315 C47.0576,94.9095 47.7406,94.7945 47.7406,94.7945 C47.8246,94.7855 47.9736,94.7665 48.0156,94.7595 C48.3346,94.6705 56.3406,92.4455 56.3406,92.4455 C56.5056,92.3995 56.6576,92.3105 56.7796,92.1885 L85.7876,63.1275 C87.4046,61.5075 87.4046,58.8715 85.7876,57.2515 Z M49.1956,92.3535 L50.5716,87.3865 L54.1526,90.9745 L49.1956,92.3535 Z M56.0726,90.0635 L51.4806,85.4645 L76.4766,60.4225 L81.0686,65.0225 L56.0726,90.0635 Z M84.3736,61.7105 L82.4826,63.6055 L77.8916,59.0055 L79.7816,57.1115 C80.1866,56.7055 80.7266,56.4815 81.3016,56.4815 C81.8756,56.4815 82.4146,56.7055 82.8196,57.1115 L84.3736,58.6685 C84.7776,59.0745 85.0016,59.6145 85.0016,60.1895 C85.0016,60.7645 84.7776,61.3055 84.3736,61.7105 Z" id="Fill-12" fill="#FFFFFF"></path>
                    <path d="M32.7612,62.568 C31.9172,62.568 31.2322,63.113 31.2322,63.783 C31.2322,64.454 31.9172,64.999 32.7612,64.999 L69.7772,64.999 L73.0002,62.568 L32.7612,62.568 Z" id="Fill-14" fill="#FFFFFF"></path>
                    <path d="M136.3579,57.7725 C126.5109,42.2845 109.2119,31.9995 89.5009,31.9995 C83.7389,31.9995 79.7499,32.5015 75.3689,33.9275 C73.7779,34.3975 70.9689,35.4765 70.2119,35.9235 C70.1849,35.9375 70.1639,35.9505 70.1539,35.9605 C70.1289,35.9765 70.0969,35.9945 70.0789,36.0075 C69.9089,36.1395 69.9089,36.1395 69.8339,36.2645 C70.3929,36.2645 71.9309,36.2715 72.1579,36.2715 L79.7499,36.2715 C81.1399,36.2715 82.2709,37.4025 82.2709,38.7935 L82.2709,54.2175 C82.2709,54.4965 82.2259,54.7715 82.1339,55.0335 C82.0479,55.2835 82.1809,55.5555 82.4309,55.6425 C82.4819,55.6595 82.5349,55.6685 82.5869,55.6685 C82.7129,55.6685 82.8219,55.6045 82.9109,55.5165 L82.9249,56.5915 C83.1109,56.9395 83.7219,57.5005 84.0199,57.2345 C85.5899,55.8295 87.9949,55.9355 89.4349,57.4735 C91.4679,59.6445 91.5269,63.0015 89.5719,65.2425 L83.2939,72.4355 L82.7339,115.0385 C82.7119,116.6795 81.3759,117.9995 79.7339,117.9995 L46.6299,117.9995 C56.4349,127.0015 69.3399,132.4895 83.5009,132.4895 C114.1519,132.4895 139.0009,106.8595 139.0009,75.2445 C139.0009,69.1495 138.0679,63.2815 136.3579,57.7725" id="Fill-16" fill="#FFFFFF"></path>
                </g>
                <path d="M53.6191406,14.4892578 L53.6191406,20 L50.3964844,20 L50.3964844,4.359375 L56.4980469,4.359375 C57.6725319,4.359375 58.7055619,4.5742166 59.597168,5.00390625 C60.488774,5.4335959 61.1744768,6.04410412 61.6542969,6.83544922 C62.134117,7.62679432 62.3740234,8.5273387 62.3740234,9.53710938 C62.3740234,11.0696691 61.8494519,12.2781531 60.800293,13.1625977 C59.7511341,14.0470422 58.2991629,14.4892578 56.4443359,14.4892578 L53.6191406,14.4892578 Z M53.6191406,11.8789062 L56.4980469,11.8789062 C57.3502647,11.8789062 58.0001605,11.6783874 58.4477539,11.2773438 C58.8953473,10.8763001 59.1191406,10.3033891 59.1191406,9.55859375 C59.1191406,8.79231388 58.8935569,8.17285393 58.4423828,7.70019531 C57.9912087,7.2275367 57.368168,6.98404955 56.5732422,6.96972656 L53.6191406,6.96972656 L53.6191406,11.8789062 Z M71,20 C70.8567701,19.7207017 70.75293,19.3733745 70.6884766,18.9580078 C69.9365197,19.7959026 68.9589904,20.2148438 67.7558594,20.2148438 C66.6171818,20.2148438 65.6736691,19.88542 64.925293,19.2265625 C64.1769168,18.567705 63.8027344,17.7369842 63.8027344,16.734375 C63.8027344,15.502598 64.2592728,14.557295 65.1723633,13.8984375 C66.0854538,13.23958 67.4049393,12.9065756 69.1308594,12.8994141 L70.5595703,12.8994141 L70.5595703,12.2333984 C70.5595703,11.6962864 70.4217136,11.2666032 70.1459961,10.9443359 C69.8702786,10.6220687 69.4352243,10.4609375 68.8408203,10.4609375 C68.3180312,10.4609375 67.9080419,10.5862618 67.6108398,10.8369141 C67.3136378,11.0875664 67.1650391,11.4313129 67.1650391,11.8681641 L64.0605469,11.8681641 C64.0605469,11.1949836 64.2682271,10.571943 64.6835938,9.99902344 C65.0989604,9.42610391 65.6861941,8.97672689 66.4453125,8.65087891 C67.2044309,8.32503092 68.0566359,8.16210938 69.0019531,8.16210938 C70.434252,8.16210938 71.5711221,8.52196906 72.4125977,9.24169922 C73.2540732,9.96142938 73.6748047,10.9729753 73.6748047,12.2763672 L73.6748047,17.3144531 C73.6819662,18.4173232 73.835936,19.2516248 74.1367188,19.8173828 L74.1367188,20 L71,20 Z M68.4326172,17.8408203 C68.8909528,17.8408203 69.3134746,17.7387706 69.7001953,17.534668 C70.086916,17.3305654 70.3733715,17.0566423 70.5595703,16.7128906 L70.5595703,14.7148438 L69.3994141,14.7148438 C67.8453698,14.7148438 67.0182297,15.2519478 66.9179688,16.3261719 L66.9072266,16.5087891 C66.9072266,16.8955097 67.0432929,17.2141915 67.3154297,17.4648438 C67.5875665,17.715496 67.9599586,17.8408203 68.4326172,17.8408203 Z M82.3544922,16.7880859 C82.3544922,16.4085267 82.1665058,16.1095389 81.7905273,15.8911133 C81.4145489,15.6726877 80.8112021,15.4775399 79.9804688,15.3056641 C77.216132,14.725583 75.8339844,13.5511156 75.8339844,11.7822266 C75.8339844,10.7509714 76.2618772,9.88981465 77.1176758,9.19873047 C77.9734743,8.50764628 79.092441,8.16210938 80.4746094,8.16210938 C81.9498772,8.16210938 83.1297156,8.50943663 84.0141602,9.20410156 C84.8986047,9.89876649 85.3408203,10.8011012 85.3408203,11.9111328 L82.2363281,11.9111328 C82.2363281,11.4671202 82.0931004,11.1000991 81.8066406,10.8100586 C81.5201809,10.5200181 81.0725942,10.375 80.4638672,10.375 C79.9410781,10.375 79.5364598,10.4931629 79.25,10.7294922 C78.9635402,10.9658215 78.8203125,11.2665997 78.8203125,11.6318359 C78.8203125,11.9755877 78.983234,12.2530914 79.309082,12.4643555 C79.63493,12.6756195 80.1845664,12.8582349 80.9580078,13.012207 C81.7314492,13.1661792 82.3831354,13.3398428 82.9130859,13.5332031 C84.5530681,14.1347686 85.3730469,15.1767504 85.3730469,16.6591797 C85.3730469,17.7190808 84.9182988,18.5766569 84.0087891,19.2319336 C83.0992793,19.8872103 81.9248119,20.2148438 80.4853516,20.2148438 C79.5113884,20.2148438 78.6466509,20.0411801 77.8911133,19.6938477 C77.1355756,19.3465152 76.5429709,18.870283 76.1132812,18.2651367 C75.6835916,17.6599905 75.46875,17.0065139 75.46875,16.3046875 L78.4121094,16.3046875 C78.4407554,16.8561225 78.6448549,17.2786444 79.0244141,17.5722656 C79.4039733,17.8658869 79.9124317,18.0126953 80.5498047,18.0126953 C81.1442087,18.0126953 81.5935857,17.8999035 81.8979492,17.6743164 C82.2023127,17.4487293 82.3544922,17.1533221 82.3544922,16.7880859 Z M86.8876953,14.0810547 C86.8876953,12.9280541 87.1096983,11.9003951 87.5537109,10.9980469 C87.9977236,10.0956986 88.6368773,9.39746341 89.4711914,8.90332031 C90.3055055,8.40917722 91.274083,8.16210938 92.3769531,8.16210938 C93.9453203,8.16210938 95.2254182,8.64192229 96.2172852,9.6015625 C97.2091521,10.5612027 97.7623692,11.8645751 97.8769531,13.5117188 L97.8984375,14.3066406 C97.8984375,16.0898527 97.4007211,17.5203397 96.4052734,18.5981445 C95.4098258,19.6759494 94.0742271,20.2148438 92.3984375,20.2148438 C90.7226479,20.2148438 89.3852589,19.6777397 88.3862305,18.6035156 C87.387202,17.5292915 86.8876953,16.0683686 86.8876953,14.2207031 L86.8876953,14.0810547 Z M89.9921875,14.3066406 C89.9921875,15.4095107 90.1998677,16.252764 90.6152344,16.8364258 C91.030601,17.4200876 91.6249961,17.7119141 92.3984375,17.7119141 C93.1503944,17.7119141 93.7376281,17.4236682 94.1601562,16.847168 C94.5826844,16.2706677 94.7939453,15.3486392 94.7939453,14.0810547 C94.7939453,12.9996691 94.5826844,12.1617868 94.1601562,11.5673828 C93.7376281,10.9729788 93.143233,10.6757812 92.3769531,10.6757812 C91.6178347,10.6757812 91.030601,10.9711885 90.6152344,11.5620117 C90.1998677,12.152835 89.9921875,13.0677021 89.9921875,14.3066406 Z M112.701172,20 L109.59668,20 L109.59668,8.03320312 L105.890625,9.18261719 L105.890625,6.65820312 L112.368164,4.33789062 L112.701172,4.33789062 L112.701172,20 Z" id="Paso-1" fill="#FFFFFF"></path>
            </g>
        </g>
    </g>
</svg>