<?xml version="1.0" encoding="UTF-8"?>
<svg width="165px" height="165px" viewBox="0 0 165 165" version="1.1" xmlns="http://www.w3.org/2000/svg" xmlns:xlink="http://www.w3.org/1999/xlink">
    <!-- Generator: sketchtool 51.2 (57519) - http://www.bohemiancoding.com/sketch -->
    <title>1A323308-2B34-4C45-BB62-E617F8D4459A</title>
    <desc>Created with sketchtool.</desc>
    <defs>
        <path d="M55.5,111 C86.1518036,111 111,86.1518036 111,55.5 C111,24.8481964 86.1518036,0 55.5,0 C51.705373,0 48.3086387,0.525167236 45.2616856,1.49888786 C26.5898916,7.46586876 21.0533065,30.2772168 17.5803425,52.3022918 C17.0421346,55.7155343 6.39489902,53.8475683 4.82669313,55.5410669 C3.36677261,57.1176286 0.122463653,59.7750992 0.360801646,61.863155 C3.51744278,89.5181798 27.0000474,111 55.5,111 Z" id="path-1"></path>
    </defs>
    <g id="FLUJO-" stroke="none" stroke-width="1" fill="none" fill-rule="evenodd">
        <g id="1.-Home_Campaña-navidad" transform="translate(-638.000000, -886.000000)">
            <g id="Group-28" transform="translate(639.000000, 887.000000)">
                <g id="Group-2" transform="translate(27.000000, 28.000000)">
                    <mask id="mask-2" fill="white">
                        <use xlink:href="#path-1"></use>
                    </mask>
                    <use id="Oval-3" fill="#DEDEDE" xlink:href="#path-1"></use>
                    <path d="M49.5,100.490566 C80.1518036,100.490566 105,74.8609798 105,43.245283 C105,11.6295862 80.1518036,-14 49.5,-14 C18.8481964,-14 4.56709978,10.1024037 6.81991148,43.7250655 C9.07272317,77.3477272 18.8481964,100.490566 49.5,100.490566 Z" id="Oval-3-Copy-5" fill="#FFFFFF" mask="url(#mask-2)"></path>
                </g>
                <path d="M81.5,163 C126.511207,163 163,126.511207 163,81.5 C163,36.4887929 126.511207,0 81.5,0 C36.4887929,0 0,36.4887929 0,81.5 C0,126.511207 36.4887929,163 81.5,163 Z" id="Oval-3-Copy" stroke="#FFFFFF" stroke-width="2" stroke-dasharray="12,6"></path>
                <g id="Group-3" transform="translate(53.000000, 37.000000)"></g>
                <path d="M82.6745991,41.3013853 C82.6744104,41.0681121 82.6764866,40.1536051 82.654781,39.9413833 C82.1289414,34.7173904 77.6942219,29.633551 72.3895831,29.633551 C70.3177446,29.633551 69.9948043,30.1611658 69.2875821,29.7697219 C66.2899563,28.107982 61.920542,27.0207011 58.156051,27.0004082 C47.3051817,26.9298573 38.2958836,36.0129103 38.2958836,47.0774582 L38.2958836,76.588609 C38.2958836,78.7241022 40.0187351,80.4552552 42.1437993,80.4552552 L52.3908779,80.4552552 L52.3908779,80.9320429 L38.9670558,84.275057 C38.9552279,84.2778386 37.6320151,84.0487211 34.9974175,83.5877046 C33.1609424,84.2727314 29.277421,86.0735098 28.4373232,90.3010657 C25.5536985,104.856178 27.9887845,112.569773 27.4755907,115.230605 C27.3310131,115.980114 27.9027175,116.674624 28.6622217,116.674624 C58.8110729,118.166751 74.3695885,118.398985 75.3377685,117.371324 C75.5430483,117.153433 74.8913579,108.643486 75.223056,108.087797 C80.5432374,99.1749885 91.2783499,103.146889 90.9944796,101.632319 C90.7106092,100.11775 89.405762,94.7444737 88.7149604,91.2235651 C87.5388991,85.304873 82.0132416,84.2974361 81.9956884,84.289281 C81.9364229,84.2718329 82.5026537,84.4146417 68.5192069,80.9318533 L68.5192069,80.4550655 L78.8129051,80.4550655 C80.938158,80.4550655 82.6610096,78.7239126 82.6610096,76.588609 L82.6610096,56.8620378 C82.8338987,56.1286495 82.8342762,55.3660547 82.6610096,54.6309595 L82.6610096,47.4863502 L82.6745991,41.3013853 Z" id="Fill-1" fill="#E62228"></path>
                <g id="invita" transform="translate(21.000000, 23.000000)">
                    <path d="M64.93177,80.1590687 C62.0534679,80.1590687 59.3472198,81.2818988 57.312879,83.3225168 C55.275956,85.3605481 54.155295,88.0717055 54.155295,90.955229 C54.155295,93.8387525 55.275956,96.5509992 57.312879,98.5899834 C59.348307,100.629512 62.0534679,101.752342 64.93177,101.752342 C67.8100721,101.752342 70.5163203,100.629512 72.5506611,98.5899834 C74.5874482,96.5509992 75.7082451,93.8387525 75.7082451,90.955229 C75.7082451,88.0717055 74.5874482,85.3605481 72.5506611,83.3225168 C70.5163203,81.2818988 67.8100721,80.1590687 64.93177,80.1590687 M64.93177,103.911547 C61.4777803,103.911547 58.2300923,102.564206 55.7891279,100.116499 C53.3449019,97.6705616 52,94.4164375 52,90.955229 C52,87.4949736 53.3459891,84.2408494 55.7891279,81.7958655 C58.2300923,79.3484308 61.4777803,78 64.93177,78 C68.3857597,78 71.6338555,79.3484308 74.0744121,81.7958655 C76.5175509,84.2408494 77.8635401,87.4949736 77.8635401,90.955229 C77.8635401,94.4164375 76.5186381,97.6705616 74.0744121,100.116499 C71.6338555,102.564206 68.3857597,103.911547 64.93177,103.911547" id="Fill-4" fill="#E62228"></path>
                    <path d="M70.8541905,91.1592048 L60.0777155,91.1592048 C59.4815064,91.1592048 59,90.6768249 59,90.0795343 C59,89.4823799 59.4815064,89 60.0777155,89 L70.8541905,89 C71.4503995,89 71.9319059,89.4823799 71.9319059,90.0795343 C71.9319059,90.6768249 71.4503995,91.1592048 70.8541905,91.1592048" id="Fill-6" fill="#E72127"></path>
                    <path d="M65.0777155,96.955229 C64.4815064,96.955229 64,96.4728491 64,95.8755585 L64,85.0795343 C64,84.4823799 64.4815064,84 65.0777155,84 C65.6739245,84 66.1554309,84.4823799 66.1554309,85.0795343 L66.1554309,95.8755585 C66.1554309,96.4728491 65.6739245,96.955229 65.0777155,96.955229" id="Fill-8" fill="#E72127"></path>
                    <path d="M42.0593269,61.8699578 L25.5831614,61.8699578 L23.2848441,59.1523196 L27.2200993,58.1749912 C27.8169821,58.0269991 28.2356303,57.4772035 28.2356303,56.8614403 L28.2358234,52.7170806 C31.9154097,53.9457053 35.8012303,53.932357 39.3871614,52.755191 C39.4124579,57.0370963 39.3298097,56.9390152 39.4616993,57.3168304 C39.6076855,57.7343036 39.9550786,58.0637553 40.4024993,58.1747978 L44.3636303,59.1583166 L42.0593269,61.8699578 Z M36.9689269,67.8596728 C35.1056717,70.0522776 32.4976166,70.046474 30.6388028,67.8486459 L27.8488441,64.5494857 L39.7820579,64.5494857 L36.9689269,67.8596728 Z M23.5443752,46.7941071 C20.5184441,43.9006194 18.7832166,39.8377038 18.7832166,35.6465283 C18.8627752,32.7298261 18.5904993,32.3763861 19.0551062,31.9380199 C19.2196303,31.7826766 19.4407338,31.6923337 19.6898372,31.7068427 C29.2781959,32.2850759 37.5252579,28.0623675 42.9700028,20.9920199 C44.4379752,23.574434 46.5910786,24.3786212 48.1872717,24.588712 C48.5864166,24.6413314 48.8874648,24.9823904 48.8874648,25.3826462 L48.8874648,35.8804139 C48.8874648,49.210151 32.9583614,55.7953166 23.5443752,46.7941071 Z M51.5619476,35.8802204 L51.5619476,35.6327931 C52.3976993,35.4782235 53.1737821,35.1816589 53.8558234,34.773665 L53.8558234,51.3963718 C53.8558234,52.0947399 53.2906097,52.6607855 52.5936993,52.6607855 L42.0618372,52.6607855 L42.0618372,51.6256145 C47.7315476,48.655906 51.5619476,42.7102985 51.5619476,35.8802204 Z M51.5619476,27.3885681 C52.6786648,27.7213085 53.5399062,28.4585608 53.8558234,29.3691476 L53.8558234,30.9040096 C53.5399062,31.8145964 52.6786648,32.5518487 51.5619476,32.8843957 L51.5619476,27.3885681 Z M63.2578372,75.4200388 C63.95552,75.2855884 64.4112441,74.6115956 64.2797407,73.9122603 C63.9895062,72.3673386 63.4308579,69.9158927 62.7240993,66.3246173 C61.5208717,60.2871192 55.8673821,59.2594929 55.8496166,59.2513679 L55.8496166,59.2515613 C55.788789,59.2335701 56.3682924,59.3792408 42.0618372,55.8264627 L42.0618372,55.34012 L52.5933131,55.34012 C54.7676579,55.34012 56.5301131,53.5744676 56.5301131,51.3961784 L56.5301131,31.2742801 C56.7069959,30.5261945 56.7073821,29.7485104 56.5301131,28.9986836 L56.5301131,21.710894 C56.5301131,20.9771239 55.9654786,20.3375658 55.2336166,20.315899 C54.4762648,20.2934584 53.8556303,20.9012901 53.8556303,21.6549859 L53.8556303,25.4996857 C53.1496441,25.0773761 52.3432441,24.774621 51.4744717,24.6248878 C51.1606786,23.2287321 50.0034097,22.124885 48.5354372,21.9318182 C47.0054786,21.7304328 45.8460855,20.83687 45.0893131,19.2762786 C44.7349683,18.5456038 44.0413407,18.0658385 43.233589,17.9921326 C42.425451,17.9190071 41.6601821,18.2649024 41.1808993,18.9181957 C38.882389,22.0523399 32.4920166,29.0816753 21.4575062,29.0812884 C20.6180855,29.0812884 20.0488166,29.0414369 19.8504993,29.0325381 C17.82272,28.9102753 16.1083476,30.5333522 16.1083476,32.5688726 L16.1083476,35.4283125 C16.1083476,40.1137623 17.8260028,44.667857 21.0404028,48.0712888 C22.3857545,49.4956887 23.9120441,50.6564112 25.5609545,51.5478461 L25.5609545,52.6611724 L15.0773683,52.6611724 C14.3800717,52.6611724 13.8148579,52.0949333 13.8148579,51.3963718 L13.8148579,21.2940012 C13.8148579,11.5348399 21.7573959,3.49335443 31.3519338,3.49335443 C31.3828303,3.49335443 31.41392,3.49354788 31.4446234,3.49374134 C34.882251,3.51211944 38.8511062,4.4902216 41.5559062,5.98503872 C43.2698924,6.93276864 44.3286786,6.17945974 46.0214234,6.17945974 C50.1528717,6.17945974 53.4638234,10.4354422 53.8604579,14.2633116 C53.8631614,14.3194131 53.8689545,14.5438195 53.8697269,15.4041083 C53.8704993,16.6971532 55.3284303,16.7965884 55.2079338,16.7426148 C55.9467476,16.7420345 56.544789,16.141554 56.5442097,15.4017869 C56.5440166,15.1640322 56.5459476,14.2311982 56.5235476,14.0147235 C55.9859476,8.68584652 51.448789,3.50012531 46.0216166,3.50012531 C43.90192,3.50012531 43.57152,4.0385071 42.8479614,3.6390251 C39.7808993,1.94398335 35.3107476,0.835106461 31.4591062,0.81440691 C20.357589,0.742442115 11.1401821,10.0075225 11.1401821,21.2938077 L11.1401821,51.3963718 C11.1401821,53.5744676 12.9028303,55.3403134 15.0771752,55.3403134 L25.5609545,55.3403134 L25.5609545,55.8266561 L11.8268579,59.2366654 C11.8088993,59.2411148 11.7909407,59.2461446 11.7729821,59.2515613 L10.7696166,59.5479325 C10.7398786,59.5577986 10.7109131,59.5674713 10.6809821,59.5773374 C8.8905269,60.246494 5.75800276,62.0129201 4.89830621,66.3253911 C1.94807172,81.1721926 0.594802759,88.0986106 0.0701406897,90.8125733 C-0.0777765517,91.5771025 0.50694069,92.2855301 1.28418207,92.2855301 L1.40989241,92.2855301 C2.09405793,92.2855301 2.67607172,91.7889343 2.78536828,91.1122331 C3.20865103,88.4936432 4.6013131,81.5180879 7.52142345,66.8490704 C8.12004414,63.8447337 10.2978648,62.5896058 11.5738924,62.10365 L12.5011752,61.8297194 L20.3879062,59.8713871 C29.1613683,70.2256122 28.64192,69.6769773 29.1490097,70.1726058 C32.0774234,73.0341737 36.2556028,72.832208 39.0057821,69.596694 L47.2642372,59.8787384 L55.1210372,61.829526 C55.3481269,61.9341845 59.2592441,62.6234602 60.1013683,66.8486835 C61.041589,71.8022602 61.3893683,73.7017826 61.5504166,74.5725179 C61.6662786,75.1989212 62.2687614,75.6105907 62.893451,75.4902625 C63.0137545,75.467048 63.1363752,75.4434467 63.2578372,75.4200388 Z" id="Fill-10" fill="#FFFFFF"></path>
                    <path d="M43.4872303,41.1841032 C43.285051,40.9817506 43.0164441,40.8701277 42.7304579,40.8701277 C42.4448579,40.8701277 42.1760579,40.9817506 41.9738786,41.1841032 C37.6336855,45.53275 30.57112,45.5323631 26.2309269,41.1841032 C25.8138234,40.7660496 25.1348717,40.7662431 24.7177683,41.1841032 C24.515589,41.3866492 24.4041683,41.6557434 24.4041683,41.9422484 C24.4041683,42.22856 24.515589,42.4978476 24.7177683,42.7002002 C27.2205821,45.2075543 30.5533545,46.5886206 34.1024028,46.5886206 C37.651451,46.5886206 40.9844166,45.2075543 43.4872303,42.7003937 C43.6894097,42.4978476 43.8008303,42.22856 43.8008303,41.9422484 C43.8008303,41.6559369 43.6894097,41.3866492 43.4872303,41.1841032" id="Fill-12" fill="#FFFFFF"></path>
                </g>
            </g>
        </g>
    </g>
</svg>