<?xml version="1.0" encoding="UTF-8"?>
<svg width="854px" height="289px" viewBox="0 0 854 289" version="1.1" xmlns="http://www.w3.org/2000/svg" xmlns:xlink="http://www.w3.org/1999/xlink">
    <!-- Generator: sketchtool 51.2 (57519) - http://www.bohemiancoding.com/sketch -->
    <title>89C66B8B-547E-4EF0-BDA1-4219CD05A1A8</title>
    <desc>Created with sketchtool.</desc>
    <defs>
        <polygon id="path-1" points="7.51951916e-05 0.082925636 62.8759459 0.082925636 62.8759459 44.8484528 7.51951916e-05 44.8484528"></polygon>
        <polygon id="path-3" points="-4.34259204e-05 0.0298181818 45.8373405 0.0298181818 45.8373405 20.3144018 -4.34259204e-05 20.3144018"></polygon>
        <polygon id="path-5" points="4.77429788e-05 0.0531242355 39.9212355 0.0531242355 39.9212355 28.7310401 4.77429788e-05 28.7310401"></polygon>
        <polygon id="path-7" points="-2.7572013e-05 0.0191022727 29.1030734 0.0191022727 29.1030734 13.0139137 -2.7572013e-05 13.0139137"></polygon>
        <polygon id="path-9" points="4.77429788e-05 0.0531242355 39.9212355 0.0531242355 39.9212355 28.7310401 4.77429788e-05 28.7310401"></polygon>
        <polygon id="path-11" points="-2.7572013e-05 0.0191022727 29.1030734 0.0191022727 29.1030734 13.0139137 -2.7572013e-05 13.0139137"></polygon>
        <polygon id="path-13" points="4.77429788e-05 0.0531242355 39.9212355 0.0531242355 39.9212355 28.7310401 4.77429788e-05 28.7310401"></polygon>
        <polygon id="path-15" points="-2.7572013e-05 0.0191022727 29.1030734 0.0191022727 29.1030734 13.0139137 -2.7572013e-05 13.0139137"></polygon>
    </defs>
    <g id="FLUJO-" stroke="none" stroke-width="1" fill="none" fill-rule="evenodd">
        <g id="1.-Home_Campaña-navidad" transform="translate(-297.000000, -1826.000000)">
            <g id="Group-30" transform="translate(297.000000, 1826.000000)">
                <g id="Group-15" transform="translate(0.000000, 223.000000)">
                    <g id="Group-3" transform="translate(0.000000, 19.121697)">
                        <mask id="mask-2" fill="white">
                            <use xlink:href="#path-1"></use>
                        </mask>
                        <g id="Clip-2"></g>
                        <path d="M11.9769324,22.2433212 C3.92485135,22.7303515 1.49752703,23.1293818 2.22944595,20.6961697 C2.87282432,18.5587152 15.2205811,19.0285333 24.9109054,19.9996848 C19.1506622,20.0663515 14.1819324,22.1102303 11.9769324,22.2433212 M29.5476081,30.2697455 C23.4468243,30.2697455 10.1603919,34.4925333 10.4046081,32.7902303 C10.6293649,31.2241697 20.4374189,28.3960485 30.6448784,30.1832 C30.7000946,30.192897 30.7562838,30.2038061 30.8122297,30.2147152 C30.3019054,30.2493818 29.8696622,30.2697455 29.5476081,30.2697455 M40.1639595,10.5247758 C17.4946622,10.4452606 1.86993243,5.74174545 1.61987838,3.62950303 C1.46882432,2.34635152 4.41328378,-0.399345455 10.1333919,5.41229091 C14.4991216,9.8481697 23.9043649,8.77689697 30.0764189,8.56865455 C37.7273919,8.30950303 43.8308514,8.52210909 48.5850405,9.01713939 C45.8385811,9.93956364 42.845473,10.5339879 40.1639595,10.5247758 M57.1408784,6.76089697 C58.5706622,4.64404848 59.0710135,2.5262303 57.7562838,1.17059394 C57.8535811,1.69010909 57.8419054,2.24332121 57.6974189,2.83483636 C57.4648784,3.78732121 56.5366622,4.81859394 55.1630676,5.80744242 C49.9221486,3.56695758 42.7255541,2.52744242 35.8872568,3.65010909 C13.7287703,7.28889697 12.7015541,2.76768485 10.5055541,1.31241212 C6.00214865,-1.67231515 1.86360811,1.48041212 0.937824324,3.35701818 C-2.46077027,10.2484121 3.7845,12.2396848 13.1272297,13.5482909 C28.6617162,15.725503 44.7208784,16.3638061 51.8260135,11.8164121 C52.7106892,11.2501091 53.5742027,10.5890182 54.3720405,9.87459394 C62.1468243,11.4530182 63.8103649,13.9747152 61.3937432,15.4336242 C59.7669324,16.4166545 52.7048514,18.2093818 44.3584459,19.2956848 C36.5189595,16.7012606 26.0509865,15.0792 14.5927703,15.7667152 C2.66217568,16.4830788 1.12536486,18.7036848 2.12412162,22.5667152 C3.02339189,26.0428364 3.19536486,29.4947152 10.8628784,28.0098667 C12.3267162,27.7257455 18.4002568,25.3807758 25.7632297,25.6583515 C33.2884459,25.9424727 41.9415811,25.0792 48.9679054,23.3555636 C54.3547703,24.3773818 57.1121757,25.3313212 56.0273108,26.1967758 C55.5999324,26.5364121 55.857527,27.5907152 42.7844189,28.9453818 C40.6969054,29.1618667 37.1611216,29.5948364 34.1796892,29.9070788 C23.1493378,27.8244121 8.37085135,28.3865939 8.57517568,31.6954424 C8.74909459,34.5308364 10.3934189,36.6442909 12.9413919,38.1296242 C16.6617973,40.2988364 20.5532027,36.8132606 37.8981486,36.0379879 C39.099527,35.9844121 40.3033378,35.9458667 41.4959595,35.9036848 C43.0167162,37.3582303 43.6856351,38.7099879 42.6776351,39.4406545 C39.9929595,41.3865939 22.8783649,38.488897 22.8783649,38.488897 L23.9712568,44.0673212 C27.111527,45.1562909 40.0024459,46.3402909 45.2718243,38.3526545 C45.9023108,37.3970182 46.0667432,36.5116848 45.8531757,35.6961697 C49.5772297,35.4392 53.0013649,34.9034424 55.6493108,33.4527758 C60.7934189,30.6360485 58.6489865,26.2559273 51.9532297,22.5400485 C56.8176081,21.0627152 60.5399595,19.125503 61.9578243,16.8481697 C64.3238514,13.0469576 61.9038243,9.34829091 57.1408784,6.76089697" id="Fill-1" fill="#DA272C" mask="url(#mask-2)"></path>
                    </g>
                    <g id="Group-6" transform="translate(11.918919, 0.212606)">
                        <mask id="mask-4" fill="white">
                            <use xlink:href="#path-3"></use>
                        </mask>
                        <g id="Clip-5"></g>
                        <path d="M31.0323405,15.3472485 C18.4639622,15.4689455 0.143124324,16.0478545 1.39996216,12.3324606 C2.04601622,10.4253091 18.5332865,11.1928242 33.4513946,15.3043394 C32.7211784,15.324703 31.9179892,15.3387636 31.0323405,15.3472485 M40.4193405,15.1540364 C40.5236919,14.7002182 40.6224486,14.180703 40.7265568,13.5790061 C41.4981243,9.11888485 29.0207189,3.15064242 25.0242324,1.46724848 C15.3302595,-2.61517576 15.1925838,3.09973333 15.7389081,5.00567273 C17.9232324,4.32446061 23.2490432,5.27694545 30.6219892,9.08785455 C36.4593405,12.1036121 40.0099622,13.7266424 39.0126649,14.560097 C37.1134216,13.8051879 35.1061784,13.1688242 33.3939892,12.5748848 C29.8842324,11.3581576 1.88863784,4.79233939 0.180097297,13.0616727 C-1.52722703,21.3317333 9.22485405,19.5033697 18.7432054,20.1106424 C28.1956378,20.7140364 33.7493676,19.8655515 36.3571784,19.0219152 C38.0759351,18.4662788 39.0092595,18.0781576 39.6095838,17.2417939 C41.4759892,17.9108848 43.2733135,18.6393697 44.9594757,19.4301576 C45.3148541,19.6190061 45.6028541,19.8379152 45.8373405,20.0796121 C45.4376919,17.9467636 43.1684757,16.3925818 40.4193405,15.1540364" id="Fill-4" fill="#DA272C" mask="url(#mask-4)"></path>
                    </g>
                    <path d="M55.1630676,24.9291879 C53.4856622,26.1364606 51.1427432,27.2799758 48.5850405,28.1388848 C50.801473,28.3694303 52.7243108,28.6615515 54.3720405,28.996097 C55.4564189,28.0251879 56.4169865,26.9544 57.1408784,25.8826424 C56.5196351,25.5451879 55.8587432,25.2266424 55.1630676,24.9291879" id="Fill-7" fill="#AF0000"></path>
                    <path d="M52.3382108,15.3666909 C51.880427,15.1603879 51.4095081,14.9628121 50.9315351,14.7727515 C50.4131838,15.2059636 48.6642649,15.4258424 45.3702649,15.5169939 C47.4706703,16.095903 49.5389676,16.7409939 51.5284541,17.4544485 C51.8840757,16.9586909 52.1224541,16.3051152 52.3382108,15.3666909" id="Fill-9" fill="#AF0000"></path>
                    <path d="M34.1797622,49.0287273 C32.9017622,49.1625455 31.7281135,49.2735758 30.8120595,49.3363636 C34.2442216,49.9945455 39.0091135,52.6466667 41.4960324,55.0253333 C42.9744649,54.9732121 44.435627,54.9157576 45.8530054,54.8178182 C45.1417622,52.1050909 40.2243568,50.1700606 34.1797622,49.0287273" id="Fill-11" fill="#AF0000"></path>
                    <path d="M26.8444703,39.1758788 C26.1918486,39.1298182 25.5467676,39.1140606 24.9109297,39.1213333 C26.2409838,39.2546667 27.521173,39.3974545 28.7140378,39.5441212 C37.0295514,40.5673939 44.0806865,41.5501818 48.9679297,42.4772121 C50.001227,42.2238788 50.9992541,41.9516364 51.9532541,41.661697 C49.8440919,40.4912727 47.2861459,39.386303 44.3584703,38.4173333 C38.6789838,39.1564848 32.4052541,39.5688485 26.8444703,39.1758788" id="Fill-13" fill="#AF0000"></path>
                </g>
                <g id="Group-15-Copy" transform="translate(692.000000, 0.000000)">
                    <g id="Group-3" transform="translate(0.000000, 12.249837)">
                        <mask id="mask-6" fill="white">
                            <use xlink:href="#path-5"></use>
                        </mask>
                        <g id="Clip-2"></g>
                        <path d="M7.60440154,14.2496277 C2.49196911,14.5616314 0.950810811,14.8172602 1.41552124,13.2584837 C1.82401544,11.8891769 9.663861,12.1901542 15.8164479,12.8122981 C12.1591506,12.8550064 9.00440154,14.1643663 7.60440154,14.2496277 M18.7603861,19.3915557 C14.8868726,19.3915557 6.45104247,22.0967792 6.60610039,21.0062413 C6.74880309,20.0029837 12.976139,18.1912186 19.4570656,19.3361125 C19.4921236,19.3423246 19.5277992,19.3493133 19.5633205,19.3563019 C19.239305,19.3785102 18.9648649,19.3915557 18.7603861,19.3915557 M25.5009266,6.74243447 C11.107722,6.69149508 1.18725869,3.67830568 1.02849421,2.32515038 C0.932586873,1.50313144 2.80208494,-0.255830682 6.43389961,3.46724886 C9.20579151,6.30898371 15.1773745,5.62269962 19.096139,5.48929432 C23.9538996,5.32327538 27.829112,5.45947614 30.8476448,5.77660492 C29.103861,6.36753295 27.2034749,6.74833598 25.5009266,6.74243447 M36.2799228,4.33119962 C37.187722,2.97509356 37.5054054,1.61836629 36.6706564,0.749911742 C36.7324324,1.08272614 36.7250193,1.43712765 36.6332819,1.81606705 C36.4856371,2.42625265 35.8962934,3.08691174 35.0241699,3.7203928 C31.6966023,2.2850822 27.1273359,1.6191428 22.7855598,2.33835114 C8.71667954,4.66944962 8.06447876,1.77304811 6.67019305,0.840764015 C3.81088803,-1.07132689 1.18324324,0.948389015 0.595444015,2.15058977 C-1.56239382,6.56538902 2.40285714,7.84104811 8.33474903,8.67937386 C18.1979151,10.0741504 28.3942085,10.4830633 32.9054054,7.56988902 C33.4671042,7.20710114 34.0153668,6.78358977 34.5219305,6.32591174 C39.4583012,7.33708977 40.5145174,8.95255189 38.9801544,9.88716553 C37.9472587,10.5169193 33.4633977,11.6653852 28.1640927,12.3612981 C23.1866409,10.6992451 16.5403089,9.6601125 9.26525097,10.1005519 C1.69027027,10.5594723 0.714517375,11.9820481 1.34864865,14.4568019 C1.9196139,16.683692 2.02880309,18.8950519 6.89706564,17.9438208 C7.82648649,17.7618057 11.6827027,16.2595595 16.3576062,16.4373814 C21.1355212,16.6193966 26.6295753,16.0663625 31.0907336,14.962158 C34.5109653,15.6167602 36.2616988,16.2278777 35.5728958,16.7823095 C35.3015444,16.999889 35.4650965,17.6753019 27.1647104,18.5431352 C25.839305,18.6818208 23.5943629,18.959192 21.70139,19.1592223 C14.6979923,17.825014 5.31482625,18.1851617 5.44455598,20.3048928 C5.55498069,22.121317 6.59899614,23.4752489 8.21675676,24.4267905 C10.5789189,25.816442 13.0496525,23.5834951 24.0623166,23.086836 C24.8250965,23.052514 25.5894208,23.0278208 26.3466409,23.0007981 C27.3122008,23.9326163 27.7369112,24.798586 27.0969112,25.2666693 C25.3923552,26.5132867 14.5259459,24.6569496 14.5259459,24.6569496 L15.2198456,28.2306277 C17.213668,28.9282489 25.3983784,29.6867489 28.7440154,24.5696693 C29.1443243,23.9574648 29.2487259,23.3902981 29.1131274,22.8678587 C31.4776062,22.7032375 33.6516602,22.3600178 35.3328958,21.4306845 C38.5989961,19.6262186 37.2374517,16.8202034 32.9861776,14.4397186 C36.0746718,13.4933019 38.4380695,12.2522754 39.3383012,10.7933587 C40.8405405,8.3582072 39.3040154,5.98874886 36.2799228,4.33119962" id="Fill-1" fill="#DA272C" mask="url(#mask-6)"></path>
                    </g>
                    <g id="Group-6" transform="translate(7.567568, 0.136201)">
                        <mask id="mask-8" fill="white">
                            <use xlink:href="#path-7"></use>
                        </mask>
                        <g id="Clip-5"></g>
                        <path d="M19.7030734,9.83183106 C11.7231506,9.90979318 0.0908725869,10.2806568 0.888864865,7.90048258 C1.29905792,6.67871364 11.767166,7.17040303 21.2389807,9.80434242 C20.7753514,9.81738788 20.26539,9.82639545 19.7030734,9.83183106 M25.6630734,9.70805455 C25.7293282,9.41732727 25.7920309,9.08451288 25.8581313,8.69905076 C26.3480154,5.84178561 18.4258533,2.0183803 15.8884015,0.939956061 C9.73349807,-1.67534697 9.64608494,1.98576667 9.99295753,3.20675909 C11.3798301,2.77035758 14.7612973,3.38054318 19.4425328,5.82190682 C23.1487876,7.75387652 25.4031506,8.7936303 24.7699459,9.32756212 C23.5640772,8.84394848 22.2896371,8.43627803 21.2025328,8.05578561 C18.9741158,7.2763197 1.19913514,3.07009242 0.11434749,8.36763409 C-0.969667954,13.6656417 5.85705019,12.4943462 11.9004479,12.8833803 C17.9019923,13.2699295 21.4281699,12.7263689 23.0839228,12.1859144 C24.1751969,11.8299598 24.7677838,11.5813197 25.1489421,11.0455242 C26.3339614,11.4741606 27.4751197,11.9408462 28.5456988,12.4474447 C28.7713359,12.5684258 28.9541931,12.7086644 29.1030734,12.8635015 C28.8493282,11.4971455 27.408556,10.5014977 25.6630734,9.70805455" id="Fill-4" fill="#DA272C" mask="url(#mask-8)"></path>
                    </g>
                    <path d="M35.0241699,15.970261 C33.9591506,16.7436701 32.471583,17.4762345 30.8476448,18.0264731 C32.2549035,18.1741663 33.4757529,18.3613064 34.5219305,18.5756246 C35.2104247,17.953636 35.8203089,17.2676625 36.2799228,16.5810678 C35.8854826,16.364886 35.4658687,16.1608178 35.0241699,15.970261" id="Fill-7" fill="#AF0000"></path>
                    <path d="M33.23061,9.84428636 C32.9399537,9.71212348 32.6409575,9.58555152 32.3374826,9.46379394 C32.0083707,9.74132045 30.8979459,9.8821803 28.8065174,9.94057424 C30.1401081,10.3114379 31.4533127,10.7246992 32.7164788,11.1817561 C32.9422703,10.8641614 33.0936216,10.4454644 33.23061,9.84428636" id="Fill-9" fill="#AF0000"></path>
                    <path d="M21.7014363,31.4090284 C20.8900077,31.4947557 20.144834,31.5658845 19.5632124,31.606108 C21.7423629,32.0277557 24.7676911,33.7267708 26.3466873,35.2506042 C27.2853745,35.217214 28.2130965,35.1804072 29.1130193,35.1176648 C28.6614363,33.3798239 25.5392741,32.1401951 21.7014363,31.4090284" id="Fill-11" fill="#AF0000"></path>
                    <path d="M17.0441081,25.0970473 C16.6297452,25.0675398 16.2201699,25.0574451 15.8164633,25.0621042 C16.6609421,25.1475208 17.4737606,25.2389943 18.2311351,25.3329527 C23.5108263,25.9884867 27.9877375,26.6180852 31.090749,27.211964 C31.7468108,27.0496723 32.3804788,26.875267 32.9861931,26.6895246 C31.6470425,25.9397216 30.0229498,25.2318504 28.1641081,24.6111042 C24.5580849,25.0846231 20.5747645,25.3487936 17.0441081,25.0970473" id="Fill-13" fill="#AF0000"></path>
                </g>
                <g id="Group-15-Copy-3" transform="translate(99.000000, 27.000000)">
                    <g id="Group-3" transform="translate(0.000000, 12.249837)">
                        <mask id="mask-10" fill="white">
                            <use xlink:href="#path-9"></use>
                        </mask>
                        <g id="Clip-2"></g>
                        <path d="M7.60440154,14.2496277 C2.49196911,14.5616314 0.950810811,14.8172602 1.41552124,13.2584837 C1.82401544,11.8891769 9.663861,12.1901542 15.8164479,12.8122981 C12.1591506,12.8550064 9.00440154,14.1643663 7.60440154,14.2496277 M18.7603861,19.3915557 C14.8868726,19.3915557 6.45104247,22.0967792 6.60610039,21.0062413 C6.74880309,20.0029837 12.976139,18.1912186 19.4570656,19.3361125 C19.4921236,19.3423246 19.5277992,19.3493133 19.5633205,19.3563019 C19.239305,19.3785102 18.9648649,19.3915557 18.7603861,19.3915557 M25.5009266,6.74243447 C11.107722,6.69149508 1.18725869,3.67830568 1.02849421,2.32515038 C0.932586873,1.50313144 2.80208494,-0.255830682 6.43389961,3.46724886 C9.20579151,6.30898371 15.1773745,5.62269962 19.096139,5.48929432 C23.9538996,5.32327538 27.829112,5.45947614 30.8476448,5.77660492 C29.103861,6.36753295 27.2034749,6.74833598 25.5009266,6.74243447 M36.2799228,4.33119962 C37.187722,2.97509356 37.5054054,1.61836629 36.6706564,0.749911742 C36.7324324,1.08272614 36.7250193,1.43712765 36.6332819,1.81606705 C36.4856371,2.42625265 35.8962934,3.08691174 35.0241699,3.7203928 C31.6966023,2.2850822 27.1273359,1.6191428 22.7855598,2.33835114 C8.71667954,4.66944962 8.06447876,1.77304811 6.67019305,0.840764015 C3.81088803,-1.07132689 1.18324324,0.948389015 0.595444015,2.15058977 C-1.56239382,6.56538902 2.40285714,7.84104811 8.33474903,8.67937386 C18.1979151,10.0741504 28.3942085,10.4830633 32.9054054,7.56988902 C33.4671042,7.20710114 34.0153668,6.78358977 34.5219305,6.32591174 C39.4583012,7.33708977 40.5145174,8.95255189 38.9801544,9.88716553 C37.9472587,10.5169193 33.4633977,11.6653852 28.1640927,12.3612981 C23.1866409,10.6992451 16.5403089,9.6601125 9.26525097,10.1005519 C1.69027027,10.5594723 0.714517375,11.9820481 1.34864865,14.4568019 C1.9196139,16.683692 2.02880309,18.8950519 6.89706564,17.9438208 C7.82648649,17.7618057 11.6827027,16.2595595 16.3576062,16.4373814 C21.1355212,16.6193966 26.6295753,16.0663625 31.0907336,14.962158 C34.5109653,15.6167602 36.2616988,16.2278777 35.5728958,16.7823095 C35.3015444,16.999889 35.4650965,17.6753019 27.1647104,18.5431352 C25.839305,18.6818208 23.5943629,18.959192 21.70139,19.1592223 C14.6979923,17.825014 5.31482625,18.1851617 5.44455598,20.3048928 C5.55498069,22.121317 6.59899614,23.4752489 8.21675676,24.4267905 C10.5789189,25.816442 13.0496525,23.5834951 24.0623166,23.086836 C24.8250965,23.052514 25.5894208,23.0278208 26.3466409,23.0007981 C27.3122008,23.9326163 27.7369112,24.798586 27.0969112,25.2666693 C25.3923552,26.5132867 14.5259459,24.6569496 14.5259459,24.6569496 L15.2198456,28.2306277 C17.213668,28.9282489 25.3983784,29.6867489 28.7440154,24.5696693 C29.1443243,23.9574648 29.2487259,23.3902981 29.1131274,22.8678587 C31.4776062,22.7032375 33.6516602,22.3600178 35.3328958,21.4306845 C38.5989961,19.6262186 37.2374517,16.8202034 32.9861776,14.4397186 C36.0746718,13.4933019 38.4380695,12.2522754 39.3383012,10.7933587 C40.8405405,8.3582072 39.3040154,5.98874886 36.2799228,4.33119962" id="Fill-1" fill="#DA272C" mask="url(#mask-10)"></path>
                    </g>
                    <g id="Group-6" transform="translate(7.567568, 0.136201)">
                        <mask id="mask-12" fill="white">
                            <use xlink:href="#path-11"></use>
                        </mask>
                        <g id="Clip-5"></g>
                        <path d="M19.7030734,9.83183106 C11.7231506,9.90979318 0.0908725869,10.2806568 0.888864865,7.90048258 C1.29905792,6.67871364 11.767166,7.17040303 21.2389807,9.80434242 C20.7753514,9.81738788 20.26539,9.82639545 19.7030734,9.83183106 M25.6630734,9.70805455 C25.7293282,9.41732727 25.7920309,9.08451288 25.8581313,8.69905076 C26.3480154,5.84178561 18.4258533,2.0183803 15.8884015,0.939956061 C9.73349807,-1.67534697 9.64608494,1.98576667 9.99295753,3.20675909 C11.3798301,2.77035758 14.7612973,3.38054318 19.4425328,5.82190682 C23.1487876,7.75387652 25.4031506,8.7936303 24.7699459,9.32756212 C23.5640772,8.84394848 22.2896371,8.43627803 21.2025328,8.05578561 C18.9741158,7.2763197 1.19913514,3.07009242 0.11434749,8.36763409 C-0.969667954,13.6656417 5.85705019,12.4943462 11.9004479,12.8833803 C17.9019923,13.2699295 21.4281699,12.7263689 23.0839228,12.1859144 C24.1751969,11.8299598 24.7677838,11.5813197 25.1489421,11.0455242 C26.3339614,11.4741606 27.4751197,11.9408462 28.5456988,12.4474447 C28.7713359,12.5684258 28.9541931,12.7086644 29.1030734,12.8635015 C28.8493282,11.4971455 27.408556,10.5014977 25.6630734,9.70805455" id="Fill-4" fill="#DA272C" mask="url(#mask-12)"></path>
                    </g>
                    <path d="M35.0241699,15.970261 C33.9591506,16.7436701 32.471583,17.4762345 30.8476448,18.0264731 C32.2549035,18.1741663 33.4757529,18.3613064 34.5219305,18.5756246 C35.2104247,17.953636 35.8203089,17.2676625 36.2799228,16.5810678 C35.8854826,16.364886 35.4658687,16.1608178 35.0241699,15.970261" id="Fill-7" fill="#AF0000"></path>
                    <path d="M33.23061,9.84428636 C32.9399537,9.71212348 32.6409575,9.58555152 32.3374826,9.46379394 C32.0083707,9.74132045 30.8979459,9.8821803 28.8065174,9.94057424 C30.1401081,10.3114379 31.4533127,10.7246992 32.7164788,11.1817561 C32.9422703,10.8641614 33.0936216,10.4454644 33.23061,9.84428636" id="Fill-9" fill="#AF0000"></path>
                    <path d="M21.7014363,31.4090284 C20.8900077,31.4947557 20.144834,31.5658845 19.5632124,31.606108 C21.7423629,32.0277557 24.7676911,33.7267708 26.3466873,35.2506042 C27.2853745,35.217214 28.2130965,35.1804072 29.1130193,35.1176648 C28.6614363,33.3798239 25.5392741,32.1401951 21.7014363,31.4090284" id="Fill-11" fill="#AF0000"></path>
                    <path d="M17.0441081,25.0970473 C16.6297452,25.0675398 16.2201699,25.0574451 15.8164633,25.0621042 C16.6609421,25.1475208 17.4737606,25.2389943 18.2311351,25.3329527 C23.5108263,25.9884867 27.9877375,26.6180852 31.090749,27.211964 C31.7468108,27.0496723 32.3804788,26.875267 32.9861931,26.6895246 C31.6470425,25.9397216 30.0229498,25.2318504 28.1641081,24.6111042 C24.5580849,25.0846231 20.5747645,25.3487936 17.0441081,25.0970473" id="Fill-13" fill="#AF0000"></path>
                </g>
                <g id="Group-15-Copy-2" transform="translate(814.000000, 248.000000)">
                    <g id="Group-3" transform="translate(0.000000, 12.249837)">
                        <mask id="mask-14" fill="white">
                            <use xlink:href="#path-13"></use>
                        </mask>
                        <g id="Clip-2"></g>
                        <path d="M7.60440154,14.2496277 C2.49196911,14.5616314 0.950810811,14.8172602 1.41552124,13.2584837 C1.82401544,11.8891769 9.663861,12.1901542 15.8164479,12.8122981 C12.1591506,12.8550064 9.00440154,14.1643663 7.60440154,14.2496277 M18.7603861,19.3915557 C14.8868726,19.3915557 6.45104247,22.0967792 6.60610039,21.0062413 C6.74880309,20.0029837 12.976139,18.1912186 19.4570656,19.3361125 C19.4921236,19.3423246 19.5277992,19.3493133 19.5633205,19.3563019 C19.239305,19.3785102 18.9648649,19.3915557 18.7603861,19.3915557 M25.5009266,6.74243447 C11.107722,6.69149508 1.18725869,3.67830568 1.02849421,2.32515038 C0.932586873,1.50313144 2.80208494,-0.255830682 6.43389961,3.46724886 C9.20579151,6.30898371 15.1773745,5.62269962 19.096139,5.48929432 C23.9538996,5.32327538 27.829112,5.45947614 30.8476448,5.77660492 C29.103861,6.36753295 27.2034749,6.74833598 25.5009266,6.74243447 M36.2799228,4.33119962 C37.187722,2.97509356 37.5054054,1.61836629 36.6706564,0.749911742 C36.7324324,1.08272614 36.7250193,1.43712765 36.6332819,1.81606705 C36.4856371,2.42625265 35.8962934,3.08691174 35.0241699,3.7203928 C31.6966023,2.2850822 27.1273359,1.6191428 22.7855598,2.33835114 C8.71667954,4.66944962 8.06447876,1.77304811 6.67019305,0.840764015 C3.81088803,-1.07132689 1.18324324,0.948389015 0.595444015,2.15058977 C-1.56239382,6.56538902 2.40285714,7.84104811 8.33474903,8.67937386 C18.1979151,10.0741504 28.3942085,10.4830633 32.9054054,7.56988902 C33.4671042,7.20710114 34.0153668,6.78358977 34.5219305,6.32591174 C39.4583012,7.33708977 40.5145174,8.95255189 38.9801544,9.88716553 C37.9472587,10.5169193 33.4633977,11.6653852 28.1640927,12.3612981 C23.1866409,10.6992451 16.5403089,9.6601125 9.26525097,10.1005519 C1.69027027,10.5594723 0.714517375,11.9820481 1.34864865,14.4568019 C1.9196139,16.683692 2.02880309,18.8950519 6.89706564,17.9438208 C7.82648649,17.7618057 11.6827027,16.2595595 16.3576062,16.4373814 C21.1355212,16.6193966 26.6295753,16.0663625 31.0907336,14.962158 C34.5109653,15.6167602 36.2616988,16.2278777 35.5728958,16.7823095 C35.3015444,16.999889 35.4650965,17.6753019 27.1647104,18.5431352 C25.839305,18.6818208 23.5943629,18.959192 21.70139,19.1592223 C14.6979923,17.825014 5.31482625,18.1851617 5.44455598,20.3048928 C5.55498069,22.121317 6.59899614,23.4752489 8.21675676,24.4267905 C10.5789189,25.816442 13.0496525,23.5834951 24.0623166,23.086836 C24.8250965,23.052514 25.5894208,23.0278208 26.3466409,23.0007981 C27.3122008,23.9326163 27.7369112,24.798586 27.0969112,25.2666693 C25.3923552,26.5132867 14.5259459,24.6569496 14.5259459,24.6569496 L15.2198456,28.2306277 C17.213668,28.9282489 25.3983784,29.6867489 28.7440154,24.5696693 C29.1443243,23.9574648 29.2487259,23.3902981 29.1131274,22.8678587 C31.4776062,22.7032375 33.6516602,22.3600178 35.3328958,21.4306845 C38.5989961,19.6262186 37.2374517,16.8202034 32.9861776,14.4397186 C36.0746718,13.4933019 38.4380695,12.2522754 39.3383012,10.7933587 C40.8405405,8.3582072 39.3040154,5.98874886 36.2799228,4.33119962" id="Fill-1" fill="#DA272C" mask="url(#mask-14)"></path>
                    </g>
                    <g id="Group-6" transform="translate(7.567568, 0.136201)">
                        <mask id="mask-16" fill="white">
                            <use xlink:href="#path-15"></use>
                        </mask>
                        <g id="Clip-5"></g>
                        <path d="M19.7030734,9.83183106 C11.7231506,9.90979318 0.0908725869,10.2806568 0.888864865,7.90048258 C1.29905792,6.67871364 11.767166,7.17040303 21.2389807,9.80434242 C20.7753514,9.81738788 20.26539,9.82639545 19.7030734,9.83183106 M25.6630734,9.70805455 C25.7293282,9.41732727 25.7920309,9.08451288 25.8581313,8.69905076 C26.3480154,5.84178561 18.4258533,2.0183803 15.8884015,0.939956061 C9.73349807,-1.67534697 9.64608494,1.98576667 9.99295753,3.20675909 C11.3798301,2.77035758 14.7612973,3.38054318 19.4425328,5.82190682 C23.1487876,7.75387652 25.4031506,8.7936303 24.7699459,9.32756212 C23.5640772,8.84394848 22.2896371,8.43627803 21.2025328,8.05578561 C18.9741158,7.2763197 1.19913514,3.07009242 0.11434749,8.36763409 C-0.969667954,13.6656417 5.85705019,12.4943462 11.9004479,12.8833803 C17.9019923,13.2699295 21.4281699,12.7263689 23.0839228,12.1859144 C24.1751969,11.8299598 24.7677838,11.5813197 25.1489421,11.0455242 C26.3339614,11.4741606 27.4751197,11.9408462 28.5456988,12.4474447 C28.7713359,12.5684258 28.9541931,12.7086644 29.1030734,12.8635015 C28.8493282,11.4971455 27.408556,10.5014977 25.6630734,9.70805455" id="Fill-4" fill="#DA272C" mask="url(#mask-16)"></path>
                    </g>
                    <path d="M35.0241699,15.970261 C33.9591506,16.7436701 32.471583,17.4762345 30.8476448,18.0264731 C32.2549035,18.1741663 33.4757529,18.3613064 34.5219305,18.5756246 C35.2104247,17.953636 35.8203089,17.2676625 36.2799228,16.5810678 C35.8854826,16.364886 35.4658687,16.1608178 35.0241699,15.970261" id="Fill-7" fill="#AF0000"></path>
                    <path d="M33.23061,9.84428636 C32.9399537,9.71212348 32.6409575,9.58555152 32.3374826,9.46379394 C32.0083707,9.74132045 30.8979459,9.8821803 28.8065174,9.94057424 C30.1401081,10.3114379 31.4533127,10.7246992 32.7164788,11.1817561 C32.9422703,10.8641614 33.0936216,10.4454644 33.23061,9.84428636" id="Fill-9" fill="#AF0000"></path>
                    <path d="M21.7014363,31.4090284 C20.8900077,31.4947557 20.144834,31.5658845 19.5632124,31.606108 C21.7423629,32.0277557 24.7676911,33.7267708 26.3466873,35.2506042 C27.2853745,35.217214 28.2130965,35.1804072 29.1130193,35.1176648 C28.6614363,33.3798239 25.5392741,32.1401951 21.7014363,31.4090284" id="Fill-11" fill="#AF0000"></path>
                    <path d="M17.0441081,25.0970473 C16.6297452,25.0675398 16.2201699,25.0574451 15.8164633,25.0621042 C16.6609421,25.1475208 17.4737606,25.2389943 18.2311351,25.3329527 C23.5108263,25.9884867 27.9877375,26.6180852 31.090749,27.211964 C31.7468108,27.0496723 32.3804788,26.875267 32.9861931,26.6895246 C31.6470425,25.9397216 30.0229498,25.2318504 28.1641081,24.6111042 C24.5580849,25.0846231 20.5747645,25.3487936 17.0441081,25.0970473" id="Fill-13" fill="#AF0000"></path>
                </g>
            </g>
        </g>
    </g>
</svg>