<?xml version="1.0" encoding="UTF-8"?>
<svg width="1440px" height="211px" viewBox="0 0 1440 211" version="1.1" xmlns="http://www.w3.org/2000/svg" xmlns:xlink="http://www.w3.org/1999/xlink">
    <!-- Generator: sketchtool 51.2 (57519) - http://www.bohemiancoding.com/sketch -->
    <title>0BAFD024-CC2A-4C52-A28D-09B4288A3861</title>
    <desc>Created with sketchtool.</desc>
    <defs>
        <polygon id="path-1" points="0.000938461184 0.992838616 1529.80394 0.992838616 1529.80394 177.208784 0.000938461184 177.208784"></polygon>
        <polygon id="path-3" points="0.0405267437 0.203092063 6.35590238 0.203092063 6.35590238 14.5 0.0405267437 14.5"></polygon>
        <polygon id="path-5" points="0 0.15158254 57.9483844 0.15158254 57.9483844 24.2530714 0 24.2530714"></polygon>
        <polygon id="path-7" points="0.0289975838 0.152235676 4.54775774 0.152235676 4.54775774 10.8690476 0.0289975838 10.8690476"></polygon>
        <polygon id="path-9" points="0 0.111558776 41.9626232 0.111558776 41.9626232 17.8493047 0 17.8493047"></polygon>
        <polygon id="path-11" points="0.0405267437 0.203092063 6.35590238 0.203092063 6.35590238 14.5 0.0405267437 14.5"></polygon>
        <polygon id="path-13" points="0 0.15158254 57.9483844 0.15158254 57.9483844 24.2530714 0 24.2530714"></polygon>
    </defs>
    <g id="FLUJO-" stroke="none" stroke-width="1" fill="none" fill-rule="evenodd">
        <g id="1.-Home_Campaña-navidad" transform="translate(0.000000, -1639.000000)">
            <g id="Group-10" transform="translate(-68.000000, 590.000000)">
                <g id="Group-44" transform="translate(0.000000, 1045.000000)">
                    <g id="Group-17" transform="translate(0.000000, 35.000000)">
                        <g id="Group-3" transform="translate(19.000000, 2.568243)">
                            <mask id="mask-2" fill="white">
                                <use xlink:href="#path-1"></use>
                            </mask>
                            <g id="Clip-2"></g>
                            <path d="M1381.66382,24.6768512 C1349.98405,31.832096 1317.70635,38.4216809 1284.48617,44.2343637 C1247.22926,43.6018105 1210.19758,44.2097188 1174.60979,46.1813132 C1143.02923,47.9311032 1112.2343,51.0011574 1082.07886,54.6368714 C1052.17546,58.2444197 1022.84319,62.3800737 993.167706,66.1976908 C982.427688,67.580154 971.386022,69.0236428 960.180796,70.0587298 C948.336075,71.1536689 937.095991,71.5292107 924.906721,71.4271103 C916.192439,71.3719526 907.480837,71.2721993 898.77594,71.1313711 C881.350056,70.8473676 863.949645,70.3908496 846.600179,69.7700321 C826.621681,69.0553291 806.710216,68.1223425 786.899301,66.9804607 C724.219478,63.3658709 661.561106,58.3418259 600.408294,52.3683642 C472.931749,39.9191538 343.26993,30.0834795 209.957497,34.0794789 C164.022503,35.4549007 117.875685,38.4521937 73.6419876,42.989208 C48.5837333,45.5581485 24.2293249,48.7971965 0.000938461184,52.1758991 L0.000938461184,54.2061719 C0.92197108,65.2846548 0.562674513,76.4218161 0.258344957,87.5425475 C0.172542792,87.5542832 0.0867406266,87.5660188 0.000938461184,87.5777545 L0.000938461184,146.085992 L45.8541519,177.209018 L1529.80394,177.209018 L1529.80394,102.10066 L1529.80394,67.0004114 L1529.80394,0.991899762 C1474.96697,3.86010021 1427.14701,14.4010889 1381.66382,24.6768512" id="Fill-1" fill="#FFFFFF" mask="url(#mask-2)"></path>
                        </g>
                        <g id="Group-6" transform="translate(19.000000, 0.000000)" fill="#F4F4F6">
                            <path d="M1381.66382,24.5185873 C1298.0295,43.2871908 1210.25791,58.1647139 1111.82406,65.1481363 C1004.79792,72.7425644 894.536776,72.7157455 786.899301,66.5508842 C724.219478,62.9594765 661.561106,57.9676529 600.408294,52.0325018 C472.931749,39.6631339 343.26993,29.8905403 209.957497,33.8609115 C164.022503,35.2275121 117.875685,38.2055821 73.6419876,42.7134984 C48.5837333,45.2659632 24.2293249,48.4842376 0.000938461184,51.841271 L0.000938461184,53.8585228 C1.32416873,69.6735433 0.00361977885,85.6109981 0.000938461184,101.445841 L194.419261,101.445841 L649.105045,101.445841 L1114.31366,101.445841 L1465.81698,101.445841 L1490.13787,101.445841 L1529.80394,101.445841 L1529.80394,0.985538253 C1474.96697,3.83534361 1427.14701,14.3087281 1381.66382,24.5185873" id="Fill-4"></path>
                        </g>
                        <path d="M1187.76011,40.7444534 C1107.23513,45.2615366 1039.4427,57.7307291 963.146703,66.2719717 C890.937565,74.3547356 812.358136,77.193502 736.33031,75.6885995 C699.016311,74.9509953 660.858929,73.398582 624.248866,70.8912029 C574.014615,67.4478624 526.242131,60.6668926 475.513113,57.9457152 C319.451056,49.5766991 156.856468,63.1980271 13,82.6406079 L13,141.857989 L58.8604589,173.356419 L1543,173.356419 L1543,61.8154647 C1437.87881,42.4845341 1304.99437,34.1701553 1187.76011,40.7444534" id="Fill-7" fill="#FFFFFF"></path>
                        <path d="M437.027006,105.658115 C544.074968,113.300317 654.348971,113.273329 761.993603,107.069687 C824.680156,103.455687 887.349279,98.4324616 948.508625,92.4599745 C1076.00963,80.0127951 1205.68681,70.1787254 1339.0097,74.1740729 C1384.95731,75.5492703 1431.11007,78.5460743 1475.34276,83.0823484 C1500.41095,85.6508698 1524.76849,88.8893894 1549,92.2675407 L1549,94.2974823 C1547.67258,110.21199 1552.50026,104.832809 1552.50562,120.767263 L1351.84182,116.121272 L905.391977,125.746619 L435.285974,122.362345 L80.6377186,122.231532 L56.9731213,120.151174 L19,142.184156 L19,41.0918919 C73.8386664,43.9596244 121.664784,54.4988934 167.159196,64.7729793 C250.797582,83.6596497 338.587182,98.6307622 437.027006,105.658115 Z" id="Fill-9" fill="#EDECEC"></path>
                        <g id="Group-13" transform="translate(5.000000, 33.387162)" fill="#E1E1E1">
                            <path d="M1115.82406,65.1481363 C1008.79792,72.7425644 898.536776,72.7157455 790.899301,66.5508842 C728.219478,62.9594765 665.561106,57.9676529 604.408294,52.0325018 C476.931749,39.6631339 347.26993,29.8905403 213.957497,33.8609115 C168.022503,35.2275121 121.875685,38.2055821 77.6419876,42.7134984 C52.5837333,45.2659632 28.2293249,48.4842376 4.00093846,51.841271 C4.00093846,51.841271 4.72678403,66.0679672 4.72410271,81.9028104 C-17.3886521,88.6432259 47.3359345,92.0134337 198.897863,92.0134337 C350.459791,92.0134337 501.76749,91.7391471 652.82096,91.1905741 L1125.36178,88.8443694 L1470.93748,86.0128885 L1508.77637,91.1188376 L1533.80394,101.445841 L1533.80394,0.985538253 C1478.96697,3.83534361 1431.14701,14.3087281 1385.66382,24.5185873 C1302.0295,43.2871908 1214.25791,58.1647139 1115.82406,65.1481363 Z" id="Fill-11"></path>
                        </g>
                        <g id="Group-16" transform="translate(0.000000, 28.966554)" fill="#FFFFFF">
                            <path d="M649.105447,101.318633 L1114.31406,101.318633 L1465.81604,101.318633 L1490.13827,101.318633 L1529.803,101.318633 L1529.803,0.00479085643 C1529.803,-0.0481274399 1428.15157,-0.571430593 1208.07304,58.241964 C1160.08818,71.0646551 1103.70811,81.4095941 1043.64659,85.7077357 C936.619119,93.3667771 826.360655,93.33973 718.723179,87.1224182 C656.043357,83.5004548 593.383644,78.4649849 532.230832,72.4805136 C404.754287,60.0059072 275.092468,50.1501685 141.780034,54.1543196 C95.8450407,55.5313712 49.6995636,58.5359545 5.46586607,63.0810482 C3.63318544,63.2703781 1.82731799,63.4855791 0.00268131767,63.6807889 L0.00268131767,65.7822332 L0.00268131767,67.7284505 L0.00268131767,74.9394504 L0.00268131767,75.882572 C0.00268131767,84.208384 0.00268131767,95.3294579 0,101.318633 L194.419663,101.318633 L649.105447,101.318633 Z" id="Fill-14"></path>
                        </g>
                    </g>
                    <path d="M1043.9045,33.9613185 L1044.08029,33.9613185 C1044.78341,33.9613185 1045.36935,35.6019271 1045.8381,38.8831935 C1045.72091,40.3480446 1045.66232,41.1683489 1045.66232,41.344131 C1045.66232,42.4281208 1046.89277,44.0687294 1049.35372,46.266006 L1049.5295,46.266006 C1049.93966,46.266006 1050.23263,45.6214812 1050.40841,44.3324122 C1050.17404,43.0726403 1050.05685,42.252336 1050.05685,41.8714747 L1050.75997,41.344131 C1051.4631,41.8128833 1051.81466,42.8089671 1051.81466,44.3324122 L1051.81466,44.859756 C1051.81466,45.5628845 1051.5217,46.3831888 1050.93575,47.3206935 C1052.31271,47.7894458 1053.36739,48.0238185 1054.09982,48.0238185 L1054.80294,48.0238185 C1057.73264,48.0238185 1059.19747,46.2074304 1059.19747,42.5745997 L1059.72482,42.047256 L1059.9006,42.047256 C1060.07638,42.047256 1060.25216,42.2230355 1060.42794,42.5745997 L1060.42794,43.9808497 C1060.42794,46.2953144 1059.37327,47.9945162 1057.26388,49.078506 C1057.49826,51.1878915 1058.02559,52.2425685 1058.84591,52.2425685 C1062.06858,53.8832017 1064.5295,55.055065 1066.22872,55.7581935 L1066.22872,56.9886622 C1066.22872,57.6917908 1065.87716,58.1605361 1065.17404,58.3949122 C1063.88497,58.2777242 1062.7717,58.219131 1061.83419,58.219131 L1061.65841,58.219131 C1060.13497,58.219131 1059.37325,59.3324011 1059.37325,61.5589747 C1059.37325,62.2035092 1059.43185,63.0238135 1059.54904,64.0199122 C1059.54904,65.1331991 1057.55687,67.6527051 1053.57247,71.578506 L1053.57247,71.7542872 C1057.79124,72.838277 1059.9006,74.3031061 1059.9006,76.1488185 C1059.9006,76.9691351 1058.1428,79.430048 1054.62716,83.531631 L1054.45138,83.531631 L1053.92404,80.719131 L1056.73654,76.3245997 C1051.93182,75.7093623 1049.17795,75.0648375 1048.47482,74.391006 C1048.15255,74.6253822 1047.03928,74.8597548 1045.13497,75.094131 L1044.95919,74.7425685 L1044.95919,62.6136622 C1045.10568,62.349989 1046.45332,61.8812437 1049.00216,61.2074122 C1051.17014,60.1820165 1053.16231,57.6039173 1054.97872,53.4730372 C1055.09591,53.4730372 1055.1545,53.4144441 1055.1545,53.297256 C1054.83224,50.7191181 1054.3049,49.4300685 1053.57247,49.4300685 C1050.46699,49.4300685 1047.30296,47.0863419 1044.08029,42.3988185 C1041.73652,41.8128781 1040.03732,40.6410148 1038.98263,38.8831935 C1038.16231,37.2425603 1037.75216,36.1878833 1037.75216,35.719131 L1038.2795,35.3675685 L1038.45529,35.3675685 C1038.68966,35.4261625 1039.68575,36.8323985 1041.44357,39.5863185 C1042.0588,40.0550708 1042.58614,40.2894435 1043.0256,40.2894435 C1043.9631,40.2894435 1044.43185,39.762105 1044.43185,38.7074122 L1043.37716,34.312881 L1043.9045,33.9613185 Z M918.924036,47.4964747 L919.802942,47.4964747 C921.414279,47.4964747 922.761921,48.0238132 923.845911,49.078506 C920.945506,50.7484362 918.426,52.5062311 916.287317,54.3519435 L916.111536,54.3519435 C914.470903,52.8577954 913.650599,51.9203048 913.650599,51.5394435 L914.002161,50.3089747 L914.002161,48.9027247 C915.730686,47.9652201 917.371294,47.4964747 918.924036,47.4964747 Z M893.787317,48.1995997 L894.314661,48.1995997 C895.486542,48.1995997 896.599812,48.8441245 897.654505,50.1331935 L897.654505,50.484756 C896.336139,52.1253892 895.340055,52.9456935 894.666224,52.9456935 C894.138877,52.9456935 892.908421,53.2972525 890.974817,54.000381 L890.799036,53.6488185 C890.799036,52.8577989 891.443561,51.7445288 892.73263,50.3089747 L892.73263,49.9574122 L892.556849,49.078506 C892.732631,48.4925656 893.142783,48.1995997 893.787317,48.1995997 Z M911.541224,48.5511622 L911.717005,48.5511622 C912.361539,48.5511622 912.888878,48.9027212 913.299036,49.6058497 L913.299036,50.8363185 C912.888878,51.539447 912.361539,51.891006 911.717005,51.891006 L911.541224,51.891006 C910.603719,51.891006 910.076381,51.3050743 909.959192,50.1331935 C910.105678,49.0785007 910.633016,48.5511622 911.541224,48.5511622 Z M925.603724,49.2542872 L925.955286,49.2542872 C926.30685,49.2542872 926.599816,49.7816257 926.834192,50.8363185 C924.080272,52.3011696 921.677953,53.8245918 919.627161,55.406631 C919.627161,55.5238191 918.924043,56.1683439 917.517786,57.3402247 L916.814661,57.3402247 C916.316612,57.0472545 915.965053,56.6371024 915.759974,56.109756 C916.140835,54.9671722 918.074409,53.2679704 921.560755,51.0120997 C923.582249,49.8402189 924.929892,49.2542872 925.603724,49.2542872 Z M898.181849,50.8363185 L898.35763,50.8363185 C898.533412,50.8363185 898.884971,51.1878775 899.412317,51.891006 C899.412317,52.0667881 898.650606,52.8284993 897.127161,54.1761622 L896.95138,54.1761622 C896.775598,54.1761622 896.424039,53.8246033 895.896692,53.1214747 C895.896692,52.9456926 896.658404,52.1839815 898.181849,50.8363185 Z M902.57638,51.5394435 L903.455286,51.5394435 C906.209206,51.5394435 908.025594,52.6527136 908.904505,54.8792872 C909.138881,55.6996038 909.256067,56.4027218 909.256067,56.9886622 C909.256067,58.4242163 907.732645,59.4203001 904.685755,59.9769435 L904.685755,60.1527247 C904.802943,60.1527247 904.861536,60.2113179 904.861536,60.328506 C906.79514,60.328506 908.494341,59.4496085 909.959192,57.6917872 L910.486536,57.6917872 C910.720912,57.6917872 910.838099,57.8675667 910.838099,58.219131 C910.603723,58.8050714 910.134977,59.5081894 909.431849,60.328506 L909.431849,60.6800685 L909.60763,60.6800685 C910.134976,60.4749893 910.779501,59.5960919 911.541224,58.0433497 L911.717005,58.0433497 C914.060767,59.801171 915.23263,61.5003728 915.23263,63.141006 L898.709192,63.141006 C897.244341,63.141006 896.306851,62.789447 895.896692,62.0863185 L895.896692,61.2074122 C895.92599,60.3870956 896.218955,59.5667913 896.775599,58.7464747 C896.541223,57.9847522 896.424036,57.4574137 896.424036,57.1644435 L896.424036,56.9886622 C896.424036,55.6117022 897.771679,53.9125005 900.467005,51.891006 C901.287322,51.6566298 901.99044,51.5394435 902.57638,51.5394435 Z M925.955286,52.0667872 L926.658411,53.297256 C927.127164,53.0628798 927.537316,52.9456935 927.88888,52.9456935 C928.47482,53.1214756 928.767786,53.5316278 928.767786,54.1761622 C928.767786,54.6156176 927.947482,55.0257697 926.306849,55.406631 C925.60372,56.4613238 924.959195,56.9886622 924.373255,56.9886622 L924.021692,56.9886622 C923.084188,56.1390486 922.615442,55.1429648 922.615442,54.000381 C924.285373,52.711312 925.398643,52.0667872 925.955286,52.0667872 Z M921.912317,54.3519435 C922.96701,57.0472695 924.021687,58.3949122 925.07638,58.3949122 L925.603724,58.3949122 C925.8381,58.3949122 926.658404,57.9847601 928.064661,57.1644435 L928.767786,57.1644435 C929.148648,57.1644435 929.500207,57.7503751 929.822474,58.922256 C930.64279,59.0687411 931.052942,59.5960796 931.052942,60.5042872 L931.052942,60.6800685 C931.052942,60.9144447 930.877163,61.031631 930.525599,61.031631 C926.922065,61.031631 924.109593,60.0355472 922.088099,58.0433497 C920.711139,57.5745974 919.656462,57.3402247 918.924036,57.3402247 L918.572474,57.3402247 L918.572474,57.1644435 C919.539275,56.1976418 920.652546,55.2601512 921.912317,54.3519435 Z M928.240442,55.406631 L928.416224,55.406631 C928.679897,55.406631 928.855676,55.6995968 928.943567,56.2855372 L925.427942,57.8675685 L924.549036,57.8675685 L924.549036,57.516006 C924.929898,57.516006 925.808795,56.8714812 927.185755,55.5824122 L928.240442,55.406631 Z M1019.29513,55.7581935 C1023.04515,56.2855399 1024.92013,57.2816237 1024.92013,58.7464747 C1025.50607,59.8304645 1025.85763,60.4163962 1025.97482,60.5042872 C1027.02951,60.2699111 1027.79122,60.1527247 1028.25997,60.1527247 C1029.51975,60.1527247 1032.85956,60.7972495 1038.2795,62.0863185 L1038.45529,62.437881 L1038.45529,74.5667872 C1038.45529,74.8011634 1038.3381,74.9183497 1038.10372,74.9183497 C1034.11933,73.1605285 1031.48264,72.281631 1030.19357,72.281631 C1028.02559,76.383214 1026.09201,78.4339747 1024.39279,78.4339747 L1024.04122,78.4339747 C1023.3088,78.4339747 1021.37522,78.3753816 1018.24044,78.2581935 L1012.0881,83.1800685 C1011.50216,81.8324055 1011.20919,80.8363217 1011.20919,80.1917872 C1012.82053,78.7562332 1014.40254,77.0570314 1015.95529,75.094131 C1016.16037,74.9769429 1016.39474,74.9183497 1016.65841,74.9183497 L1018.592,74.9183497 C1020.23264,74.9183497 1021.05294,73.6293001 1021.05294,71.0511622 C1021.17013,70.6410039 1021.4631,68.8246159 1021.93185,65.6019435 L943.533411,65.6019435 C943.299035,65.6019435 943.181849,65.4847572 943.181849,65.250381 L943.181849,64.547256 C943.211146,64.3128798 943.328332,64.1956935 943.533411,64.1956935 L1022.10763,64.1956935 C1022.69357,63.7269411 1022.98654,62.96523 1022.98654,61.9105372 C1022.342,59.7132606 1021.11155,57.8382794 1019.29513,56.2855372 L1019.29513,55.7581935 Z M918.748255,57.8675685 L919.45138,57.8675685 C920.476776,57.8675685 922.468943,58.8636523 925.427942,60.8558497 C926.306853,61.207414 927.244344,61.3831935 928.240442,61.3831935 L934.92013,61.3831935 C935.271694,61.3831935 935.447474,62.6136499 935.447474,65.0745997 L935.447474,67.0081935 C935.447474,67.2425697 935.271694,67.359756 934.92013,67.359756 C932.75215,67.359756 931.170135,66.3636722 930.174036,64.3714747 C929.383017,63.5511581 928.562712,63.141006 927.713099,63.141006 L916.111536,63.141006 C915.87716,63.141006 915.525601,62.3207017 915.056849,60.6800685 C915.847868,58.8050591 917.078325,57.8675685 918.748255,57.8675685 Z M890.271692,58.219131 C892.26389,58.219131 894.197464,59.8011464 896.072474,62.9652247 C896.980681,63.316789 897.800986,63.4925685 898.533411,63.4925685 L927.361536,63.4925685 C928.79709,63.4925685 930.08614,64.5472454 931.228724,66.656631 C932.429902,67.3597595 933.718951,67.7113185 935.095911,67.7113185 L949.334192,67.7113185 C950.74045,68.0042887 951.443567,68.7074067 951.443567,69.8206935 L951.443567,70.5238185 C951.297082,71.5785113 950.769744,72.1058497 949.861536,72.1058497 C949.33419,72.1058497 948.982631,71.7542908 948.806849,71.0511622 C949.011928,70.4652218 949.363487,70.172256 949.861536,70.172256 C949.62716,69.4691275 949.158415,69.1175685 948.455286,69.1175685 C947.400593,69.4691327 946.873255,70.2308439 946.873255,71.4027247 L946.873255,77.3792872 C946.873255,79.6058609 945.759985,80.719131 943.533411,80.719131 L896.424036,80.719131 C892.205265,80.719131 890.095911,79.4300814 890.095911,76.8519435 C890.095911,76.4124882 890.681843,73.8929821 891.853724,69.2933497 C891.853724,69.2347557 891.912317,68.4730446 892.029505,67.0081935 C891.912317,65.7191245 891.677944,64.5472613 891.32638,63.4925685 C890.300984,63.7269447 889.597866,63.844131 889.217005,63.844131 C887.810748,63.5218638 887.10763,62.8187458 887.10763,61.734756 L887.10763,60.6800685 C887.10763,59.3031085 888.162307,58.4828042 890.271692,58.219131 Z M936.32638,60.8558497 L938.259974,60.8558497 C938.435756,60.8558497 938.611535,61.0316292 938.787317,61.3831935 L938.787317,64.1956935 C938.787317,64.8109309 938.845911,65.8070147 938.963099,67.1839747 L938.611536,67.359756 L936.32638,67.359756 L935.974817,67.1839747 C935.857629,65.0159951 935.799036,63.4339797 935.799036,62.437881 L935.799036,61.3831935 C935.799036,61.2074114 935.974816,61.0316319 936.32638,60.8558497 Z M939.666224,61.9105372 L939.842005,61.9105372 C941.717014,62.4378836 942.654505,63.4925606 942.654505,65.0745997 C942.156456,66.2464806 941.453338,66.8324122 940.54513,66.8324122 C939.724813,66.7152242 939.314661,66.5394447 939.314661,66.3050685 L939.314661,62.2620997 C939.343958,62.0277236 939.461145,61.9105372 939.666224,61.9105372 Z M1039.50997,61.9105372 L1044.08029,61.9105372 C1044.31466,61.9398343 1044.43185,62.0570206 1044.43185,62.2620997 L1044.43185,75.2699122 C1044.43185,75.5042884 1044.31466,75.6214747 1044.08029,75.6214747 L1039.50997,75.6214747 C1039.2756,75.6214747 1039.15841,75.5042884 1039.15841,75.2699122 L1039.15841,62.2620997 C1039.18771,62.0277236 1039.30489,61.9105372 1039.50997,61.9105372 Z M948.631067,77.7308497 C951.092017,78.3460872 952.322474,79.5765436 952.322474,81.422256 C952.322474,83.7367207 950.799051,85.0843635 947.752161,85.4652247 L892.556849,85.4652247 C891.912314,85.4652247 891.443569,85.1722589 891.150599,84.5863185 L891.150599,84.234756 C891.150599,83.4144394 891.560751,83.0042872 892.381067,83.0042872 L898.533411,83.0042872 L899.588099,81.0706935 L901.17013,81.0706935 L901.521692,81.2464747 C901.170128,82.0667913 900.994349,82.652723 900.994349,83.0042872 L904.158411,83.0042872 C903.806847,81.8910004 903.631067,81.3050688 903.631067,81.2464747 L903.98263,81.0706935 L905.564661,81.0706935 L906.619349,83.0042872 L931.931849,83.0042872 L932.986536,81.0706935 L934.744349,81.0706935 L934.744349,81.2464747 C934.744349,81.4808509 934.627162,82.0667826 934.392786,83.0042872 L937.556849,83.0042872 C937.205284,81.8910004 937.029505,81.3050688 937.029505,81.2464747 L937.381067,81.0706935 L938.787317,81.0706935 C938.933803,81.0706935 939.343955,81.7152183 940.017786,83.0042872 L947.224817,83.0042872 C948.865451,83.0042872 949.685755,82.5355419 949.685755,81.5980372 L949.685755,81.0706935 C949.597864,80.7484263 948.894746,80.3382741 947.57638,79.8402247 L947.400599,78.9613185 C947.400599,78.346081 947.810751,77.9359289 948.631067,77.7308497 Z M1008.92404,80.3675685 L1009.97872,80.3675685 C1010.47677,80.3675685 1010.94552,81.4808386 1011.38497,83.7074122 C1010.82833,84.2933527 1010.18381,84.5863185 1009.45138,84.5863185 L1009.2756,84.5863185 C1007.98653,84.5863185 1007.342,84.410539 1007.342,84.0589747 C1007.78146,83.7953015 1008.19161,83.3265562 1008.57247,82.6527247 L1006.81466,82.4769435 L1006.81466,82.3011622 C1007.92795,81.0120933 1008.63107,80.3675685 1008.92404,80.3675685 Z M1053.39669,82.4769435 C1053.74826,82.4769435 1053.98263,83.355841 1054.09982,85.1136622 C1053.04512,86.4027312 1052.45919,87.047256 1052.342,87.047256 C1051.87325,85.7874841 1051.63888,84.7914003 1051.63888,84.0589747 L1053.39669,82.4769435 Z" id="*" fill="#FFFFFF" transform="translate(976.668177, 60.504287) rotate(-7.000000) translate(-976.668177, -60.504287) "></path>
                    <g id="Group-21-Copy" transform="translate(343.000000, 42.000000) rotate(-12.000000) translate(-343.000000, -42.000000) translate(314.000000, 6.000000)">
                        <path d="M36.8878389,8.74257937 C43.9049183,6.44214286 41.3752437,0.919944444 41.3752437,0.919944444 L39.7636722,0.34431746 L37.8089341,0 C37.8089341,0 40.4541484,3.91131746 36.772069,6.67207143 C36.0995452,7.17657937 33.1703151,7.89352381 31.58245,8.79896825 C32.9684659,8.76605556 35.1432357,9.31475397 36.8878389,8.74257937" id="Fill-1" fill="#FFFFFF"></path>
                        <g id="Group-5" transform="translate(29.920635, 56.538722)">
                            <mask id="mask-4" fill="white">
                                <use xlink:href="#path-3"></use>
                            </mask>
                            <g id="Clip-4"></g>
                            <path d="M0.878354762,13.129727 C1.45329127,15.4301635 6.35590238,14.1387429 6.35590238,14.1387429 C6.35590238,14.1387429 3.70033095,5.78996508 2.94080714,3.51093333 C2.60316429,2.49754444 2.76289444,1.29841746 3.26302937,0.203092063 C-1.70609762,2.27912381 0.43645,11.3627984 0.878354762,13.129727" id="Fill-3" fill="#FFFFFF" mask="url(#mask-4)"></path>
                        </g>
                        <g id="Group-8" transform="translate(0.000000, 34.903802)">
                            <mask id="mask-6" fill="white">
                                <use xlink:href="#path-5"></use>
                            </mask>
                            <g id="Clip-7"></g>
                            <path d="M56.9040071,17.7835825 C56.0547214,15.4559873 55.5237452,15.8224 54.6132373,16.0042254 C54.274904,16.0468048 53.9674119,16.0603841 53.6859278,16.0541698 C53.2279119,16.0219476 52.6486024,15.9280429 51.9542135,15.7839635 C51.8566262,15.760027 51.7629516,15.7377016 51.6729595,15.7183683 C50.9056103,15.5533444 42.2417452,13.3049238 42.2417452,13.3049238 L42.2387532,13.3164317 C39.5194278,12.6319397 36.4741976,11.917527 33.2183722,11.2988603 C16.1919198,8.06305873 18.9855865,3.44975714 6.95035635,4.39133651 C1.76557063,4.79664603 0.722951587,2.56180476 0.775427778,1.87938413 C0.755403968,1.32147937 1.24886429,0.718233333 2.13681667,0.15158254 C-1.25388175,1.49225714 0.0324753968,7.39283651 1.61320556,8.57746349 C4.96155476,11.089646 12.0391659,8.00897143 16.9864278,10.4214952 C27.8381817,15.7112333 38.8496659,17.1400587 45.4232294,17.5718365 C47.3763563,17.7253524 49.5115389,17.8530905 50.5767135,17.7835825 C48.9662929,18.0142016 41.3733563,18.934146 38.0376659,18.5891381 C35.9254992,18.3704873 34.0464833,19.9496063 33.1836183,21.8380587 C34.6851738,21.2111063 36.8348563,21.2223841 39.8780151,22.2698365 C47.4122611,24.8641857 50.9343802,24.6443841 56.7997452,23.1485825 C58.4723087,22.7223286 58.1514675,21.2012095 56.9040071,17.7835825" id="Fill-6" fill="#FFFFFF" mask="url(#mask-6)"></path>
                        </g>
                        <path d="M25.9591198,37.0419992 C26.5584532,37.1131183 27.2597468,37.1810151 28.0358421,37.2445389 C27.3520405,36.8417611 26.6551198,36.4702849 25.8930643,36.1554278 C16.82435,30.905277 5.91022302,32.6468881 2.13677063,35.055269 C2.35127857,34.9705706 2.58304841,34.9026738 2.83599286,34.8566421 C5.36727857,34.3965548 19.1738103,36.2364437 25.9591198,37.0419992" id="Fill-9" fill="#FFFFFF"></path>
                        <path d="M21.0129627,26.229027 C15.8360024,26.5740349 12.037923,21.6276937 17.1009548,23.4673524 C18.5274786,23.9859 20.7218119,24.9159714 23.3124786,26.0124476 C22.3218754,26.1208524 21.5328913,26.194273 21.0129627,26.229027 M48.2780262,24.9629238 C50.6903198,23.784281 50.9803198,22.0990587 51.5568675,19.7212889 L51.5030103,19.7597254 C51.5791929,19.3465905 50.6999865,18.7799397 43.9158278,19.6487889 C37.8679468,20.4230429 25.4992167,17.6008365 25.4992167,17.6008365 C25.9602246,15.5298683 40.0249944,20.3691857 42.6400579,17.1402889 C43.9692246,15.4999476 47.0114627,13.9199079 44.0200897,11.7334 C41.029177,9.54689206 29.8703913,10.8134556 30.6752563,9.54804286 C30.8423516,9.2856619 31.1671056,9.03593968 31.5825421,8.79910635 C30.8214071,8.81728889 30.2975659,9.0101619 30.2158595,9.66243175 C29.9847802,11.5034714 29.0655262,13.1138921 30.4460183,13.8050587 C31.8269706,14.4955349 39.6493754,14.2644556 41.7196532,15.7597968 C43.789931,17.2551381 37.5137325,16.067519 34.3573357,15.4147889 C27.6850341,14.034527 26.1903833,14.6092333 25.3841373,17.2551381 C24.5788119,19.9010429 24.7143754,19.0052651 24.0238992,21.3061619 C24.9512087,23.1467413 25.6815024,20.5853048 36.7813675,23.3244238 C37.4115421,23.479781 38.0403357,23.581281 38.664296,23.6425032 C33.9732008,24.5794794 29.1025817,25.3026381 25.5574468,25.7473048 C24.4529151,25.0393365 23.2747325,24.2899397 21.816677,23.4673524 C17.330423,20.936527 13.6494944,21.3966143 13.3047167,24.7329952 C12.9597087,28.0689159 11.396931,30.4577333 15.2610659,31.0595984 C21.6000976,32.0472095 27.9393595,31.3917175 33.441304,30.1530032 C33.9089865,30.3320667 34.3759786,30.5079079 34.8404389,30.6800667 C34.4556135,30.4526698 34.0845976,30.2524317 33.7296929,30.0871778 C40.2763278,28.5812492 45.6045024,26.2683841 48.2780262,24.9629238" id="Fill-11" fill="#FFFFFF"></path>
                        <path d="M49.887319,42.4493714 C57.4749619,42.0797365 56.4438508,40.8389508 56.9039381,37.2726413 C56.9969222,36.5538556 56.7163587,35.4718794 55.8875571,35.1112206 C55.4350651,34.8773794 54.8407952,34.7204111 54.1199381,34.6025698 C52.8008984,34.3747127 51.0148667,34.2633159 49.2792397,34.1397206 C47.9063429,34.0202683 46.3767079,33.8607683 44.7098984,33.5912524 C42.0140492,33.1551016 38.4981444,32.0353794 34.8404619,30.6802048 C37.3791127,32.1810698 40.5055889,34.8534429 43.441954,36.377554 C43.7913349,36.5869984 45.2169381,37.3851889 46.834954,37.5067127 C46.8464619,37.5078635 46.8584302,37.5094746 46.8701683,37.5103952 C46.9115968,37.5133873 46.9541762,37.5131571 46.9958349,37.5149984 C47.2352,37.5276571 47.4711127,37.5267365 47.7012714,37.5025698 C46.0595492,38.0155937 34.466454,37.7718556 28.0360492,37.2445619 C32.1001921,39.6377524 35.7088508,43.1382365 49.887319,42.4493714" id="Fill-13" fill="#FFFFFF"></path>
                    </g>
                    <g id="Group-21-Copy-2" transform="translate(1162.000000, 56.000000) rotate(-12.000000) translate(-1162.000000, -56.000000) translate(1141.000000, 30.000000)">
                        <path d="M26.6278688,6.79641797 C31.4262058,5.00807527 29.6963933,0.715158158 29.6963933,0.715158158 L28.5943875,0.267669904 L27.2577214,0 C27.2577214,0 29.0665408,3.04062991 26.5487045,5.18682008 C26.0888271,5.5790209 24.0857953,6.13636833 23,6.84025429 C23.9477691,6.81466819 25.4348947,7.24122237 26.6278688,6.79641797" id="Fill-1" fill="#FFFFFF"></path>
                        <g id="Group-5" transform="translate(22.000000, 41.000000)">
                            <mask id="mask-8" fill="white">
                                <use xlink:href="#path-7"></use>
                            </mask>
                            <g id="Clip-4"></g>
                            <path d="M0.628477976,9.84190537 C1.03985496,11.5662884 4.54775774,10.5982531 4.54775774,10.5982531 C4.54775774,10.5982531 2.6476506,4.34009698 2.10419821,2.63175873 C1.86260893,1.87213307 1.97689861,0.973280083 2.33475377,0.152235676 C-1.22074226,1.70840726 0.3122875,8.51743428 0.628477976,9.84190537" id="Fill-3" fill="#FFFFFF" mask="url(#mask-8)"></path>
                        </g>
                        <g id="Group-8" transform="translate(0.000000, 25.000000)">
                            <mask id="mask-10" fill="white">
                                <use xlink:href="#path-9"></use>
                            </mask>
                            <g id="Clip-7"></g>
                            <path d="M41.20635,13.0880159 C40.59135,11.3749976 40.20685,11.6446629 39.5475167,11.7784792 C39.3025167,11.8098159 39.07985,11.8198098 38.8760167,11.8152363 C38.54435,11.791522 38.12485,11.7224118 37.6220167,11.6163751 C37.55135,11.5987588 37.4835167,11.5823282 37.41835,11.5680996 C36.8626833,11.4466486 30.58885,9.79189959 30.58885,9.79189959 L30.5866833,9.80036898 C28.6175167,9.2966098 26.41235,8.7708302 24.0546833,8.31551592 C11.7251833,5.93409347 13.7481833,2.53888531 5.03301667,3.23185061 C1.27851667,3.53014245 0.523516667,1.88538735 0.561516667,1.38315265 C0.547016667,0.972556735 0.90435,0.528591429 1.54735,0.111558776 C-0.907983333,1.09824245 0.0235166667,5.44083633 1.16818333,6.3126751 C3.59285,8.16154245 8.71801667,5.89428735 12.3005167,7.6698098 C20.1586833,11.5628486 28.1325167,12.6144078 32.8926833,12.9321792 C34.3070167,13.0451608 35.8531833,13.139171 36.6245167,13.0880159 C35.45835,13.2577424 29.9600167,13.9347853 27.5445167,13.6808731 C26.0150167,13.5199547 24.65435,14.6821241 24.0295167,16.0719506 C25.11685,15.6105384 26.6735167,15.6188384 28.8771833,16.389722 C34.3330167,18.2990608 36.8835167,18.1372955 41.13085,17.0364445 C42.3420167,16.7227384 42.1096833,15.6032547 41.20635,13.0880159" id="Fill-6" fill="#FFFFFF" mask="url(#mask-10)"></path>
                        </g>
                        <path d="M19.4764812,26.8654555 C19.9161623,26.912699 20.4306433,26.957802 21,27 C20.4983515,26.7324399 19.9870787,26.4856731 19.4280217,26.2765176 C12.7750584,22.7889105 4.76826895,23.9458402 2,25.5456964 C2.15736668,25.4894324 2.32739698,25.4443294 2.51296133,25.4137511 C4.36995566,25.1081211 14.4986625,26.3303354 19.4764812,26.8654555" id="Fill-9" fill="#FFFFFF"></path>
                        <path d="M14.9897429,18.2639502 C11.2591712,18.5067029 8.5222355,15.0263839 12.1707091,16.320795 C13.1986771,16.6856528 14.7799366,17.3400648 16.6467981,18.1115617 C15.9329591,18.1878369 15.3644089,18.2394968 14.9897429,18.2639502 M34.6372327,17.3731012 C36.3755567,16.5437907 36.5845338,15.3580434 37,13.6850093 L36.96119,13.7120538 C37.0160879,13.421366 36.3825226,13.0226621 31.4937869,13.6339972 C27.1356207,14.1787738 18.2225844,12.1930276 18.2225844,12.1930276 C18.5547916,10.7358637 28.6900117,14.1408791 30.5744538,11.8689795 C31.5322652,10.7148111 33.7245338,9.6030718 31.5689191,8.06461245 C29.4136362,6.5261531 21.3724985,7.41732592 21.9524927,6.52696281 C22.0729033,6.34234769 22.3069244,6.16663944 22.6062923,6 C22.0578105,6.0127935 21.680325,6.14850181 21.6214466,6.60744853 C21.4549284,7.9028313 20.7925044,9.0359471 21.7873014,9.5222622 C22.7824301,10.0080915 28.4193367,9.84550061 29.9112005,10.8976449 C31.4030644,11.9497891 26.8803702,11.1141628 24.6058376,10.6548922 C19.7977073,9.68371946 18.7206464,10.0880914 18.139657,11.9497891 C17.5593311,13.8114869 17.6570196,13.1812044 17.1594552,14.8001494 C17.8276842,16.0952083 18.3539414,14.2929437 26.3526202,16.2202284 C26.8067306,16.32954 27.2598459,16.4009569 27.7094782,16.4440337 C24.329026,17.1033041 20.819207,17.6121292 18.2645457,17.9250033 C17.4686086,17.4268663 16.6195979,16.8995796 15.5689078,16.320795 C12.3360663,14.5400688 9.68355072,14.8637931 9.43510024,17.2113201 C9.18648392,19.5585232 8.06032991,21.2393306 10.8448659,21.6628117 C15.4128385,22.3577095 19.9809769,21.8964956 23.9457356,21.0249179 C24.2827525,21.1509096 24.6192719,21.2746342 24.9539668,21.3957676 C24.6766576,21.2357678 24.4092997,21.0948773 24.1535516,20.9786022 C28.8711252,19.9190086 32.7106635,18.2916424 34.6372327,17.3731012" id="Fill-11" fill="#FFFFFF"></path>
                        <path d="M35.8863719,30.9330889 C41.4027615,30.6525268 40.6531202,29.7107397 40.9876141,27.0038225 C41.0552157,26.4582464 40.8512396,25.6369996 40.248682,25.3632507 C39.9197099,25.1857594 39.4876622,25.0666166 38.9635826,24.9771722 C38.0046106,24.804223 36.7061248,24.71967 35.4442843,24.6258582 C34.446157,24.5351909 33.3340775,24.4141264 32.1222689,24.2095572 C30.162325,23.878508 27.606182,23.0286111 24.9469633,22 C26.7926204,23.1391938 29.06564,25.167591 31.2004444,26.3244291 C31.4544523,26.4834026 32.4908984,27.0892489 33.6672328,27.1814885 C33.6755994,27.182362 33.6843006,27.1835849 33.6928344,27.1842837 C33.7229539,27.1865547 33.7539101,27.18638 33.784197,27.1877776 C33.9582208,27.1973859 34.1297348,27.1966871 34.2970654,27.178344 C33.1034959,27.5677418 24.675051,27.3827385 20,26.9825096 C22.9547246,28.7990004 25.5783019,31.4559545 35.8863719,30.9330889" id="Fill-13" fill="#FFFFFF"></path>
                    </g>
                    <g id="Group-21-Copy-3" transform="translate(1231.851101, 44.242753) rotate(-12.000000) translate(-1231.851101, -44.242753) translate(1202.851101, 8.242753)">
                        <path d="M36.8878389,8.74257937 C43.9049183,6.44214286 41.3752437,0.919944444 41.3752437,0.919944444 L39.7636722,0.34431746 L37.8089341,0 C37.8089341,0 40.4541484,3.91131746 36.772069,6.67207143 C36.0995452,7.17657937 33.1703151,7.89352381 31.58245,8.79896825 C32.9684659,8.76605556 35.1432357,9.31475397 36.8878389,8.74257937" id="Fill-1" fill="#FFFFFF"></path>
                        <g id="Group-5" transform="translate(29.920635, 56.538722)">
                            <mask id="mask-12" fill="white">
                                <use xlink:href="#path-11"></use>
                            </mask>
                            <g id="Clip-4"></g>
                            <path d="M0.878354762,13.129727 C1.45329127,15.4301635 6.35590238,14.1387429 6.35590238,14.1387429 C6.35590238,14.1387429 3.70033095,5.78996508 2.94080714,3.51093333 C2.60316429,2.49754444 2.76289444,1.29841746 3.26302937,0.203092063 C-1.70609762,2.27912381 0.43645,11.3627984 0.878354762,13.129727" id="Fill-3" fill="#FFFFFF" mask="url(#mask-12)"></path>
                        </g>
                        <g id="Group-8" transform="translate(0.000000, 34.903802)">
                            <mask id="mask-14" fill="white">
                                <use xlink:href="#path-13"></use>
                            </mask>
                            <g id="Clip-7"></g>
                            <path d="M56.9040071,17.7835825 C56.0547214,15.4559873 55.5237452,15.8224 54.6132373,16.0042254 C54.274904,16.0468048 53.9674119,16.0603841 53.6859278,16.0541698 C53.2279119,16.0219476 52.6486024,15.9280429 51.9542135,15.7839635 C51.8566262,15.760027 51.7629516,15.7377016 51.6729595,15.7183683 C50.9056103,15.5533444 42.2417452,13.3049238 42.2417452,13.3049238 L42.2387532,13.3164317 C39.5194278,12.6319397 36.4741976,11.917527 33.2183722,11.2988603 C16.1919198,8.06305873 18.9855865,3.44975714 6.95035635,4.39133651 C1.76557063,4.79664603 0.722951587,2.56180476 0.775427778,1.87938413 C0.755403968,1.32147937 1.24886429,0.718233333 2.13681667,0.15158254 C-1.25388175,1.49225714 0.0324753968,7.39283651 1.61320556,8.57746349 C4.96155476,11.089646 12.0391659,8.00897143 16.9864278,10.4214952 C27.8381817,15.7112333 38.8496659,17.1400587 45.4232294,17.5718365 C47.3763563,17.7253524 49.5115389,17.8530905 50.5767135,17.7835825 C48.9662929,18.0142016 41.3733563,18.934146 38.0376659,18.5891381 C35.9254992,18.3704873 34.0464833,19.9496063 33.1836183,21.8380587 C34.6851738,21.2111063 36.8348563,21.2223841 39.8780151,22.2698365 C47.4122611,24.8641857 50.9343802,24.6443841 56.7997452,23.1485825 C58.4723087,22.7223286 58.1514675,21.2012095 56.9040071,17.7835825" id="Fill-6" fill="#FFFFFF" mask="url(#mask-14)"></path>
                        </g>
                        <path d="M25.9591198,37.0419992 C26.5584532,37.1131183 27.2597468,37.1810151 28.0358421,37.2445389 C27.3520405,36.8417611 26.6551198,36.4702849 25.8930643,36.1554278 C16.82435,30.905277 5.91022302,32.6468881 2.13677063,35.055269 C2.35127857,34.9705706 2.58304841,34.9026738 2.83599286,34.8566421 C5.36727857,34.3965548 19.1738103,36.2364437 25.9591198,37.0419992" id="Fill-9" fill="#FFFFFF"></path>
                        <path d="M21.0129627,26.229027 C15.8360024,26.5740349 12.037923,21.6276937 17.1009548,23.4673524 C18.5274786,23.9859 20.7218119,24.9159714 23.3124786,26.0124476 C22.3218754,26.1208524 21.5328913,26.194273 21.0129627,26.229027 M48.2780262,24.9629238 C50.6903198,23.784281 50.9803198,22.0990587 51.5568675,19.7212889 L51.5030103,19.7597254 C51.5791929,19.3465905 50.6999865,18.7799397 43.9158278,19.6487889 C37.8679468,20.4230429 25.4992167,17.6008365 25.4992167,17.6008365 C25.9602246,15.5298683 40.0249944,20.3691857 42.6400579,17.1402889 C43.9692246,15.4999476 47.0114627,13.9199079 44.0200897,11.7334 C41.029177,9.54689206 29.8703913,10.8134556 30.6752563,9.54804286 C30.8423516,9.2856619 31.1671056,9.03593968 31.5825421,8.79910635 C30.8214071,8.81728889 30.2975659,9.0101619 30.2158595,9.66243175 C29.9847802,11.5034714 29.0655262,13.1138921 30.4460183,13.8050587 C31.8269706,14.4955349 39.6493754,14.2644556 41.7196532,15.7597968 C43.789931,17.2551381 37.5137325,16.067519 34.3573357,15.4147889 C27.6850341,14.034527 26.1903833,14.6092333 25.3841373,17.2551381 C24.5788119,19.9010429 24.7143754,19.0052651 24.0238992,21.3061619 C24.9512087,23.1467413 25.6815024,20.5853048 36.7813675,23.3244238 C37.4115421,23.479781 38.0403357,23.581281 38.664296,23.6425032 C33.9732008,24.5794794 29.1025817,25.3026381 25.5574468,25.7473048 C24.4529151,25.0393365 23.2747325,24.2899397 21.816677,23.4673524 C17.330423,20.936527 13.6494944,21.3966143 13.3047167,24.7329952 C12.9597087,28.0689159 11.396931,30.4577333 15.2610659,31.0595984 C21.6000976,32.0472095 27.9393595,31.3917175 33.441304,30.1530032 C33.9089865,30.3320667 34.3759786,30.5079079 34.8404389,30.6800667 C34.4556135,30.4526698 34.0845976,30.2524317 33.7296929,30.0871778 C40.2763278,28.5812492 45.6045024,26.2683841 48.2780262,24.9629238" id="Fill-11" fill="#FFFFFF"></path>
                        <path d="M49.887319,42.4493714 C57.4749619,42.0797365 56.4438508,40.8389508 56.9039381,37.2726413 C56.9969222,36.5538556 56.7163587,35.4718794 55.8875571,35.1112206 C55.4350651,34.8773794 54.8407952,34.7204111 54.1199381,34.6025698 C52.8008984,34.3747127 51.0148667,34.2633159 49.2792397,34.1397206 C47.9063429,34.0202683 46.3767079,33.8607683 44.7098984,33.5912524 C42.0140492,33.1551016 38.4981444,32.0353794 34.8404619,30.6802048 C37.3791127,32.1810698 40.5055889,34.8534429 43.441954,36.377554 C43.7913349,36.5869984 45.2169381,37.3851889 46.834954,37.5067127 C46.8464619,37.5078635 46.8584302,37.5094746 46.8701683,37.5103952 C46.9115968,37.5133873 46.9541762,37.5131571 46.9958349,37.5149984 C47.2352,37.5276571 47.4711127,37.5267365 47.7012714,37.5025698 C46.0595492,38.0155937 34.466454,37.7718556 28.0360492,37.2445619 C32.1001921,39.6377524 35.7088508,43.1382365 49.887319,42.4493714" id="Fill-13" fill="#FFFFFF"></path>
                    </g>
                </g>
            </g>
        </g>
    </g>
</svg>