<?xml version="1.0" encoding="UTF-8"?>
<svg width="320px" height="142px" viewBox="0 0 320 142" version="1.1" xmlns="http://www.w3.org/2000/svg" xmlns:xlink="http://www.w3.org/1999/xlink">
    <!-- Generator: sketchtool 51.2 (57519) - http://www.bohemiancoding.com/sketch -->
    <title>323A848F-72DB-43D6-BFFC-C76FADA7E721</title>
    <desc>Created with sketchtool.</desc>
    <defs>
        <polygon id="path-1" points="0.000938461184 0.992838616 1529.80394 0.992838616 1529.80394 177.208784 0.000938461184 177.208784"></polygon>
    </defs>
    <g id="FLUJO_-MOVIL" stroke="none" stroke-width="1" fill="none" fill-rule="evenodd">
        <g id="1.-HOME-movil-Copy-2" transform="translate(0.000000, -1736.000000)">
            <g id="Group-44" transform="translate(-969.000000, 1663.000000)">
                <g id="Group-17" transform="translate(0.000000, 35.000000)">
                    <g id="Group-3" transform="translate(19.000000, 2.568243)">
                        <mask id="mask-2" fill="white">
                            <use xlink:href="#path-1"></use>
                        </mask>
                        <g id="Clip-2"></g>
                        <path d="M1381.66382,24.6768512 C1349.98405,31.832096 1317.70635,38.4216809 1284.48617,44.2343637 C1247.22926,43.6018105 1210.19758,44.2097188 1174.60979,46.1813132 C1143.02923,47.9311032 1112.2343,51.0011574 1082.07886,54.6368714 C1052.17546,58.2444197 1022.84319,62.3800737 993.167706,66.1976908 C982.427688,67.580154 971.386022,69.0236428 960.180796,70.0587298 C948.336075,71.1536689 937.095991,71.5292107 924.906721,71.4271103 C916.192439,71.3719526 907.480837,71.2721993 898.77594,71.1313711 C881.350056,70.8473676 863.949645,70.3908496 846.600179,69.7700321 C826.621681,69.0553291 806.710216,68.1223425 786.899301,66.9804607 C724.219478,63.3658709 661.561106,58.3418259 600.408294,52.3683642 C472.931749,39.9191538 343.26993,30.0834795 209.957497,34.0794789 C164.022503,35.4549007 117.875685,38.4521937 73.6419876,42.989208 C48.5837333,45.5581485 24.2293249,48.7971965 0.000938461184,52.1758991 L0.000938461184,54.2061719 C0.92197108,65.2846548 0.562674513,76.4218161 0.258344957,87.5425475 C0.172542792,87.5542832 0.0867406266,87.5660188 0.000938461184,87.5777545 L0.000938461184,146.085992 L45.8541519,177.209018 L1529.80394,177.209018 L1529.80394,102.10066 L1529.80394,67.0004114 L1529.80394,0.991899762 C1474.96697,3.86010021 1427.14701,14.4010889 1381.66382,24.6768512" id="Fill-1" fill="#FFFFFF" mask="url(#mask-2)"></path>
                    </g>
                    <g id="Group-6" transform="translate(19.000000, 0.000000)" fill="#F4F4F6">
                        <path d="M1381.66382,24.5185873 C1298.0295,43.2871908 1210.25791,58.1647139 1111.82406,65.1481363 C1004.79792,72.7425644 894.536776,72.7157455 786.899301,66.5508842 C724.219478,62.9594765 661.561106,57.9676529 600.408294,52.0325018 C472.931749,39.6631339 343.26993,29.8905403 209.957497,33.8609115 C164.022503,35.2275121 117.875685,38.2055821 73.6419876,42.7134984 C48.5837333,45.2659632 24.2293249,48.4842376 0.000938461184,51.841271 L0.000938461184,53.8585228 C1.32416873,69.6735433 0.00361977885,85.6109981 0.000938461184,101.445841 L194.419261,101.445841 L649.105045,101.445841 L1114.31366,101.445841 L1465.81698,101.445841 L1490.13787,101.445841 L1529.80394,101.445841 L1529.80394,0.985538253 C1474.96697,3.83534361 1427.14701,14.3087281 1381.66382,24.5185873" id="Fill-4"></path>
                    </g>
                    <path d="M1187.76011,40.7444534 C1107.23513,45.2615366 1039.4427,57.7307291 963.146703,66.2719717 C890.937565,74.3547356 812.358136,77.193502 736.33031,75.6885995 C699.016311,74.9509953 660.858929,73.398582 624.248866,70.8912029 C574.014615,67.4478624 526.242131,60.6668926 475.513113,57.9457152 C319.451056,49.5766991 156.856468,63.1980271 13,82.6406079 L13,141.857989 L58.8604589,173.356419 L1543,173.356419 L1543,61.8154647 C1437.87881,42.4845341 1304.99437,34.1701553 1187.76011,40.7444534" id="Fill-7" fill="#FFFFFF"></path>
                    <path d="M437.027006,105.658115 C544.074968,113.300317 654.348971,113.273329 761.993603,107.069687 C824.680156,103.455687 887.349279,98.4324616 948.508625,92.4599745 C1076.00963,80.0127951 1205.68681,70.1787254 1339.0097,74.1740729 C1384.95731,75.5492703 1431.11007,78.5460743 1475.34276,83.0823484 C1500.41095,85.6508698 1524.76849,88.8893894 1549,92.2675407 L1549,94.2974823 C1547.67258,110.21199 1552.50026,104.832809 1552.50562,120.767263 L1351.84182,116.121272 L905.391977,125.746619 L435.285974,122.362345 L80.6377186,122.231532 L56.9731213,120.151174 L19,142.184156 L19,41.0918919 C73.8386664,43.9596244 121.664784,54.4988934 167.159196,64.7729793 C250.797582,83.6596497 338.587182,98.6307622 437.027006,105.658115 Z" id="Fill-9" fill="#EDECEC"></path>
                    <g id="Group-13" transform="translate(5.000000, 33.387162)" fill="#E1E1E1">
                        <path d="M1115.82406,65.1481363 C1008.79792,72.7425644 898.536776,72.7157455 790.899301,66.5508842 C728.219478,62.9594765 665.561106,57.9676529 604.408294,52.0325018 C476.931749,39.6631339 347.26993,29.8905403 213.957497,33.8609115 C168.022503,35.2275121 121.875685,38.2055821 77.6419876,42.7134984 C52.5837333,45.2659632 28.2293249,48.4842376 4.00093846,51.841271 C4.00093846,51.841271 4.72678403,66.0679672 4.72410271,81.9028104 C-17.3886521,88.6432259 47.3359345,92.0134337 198.897863,92.0134337 C350.459791,92.0134337 501.76749,91.7391471 652.82096,91.1905741 L1125.36178,88.8443694 L1470.93748,86.0128885 L1508.77637,91.1188376 L1533.80394,101.445841 L1533.80394,0.985538253 C1478.96697,3.83534361 1431.14701,14.3087281 1385.66382,24.5185873 C1302.0295,43.2871908 1214.25791,58.1647139 1115.82406,65.1481363 Z" id="Fill-11"></path>
                    </g>
                    <g id="Group-16" transform="translate(0.000000, 28.966554)" fill="#FFFFFF">
                        <path d="M649.105447,101.318633 L1114.31406,101.318633 L1465.81604,101.318633 L1490.13827,101.318633 L1529.803,101.318633 L1529.803,0.00479085643 C1529.803,-0.0481274399 1428.15157,-0.571430593 1208.07304,58.241964 C1160.08818,71.0646551 1103.70811,81.4095941 1043.64659,85.7077357 C936.619119,93.3667771 826.360655,93.33973 718.723179,87.1224182 C656.043357,83.5004548 593.383644,78.4649849 532.230832,72.4805136 C404.754287,60.0059072 275.092468,50.1501685 141.780034,54.1543196 C95.8450407,55.5313712 49.6995636,58.5359545 5.46586607,63.0810482 C3.63318544,63.2703781 1.82731799,63.4855791 0.00268131767,63.6807889 L0.00268131767,65.7822332 L0.00268131767,67.7284505 L0.00268131767,74.9394504 L0.00268131767,75.882572 C0.00268131767,84.208384 0.00268131767,95.3294579 0,101.318633 L194.419663,101.318633 L649.105447,101.318633 Z" id="Fill-14"></path>
                    </g>
                </g>
            </g>
        </g>
    </g>
</svg>