<?xml version="1.0" encoding="UTF-8"?>
<svg width="164px" height="42px" viewBox="0 0 164 42" version="1.1" xmlns="http://www.w3.org/2000/svg" xmlns:xlink="http://www.w3.org/1999/xlink">
    <!-- Generator: sketchtool 51.2 (57519) - http://www.bohemiancoding.com/sketch -->
    <title>8575C661-1B5B-45E1-80BF-DB87742EFB6B</title>
    <desc>Created with sketchtool.</desc>
    <defs></defs>
    <g id="FLUJO-" stroke="none" stroke-width="1" fill="none" fill-rule="evenodd">
        <g id="1.-Home_Campaña-navidad" transform="translate(-729.000000, -3865.000000)">
            <g id="Group-32" transform="translate(548.000000, 3865.000000)">
                <g id="Group-25" transform="translate(181.000000, 0.000000)">
                    <rect id="Rectangle-17" fill="#3ACE01" x="0" y="0" width="164" height="42" rx="5"></rect>
                    <text id="WhatsApp" font-family="Roboto-Medium, Roboto" font-size="22" font-weight="400" fill="#FFFFFF">
                        <tspan x="46.9794922" y="28">WhatsApp</tspan>
                    </text>
                    <g id="Group-69" transform="translate(13.000000, 7.000000)">
                        <path d="M13.2790726,-3.55271368e-15 C6.04298928,-3.55271368e-15 0.156976744,5.90569885 0.156976744,13.1659839 C0.156976744,16.0453261 1.08271469,18.7156151 2.65638211,20.8830404 L1.02088271,25.774711 L6.06606742,24.1573338 C8.14113993,25.5350753 10.6174672,26.3321863 13.2866927,26.3321863 C20.5227761,26.3321863 26.4087886,20.426269 26.4087886,13.1662024 C26.4087886,5.90591729 20.5227761,0.000218446416 13.2866927,0.000218446416 L13.2790726,0.000218446416 L13.2790726,-3.55271368e-15 Z" id="Whatsapp" fill="#FFFFFF"></path>
                        <path d="M9.85526081,5.65436984 C9.59498218,5.02908626 9.39771368,5.00540635 9.00339934,4.98932188 C8.86914098,4.98150305 8.71951973,4.97368421 8.55364498,4.97368421 C8.04065783,4.97368421 7.50429236,5.12402928 7.18078093,5.45644156 C6.78646659,5.86011695 5.80813953,6.80195174 5.80813953,8.73342792 C5.80813953,10.6649041 7.21239733,12.532936 7.4016504,12.7943086 C7.5989189,13.0552343 10.1393631,17.0763506 14.0838424,18.7151789 C17.1684448,19.9974682 18.0837617,19.8786218 18.7857793,19.7282768 C19.8113083,19.5066686 21.0973386,18.7464542 21.42085,17.8285227 C21.7443614,16.9101445 21.7443614,16.1264736 21.6495123,15.9602674 C21.5548857,15.7940613 21.2943844,15.6993417 20.9000701,15.50119 C20.5057557,15.3032617 18.5885108,14.3533847 18.2255902,14.2267195 C17.8704624,14.0922355 17.5313654,14.1398187 17.263294,14.5198142 C16.8845652,15.0501548 16.5138518,15.5885376 16.2139414,15.9129076 C15.9772637,16.1662379 15.5905195,16.1979601 15.2672307,16.0632527 C14.8332846,15.8814089 13.6185025,15.4536068 12.1193955,14.1159154 C10.9596082,13.0791376 10.1707568,11.7890295 9.94209458,11.4012152 C9.71320968,11.005582 9.9184936,10.7757082 10.0997313,10.5621422 C10.2969997,10.3166308 10.4862528,10.1426058 10.6835213,9.91295536 C10.8807898,9.68352834 10.9912245,9.56468201 11.1174675,9.29549062 C11.2517258,9.03434146 11.1568766,8.76515006 11.0622501,8.56722178 C10.9676236,8.3692935 10.1787722,6.43781732 9.85526081,5.65436984 L9.85526081,5.65436984 Z" id="path3011" fill="#3ACE01"></path>
                    </g>
                </g>
            </g>
        </g>
    </g>
</svg>