<?xml version="1.0" encoding="UTF-8"?>
<svg width="47px" height="47px" viewBox="0 0 47 47" version="1.1" xmlns="http://www.w3.org/2000/svg" xmlns:xlink="http://www.w3.org/1999/xlink">
    <!-- Generator: sketchtool 51.2 (57519) - http://www.bohemiancoding.com/sketch -->
    <title>AD26F9B6-6237-4DCD-B280-8E6BF2F79DF6</title>
    <desc>Created with sketchtool.</desc>
    <defs></defs>
    <g id="FLUJO-" stroke="none" stroke-width="1" fill="none" fill-rule="evenodd">
        <g id="2.2.1.1.-FLUJO-tabla-de-la-mancha-(editable)-(Cambio-de-lider)-(confirmacion)" transform="translate(-947.000000, -455.000000)">
            <g id="Group-14" transform="translate(463.000000, 448.000000)">
                <g id="add" transform="translate(507.112698, 31.112698) rotate(45.000000) translate(-507.112698, -31.112698) translate(485.112698, 9.112698)">
                    <circle id="Oval-3" stroke="#DA272C" stroke-width="3" fill="#DA272C" cx="21.763456" cy="21.8517677" r="21.5"></circle>
                    <path d="M33.6983846,18.1356071 L23.9899479,18.1356071 L23.9899479,8.42717038 C23.9899479,7.08739192 22.9050039,6 21.5627775,6 C20.2205511,6 19.1356071,7.08739192 19.1356071,8.42717038 L19.1356071,18.1356071 L9.42717038,18.1356071 C8.08494394,18.1356071 7,19.222999 7,20.5627775 C7,21.902556 8.08494394,22.9899479 9.42717038,22.9899479 L19.1356071,22.9899479 L19.1356071,32.6983846 C19.1356071,34.0381631 20.2205511,35.125555 21.5627775,35.125555 C22.9050039,35.125555 23.9899479,34.0381631 23.9899479,32.6983846 L23.9899479,22.9899479 L33.6983846,22.9899479 C35.0406111,22.9899479 36.125555,21.902556 36.125555,20.5627775 C36.125555,19.222999 35.0406111,18.1356071 33.6983846,18.1356071 Z" id="Shape" fill="#FFFFFF" fill-rule="nonzero"></path>
                </g>
            </g>
        </g>
    </g>
</svg>