<?xml version="1.0" encoding="UTF-8"?>
<svg width="145px" height="80px" viewBox="0 0 145 80" version="1.1" xmlns="http://www.w3.org/2000/svg" xmlns:xlink="http://www.w3.org/1999/xlink">
    <!-- Generator: sketchtool 51.2 (57519) - http://www.bohemiancoding.com/sketch -->
    <title>B1843A45-85AE-41BB-BA02-BBD144A75672</title>
    <desc>Created with sketchtool.</desc>
    <defs>
        <polygon id="path-1" points="0.34084375 0.322875 1.7801875 0.322875 1.7801875 6.19708618 0.34084375 6.19708618"></polygon>
        <polygon id="path-3" points="0.019621875 0.256144737 5.77728125 0.256144737 5.77728125 1.724625 0.019621875 1.724625"></polygon>
        <polygon id="path-5" points="0.34084375 0.322875 1.7801875 0.322875 1.7801875 6.19708618 0.34084375 6.19708618"></polygon>
        <polygon id="path-7" points="0.019621875 0.256144737 5.77728125 0.256144737 5.77728125 1.724625 0.019621875 1.724625"></polygon>
        <polygon id="path-9" points="0.49815625 0.46125 2.6018125 0.46125 2.6018125 8.85298026 0.49815625 8.85298026"></polygon>
        <polygon id="path-11" points="0.028678125 0.365921053 8.44371875 0.365921053 8.44371875 2.46375 0.028678125 2.46375"></polygon>
        <polygon id="path-13" points="0.2621875 0.2536875 1.369375 0.2536875 1.369375 4.86913914 0.2621875 4.86913914"></polygon>
        <polygon id="path-15" points="0.01509375 0.201256579 4.4440625 0.201256579 4.4440625 1.3550625 0.01509375 1.3550625"></polygon>
    </defs>
    <g id="FLUJO-" stroke="none" stroke-width="1" fill="none" fill-rule="evenodd">
        <g id="1.-Home_Campaña-navidad" transform="translate(-841.000000, -1465.000000)">
            <g id="Group-42" transform="translate(841.000000, 1465.000000)">
                <g id="Group-19" transform="translate(35.000000, 0.000000)">
                    <path d="M69.2903643,61.7957687 C64.2717256,65.8901991 57.9356881,68.1453788 51.4484459,68.1453788 C44.9345062,68.1453788 38.5914303,65.9051484 33.5871111,61.8377233 L33.139079,61.4736346 L33.3948893,60.9578825 C36.8026999,54.087939 43.7204994,49.8201446 51.4484459,49.8201446 C59.1564905,49.8201446 66.0660382,54.071543 69.4804018,60.9156868 L69.7376683,61.4307156 L69.2903643,61.7957687 Z M43.6819095,38.7287014 L43.6819095,36.3777976 C43.6819095,32.1230236 47.1661719,28.6617699 51.4484459,28.6617699 C55.7309626,28.6617699 59.2149823,32.1230236 59.2149823,36.3777976 L59.2149823,38.7287014 C59.2149823,42.9832343 55.7309626,46.444488 51.4484459,46.444488 C47.1661719,46.444488 43.6819095,42.9832343 43.6819095,38.7287014 Z M51.4484459,8.82978723 C49.8349479,8.82978723 48.2124699,8.95227535 46.6259122,9.1936348 C45.7002381,9.33493014 45.0624113,10.1981338 45.2043933,11.1177591 C45.3461326,12.0371433 46.2164701,12.6720078 47.1416587,12.5302303 C48.5551684,12.3149116 50.0045982,12.2054439 51.4484459,12.2054439 C66.9725386,12.2054439 79.602383,24.7527596 79.602383,40.1754114 C79.602383,46.7475737 77.2510641,53.1393795 72.9814107,58.1732069 L72.3151875,58.9587704 L71.7950723,58.0707316 C70.0517276,55.0921969 67.7144855,52.579985 64.8483909,50.6040203 C63.1946041,49.4635306 61.3971363,48.5381184 59.5052566,47.8528601 L58.4181842,47.459355 L59.245563,46.6559487 C61.417038,44.5473689 62.6128419,41.7323124 62.6128419,38.7289425 L62.6128419,36.3780388 C62.6128419,30.2620723 57.6046395,25.2863544 51.4484459,25.2863544 C45.292495,25.2863544 40.2840498,30.2620723 40.2840498,36.3780388 L40.2840498,38.7289425 C40.2840498,41.7325535 41.4800964,44.54761 43.6513287,46.6559487 L44.4789503,47.459355 L43.3918779,47.8528601 C41.5002409,48.5381184 39.7027731,49.4635306 38.0485008,50.6040203 C35.1671158,52.5908353 32.8213791,55.1170321 31.0765782,58.1124451 L30.5569484,59.0041007 L29.8890262,58.2158849 C26.663972,54.4081442 24.5179809,49.7820479 23.6833209,44.8371932 C23.5444941,44.0135329 22.8229343,43.4285799 22.0084188,43.4285799 C21.9154631,43.4285799 21.8212938,43.4360545 21.7266392,43.4519684 C21.2795779,43.5262328 20.8878532,43.7695212 20.6242764,44.1367444 C20.3609423,44.5039676 20.2573076,44.951001 20.3323032,45.3956232 C21.5521348,52.6212162 25.3281277,59.2348509 30.9651769,64.0186386 C36.6655719,68.8566779 43.9401468,71.5212766 51.4482032,71.5212766 C68.8459728,71.5212766 83,57.4597378 83,40.1756525 C83,22.8915672 68.8462155,8.82978723 51.4484459,8.82978723 Z" id="Fill-3" fill="#000000"></path>
                    <path d="M18.5425532,35.4085645 C10.1301019,35.4085645 3.28602208,28.2385761 3.28602208,19.4255319 C3.28602208,10.6124877 10.1301019,3.44249933 18.5425532,3.44249933 C26.9550044,3.44249933 33.7990843,10.6124877 33.7990843,19.4255319 C33.7990843,28.2385761 26.9550044,35.4085645 18.5425532,35.4085645 M18.5425532,0 C8.31809548,0 0,8.71419526 0,19.4255319 C0,30.1368686 8.31809548,38.8510638 18.5425532,38.8510638 C28.7670109,38.8510638 37.0851064,30.1368686 37.0851064,19.4255319 C37.0851064,8.71419526 28.7670109,0 18.5425532,0" id="Fill-13" fill="#000000"></path>
                    <path d="M24.7092751,14.1895733 C24.5137739,11.3385833 22.225953,9.04054323 19.3876988,8.84390657 C17.778962,8.73302668 16.2435682,9.27800495 15.0683968,10.3800399 C13.9093368,11.4668561 13.2446809,13.0034726 13.2446809,14.5954082 C13.2446809,15.3476522 13.8518648,15.9573708 14.6004444,15.9573708 C15.3487835,15.9573708 15.9559675,15.3476522 15.9559675,14.5954082 C15.9559675,13.743155 16.2979142,12.9532263 16.9185644,12.3712881 C17.5384931,11.789833 18.3488733,11.5021251 19.2015759,11.5613093 C20.6965709,11.6647006 21.90132,12.8751998 22.0044811,14.3767888 C22.1088446,15.8935967 21.1178724,17.2338181 19.649329,17.5640421 C18.4594889,17.8314583 17.628669,18.8702023 17.628669,20.0898811 L17.628669,23.3616833 C17.628669,24.1139272 18.2356124,24.7234043 18.9839516,24.7234043 C19.7327717,24.7234043 20.3397151,24.1139272 20.3394746,23.3616833 L20.3394746,20.1985869 C23.0712011,19.5357232 24.9038144,17.0248614 24.7092751,14.1895733" id="Fill-15" fill="#D0021B"></path>
                    <path d="M20.8033359,27.7604595 C20.557098,27.5142435 20.2152316,27.3723404 19.8670213,27.3723404 C19.518576,27.3723404 19.1769445,27.5142435 18.9304717,27.7604595 C18.683999,28.0069104 18.5425532,28.3485116 18.5425532,28.696926 C18.5425532,29.0465151 18.6842339,29.3881162 18.9304717,29.6345672 C19.1769445,29.8807831 19.518576,30.0212766 19.8670213,30.0212766 C20.2152316,30.0212766 20.557098,29.8807831 20.8033359,29.6345672 C21.0498086,29.3869415 21.1914894,29.0465151 21.1914894,28.696926 C21.1914894,28.3485116 21.0498086,28.0069104 20.8033359,27.7604595" id="Fill-17" fill="#DA272C"></path>
                </g>
                <g id="Group-11" transform="translate(132.000000, 1.000000)">
                    <g id="Group-3" transform="translate(5.281250, 0.091764)">
                        <mask id="mask-2" fill="white">
                            <use xlink:href="#path-1"></use>
                        </mask>
                        <g id="Clip-2"></g>
                        <path d="M1.7801875,1.05719803 C1.7801875,0.651428289 1.45803125,0.322750658 1.06071875,0.322750658 C0.663,0.322750658 0.34084375,0.651428289 0.34084375,1.05719803 L0.34084375,5.46305329 C0.34084375,5.86840855 0.663,6.19708618 1.06071875,6.19708618 C1.45803125,6.19708618 1.7801875,5.86840855 1.7801875,5.46305329 L1.7801875,1.05719803 Z" id="Fill-1" fill="#DA272C" mask="url(#mask-2)"></path>
                    </g>
                    <path d="M7.0614375,8.21482697 C7.0614375,7.80905724 6.73928125,7.48079408 6.34196875,7.48079408 C5.94425,7.48079408 5.62209375,7.80905724 5.62209375,8.21482697 L5.62209375,12.6206822 C5.62209375,13.0260375 5.94425,13.3547151 6.34196875,13.3547151 C6.73928125,13.3547151 7.0614375,13.0260375 7.0614375,12.6206822 L7.0614375,8.21482697 Z" id="Fill-4" fill="#DA272C"></path>
                    <g id="Group-8" transform="translate(6.906250, 5.894396)">
                        <mask id="mask-4" fill="white">
                            <use xlink:href="#path-3"></use>
                        </mask>
                        <g id="Clip-7"></g>
                        <path d="M5.05752812,0.256144737 L0.739090625,0.256144737 C0.341778125,0.256144737 0.019621875,0.584822368 0.019621875,0.990177632 C0.019621875,1.39594737 0.341778125,1.724625 0.739090625,1.724625 L5.05752812,1.724625 C5.45524687,1.724625 5.77740312,1.39594737 5.77740312,0.990177632 C5.77740312,0.584822368 5.45524687,0.256144737 5.05752812,0.256144737" id="Fill-6" fill="#DA272C" mask="url(#mask-4)"></path>
                    </g>
                    <path d="M0.7197125,7.61902105 L5.03815,7.61902105 C5.4354625,7.61902105 5.75761875,7.29034342 5.75761875,6.88498816 C5.75761875,6.47921842 5.4354625,6.15054079 5.03815,6.15054079 L0.7197125,6.15054079 C0.32199375,6.15054079 0.00024375,6.47921842 0.00024375,6.88498816 C0.00024375,7.29034342 0.32199375,7.61902105 0.7197125,7.61902105" id="Fill-9" fill="#DA272C"></path>
                </g>
                <g id="Group-11-Copy-3" transform="translate(17.000000, 66.000000)">
                    <g id="Group-3" transform="translate(5.281250, 0.091764)">
                        <mask id="mask-6" fill="white">
                            <use xlink:href="#path-5"></use>
                        </mask>
                        <g id="Clip-2"></g>
                        <path d="M1.7801875,1.05719803 C1.7801875,0.651428289 1.45803125,0.322750658 1.06071875,0.322750658 C0.663,0.322750658 0.34084375,0.651428289 0.34084375,1.05719803 L0.34084375,5.46305329 C0.34084375,5.86840855 0.663,6.19708618 1.06071875,6.19708618 C1.45803125,6.19708618 1.7801875,5.86840855 1.7801875,5.46305329 L1.7801875,1.05719803 Z" id="Fill-1" fill="#DA272C" mask="url(#mask-6)"></path>
                    </g>
                    <path d="M7.0614375,8.21482697 C7.0614375,7.80905724 6.73928125,7.48079408 6.34196875,7.48079408 C5.94425,7.48079408 5.62209375,7.80905724 5.62209375,8.21482697 L5.62209375,12.6206822 C5.62209375,13.0260375 5.94425,13.3547151 6.34196875,13.3547151 C6.73928125,13.3547151 7.0614375,13.0260375 7.0614375,12.6206822 L7.0614375,8.21482697 Z" id="Fill-4" fill="#DA272C"></path>
                    <g id="Group-8" transform="translate(6.906250, 5.894396)">
                        <mask id="mask-8" fill="white">
                            <use xlink:href="#path-7"></use>
                        </mask>
                        <g id="Clip-7"></g>
                        <path d="M5.05752812,0.256144737 L0.739090625,0.256144737 C0.341778125,0.256144737 0.019621875,0.584822368 0.019621875,0.990177632 C0.019621875,1.39594737 0.341778125,1.724625 0.739090625,1.724625 L5.05752812,1.724625 C5.45524687,1.724625 5.77740312,1.39594737 5.77740312,0.990177632 C5.77740312,0.584822368 5.45524687,0.256144737 5.05752812,0.256144737" id="Fill-6" fill="#DA272C" mask="url(#mask-8)"></path>
                    </g>
                    <path d="M0.7197125,7.61902105 L5.03815,7.61902105 C5.4354625,7.61902105 5.75761875,7.29034342 5.75761875,6.88498816 C5.75761875,6.47921842 5.4354625,6.15054079 5.03815,6.15054079 L0.7197125,6.15054079 C0.32199375,6.15054079 0.00024375,6.47921842 0.00024375,6.88498816 C0.00024375,7.29034342 0.32199375,7.61902105 0.7197125,7.61902105" id="Fill-9" fill="#DA272C"></path>
                </g>
                <g id="Group-11-Copy" transform="translate(0.000000, 9.000000)">
                    <g id="Group-3" transform="translate(7.718750, 0.131092)">
                        <mask id="mask-10" fill="white">
                            <use xlink:href="#path-9"></use>
                        </mask>
                        <g id="Clip-2"></g>
                        <path d="M2.6018125,1.51028289 C2.6018125,0.930611842 2.13096875,0.461072368 1.55028125,0.461072368 C0.969,0.461072368 0.49815625,0.930611842 0.49815625,1.51028289 L0.49815625,7.80436184 C0.49815625,8.38344079 0.969,8.85298026 1.55028125,8.85298026 C2.13096875,8.85298026 2.6018125,8.38344079 2.6018125,7.80436184 L2.6018125,1.51028289 Z" id="Fill-1" fill="#DA272C" mask="url(#mask-10)"></path>
                    </g>
                    <path d="M10.3205625,11.7354671 C10.3205625,11.1557961 9.84971875,10.6868487 9.26903125,10.6868487 C8.68775,10.6868487 8.21690625,11.1557961 8.21690625,11.7354671 L8.21690625,18.0295461 C8.21690625,18.608625 8.68775,19.0781645 9.26903125,19.0781645 C9.84971875,19.0781645 10.3205625,18.608625 10.3205625,18.0295461 L10.3205625,11.7354671 Z" id="Fill-4" fill="#DA272C"></path>
                    <g id="Group-8" transform="translate(10.093750, 8.420566)">
                        <mask id="mask-12" fill="white">
                            <use xlink:href="#path-11"></use>
                        </mask>
                        <g id="Clip-7"></g>
                        <path d="M7.39177187,0.365921053 L1.08020937,0.365921053 C0.499521875,0.365921053 0.028678125,0.835460526 0.028678125,1.41453947 C0.028678125,1.99421053 0.499521875,2.46375 1.08020937,2.46375 L7.39177187,2.46375 C7.97305312,2.46375 8.44389687,1.99421053 8.44389687,1.41453947 C8.44389687,0.835460526 7.97305312,0.365921053 7.39177187,0.365921053" id="Fill-6" fill="#DA272C" mask="url(#mask-12)"></path>
                    </g>
                    <path d="M1.0518875,10.8843158 L7.36345,10.8843158 C7.9441375,10.8843158 8.41498125,10.4147763 8.41498125,9.83569737 C8.41498125,9.25602632 7.9441375,8.78648684 7.36345,8.78648684 L1.0518875,8.78648684 C0.47060625,8.78648684 0.00035625,9.25602632 0.00035625,9.83569737 C0.00035625,10.4147763 0.47060625,10.8843158 1.0518875,10.8843158" id="Fill-9" fill="#DA272C"></path>
                </g>
                <g id="Group-11-Copy-2" transform="translate(128.000000, 66.000000)">
                    <g id="Group-3" transform="translate(4.062500, 0.072101)">
                        <mask id="mask-14" fill="white">
                            <use xlink:href="#path-13"></use>
                        </mask>
                        <g id="Clip-2"></g>
                        <path d="M1.369375,0.830655592 C1.369375,0.511836513 1.1215625,0.253589803 0.8159375,0.253589803 C0.51,0.253589803 0.2621875,0.511836513 0.2621875,0.830655592 L0.2621875,4.29239901 C0.2621875,4.61089243 0.51,4.86913914 0.8159375,4.86913914 C1.1215625,4.86913914 1.369375,4.61089243 1.369375,4.29239901 L1.369375,0.830655592 Z" id="Fill-1" fill="#DA272C" mask="url(#mask-14)"></path>
                    </g>
                    <path d="M5.431875,6.45450691 C5.431875,6.13568783 5.1840625,5.87776678 4.8784375,5.87776678 C4.5725,5.87776678 4.3246875,6.13568783 4.3246875,6.45450691 L4.3246875,9.91625033 C4.3246875,10.2347437 4.5725,10.4929905 4.8784375,10.4929905 C5.1840625,10.4929905 5.431875,10.2347437 5.431875,9.91625033 L5.431875,6.45450691 Z" id="Fill-4" fill="#DA272C"></path>
                    <g id="Group-8" transform="translate(5.312500, 4.631311)">
                        <mask id="mask-16" fill="white">
                            <use xlink:href="#path-15"></use>
                        </mask>
                        <g id="Clip-7"></g>
                        <path d="M3.89040625,0.201256579 L0.56853125,0.201256579 C0.26290625,0.201256579 0.01509375,0.459503289 0.01509375,0.777996711 C0.01509375,1.09681579 0.26290625,1.3550625 0.56853125,1.3550625 L3.89040625,1.3550625 C4.19634375,1.3550625 4.44415625,1.09681579 4.44415625,0.777996711 C4.44415625,0.459503289 4.19634375,0.201256579 3.89040625,0.201256579" id="Fill-6" fill="#DA272C" mask="url(#mask-16)"></path>
                    </g>
                    <path d="M0.553625,5.98637368 L3.8755,5.98637368 C4.181125,5.98637368 4.4289375,5.72812697 4.4289375,5.40963355 C4.4289375,5.09081447 4.181125,4.83256776 3.8755,4.83256776 L0.553625,4.83256776 C0.2476875,4.83256776 0.0001875,5.09081447 0.0001875,5.40963355 C0.0001875,5.72812697 0.2476875,5.98637368 0.553625,5.98637368" id="Fill-9" fill="#DA272C"></path>
                </g>
            </g>
        </g>
    </g>
</svg>