<?xml version="1.0" encoding="UTF-8"?>
<svg width="96px" height="86px" viewBox="0 0 96 86" version="1.1" xmlns="http://www.w3.org/2000/svg" xmlns:xlink="http://www.w3.org/1999/xlink">
    <!-- Generator: sketchtool 51.2 (57519) - http://www.bohemiancoding.com/sketch -->
    <title>8417D92A-F532-4E86-B0DE-5D864566057D</title>
    <desc>Created with sketchtool.</desc>
    <defs>
        <polygon id="path-1" points="0 3.66524353e-05 60.8891025 3.66524353e-05 60.8891025 61.8204409 0 61.8204409"></polygon>
        <polygon id="path-3" points="0.28840625 0.285398437 1.5063125 0.285398437 1.5063125 5.47778154 0.28840625 5.47778154"></polygon>
        <polygon id="path-5" points="0.016603125 0.226413651 4.88846875 0.226413651 4.88846875 1.52444531 0.016603125 1.52444531"></polygon>
        <polygon id="path-7" points="0.20975 0.2075625 1.0955 0.2075625 1.0955 3.98384112 0.20975 3.98384112"></polygon>
        <polygon id="path-9" points="0.012075 0.164664474 3.55525 0.164664474 3.55525 1.1086875 0.012075 1.1086875"></polygon>
        <polygon id="path-11" points="0.314625 0.2998125 1.64325 0.2998125 1.64325 5.75443717 0.314625 5.75443717"></polygon>
        <polygon id="path-13" points="0.0181125 0.237848684 5.332875 0.237848684 5.332875 1.6014375 0.0181125 1.6014375"></polygon>
        <polygon id="path-15" points="0.4195 0.369 2.191 0.369 2.191 7.08238421 0.4195 7.08238421"></polygon>
        <polygon id="path-17" points="0.02415 0.292736842 7.1105 0.292736842 7.1105 1.971 0.02415 1.971"></polygon>
        <polygon id="path-19" points="0.18353125 0.1614375 0.9585625 0.1614375 0.9585625 3.09854309 0.18353125 3.09854309"></polygon>
        <polygon id="path-21" points="0.010565625 0.128072368 3.11084375 0.128072368 3.11084375 0.8623125 0.010565625 0.8623125"></polygon>
    </defs>
    <g id="FLUJO-" stroke="none" stroke-width="1" fill="none" fill-rule="evenodd">
        <g id="1.-Home_Campaña-navidad" transform="translate(-669.000000, -3124.000000)">
            <g id="Group-73" transform="translate(648.000000, 3124.000000)">
                <g id="Group-16" transform="translate(40.000000, 18.000000)">
                    <g id="Group-3" transform="translate(3.469565, 1.486957)" fill="#DA272C">
                        <path d="M60.8527066,36.4599856 C61.0778748,35.2205224 60.2236287,34.1452621 59.3190466,33.0067153 C58.5513002,32.0397019 58.0864252,31.4177101 58.0864252,30.910196 C58.0864252,30.4032928 58.5513002,29.7811788 59.3168474,28.8169754 C60.223873,27.6748855 61.0778748,26.5995031 60.8527066,25.3604064 C60.6238733,24.0995627 59.428393,23.4043881 58.1626622,22.6684072 C57.1428693,22.0750043 56.5108591,21.6905203 56.3528871,21.2673068 C56.1940599,20.8405503 56.4292464,20.1329139 56.8261923,19.0136707 C57.3054839,17.6610737 57.7581415,16.3836141 57.1288192,15.3090869 C56.4982751,14.2332158 55.1578956,14.0071924 53.7385911,13.7679742 C52.5857498,13.5740828 51.8656517,13.4382244 51.5818396,13.1012664 C51.2986385,12.7655301 51.2872762,12.034314 51.2924076,10.8692553 C51.2988828,9.42734845 51.3051138,8.07096399 50.360214,7.27365135 C49.409572,6.47194042 48.0755455,6.70541643 46.6633272,6.95269819 C45.5018115,7.15563051 44.7725502,7.26827566 44.3934419,7.04640625 C44.0154331,6.82490337 43.7545899,6.13754803 43.3602097,5.0344319 C42.8717549,3.66692954 42.4120112,2.37957384 41.2287484,1.93888939 C40.0575809,1.50284759 38.866499,2.16540144 37.6050443,2.86644036 C36.5499429,3.45275715 35.876882,3.8022992 35.4102965,3.7179986 C34.9471319,3.63406453 34.4415726,3.07902448 33.6553779,2.18042894 C32.6738257,1.05910877 31.7471299,-2.44349569e-05 30.4443802,-2.44349569e-05 C29.1427301,-2.44349569e-05 28.21579,1.0584979 27.2344821,2.17920719 C26.4475543,3.07878013 25.9422394,3.63357583 25.4780974,3.71763208 C25.0144441,3.8018105 24.3402836,3.45275715 23.2862818,2.86729558 C22.021284,2.16479057 20.8300799,1.50296976 19.6605007,1.93840069 C18.4769936,2.37920732 18.0172498,3.66644084 17.5302612,5.02942274 C17.1355144,6.13534889 16.8743047,6.82453684 16.4953186,7.04603973 C16.1168211,7.26790914 15.387682,7.15538616 14.229465,6.95294254 C12.8134593,6.70504991 11.4796771,6.47157389 10.5285464,7.27377353 C9.58376883,8.07010877 9.58987757,9.4266154 9.596475,10.86278 C9.60221722,12.0306488 9.59122149,12.7635753 9.30692077,13.1012664 C9.02323092,13.4373692 8.30435448,13.5733498 7.15468976,13.7672411 C5.73184223,14.0065815 4.39072962,14.2322384 3.75994121,15.3090869 C3.13098542,16.3826367 3.58364299,17.6599741 4.0628125,19.0122046 C4.45988055,20.1320587 4.69506701,20.8394507 4.53611761,21.2664516 C4.37851214,21.6902759 3.74576893,22.0750043 2.72646471,22.6676742 C1.45963437,23.4046325 0.265009325,24.0995627 0.0366646528,25.3599177 C-0.188503475,26.5996253 0.665253918,27.6747634 1.56934732,28.8130658 C2.33721584,29.7794684 2.80282395,30.4021933 2.80282395,30.9097073 C2.80282395,31.4177101 2.33721584,32.0404349 1.57020255,33.0057379 C0.665620443,34.1442847 -0.188747824,35.2196672 0.036542478,36.4599856 C0.265009325,37.7203407 1.45963437,38.415393 2.72438773,39.1510074 C3.74576893,39.7450212 4.37851214,40.1297496 4.53611761,40.5535739 C4.69506701,40.9804526 4.45988055,41.6879668 4.06317902,42.8068435 C3.58388734,44.1594405 3.13110759,45.4369 3.76006338,46.5114273 C4.39109614,47.5882758 5.73208657,47.8139326 7.15163539,48.0527843 C8.30288839,48.2463092 9.02286439,48.3820454 9.30692077,48.7192478 C9.59122149,49.0562059 9.60221722,49.7892546 9.596475,50.9572455 C9.58987757,52.3931657 9.58376883,53.7495502 10.5286686,54.5467407 C11.4789441,55.3482072 12.8124819,55.1148534 14.2243337,54.8684269 C15.385605,54.6648837 16.116088,54.5513833 16.4956851,54.7741079 C16.8741826,54.9960995 17.1355144,55.684921 17.5302612,56.7906027 C18.0179829,58.1549286 18.4777266,59.4411847 19.6606229,59.8815026 C20.8311795,60.3176666 22.0225058,59.6551127 23.2837161,58.9539517 C24.2348468,58.4257901 24.8757757,58.0898094 25.3330759,58.0898094 C25.3839006,58.0898094 25.4321597,58.0939633 25.4784639,58.1025156 C25.9428503,58.1864497 26.4477987,58.7414897 27.2335047,59.6400852 C28.21579,60.7618941 29.1427301,61.8204164 30.4443802,61.8204164 C31.7471299,61.8204164 32.6738257,60.7614054 33.6552557,59.6400852 C34.44255,58.741001 34.9476206,58.1868162 35.410663,58.1027599 C35.8752937,58.0190702 36.5498207,58.3680014 37.6050443,58.9544404 C38.867232,59.6554793 40.0588027,60.3175444 41.2287484,59.8819913 C42.4120112,59.4413069 42.8717549,58.1539512 43.3586214,56.7910914 C43.7545899,55.6833327 44.0154331,54.9960995 44.3931975,54.7745966 C44.7726724,54.5524829 45.5019337,54.6654946 46.6605172,54.8676938 C48.0756677,55.1153421 49.4096942,55.3486959 50.3603362,54.5472294 C51.3051138,53.7500389 51.2988828,52.3936544 51.2924076,50.957612 C51.2872762,49.7866889 51.2986385,49.0557172 51.5818396,48.7192478 C51.8654073,48.3832671 52.5836729,48.2472866 53.732238,48.0536396 C55.1569182,47.8138105 56.4979086,47.5881536 57.1288192,46.5113051 C57.7581415,45.4372666 57.3054839,44.1596848 56.8260701,42.80721 C56.4292464,41.6879668 56.1940599,40.9803304 56.352765,40.5539404 C56.5111035,40.1293831 57.1436024,39.744899 58.1622957,39.1527178 C59.4281486,38.4167369 60.6237511,37.7214402 60.8527066,36.4599856" id="Fill-1"></path>
                    </g>
                    <g id="Group-14">
                        <path d="M46.2594418,16.1098327 L46.2446586,16.0929726 C46.0811888,15.8954159 45.8405044,15.7820377 45.5845483,15.7820377 C45.1129536,15.7820377 44.7293248,16.1656665 44.7293248,16.6372612 C44.7293248,16.8392161 44.8010414,17.0351845 44.9316462,17.1891247 L44.9450854,17.2050074 C44.958769,17.2205236 44.9733078,17.235429 44.988091,17.2497234 L45.0009193,17.2627961 C48.4813124,20.9731221 50.3979904,25.819918 50.3979904,30.9102082 C50.3979904,36.2403275 48.3226074,41.251082 44.5541261,45.019441 C40.7858893,48.7882888 35.7750127,50.863794 30.4444046,50.863794 C28.1366451,50.863794 25.8748234,50.4732012 23.7219815,49.702767 L23.704877,49.6961696 C23.6786094,49.685296 23.6513645,49.6758886 23.6238751,49.6672142 L23.6160559,49.6648928 C23.5373754,49.6418018 23.4561292,49.6301952 23.3745164,49.6301952 C22.9029217,49.6301952 22.5192929,50.013824 22.5192929,50.4854187 C22.5192929,50.8608618 22.7704843,51.1980642 23.130289,51.3053337 L23.1489817,51.3114424 C25.485941,52.1471179 27.9404324,52.5709423 30.4444046,52.5709423 C36.2298694,52.5709423 41.6693351,50.3177949 45.7606021,46.2264057 C49.8518691,42.1351387 52.1051387,36.6957951 52.1051387,30.9102082 C52.1051387,25.3923063 50.0290226,20.1361027 46.2594418,16.1098327" id="Fill-1" fill="#000000"></path>
                        <path d="M41.8973011,12.6808874 C41.4258286,12.6808874 41.0420776,13.0645162 41.0420776,13.5361109 C41.0420776,14.0077056 41.4258286,14.3913344 41.8973011,14.3913344 C42.3687736,14.3913344 42.7525245,14.0077056 42.7525245,13.5361109 C42.7525245,13.0645162 42.3687736,12.6808874 41.8973011,12.6808874" id="Fill-3" fill="#000000"></path>
                        <path d="M37.8267549,10.5398476 L37.8073291,10.5333723 C35.4497223,9.68144757 32.9725064,9.24943753 30.4443436,9.24943753 C24.6588788,9.24943753 19.2195352,11.5027071 15.1281461,15.5939741 C11.0368791,19.6853633 8.78360951,25.1247068 8.78360951,30.9101716 C8.78360951,36.4156117 10.8515399,41.6631409 14.6062154,45.6862343 L14.6194103,45.7011397 C14.7830023,45.8967415 15.0224649,46.0087758 15.2765884,46.0087758 C15.7481831,46.0087758 16.1318119,45.6251469 16.1318119,45.1535523 C16.1318119,44.9522082 16.0604618,44.7568508 15.9310787,44.6036436 L15.9127525,44.5821408 C15.9011459,44.5690681 15.8889284,44.5567285 15.8764666,44.5446332 L15.8630274,44.5309496 C12.3986392,40.8234336 10.4907578,35.9861673 10.4907578,30.9101716 C10.4907578,25.5799301 12.566263,20.5691756 16.3351108,16.8009388 C20.1033476,13.032091 25.1141021,10.9565858 30.4443436,10.9565858 C32.7519809,10.9565858 35.0130696,11.3470564 37.1657893,12.1172462 L37.1766629,12.1172462 L37.2458138,12.146446 C37.3513728,12.1914063 37.464018,12.2141308 37.5805727,12.2141308 C38.0521674,12.2141308 38.4357962,11.830502 38.4357962,11.3589074 C38.4357962,10.9840751 38.1854601,10.6472392 37.8267549,10.5398476" id="Fill-5" fill="#000000"></path>
                        <g id="Group-9">
                            <mask id="mask-2" fill="white">
                                <use xlink:href="#path-1"></use>
                            </mask>
                            <g id="Clip-8"></g>
                            <path d="M59.1815755,36.1623067 L59.1814533,36.1626732 C59.0978858,36.6204622 58.4498707,37.0172859 57.3114461,37.679351 C56.194402,38.3289543 55.1411332,38.9415387 54.7617805,39.9610873 C54.3769299,40.9945638 54.7860933,42.1496042 55.2194472,43.3724516 C55.6966619,44.7174738 55.8703945,45.3002475 55.6642856,45.6524774 C55.4571994,46.0062956 54.8639186,46.1375113 53.4581755,46.3736752 C52.1832817,46.5885806 50.9818148,46.7910243 50.2840747,47.6190028 C49.5830357,48.4500357 49.5886558,49.6710505 49.5947645,50.9637818 C49.6014841,52.3803985 49.5731396,52.9836976 49.260983,53.248206 C48.9538356,53.5069722 48.355057,53.4330564 46.9590879,53.188829 C45.6837053,52.9652492 44.4816276,52.7551085 43.5339178,53.3100264 C42.5941494,53.8607903 42.1853525,55.0049572 41.7524873,56.216198 C41.3030063,57.4743539 41.0494936,58.1372743 40.6354432,58.2907258 C40.2191937,58.4457656 39.5935367,58.1156494 38.4310436,57.4694669 C37.2861437,56.8335472 36.205019,56.2326916 35.1124099,56.4317143 C34.0348283,56.6270718 33.2296965,57.5472923 32.3771609,58.5216362 C31.5130186,59.5090528 30.9577342,60.113818 30.4448445,60.113818 C29.931466,60.113818 29.3761816,59.5090528 28.5126503,58.5223692 C27.6593816,57.5470479 26.8542497,56.6269496 25.776546,56.4317143 C24.684059,56.2326916 23.6034231,56.833425 22.4595006,57.4688561 C21.2955414,58.1156494 20.6692734,58.4457656 20.2532683,58.2906037 C19.8397067,58.1372743 19.586194,57.4743539 19.1373238,56.2176641 C18.7047029,55.0056902 18.2960283,53.8610347 17.3549159,53.3100264 C16.4087944,52.7555972 15.2075719,52.9653713 13.9357324,53.1878516 C12.5356094,53.4328121 11.9359755,53.50685 11.6295612,53.248939 C11.3161828,52.9839419 11.2877161,52.3805206 11.2944357,50.9637818 C11.3005445,49.6710505 11.3061645,48.4500357 10.6052478,47.619125 C9.90726322,46.7909021 8.70555204,46.5884585 7.43310166,46.3740417 C6.02515945,46.1376335 5.43212304,46.0062956 5.22491461,45.6523553 C5.01868357,45.3002475 5.19253829,44.7174738 5.669753,43.372696 C6.10310696,42.1496042 6.51227031,40.9945638 6.12741974,39.9612095 C5.74745616,38.9408057 4.69382082,38.3283435 3.57836504,37.6799619 C2.43688603,37.0156976 1.79033707,36.6196069 1.70762474,36.1621845 C1.62442372,35.702563 2.08367873,35.0969426 2.90249413,34.0663983 C3.73035047,33.024003 4.51043647,32.0418399 4.51043647,30.9102571 C4.51043647,29.7781855 3.72949525,28.7954116 2.90286066,27.7550933 C2.08282351,26.7222277 1.62442372,26.1174625 1.70774692,25.658574 C1.79058142,25.2001742 2.43908518,24.8032283 3.57836504,24.1409188 C4.69418735,23.4918042 5.74757834,22.8789755 6.12741974,21.8593047 C6.51227031,20.8263169 6.10310696,19.6712765 5.669753,18.4485513 C5.19241612,17.1030404 5.0185614,16.5201445 5.22515896,16.1682811 C5.43126782,15.8154403 6.0229603,15.6839802 7.42528248,15.4476942 C8.70384159,15.2326666 9.90665235,15.0303451 10.6052478,14.2017558 C11.3061645,13.3704785 11.3005445,12.1495859 11.2944357,10.8570989 C11.2877161,9.43974919 11.3161828,8.83632793 11.629439,8.57218605 C11.9341429,8.31427508 12.5319441,8.38770212 13.9254697,8.63082994 C15.2056171,8.85502067 16.4075726,9.06540565 17.3547937,8.51036561 C18.2948065,7.96009038 18.7036033,6.81616787 19.1364686,5.60504923 C19.5860718,4.34652678 19.8393401,3.68397292 20.2532683,3.52978835 C20.6692734,3.37487072 21.2955414,3.70462046 22.4581566,4.35092507 C23.6025678,4.986967 24.6829595,5.58757824 25.7763016,5.38928856 C26.8538832,5.19356456 27.6592594,4.27346626 28.5119172,3.29948888 C29.3761816,2.3119501 29.931466,1.70706274 30.4448445,1.70706274 C30.9577342,1.70706274 31.5130186,2.3119501 32.3766722,3.29863366 C33.2306739,4.27419931 34.0354392,5.19356456 35.1124099,5.38928856 C36.205019,5.58745607 37.2858993,4.98708917 38.4304327,4.35116942 C39.5939032,3.70474264 40.2201711,3.37535942 40.6359319,3.52978835 C41.0498601,3.68397292 41.3032506,4.34652678 41.7518764,5.60272791 C42.1846195,6.81470177 42.5932942,7.9594795 43.5342843,8.51036561 C44.4812611,9.06540565 45.6833388,8.8548985 46.9559114,8.63217387 C48.357134,8.3878243 48.9545686,8.31451943 49.2601278,8.57218605 C49.5730174,8.83657228 49.6014841,9.43999354 49.5947645,10.8570989 C49.5886558,12.1495859 49.5830357,13.3704785 50.2840747,14.2018779 C50.9826701,15.0304673 52.1851143,15.2326666 53.4582977,15.446839 C54.8658734,15.6838581 55.4578102,15.8153181 55.66453,16.168892 C55.8705167,16.5201445 55.6967841,17.1030404 55.2194472,18.4483069 C54.7860933,19.6712765 54.3769299,20.8263169 54.7617805,21.8591825 C55.141011,22.8783646 56.1934246,23.490949 57.3076587,24.1393305 C58.4492598,24.8026174 59.0977636,25.199319 59.1814533,25.6582075 C59.2647765,26.1174625 58.8063767,26.7222277 57.9889053,27.7517946 C57.1595828,28.7954116 56.3788859,29.7781855 56.3788859,30.9102571 C56.3788859,32.0418399 57.1587276,33.024003 57.9846291,34.0635883 C58.8056437,35.0969426 59.2648987,35.702563 59.1815755,36.1623067 M60.8526822,36.4600467 C61.0778503,35.2205835 60.2234821,34.145201 59.3190221,33.0067764 C58.5512758,32.039763 58.0864007,31.417649 58.0864007,30.9102571 C58.0864007,30.4032317 58.5512758,29.7812399 59.3167008,28.8169143 C60.2237264,27.6748245 61.0778503,26.5995642 60.8526822,25.3604675 C60.6238488,24.0995016 59.4283686,23.4044492 58.1626378,22.6684683 C57.1428449,22.0749432 56.5108347,21.6904592 56.3528627,21.2672457 C56.1940355,20.8406114 56.429222,20.132975 56.8261678,19.0136096 C57.3054595,17.6611348 57.7581171,16.3835531 57.1286726,15.309148 C56.4982507,14.2331547 55.157749,14.0072535 53.7385667,13.7680353 C52.5857254,13.5740217 51.8656272,13.4381634 51.5818152,13.1012053 C51.2986141,12.765469 51.2872518,12.0343751 51.2923831,10.8693163 C51.2987362,9.42728736 51.3049671,8.07090291 50.3601895,7.27371244 C49.4095475,6.4720015 48.0755211,6.70547752 46.6633027,6.95275928 C45.5016649,7.15556942 44.7725258,7.26821457 44.3934174,7.04646734 C44.0152865,6.82496446 43.7544433,6.13760912 43.3601853,5.03449299 C42.8717305,3.66686846 42.4119868,2.37963493 41.228724,1.93895048 C40.0575565,1.50290867 38.8664745,2.16534036 37.6050199,2.86650144 C36.5499184,3.45281823 35.8768576,3.80236029 35.4102721,3.71805969 C34.9471074,3.63400344 34.4415482,3.07896339 33.6552313,2.18036785 C32.6738012,1.05904768 31.7469833,3.66524353e-05 30.4443558,3.66524353e-05 C29.1427056,3.66524353e-05 28.2157655,1.05855898 27.2344577,2.17926828 C26.4475299,3.07871904 25.942215,3.63363691 25.478073,3.71757099 C25.0144197,3.80174942 24.3403814,3.45269606 23.2861352,2.86735667 C22.0212596,2.16472948 20.8300555,1.50303085 19.6604763,1.93846178 C18.4769691,2.37914623 18.0171032,3.66650193 17.5302367,5.02936165 C17.13549,6.1352878 16.8742803,6.82447576 16.4951719,7.04610082 C16.1167966,7.26784805 15.3876575,7.15532507 14.2293184,6.95288146 C12.8134348,6.70511099 11.4796527,6.47163498 10.528522,7.27371244 C9.58374439,8.07004768 9.58985313,9.42655431 9.59645057,10.8628411 C9.60207061,12.0305877 9.59119705,12.7636364 9.30689633,13.1012053 C9.02320648,13.4374303 8.30420787,13.5732887 7.15466533,13.7671801 C5.73181779,14.0066426 4.39082736,14.2321773 3.76003895,15.309148 C3.13096098,16.3826978 3.58361856,17.6600352 4.06278806,19.0122657 C4.45985611,20.1319976 4.6949204,20.8395118 4.53609318,21.2665127 C4.3784877,21.6902148 3.7457445,22.0749432 2.72644027,22.6676131 C1.45960993,23.4046936 0.26498489,24.0996237 0.036518043,25.3598566 C-0.18852791,26.5995642 0.665229483,27.6748245 1.56920071,28.8130047 C2.33719141,29.7794073 2.80279951,30.4021322 2.80279951,30.9097684 C2.80279951,31.4177711 2.33719141,32.040496 1.57017811,33.0056768 C0.665596008,34.1442236 -0.188772259,35.2196061 0.036518043,36.4600467 C0.26498489,37.7204017 1.45960993,38.4153319 2.7243633,39.1510685 C3.7457445,39.7449601 4.3784877,40.1298107 4.53609318,40.5535128 C4.6949204,40.9805137 4.45985611,41.6880279 4.06315459,42.8069045 C3.58386291,44.1593794 3.13108316,45.436839 3.76003895,46.5113662 C4.39107171,47.5882147 5.73206214,47.8138716 7.15161096,48.0527233 C8.30286395,48.2462481 9.02296213,48.3821065 9.30689633,48.7191867 C9.59119705,49.0561448 9.60207061,49.7891935 9.59645057,50.9573066 C9.58985313,52.3932268 9.58374439,53.7494891 10.528522,54.5468017 C11.4789196,55.3481462 12.8124574,55.1149145 14.2241871,54.8683658 C15.3854584,54.6648226 16.1160636,54.5514444 16.4956606,54.774169 C16.8741581,54.9960384 17.13549,55.684982 17.5302367,56.7906638 C18.0179585,58.1549897 18.4777022,59.4411236 19.6605984,59.8815637 C20.831155,60.3177277 22.0224814,59.6550517 23.2836917,58.9540127 C24.2348224,58.4258512 24.8757513,58.0898705 25.3330515,58.0898705 C25.383754,58.0898705 25.4321352,58.0940244 25.4784395,58.1024545 C25.9427037,58.1865107 26.4478964,58.7415508 27.2334803,59.6401463 C28.2157655,60.7619552 29.1427056,61.8204775 30.4443558,61.8204775 C31.7469833,61.8204775 32.6738012,60.7614665 33.6551091,59.6401463 C34.4425256,58.7410621 34.9475961,58.1868773 35.4106386,58.102821 C35.8751471,58.0190091 36.5497963,58.3680625 37.6050199,58.9545014 C38.8672076,59.6555404 40.0586561,60.3176055 41.228724,59.8820524 C42.4119868,59.4412458 42.8717305,58.1540123 43.3584748,56.7911525 C43.7544433,55.6832716 44.0152865,54.9960384 44.3931731,54.7746577 C44.7725258,54.5524218 45.5019092,54.6654335 46.6604927,54.8677549 C48.0756432,55.1154032 49.4096697,55.348757 50.3603117,54.5471683 C51.3049671,53.7499778 51.2987362,52.3937155 51.2923831,50.9576731 C51.2872518,49.78675 51.2986141,49.0556561 51.5818152,48.7191867 C51.8653829,48.3832061 52.5836484,48.2473477 53.7320914,48.0535785 C55.1568938,47.8137494 56.4978842,47.5882147 57.1286726,46.511244 C57.7581171,45.4373277 57.3054595,44.1597459 56.8260457,42.8072711 C56.429222,41.6880279 56.1940355,40.9803915 56.3527405,40.5538793 C56.5110791,40.1294441 57.1434557,39.7448379 58.1622713,39.1527789 C59.4281242,38.4166758 60.6237267,37.7215013 60.8526822,36.4600467" id="Fill-7" fill="#000000" mask="url(#mask-2)"></path>
                        </g>
                        <path d="M28.581508,30.7271415 L24.5578036,30.7271415 C24.0334294,30.7271415 23.6069173,31.1537759 23.6069173,31.6780279 C23.6069173,32.2022799 24.0334294,32.628792 24.5578036,32.628792 L25.7648905,32.628792 C26.4239013,32.628792 26.9601264,33.1650172 26.9601264,33.824028 L26.9601264,35.4166984 C26.9601264,35.8330701 26.7374018,36.2264729 26.378941,36.4434553 C25.7466864,36.8258624 24.8632406,37.019876 23.7530383,37.019876 C22.4001969,37.019876 21.3276245,36.5144389 20.565376,35.5173705 C19.8108245,34.5304426 19.4281731,33.1310526 19.4281731,31.3578078 L19.4281731,30.1126024 C19.4507755,28.3309275 19.802761,26.9575607 20.4742336,26.0307428 C21.1548693,25.0912187 22.1602456,24.6147371 23.4623845,24.6147371 C25.1323916,24.6147371 26.2385621,25.3183416 26.7501079,26.706125 C26.9399676,27.2214583 27.40863,27.5543846 27.9438778,27.5543846 C28.3526746,27.5543846 28.7177328,27.3598823 28.9452223,27.0209694 C29.1760105,26.6770474 29.2177942,26.258721 29.0600666,25.8733817 C28.7358147,25.0816891 28.2587222,24.4166917 27.642106,23.8970824 C26.6039869,23.0224331 25.1790624,22.5790608 23.4065506,22.5790608 C21.3160179,22.5790608 19.7340988,23.2432029 18.570384,24.6093614 C17.417787,25.9623249 16.8335472,27.8742381 16.8335472,30.2919549 L16.8335472,31.569781 C16.8554165,33.0757074 17.1502243,34.4120552 17.7094183,35.5414389 C18.2660466,36.6656913 19.0680019,37.5416845 20.0929261,38.1448614 C21.1193165,38.74926 22.3169959,39.0556744 23.6523663,39.0556744 C24.9573152,39.0556744 26.1386232,38.8590952 27.1635474,38.4710681 C28.035631,38.141074 28.7540188,37.6718006 29.2985518,37.0764429 C29.4493155,36.9117513 29.5323943,36.6898819 29.5323943,36.4520076 L29.5323943,31.6780279 C29.5323943,31.1537759 29.1058821,30.7271415 28.581508,30.7271415" id="Fill-10" fill="#FFFFFF"></path>
                        <path d="M39.2932188,29.0291564 C38.7777634,29.4439398 38.0582761,29.6542026 37.1545492,29.6542026 L35.4557089,29.6542026 C34.7965759,29.6542026 34.2604729,29.1179774 34.2604729,28.4589667 L34.2604729,26.0334307 C34.2604729,25.3744199 34.7965759,24.8383169 35.4557089,24.8383169 L37.1323134,24.8383169 C38.1383006,24.8383169 38.8630414,25.0223121 39.3477088,25.4006875 C39.8351862,25.7811397 40.0822236,26.4000772 40.0822236,27.2406397 C40.0822236,28.0063091 39.8167378,28.6080199 39.2932188,29.0291564 M39.6828342,36.1095517 C39.1631027,36.5652636 38.4365292,36.7962961 37.5235171,36.7962961 L35.4557089,36.7962961 C34.7965759,36.7962961 34.2604729,36.2601932 34.2604729,35.6011824 L34.2604729,32.6838929 C34.2604729,32.0248821 34.7965759,31.488657 35.4557089,31.488657 L37.7529613,31.488657 C39.5580938,31.5272642 40.4733051,32.437222 40.4733051,34.1927515 C40.4733051,35.0047251 40.2073306,35.6495636 39.6828342,36.1095517 M42.3481993,31.9008747 C42.1836299,31.6749735 41.9919376,31.4720412 41.7783761,31.2974534 C41.505682,31.0747288 41.3396465,30.7487665 41.3229085,30.4032562 C41.3065371,30.0688638 41.4278567,29.7552411 41.6642649,29.5199325 C41.8163725,29.3686801 41.9535748,29.2030111 42.07184,29.0276903 C42.4638988,28.4471157 42.6544915,27.8113181 42.6544915,27.0841338 C42.6544915,25.6505349 42.198413,24.6036192 41.2605994,23.8837653 C40.3254736,23.166355 38.9364685,22.8025185 37.1323134,22.8025185 L32.6277291,22.8025185 C32.1034771,22.8025185 31.676965,23.2290307 31.676965,23.7532827 L31.676965,37.8813304 C31.676965,38.4055824 32.1034771,38.8320945 32.6277291,38.8320945 L37.4897968,38.8320945 C39.2775805,38.8320945 40.6669521,38.4281847 41.6196711,37.6312386 C42.5792318,36.8283059 43.0458173,35.7072301 43.0458173,34.2039915 C43.0458173,33.3108939 42.8111196,32.5360614 42.3481993,31.9008747" id="Fill-12" fill="#FFFFFF"></path>
                    </g>
                </g>
                <g id="Group-11" transform="translate(106.000000, 18.000000)">
                    <g id="Group-3" transform="translate(4.468750, 0.081113)">
                        <mask id="mask-4" fill="white">
                            <use xlink:href="#path-3"></use>
                        </mask>
                        <g id="Clip-2"></g>
                        <path d="M1.5063125,0.934487541 C1.5063125,0.575816077 1.23371875,0.285288528 0.89753125,0.285288528 C0.561,0.285288528 0.28840625,0.575816077 0.28840625,0.934487541 L0.28840625,4.82894889 C0.28840625,5.18725399 0.561,5.47778154 0.89753125,5.47778154 C1.23371875,5.47778154 1.5063125,5.18725399 1.5063125,4.82894889 L1.5063125,0.934487541 Z" id="Fill-1" fill="#DA272C" mask="url(#mask-4)"></path>
                    </g>
                    <path d="M5.9750625,7.26132027 C5.9750625,6.90264881 5.70246875,6.61248762 5.36628125,6.61248762 C5.02975,6.61248762 4.75715625,6.90264881 4.75715625,7.26132027 L4.75715625,11.1557816 C4.75715625,11.5140867 5.02975,11.8046143 5.36628125,11.8046143 C5.70246875,11.8046143 5.9750625,11.5140867 5.9750625,11.1557816 L5.9750625,7.26132027 Z" id="Fill-4" fill="#DA272C"></path>
                    <g id="Group-8" transform="translate(5.843750, 5.210225)">
                        <mask id="mask-6" fill="white">
                            <use xlink:href="#path-5"></use>
                        </mask>
                        <g id="Clip-7"></g>
                        <path d="M4.27944687,0.226413651 L0.625384375,0.226413651 C0.289196875,0.226413651 0.016603125,0.516941201 0.016603125,0.875246299 C0.016603125,1.23391776 0.289196875,1.52444531 0.625384375,1.52444531 L4.27944687,1.52444531 C4.61597812,1.52444531 4.88857187,1.23391776 4.88857187,0.875246299 C4.88857187,0.516941201 4.61597812,0.226413651 4.27944687,0.226413651" id="Fill-6" fill="#DA272C" mask="url(#mask-6)"></path>
                    </g>
                    <path d="M0.6089875,6.73467039 L4.26305,6.73467039 C4.5992375,6.73467039 4.87183125,6.44414285 4.87183125,6.08583775 C4.87183125,5.72716628 4.5992375,5.43663873 4.26305,5.43663873 L0.6089875,5.43663873 C0.27245625,5.43663873 0.00020625,5.72716628 0.00020625,6.08583775 C0.00020625,6.44414285 0.27245625,6.73467039 0.6089875,6.73467039" id="Fill-9" fill="#DA272C"></path>
                </g>
                <g id="Group-11-Copy-3" transform="translate(35.000000, 77.000000)">
                    <g id="Group-3" transform="translate(3.250000, 0.058991)">
                        <mask id="mask-8" fill="white">
                            <use xlink:href="#path-7"></use>
                        </mask>
                        <g id="Clip-2"></g>
                        <path d="M1.0955,0.679627303 C1.0955,0.418775329 0.89725,0.207482566 0.65275,0.207482566 C0.408,0.207482566 0.20975,0.418775329 0.20975,0.679627303 L0.20975,3.51196283 C0.20975,3.77254836 0.408,3.98384112 0.65275,3.98384112 C0.89725,3.98384112 1.0955,3.77254836 1.0955,3.51196283 L1.0955,0.679627303 Z" id="Fill-1" fill="#DA272C" mask="url(#mask-8)"></path>
                    </g>
                    <path d="M4.3455,5.2809602 C4.3455,5.02010822 4.14725,4.80908191 3.90275,4.80908191 C3.658,4.80908191 3.45975,5.02010822 3.45975,5.2809602 L3.45975,8.11329572 C3.45975,8.37388125 3.658,8.58517401 3.90275,8.58517401 C4.14725,8.58517401 4.3455,8.37388125 4.3455,8.11329572 L4.3455,5.2809602 Z" id="Fill-4" fill="#DA272C"></path>
                    <g id="Group-8" transform="translate(4.250000, 3.789255)">
                        <mask id="mask-10" fill="white">
                            <use xlink:href="#path-9"></use>
                        </mask>
                        <g id="Clip-7"></g>
                        <path d="M3.112325,0.164664474 L0.454825,0.164664474 C0.210325,0.164664474 0.012075,0.375957237 0.012075,0.636542763 C0.012075,0.897394737 0.210325,1.1086875 0.454825,1.1086875 L3.112325,1.1086875 C3.357075,1.1086875 3.555325,0.897394737 3.555325,0.636542763 C3.555325,0.375957237 3.357075,0.164664474 3.112325,0.164664474" id="Fill-6" fill="#DA272C" mask="url(#mask-10)"></path>
                    </g>
                    <path d="M0.4429,4.89794211 L3.1004,4.89794211 C3.3449,4.89794211 3.54315,4.68664934 3.54315,4.42606382 C3.54315,4.16521184 3.3449,3.95391908 3.1004,3.95391908 L0.4429,3.95391908 C0.19815,3.95391908 0.00015,4.16521184 0.00015,4.42606382 C0.00015,4.68664934 0.19815,4.89794211 0.4429,4.89794211" id="Fill-9" fill="#DA272C"></path>
                </g>
                <g id="Group-11-Copy" transform="translate(21.000000, 40.000000)">
                    <g id="Group-3" transform="translate(4.875000, 0.085210)">
                        <mask id="mask-12" fill="white">
                            <use xlink:href="#path-11"></use>
                        </mask>
                        <g id="Clip-2"></g>
                        <path d="M1.64325,0.981683882 C1.64325,0.604897697 1.345875,0.299697039 0.979125,0.299697039 C0.612,0.299697039 0.314625,0.604897697 0.314625,0.981683882 L0.314625,5.0728352 C0.314625,5.44923651 0.612,5.75443717 0.979125,5.75443717 C1.345875,5.75443717 1.64325,5.44923651 1.64325,5.0728352 L1.64325,0.981683882 Z" id="Fill-1" fill="#DA272C" mask="url(#mask-12)"></path>
                    </g>
                    <path d="M6.51825,7.62805362 C6.51825,7.25126743 6.220875,6.94645164 5.854125,6.94645164 C5.487,6.94645164 5.189625,7.25126743 5.189625,7.62805362 L5.189625,11.7192049 C5.189625,12.0956062 5.487,12.4008069 5.854125,12.4008069 C6.220875,12.4008069 6.51825,12.0956062 6.51825,11.7192049 L6.51825,7.62805362 Z" id="Fill-4" fill="#DA272C"></path>
                    <g id="Group-8" transform="translate(6.375000, 5.473368)">
                        <mask id="mask-14" fill="white">
                            <use xlink:href="#path-13"></use>
                        </mask>
                        <g id="Clip-7"></g>
                        <path d="M4.6684875,0.237848684 L0.6822375,0.237848684 C0.3154875,0.237848684 0.0181125,0.543049342 0.0181125,0.919450658 C0.0181125,1.29623684 0.3154875,1.6014375 0.6822375,1.6014375 L4.6684875,1.6014375 C5.0356125,1.6014375 5.3329875,1.29623684 5.3329875,0.919450658 C5.3329875,0.543049342 5.0356125,0.237848684 4.6684875,0.237848684" id="Fill-6" fill="#DA272C" mask="url(#mask-14)"></path>
                    </g>
                    <path d="M0.66435,7.07480526 L4.6506,7.07480526 C5.01735,7.07480526 5.314725,6.76960461 5.314725,6.39320329 C5.314725,6.01641711 5.01735,5.71121645 4.6506,5.71121645 L0.66435,5.71121645 C0.297225,5.71121645 0.000225,6.01641711 0.000225,6.39320329 C0.000225,6.76960461 0.297225,7.07480526 0.66435,7.07480526" id="Fill-9" fill="#DA272C"></path>
                </g>
                <g id="Group-11-Copy-4" transform="translate(40.000000, 0.000000)">
                    <g id="Group-3" transform="translate(6.500000, 0.104874)">
                        <mask id="mask-16" fill="white">
                            <use xlink:href="#path-15"></use>
                        </mask>
                        <g id="Clip-2"></g>
                        <path d="M2.191,1.20822632 C2.191,0.744489474 1.7945,0.368857895 1.3055,0.368857895 C0.816,0.368857895 0.4195,0.744489474 0.4195,1.20822632 L0.4195,6.24348947 C0.4195,6.70675263 0.816,7.08238421 1.3055,7.08238421 C1.7945,7.08238421 2.191,6.70675263 2.191,6.24348947 L2.191,1.20822632 Z" id="Fill-1" fill="#DA272C" mask="url(#mask-16)"></path>
                    </g>
                    <path d="M8.691,9.38837368 C8.691,8.92463684 8.2945,8.54947895 7.8055,8.54947895 C7.316,8.54947895 6.9195,8.92463684 6.9195,9.38837368 L6.9195,14.4236368 C6.9195,14.8869 7.316,15.2625316 7.8055,15.2625316 C8.2945,15.2625316 8.691,14.8869 8.691,14.4236368 L8.691,9.38837368 Z" id="Fill-4" fill="#DA272C"></path>
                    <g id="Group-8" transform="translate(8.500000, 6.736453)">
                        <mask id="mask-18" fill="white">
                            <use xlink:href="#path-17"></use>
                        </mask>
                        <g id="Clip-7"></g>
                        <path d="M6.22465,0.292736842 L0.90965,0.292736842 C0.42065,0.292736842 0.02415,0.668368421 0.02415,1.13163158 C0.02415,1.59536842 0.42065,1.971 0.90965,1.971 L6.22465,1.971 C6.71415,1.971 7.11065,1.59536842 7.11065,1.13163158 C7.11065,0.668368421 6.71415,0.292736842 6.22465,0.292736842" id="Fill-6" fill="#DA272C" mask="url(#mask-18)"></path>
                    </g>
                    <path d="M0.8858,8.70745263 L6.2008,8.70745263 C6.6898,8.70745263 7.0863,8.33182105 7.0863,7.86855789 C7.0863,7.40482105 6.6898,7.02918947 6.2008,7.02918947 L0.8858,7.02918947 C0.3963,7.02918947 0.0003,7.40482105 0.0003,7.86855789 C0.0003,8.33182105 0.3963,8.70745263 0.8858,8.70745263" id="Fill-9" fill="#DA272C"></path>
                </g>
                <g id="Group-11-Copy-2" transform="translate(108.000000, 71.000000)">
                    <g id="Group-3" transform="translate(2.843750, 0.045882)">
                        <mask id="mask-20" fill="white">
                            <use xlink:href="#path-19"></use>
                        </mask>
                        <g id="Clip-2"></g>
                        <path d="M0.9585625,0.528599013 C0.9585625,0.325714145 0.78509375,0.161375329 0.57115625,0.161375329 C0.357,0.161375329 0.18353125,0.325714145 0.18353125,0.528599013 L0.18353125,2.73152664 C0.18353125,2.93420428 0.357,3.09854309 0.57115625,3.09854309 C0.78509375,3.09854309 0.9585625,2.93420428 0.9585625,2.73152664 L0.9585625,0.528599013 Z" id="Fill-1" fill="#DA272C" mask="url(#mask-20)"></path>
                    </g>
                    <path d="M3.8023125,4.10741349 C3.8023125,3.90452862 3.62884375,3.74039704 3.41490625,3.74039704 C3.20075,3.74039704 3.02728125,3.90452862 3.02728125,4.10741349 L3.02728125,6.31034112 C3.02728125,6.51301875 3.20075,6.67735757 3.41490625,6.67735757 C3.62884375,6.67735757 3.8023125,6.51301875 3.8023125,6.31034112 L3.8023125,4.10741349 Z" id="Fill-4" fill="#DA272C"></path>
                    <g id="Group-8" transform="translate(3.718750, 2.947198)">
                        <mask id="mask-22" fill="white">
                            <use xlink:href="#path-21"></use>
                        </mask>
                        <g id="Clip-7"></g>
                        <path d="M2.72328437,0.128072368 L0.397971875,0.128072368 C0.184034375,0.128072368 0.010565625,0.292411184 0.010565625,0.495088816 C0.010565625,0.697973684 0.184034375,0.8623125 0.397971875,0.8623125 L2.72328437,0.8623125 C2.93744062,0.8623125 3.11090937,0.697973684 3.11090937,0.495088816 C3.11090937,0.292411184 2.93744062,0.128072368 2.72328437,0.128072368" id="Fill-6" fill="#DA272C" mask="url(#mask-22)"></path>
                    </g>
                    <path d="M0.3875375,3.80951053 L2.71285,3.80951053 C2.9267875,3.80951053 3.10025625,3.64517171 3.10025625,3.44249408 C3.10025625,3.23960921 2.9267875,3.07527039 2.71285,3.07527039 L0.3875375,3.07527039 C0.17338125,3.07527039 0.00013125,3.23960921 0.00013125,3.44249408 C0.00013125,3.64517171 0.17338125,3.80951053 0.3875375,3.80951053" id="Fill-9" fill="#DA272C"></path>
                </g>
            </g>
        </g>
    </g>
</svg>