<?xml version="1.0" encoding="UTF-8"?>
<svg width="163px" height="42px" viewBox="0 0 163 42" version="1.1" xmlns="http://www.w3.org/2000/svg" xmlns:xlink="http://www.w3.org/1999/xlink">
    <!-- Generator: sketchtool 51.2 (57519) - http://www.bohemiancoding.com/sketch -->
    <title>1E157C11-5326-4E0C-B767-D52B00AB10B3</title>
    <desc>Created with sketchtool.</desc>
    <defs></defs>
    <g id="FLUJO-" stroke="none" stroke-width="1" fill="none" fill-rule="evenodd">
        <g id="1.-Home_Campaña-navidad" transform="translate(-548.000000, -3866.000000)">
            <g id="Group-32" transform="translate(548.000000, 3865.000000)">
                <g id="Group-21" transform="translate(0.000000, 1.000000)">
                    <rect id="Rectangle-16" fill="#3B5998" x="0" y="0" width="163" height="42" rx="5"></rect>
                    <text id="Facebook" font-family="Roboto-Medium, Roboto" font-size="22" font-weight="400" fill="#FFFFFF">
                        <tspan x="45.5683594" y="28">Facebook</tspan>
                    </text>
                    <ellipse id="Oval-1" fill="#FFFFFF" cx="24.3107437" cy="21.3514968" rx="13.3107437" ry="13.3514968"></ellipse>
                    <path d="M22.573255,29.5797462 L25.468352,29.5797462 L25.468352,21.7468294 L27.6402046,21.7468294 L28.0697358,19.2993259 L25.468352,19.2993259 L25.468352,17.5257827 C25.468352,16.9540484 25.843662,16.3537535 26.3800462,16.3537535 L27.8585025,16.3537535 L27.8585025,13.90625 L26.0465943,13.90625 L26.0465943,13.9172214 C23.2115469,14.0185767 22.6290658,15.6359074 22.5785535,17.3347402 L22.573255,17.3347402 L22.573255,19.2993259 L21.125,19.2993259 L21.125,21.7468294 L22.573255,21.7468294 L22.573255,29.5797462 Z" id="Fill-4" fill="#3B5998"></path>
                </g>
            </g>
        </g>
    </g>
</svg>