<?xml version="1.0" encoding="UTF-8"?>
<svg width="29px" height="52px" viewBox="0 0 29 52" version="1.1" xmlns="http://www.w3.org/2000/svg" xmlns:xlink="http://www.w3.org/1999/xlink">
    <!-- Generator: sketchtool 51.2 (57519) - http://www.bohemiancoding.com/sketch -->
    <title>536CDC51-7EB1-4DDB-BAF4-6BF1E6741E5E</title>
    <desc>Created with sketchtool.</desc>
    <defs></defs>
    <g id="FLUJO-" stroke="none" stroke-width="1" fill="none" fill-rule="evenodd">
        <g id="1.-Home_Campaña-navidad" transform="translate(-101.000000, -2747.000000)" fill="#9B9B9B" fill-rule="nonzero" stroke="#FFFFFF">
            <g id="Group-72" transform="translate(48.000000, 2507.000000)">
                <g id="right-arrow-(1)" transform="translate(54.000000, 241.000000)">
                    <path d="M3,49.2 C2.65714286,49.5428571 2.22857143,49.7142857 1.75714286,49.7142857 C1.28571429,49.7142857 0.857142857,49.5428571 0.514285714,49.2 C-0.171428571,48.5142857 -0.171428571,47.4 0.514285714,46.7142857 L22.3714286,24.8571429 L0.514285714,3 C-0.171428571,2.31428571 -0.171428571,1.2 0.514285714,0.514285714 C1.2,-0.171428571 2.31428571,-0.171428571 3,0.514285714 L26.1,23.6142857 C26.7857143,24.3 26.7857143,25.4142857 26.1,26.1 L3,49.2 Z" id="Shape-Copy" transform="translate(13.307143, 24.857143) scale(-1, 1) translate(-13.307143, -24.857143) "></path>
                </g>
            </g>
        </g>
    </g>
</svg>