<?xml version="1.0" encoding="UTF-8"?>
<svg width="256px" height="42px" viewBox="0 0 256 42" version="1.1" xmlns="http://www.w3.org/2000/svg" xmlns:xlink="http://www.w3.org/1999/xlink">
    <!-- Generator: Sketch 51.2 (57519) - http://www.bohemiancoding.com/sketch -->
    <title>Group 32</title>
    <desc>Created with Sketch.</desc>
    <defs></defs>
    <g id="FLUJO-" stroke="none" stroke-width="1" fill="none" fill-rule="evenodd">
        <g id="1.-Home_Version-2" transform="translate(-454.000000, -2471.000000)">
            <g id="Group-7" transform="translate(454.000000, 2471.000000)">
                <g id="Group-32">
                    <g id="Group-21">
                        <rect id="Rectangle-16" fill="#3B5998" x="0" y="0" width="256" height="42" rx="21"></rect>
                        <g id="Group-23" transform="translate(73.000000, 7.000000)">
                            <path d="M40.9580078,13.5771484 L35.8076172,13.5771484 L35.8076172,19 L33.5839844,19 L33.5839844,6.203125 L41.7138672,6.203125 L41.7138672,7.99609375 L35.8076172,7.99609375 L35.8076172,11.8017578 L40.9580078,11.8017578 L40.9580078,13.5771484 Z M48.6484375,19 C48.554687,18.8183585 48.4726566,18.522463 48.4023438,18.1123047 C47.7226529,18.8212926 46.8906299,19.1757812 45.90625,19.1757812 C44.9511671,19.1757812 44.171878,18.903323 43.5683594,18.3583984 C42.9648407,17.8134738 42.6630859,17.1396525 42.6630859,16.3369141 C42.6630859,15.3232371 43.039547,14.5454129 43.7924805,14.003418 C44.5454139,13.4614231 45.6220633,13.1904297 47.0224609,13.1904297 L48.3320312,13.1904297 L48.3320312,12.5664062 C48.3320312,12.0742163 48.1943373,11.6801773 47.9189453,11.3842773 C47.6435533,11.0883774 47.2246122,10.9404297 46.6621094,10.9404297 C46.1757788,10.9404297 45.7773453,11.0620105 45.4667969,11.3051758 C45.1562484,11.5483411 45.0009766,11.85742 45.0009766,12.2324219 L42.8652344,12.2324219 C42.8652344,11.7109349 43.0380842,11.2231468 43.3837891,10.769043 C43.7294939,10.3149391 44.1997041,9.95898566 44.7944336,9.70117188 C45.3891631,9.44335809 46.0527307,9.31445312 46.7851562,9.31445312 C47.8984431,9.31445312 48.7861295,9.59423548 49.4482422,10.1538086 C50.1103549,10.7133817 50.4501952,11.4999949 50.4677734,12.5136719 L50.4677734,16.8027344 C50.4677734,17.6582074 50.5878894,18.3408178 50.828125,18.8505859 L50.828125,19 L48.6484375,19 Z M46.3017578,17.4619141 C46.7236349,17.4619141 47.1206036,17.359376 47.4926758,17.1542969 C47.864748,16.9492177 48.1445303,16.6738299 48.3320312,16.328125 L48.3320312,14.5351562 L47.1806641,14.5351562 C46.3896445,14.5351562 45.7949239,14.6728502 45.3964844,14.9482422 C44.9980449,15.2236342 44.7988281,15.6132787 44.7988281,16.1171875 C44.7988281,16.5273458 44.9350572,16.8540027 45.2075195,17.097168 C45.4799818,17.3403332 45.8447243,17.4619141 46.3017578,17.4619141 Z M56.6113281,17.4707031 C57.1445339,17.4707031 57.5869123,17.3154312 57.9384766,17.0048828 C58.2900408,16.6943344 58.4775389,16.3105492 58.5009766,15.8535156 L60.5136719,15.8535156 C60.4902343,16.4453155 60.3056658,16.997556 59.9599609,17.5102539 C59.6142561,18.0229518 59.1455108,18.4287094 58.5537109,18.7275391 C57.9619111,19.0263687 57.3232456,19.1757812 56.6376953,19.1757812 C55.3076105,19.1757812 54.2529336,18.7451215 53.4736328,17.8837891 C52.694332,17.0224566 52.3046875,15.8330154 52.3046875,14.3154297 L52.3046875,14.0957031 C52.3046875,12.6484303 52.6914024,11.4897504 53.4648438,10.6196289 C54.2382851,9.74950737 55.2929621,9.31445312 56.6289062,9.31445312 C57.7597713,9.31445312 58.6811488,9.64403967 59.3930664,10.3032227 C60.104984,10.9624056 60.4785154,11.8281196 60.5136719,12.9003906 L58.5009766,12.9003906 C58.4775389,12.355466 58.2915056,11.9072283 57.9428711,11.5556641 C57.5942365,11.2040998 57.1503933,11.0283203 56.6113281,11.0283203 C55.9199184,11.0283203 55.3867206,11.2788061 55.0117188,11.7797852 C54.6367169,12.2807642 54.4462891,13.0410105 54.4404297,14.0605469 L54.4404297,14.4033203 C54.4404297,15.4345755 54.626463,16.2036107 54.9985352,16.7104492 C55.3706073,17.2172877 55.9081996,17.4707031 56.6113281,17.4707031 Z M66.3144531,19.1757812 C64.9609307,19.1757812 63.8637737,18.749516 63.0229492,17.8969727 C62.1821247,17.0444293 61.7617188,15.9091868 61.7617188,14.4912109 L61.7617188,14.2275391 C61.7617188,13.2783156 61.9448224,12.4301795 62.3110352,11.6831055 C62.6772479,10.9360314 63.1914029,10.3544943 63.8535156,9.93847656 C64.5156283,9.52245886 65.2539022,9.31445312 66.0683594,9.31445312 C67.3632877,9.31445312 68.363766,9.72753493 69.0698242,10.5537109 C69.7758824,11.3798869 70.1289062,12.5488206 70.1289062,14.0605469 L70.1289062,14.921875 L63.9150391,14.921875 C63.9794925,15.7070352 64.2416969,16.3281227 64.7016602,16.7851562 C65.1616234,17.2421898 65.7402309,17.4707031 66.4375,17.4707031 C67.4160205,17.4707031 68.2128875,17.0751993 68.828125,16.2841797 L69.9794922,17.3828125 C69.5986309,17.9511747 69.0903352,18.3920883 68.4545898,18.7055664 C67.8188445,19.0190445 67.1054727,19.1757812 66.3144531,19.1757812 Z M66.0595703,11.0283203 C65.4736299,11.0283203 65.0004901,11.2333964 64.6401367,11.6435547 C64.2797834,12.053713 64.0498052,12.6249963 63.9501953,13.3574219 L68.0195312,13.3574219 L68.0195312,13.1992188 C67.972656,12.4843714 67.7822282,11.9438495 67.4482422,11.5776367 C67.1142561,11.211424 66.6513701,11.0283203 66.0595703,11.0283203 Z M80.1308594,14.3417969 C80.1308594,15.8183668 79.8012728,16.9931597 79.1420898,17.8662109 C78.4829069,18.7392622 77.5761776,19.1757812 76.421875,19.1757812 C75.3085882,19.1757812 74.4414094,18.7744181 73.8203125,17.9716797 L73.7148438,19 L71.78125,19 L71.78125,5.5 L73.9169922,5.5 L73.9169922,10.4042969 C74.5322296,9.67773074 75.3613229,9.31445312 76.4042969,9.31445312 C77.5644589,9.31445312 78.4755826,9.74511288 79.1376953,10.6064453 C79.799808,11.4677777 80.1308594,12.6718673 80.1308594,14.21875 L80.1308594,14.3417969 Z M77.9951172,14.1572266 C77.9951172,13.1259714 77.8134784,12.3525416 77.4501953,11.8369141 C77.0869122,11.3212865 76.5595738,11.0634766 75.8681641,11.0634766 C74.9423782,11.0634766 74.2919941,11.4677694 73.9169922,12.2763672 L73.9169922,16.1962891 C74.2978535,17.0224651 74.9540969,17.4355469 75.8857422,17.4355469 C76.5537143,17.4355469 77.0693341,17.1865259 77.4326172,16.6884766 C77.7959003,16.1904272 77.9833984,15.437505 77.9951172,14.4296875 L77.9951172,14.1572266 Z M81.5195312,14.1572266 C81.5195312,13.2255813 81.7040997,12.3862342 82.0732422,11.6391602 C82.4423847,10.8920861 82.9609342,10.3178731 83.6289062,9.91650391 C84.2968783,9.51513471 85.0644488,9.31445312 85.9316406,9.31445312 C87.2148502,9.31445312 88.2563437,9.72753493 89.0561523,10.5537109 C89.855961,11.3798869 90.2880856,12.4755791 90.3525391,13.8408203 L90.3613281,14.3417969 C90.3613281,15.2793016 90.1811541,16.1171838 89.8208008,16.8554688 C89.4604474,17.5937537 88.9448276,18.165037 88.2739258,18.5693359 C87.603024,18.9736348 86.8281294,19.1757812 85.9492188,19.1757812 C84.6074152,19.1757812 83.5336954,18.7290084 82.7280273,17.8354492 C81.9223593,16.9418901 81.5195312,15.750984 81.5195312,14.2626953 L81.5195312,14.1572266 Z M83.6552734,14.3417969 C83.6552734,15.3203174 83.8574199,16.086423 84.2617188,16.6401367 C84.6660176,17.1938504 85.228512,17.4707031 85.9492188,17.4707031 C86.6699255,17.4707031 87.230955,17.1894559 87.6323242,16.6269531 C88.0336934,16.0644503 88.234375,15.2412164 88.234375,14.1572266 C88.234375,13.1962843 88.0278341,12.4345731 87.6147461,11.8720703 C87.2016581,11.3095675 86.6406285,11.0283203 85.9316406,11.0283203 C85.2343715,11.0283203 84.6806661,11.305173 84.2705078,11.8588867 C83.8603495,12.4126004 83.6552734,13.2402289 83.6552734,14.3417969 Z M91.7675781,14.1572266 C91.7675781,13.2255813 91.9521466,12.3862342 92.3212891,11.6391602 C92.6904315,10.8920861 93.208981,10.3178731 93.8769531,9.91650391 C94.5449252,9.51513471 95.3124957,9.31445312 96.1796875,9.31445312 C97.462897,9.31445312 98.5043905,9.72753493 99.3041992,10.5537109 C100.104008,11.3798869 100.536132,12.4755791 100.600586,13.8408203 L100.609375,14.3417969 C100.609375,15.2793016 100.429201,16.1171838 100.068848,16.8554688 C99.7084943,17.5937537 99.1928744,18.165037 98.5219727,18.5693359 C97.8510709,18.9736348 97.0761763,19.1757812 96.1972656,19.1757812 C94.855462,19.1757812 93.7817423,18.7290084 92.9760742,17.8354492 C92.1704061,16.9418901 91.7675781,15.750984 91.7675781,14.2626953 L91.7675781,14.1572266 Z M93.9033203,14.3417969 C93.9033203,15.3203174 94.1054667,16.086423 94.5097656,16.6401367 C94.9140645,17.1938504 95.4765589,17.4707031 96.1972656,17.4707031 C96.9179724,17.4707031 97.4790019,17.1894559 97.8803711,16.6269531 C98.2817403,16.0644503 98.4824219,15.2412164 98.4824219,14.1572266 C98.4824219,13.1962843 98.275881,12.4345731 97.862793,11.8720703 C97.449705,11.3095675 96.8886754,11.0283203 96.1796875,11.0283203 C95.4824184,11.0283203 94.928713,11.305173 94.5185547,11.8588867 C94.1083964,12.4126004 93.9033203,13.2402289 93.9033203,14.3417969 Z M105.504883,14.921875 L104.555664,15.8974609 L104.555664,19 L102.419922,19 L102.419922,5.5 L104.555664,5.5 L104.555664,13.2871094 L105.223633,12.4521484 L107.851562,9.49023438 L110.417969,9.49023438 L106.884766,13.4541016 L110.795898,19 L108.326172,19 L105.504883,14.921875 Z" id="Facebook" fill="#FFFFFF"></path>
                            <ellipse id="Oval-1" fill="#FFFFFF" cx="13.3107437" cy="13.3514968" rx="13.3107437" ry="13.3514968"></ellipse>
                            <path d="M11.448255,20.6734962 L14.343352,20.6734962 L14.343352,12.8405794 L16.5152046,12.8405794 L16.9447358,10.3930759 L14.343352,10.3930759 L14.343352,8.61953273 C14.343352,8.04779842 14.718662,7.44750351 15.2550462,7.44750351 L16.7335025,7.44750351 L16.7335025,5 L14.9215943,5 L14.9215943,5.01097145 C12.0865469,5.11232672 11.5040658,6.72965738 11.4535535,8.42849023 L11.448255,8.42849023 L11.448255,10.3930759 L10,10.3930759 L10,12.8405794 L11.448255,12.8405794 L11.448255,20.6734962 Z" id="Fill-4" fill="#3B5998"></path>
                        </g>
                    </g>
                </g>
            </g>
        </g>
    </g>
</svg>