<?xml version="1.0" encoding="UTF-8"?>
<svg width="1009px" height="680px" viewBox="0 0 1009 680" version="1.1" xmlns="http://www.w3.org/2000/svg" xmlns:xlink="http://www.w3.org/1999/xlink">
    <!-- Generator: sketchtool 51.2 (57519) - http://www.bohemiancoding.com/sketch -->
    <title>8926599E-D186-4FC2-AE1F-B50DF5516354</title>
    <desc>Created with sketchtool.</desc>
    <defs>
        <polygon id="path-1" points="0 0 63 0 63 66 0 66"></polygon>
        <polygon id="path-3" points="0 0 63 0 63 66 0 66"></polygon>
        <polygon id="path-5" points="0 0 63 0 63 66 0 66"></polygon>
        <polygon id="path-7" points="0 0 41 0 41 43 0 43"></polygon>
        <polygon id="path-9" points="0 0 41 0 41 43 0 43"></polygon>
        <polygon id="path-11" points="0 0 41 0 41 43 0 43"></polygon>
        <polygon id="path-13" points="0 0 41 0 41 43 0 43"></polygon>
        <polygon id="path-15" points="0 0 46 0 46 48 0 48"></polygon>
    </defs>
    <g id="FLUJO-" stroke="none" stroke-width="1" fill="none" fill-rule="evenodd" opacity="0.7">
        <g id="1.-Home_Campaña-navidad" transform="translate(-208.000000, -681.000000)">
            <g id="Group-26" transform="translate(197.000000, 669.000000)">
                <g id="Group-38" transform="translate(0.000000, 130.000000)">
                    <mask id="mask-2" fill="white">
                        <use xlink:href="#path-1"></use>
                    </mask>
                    <g id="Clip-2"></g>
                    <path d="M35.7252161,32.5873319 L40,32.5873319 L40,31.1768748 L35.7252161,31.1768748 L35.7252161,32.5873319 Z M30.8293176,28.0820436 L32.274416,28.0820436 L32.274416,24 L30.8293176,24 L30.8293176,28.0820436 Z M35.009748,29.5988049 L38.9122678,25.7908575 L37.8857826,24.7905587 L33.9841825,28.5976098 L35.009748,29.5988049 Z M33.7507817,30.3269794 C33.0827662,29.6749925 32.274416,29.355363 31.3573662,29.355363 C30.4405003,29.355363 29.647048,29.6749925 28.995034,30.3269794 C28.3255472,30.9800418 28,31.767553 28,32.67804 C28,33.588527 28.3255472,34.3767553 28.995034,35.0140424 C29.647048,35.6672841 30.4405003,36 31.3573662,36 C32.274416,36 33.0827662,35.6672841 33.7507817,35.0140424 C34.4037153,34.3767553 34.7305499,33.588527 34.7305499,32.67804 C34.7305499,31.767553 34.4037153,30.9800418 33.7507817,30.3269794 Z M32.6159647,33.9072602 C32.274416,34.2571855 31.8548832,34.4221094 31.3573662,34.4221094 C30.8758507,34.4221094 30.45595,34.2571855 30.1144013,33.9072602 C29.7719331,33.558052 29.5848814,33.1480729 29.5848814,32.67804 C29.5848814,32.1780699 29.7719331,31.767553 30.1144013,31.4342994 C30.45595,31.0861667 30.8758507,30.9183747 31.3573662,30.9337915 C31.8548832,30.9183747 32.274416,31.0861667 32.6310465,31.4342994 C32.958249,31.767553 33.1289314,32.1780699 33.1454846,32.67804 C33.1289314,33.1480729 32.958249,33.558052 32.6159647,33.9072602 Z" id="Fill-1" fill="#FFFFFF" mask="url(#mask-2)"></path>
                    <polygon id="Fill-3" fill="#FFFFFF" mask="url(#mask-2)" points="31 22 32 22 32 17 31 17"></polygon>
                    <polygon id="Fill-4" fill="#FFFFFF" mask="url(#mask-2)" points="31 17 32 17 32 12 31 12"></polygon>
                    <polygon id="Fill-5" fill="#FFFFFF" mask="url(#mask-2)" points="35.0405703 17 39 13.0401909 37.9586832 12 34 15.958877"></polygon>
                    <polygon id="Fill-6" fill="#FFFFFF" mask="url(#mask-2)" points="30 15.9588382 26.0415034 12 25 13.0402297 28.9594297 17"></polygon>
                    <polygon id="Fill-7" fill="#FFFFFF" mask="url(#mask-2)" points="43 22.0261335 41.9738191 21 39 23.9738665 40.0259962 25"></polygon>
                    <polygon id="Fill-8" fill="#FFFFFF" mask="url(#mask-2)" points="47 17.0261809 45.9738191 16 43 18.9738191 44.0259962 20"></polygon>
                    <polygon id="Fill-9" fill="#FFFFFF" mask="url(#mask-2)" points="45 22 51 21.9978506 50.9998002 21 45.0013989 21.0021494"></polygon>
                    <polygon id="Fill-10" fill="#FFFFFF" mask="url(#mask-2)" points="41.9978508 18.9986011 42 13.0001998 41.0022756 13 41 19"></polygon>
                    <polygon id="Fill-11" fill="#FFFFFF" mask="url(#mask-2)" points="42 32 47 32 47 31 42 31"></polygon>
                    <polygon id="Fill-12" fill="#FFFFFF" mask="url(#mask-2)" points="47 32 52 32 52 31 47 31"></polygon>
                    <polygon id="Fill-13" fill="#FFFFFF" mask="url(#mask-2)" points="47 35.0405315 50.9598091 39 52 37.9585355 48.041123 34"></polygon>
                    <polygon id="Fill-14" fill="#FFFFFF" mask="url(#mask-2)" points="48.0411618 30 52 26.0413168 50.9599568 25 47 28.9594297"></polygon>
                    <path d="M23,34.8234117 L27.2747839,34.8234117 L27.2747839,33.4127963 L23,33.4127963 L23,34.8234117 Z M30.725584,42 L32.1706824,42 L32.1706824,37.9180174 L30.725584,37.9180174 L30.725584,42 Z M27.990252,36.4012787 L24.0877322,40.2091693 L25.1142174,41.2092738 L29.0156336,37.4024589 L27.990252,36.4012787 Z M29.2492183,35.6731151 C29.9172338,36.324913 30.725584,36.644717 31.6426338,36.644717 C32.5594997,36.644717 33.3527681,36.324913 34.004966,35.6731151 C34.6744528,35.0200624 35,34.2323837 35,33.3220896 C35,32.4116162 34.6744528,31.6233997 34.004966,30.9861221 C33.3527681,30.3328902 32.5594997,30 31.6426338,30 C30.725584,30 29.9172338,30.3328902 29.2492183,30.9861221 C28.5962847,31.6233997 28.2694501,32.4116162 28.2694501,33.3220896 C28.2694501,34.2323837 28.5962847,35.0200624 29.2492183,35.6731151 Z M30.3840353,32.0927085 C30.725584,31.7427884 31.1451168,31.5778671 31.6426338,31.5778671 C32.1241493,31.5778671 32.54405,31.7427884 32.8854148,32.0927085 C33.2280669,32.4420908 33.4149347,32.8518845 33.4149347,33.3220896 C33.4149347,33.8220523 33.2280669,34.2323837 32.8854148,34.5656324 C32.54405,34.9139391 32.1241493,35.0815494 31.6426338,35.0661329 C31.1451168,35.0815494 30.725584,34.9139391 30.3687695,34.5656324 C30.041751,34.2323837 29.8710686,33.8220523 29.8545154,33.3220896 C29.8710686,32.8518845 30.041751,32.4420908 30.3840353,32.0927085 Z" id="Fill-15" fill="#FFFFFF" mask="url(#mask-2)"></path>
                    <polygon id="Fill-16" fill="#FFFFFF" mask="url(#mask-2)" points="31 49 32 49 32 44 31 44"></polygon>
                    <polygon id="Fill-17" fill="#FFFFFF" mask="url(#mask-2)" points="31 55 32 55 32 50 31 50"></polygon>
                    <polygon id="Fill-18" fill="#FFFFFF" mask="url(#mask-2)" points="28.9594297 49 25 52.9598091 26.0413168 54 30 50.041123"></polygon>
                    <polygon id="Fill-19" fill="#FFFFFF" mask="url(#mask-2)" points="33 50.0411618 36.9584966 54 38 52.9597703 34.0405703 49"></polygon>
                    <polygon id="Fill-20" fill="#FFFFFF" mask="url(#mask-2)" points="20 43.9738665 21.0261809 45 24 42.0261335 22.9740038 41"></polygon>
                    <polygon id="Fill-21" fill="#FFFFFF" mask="url(#mask-2)" points="16 47.9738191 17.0261809 49 20 46.0261809 18.9740038 45"></polygon>
                    <polygon id="Fill-22" fill="#FFFFFF" mask="url(#mask-2)" points="18 43 12 43.0021494 12.0001998 44 17.9986011 43.9978506"></polygon>
                    <polygon id="Fill-23" fill="#FFFFFF" mask="url(#mask-2)" points="20.0021492 47.0013989 20 52.9998002 20.9977244 53 21 47"></polygon>
                    <polygon id="Fill-24" fill="#FFFFFF" mask="url(#mask-2)" points="42.9738665 45 44 43.9738191 41.0263182 41 40 42.0261809"></polygon>
                    <polygon id="Fill-25" fill="#FFFFFF" mask="url(#mask-2)" points="46.9738665 49 48 47.9738191 45.0263182 45 44 46.0259962"></polygon>
                    <polygon id="Fill-26" fill="#FFFFFF" mask="url(#mask-2)" points="42 47 42.0021494 53 43 52.9998002 42.9978506 47.0013989"></polygon>
                    <polygon id="Fill-27" fill="#FFFFFF" mask="url(#mask-2)" points="46.0013989 43.9978506 51.9998002 44 52 43.0021494 46 43"></polygon>
                    <polygon id="Fill-28" fill="#FFFFFF" mask="url(#mask-2)" points="20.0261335 21 19 22.0261809 21.9736818 25 23 23.9738191"></polygon>
                    <polygon id="Fill-29" fill="#FFFFFF" mask="url(#mask-2)" points="16.0261335 17 15 18.0261809 17.9736818 21 19 19.9740038"></polygon>
                    <polygon id="Fill-30" fill="#FFFFFF" mask="url(#mask-2)" points="21 20 20.9978506 14 20 14.0001998 20.0021494 19.9986011"></polygon>
                    <polygon id="Fill-31" fill="#FFFFFF" mask="url(#mask-2)" points="16.9986011 22.0021494 11.0001998 22 11 22.9978506 17 23"></polygon>
                    <polygon id="Fill-32" fill="#FFFFFF" mask="url(#mask-2)" points="17 34 22 34 22 33 17 33"></polygon>
                    <polygon id="Fill-33" fill="#FFFFFF" mask="url(#mask-2)" points="11 34 16 34 16 33 11 33"></polygon>
                    <polygon id="Fill-34" fill="#FFFFFF" mask="url(#mask-2)" points="16 30.9594297 12.0401909 27 11 28.0413168 14.958877 32"></polygon>
                    <polygon id="Fill-35" fill="#FFFFFF" mask="url(#mask-2)" points="14.9588382 36 11 39.9586832 12.0400432 41 16 37.0405703"></polygon>
                    <polygon id="Fill-36" fill="#FFFFFF" mask="url(#mask-2)" points="28 28.9594685 24.0401909 25 23 26.0414645 26.958877 30"></polygon>
                    <polygon id="Fill-37" fill="#FFFFFF" mask="url(#mask-2)" points="34 37.0405315 37.9598091 41 39 39.9585355 35.041123 36"></polygon>
                </g>
                <g id="Group-38-Copy" transform="translate(968.000000, 446.000000)">
                    <mask id="mask-4" fill="white">
                        <use xlink:href="#path-3"></use>
                    </mask>
                    <g id="Clip-2"></g>
                    <path d="M35.7252161,32.5873319 L40,32.5873319 L40,31.1768748 L35.7252161,31.1768748 L35.7252161,32.5873319 Z M30.8293176,28.0820436 L32.274416,28.0820436 L32.274416,24 L30.8293176,24 L30.8293176,28.0820436 Z M35.009748,29.5988049 L38.9122678,25.7908575 L37.8857826,24.7905587 L33.9841825,28.5976098 L35.009748,29.5988049 Z M33.7507817,30.3269794 C33.0827662,29.6749925 32.274416,29.355363 31.3573662,29.355363 C30.4405003,29.355363 29.647048,29.6749925 28.995034,30.3269794 C28.3255472,30.9800418 28,31.767553 28,32.67804 C28,33.588527 28.3255472,34.3767553 28.995034,35.0140424 C29.647048,35.6672841 30.4405003,36 31.3573662,36 C32.274416,36 33.0827662,35.6672841 33.7507817,35.0140424 C34.4037153,34.3767553 34.7305499,33.588527 34.7305499,32.67804 C34.7305499,31.767553 34.4037153,30.9800418 33.7507817,30.3269794 Z M32.6159647,33.9072602 C32.274416,34.2571855 31.8548832,34.4221094 31.3573662,34.4221094 C30.8758507,34.4221094 30.45595,34.2571855 30.1144013,33.9072602 C29.7719331,33.558052 29.5848814,33.1480729 29.5848814,32.67804 C29.5848814,32.1780699 29.7719331,31.767553 30.1144013,31.4342994 C30.45595,31.0861667 30.8758507,30.9183747 31.3573662,30.9337915 C31.8548832,30.9183747 32.274416,31.0861667 32.6310465,31.4342994 C32.958249,31.767553 33.1289314,32.1780699 33.1454846,32.67804 C33.1289314,33.1480729 32.958249,33.558052 32.6159647,33.9072602 Z" id="Fill-1" fill="#FFFFFF" mask="url(#mask-4)"></path>
                    <polygon id="Fill-3" fill="#FFFFFF" mask="url(#mask-4)" points="31 22 32 22 32 17 31 17"></polygon>
                    <polygon id="Fill-4" fill="#FFFFFF" mask="url(#mask-4)" points="31 17 32 17 32 12 31 12"></polygon>
                    <polygon id="Fill-5" fill="#FFFFFF" mask="url(#mask-4)" points="35.0405703 17 39 13.0401909 37.9586832 12 34 15.958877"></polygon>
                    <polygon id="Fill-6" fill="#FFFFFF" mask="url(#mask-4)" points="30 15.9588382 26.0415034 12 25 13.0402297 28.9594297 17"></polygon>
                    <polygon id="Fill-7" fill="#FFFFFF" mask="url(#mask-4)" points="43 22.0261335 41.9738191 21 39 23.9738665 40.0259962 25"></polygon>
                    <polygon id="Fill-8" fill="#FFFFFF" mask="url(#mask-4)" points="47 17.0261809 45.9738191 16 43 18.9738191 44.0259962 20"></polygon>
                    <polygon id="Fill-9" fill="#FFFFFF" mask="url(#mask-4)" points="45 22 51 21.9978506 50.9998002 21 45.0013989 21.0021494"></polygon>
                    <polygon id="Fill-10" fill="#FFFFFF" mask="url(#mask-4)" points="41.9978508 18.9986011 42 13.0001998 41.0022756 13 41 19"></polygon>
                    <polygon id="Fill-11" fill="#FFFFFF" mask="url(#mask-4)" points="42 32 47 32 47 31 42 31"></polygon>
                    <polygon id="Fill-12" fill="#FFFFFF" mask="url(#mask-4)" points="47 32 52 32 52 31 47 31"></polygon>
                    <polygon id="Fill-13" fill="#FFFFFF" mask="url(#mask-4)" points="47 35.0405315 50.9598091 39 52 37.9585355 48.041123 34"></polygon>
                    <polygon id="Fill-14" fill="#FFFFFF" mask="url(#mask-4)" points="48.0411618 30 52 26.0413168 50.9599568 25 47 28.9594297"></polygon>
                    <path d="M23,34.8234117 L27.2747839,34.8234117 L27.2747839,33.4127963 L23,33.4127963 L23,34.8234117 Z M30.725584,42 L32.1706824,42 L32.1706824,37.9180174 L30.725584,37.9180174 L30.725584,42 Z M27.990252,36.4012787 L24.0877322,40.2091693 L25.1142174,41.2092738 L29.0156336,37.4024589 L27.990252,36.4012787 Z M29.2492183,35.6731151 C29.9172338,36.324913 30.725584,36.644717 31.6426338,36.644717 C32.5594997,36.644717 33.3527681,36.324913 34.004966,35.6731151 C34.6744528,35.0200624 35,34.2323837 35,33.3220896 C35,32.4116162 34.6744528,31.6233997 34.004966,30.9861221 C33.3527681,30.3328902 32.5594997,30 31.6426338,30 C30.725584,30 29.9172338,30.3328902 29.2492183,30.9861221 C28.5962847,31.6233997 28.2694501,32.4116162 28.2694501,33.3220896 C28.2694501,34.2323837 28.5962847,35.0200624 29.2492183,35.6731151 Z M30.3840353,32.0927085 C30.725584,31.7427884 31.1451168,31.5778671 31.6426338,31.5778671 C32.1241493,31.5778671 32.54405,31.7427884 32.8854148,32.0927085 C33.2280669,32.4420908 33.4149347,32.8518845 33.4149347,33.3220896 C33.4149347,33.8220523 33.2280669,34.2323837 32.8854148,34.5656324 C32.54405,34.9139391 32.1241493,35.0815494 31.6426338,35.0661329 C31.1451168,35.0815494 30.725584,34.9139391 30.3687695,34.5656324 C30.041751,34.2323837 29.8710686,33.8220523 29.8545154,33.3220896 C29.8710686,32.8518845 30.041751,32.4420908 30.3840353,32.0927085 Z" id="Fill-15" fill="#FFFFFF" mask="url(#mask-4)"></path>
                    <polygon id="Fill-16" fill="#FFFFFF" mask="url(#mask-4)" points="31 49 32 49 32 44 31 44"></polygon>
                    <polygon id="Fill-17" fill="#FFFFFF" mask="url(#mask-4)" points="31 55 32 55 32 50 31 50"></polygon>
                    <polygon id="Fill-18" fill="#FFFFFF" mask="url(#mask-4)" points="28.9594297 49 25 52.9598091 26.0413168 54 30 50.041123"></polygon>
                    <polygon id="Fill-19" fill="#FFFFFF" mask="url(#mask-4)" points="33 50.0411618 36.9584966 54 38 52.9597703 34.0405703 49"></polygon>
                    <polygon id="Fill-20" fill="#FFFFFF" mask="url(#mask-4)" points="20 43.9738665 21.0261809 45 24 42.0261335 22.9740038 41"></polygon>
                    <polygon id="Fill-21" fill="#FFFFFF" mask="url(#mask-4)" points="16 47.9738191 17.0261809 49 20 46.0261809 18.9740038 45"></polygon>
                    <polygon id="Fill-22" fill="#FFFFFF" mask="url(#mask-4)" points="18 43 12 43.0021494 12.0001998 44 17.9986011 43.9978506"></polygon>
                    <polygon id="Fill-23" fill="#FFFFFF" mask="url(#mask-4)" points="20.0021492 47.0013989 20 52.9998002 20.9977244 53 21 47"></polygon>
                    <polygon id="Fill-24" fill="#FFFFFF" mask="url(#mask-4)" points="42.9738665 45 44 43.9738191 41.0263182 41 40 42.0261809"></polygon>
                    <polygon id="Fill-25" fill="#FFFFFF" mask="url(#mask-4)" points="46.9738665 49 48 47.9738191 45.0263182 45 44 46.0259962"></polygon>
                    <polygon id="Fill-26" fill="#FFFFFF" mask="url(#mask-4)" points="42 47 42.0021494 53 43 52.9998002 42.9978506 47.0013989"></polygon>
                    <polygon id="Fill-27" fill="#FFFFFF" mask="url(#mask-4)" points="46.0013989 43.9978506 51.9998002 44 52 43.0021494 46 43"></polygon>
                    <polygon id="Fill-28" fill="#FFFFFF" mask="url(#mask-4)" points="20.0261335 21 19 22.0261809 21.9736818 25 23 23.9738191"></polygon>
                    <polygon id="Fill-29" fill="#FFFFFF" mask="url(#mask-4)" points="16.0261335 17 15 18.0261809 17.9736818 21 19 19.9740038"></polygon>
                    <polygon id="Fill-30" fill="#FFFFFF" mask="url(#mask-4)" points="21 20 20.9978506 14 20 14.0001998 20.0021494 19.9986011"></polygon>
                    <polygon id="Fill-31" fill="#FFFFFF" mask="url(#mask-4)" points="16.9986011 22.0021494 11.0001998 22 11 22.9978506 17 23"></polygon>
                    <polygon id="Fill-32" fill="#FFFFFF" mask="url(#mask-4)" points="17 34 22 34 22 33 17 33"></polygon>
                    <polygon id="Fill-33" fill="#FFFFFF" mask="url(#mask-4)" points="11 34 16 34 16 33 11 33"></polygon>
                    <polygon id="Fill-34" fill="#FFFFFF" mask="url(#mask-4)" points="16 30.9594297 12.0401909 27 11 28.0413168 14.958877 32"></polygon>
                    <polygon id="Fill-35" fill="#FFFFFF" mask="url(#mask-4)" points="14.9588382 36 11 39.9586832 12.0400432 41 16 37.0405703"></polygon>
                    <polygon id="Fill-36" fill="#FFFFFF" mask="url(#mask-4)" points="28 28.9594685 24.0401909 25 23 26.0414645 26.958877 30"></polygon>
                    <polygon id="Fill-37" fill="#FFFFFF" mask="url(#mask-4)" points="34 37.0405315 37.9598091 41 39 39.9585355 35.041123 36"></polygon>
                </g>
                <g id="Group-38-Copy-3" transform="translate(782.000000, 0.000000)">
                    <mask id="mask-6" fill="white">
                        <use xlink:href="#path-5"></use>
                    </mask>
                    <g id="Clip-2"></g>
                    <path d="M35.7252161,32.5873319 L40,32.5873319 L40,31.1768748 L35.7252161,31.1768748 L35.7252161,32.5873319 Z M30.8293176,28.0820436 L32.274416,28.0820436 L32.274416,24 L30.8293176,24 L30.8293176,28.0820436 Z M35.009748,29.5988049 L38.9122678,25.7908575 L37.8857826,24.7905587 L33.9841825,28.5976098 L35.009748,29.5988049 Z M33.7507817,30.3269794 C33.0827662,29.6749925 32.274416,29.355363 31.3573662,29.355363 C30.4405003,29.355363 29.647048,29.6749925 28.995034,30.3269794 C28.3255472,30.9800418 28,31.767553 28,32.67804 C28,33.588527 28.3255472,34.3767553 28.995034,35.0140424 C29.647048,35.6672841 30.4405003,36 31.3573662,36 C32.274416,36 33.0827662,35.6672841 33.7507817,35.0140424 C34.4037153,34.3767553 34.7305499,33.588527 34.7305499,32.67804 C34.7305499,31.767553 34.4037153,30.9800418 33.7507817,30.3269794 Z M32.6159647,33.9072602 C32.274416,34.2571855 31.8548832,34.4221094 31.3573662,34.4221094 C30.8758507,34.4221094 30.45595,34.2571855 30.1144013,33.9072602 C29.7719331,33.558052 29.5848814,33.1480729 29.5848814,32.67804 C29.5848814,32.1780699 29.7719331,31.767553 30.1144013,31.4342994 C30.45595,31.0861667 30.8758507,30.9183747 31.3573662,30.9337915 C31.8548832,30.9183747 32.274416,31.0861667 32.6310465,31.4342994 C32.958249,31.767553 33.1289314,32.1780699 33.1454846,32.67804 C33.1289314,33.1480729 32.958249,33.558052 32.6159647,33.9072602 Z" id="Fill-1" fill="#FFFFFF" mask="url(#mask-6)"></path>
                    <polygon id="Fill-3" fill="#FFFFFF" mask="url(#mask-6)" points="31 22 32 22 32 17 31 17"></polygon>
                    <polygon id="Fill-4" fill="#FFFFFF" mask="url(#mask-6)" points="31 17 32 17 32 12 31 12"></polygon>
                    <polygon id="Fill-5" fill="#FFFFFF" mask="url(#mask-6)" points="35.0405703 17 39 13.0401909 37.9586832 12 34 15.958877"></polygon>
                    <polygon id="Fill-6" fill="#FFFFFF" mask="url(#mask-6)" points="30 15.9588382 26.0415034 12 25 13.0402297 28.9594297 17"></polygon>
                    <polygon id="Fill-7" fill="#FFFFFF" mask="url(#mask-6)" points="43 22.0261335 41.9738191 21 39 23.9738665 40.0259962 25"></polygon>
                    <polygon id="Fill-8" fill="#FFFFFF" mask="url(#mask-6)" points="47 17.0261809 45.9738191 16 43 18.9738191 44.0259962 20"></polygon>
                    <polygon id="Fill-9" fill="#FFFFFF" mask="url(#mask-6)" points="45 22 51 21.9978506 50.9998002 21 45.0013989 21.0021494"></polygon>
                    <polygon id="Fill-10" fill="#FFFFFF" mask="url(#mask-6)" points="41.9978508 18.9986011 42 13.0001998 41.0022756 13 41 19"></polygon>
                    <polygon id="Fill-11" fill="#FFFFFF" mask="url(#mask-6)" points="42 32 47 32 47 31 42 31"></polygon>
                    <polygon id="Fill-12" fill="#FFFFFF" mask="url(#mask-6)" points="47 32 52 32 52 31 47 31"></polygon>
                    <polygon id="Fill-13" fill="#FFFFFF" mask="url(#mask-6)" points="47 35.0405315 50.9598091 39 52 37.9585355 48.041123 34"></polygon>
                    <polygon id="Fill-14" fill="#FFFFFF" mask="url(#mask-6)" points="48.0411618 30 52 26.0413168 50.9599568 25 47 28.9594297"></polygon>
                    <path d="M23,34.8234117 L27.2747839,34.8234117 L27.2747839,33.4127963 L23,33.4127963 L23,34.8234117 Z M30.725584,42 L32.1706824,42 L32.1706824,37.9180174 L30.725584,37.9180174 L30.725584,42 Z M27.990252,36.4012787 L24.0877322,40.2091693 L25.1142174,41.2092738 L29.0156336,37.4024589 L27.990252,36.4012787 Z M29.2492183,35.6731151 C29.9172338,36.324913 30.725584,36.644717 31.6426338,36.644717 C32.5594997,36.644717 33.3527681,36.324913 34.004966,35.6731151 C34.6744528,35.0200624 35,34.2323837 35,33.3220896 C35,32.4116162 34.6744528,31.6233997 34.004966,30.9861221 C33.3527681,30.3328902 32.5594997,30 31.6426338,30 C30.725584,30 29.9172338,30.3328902 29.2492183,30.9861221 C28.5962847,31.6233997 28.2694501,32.4116162 28.2694501,33.3220896 C28.2694501,34.2323837 28.5962847,35.0200624 29.2492183,35.6731151 Z M30.3840353,32.0927085 C30.725584,31.7427884 31.1451168,31.5778671 31.6426338,31.5778671 C32.1241493,31.5778671 32.54405,31.7427884 32.8854148,32.0927085 C33.2280669,32.4420908 33.4149347,32.8518845 33.4149347,33.3220896 C33.4149347,33.8220523 33.2280669,34.2323837 32.8854148,34.5656324 C32.54405,34.9139391 32.1241493,35.0815494 31.6426338,35.0661329 C31.1451168,35.0815494 30.725584,34.9139391 30.3687695,34.5656324 C30.041751,34.2323837 29.8710686,33.8220523 29.8545154,33.3220896 C29.8710686,32.8518845 30.041751,32.4420908 30.3840353,32.0927085 Z" id="Fill-15" fill="#FFFFFF" mask="url(#mask-6)"></path>
                    <polygon id="Fill-16" fill="#FFFFFF" mask="url(#mask-6)" points="31 49 32 49 32 44 31 44"></polygon>
                    <polygon id="Fill-17" fill="#FFFFFF" mask="url(#mask-6)" points="31 55 32 55 32 50 31 50"></polygon>
                    <polygon id="Fill-18" fill="#FFFFFF" mask="url(#mask-6)" points="28.9594297 49 25 52.9598091 26.0413168 54 30 50.041123"></polygon>
                    <polygon id="Fill-19" fill="#FFFFFF" mask="url(#mask-6)" points="33 50.0411618 36.9584966 54 38 52.9597703 34.0405703 49"></polygon>
                    <polygon id="Fill-20" fill="#FFFFFF" mask="url(#mask-6)" points="20 43.9738665 21.0261809 45 24 42.0261335 22.9740038 41"></polygon>
                    <polygon id="Fill-21" fill="#FFFFFF" mask="url(#mask-6)" points="16 47.9738191 17.0261809 49 20 46.0261809 18.9740038 45"></polygon>
                    <polygon id="Fill-22" fill="#FFFFFF" mask="url(#mask-6)" points="18 43 12 43.0021494 12.0001998 44 17.9986011 43.9978506"></polygon>
                    <polygon id="Fill-23" fill="#FFFFFF" mask="url(#mask-6)" points="20.0021492 47.0013989 20 52.9998002 20.9977244 53 21 47"></polygon>
                    <polygon id="Fill-24" fill="#FFFFFF" mask="url(#mask-6)" points="42.9738665 45 44 43.9738191 41.0263182 41 40 42.0261809"></polygon>
                    <polygon id="Fill-25" fill="#FFFFFF" mask="url(#mask-6)" points="46.9738665 49 48 47.9738191 45.0263182 45 44 46.0259962"></polygon>
                    <polygon id="Fill-26" fill="#FFFFFF" mask="url(#mask-6)" points="42 47 42.0021494 53 43 52.9998002 42.9978506 47.0013989"></polygon>
                    <polygon id="Fill-27" fill="#FFFFFF" mask="url(#mask-6)" points="46.0013989 43.9978506 51.9998002 44 52 43.0021494 46 43"></polygon>
                    <polygon id="Fill-28" fill="#FFFFFF" mask="url(#mask-6)" points="20.0261335 21 19 22.0261809 21.9736818 25 23 23.9738191"></polygon>
                    <polygon id="Fill-29" fill="#FFFFFF" mask="url(#mask-6)" points="16.0261335 17 15 18.0261809 17.9736818 21 19 19.9740038"></polygon>
                    <polygon id="Fill-30" fill="#FFFFFF" mask="url(#mask-6)" points="21 20 20.9978506 14 20 14.0001998 20.0021494 19.9986011"></polygon>
                    <polygon id="Fill-31" fill="#FFFFFF" mask="url(#mask-6)" points="16.9986011 22.0021494 11.0001998 22 11 22.9978506 17 23"></polygon>
                    <polygon id="Fill-32" fill="#FFFFFF" mask="url(#mask-6)" points="17 34 22 34 22 33 17 33"></polygon>
                    <polygon id="Fill-33" fill="#FFFFFF" mask="url(#mask-6)" points="11 34 16 34 16 33 11 33"></polygon>
                    <polygon id="Fill-34" fill="#FFFFFF" mask="url(#mask-6)" points="16 30.9594297 12.0401909 27 11 28.0413168 14.958877 32"></polygon>
                    <polygon id="Fill-35" fill="#FFFFFF" mask="url(#mask-6)" points="14.9588382 36 11 39.9586832 12.0400432 41 16 37.0405703"></polygon>
                    <polygon id="Fill-36" fill="#FFFFFF" mask="url(#mask-6)" points="28 28.9594685 24.0401909 25 23 26.0414645 26.958877 30"></polygon>
                    <polygon id="Fill-37" fill="#FFFFFF" mask="url(#mask-6)" points="34 37.0405315 37.9598091 41 39 39.9585355 35.041123 36"></polygon>
                </g>
                <g id="Group-38-Copy-4" transform="translate(75.000000, 491.000000)">
                    <mask id="mask-8" fill="white">
                        <use xlink:href="#path-7"></use>
                    </mask>
                    <g id="Clip-2"></g>
                    <path d="M23.1501441,21.724888 L26,21.724888 L26,20.7845832 L23.1501441,20.7845832 L23.1501441,21.724888 Z M19.8862118,18.7213624 L20.8496107,18.7213624 L20.8496107,16 L19.8862118,16 L19.8862118,18.7213624 Z M22.6731653,19.7325366 L25.2748452,17.193905 L24.5905217,16.5270391 L21.989455,19.0650732 L22.6731653,19.7325366 Z M21.8338545,20.2179863 C21.3885108,19.7833284 20.8496107,19.570242 20.2382441,19.570242 C19.6270002,19.570242 19.098032,19.7833284 18.663356,20.2179863 C18.2170315,20.6533612 18,21.1783687 18,21.78536 C18,22.3923514 18.2170315,22.9178369 18.663356,23.342695 C19.098032,23.7781894 19.6270002,24 20.2382441,24 C20.8496107,24 21.3885108,23.7781894 21.8338545,23.342695 C22.2691435,22.9178369 22.4870333,22.3923514 22.4870333,21.78536 C22.4870333,21.1783687 22.2691435,20.6533612 21.8338545,20.2179863 Z M21.0773098,22.6048402 C20.8496107,22.8381237 20.5699221,22.9480729 20.2382441,22.9480729 C19.9172338,22.9480729 19.6373,22.8381237 19.4096009,22.6048402 C19.1812887,22.3720347 19.0565876,22.0987153 19.0565876,21.78536 C19.0565876,21.4520466 19.1812887,21.1783687 19.4096009,20.9561996 C19.6373,20.7241111 19.9172338,20.6122498 20.2382441,20.6225276 C20.5699221,20.6122498 20.8496107,20.7241111 21.0873644,20.9561996 C21.3054994,21.1783687 21.4192876,21.4520466 21.4303231,21.78536 C21.4192876,22.0987153 21.3054994,22.3720347 21.0773098,22.6048402 Z" id="Fill-1" fill="#FFFFFF" mask="url(#mask-8)"></path>
                    <polygon id="Fill-3" fill="#FFFFFF" mask="url(#mask-8)" points="20 14 21 14 21 11 20 11"></polygon>
                    <polygon id="Fill-4" fill="#FFFFFF" mask="url(#mask-8)" points="20 11 21 11 21 8 20 8"></polygon>
                    <polygon id="Fill-5" fill="#FFFFFF" mask="url(#mask-8)" points="22.6243422 11 25 8.62411453 24.3752099 8 22 10.3753262"></polygon>
                    <polygon id="Fill-6" fill="#FFFFFF" mask="url(#mask-8)" points="19 10.3753029 16.624902 8 16 8.6241378 18.3756578 11"></polygon>
                    <polygon id="Fill-7" fill="#FFFFFF" mask="url(#mask-8)" points="28 14.7696001 27.2303643 14 25 16.2303999 25.7694972 17"></polygon>
                    <polygon id="Fill-8" fill="#FFFFFF" mask="url(#mask-8)" points="31 10.7696357 30.2303643 10 28 12.2303643 28.7694972 13"></polygon>
                    <polygon id="Fill-9" fill="#FFFFFF" mask="url(#mask-8)" points="29 15 33 14.9978506 32.9998668 14 29.0009326 14.0021494"></polygon>
                    <polygon id="Fill-10" fill="#FFFFFF" mask="url(#mask-8)" points="27.9978508 11.9990674 28 8.00013323 27.0022756 8 27 12"></polygon>
                    <polygon id="Fill-11" fill="#FFFFFF" mask="url(#mask-8)" points="27 21 30 21 30 20 27 20"></polygon>
                    <polygon id="Fill-12" fill="#FFFFFF" mask="url(#mask-8)" points="31 21 34 21 34 20 31 20"></polygon>
                    <polygon id="Fill-13" fill="#FFFFFF" mask="url(#mask-8)" points="31 22.6243189 33.3758855 25 34 24.3751213 31.6246738 22"></polygon>
                    <polygon id="Fill-14" fill="#FFFFFF" mask="url(#mask-8)" points="31.6246971 19 34 16.6247901 33.3759741 16 31 18.3756578"></polygon>
                    <path d="M15,23.2156078 L17.8498559,23.2156078 L17.8498559,22.2751976 L15,22.2751976 L15,23.2156078 Z M20.1503893,28 L21.1137882,28 L21.1137882,25.2786782 L20.1503893,25.2786782 L20.1503893,28 Z M18.3268347,24.2675192 L15.7251548,26.8061128 L16.4094783,27.4728492 L19.0104224,24.9349726 L18.3268347,24.2675192 Z M19.1661455,23.7820768 C19.6114892,24.2166087 20.1503893,24.4298113 20.7617559,24.4298113 C21.3729998,24.4298113 21.9018454,24.2166087 22.336644,23.7820768 C22.7829685,23.3467083 23,22.8215892 23,22.2147264 C23,21.6077441 22.7829685,21.0822665 22.336644,20.6574147 C21.9018454,20.2219268 21.3729998,20 20.7617559,20 C20.1503893,20 19.6114892,20.2219268 19.1661455,20.6574147 C18.7308565,21.0822665 18.5129667,21.6077441 18.5129667,22.2147264 C18.5129667,22.8215892 18.7308565,23.3467083 19.1661455,23.7820768 Z M19.9226902,21.395139 C20.1503893,21.161859 20.4300779,21.0519114 20.7617559,21.0519114 C21.0827662,21.0519114 21.3627,21.161859 21.5902765,21.395139 C21.8187113,21.6280605 21.9432898,21.9012563 21.9432898,22.2147264 C21.9432898,22.5480348 21.8187113,22.8215892 21.5902765,23.0437549 C21.3627,23.2759594 21.0827662,23.3876996 20.7617559,23.3774219 C20.4300779,23.3876996 20.1503893,23.2759594 19.912513,23.0437549 C19.6945006,22.8215892 19.5807124,22.5480348 19.5696769,22.2147264 C19.5807124,21.9012563 19.6945006,21.6280605 19.9226902,21.395139 Z" id="Fill-15" fill="#FFFFFF" mask="url(#mask-8)"></path>
                    <polygon id="Fill-16" fill="#FFFFFF" mask="url(#mask-8)" points="20 32 21 32 21 29 20 29"></polygon>
                    <polygon id="Fill-17" fill="#FFFFFF" mask="url(#mask-8)" points="20 36 21 36 21 33 20 33"></polygon>
                    <polygon id="Fill-18" fill="#FFFFFF" mask="url(#mask-8)" points="18.3756578 32 16 34.3758855 16.6247901 35 19 32.6246738"></polygon>
                    <polygon id="Fill-19" fill="#FFFFFF" mask="url(#mask-8)" points="21 32.6246971 23.375098 35 24 34.3758622 21.6243422 32"></polygon>
                    <polygon id="Fill-20" fill="#FFFFFF" mask="url(#mask-8)" points="13 29.2303999 13.7696357 30 16 27.7696001 15.2305028 27"></polygon>
                    <polygon id="Fill-21" fill="#FFFFFF" mask="url(#mask-8)" points="10 31.2303643 10.7696357 32 13 29.7696357 12.2305028 29"></polygon>
                    <polygon id="Fill-22" fill="#FFFFFF" mask="url(#mask-8)" points="12 28 8 28.0021494 8.00013323 29 11.9990674 28.9978506"></polygon>
                    <polygon id="Fill-23" fill="#FFFFFF" mask="url(#mask-8)" points="13.0021492 31.0009326 13 34.9998668 13.9977244 35 14 31"></polygon>
                    <polygon id="Fill-24" fill="#FFFFFF" mask="url(#mask-8)" points="28.2303999 30 29 29.2303643 26.7697387 27 26 27.7696357"></polygon>
                    <polygon id="Fill-25" fill="#FFFFFF" mask="url(#mask-8)" points="31.2303999 32 32 31.2303643 29.7697387 29 29 29.7694972"></polygon>
                    <polygon id="Fill-26" fill="#FFFFFF" mask="url(#mask-8)" points="27 31 27.0021494 35 28 34.9998668 27.9978506 31.0009326"></polygon>
                    <polygon id="Fill-27" fill="#FFFFFF" mask="url(#mask-8)" points="30.0009326 28.9978506 33.9998668 29 34 28.0021494 30 28"></polygon>
                    <polygon id="Fill-28" fill="#FFFFFF" mask="url(#mask-8)" points="12.7696001 14 12 14.7696357 14.2302613 17 15 16.2303643"></polygon>
                    <polygon id="Fill-29" fill="#FFFFFF" mask="url(#mask-8)" points="10.7696001 11 10 11.7696357 12.2302613 14 13 13.2305028"></polygon>
                    <polygon id="Fill-30" fill="#FFFFFF" mask="url(#mask-8)" points="14 13 13.9978506 9 13 9.00013323 13.0021494 12.9990674"></polygon>
                    <polygon id="Fill-31" fill="#FFFFFF" mask="url(#mask-8)" points="10.9990674 14.0021494 7.00013323 14 7 14.9978506 11 15"></polygon>
                    <polygon id="Fill-32" fill="#FFFFFF" mask="url(#mask-8)" points="11 23 14 23 14 22 11 22"></polygon>
                    <polygon id="Fill-33" fill="#FFFFFF" mask="url(#mask-8)" points="7 23 10 23 10 22 7 22"></polygon>
                    <polygon id="Fill-34" fill="#FFFFFF" mask="url(#mask-8)" points="10 20.3756578 7.62411453 18 7 18.6247901 9.37532622 21"></polygon>
                    <polygon id="Fill-35" fill="#FFFFFF" mask="url(#mask-8)" points="9.37530293 23 7 25.3752099 7.62402595 26 10 23.6243422"></polygon>
                    <polygon id="Fill-36" fill="#FFFFFF" mask="url(#mask-8)" points="18 18.3756811 15.6241145 16 15 16.6248787 17.3753262 19"></polygon>
                    <polygon id="Fill-37" fill="#FFFFFF" mask="url(#mask-8)" points="22 23.6243189 24.3758855 26 25 25.3751213 22.6246738 23"></polygon>
                </g>
                <g id="Group-38-Copy-5" transform="translate(232.000000, 21.000000)">
                    <mask id="mask-10" fill="white">
                        <use xlink:href="#path-9"></use>
                    </mask>
                    <g id="Clip-2"></g>
                    <path d="M23.1501441,21.724888 L26,21.724888 L26,20.7845832 L23.1501441,20.7845832 L23.1501441,21.724888 Z M19.8862118,18.7213624 L20.8496107,18.7213624 L20.8496107,16 L19.8862118,16 L19.8862118,18.7213624 Z M22.6731653,19.7325366 L25.2748452,17.193905 L24.5905217,16.5270391 L21.989455,19.0650732 L22.6731653,19.7325366 Z M21.8338545,20.2179863 C21.3885108,19.7833284 20.8496107,19.570242 20.2382441,19.570242 C19.6270002,19.570242 19.098032,19.7833284 18.663356,20.2179863 C18.2170315,20.6533612 18,21.1783687 18,21.78536 C18,22.3923514 18.2170315,22.9178369 18.663356,23.342695 C19.098032,23.7781894 19.6270002,24 20.2382441,24 C20.8496107,24 21.3885108,23.7781894 21.8338545,23.342695 C22.2691435,22.9178369 22.4870333,22.3923514 22.4870333,21.78536 C22.4870333,21.1783687 22.2691435,20.6533612 21.8338545,20.2179863 Z M21.0773098,22.6048402 C20.8496107,22.8381237 20.5699221,22.9480729 20.2382441,22.9480729 C19.9172338,22.9480729 19.6373,22.8381237 19.4096009,22.6048402 C19.1812887,22.3720347 19.0565876,22.0987153 19.0565876,21.78536 C19.0565876,21.4520466 19.1812887,21.1783687 19.4096009,20.9561996 C19.6373,20.7241111 19.9172338,20.6122498 20.2382441,20.6225276 C20.5699221,20.6122498 20.8496107,20.7241111 21.0873644,20.9561996 C21.3054994,21.1783687 21.4192876,21.4520466 21.4303231,21.78536 C21.4192876,22.0987153 21.3054994,22.3720347 21.0773098,22.6048402 Z" id="Fill-1" fill="#FFFFFF" mask="url(#mask-10)"></path>
                    <polygon id="Fill-3" fill="#FFFFFF" mask="url(#mask-10)" points="20 14 21 14 21 11 20 11"></polygon>
                    <polygon id="Fill-4" fill="#FFFFFF" mask="url(#mask-10)" points="20 11 21 11 21 8 20 8"></polygon>
                    <polygon id="Fill-5" fill="#FFFFFF" mask="url(#mask-10)" points="22.6243422 11 25 8.62411453 24.3752099 8 22 10.3753262"></polygon>
                    <polygon id="Fill-6" fill="#FFFFFF" mask="url(#mask-10)" points="19 10.3753029 16.624902 8 16 8.6241378 18.3756578 11"></polygon>
                    <polygon id="Fill-7" fill="#FFFFFF" mask="url(#mask-10)" points="28 14.7696001 27.2303643 14 25 16.2303999 25.7694972 17"></polygon>
                    <polygon id="Fill-8" fill="#FFFFFF" mask="url(#mask-10)" points="31 10.7696357 30.2303643 10 28 12.2303643 28.7694972 13"></polygon>
                    <polygon id="Fill-9" fill="#FFFFFF" mask="url(#mask-10)" points="29 15 33 14.9978506 32.9998668 14 29.0009326 14.0021494"></polygon>
                    <polygon id="Fill-10" fill="#FFFFFF" mask="url(#mask-10)" points="27.9978508 11.9990674 28 8.00013323 27.0022756 8 27 12"></polygon>
                    <polygon id="Fill-11" fill="#FFFFFF" mask="url(#mask-10)" points="27 21 30 21 30 20 27 20"></polygon>
                    <polygon id="Fill-12" fill="#FFFFFF" mask="url(#mask-10)" points="31 21 34 21 34 20 31 20"></polygon>
                    <polygon id="Fill-13" fill="#FFFFFF" mask="url(#mask-10)" points="31 22.6243189 33.3758855 25 34 24.3751213 31.6246738 22"></polygon>
                    <polygon id="Fill-14" fill="#FFFFFF" mask="url(#mask-10)" points="31.6246971 19 34 16.6247901 33.3759741 16 31 18.3756578"></polygon>
                    <path d="M15,23.2156078 L17.8498559,23.2156078 L17.8498559,22.2751976 L15,22.2751976 L15,23.2156078 Z M20.1503893,28 L21.1137882,28 L21.1137882,25.2786782 L20.1503893,25.2786782 L20.1503893,28 Z M18.3268347,24.2675192 L15.7251548,26.8061128 L16.4094783,27.4728492 L19.0104224,24.9349726 L18.3268347,24.2675192 Z M19.1661455,23.7820768 C19.6114892,24.2166087 20.1503893,24.4298113 20.7617559,24.4298113 C21.3729998,24.4298113 21.9018454,24.2166087 22.336644,23.7820768 C22.7829685,23.3467083 23,22.8215892 23,22.2147264 C23,21.6077441 22.7829685,21.0822665 22.336644,20.6574147 C21.9018454,20.2219268 21.3729998,20 20.7617559,20 C20.1503893,20 19.6114892,20.2219268 19.1661455,20.6574147 C18.7308565,21.0822665 18.5129667,21.6077441 18.5129667,22.2147264 C18.5129667,22.8215892 18.7308565,23.3467083 19.1661455,23.7820768 Z M19.9226902,21.395139 C20.1503893,21.161859 20.4300779,21.0519114 20.7617559,21.0519114 C21.0827662,21.0519114 21.3627,21.161859 21.5902765,21.395139 C21.8187113,21.6280605 21.9432898,21.9012563 21.9432898,22.2147264 C21.9432898,22.5480348 21.8187113,22.8215892 21.5902765,23.0437549 C21.3627,23.2759594 21.0827662,23.3876996 20.7617559,23.3774219 C20.4300779,23.3876996 20.1503893,23.2759594 19.912513,23.0437549 C19.6945006,22.8215892 19.5807124,22.5480348 19.5696769,22.2147264 C19.5807124,21.9012563 19.6945006,21.6280605 19.9226902,21.395139 Z" id="Fill-15" fill="#FFFFFF" mask="url(#mask-10)"></path>
                    <polygon id="Fill-16" fill="#FFFFFF" mask="url(#mask-10)" points="20 32 21 32 21 29 20 29"></polygon>
                    <polygon id="Fill-17" fill="#FFFFFF" mask="url(#mask-10)" points="20 36 21 36 21 33 20 33"></polygon>
                    <polygon id="Fill-18" fill="#FFFFFF" mask="url(#mask-10)" points="18.3756578 32 16 34.3758855 16.6247901 35 19 32.6246738"></polygon>
                    <polygon id="Fill-19" fill="#FFFFFF" mask="url(#mask-10)" points="21 32.6246971 23.375098 35 24 34.3758622 21.6243422 32"></polygon>
                    <polygon id="Fill-20" fill="#FFFFFF" mask="url(#mask-10)" points="13 29.2303999 13.7696357 30 16 27.7696001 15.2305028 27"></polygon>
                    <polygon id="Fill-21" fill="#FFFFFF" mask="url(#mask-10)" points="10 31.2303643 10.7696357 32 13 29.7696357 12.2305028 29"></polygon>
                    <polygon id="Fill-22" fill="#FFFFFF" mask="url(#mask-10)" points="12 28 8 28.0021494 8.00013323 29 11.9990674 28.9978506"></polygon>
                    <polygon id="Fill-23" fill="#FFFFFF" mask="url(#mask-10)" points="13.0021492 31.0009326 13 34.9998668 13.9977244 35 14 31"></polygon>
                    <polygon id="Fill-24" fill="#FFFFFF" mask="url(#mask-10)" points="28.2303999 30 29 29.2303643 26.7697387 27 26 27.7696357"></polygon>
                    <polygon id="Fill-25" fill="#FFFFFF" mask="url(#mask-10)" points="31.2303999 32 32 31.2303643 29.7697387 29 29 29.7694972"></polygon>
                    <polygon id="Fill-26" fill="#FFFFFF" mask="url(#mask-10)" points="27 31 27.0021494 35 28 34.9998668 27.9978506 31.0009326"></polygon>
                    <polygon id="Fill-27" fill="#FFFFFF" mask="url(#mask-10)" points="30.0009326 28.9978506 33.9998668 29 34 28.0021494 30 28"></polygon>
                    <polygon id="Fill-28" fill="#FFFFFF" mask="url(#mask-10)" points="12.7696001 14 12 14.7696357 14.2302613 17 15 16.2303643"></polygon>
                    <polygon id="Fill-29" fill="#FFFFFF" mask="url(#mask-10)" points="10.7696001 11 10 11.7696357 12.2302613 14 13 13.2305028"></polygon>
                    <polygon id="Fill-30" fill="#FFFFFF" mask="url(#mask-10)" points="14 13 13.9978506 9 13 9.00013323 13.0021494 12.9990674"></polygon>
                    <polygon id="Fill-31" fill="#FFFFFF" mask="url(#mask-10)" points="10.9990674 14.0021494 7.00013323 14 7 14.9978506 11 15"></polygon>
                    <polygon id="Fill-32" fill="#FFFFFF" mask="url(#mask-10)" points="11 23 14 23 14 22 11 22"></polygon>
                    <polygon id="Fill-33" fill="#FFFFFF" mask="url(#mask-10)" points="7 23 10 23 10 22 7 22"></polygon>
                    <polygon id="Fill-34" fill="#FFFFFF" mask="url(#mask-10)" points="10 20.3756578 7.62411453 18 7 18.6247901 9.37532622 21"></polygon>
                    <polygon id="Fill-35" fill="#FFFFFF" mask="url(#mask-10)" points="9.37530293 23 7 25.3752099 7.62402595 26 10 23.6243422"></polygon>
                    <polygon id="Fill-36" fill="#FFFFFF" mask="url(#mask-10)" points="18 18.3756811 15.6241145 16 15 16.6248787 17.3753262 19"></polygon>
                    <polygon id="Fill-37" fill="#FFFFFF" mask="url(#mask-10)" points="22 23.6243189 24.3758855 26 25 25.3751213 22.6246738 23"></polygon>
                </g>
                <g id="Group-38-Copy-7" transform="translate(47.000000, 656.000000)">
                    <mask id="mask-12" fill="white">
                        <use xlink:href="#path-11"></use>
                    </mask>
                    <g id="Clip-2"></g>
                    <path d="M23.1501441,21.724888 L26,21.724888 L26,20.7845832 L23.1501441,20.7845832 L23.1501441,21.724888 Z M19.8862118,18.7213624 L20.8496107,18.7213624 L20.8496107,16 L19.8862118,16 L19.8862118,18.7213624 Z M22.6731653,19.7325366 L25.2748452,17.193905 L24.5905217,16.5270391 L21.989455,19.0650732 L22.6731653,19.7325366 Z M21.8338545,20.2179863 C21.3885108,19.7833284 20.8496107,19.570242 20.2382441,19.570242 C19.6270002,19.570242 19.098032,19.7833284 18.663356,20.2179863 C18.2170315,20.6533612 18,21.1783687 18,21.78536 C18,22.3923514 18.2170315,22.9178369 18.663356,23.342695 C19.098032,23.7781894 19.6270002,24 20.2382441,24 C20.8496107,24 21.3885108,23.7781894 21.8338545,23.342695 C22.2691435,22.9178369 22.4870333,22.3923514 22.4870333,21.78536 C22.4870333,21.1783687 22.2691435,20.6533612 21.8338545,20.2179863 Z M21.0773098,22.6048402 C20.8496107,22.8381237 20.5699221,22.9480729 20.2382441,22.9480729 C19.9172338,22.9480729 19.6373,22.8381237 19.4096009,22.6048402 C19.1812887,22.3720347 19.0565876,22.0987153 19.0565876,21.78536 C19.0565876,21.4520466 19.1812887,21.1783687 19.4096009,20.9561996 C19.6373,20.7241111 19.9172338,20.6122498 20.2382441,20.6225276 C20.5699221,20.6122498 20.8496107,20.7241111 21.0873644,20.9561996 C21.3054994,21.1783687 21.4192876,21.4520466 21.4303231,21.78536 C21.4192876,22.0987153 21.3054994,22.3720347 21.0773098,22.6048402 Z" id="Fill-1" fill="#FFFFFF" mask="url(#mask-12)"></path>
                    <polygon id="Fill-3" fill="#FFFFFF" mask="url(#mask-12)" points="20 14 21 14 21 11 20 11"></polygon>
                    <polygon id="Fill-4" fill="#FFFFFF" mask="url(#mask-12)" points="20 11 21 11 21 8 20 8"></polygon>
                    <polygon id="Fill-5" fill="#FFFFFF" mask="url(#mask-12)" points="22.6243422 11 25 8.62411453 24.3752099 8 22 10.3753262"></polygon>
                    <polygon id="Fill-6" fill="#FFFFFF" mask="url(#mask-12)" points="19 10.3753029 16.624902 8 16 8.6241378 18.3756578 11"></polygon>
                    <polygon id="Fill-7" fill="#FFFFFF" mask="url(#mask-12)" points="28 14.7696001 27.2303643 14 25 16.2303999 25.7694972 17"></polygon>
                    <polygon id="Fill-8" fill="#FFFFFF" mask="url(#mask-12)" points="31 10.7696357 30.2303643 10 28 12.2303643 28.7694972 13"></polygon>
                    <polygon id="Fill-9" fill="#FFFFFF" mask="url(#mask-12)" points="29 15 33 14.9978506 32.9998668 14 29.0009326 14.0021494"></polygon>
                    <polygon id="Fill-10" fill="#FFFFFF" mask="url(#mask-12)" points="27.9978508 11.9990674 28 8.00013323 27.0022756 8 27 12"></polygon>
                    <polygon id="Fill-11" fill="#FFFFFF" mask="url(#mask-12)" points="27 21 30 21 30 20 27 20"></polygon>
                    <polygon id="Fill-12" fill="#FFFFFF" mask="url(#mask-12)" points="31 21 34 21 34 20 31 20"></polygon>
                    <polygon id="Fill-13" fill="#FFFFFF" mask="url(#mask-12)" points="31 22.6243189 33.3758855 25 34 24.3751213 31.6246738 22"></polygon>
                    <polygon id="Fill-14" fill="#FFFFFF" mask="url(#mask-12)" points="31.6246971 19 34 16.6247901 33.3759741 16 31 18.3756578"></polygon>
                    <path d="M15,23.2156078 L17.8498559,23.2156078 L17.8498559,22.2751976 L15,22.2751976 L15,23.2156078 Z M20.1503893,28 L21.1137882,28 L21.1137882,25.2786782 L20.1503893,25.2786782 L20.1503893,28 Z M18.3268347,24.2675192 L15.7251548,26.8061128 L16.4094783,27.4728492 L19.0104224,24.9349726 L18.3268347,24.2675192 Z M19.1661455,23.7820768 C19.6114892,24.2166087 20.1503893,24.4298113 20.7617559,24.4298113 C21.3729998,24.4298113 21.9018454,24.2166087 22.336644,23.7820768 C22.7829685,23.3467083 23,22.8215892 23,22.2147264 C23,21.6077441 22.7829685,21.0822665 22.336644,20.6574147 C21.9018454,20.2219268 21.3729998,20 20.7617559,20 C20.1503893,20 19.6114892,20.2219268 19.1661455,20.6574147 C18.7308565,21.0822665 18.5129667,21.6077441 18.5129667,22.2147264 C18.5129667,22.8215892 18.7308565,23.3467083 19.1661455,23.7820768 Z M19.9226902,21.395139 C20.1503893,21.161859 20.4300779,21.0519114 20.7617559,21.0519114 C21.0827662,21.0519114 21.3627,21.161859 21.5902765,21.395139 C21.8187113,21.6280605 21.9432898,21.9012563 21.9432898,22.2147264 C21.9432898,22.5480348 21.8187113,22.8215892 21.5902765,23.0437549 C21.3627,23.2759594 21.0827662,23.3876996 20.7617559,23.3774219 C20.4300779,23.3876996 20.1503893,23.2759594 19.912513,23.0437549 C19.6945006,22.8215892 19.5807124,22.5480348 19.5696769,22.2147264 C19.5807124,21.9012563 19.6945006,21.6280605 19.9226902,21.395139 Z" id="Fill-15" fill="#FFFFFF" mask="url(#mask-12)"></path>
                    <polygon id="Fill-16" fill="#FFFFFF" mask="url(#mask-12)" points="20 32 21 32 21 29 20 29"></polygon>
                    <polygon id="Fill-17" fill="#FFFFFF" mask="url(#mask-12)" points="20 36 21 36 21 33 20 33"></polygon>
                    <polygon id="Fill-18" fill="#FFFFFF" mask="url(#mask-12)" points="18.3756578 32 16 34.3758855 16.6247901 35 19 32.6246738"></polygon>
                    <polygon id="Fill-19" fill="#FFFFFF" mask="url(#mask-12)" points="21 32.6246971 23.375098 35 24 34.3758622 21.6243422 32"></polygon>
                    <polygon id="Fill-20" fill="#FFFFFF" mask="url(#mask-12)" points="13 29.2303999 13.7696357 30 16 27.7696001 15.2305028 27"></polygon>
                    <polygon id="Fill-21" fill="#FFFFFF" mask="url(#mask-12)" points="10 31.2303643 10.7696357 32 13 29.7696357 12.2305028 29"></polygon>
                    <polygon id="Fill-22" fill="#FFFFFF" mask="url(#mask-12)" points="12 28 8 28.0021494 8.00013323 29 11.9990674 28.9978506"></polygon>
                    <polygon id="Fill-23" fill="#FFFFFF" mask="url(#mask-12)" points="13.0021492 31.0009326 13 34.9998668 13.9977244 35 14 31"></polygon>
                    <polygon id="Fill-24" fill="#FFFFFF" mask="url(#mask-12)" points="28.2303999 30 29 29.2303643 26.7697387 27 26 27.7696357"></polygon>
                    <polygon id="Fill-25" fill="#FFFFFF" mask="url(#mask-12)" points="31.2303999 32 32 31.2303643 29.7697387 29 29 29.7694972"></polygon>
                    <polygon id="Fill-26" fill="#FFFFFF" mask="url(#mask-12)" points="27 31 27.0021494 35 28 34.9998668 27.9978506 31.0009326"></polygon>
                    <polygon id="Fill-27" fill="#FFFFFF" mask="url(#mask-12)" points="30.0009326 28.9978506 33.9998668 29 34 28.0021494 30 28"></polygon>
                    <polygon id="Fill-28" fill="#FFFFFF" mask="url(#mask-12)" points="12.7696001 14 12 14.7696357 14.2302613 17 15 16.2303643"></polygon>
                    <polygon id="Fill-29" fill="#FFFFFF" mask="url(#mask-12)" points="10.7696001 11 10 11.7696357 12.2302613 14 13 13.2305028"></polygon>
                    <polygon id="Fill-30" fill="#FFFFFF" mask="url(#mask-12)" points="14 13 13.9978506 9 13 9.00013323 13.0021494 12.9990674"></polygon>
                    <polygon id="Fill-31" fill="#FFFFFF" mask="url(#mask-12)" points="10.9990674 14.0021494 7.00013323 14 7 14.9978506 11 15"></polygon>
                    <polygon id="Fill-32" fill="#FFFFFF" mask="url(#mask-12)" points="11 23 14 23 14 22 11 22"></polygon>
                    <polygon id="Fill-33" fill="#FFFFFF" mask="url(#mask-12)" points="7 23 10 23 10 22 7 22"></polygon>
                    <polygon id="Fill-34" fill="#FFFFFF" mask="url(#mask-12)" points="10 20.3756578 7.62411453 18 7 18.6247901 9.37532622 21"></polygon>
                    <polygon id="Fill-35" fill="#FFFFFF" mask="url(#mask-12)" points="9.37530293 23 7 25.3752099 7.62402595 26 10 23.6243422"></polygon>
                    <polygon id="Fill-36" fill="#FFFFFF" mask="url(#mask-12)" points="18 18.3756811 15.6241145 16 15 16.6248787 17.3753262 19"></polygon>
                    <polygon id="Fill-37" fill="#FFFFFF" mask="url(#mask-12)" points="22 23.6243189 24.3758855 26 25 25.3751213 22.6246738 23"></polygon>
                </g>
                <g id="Group-38-Copy-6" transform="translate(920.000000, 617.000000)">
                    <mask id="mask-14" fill="white">
                        <use xlink:href="#path-13"></use>
                    </mask>
                    <g id="Clip-2"></g>
                    <path d="M23.1501441,21.724888 L26,21.724888 L26,20.7845832 L23.1501441,20.7845832 L23.1501441,21.724888 Z M19.8862118,18.7213624 L20.8496107,18.7213624 L20.8496107,16 L19.8862118,16 L19.8862118,18.7213624 Z M22.6731653,19.7325366 L25.2748452,17.193905 L24.5905217,16.5270391 L21.989455,19.0650732 L22.6731653,19.7325366 Z M21.8338545,20.2179863 C21.3885108,19.7833284 20.8496107,19.570242 20.2382441,19.570242 C19.6270002,19.570242 19.098032,19.7833284 18.663356,20.2179863 C18.2170315,20.6533612 18,21.1783687 18,21.78536 C18,22.3923514 18.2170315,22.9178369 18.663356,23.342695 C19.098032,23.7781894 19.6270002,24 20.2382441,24 C20.8496107,24 21.3885108,23.7781894 21.8338545,23.342695 C22.2691435,22.9178369 22.4870333,22.3923514 22.4870333,21.78536 C22.4870333,21.1783687 22.2691435,20.6533612 21.8338545,20.2179863 Z M21.0773098,22.6048402 C20.8496107,22.8381237 20.5699221,22.9480729 20.2382441,22.9480729 C19.9172338,22.9480729 19.6373,22.8381237 19.4096009,22.6048402 C19.1812887,22.3720347 19.0565876,22.0987153 19.0565876,21.78536 C19.0565876,21.4520466 19.1812887,21.1783687 19.4096009,20.9561996 C19.6373,20.7241111 19.9172338,20.6122498 20.2382441,20.6225276 C20.5699221,20.6122498 20.8496107,20.7241111 21.0873644,20.9561996 C21.3054994,21.1783687 21.4192876,21.4520466 21.4303231,21.78536 C21.4192876,22.0987153 21.3054994,22.3720347 21.0773098,22.6048402 Z" id="Fill-1" fill="#FFFFFF" mask="url(#mask-14)"></path>
                    <polygon id="Fill-3" fill="#FFFFFF" mask="url(#mask-14)" points="20 14 21 14 21 11 20 11"></polygon>
                    <polygon id="Fill-4" fill="#FFFFFF" mask="url(#mask-14)" points="20 11 21 11 21 8 20 8"></polygon>
                    <polygon id="Fill-5" fill="#FFFFFF" mask="url(#mask-14)" points="22.6243422 11 25 8.62411453 24.3752099 8 22 10.3753262"></polygon>
                    <polygon id="Fill-6" fill="#FFFFFF" mask="url(#mask-14)" points="19 10.3753029 16.624902 8 16 8.6241378 18.3756578 11"></polygon>
                    <polygon id="Fill-7" fill="#FFFFFF" mask="url(#mask-14)" points="28 14.7696001 27.2303643 14 25 16.2303999 25.7694972 17"></polygon>
                    <polygon id="Fill-8" fill="#FFFFFF" mask="url(#mask-14)" points="31 10.7696357 30.2303643 10 28 12.2303643 28.7694972 13"></polygon>
                    <polygon id="Fill-9" fill="#FFFFFF" mask="url(#mask-14)" points="29 15 33 14.9978506 32.9998668 14 29.0009326 14.0021494"></polygon>
                    <polygon id="Fill-10" fill="#FFFFFF" mask="url(#mask-14)" points="27.9978508 11.9990674 28 8.00013323 27.0022756 8 27 12"></polygon>
                    <polygon id="Fill-11" fill="#FFFFFF" mask="url(#mask-14)" points="27 21 30 21 30 20 27 20"></polygon>
                    <polygon id="Fill-12" fill="#FFFFFF" mask="url(#mask-14)" points="31 21 34 21 34 20 31 20"></polygon>
                    <polygon id="Fill-13" fill="#FFFFFF" mask="url(#mask-14)" points="31 22.6243189 33.3758855 25 34 24.3751213 31.6246738 22"></polygon>
                    <polygon id="Fill-14" fill="#FFFFFF" mask="url(#mask-14)" points="31.6246971 19 34 16.6247901 33.3759741 16 31 18.3756578"></polygon>
                    <path d="M15,23.2156078 L17.8498559,23.2156078 L17.8498559,22.2751976 L15,22.2751976 L15,23.2156078 Z M20.1503893,28 L21.1137882,28 L21.1137882,25.2786782 L20.1503893,25.2786782 L20.1503893,28 Z M18.3268347,24.2675192 L15.7251548,26.8061128 L16.4094783,27.4728492 L19.0104224,24.9349726 L18.3268347,24.2675192 Z M19.1661455,23.7820768 C19.6114892,24.2166087 20.1503893,24.4298113 20.7617559,24.4298113 C21.3729998,24.4298113 21.9018454,24.2166087 22.336644,23.7820768 C22.7829685,23.3467083 23,22.8215892 23,22.2147264 C23,21.6077441 22.7829685,21.0822665 22.336644,20.6574147 C21.9018454,20.2219268 21.3729998,20 20.7617559,20 C20.1503893,20 19.6114892,20.2219268 19.1661455,20.6574147 C18.7308565,21.0822665 18.5129667,21.6077441 18.5129667,22.2147264 C18.5129667,22.8215892 18.7308565,23.3467083 19.1661455,23.7820768 Z M19.9226902,21.395139 C20.1503893,21.161859 20.4300779,21.0519114 20.7617559,21.0519114 C21.0827662,21.0519114 21.3627,21.161859 21.5902765,21.395139 C21.8187113,21.6280605 21.9432898,21.9012563 21.9432898,22.2147264 C21.9432898,22.5480348 21.8187113,22.8215892 21.5902765,23.0437549 C21.3627,23.2759594 21.0827662,23.3876996 20.7617559,23.3774219 C20.4300779,23.3876996 20.1503893,23.2759594 19.912513,23.0437549 C19.6945006,22.8215892 19.5807124,22.5480348 19.5696769,22.2147264 C19.5807124,21.9012563 19.6945006,21.6280605 19.9226902,21.395139 Z" id="Fill-15" fill="#FFFFFF" mask="url(#mask-14)"></path>
                    <polygon id="Fill-16" fill="#FFFFFF" mask="url(#mask-14)" points="20 32 21 32 21 29 20 29"></polygon>
                    <polygon id="Fill-17" fill="#FFFFFF" mask="url(#mask-14)" points="20 36 21 36 21 33 20 33"></polygon>
                    <polygon id="Fill-18" fill="#FFFFFF" mask="url(#mask-14)" points="18.3756578 32 16 34.3758855 16.6247901 35 19 32.6246738"></polygon>
                    <polygon id="Fill-19" fill="#FFFFFF" mask="url(#mask-14)" points="21 32.6246971 23.375098 35 24 34.3758622 21.6243422 32"></polygon>
                    <polygon id="Fill-20" fill="#FFFFFF" mask="url(#mask-14)" points="13 29.2303999 13.7696357 30 16 27.7696001 15.2305028 27"></polygon>
                    <polygon id="Fill-21" fill="#FFFFFF" mask="url(#mask-14)" points="10 31.2303643 10.7696357 32 13 29.7696357 12.2305028 29"></polygon>
                    <polygon id="Fill-22" fill="#FFFFFF" mask="url(#mask-14)" points="12 28 8 28.0021494 8.00013323 29 11.9990674 28.9978506"></polygon>
                    <polygon id="Fill-23" fill="#FFFFFF" mask="url(#mask-14)" points="13.0021492 31.0009326 13 34.9998668 13.9977244 35 14 31"></polygon>
                    <polygon id="Fill-24" fill="#FFFFFF" mask="url(#mask-14)" points="28.2303999 30 29 29.2303643 26.7697387 27 26 27.7696357"></polygon>
                    <polygon id="Fill-25" fill="#FFFFFF" mask="url(#mask-14)" points="31.2303999 32 32 31.2303643 29.7697387 29 29 29.7694972"></polygon>
                    <polygon id="Fill-26" fill="#FFFFFF" mask="url(#mask-14)" points="27 31 27.0021494 35 28 34.9998668 27.9978506 31.0009326"></polygon>
                    <polygon id="Fill-27" fill="#FFFFFF" mask="url(#mask-14)" points="30.0009326 28.9978506 33.9998668 29 34 28.0021494 30 28"></polygon>
                    <polygon id="Fill-28" fill="#FFFFFF" mask="url(#mask-14)" points="12.7696001 14 12 14.7696357 14.2302613 17 15 16.2303643"></polygon>
                    <polygon id="Fill-29" fill="#FFFFFF" mask="url(#mask-14)" points="10.7696001 11 10 11.7696357 12.2302613 14 13 13.2305028"></polygon>
                    <polygon id="Fill-30" fill="#FFFFFF" mask="url(#mask-14)" points="14 13 13.9978506 9 13 9.00013323 13.0021494 12.9990674"></polygon>
                    <polygon id="Fill-31" fill="#FFFFFF" mask="url(#mask-14)" points="10.9990674 14.0021494 7.00013323 14 7 14.9978506 11 15"></polygon>
                    <polygon id="Fill-32" fill="#FFFFFF" mask="url(#mask-14)" points="11 23 14 23 14 22 11 22"></polygon>
                    <polygon id="Fill-33" fill="#FFFFFF" mask="url(#mask-14)" points="7 23 10 23 10 22 7 22"></polygon>
                    <polygon id="Fill-34" fill="#FFFFFF" mask="url(#mask-14)" points="10 20.3756578 7.62411453 18 7 18.6247901 9.37532622 21"></polygon>
                    <polygon id="Fill-35" fill="#FFFFFF" mask="url(#mask-14)" points="9.37530293 23 7 25.3752099 7.62402595 26 10 23.6243422"></polygon>
                    <polygon id="Fill-36" fill="#FFFFFF" mask="url(#mask-14)" points="18 18.3756811 15.6241145 16 15 16.6248787 17.3753262 19"></polygon>
                    <polygon id="Fill-37" fill="#FFFFFF" mask="url(#mask-14)" points="22 23.6243189 24.3758855 26 25 25.3751213 22.6246738 23"></polygon>
                </g>
                <g id="Group-38-Copy-2" transform="translate(611.000000, 89.000000)">
                    <mask id="mask-16" fill="white">
                        <use xlink:href="#path-15"></use>
                    </mask>
                    <g id="Clip-2"></g>
                    <path d="M25.7939121,23.440499 L29,23.440499 L29,22.3826561 L25.7939121,22.3826561 L25.7939121,23.440499 Z M22.1219882,20.0615327 L23.205812,20.0615327 L23.205812,17 L22.1219882,17 L22.1219882,20.0615327 Z M25.257311,21.1991037 L28.1842008,18.3431431 L27.414337,17.592919 L24.4881368,20.4482073 L25.257311,21.1991037 Z M24.3130863,21.7452345 C23.8120747,21.2562444 23.205812,21.0165223 22.5180246,21.0165223 C21.8303752,21.0165223 21.235286,21.2562444 20.7462755,21.7452345 C20.2441604,22.2350314 20,22.8256648 20,23.50853 C20,24.1913953 20.2441604,24.7825665 20.7462755,25.2605318 C21.235286,25.7504631 21.8303752,26 22.5180246,26 C23.205812,26 23.8120747,25.7504631 24.3130863,25.2605318 C24.8027865,24.7825665 25.0479125,24.1913953 25.0479125,23.50853 C25.0479125,22.8256648 24.8027865,22.2350314 24.3130863,21.7452345 Z M23.4619735,24.4304452 C23.205812,24.6928892 22.8911624,24.816582 22.5180246,24.816582 C22.156888,24.816582 21.8419625,24.6928892 21.585801,24.4304452 C21.3289498,24.168539 21.188661,23.8610547 21.188661,23.50853 C21.188661,23.1335524 21.3289498,22.8256648 21.585801,22.5757245 C21.8419625,22.314625 22.156888,22.188781 22.5180246,22.2003436 C22.8911624,22.188781 23.205812,22.314625 23.4732849,22.5757245 C23.7186868,22.8256648 23.8466985,23.1335524 23.8591135,23.50853 C23.8466985,23.8610547 23.7186868,24.168539 23.4619735,24.4304452 Z" id="Fill-1" fill="#FFFFFF" mask="url(#mask-16)"></path>
                    <polygon id="Fill-3" fill="#FFFFFF" mask="url(#mask-16)" points="23 16 24 16 24 12 23 12"></polygon>
                    <polygon id="Fill-4" fill="#FFFFFF" mask="url(#mask-16)" points="23 13 24 13 24 9 23 9"></polygon>
                    <polygon id="Fill-5" fill="#FFFFFF" mask="url(#mask-16)" points="25.8324562 13 29 9.83215271 28.1669466 9 25 12.1671016"></polygon>
                    <polygon id="Fill-6" fill="#FFFFFF" mask="url(#mask-16)" points="22 12.1670706 18.8332027 9 18 9.83218374 21.1675438 13"></polygon>
                    <polygon id="Fill-7" fill="#FFFFFF" mask="url(#mask-16)" points="31 15.7696001 30.2303643 15 28 17.2303999 28.7694972 18"></polygon>
                    <polygon id="Fill-8" fill="#FFFFFF" mask="url(#mask-16)" points="34 12.7696357 33.2303643 12 31 14.2303643 31.7694972 15"></polygon>
                    <polygon id="Fill-9" fill="#FFFFFF" mask="url(#mask-16)" points="33 16 37 15.9978506 36.9998668 15 33.0009326 15.0021494"></polygon>
                    <polygon id="Fill-10" fill="#FFFFFF" mask="url(#mask-16)" points="30.9978508 12.9990674 31 9.00013323 30.0022756 9 30 13"></polygon>
                    <polygon id="Fill-11" fill="#FFFFFF" mask="url(#mask-16)" points="31 24 35 24 35 23 31 23"></polygon>
                    <polygon id="Fill-12" fill="#FFFFFF" mask="url(#mask-16)" points="34 24 38 24 38 23 34 23"></polygon>
                    <polygon id="Fill-13" fill="#FFFFFF" mask="url(#mask-16)" points="34 25.8324252 37.1678473 29 38 28.1668284 34.8328984 25"></polygon>
                    <polygon id="Fill-14" fill="#FFFFFF" mask="url(#mask-16)" points="34.8329294 22 38 18.8330534 37.1679654 18 34 21.1675438"></polygon>
                    <path d="M17,25.6175587 L20.2060879,25.6175587 L20.2060879,24.5595973 L17,24.5595973 L17,25.6175587 Z M22.794188,31 L23.8780118,31 L23.8780118,27.938513 L22.794188,27.938513 L22.794188,31 Z M20.742689,26.8009591 L17.8157992,29.656877 L18.585663,30.4069554 L21.5117252,27.5518442 L20.742689,26.8009591 Z M21.6869137,26.2548363 C22.1879253,26.7436847 22.794188,26.9835377 23.4819754,26.9835377 C24.1696248,26.9835377 24.7645761,26.7436847 25.2537245,26.2548363 C25.7558396,25.7650468 26,25.1742878 26,24.4915672 C26,23.8087121 25.7558396,23.2175498 25.2537245,22.7395916 C24.7645761,22.2496676 24.1696248,22 23.4819754,22 C22.794188,22 22.1879253,22.2496676 21.6869137,22.7395916 C21.1972135,23.2175498 20.9520875,23.8087121 20.9520875,24.4915672 C20.9520875,25.1742878 21.1972135,25.7650468 21.6869137,26.2548363 Z M22.5380265,23.5695314 C22.794188,23.3070913 23.1088376,23.1834003 23.4819754,23.1834003 C23.843112,23.1834003 24.1580375,23.3070913 24.4140611,23.5695314 C24.6710502,23.8315681 24.811201,24.1389134 24.811201,24.4915672 C24.811201,24.8665392 24.6710502,25.1742878 24.4140611,25.4242243 C24.1580375,25.6854544 23.843112,25.8111621 23.4819754,25.7995996 C23.1088376,25.8111621 22.794188,25.6854544 22.5265772,25.4242243 C22.2813132,25.1742878 22.1533015,24.8665392 22.1408865,24.4915672 C22.1533015,24.1389134 22.2813132,23.8315681 22.5380265,23.5695314 Z" id="Fill-15" fill="#FFFFFF" mask="url(#mask-16)"></path>
                    <polygon id="Fill-16" fill="#FFFFFF" mask="url(#mask-16)" points="23 36 24 36 24 32 23 32"></polygon>
                    <polygon id="Fill-17" fill="#FFFFFF" mask="url(#mask-16)" points="23 40 24 40 24 36 23 36"></polygon>
                    <polygon id="Fill-18" fill="#FFFFFF" mask="url(#mask-16)" points="21.1675438 36 18 39.1678473 18.8330534 40 22 36.8328984"></polygon>
                    <polygon id="Fill-19" fill="#FFFFFF" mask="url(#mask-16)" points="24 36.8329294 27.1667973 40 28 39.1678163 24.8324562 36"></polygon>
                    <polygon id="Fill-20" fill="#FFFFFF" mask="url(#mask-16)" points="15 32.2303999 15.7696357 33 18 30.7696001 17.2305028 30"></polygon>
                    <polygon id="Fill-21" fill="#FFFFFF" mask="url(#mask-16)" points="12 35.2303643 12.7696357 36 15 33.7696357 14.2305028 33"></polygon>
                    <polygon id="Fill-22" fill="#FFFFFF" mask="url(#mask-16)" points="13 31 9 31.0021494 9.00013323 32 12.9990674 31.9978506"></polygon>
                    <polygon id="Fill-23" fill="#FFFFFF" mask="url(#mask-16)" points="15.0021492 34.0009326 15 37.9998668 15.9977244 38 16 34"></polygon>
                    <polygon id="Fill-24" fill="#FFFFFF" mask="url(#mask-16)" points="31.2303999 33 32 32.2303643 29.7697387 30 29 30.7696357"></polygon>
                    <polygon id="Fill-25" fill="#FFFFFF" mask="url(#mask-16)" points="34.2303999 36 35 35.2303643 32.7697387 33 32 33.7694972"></polygon>
                    <polygon id="Fill-26" fill="#FFFFFF" mask="url(#mask-16)" points="31 34 31.0021494 38 32 37.9998668 31.9978506 34.0009326"></polygon>
                    <polygon id="Fill-27" fill="#FFFFFF" mask="url(#mask-16)" points="34.0009326 31.9978506 37.9998668 32 38 31.0021494 34 31"></polygon>
                    <polygon id="Fill-28" fill="#FFFFFF" mask="url(#mask-16)" points="14.7696001 15 14 15.7696357 16.2302613 18 17 17.2303643"></polygon>
                    <polygon id="Fill-29" fill="#FFFFFF" mask="url(#mask-16)" points="11.7696001 12 11 12.7696357 13.2302613 15 14 14.2305028"></polygon>
                    <polygon id="Fill-30" fill="#FFFFFF" mask="url(#mask-16)" points="16 14 15.9978506 10 15 10.0001332 15.0021494 13.9990674"></polygon>
                    <polygon id="Fill-31" fill="#FFFFFF" mask="url(#mask-16)" points="11.9990674 16.0021494 8.00013323 16 8 16.9978506 12 17"></polygon>
                    <polygon id="Fill-32" fill="#FFFFFF" mask="url(#mask-16)" points="12 25 16 25 16 24 12 24"></polygon>
                    <polygon id="Fill-33" fill="#FFFFFF" mask="url(#mask-16)" points="8 25 12 25 12 24 8 24"></polygon>
                    <polygon id="Fill-34" fill="#FFFFFF" mask="url(#mask-16)" points="12 23.1675438 8.83215271 20 8 20.8330534 11.1671016 24"></polygon>
                    <polygon id="Fill-35" fill="#FFFFFF" mask="url(#mask-16)" points="11.1670706 26 8 29.1669466 8.8320346 30 12 26.8324562"></polygon>
                    <polygon id="Fill-36" fill="#FFFFFF" mask="url(#mask-16)" points="21 21.1675748 17.8321527 18 17 18.8331716 20.1671016 22"></polygon>
                    <polygon id="Fill-37" fill="#FFFFFF" mask="url(#mask-16)" points="25 26.8324252 28.1678473 30 29 29.1668284 25.8328984 26"></polygon>
                </g>
            </g>
        </g>
    </g>
</svg>