<?xml version="1.0" encoding="UTF-8"?>
<svg width="146px" height="87px" viewBox="0 0 146 87" version="1.1" xmlns="http://www.w3.org/2000/svg" xmlns:xlink="http://www.w3.org/1999/xlink">
    <!-- Generator: sketchtool 51.2 (57519) - http://www.bohemiancoding.com/sketch -->
    <title>99C72AE5-7C90-4C36-A933-97CF7ECC3146</title>
    <desc>Created with sketchtool.</desc>
    <defs>
        <polygon id="path-1" points="0 2.92134831e-05 26 2.92134831e-05 26 27.157 0 27.157"></polygon>
        <polygon id="path-3" points="0 2.92134831e-05 26 2.92134831e-05 26 27.157 0 27.157"></polygon>
        <polygon id="path-5" points="0 2.92134831e-05 26 2.92134831e-05 26 27.157 0 27.157"></polygon>
        <polygon id="path-7" points="0 2.92134831e-05 26 2.92134831e-05 26 27.157 0 27.157"></polygon>
        <polygon id="path-9" points="0 2.92134831e-05 26 2.92134831e-05 26 27.157 0 27.157"></polygon>
        <polygon id="path-11" points="0 2.92134831e-05 26 2.92134831e-05 26 27.157 0 27.157"></polygon>
        <polygon id="path-13" points="0 2.92134831e-05 26 2.92134831e-05 26 27.157 0 27.157"></polygon>
        <polygon id="path-15" points="0 2.92134831e-05 26 2.92134831e-05 26 27.157 0 27.157"></polygon>
        <polygon id="path-17" points="0.314625 0.291315789 1.64325 0.291315789 1.64325 5.59135596 0.314625 5.59135596"></polygon>
        <polygon id="path-19" points="0.0181125 0.231108033 5.332875 0.231108033 5.332875 1.55605263 0.0181125 1.55605263"></polygon>
        <polygon id="path-21" points="0.314625 0.291315789 1.64325 0.291315789 1.64325 5.59135596 0.314625 5.59135596"></polygon>
        <polygon id="path-23" points="0.0181125 0.231108033 5.332875 0.231108033 5.332875 1.55605263 0.0181125 1.55605263"></polygon>
    </defs>
    <g id="FLUJO-" stroke="none" stroke-width="1" fill="none" fill-rule="evenodd">
        <g id="1.-Home_Campaña-navidad" transform="translate(-750.000000, -3544.000000)">
            <g id="Group-65-Copy-2" transform="translate(750.000000, 3544.000000)">
                <g id="Group-62" transform="translate(16.000000, 5.000000)">
                    <g id="Group-3-Copy-10" transform="translate(0.000000, 31.000000)">
                        <mask id="mask-2" fill="white">
                            <use xlink:href="#path-1"></use>
                        </mask>
                        <g id="Clip-2"></g>
                        <path d="M13,15.2726191 C10.2339944,15.2726191 7.98375281,13.0223045 7.98375281,10.2562989 L7.98375281,8.4998382 L11.1002472,8.4998382 C13.4672697,8.4998382 15.751764,7.65016404 17.532764,6.10725393 L18.0162472,5.68847865 L18.0162472,10.2563719 C18.0162472,13.0223045 15.7659326,15.2726191 13,15.2726191 Z M12.9840787,21.4319169 L10.3474157,17.2323326 L10.4,17.0958326 C10.4882978,16.8666528 10.5330674,16.6271753 10.5330674,16.383973 L10.5330674,15.6228888 L10.9282528,15.7718045 C11.5921292,16.022018 12.2891629,16.1488775 13,16.1488775 C13.7010506,16.1488775 14.3878596,16.0260348 15.0413652,15.7838551 L15.4350899,15.6378607 L15.4350899,16.3830966 C15.4350899,16.6263719 15.4798596,16.8660685 15.5682303,17.0955404 L15.6208146,17.2320404 L12.9840787,21.4319169 Z M7.98375281,5.89275393 C7.98375281,3.12674831 10.2339944,0.876433708 13,0.876433708 C14.0935337,0.876433708 15.1333876,1.22356292 16.007382,1.88035506 C16.8520899,2.51516404 17.487191,3.41771461 17.7957584,4.42170899 L17.8473933,4.58975955 L17.4396461,4.99757978 C15.7463596,6.69086629 13.4948764,7.62343371 11.1002472,7.62343371 L7.98375281,7.62343371 L7.98375281,5.89275393 Z M21.3554213,18.3416416 L17.2067416,17.4826921 C16.6879831,17.3752596 16.3114944,16.9128101 16.3114944,16.3831697 L16.3114944,15.1283775 L16.4329494,15.0409562 C17.9731573,13.9325236 18.8926517,12.1438551 18.8926517,10.2562989 L18.8926517,5.8926809 C18.8926517,2.64348427 16.2491966,2.92134831e-05 13,2.92134831e-05 C9.75080337,2.92134831e-05 7.10734831,2.64348427 7.10734831,5.8926809 L7.10734831,10.2562989 C7.10734831,12.1295404 8.01544944,13.9101022 9.53666854,15.0192652 L9.65666292,15.1067596 L9.65666292,16.383973 C9.65666292,16.9133944 9.28046629,17.3756978 8.76214607,17.4833494 L4.6407809,18.3393775 C1.95175281,18.8981584 0,21.2969506 0,24.0434562 L0,26.718827 C0,26.9604225 0.196533708,27.1570292 0.438202247,27.1570292 L20.011236,27.1570292 C20.2529045,27.1570292 20.4494382,26.9604225 20.4494382,26.718827 C20.4494382,26.4771584 20.2529045,26.2806247 20.011236,26.2806247 L0.876404494,26.2806247 L0.876404494,24.0434562 C0.876404494,21.7102483 2.5345618,19.6721697 4.81905618,19.1975966 L8.94049438,18.3414955 C9.14812921,18.2984056 9.3474382,18.2218663 9.53287079,18.1139225 L9.77702247,17.9719449 L12.6129944,22.4891528 C12.6936966,22.6175461 12.8324607,22.6943045 12.9840787,22.6943045 C13.1357697,22.6943045 13.2745337,22.6175461 13.3551629,22.4891528 L16.1915,17.9713607 L16.4356517,18.1133382 C16.6212303,18.221209 16.8208315,18.2978213 17.0289775,18.3409112 L21.1777303,19.1998607 C23.4641236,19.6732652 25.1235955,21.7114899 25.1235955,24.0463775 L25.1235955,26.2806247 L23.6629213,26.2806247 C23.4212528,26.2806247 23.2247191,26.4771584 23.2247191,26.718827 C23.2247191,26.9604225 23.4212528,27.1570292 23.6629213,27.1570292 L25.5617978,27.1570292 C25.8034663,27.1570292 26,26.9604225 26,26.718827 L26,24.0463775 C26,21.2980461 24.0466404,18.8988157 21.3554213,18.3416416 Z" id="Fill-1" fill="#000000" mask="url(#mask-2)"></path>
                    </g>
                    <g id="Group-3-Copy-11" transform="translate(31.000000, 32.000000)">
                        <mask id="mask-4" fill="white">
                            <use xlink:href="#path-3"></use>
                        </mask>
                        <g id="Clip-2"></g>
                        <path d="M13,15.2726191 C10.2339944,15.2726191 7.98375281,13.0223045 7.98375281,10.2562989 L7.98375281,8.4998382 L11.1002472,8.4998382 C13.4672697,8.4998382 15.751764,7.65016404 17.532764,6.10725393 L18.0162472,5.68847865 L18.0162472,10.2563719 C18.0162472,13.0223045 15.7659326,15.2726191 13,15.2726191 Z M12.9840787,21.4319169 L10.3474157,17.2323326 L10.4,17.0958326 C10.4882978,16.8666528 10.5330674,16.6271753 10.5330674,16.383973 L10.5330674,15.6228888 L10.9282528,15.7718045 C11.5921292,16.022018 12.2891629,16.1488775 13,16.1488775 C13.7010506,16.1488775 14.3878596,16.0260348 15.0413652,15.7838551 L15.4350899,15.6378607 L15.4350899,16.3830966 C15.4350899,16.6263719 15.4798596,16.8660685 15.5682303,17.0955404 L15.6208146,17.2320404 L12.9840787,21.4319169 Z M7.98375281,5.89275393 C7.98375281,3.12674831 10.2339944,0.876433708 13,0.876433708 C14.0935337,0.876433708 15.1333876,1.22356292 16.007382,1.88035506 C16.8520899,2.51516404 17.487191,3.41771461 17.7957584,4.42170899 L17.8473933,4.58975955 L17.4396461,4.99757978 C15.7463596,6.69086629 13.4948764,7.62343371 11.1002472,7.62343371 L7.98375281,7.62343371 L7.98375281,5.89275393 Z M21.3554213,18.3416416 L17.2067416,17.4826921 C16.6879831,17.3752596 16.3114944,16.9128101 16.3114944,16.3831697 L16.3114944,15.1283775 L16.4329494,15.0409562 C17.9731573,13.9325236 18.8926517,12.1438551 18.8926517,10.2562989 L18.8926517,5.8926809 C18.8926517,2.64348427 16.2491966,2.92134831e-05 13,2.92134831e-05 C9.75080337,2.92134831e-05 7.10734831,2.64348427 7.10734831,5.8926809 L7.10734831,10.2562989 C7.10734831,12.1295404 8.01544944,13.9101022 9.53666854,15.0192652 L9.65666292,15.1067596 L9.65666292,16.383973 C9.65666292,16.9133944 9.28046629,17.3756978 8.76214607,17.4833494 L4.6407809,18.3393775 C1.95175281,18.8981584 0,21.2969506 0,24.0434562 L0,26.718827 C0,26.9604225 0.196533708,27.1570292 0.438202247,27.1570292 L20.011236,27.1570292 C20.2529045,27.1570292 20.4494382,26.9604225 20.4494382,26.718827 C20.4494382,26.4771584 20.2529045,26.2806247 20.011236,26.2806247 L0.876404494,26.2806247 L0.876404494,24.0434562 C0.876404494,21.7102483 2.5345618,19.6721697 4.81905618,19.1975966 L8.94049438,18.3414955 C9.14812921,18.2984056 9.3474382,18.2218663 9.53287079,18.1139225 L9.77702247,17.9719449 L12.6129944,22.4891528 C12.6936966,22.6175461 12.8324607,22.6943045 12.9840787,22.6943045 C13.1357697,22.6943045 13.2745337,22.6175461 13.3551629,22.4891528 L16.1915,17.9713607 L16.4356517,18.1133382 C16.6212303,18.221209 16.8208315,18.2978213 17.0289775,18.3409112 L21.1777303,19.1998607 C23.4641236,19.6732652 25.1235955,21.7114899 25.1235955,24.0463775 L25.1235955,26.2806247 L23.6629213,26.2806247 C23.4212528,26.2806247 23.2247191,26.4771584 23.2247191,26.718827 C23.2247191,26.9604225 23.4212528,27.1570292 23.6629213,27.1570292 L25.5617978,27.1570292 C25.8034663,27.1570292 26,26.9604225 26,26.718827 L26,24.0463775 C26,21.2980461 24.0466404,18.8988157 21.3554213,18.3416416 Z" id="Fill-1" fill="#000000" mask="url(#mask-4)"></path>
                    </g>
                    <g id="Group-3-Copy-12" transform="translate(62.000000, 32.000000)">
                        <mask id="mask-6" fill="white">
                            <use xlink:href="#path-5"></use>
                        </mask>
                        <g id="Clip-2"></g>
                        <path d="M13,15.2726191 C10.2339944,15.2726191 7.98375281,13.0223045 7.98375281,10.2562989 L7.98375281,8.4998382 L11.1002472,8.4998382 C13.4672697,8.4998382 15.751764,7.65016404 17.532764,6.10725393 L18.0162472,5.68847865 L18.0162472,10.2563719 C18.0162472,13.0223045 15.7659326,15.2726191 13,15.2726191 Z M12.9840787,21.4319169 L10.3474157,17.2323326 L10.4,17.0958326 C10.4882978,16.8666528 10.5330674,16.6271753 10.5330674,16.383973 L10.5330674,15.6228888 L10.9282528,15.7718045 C11.5921292,16.022018 12.2891629,16.1488775 13,16.1488775 C13.7010506,16.1488775 14.3878596,16.0260348 15.0413652,15.7838551 L15.4350899,15.6378607 L15.4350899,16.3830966 C15.4350899,16.6263719 15.4798596,16.8660685 15.5682303,17.0955404 L15.6208146,17.2320404 L12.9840787,21.4319169 Z M7.98375281,5.89275393 C7.98375281,3.12674831 10.2339944,0.876433708 13,0.876433708 C14.0935337,0.876433708 15.1333876,1.22356292 16.007382,1.88035506 C16.8520899,2.51516404 17.487191,3.41771461 17.7957584,4.42170899 L17.8473933,4.58975955 L17.4396461,4.99757978 C15.7463596,6.69086629 13.4948764,7.62343371 11.1002472,7.62343371 L7.98375281,7.62343371 L7.98375281,5.89275393 Z M21.3554213,18.3416416 L17.2067416,17.4826921 C16.6879831,17.3752596 16.3114944,16.9128101 16.3114944,16.3831697 L16.3114944,15.1283775 L16.4329494,15.0409562 C17.9731573,13.9325236 18.8926517,12.1438551 18.8926517,10.2562989 L18.8926517,5.8926809 C18.8926517,2.64348427 16.2491966,2.92134831e-05 13,2.92134831e-05 C9.75080337,2.92134831e-05 7.10734831,2.64348427 7.10734831,5.8926809 L7.10734831,10.2562989 C7.10734831,12.1295404 8.01544944,13.9101022 9.53666854,15.0192652 L9.65666292,15.1067596 L9.65666292,16.383973 C9.65666292,16.9133944 9.28046629,17.3756978 8.76214607,17.4833494 L4.6407809,18.3393775 C1.95175281,18.8981584 0,21.2969506 0,24.0434562 L0,26.718827 C0,26.9604225 0.196533708,27.1570292 0.438202247,27.1570292 L20.011236,27.1570292 C20.2529045,27.1570292 20.4494382,26.9604225 20.4494382,26.718827 C20.4494382,26.4771584 20.2529045,26.2806247 20.011236,26.2806247 L0.876404494,26.2806247 L0.876404494,24.0434562 C0.876404494,21.7102483 2.5345618,19.6721697 4.81905618,19.1975966 L8.94049438,18.3414955 C9.14812921,18.2984056 9.3474382,18.2218663 9.53287079,18.1139225 L9.77702247,17.9719449 L12.6129944,22.4891528 C12.6936966,22.6175461 12.8324607,22.6943045 12.9840787,22.6943045 C13.1357697,22.6943045 13.2745337,22.6175461 13.3551629,22.4891528 L16.1915,17.9713607 L16.4356517,18.1133382 C16.6212303,18.221209 16.8208315,18.2978213 17.0289775,18.3409112 L21.1777303,19.1998607 C23.4641236,19.6732652 25.1235955,21.7114899 25.1235955,24.0463775 L25.1235955,26.2806247 L23.6629213,26.2806247 C23.4212528,26.2806247 23.2247191,26.4771584 23.2247191,26.718827 C23.2247191,26.9604225 23.4212528,27.1570292 23.6629213,27.1570292 L25.5617978,27.1570292 C25.8034663,27.1570292 26,26.9604225 26,26.718827 L26,24.0463775 C26,21.2980461 24.0466404,18.8988157 21.3554213,18.3416416 Z" id="Fill-1" fill="#000000" mask="url(#mask-6)"></path>
                    </g>
                    <g id="Group-3-Copy-17" transform="translate(93.000000, 32.000000)">
                        <mask id="mask-8" fill="white">
                            <use xlink:href="#path-7"></use>
                        </mask>
                        <g id="Clip-2"></g>
                        <path d="M13,15.2726191 C10.2339944,15.2726191 7.98375281,13.0223045 7.98375281,10.2562989 L7.98375281,8.4998382 L11.1002472,8.4998382 C13.4672697,8.4998382 15.751764,7.65016404 17.532764,6.10725393 L18.0162472,5.68847865 L18.0162472,10.2563719 C18.0162472,13.0223045 15.7659326,15.2726191 13,15.2726191 Z M12.9840787,21.4319169 L10.3474157,17.2323326 L10.4,17.0958326 C10.4882978,16.8666528 10.5330674,16.6271753 10.5330674,16.383973 L10.5330674,15.6228888 L10.9282528,15.7718045 C11.5921292,16.022018 12.2891629,16.1488775 13,16.1488775 C13.7010506,16.1488775 14.3878596,16.0260348 15.0413652,15.7838551 L15.4350899,15.6378607 L15.4350899,16.3830966 C15.4350899,16.6263719 15.4798596,16.8660685 15.5682303,17.0955404 L15.6208146,17.2320404 L12.9840787,21.4319169 Z M7.98375281,5.89275393 C7.98375281,3.12674831 10.2339944,0.876433708 13,0.876433708 C14.0935337,0.876433708 15.1333876,1.22356292 16.007382,1.88035506 C16.8520899,2.51516404 17.487191,3.41771461 17.7957584,4.42170899 L17.8473933,4.58975955 L17.4396461,4.99757978 C15.7463596,6.69086629 13.4948764,7.62343371 11.1002472,7.62343371 L7.98375281,7.62343371 L7.98375281,5.89275393 Z M21.3554213,18.3416416 L17.2067416,17.4826921 C16.6879831,17.3752596 16.3114944,16.9128101 16.3114944,16.3831697 L16.3114944,15.1283775 L16.4329494,15.0409562 C17.9731573,13.9325236 18.8926517,12.1438551 18.8926517,10.2562989 L18.8926517,5.8926809 C18.8926517,2.64348427 16.2491966,2.92134831e-05 13,2.92134831e-05 C9.75080337,2.92134831e-05 7.10734831,2.64348427 7.10734831,5.8926809 L7.10734831,10.2562989 C7.10734831,12.1295404 8.01544944,13.9101022 9.53666854,15.0192652 L9.65666292,15.1067596 L9.65666292,16.383973 C9.65666292,16.9133944 9.28046629,17.3756978 8.76214607,17.4833494 L4.6407809,18.3393775 C1.95175281,18.8981584 0,21.2969506 0,24.0434562 L0,26.718827 C0,26.9604225 0.196533708,27.1570292 0.438202247,27.1570292 L20.011236,27.1570292 C20.2529045,27.1570292 20.4494382,26.9604225 20.4494382,26.718827 C20.4494382,26.4771584 20.2529045,26.2806247 20.011236,26.2806247 L0.876404494,26.2806247 L0.876404494,24.0434562 C0.876404494,21.7102483 2.5345618,19.6721697 4.81905618,19.1975966 L8.94049438,18.3414955 C9.14812921,18.2984056 9.3474382,18.2218663 9.53287079,18.1139225 L9.77702247,17.9719449 L12.6129944,22.4891528 C12.6936966,22.6175461 12.8324607,22.6943045 12.9840787,22.6943045 C13.1357697,22.6943045 13.2745337,22.6175461 13.3551629,22.4891528 L16.1915,17.9713607 L16.4356517,18.1133382 C16.6212303,18.221209 16.8208315,18.2978213 17.0289775,18.3409112 L21.1777303,19.1998607 C23.4641236,19.6732652 25.1235955,21.7114899 25.1235955,24.0463775 L25.1235955,26.2806247 L23.6629213,26.2806247 C23.4212528,26.2806247 23.2247191,26.4771584 23.2247191,26.718827 C23.2247191,26.9604225 23.4212528,27.1570292 23.6629213,27.1570292 L25.5617978,27.1570292 C25.8034663,27.1570292 26,26.9604225 26,26.718827 L26,24.0463775 C26,21.2980461 24.0466404,18.8988157 21.3554213,18.3416416 Z" id="Fill-1" fill="#000000" mask="url(#mask-8)"></path>
                    </g>
                    <g id="Group-3-Copy-13">
                        <mask id="mask-10" fill="white">
                            <use xlink:href="#path-9"></use>
                        </mask>
                        <g id="Clip-2"></g>
                        <path d="M13,15.2726191 C10.2339944,15.2726191 7.98375281,13.0223045 7.98375281,10.2562989 L7.98375281,8.4998382 L11.1002472,8.4998382 C13.4672697,8.4998382 15.751764,7.65016404 17.532764,6.10725393 L18.0162472,5.68847865 L18.0162472,10.2563719 C18.0162472,13.0223045 15.7659326,15.2726191 13,15.2726191 Z M12.9840787,21.4319169 L10.3474157,17.2323326 L10.4,17.0958326 C10.4882978,16.8666528 10.5330674,16.6271753 10.5330674,16.383973 L10.5330674,15.6228888 L10.9282528,15.7718045 C11.5921292,16.022018 12.2891629,16.1488775 13,16.1488775 C13.7010506,16.1488775 14.3878596,16.0260348 15.0413652,15.7838551 L15.4350899,15.6378607 L15.4350899,16.3830966 C15.4350899,16.6263719 15.4798596,16.8660685 15.5682303,17.0955404 L15.6208146,17.2320404 L12.9840787,21.4319169 Z M7.98375281,5.89275393 C7.98375281,3.12674831 10.2339944,0.876433708 13,0.876433708 C14.0935337,0.876433708 15.1333876,1.22356292 16.007382,1.88035506 C16.8520899,2.51516404 17.487191,3.41771461 17.7957584,4.42170899 L17.8473933,4.58975955 L17.4396461,4.99757978 C15.7463596,6.69086629 13.4948764,7.62343371 11.1002472,7.62343371 L7.98375281,7.62343371 L7.98375281,5.89275393 Z M21.3554213,18.3416416 L17.2067416,17.4826921 C16.6879831,17.3752596 16.3114944,16.9128101 16.3114944,16.3831697 L16.3114944,15.1283775 L16.4329494,15.0409562 C17.9731573,13.9325236 18.8926517,12.1438551 18.8926517,10.2562989 L18.8926517,5.8926809 C18.8926517,2.64348427 16.2491966,2.92134831e-05 13,2.92134831e-05 C9.75080337,2.92134831e-05 7.10734831,2.64348427 7.10734831,5.8926809 L7.10734831,10.2562989 C7.10734831,12.1295404 8.01544944,13.9101022 9.53666854,15.0192652 L9.65666292,15.1067596 L9.65666292,16.383973 C9.65666292,16.9133944 9.28046629,17.3756978 8.76214607,17.4833494 L4.6407809,18.3393775 C1.95175281,18.8981584 0,21.2969506 0,24.0434562 L0,26.718827 C0,26.9604225 0.196533708,27.1570292 0.438202247,27.1570292 L20.011236,27.1570292 C20.2529045,27.1570292 20.4494382,26.9604225 20.4494382,26.718827 C20.4494382,26.4771584 20.2529045,26.2806247 20.011236,26.2806247 L0.876404494,26.2806247 L0.876404494,24.0434562 C0.876404494,21.7102483 2.5345618,19.6721697 4.81905618,19.1975966 L8.94049438,18.3414955 C9.14812921,18.2984056 9.3474382,18.2218663 9.53287079,18.1139225 L9.77702247,17.9719449 L12.6129944,22.4891528 C12.6936966,22.6175461 12.8324607,22.6943045 12.9840787,22.6943045 C13.1357697,22.6943045 13.2745337,22.6175461 13.3551629,22.4891528 L16.1915,17.9713607 L16.4356517,18.1133382 C16.6212303,18.221209 16.8208315,18.2978213 17.0289775,18.3409112 L21.1777303,19.1998607 C23.4641236,19.6732652 25.1235955,21.7114899 25.1235955,24.0463775 L25.1235955,26.2806247 L23.6629213,26.2806247 C23.4212528,26.2806247 23.2247191,26.4771584 23.2247191,26.718827 C23.2247191,26.9604225 23.4212528,27.1570292 23.6629213,27.1570292 L25.5617978,27.1570292 C25.8034663,27.1570292 26,26.9604225 26,26.718827 L26,24.0463775 C26,21.2980461 24.0466404,18.8988157 21.3554213,18.3416416 Z" id="Fill-1" fill="#000000" mask="url(#mask-10)"></path>
                    </g>
                    <g id="Group-3-Copy-14" transform="translate(31.000000, 0.000000)">
                        <mask id="mask-12" fill="white">
                            <use xlink:href="#path-11"></use>
                        </mask>
                        <g id="Clip-2"></g>
                        <path d="M13,15.2726191 C10.2339944,15.2726191 7.98375281,13.0223045 7.98375281,10.2562989 L7.98375281,8.4998382 L11.1002472,8.4998382 C13.4672697,8.4998382 15.751764,7.65016404 17.532764,6.10725393 L18.0162472,5.68847865 L18.0162472,10.2563719 C18.0162472,13.0223045 15.7659326,15.2726191 13,15.2726191 Z M12.9840787,21.4319169 L10.3474157,17.2323326 L10.4,17.0958326 C10.4882978,16.8666528 10.5330674,16.6271753 10.5330674,16.383973 L10.5330674,15.6228888 L10.9282528,15.7718045 C11.5921292,16.022018 12.2891629,16.1488775 13,16.1488775 C13.7010506,16.1488775 14.3878596,16.0260348 15.0413652,15.7838551 L15.4350899,15.6378607 L15.4350899,16.3830966 C15.4350899,16.6263719 15.4798596,16.8660685 15.5682303,17.0955404 L15.6208146,17.2320404 L12.9840787,21.4319169 Z M7.98375281,5.89275393 C7.98375281,3.12674831 10.2339944,0.876433708 13,0.876433708 C14.0935337,0.876433708 15.1333876,1.22356292 16.007382,1.88035506 C16.8520899,2.51516404 17.487191,3.41771461 17.7957584,4.42170899 L17.8473933,4.58975955 L17.4396461,4.99757978 C15.7463596,6.69086629 13.4948764,7.62343371 11.1002472,7.62343371 L7.98375281,7.62343371 L7.98375281,5.89275393 Z M21.3554213,18.3416416 L17.2067416,17.4826921 C16.6879831,17.3752596 16.3114944,16.9128101 16.3114944,16.3831697 L16.3114944,15.1283775 L16.4329494,15.0409562 C17.9731573,13.9325236 18.8926517,12.1438551 18.8926517,10.2562989 L18.8926517,5.8926809 C18.8926517,2.64348427 16.2491966,2.92134831e-05 13,2.92134831e-05 C9.75080337,2.92134831e-05 7.10734831,2.64348427 7.10734831,5.8926809 L7.10734831,10.2562989 C7.10734831,12.1295404 8.01544944,13.9101022 9.53666854,15.0192652 L9.65666292,15.1067596 L9.65666292,16.383973 C9.65666292,16.9133944 9.28046629,17.3756978 8.76214607,17.4833494 L4.6407809,18.3393775 C1.95175281,18.8981584 0,21.2969506 0,24.0434562 L0,26.718827 C0,26.9604225 0.196533708,27.1570292 0.438202247,27.1570292 L20.011236,27.1570292 C20.2529045,27.1570292 20.4494382,26.9604225 20.4494382,26.718827 C20.4494382,26.4771584 20.2529045,26.2806247 20.011236,26.2806247 L0.876404494,26.2806247 L0.876404494,24.0434562 C0.876404494,21.7102483 2.5345618,19.6721697 4.81905618,19.1975966 L8.94049438,18.3414955 C9.14812921,18.2984056 9.3474382,18.2218663 9.53287079,18.1139225 L9.77702247,17.9719449 L12.6129944,22.4891528 C12.6936966,22.6175461 12.8324607,22.6943045 12.9840787,22.6943045 C13.1357697,22.6943045 13.2745337,22.6175461 13.3551629,22.4891528 L16.1915,17.9713607 L16.4356517,18.1133382 C16.6212303,18.221209 16.8208315,18.2978213 17.0289775,18.3409112 L21.1777303,19.1998607 C23.4641236,19.6732652 25.1235955,21.7114899 25.1235955,24.0463775 L25.1235955,26.2806247 L23.6629213,26.2806247 C23.4212528,26.2806247 23.2247191,26.4771584 23.2247191,26.718827 C23.2247191,26.9604225 23.4212528,27.1570292 23.6629213,27.1570292 L25.5617978,27.1570292 C25.8034663,27.1570292 26,26.9604225 26,26.718827 L26,24.0463775 C26,21.2980461 24.0466404,18.8988157 21.3554213,18.3416416 Z" id="Fill-1" fill="#000000" mask="url(#mask-12)"></path>
                    </g>
                    <g id="Group-3-Copy-15" transform="translate(61.000000, 0.000000)">
                        <mask id="mask-14" fill="white">
                            <use xlink:href="#path-13"></use>
                        </mask>
                        <g id="Clip-2"></g>
                        <path d="M13,15.2726191 C10.2339944,15.2726191 7.98375281,13.0223045 7.98375281,10.2562989 L7.98375281,8.4998382 L11.1002472,8.4998382 C13.4672697,8.4998382 15.751764,7.65016404 17.532764,6.10725393 L18.0162472,5.68847865 L18.0162472,10.2563719 C18.0162472,13.0223045 15.7659326,15.2726191 13,15.2726191 Z M12.9840787,21.4319169 L10.3474157,17.2323326 L10.4,17.0958326 C10.4882978,16.8666528 10.5330674,16.6271753 10.5330674,16.383973 L10.5330674,15.6228888 L10.9282528,15.7718045 C11.5921292,16.022018 12.2891629,16.1488775 13,16.1488775 C13.7010506,16.1488775 14.3878596,16.0260348 15.0413652,15.7838551 L15.4350899,15.6378607 L15.4350899,16.3830966 C15.4350899,16.6263719 15.4798596,16.8660685 15.5682303,17.0955404 L15.6208146,17.2320404 L12.9840787,21.4319169 Z M7.98375281,5.89275393 C7.98375281,3.12674831 10.2339944,0.876433708 13,0.876433708 C14.0935337,0.876433708 15.1333876,1.22356292 16.007382,1.88035506 C16.8520899,2.51516404 17.487191,3.41771461 17.7957584,4.42170899 L17.8473933,4.58975955 L17.4396461,4.99757978 C15.7463596,6.69086629 13.4948764,7.62343371 11.1002472,7.62343371 L7.98375281,7.62343371 L7.98375281,5.89275393 Z M21.3554213,18.3416416 L17.2067416,17.4826921 C16.6879831,17.3752596 16.3114944,16.9128101 16.3114944,16.3831697 L16.3114944,15.1283775 L16.4329494,15.0409562 C17.9731573,13.9325236 18.8926517,12.1438551 18.8926517,10.2562989 L18.8926517,5.8926809 C18.8926517,2.64348427 16.2491966,2.92134831e-05 13,2.92134831e-05 C9.75080337,2.92134831e-05 7.10734831,2.64348427 7.10734831,5.8926809 L7.10734831,10.2562989 C7.10734831,12.1295404 8.01544944,13.9101022 9.53666854,15.0192652 L9.65666292,15.1067596 L9.65666292,16.383973 C9.65666292,16.9133944 9.28046629,17.3756978 8.76214607,17.4833494 L4.6407809,18.3393775 C1.95175281,18.8981584 0,21.2969506 0,24.0434562 L0,26.718827 C0,26.9604225 0.196533708,27.1570292 0.438202247,27.1570292 L20.011236,27.1570292 C20.2529045,27.1570292 20.4494382,26.9604225 20.4494382,26.718827 C20.4494382,26.4771584 20.2529045,26.2806247 20.011236,26.2806247 L0.876404494,26.2806247 L0.876404494,24.0434562 C0.876404494,21.7102483 2.5345618,19.6721697 4.81905618,19.1975966 L8.94049438,18.3414955 C9.14812921,18.2984056 9.3474382,18.2218663 9.53287079,18.1139225 L9.77702247,17.9719449 L12.6129944,22.4891528 C12.6936966,22.6175461 12.8324607,22.6943045 12.9840787,22.6943045 C13.1357697,22.6943045 13.2745337,22.6175461 13.3551629,22.4891528 L16.1915,17.9713607 L16.4356517,18.1133382 C16.6212303,18.221209 16.8208315,18.2978213 17.0289775,18.3409112 L21.1777303,19.1998607 C23.4641236,19.6732652 25.1235955,21.7114899 25.1235955,24.0463775 L25.1235955,26.2806247 L23.6629213,26.2806247 C23.4212528,26.2806247 23.2247191,26.4771584 23.2247191,26.718827 C23.2247191,26.9604225 23.4212528,27.1570292 23.6629213,27.1570292 L25.5617978,27.1570292 C25.8034663,27.1570292 26,26.9604225 26,26.718827 L26,24.0463775 C26,21.2980461 24.0466404,18.8988157 21.3554213,18.3416416 Z" id="Fill-1" fill="#000000" mask="url(#mask-14)"></path>
                    </g>
                    <g id="Group-3-Copy-16" transform="translate(92.000000, 0.000000)">
                        <mask id="mask-16" fill="white">
                            <use xlink:href="#path-15"></use>
                        </mask>
                        <g id="Clip-2"></g>
                        <path d="M13,15.2726191 C10.2339944,15.2726191 7.98375281,13.0223045 7.98375281,10.2562989 L7.98375281,8.4998382 L11.1002472,8.4998382 C13.4672697,8.4998382 15.751764,7.65016404 17.532764,6.10725393 L18.0162472,5.68847865 L18.0162472,10.2563719 C18.0162472,13.0223045 15.7659326,15.2726191 13,15.2726191 Z M12.9840787,21.4319169 L10.3474157,17.2323326 L10.4,17.0958326 C10.4882978,16.8666528 10.5330674,16.6271753 10.5330674,16.383973 L10.5330674,15.6228888 L10.9282528,15.7718045 C11.5921292,16.022018 12.2891629,16.1488775 13,16.1488775 C13.7010506,16.1488775 14.3878596,16.0260348 15.0413652,15.7838551 L15.4350899,15.6378607 L15.4350899,16.3830966 C15.4350899,16.6263719 15.4798596,16.8660685 15.5682303,17.0955404 L15.6208146,17.2320404 L12.9840787,21.4319169 Z M7.98375281,5.89275393 C7.98375281,3.12674831 10.2339944,0.876433708 13,0.876433708 C14.0935337,0.876433708 15.1333876,1.22356292 16.007382,1.88035506 C16.8520899,2.51516404 17.487191,3.41771461 17.7957584,4.42170899 L17.8473933,4.58975955 L17.4396461,4.99757978 C15.7463596,6.69086629 13.4948764,7.62343371 11.1002472,7.62343371 L7.98375281,7.62343371 L7.98375281,5.89275393 Z M21.3554213,18.3416416 L17.2067416,17.4826921 C16.6879831,17.3752596 16.3114944,16.9128101 16.3114944,16.3831697 L16.3114944,15.1283775 L16.4329494,15.0409562 C17.9731573,13.9325236 18.8926517,12.1438551 18.8926517,10.2562989 L18.8926517,5.8926809 C18.8926517,2.64348427 16.2491966,2.92134831e-05 13,2.92134831e-05 C9.75080337,2.92134831e-05 7.10734831,2.64348427 7.10734831,5.8926809 L7.10734831,10.2562989 C7.10734831,12.1295404 8.01544944,13.9101022 9.53666854,15.0192652 L9.65666292,15.1067596 L9.65666292,16.383973 C9.65666292,16.9133944 9.28046629,17.3756978 8.76214607,17.4833494 L4.6407809,18.3393775 C1.95175281,18.8981584 0,21.2969506 0,24.0434562 L0,26.718827 C0,26.9604225 0.196533708,27.1570292 0.438202247,27.1570292 L20.011236,27.1570292 C20.2529045,27.1570292 20.4494382,26.9604225 20.4494382,26.718827 C20.4494382,26.4771584 20.2529045,26.2806247 20.011236,26.2806247 L0.876404494,26.2806247 L0.876404494,24.0434562 C0.876404494,21.7102483 2.5345618,19.6721697 4.81905618,19.1975966 L8.94049438,18.3414955 C9.14812921,18.2984056 9.3474382,18.2218663 9.53287079,18.1139225 L9.77702247,17.9719449 L12.6129944,22.4891528 C12.6936966,22.6175461 12.8324607,22.6943045 12.9840787,22.6943045 C13.1357697,22.6943045 13.2745337,22.6175461 13.3551629,22.4891528 L16.1915,17.9713607 L16.4356517,18.1133382 C16.6212303,18.221209 16.8208315,18.2978213 17.0289775,18.3409112 L21.1777303,19.1998607 C23.4641236,19.6732652 25.1235955,21.7114899 25.1235955,24.0463775 L25.1235955,26.2806247 L23.6629213,26.2806247 C23.4212528,26.2806247 23.2247191,26.4771584 23.2247191,26.718827 C23.2247191,26.9604225 23.4212528,27.1570292 23.6629213,27.1570292 L25.5617978,27.1570292 C25.8034663,27.1570292 26,26.9604225 26,26.718827 L26,24.0463775 C26,21.2980461 24.0466404,18.8988157 21.3554213,18.3416416 Z" id="Fill-1" fill="#000000" mask="url(#mask-16)"></path>
                    </g>
                </g>
                <path d="M121.835178,71.828487 L123.19183,74.0894435 C123.295917,74.2631826 123.295917,74.4795739 123.19183,74.653313 L121.835178,76.9142696 L124.096135,75.5576174 C124.269874,75.4535304 124.486657,75.4535304 124.660004,75.5576174 L126.920961,76.9142696 L125.564309,74.653313 C125.460613,74.4795739 125.460613,74.2631826 125.564309,74.0894435 L126.920961,71.828487 L124.660004,73.1851391 C124.486657,73.2892261 124.269874,73.2892261 124.096135,73.1851391 L121.835178,71.828487 Z M128.044396,78.7487043 C127.916439,78.7487043 127.790048,78.7130957 127.678526,78.6461826 L124.378265,76.6661826 L121.077613,78.6461826 C120.745004,78.8461391 120.282874,78.7220957 120.0927,78.3851826 C119.965526,78.1605739 119.969439,77.8937043 120.103265,77.6710522 L122.083265,74.3711826 L120.102874,71.0709217 C119.969439,70.8486609 119.965526,70.5814 120.0927,70.3571826 C120.283265,70.0202696 120.744222,69.8958348 121.078004,70.0965739 L124.378265,72.0765739 L127.678526,70.0961826 C128.011526,69.8962261 128.473265,70.0206609 128.663439,70.3567913 C128.790613,70.5810087 128.787091,70.8482696 128.653265,71.0705304 L126.672874,74.3711826 L128.653265,77.6718348 C128.7867,77.8937043 128.790613,78.1605739 128.663439,78.3851826 C128.537048,78.6094 128.299917,78.7487043 128.044396,78.7487043 Z" id="Fill-1" fill="#DA272C"></path>
                <g id="Group-3-Copy-21" transform="translate(0.000000, 74.000000)">
                    <g id="Group-64">
                        <g id="Group-63">
                            <g id="Group-11-Copy">
                                <g id="Group-3" transform="translate(4.875000, 0.082795)">
                                    <mask id="mask-18" fill="white">
                                        <use xlink:href="#path-17"></use>
                                    </mask>
                                    <g id="Clip-2"></g>
                                    <path d="M1.64325,0.953862881 C1.64325,0.587754848 1.345875,0.291203601 0.979125,0.291203601 C0.612,0.291203601 0.314625,0.587754848 0.314625,0.953862881 L0.314625,4.92907064 C0.314625,5.29480471 0.612,5.59135596 0.979125,5.59135596 C1.345875,5.59135596 1.64325,5.29480471 1.64325,4.92907064 L1.64325,0.953862881 Z" id="Fill-1" fill="#DA272C" mask="url(#mask-18)"></path>
                                </g>
                                <path d="M6.51825,7.41187396 C6.51825,7.04576593 6.220875,6.74958864 5.854125,6.74958864 C5.487,6.74958864 5.189625,7.04576593 5.189625,7.41187396 L5.189625,11.3870817 C5.189625,11.7528158 5.487,12.049367 5.854125,12.049367 C6.220875,12.049367 6.51825,11.7528158 6.51825,11.3870817 L6.51825,7.41187396 Z" id="Fill-4" fill="#DA272C"></path>
                                <g id="Group-8" transform="translate(6.375000, 5.318252)">
                                    <mask id="mask-20" fill="white">
                                        <use xlink:href="#path-19"></use>
                                    </mask>
                                    <g id="Clip-7"></g>
                                    <path d="M4.6684875,0.231108033 L0.6822375,0.231108033 C0.3154875,0.231108033 0.0181125,0.52765928 0.0181125,0.893393352 C0.0181125,1.25950139 0.3154875,1.55605263 0.6822375,1.55605263 L4.6684875,1.55605263 C5.0356125,1.55605263 5.3329875,1.25950139 5.3329875,0.893393352 C5.3329875,0.52765928 5.0356125,0.231108033 4.6684875,0.231108033" id="Fill-6" fill="#DA272C" mask="url(#mask-20)"></path>
                                </g>
                                <path d="M0.66435,6.87430471 L4.6506,6.87430471 C5.01735,6.87430471 5.314725,6.57775346 5.314725,6.21201939 C5.314725,5.84591136 5.01735,5.54936011 4.6506,5.54936011 L0.66435,5.54936011 C0.297225,5.54936011 0.000225,5.84591136 0.000225,6.21201939 C0.000225,6.57775346 0.297225,6.87430471 0.66435,6.87430471" id="Fill-9" fill="#DA272C"></path>
                            </g>
                        </g>
                    </g>
                </g>
                <g id="Group-3-Copy-33" transform="translate(134.000000, 0.000000)">
                    <g id="Group-64">
                        <g id="Group-63">
                            <g id="Group-11-Copy">
                                <g id="Group-3" transform="translate(4.875000, 0.082795)">
                                    <mask id="mask-22" fill="white">
                                        <use xlink:href="#path-21"></use>
                                    </mask>
                                    <g id="Clip-2"></g>
                                    <path d="M1.64325,0.953862881 C1.64325,0.587754848 1.345875,0.291203601 0.979125,0.291203601 C0.612,0.291203601 0.314625,0.587754848 0.314625,0.953862881 L0.314625,4.92907064 C0.314625,5.29480471 0.612,5.59135596 0.979125,5.59135596 C1.345875,5.59135596 1.64325,5.29480471 1.64325,4.92907064 L1.64325,0.953862881 Z" id="Fill-1" fill="#DA272C" mask="url(#mask-22)"></path>
                                </g>
                                <path d="M6.51825,7.41187396 C6.51825,7.04576593 6.220875,6.74958864 5.854125,6.74958864 C5.487,6.74958864 5.189625,7.04576593 5.189625,7.41187396 L5.189625,11.3870817 C5.189625,11.7528158 5.487,12.049367 5.854125,12.049367 C6.220875,12.049367 6.51825,11.7528158 6.51825,11.3870817 L6.51825,7.41187396 Z" id="Fill-4" fill="#DA272C"></path>
                                <g id="Group-8" transform="translate(6.375000, 5.318252)">
                                    <mask id="mask-24" fill="white">
                                        <use xlink:href="#path-23"></use>
                                    </mask>
                                    <g id="Clip-7"></g>
                                    <path d="M4.6684875,0.231108033 L0.6822375,0.231108033 C0.3154875,0.231108033 0.0181125,0.52765928 0.0181125,0.893393352 C0.0181125,1.25950139 0.3154875,1.55605263 0.6822375,1.55605263 L4.6684875,1.55605263 C5.0356125,1.55605263 5.3329875,1.25950139 5.3329875,0.893393352 C5.3329875,0.52765928 5.0356125,0.231108033 4.6684875,0.231108033" id="Fill-6" fill="#DA272C" mask="url(#mask-24)"></path>
                                </g>
                                <path d="M0.66435,6.87430471 L4.6506,6.87430471 C5.01735,6.87430471 5.314725,6.57775346 5.314725,6.21201939 C5.314725,5.84591136 5.01735,5.54936011 4.6506,5.54936011 L0.66435,5.54936011 C0.297225,5.54936011 0.000225,5.84591136 0.000225,6.21201939 C0.000225,6.57775346 0.297225,6.87430471 0.66435,6.87430471" id="Fill-9" fill="#DA272C"></path>
                            </g>
                        </g>
                    </g>
                </g>
            </g>
        </g>
    </g>
</svg>