<?xml version="1.0" encoding="UTF-8"?>
<svg width="48px" height="48px" viewBox="0 0 48 48" version="1.1" xmlns="http://www.w3.org/2000/svg" xmlns:xlink="http://www.w3.org/1999/xlink">
    <!-- Generator: sketchtool 51.2 (57519) - http://www.bohemiancoding.com/sketch -->
    <title>03C37462-BC2F-4D50-B410-1A512ECBE52A</title>
    <desc>Created with sketchtool.</desc>
    <defs></defs>
    <g id="FLUJO-" stroke="none" stroke-width="1" fill="none" fill-rule="evenodd">
        <g id="1.-Home_Campaña-navidad" transform="translate(-696.000000, -1204.000000)">
            <g id="Group-33" transform="translate(697.000000, 1205.000000)">
                <circle id="Oval-4" stroke="#FFFFFF" fill="#DA272C" cx="23" cy="23" r="23"></circle>
                <path d="M16.8785714,40.1924952 C16.6428571,40.1924952 16.4285714,40.1067809 16.2571429,39.9353524 C15.9142857,39.5924952 15.9142857,39.0353524 16.2571429,38.6924952 L27.1857143,24.9654738 L16.2571429,10.5 C15.9142857,10.1571429 15.9142857,9.6 16.2571429,9.25714286 C16.6,8.91428571 17.1571429,8.91428571 17.5,9.25714286 L29.05,24.3440452 C29.3928571,24.6869024 29.3928571,25.2440452 29.05,25.5869024 L17.5,39.9353524 C17.3285714,40.1067809 17.1142857,40.1924952 16.8785714,40.1924952 Z" id="Shape-Copy" fill="#FFFFFF" fill-rule="nonzero" transform="translate(22.653571, 24.596248) scale(-1, 1) rotate(90.000000) translate(-22.653571, -24.596248) "></path>
            </g>
        </g>
    </g>
</svg>