<?xml version="1.0" encoding="UTF-8"?>
<svg width="222px" height="92px" viewBox="0 0 222 92" version="1.1" xmlns="http://www.w3.org/2000/svg" xmlns:xlink="http://www.w3.org/1999/xlink">
    <!-- Generator: sketchtool 51.2 (57519) - http://www.bohemiancoding.com/sketch -->
    <title>8CC18CF7-FC0A-4F62-AE78-7202ED338186</title>
    <desc>Created with sketchtool.</desc>
    <defs>
        <polygon id="path-1" points="203 5.9999 221.038 5.9999 221.038 24.0376 203 24.0376"></polygon>
        <polygon id="path-3" points="0 0.0006125 8.78875 0.0006125 8.78875 8.7881125 0 8.7881125"></polygon>
        <polygon id="path-5" points="0 4.7826087e-05 10.7020435 4.7826087e-05 10.7020435 10.6928609 0 10.6928609"></polygon>
        <polygon id="path-7" points="0 0 18.9082095 0 18.9082095 18.9085176 0 18.9085176"></polygon>
    </defs>
    <g id="FLUJO-" stroke="none" stroke-width="1" fill="none" fill-rule="evenodd">
        <g id="1.-Home_Campaña-navidad" transform="translate(-406.000000, -1450.000000)">
            <g id="Group-11" transform="translate(359.000000, 1379.000000)">
                <g id="Group-3" transform="translate(47.000000, 71.000000)">
                    <g id="Group-39">
                        <g id="Group-74">
                            <g id="Group-75">
                                <path d="M82.9431541,62.5172576 C82.1865121,62.5172576 81.5709173,63.1306187 81.5709173,63.8845151 L81.5709173,88.2253807 L76.2654595,88.2253807 L76.2654595,54.2535612 L89.6208486,54.2535612 L89.6208486,88.2253807 L84.3153909,88.2251984 L84.3153909,63.8845151 C84.3153909,63.1306187 83.6997961,62.5172576 82.9431541,62.5172576 M114.900483,62.5170753 C114.143841,62.5170753 113.528246,63.1304364 113.528246,63.8843328 L113.528246,88.2251984 L108.222606,88.2251984 L108.222606,54.2535612 L121.577812,54.2535612 L121.577812,75.5325429 L121.592447,76.1428053 L121.577629,88.2251984 L116.272537,88.2251984 L116.272537,63.8843328 C116.272537,63.1304364 115.656942,62.5170753 114.900483,62.5170753 M146.915073,62.5170753 C146.158431,62.5170753 145.542836,63.1304364 145.542836,63.8843328 L145.542836,88.2251984 L140.237195,88.2251984 L140.237195,54.2535612 L153.592401,54.2535612 L153.592767,88.2251984 L148.287127,88.2251984 L148.287127,63.8843328 C148.287127,63.1304364 147.671532,62.5170753 146.915073,62.5170753 M152.32938,20.4771424 L152.32938,22.8077322 C152.32938,25.7826702 149.900479,28.2029402 146.91489,28.2029402 C143.929301,28.2029402 141.500399,25.7826702 141.500399,22.8077322 L141.500399,20.4771424 C141.500399,17.5023867 143.929301,15.0821167 146.91489,15.0821167 C149.900479,15.0821167 152.32938,17.5023867 152.32938,20.4771424 M114.774803,15.0821167 C117.760209,15.0821167 120.189293,17.5023867 120.189293,20.4771424 L120.189293,22.8077322 C120.189293,25.7826702 117.760209,28.2029402 114.774803,28.2029402 C111.789214,28.2029402 109.36013,25.7826702 109.36013,22.8077322 L109.36013,20.4771424 C109.36013,17.5023867 111.789214,15.0821167 114.774803,15.0821167 M82.9431541,15.0821167 C85.9285603,15.0821167 88.3576444,17.5023867 88.3576444,20.4771424 L88.3576444,22.8077322 C88.3576444,25.7826702 85.9285603,28.2029402 82.9431541,28.2029402 C79.957565,28.2029402 77.5284808,25.7826702 77.5284808,22.8077322 L77.5284808,20.4771424 C77.5284808,17.5023867 79.957565,15.0821167 82.9431541,15.0821167 M176.857678,17.7422628 C176.857678,16.2069462 176.25928,14.7647729 175.172613,13.6822316 C174.083934,12.597503 172.636692,12 171.097613,12 C169.558535,12 168.111292,12.597503 167.022247,13.6822316 L154.523752,26.1353756 L154.871521,24.5998767 C155.005434,24.0072952 155.073488,23.4043239 155.073488,22.8077322 L155.073488,20.4771424 C155.073488,15.9945938 151.413397,12.3477839 146.914707,12.3477839 C142.416017,12.3477839 138.755926,15.9945938 138.755926,20.4771424 L138.755926,22.8077322 C138.755926,24.4903284 139.271818,26.1074873 140.247806,27.4842232 L140.756929,28.2029402 L120.803059,28.2029402 L121.406763,27.4603449 C122.405618,26.2316177 122.933584,24.7848876 122.933584,23.2763656 L122.933584,19.664006 C122.933584,15.6942018 119.273493,12.4646233 114.774803,12.4646233 C110.275747,12.4646233 106.615656,15.6942018 106.615656,19.664006 L106.615656,23.2763656 C106.615656,24.7847053 107.143806,26.2316177 108.142661,27.4603449 L108.746547,28.2029402 L89.1009317,28.2029402 L89.6100552,27.4844054 C90.5860428,26.1076696 91.101935,24.490693 91.101935,22.8077322 L91.101935,20.4771424 C91.101935,15.9945938 87.4418442,12.3477839 82.9431541,12.3477839 C78.4440981,12.3477839 74.7840073,15.9945938 74.7840073,20.4771424 L74.7840073,22.8077322 C74.7840073,23.4048707 74.8520612,24.007842 74.9865224,24.5996944 L75.335207,26.1364693 L62.8354307,13.6822316 C60.5887383,11.4436915 56.9324892,11.443327 54.6850651,13.6822316 C52.4381897,15.920954 52.4383726,19.5639361 54.685248,21.8028408 L59.3341323,26.4348562 C59.8688674,26.9678333 60.7398472,26.9681978 61.275314,26.4346739 C61.8098662,25.9018792 61.8096833,25.0344244 61.2749482,24.501265 L56.6258809,19.8694319 C55.4490246,18.6961168 55.4490246,16.787862 56.6258809,15.6154583 C57.1948259,15.0483955 57.9527485,14.7361555 58.7602479,14.7361555 C59.5675644,14.7361555 60.3256698,15.0485778 60.8949807,15.6154583 L73.8054585,28.4792717 C75.3959433,30.0641675 77.5109186,30.9370907 79.7603551,30.9370907 L150.097323,30.9370907 C152.346942,30.9370907 154.461735,30.0641675 156.052402,28.4792717 L168.96288,15.6154583 C169.532008,15.0485778 170.290297,14.7361555 171.09743,14.7361555 C171.904747,14.7361555 172.662852,15.0483955 173.231797,15.6154583 C173.800925,16.1825211 174.114302,16.9378757 174.114302,17.7422628 C174.114485,18.5466499 173.801108,19.3020045 173.23198,19.8690673 L153.994505,39.0374671 C153.735461,39.2957532 153.592584,39.6389802 153.592584,40.0040804 L153.592584,51.5192285 L140.237378,51.5192285 L140.237378,38.320026 C140.237378,37.7624416 139.902048,37.2657376 139.383046,37.0544789 L139.132966,36.9527685 L122.964684,36.9527685 C122.208042,36.9527685 121.592447,37.5659473 121.592447,38.320026 L121.592447,41.1600792 L121.577995,41.1600792 L121.577995,51.5192285 L108.222789,51.5192285 L108.222606,38.320026 C108.222606,37.5661296 107.606828,36.9527685 106.850369,36.9527685 L90.9929025,36.9527685 C90.2362605,36.9527685 89.6206657,37.5659473 89.6206657,38.320026 L89.6206657,51.5192285 L76.2652766,51.5192285 L76.2652766,40.0040804 C76.2652766,39.6387979 76.122583,39.2955709 75.8633563,39.0372848 L69.6296584,32.8263886 C69.3709805,32.5684671 69.0263206,32.4264735 68.6593419,32.4264735 C68.2925462,32.4264735 67.9478863,32.5686494 67.6886596,32.8265709 C67.4299817,33.0843101 67.287471,33.4277194 67.287471,33.7931842 C67.287471,34.158649 67.4299817,34.5020583 67.6890254,34.7599798 L73.520986,40.5707787 L73.520986,89.5930028 C73.520986,90.3468992 74.1365808,90.9602603 74.8932228,90.9602603 L90.9930854,90.9602603 C91.7497274,90.9602603 92.3653222,90.3468992 92.3653222,89.5930028 L92.3653222,39.6871012 L105.478498,39.6871012 L105.478681,89.5924559 C105.478681,90.3463524 106.094276,90.9597135 106.850918,90.9597135 L122.950415,90.9597135 C123.707057,90.9597135 124.322651,90.3463524 124.322651,89.5924559 L124.322285,42.1626011 L124.336555,42.1626011 L124.336555,39.6871012 L137.493271,39.6871012 L137.493271,89.5924559 C137.493271,90.3463524 138.108865,90.9597135 138.865507,90.9597135 L154.965004,90.9597135 C155.721646,90.9597135 156.337241,90.3463524 156.337241,89.5924559 L156.336875,40.5704141 L175.172613,21.8026585 C176.25928,20.7199349 176.857678,19.277944 176.857678,17.7422628" id="Fill-1" stroke="#000000" stroke-width="0.5" fill="#000000"></path>
                                <path d="M31.394,72.4997375 C30.9015,72.4997375 30.50025,72.9009875 30.50025,73.3947375 C30.50025,73.8872375 30.9015,74.2884875 31.394,74.2884875 C31.88775,74.2884875 32.289,73.8872375 32.289,73.3947375 C32.289,72.9009875 31.88775,72.4997375 31.394,72.4997375 M31.394,77.7884875 C28.9715,77.7884875 26.999,75.8172375 26.999,73.3947375 C26.999,70.9709875 28.9715,68.9997375 31.394,68.9997375 C33.8165,68.9997375 35.789,70.9709875 35.789,73.3947375 C35.789,75.8172375 33.8165,77.7884875 31.394,77.7884875" id="Fill-1" fill="#DA272C"></path>
                                <path d="M200.242996,70.2348174 L201.901126,72.9982087 C202.028343,73.2105565 202.028343,73.4750348 201.901126,73.6873826 L200.242996,76.4507739 L203.006387,74.7926435 C203.218735,74.6654261 203.483691,74.6654261 203.695561,74.7926435 L206.458952,76.4507739 L204.800822,73.6873826 C204.674083,73.4750348 204.674083,73.2105565 204.800822,72.9982087 L206.458952,70.2348174 L203.695561,71.8929478 C203.483691,72.0201652 203.218735,72.0201652 203.006387,71.8929478 L200.242996,70.2348174 Z M207.832039,78.6928609 C207.675648,78.6928609 207.52117,78.6493391 207.384865,78.5675565 L203.351213,76.1475565 L199.317083,78.5675565 C198.910561,78.8119478 198.345735,78.6603391 198.1133,78.2485565 C197.957865,77.9740348 197.962648,77.6478609 198.126213,77.3757304 L200.546213,73.3425565 L198.125735,69.3089043 C197.962648,69.0372522 197.957865,68.7106 198.1133,68.4365565 C198.346213,68.0247739 198.909604,67.872687 199.317561,68.1180348 L203.351213,70.5380348 L207.384865,68.1175565 C207.791865,67.8731652 208.356213,68.0252522 208.588648,68.4360783 C208.744083,68.7101217 208.739778,69.0367739 208.576213,69.3084261 L206.155735,73.3425565 L208.576213,77.376687 C208.7393,77.6478609 208.744083,77.9740348 208.588648,78.2485565 C208.43417,78.5226 208.144343,78.6928609 207.832039,78.6928609 Z" id="Fill-1" fill="#DA272C"></path>
                                <path d="M0.217601351,9.17533108 L7.38316892,7.38368243 L9.17481757,0.217601351 C9.24773649,-0.0725337838 9.66060135,-0.0725337838 9.73300676,0.217601351 L11.5246554,7.38368243 L18.6907365,9.17533108 C18.9808716,9.24773649 18.9808716,9.66060135 18.6907365,9.73300676 L11.5246554,11.5246554 L9.73300676,18.6907365 C9.66060135,18.9813851 9.24773649,18.9813851 9.17481757,18.6907365 L7.38316892,11.5246554 L0.217601351,9.73300676 C-0.0725337838,9.66060135 -0.0725337838,9.24773649 0.217601351,9.17533108" id="Fill-1" fill="#DA272C"></path>
                                <path d="M212.0193,8.7999 C208.5893,8.7999 205.7993,11.5899 205.7993,15.0189 C205.7993,18.4479 208.5893,21.2379 212.0193,21.2379 C215.4483,21.2379 218.2383,18.4479 218.2383,15.0189 C218.2383,11.5899 215.4483,8.7999 212.0193,8.7999 M212.0193,24.0379 C207.0453,24.0379 202.9993,19.9919 202.9993,15.0189 C202.9993,10.0459 207.0453,5.9999 212.0193,5.9999 C216.9923,5.9999 221.0383,10.0459 221.0383,15.0189 C221.0383,19.9919 216.9923,24.0379 212.0193,24.0379" id="Fill-1" fill="#DA272C"></path>
                            </g>
                            <mask id="mask-2" fill="white">
                                <use xlink:href="#path-1"></use>
                            </mask>
                            <g id="Clip-2"></g>
                            <g id="Group-3" mask="url(#mask-2)">
                                <g transform="translate(27.000000, 69.000000)">
                                    <mask id="mask-4" fill="white">
                                        <use xlink:href="#path-3"></use>
                                    </mask>
                                    <g id="Clip-2" stroke="none" fill="none"></g>
                                </g>
                            </g>
                            <g id="Group-3" mask="url(#mask-2)">
                                <g transform="translate(198.000000, 68.000000)">
                                    <mask id="mask-6" fill="white">
                                        <use xlink:href="#path-5"></use>
                                    </mask>
                                    <g id="Clip-2" stroke="none" fill="none"></g>
                                </g>
                            </g>
                            <g id="Group-3" mask="url(#mask-2)">
                                <g transform="translate(1.000000, 0.000000)">
                                    <mask id="mask-8" fill="white">
                                        <use xlink:href="#path-7"></use>
                                    </mask>
                                    <g id="Clip-2" stroke="none" fill="none"></g>
                                </g>
                            </g>
                        </g>
                    </g>
                </g>
            </g>
        </g>
    </g>
</svg>