<?xml version="1.0" encoding="UTF-8"?>
<svg width="121px" height="48px" viewBox="0 0 121 48" version="1.1" xmlns="http://www.w3.org/2000/svg" xmlns:xlink="http://www.w3.org/1999/xlink">
    <!-- Generator: sketchtool 51.2 (57519) - http://www.bohemiancoding.com/sketch -->
    <title>CCD48D46-9BB8-46C1-BDEA-69E8FA7373D9</title>
    <desc>Created with sketchtool.</desc>
    <defs>
        <polygon id="path-1" points="0 0 18.9082095 0 18.9082095 18.9085176 0 18.9085176"></polygon>
        <polygon id="path-3" points="0.49815625 0.46125 2.6018125 0.46125 2.6018125 8.85298026 0.49815625 8.85298026"></polygon>
        <polygon id="path-5" points="0.028678125 0.365921053 8.44371875 0.365921053 8.44371875 2.46375 0.028678125 2.46375"></polygon>
    </defs>
    <g id="FLUJO-" stroke="none" stroke-width="1" fill="none" fill-rule="evenodd">
        <g id="1.-Home_Campaña-navidad" transform="translate(-345.000000, -3443.000000)">
            <g id="Group-14" transform="translate(318.000000, 3425.000000)">
                <g id="Group-26" transform="translate(27.000000, 6.000000)">
                    <g id="Group-55" transform="translate(0.000000, 12.000000)">
                        <g id="Group-3">
                            <g id="Group-58">
                                <path d="M41,34.2726191 C38.2339944,34.2726191 35.9837528,32.0223045 35.9837528,29.2562989 L35.9837528,27.4998382 L39.1002472,27.4998382 C41.4672697,27.4998382 43.751764,26.650164 45.532764,25.1072539 L46.0162472,24.6884787 L46.0162472,29.2563719 C46.0162472,32.0223045 43.7659326,34.2726191 41,34.2726191 Z M40.9840787,40.4319169 L38.3474157,36.2323326 L38.4,36.0958326 C38.4882978,35.8666528 38.5330674,35.6271753 38.5330674,35.383973 L38.5330674,34.6228888 L38.9282528,34.7718045 C39.5921292,35.022018 40.2891629,35.1488775 41,35.1488775 C41.7010506,35.1488775 42.3878596,35.0260348 43.0413652,34.7838551 L43.4350899,34.6378607 L43.4350899,35.3830966 C43.4350899,35.6263719 43.4798596,35.8660685 43.5682303,36.0955404 L43.6208146,36.2320404 L40.9840787,40.4319169 Z M35.9837528,24.8927539 C35.9837528,22.1267483 38.2339944,19.8764337 41,19.8764337 C42.0935337,19.8764337 43.1333876,20.2235629 44.007382,20.8803551 C44.8520899,21.515164 45.487191,22.4177146 45.7957584,23.421709 L45.8473933,23.5897596 L45.4396461,23.9975798 C43.7463596,25.6908663 41.4948764,26.6234337 39.1002472,26.6234337 L35.9837528,26.6234337 L35.9837528,24.8927539 Z M49.3554213,37.3416416 L45.2067416,36.4826921 C44.6879831,36.3752596 44.3114944,35.9128101 44.3114944,35.3831697 L44.3114944,34.1283775 L44.4329494,34.0409562 C45.9731573,32.9325236 46.8926517,31.1438551 46.8926517,29.2562989 L46.8926517,24.8926809 C46.8926517,21.6434843 44.2491966,19.0000292 41,19.0000292 C37.7508034,19.0000292 35.1073483,21.6434843 35.1073483,24.8926809 L35.1073483,29.2562989 C35.1073483,31.1295404 36.0154494,32.9101022 37.5366685,34.0192652 L37.6566629,34.1067596 L37.6566629,35.383973 C37.6566629,35.9133944 37.2804663,36.3756978 36.7621461,36.4833494 L32.6407809,37.3393775 C29.9517528,37.8981584 28,40.2969506 28,43.0434562 L28,45.718827 C28,45.9604225 28.1965337,46.1570292 28.4382022,46.1570292 L48.011236,46.1570292 C48.2529045,46.1570292 48.4494382,45.9604225 48.4494382,45.718827 C48.4494382,45.4771584 48.2529045,45.2806247 48.011236,45.2806247 L28.8764045,45.2806247 L28.8764045,43.0434562 C28.8764045,40.7102483 30.5345618,38.6721697 32.8190562,38.1975966 L36.9404944,37.3414955 C37.1481292,37.2984056 37.3474382,37.2218663 37.5328708,37.1139225 L37.7770225,36.9719449 L40.6129944,41.4891528 C40.6936966,41.6175461 40.8324607,41.6943045 40.9840787,41.6943045 C41.1357697,41.6943045 41.2745337,41.6175461 41.3551629,41.4891528 L44.1915,36.9713607 L44.4356517,37.1133382 C44.6212303,37.221209 44.8208315,37.2978213 45.0289775,37.3409112 L49.1777303,38.1998607 C51.4641236,38.6732652 53.1235955,40.7114899 53.1235955,43.0463775 L53.1235955,45.2806247 L51.6629213,45.2806247 C51.4212528,45.2806247 51.2247191,45.4771584 51.2247191,45.718827 C51.2247191,45.9604225 51.4212528,46.1570292 51.6629213,46.1570292 L53.5617978,46.1570292 C53.8034663,46.1570292 54,45.9604225 54,45.718827 L54,43.0463775 C54,40.2980461 52.0466404,37.8988157 49.3554213,37.3416416 Z" id="Fill-1" fill="#000000"></path>
                                <path d="M74,35.2726191 C71.2339944,35.2726191 68.9837528,33.0223045 68.9837528,30.2562989 L68.9837528,28.4998382 L72.1002472,28.4998382 C74.4672697,28.4998382 76.751764,27.650164 78.532764,26.1072539 L79.0162472,25.6884787 L79.0162472,30.2563719 C79.0162472,33.0223045 76.7659326,35.2726191 74,35.2726191 Z M73.9840787,41.4319169 L71.3474157,37.2323326 L71.4,37.0958326 C71.4882978,36.8666528 71.5330674,36.6271753 71.5330674,36.383973 L71.5330674,35.6228888 L71.9282528,35.7718045 C72.5921292,36.022018 73.2891629,36.1488775 74,36.1488775 C74.7010506,36.1488775 75.3878596,36.0260348 76.0413652,35.7838551 L76.4350899,35.6378607 L76.4350899,36.3830966 C76.4350899,36.6263719 76.4798596,36.8660685 76.5682303,37.0955404 L76.6208146,37.2320404 L73.9840787,41.4319169 Z M68.9837528,25.8927539 C68.9837528,23.1267483 71.2339944,20.8764337 74,20.8764337 C75.0935337,20.8764337 76.1333876,21.2235629 77.007382,21.8803551 C77.8520899,22.515164 78.487191,23.4177146 78.7957584,24.421709 L78.8473933,24.5897596 L78.4396461,24.9975798 C76.7463596,26.6908663 74.4948764,27.6234337 72.1002472,27.6234337 L68.9837528,27.6234337 L68.9837528,25.8927539 Z M82.3554213,38.3416416 L78.2067416,37.4826921 C77.6879831,37.3752596 77.3114944,36.9128101 77.3114944,36.3831697 L77.3114944,35.1283775 L77.4329494,35.0409562 C78.9731573,33.9325236 79.8926517,32.1438551 79.8926517,30.2562989 L79.8926517,25.8926809 C79.8926517,22.6434843 77.2491966,20.0000292 74,20.0000292 C70.7508034,20.0000292 68.1073483,22.6434843 68.1073483,25.8926809 L68.1073483,30.2562989 C68.1073483,32.1295404 69.0154494,33.9101022 70.5366685,35.0192652 L70.6566629,35.1067596 L70.6566629,36.383973 C70.6566629,36.9133944 70.2804663,37.3756978 69.7621461,37.4833494 L65.6407809,38.3393775 C62.9517528,38.8981584 61,41.2969506 61,44.0434562 L61,46.718827 C61,46.9604225 61.1965337,47.1570292 61.4382022,47.1570292 L81.011236,47.1570292 C81.2529045,47.1570292 81.4494382,46.9604225 81.4494382,46.718827 C81.4494382,46.4771584 81.2529045,46.2806247 81.011236,46.2806247 L61.8764045,46.2806247 L61.8764045,44.0434562 C61.8764045,41.7102483 63.5345618,39.6721697 65.8190562,39.1975966 L69.9404944,38.3414955 C70.1481292,38.2984056 70.3474382,38.2218663 70.5328708,38.1139225 L70.7770225,37.9719449 L73.6129944,42.4891528 C73.6936966,42.6175461 73.8324607,42.6943045 73.9840787,42.6943045 C74.1357697,42.6943045 74.2745337,42.6175461 74.3551629,42.4891528 L77.1915,37.9713607 L77.4356517,38.1133382 C77.6212303,38.221209 77.8208315,38.2978213 78.0289775,38.3409112 L82.1777303,39.1998607 C84.4641236,39.6732652 86.1235955,41.7114899 86.1235955,44.0463775 L86.1235955,46.2806247 L84.6629213,46.2806247 C84.4212528,46.2806247 84.2247191,46.4771584 84.2247191,46.718827 C84.2247191,46.9604225 84.4212528,47.1570292 84.6629213,47.1570292 L86.5617978,47.1570292 C86.8034663,47.1570292 87,46.9604225 87,46.718827 L87,44.0463775 C87,41.2980461 85.0466404,38.8988157 82.3554213,38.3416416 Z" id="Fill-1" fill="#000000"></path>
                                <g id="Group-3">
                                    <mask id="mask-2" fill="white">
                                        <use xlink:href="#path-1"></use>
                                    </mask>
                                    <g id="Clip-2"></g>
                                    <path d="M-0.782398649,9.17533108 L6.38316892,7.38368243 L8.17481757,0.217601351 C8.24773649,-0.0725337838 8.66060135,-0.0725337838 8.73300676,0.217601351 L10.5246554,7.38368243 L17.6907365,9.17533108 C17.9808716,9.24773649 17.9808716,9.66060135 17.6907365,9.73300676 L10.5246554,11.5246554 L8.73300676,18.6907365 C8.66060135,18.9813851 8.24773649,18.9813851 8.17481757,18.6907365 L6.38316892,11.5246554 L-0.782398649,9.73300676 C-1.07253378,9.66060135 -1.07253378,9.24773649 -0.782398649,9.17533108" id="Fill-1" fill="#DA272C" mask="url(#mask-2)"></path>
                                </g>
                                <g id="Group-11-Copy" transform="translate(102.000000, 25.000000)">
                                    <g id="Group-3" transform="translate(7.718750, 0.131092)">
                                        <mask id="mask-4" fill="white">
                                            <use xlink:href="#path-3"></use>
                                        </mask>
                                        <g id="Clip-2"></g>
                                        <path d="M2.6018125,1.51028289 C2.6018125,0.930611842 2.13096875,0.461072368 1.55028125,0.461072368 C0.969,0.461072368 0.49815625,0.930611842 0.49815625,1.51028289 L0.49815625,7.80436184 C0.49815625,8.38344079 0.969,8.85298026 1.55028125,8.85298026 C2.13096875,8.85298026 2.6018125,8.38344079 2.6018125,7.80436184 L2.6018125,1.51028289 Z" id="Fill-1" fill="#DA272C" mask="url(#mask-4)"></path>
                                    </g>
                                    <path d="M10.3205625,11.7354671 C10.3205625,11.1557961 9.84971875,10.6868487 9.26903125,10.6868487 C8.68775,10.6868487 8.21690625,11.1557961 8.21690625,11.7354671 L8.21690625,18.0295461 C8.21690625,18.608625 8.68775,19.0781645 9.26903125,19.0781645 C9.84971875,19.0781645 10.3205625,18.608625 10.3205625,18.0295461 L10.3205625,11.7354671 Z" id="Fill-4" fill="#DA272C"></path>
                                    <g id="Group-8" transform="translate(10.093750, 8.420566)">
                                        <mask id="mask-6" fill="white">
                                            <use xlink:href="#path-5"></use>
                                        </mask>
                                        <g id="Clip-7"></g>
                                        <path d="M7.39177187,0.365921053 L1.08020937,0.365921053 C0.499521875,0.365921053 0.028678125,0.835460526 0.028678125,1.41453947 C0.028678125,1.99421053 0.499521875,2.46375 1.08020937,2.46375 L7.39177187,2.46375 C7.97305312,2.46375 8.44389687,1.99421053 8.44389687,1.41453947 C8.44389687,0.835460526 7.97305312,0.365921053 7.39177187,0.365921053" id="Fill-6" fill="#DA272C" mask="url(#mask-6)"></path>
                                    </g>
                                    <path d="M1.0518875,10.8843158 L7.36345,10.8843158 C7.9441375,10.8843158 8.41498125,10.4147763 8.41498125,9.83569737 C8.41498125,9.25602632 7.9441375,8.78648684 7.36345,8.78648684 L1.0518875,8.78648684 C0.47060625,8.78648684 0.00035625,9.25602632 0.00035625,9.83569737 C0.00035625,10.4147763 0.47060625,10.8843158 1.0518875,10.8843158" id="Fill-9" fill="#DA272C"></path>
                                </g>
                            </g>
                        </g>
                        <g id="Group-3-Copy-2" transform="translate(61.000000, 20.000000)"></g>
                    </g>
                </g>
            </g>
        </g>
    </g>
</svg>