<?xml version="1.0" encoding="UTF-8"?>
<svg width="165px" height="204px" viewBox="0 0 165 204" version="1.1" xmlns="http://www.w3.org/2000/svg" xmlns:xlink="http://www.w3.org/1999/xlink">
    <!-- Generator: sketchtool 51.2 (57519) - http://www.bohemiancoding.com/sketch -->
    <title>3E79829C-8C4A-4F0B-97B3-944E08F3534C</title>
    <desc>Created with sketchtool.</desc>
    <defs>
        <polygon id="path-1" points="0.0008 0.999015001 165 0.999015001 165 166 0.0008 166"></polygon>
    </defs>
    <g id="FLUJO-" stroke="none" stroke-width="1" fill="none" fill-rule="evenodd">
        <g id="1.-Home_Campaña-navidad" transform="translate(-982.000000, -756.000000)">
            <g id="Group-27" transform="translate(982.000000, 752.000000)">
                <g id="Group-12" transform="translate(0.000000, 42.000000)">
                    <path d="M135.3579,56.775 C137.0679,62.284 137.9999,68.152 137.9999,74.247 C137.9999,105.862 113.1519,131.492 82.4999,131.492 C66.5849,131.492 52.2459,124.573 42.1269,113.503 L40.7829,114.847 C50.4619,131.105 68.2059,142.001 88.4999,142.001 C119.1519,142.001 143.9999,117.153 143.9999,86.501 C143.9999,75.562 140.8219,65.37 135.3579,56.775" id="Fill-1" fill="#DFDFDF"></path>
                    <g id="Group-5" transform="translate(0.000000, 0.001000)">
                        <mask id="mask-2" fill="white">
                            <use xlink:href="#path-1"></use>
                        </mask>
                        <g id="Clip-4"></g>
                        <path d="M74.7368,3.3692 L74.5478,1.3782 C77.1728,1.1272 79.8478,1.0002 82.5008,1.0002 C83.8848,0.9912 85.2878,1.0342 86.6748,1.1042 L86.5748,3.1012 C85.2308,3.0342 83.8698,3.0002 82.5278,3.0002 L82.5008,3.0002 C79.9128,3.0002 77.3008,3.1242 74.7368,3.3692 Z M104.0848,5.9262 C100.2958,4.8732 96.3888,4.0952 92.4748,3.6122 L92.7208,1.6262 C96.7308,2.1222 100.7348,2.9202 104.6198,3.9992 L104.0848,5.9262 Z M57.3778,6.9972 L56.7548,5.0972 C60.5888,3.8392 64.5508,2.8572 68.5318,2.1782 L68.8678,4.1502 C64.9848,4.8122 61.1198,5.7702 57.3778,6.9972 Z M120.5338,12.5342 C117.0648,10.6712 113.4278,9.0522 109.7288,7.7222 L110.4048,5.8402 C114.1978,7.2032 117.9248,8.8632 121.4808,10.7722 L120.5338,12.5342 Z M41.2308,14.3682 L40.2038,12.6522 C43.6728,10.5772 47.3228,8.7442 51.0528,7.2052 L51.8168,9.0542 C48.1758,10.5562 44.6158,12.3442 41.2308,14.3682 Z M135.1368,22.5932 C132.1568,20.0152 128.9638,17.6372 125.6428,15.5252 L126.7168,13.8382 C130.1178,16.0012 133.3908,18.4382 136.4458,21.0802 L135.1368,22.5932 Z M27.0978,25.0982 L25.7208,23.6462 C28.6508,20.8672 31.8108,18.2812 35.1118,15.9602 L36.2618,17.5962 C33.0398,19.8612 29.9578,22.3852 27.0978,25.0982 Z M147.2038,35.5992 C144.8598,32.4382 142.2578,29.4202 139.4728,26.6292 L140.8888,25.2162 C143.7428,28.0762 146.4068,31.1692 148.8088,34.4082 L147.2038,35.5992 Z M15.6448,38.6432 L13.9848,37.5272 C16.2368,34.1802 18.7568,30.9692 21.4728,27.9832 L22.9518,29.3302 C20.3008,32.2432 17.8418,35.3762 15.6448,38.6432 Z M156.1408,50.9312 C154.5478,47.3342 152.6688,43.8202 150.5568,40.4862 L152.2468,39.4152 C154.4108,42.8332 156.3368,46.4342 157.9688,50.1212 L156.1408,50.9312 Z M7.4378,54.3542 L5.5748,53.6302 C7.0338,49.8712 8.7898,46.1882 10.7898,42.6832 L12.5258,43.6752 C10.5748,47.0942 8.8638,50.6872 7.4378,54.3542 Z M161.4808,67.8602 C160.7188,63.9882 159.6608,60.1452 158.3388,56.4372 L160.2208,55.7652 C161.5788,59.5662 162.6628,63.5052 163.4438,67.4732 L161.4808,67.8602 Z M2.8888,71.4962 L0.9108,71.2012 C1.5078,67.2072 2.4088,63.2252 3.5868,59.3662 L5.4988,59.9502 C4.3498,63.7152 3.4708,67.6002 2.8888,71.4962 Z M164.9748,85.5852 L162.9748,85.5362 C162.9908,84.8592 163.0008,84.1802 163.0008,83.5002 C163.0008,80.2312 162.8008,76.9372 162.4108,73.7092 L164.3968,73.4692 C164.7978,76.7762 165.0008,80.1512 165.0008,83.5002 C165.0008,84.1972 164.9908,84.8912 164.9748,85.5852 Z M0.2058,89.3632 C0.0688,87.4262 0.0008,85.4532 0.0008,83.5002 C0.0008,81.4132 0.0788,79.3052 0.2348,77.2322 L2.2288,77.3822 C2.0768,79.4042 2.0008,81.4632 2.0008,83.5002 C2.0008,85.4072 2.0668,87.3322 2.1998,89.2222 L0.2058,89.3632 Z M162.5338,103.5972 L160.5938,103.1122 C161.5498,99.2992 162.2268,95.3742 162.6138,91.4472 L164.6038,91.6422 C164.2098,95.6672 163.5118,99.6892 162.5338,103.5972 Z M3.4668,107.2442 C2.3088,103.3792 1.4298,99.3932 0.8518,95.3972 L2.8308,95.1112 C3.3948,99.0102 4.2528,102.8992 5.3828,106.6702 L3.4668,107.2442 Z M156.1898,120.6342 L154.4048,119.7332 C156.1818,116.2152 157.7098,112.5362 158.9458,108.8002 L160.8438,109.4282 C159.5768,113.2582 158.0118,117.0282 156.1898,120.6342 Z M10.5978,123.9822 C8.6118,120.4612 6.8738,116.7652 5.4298,112.9972 L7.2978,112.2832 C8.7058,115.9582 10.4028,119.5642 12.3408,122.9992 L10.5978,123.9822 Z M146.2618,135.8542 L144.7168,134.5852 C147.2188,131.5412 149.5158,128.2882 151.5438,124.9152 L153.2578,125.9462 C151.1778,129.4022 148.8248,132.7362 146.2618,135.8542 Z M21.2228,138.7412 C18.5178,135.7432 16.0118,132.5192 13.7758,129.1592 L15.4398,128.0512 C17.6238,131.3292 20.0688,134.4752 22.7078,137.4012 L21.2228,138.7412 Z M133.2508,148.5492 L132.0178,146.9732 C135.1218,144.5472 138.0728,141.8712 140.7918,139.0192 L142.2388,140.3992 C139.4538,143.3212 136.4298,146.0632 133.2508,148.5492 Z M34.8028,150.8232 C31.5138,148.4892 28.3678,145.8902 25.4518,143.0962 L26.8348,141.6522 C29.6798,144.3772 32.7508,146.9142 35.9618,149.1922 L34.8028,150.8232 Z M117.7738,158.1002 L116.9188,156.2922 C120.4788,154.6062 123.9438,152.6402 127.2168,150.4472 L128.3308,152.1092 C124.9748,154.3562 121.4228,156.3712 117.7738,158.1002 Z M50.6878,159.6432 C46.9728,158.0892 43.3348,156.2422 39.8778,154.1512 L40.9128,152.4392 C44.2858,154.4792 47.8348,156.2822 51.4598,157.7972 L50.6878,159.6432 Z M100.5668,164.0152 L100.1318,162.0632 C103.9748,161.2042 107.7898,160.0502 111.4708,158.6312 L112.1898,160.4972 C108.4188,161.9512 104.5078,163.1352 100.5668,164.0152 Z M68.1278,164.7522 C64.1468,164.0532 60.1898,163.0512 56.3658,161.7742 L56.9988,159.8772 C60.7288,161.1222 64.5908,162.1002 68.4728,162.7832 L68.1278,164.7522 Z M82.5008,166.0002 C79.7118,166.0002 76.8988,165.8592 74.1388,165.5812 L74.3408,163.5912 C80.9418,164.2552 87.7548,164.1032 94.3068,163.1402 L94.5978,165.1192 C90.6218,165.7032 86.5508,166.0002 82.5008,166.0002 Z" id="Fill-3" fill="#FFFFFF" mask="url(#mask-2)"></path>
                    </g>
                    <path d="M135.3579,56.775 C125.5109,41.287 108.2119,31.001 88.4999,31.001 C72.8039,31.001 58.6409,37.527 48.5449,48.001 L98.9319,48.001 C100.5419,48.001 102.0569,48.63 103.1999,49.772 C104.3409,50.914 104.9699,52.429 104.9699,54.039 L104.9699,92.568 C104.9699,95.902 102.2659,98.606 98.9309,98.606 L56.9069,98.606 L42.0719,113.44 C52.1939,124.546 66.5549,131.492 82.4999,131.492 C113.1519,131.492 137.9999,105.862 137.9999,74.247 C137.9999,68.152 137.0679,62.284 135.3579,56.775" id="Fill-6" fill="#FFFFFF"></path>
                    <path d="M28.2632,112.9157 C28.7892,113.8357 29.6922,114.1087 30.5372,113.6317 C30.5402,113.6307 30.5432,113.6277 30.5462,113.6247 L47.9922,96.1797 L90.0182,96.1797 C93.3532,96.1797 96.0562,93.4757 96.0562,90.1417 L96.0562,51.6127 C96.0562,50.0027 95.4272,48.4867 94.2852,47.3457 C93.1442,46.2037 91.6282,45.5747 90.0182,45.5747 L24.1242,45.5747 C20.7892,45.5747 18.0852,48.2777 18.0852,51.6127 L18.0852,90.1417 C18.0852,93.4767 20.7892,96.1797 24.1242,96.1797 L28.2632,96.1797 L28.2632,112.9157 Z M24.1242,93.2867 C22.3872,93.2867 20.9792,91.8777 20.9792,90.1417 L20.9792,51.6127 C20.9792,49.8757 22.3872,48.4677 24.1242,48.4677 L90.0182,48.4677 C91.7542,48.4677 93.1622,49.8757 93.1622,51.6127 L93.1622,90.1417 C93.1622,91.8777 91.7542,93.2867 90.0182,93.2867 L47.3922,93.2867 C47.0342,93.2867 46.6892,93.4197 46.4212,93.6627 L46.4002,93.6827 C46.3872,93.6937 46.3742,93.7047 46.3632,93.7167 L31.1572,108.9237 L31.1572,94.7327 C31.1572,94.6857 31.1542,94.6447 31.1502,94.6127 C31.0792,93.8497 30.4602,93.2867 29.7082,93.2867 L24.1242,93.2867 Z" id="Fill-8" fill="#FFFFFF"></path>
                    <path d="M74.5239,58.5787 C72.9589,57.0127 70.4099,57.0127 68.8429,58.5787 L55.2809,72.1407 L50.6049,67.4657 C49.8479,66.7077 48.8389,66.2907 47.7649,66.2907 C46.6909,66.2907 45.6819,66.7077 44.9239,67.4657 C44.1669,68.2227 43.7499,69.2317 43.7499,70.3057 C43.7499,71.3797 44.1669,72.3887 44.9239,73.1457 L53.3299,81.5517 C53.8499,82.0727 54.5429,82.3587 55.2809,82.3587 C56.0189,82.3587 56.7119,82.0727 57.2329,81.5517 L74.5239,64.2597 C76.0899,62.6937 76.0899,60.1447 74.5239,58.5787 M73.2099,61.4187 C73.2099,61.8277 73.0509,62.2107 72.7629,62.4987 L55.4709,79.7907 C55.3699,79.8927 55.1919,79.8917 55.0899,79.7907 L46.6849,71.3857 C46.3969,71.0977 46.2389,70.7147 46.2389,70.3067 C46.2389,69.8977 46.3969,69.5147 46.6849,69.2257 C46.9729,68.9377 47.3559,68.7797 47.7649,68.7797 C48.1729,68.7797 48.5569,68.9377 48.8439,69.2257 L53.8649,74.2467 C54.2439,74.6247 54.7469,74.8327 55.2809,74.8327 C55.8159,74.8327 56.3189,74.6247 56.6969,74.2467 L70.6039,60.3397 C70.8919,60.0517 71.2749,59.8927 71.6839,59.8927 C72.0919,59.8927 72.4749,60.0517 72.7629,60.3397 C73.0509,60.6267 73.2099,61.0107 73.2099,61.4187" id="Fill-10" fill="#FFFFFF"></path>
                </g>
                <path d="M53.6191406,14.4892578 L53.6191406,20 L50.3964844,20 L50.3964844,4.359375 L56.4980469,4.359375 C57.6725319,4.359375 58.7055619,4.5742166 59.597168,5.00390625 C60.488774,5.4335959 61.1744768,6.04410412 61.6542969,6.83544922 C62.134117,7.62679432 62.3740234,8.5273387 62.3740234,9.53710938 C62.3740234,11.0696691 61.8494519,12.2781531 60.800293,13.1625977 C59.7511341,14.0470422 58.2991629,14.4892578 56.4443359,14.4892578 L53.6191406,14.4892578 Z M53.6191406,11.8789062 L56.4980469,11.8789062 C57.3502647,11.8789062 58.0001605,11.6783874 58.4477539,11.2773438 C58.8953473,10.8763001 59.1191406,10.3033891 59.1191406,9.55859375 C59.1191406,8.79231388 58.8935569,8.17285393 58.4423828,7.70019531 C57.9912087,7.2275367 57.368168,6.98404955 56.5732422,6.96972656 L53.6191406,6.96972656 L53.6191406,11.8789062 Z M71,20 C70.8567701,19.7207017 70.75293,19.3733745 70.6884766,18.9580078 C69.9365197,19.7959026 68.9589904,20.2148438 67.7558594,20.2148438 C66.6171818,20.2148438 65.6736691,19.88542 64.925293,19.2265625 C64.1769168,18.567705 63.8027344,17.7369842 63.8027344,16.734375 C63.8027344,15.502598 64.2592728,14.557295 65.1723633,13.8984375 C66.0854538,13.23958 67.4049393,12.9065756 69.1308594,12.8994141 L70.5595703,12.8994141 L70.5595703,12.2333984 C70.5595703,11.6962864 70.4217136,11.2666032 70.1459961,10.9443359 C69.8702786,10.6220687 69.4352243,10.4609375 68.8408203,10.4609375 C68.3180312,10.4609375 67.9080419,10.5862618 67.6108398,10.8369141 C67.3136378,11.0875664 67.1650391,11.4313129 67.1650391,11.8681641 L64.0605469,11.8681641 C64.0605469,11.1949836 64.2682271,10.571943 64.6835938,9.99902344 C65.0989604,9.42610391 65.6861941,8.97672689 66.4453125,8.65087891 C67.2044309,8.32503092 68.0566359,8.16210938 69.0019531,8.16210938 C70.434252,8.16210938 71.5711221,8.52196906 72.4125977,9.24169922 C73.2540732,9.96142938 73.6748047,10.9729753 73.6748047,12.2763672 L73.6748047,17.3144531 C73.6819662,18.4173232 73.835936,19.2516248 74.1367188,19.8173828 L74.1367188,20 L71,20 Z M68.4326172,17.8408203 C68.8909528,17.8408203 69.3134746,17.7387706 69.7001953,17.534668 C70.086916,17.3305654 70.3733715,17.0566423 70.5595703,16.7128906 L70.5595703,14.7148438 L69.3994141,14.7148438 C67.8453698,14.7148438 67.0182297,15.2519478 66.9179688,16.3261719 L66.9072266,16.5087891 C66.9072266,16.8955097 67.0432929,17.2141915 67.3154297,17.4648438 C67.5875665,17.715496 67.9599586,17.8408203 68.4326172,17.8408203 Z M82.3544922,16.7880859 C82.3544922,16.4085267 82.1665058,16.1095389 81.7905273,15.8911133 C81.4145489,15.6726877 80.8112021,15.4775399 79.9804688,15.3056641 C77.216132,14.725583 75.8339844,13.5511156 75.8339844,11.7822266 C75.8339844,10.7509714 76.2618772,9.88981465 77.1176758,9.19873047 C77.9734743,8.50764628 79.092441,8.16210938 80.4746094,8.16210938 C81.9498772,8.16210938 83.1297156,8.50943663 84.0141602,9.20410156 C84.8986047,9.89876649 85.3408203,10.8011012 85.3408203,11.9111328 L82.2363281,11.9111328 C82.2363281,11.4671202 82.0931004,11.1000991 81.8066406,10.8100586 C81.5201809,10.5200181 81.0725942,10.375 80.4638672,10.375 C79.9410781,10.375 79.5364598,10.4931629 79.25,10.7294922 C78.9635402,10.9658215 78.8203125,11.2665997 78.8203125,11.6318359 C78.8203125,11.9755877 78.983234,12.2530914 79.309082,12.4643555 C79.63493,12.6756195 80.1845664,12.8582349 80.9580078,13.012207 C81.7314492,13.1661792 82.3831354,13.3398428 82.9130859,13.5332031 C84.5530681,14.1347686 85.3730469,15.1767504 85.3730469,16.6591797 C85.3730469,17.7190808 84.9182988,18.5766569 84.0087891,19.2319336 C83.0992793,19.8872103 81.9248119,20.2148438 80.4853516,20.2148438 C79.5113884,20.2148438 78.6466509,20.0411801 77.8911133,19.6938477 C77.1355756,19.3465152 76.5429709,18.870283 76.1132812,18.2651367 C75.6835916,17.6599905 75.46875,17.0065139 75.46875,16.3046875 L78.4121094,16.3046875 C78.4407554,16.8561225 78.6448549,17.2786444 79.0244141,17.5722656 C79.4039733,17.8658869 79.9124317,18.0126953 80.5498047,18.0126953 C81.1442087,18.0126953 81.5935857,17.8999035 81.8979492,17.6743164 C82.2023127,17.4487293 82.3544922,17.1533221 82.3544922,16.7880859 Z M86.8876953,14.0810547 C86.8876953,12.9280541 87.1096983,11.9003951 87.5537109,10.9980469 C87.9977236,10.0956986 88.6368773,9.39746341 89.4711914,8.90332031 C90.3055055,8.40917722 91.274083,8.16210938 92.3769531,8.16210938 C93.9453203,8.16210938 95.2254182,8.64192229 96.2172852,9.6015625 C97.2091521,10.5612027 97.7623692,11.8645751 97.8769531,13.5117188 L97.8984375,14.3066406 C97.8984375,16.0898527 97.4007211,17.5203397 96.4052734,18.5981445 C95.4098258,19.6759494 94.0742271,20.2148438 92.3984375,20.2148438 C90.7226479,20.2148438 89.3852589,19.6777397 88.3862305,18.6035156 C87.387202,17.5292915 86.8876953,16.0683686 86.8876953,14.2207031 L86.8876953,14.0810547 Z M89.9921875,14.3066406 C89.9921875,15.4095107 90.1998677,16.252764 90.6152344,16.8364258 C91.030601,17.4200876 91.6249961,17.7119141 92.3984375,17.7119141 C93.1503944,17.7119141 93.7376281,17.4236682 94.1601562,16.847168 C94.5826844,16.2706677 94.7939453,15.3486392 94.7939453,14.0810547 C94.7939453,12.9996691 94.5826844,12.1617868 94.1601562,11.5673828 C93.7376281,10.9729788 93.143233,10.6757812 92.3769531,10.6757812 C91.6178347,10.6757812 91.030601,10.9711885 90.6152344,11.5620117 C90.1998677,12.152835 89.9921875,13.0677021 89.9921875,14.3066406 Z M108.318359,10.8046875 L109.972656,10.8046875 C110.760421,10.8046875 111.344074,10.6077494 111.723633,10.2138672 C112.103192,9.81998501 112.292969,9.29720378 112.292969,8.64550781 C112.292969,8.01529633 112.104982,7.52474134 111.729004,7.17382812 C111.353025,6.82291491 110.835615,6.64746094 110.176758,6.64746094 C109.582354,6.64746094 109.084637,6.81038249 108.683594,7.13623047 C108.28255,7.46207845 108.082031,7.88639062 108.082031,8.40917969 L104.977539,8.40917969 C104.977539,7.59276936 105.197752,6.86051756 105.638184,6.21240234 C106.078615,5.56428712 106.694495,5.05761901 107.48584,4.69238281 C108.277185,4.32714661 109.149084,4.14453125 110.101562,4.14453125 C111.755868,4.14453125 113.052079,4.54019787 113.990234,5.33154297 C114.92839,6.12288807 115.397461,7.2132092 115.397461,8.60253906 C115.397461,9.31868848 115.179039,9.97753605 114.742188,10.5791016 C114.305336,11.1806671 113.732425,11.6425765 113.023438,11.9648438 C113.904301,12.2799495 114.561359,12.752601 114.994629,13.3828125 C115.427899,14.013024 115.644531,14.7578082 115.644531,15.6171875 C115.644531,17.0065174 115.137863,18.120113 114.124512,18.9580078 C113.11116,19.7959026 111.770191,20.2148438 110.101562,20.2148438 C108.540357,20.2148438 107.26384,19.803064 106.271973,18.9794922 C105.280106,18.1559204 104.78418,17.0673896 104.78418,15.7138672 L107.888672,15.7138672 C107.888672,16.3011097 108.108885,16.7809226 108.549316,17.1533203 C108.989748,17.525718 109.532223,17.7119141 110.176758,17.7119141 C110.914392,17.7119141 111.492674,17.5167663 111.911621,17.1264648 C112.330569,16.7361634 112.540039,16.2187532 112.540039,15.5742188 C112.540039,14.013013 111.680673,13.2324219 109.961914,13.2324219 L108.318359,13.2324219 L108.318359,10.8046875 Z" id="Paso-3" fill="#FFFFFF"></path>
            </g>
        </g>
    </g>
</svg>