<?xml version="1.0" encoding="UTF-8"?>
<svg width="101px" height="82px" viewBox="0 0 101 82" version="1.1" xmlns="http://www.w3.org/2000/svg" xmlns:xlink="http://www.w3.org/1999/xlink">
    <!-- Generator: sketchtool 51.2 (57519) - http://www.bohemiancoding.com/sketch -->
    <title>0E4B8702-E6F6-460F-85E5-BCCE0A14BBFF</title>
    <desc>Created with sketchtool.</desc>
    <defs>
        <polygon id="path-1" points="0 0.000325592105 4.67191447 0.000325592105 4.67191447 4.67157559 0 4.67157559"></polygon>
        <polygon id="path-3" points="0 0.000447689145 6.4238824 0.000447689145 6.4238824 6.42341644 0 6.42341644"></polygon>
        <polygon id="path-5" points="0 3.17791762e-05 7.11122626 3.17791762e-05 7.11122626 7.10512466 0 7.10512466"></polygon>
        <polygon id="path-7" points="0 0 12.5640076 0 12.5640076 12.5642123 0 12.5642123"></polygon>
        <polygon id="path-9" points="0 0 7.9351627 0 7.9351627 7.935292 0 7.935292"></polygon>
        <polygon id="path-11" points="0 -6.64473684e-05 11.9857763 -6.64473684e-05 11.9857763 11.9855105 0 11.9855105"></polygon>
    </defs>
    <g id="FLUJO-" stroke="none" stroke-width="1" fill="none" fill-rule="evenodd">
        <g id="1.-Home_Campaña-navidad" transform="translate(-668.000000, -1999.000000)">
            <g id="Group-46" transform="translate(668.000000, 1999.000000)">
                <g id="Group-33-Copy">
                    <g id="Group-3-Copy-23" transform="translate(0.000000, 41.197368)">
                        <mask id="mask-2" fill="white">
                            <use xlink:href="#path-1"></use>
                        </mask>
                        <g id="Clip-2"></g>
                        <path d="M2.33575789,1.86038678 C2.07395526,1.86038678 1.86065921,2.07368283 1.86065921,2.33614993 C1.86065921,2.59795257 2.07395526,2.81124862 2.33575789,2.81124862 C2.598225,2.81124862 2.81152105,2.59795257 2.81152105,2.33614993 C2.81152105,2.07368283 2.598225,1.86038678 2.33575789,1.86038678 M2.33575789,4.67177493 C1.04800789,4.67177493 -0.000531578947,3.62389993 -0.000531578947,2.33614993 C-0.000531578947,1.04773546 1.04800789,-0.000139539474 2.33575789,-0.000139539474 C3.62350789,-0.000139539474 4.67204737,1.04773546 4.67204737,2.33614993 C4.67204737,3.62389993 3.62350789,4.67177493 2.33575789,4.67177493" id="Fill-1" fill="#DA272C" mask="url(#mask-2)"></path>
                    </g>
                    <g id="Group-3-Copy-24" transform="translate(81.730263, 75.085526)">
                        <mask id="mask-4" fill="white">
                            <use xlink:href="#path-3"></use>
                        </mask>
                        <g id="Clip-2"></g>
                        <path d="M3.21166711,2.55803182 C2.85168849,2.55803182 2.55840641,2.85131389 2.55840641,3.21220616 C2.55840641,3.57218478 2.85168849,3.86546685 3.21166711,3.86546685 C3.57255937,3.86546685 3.86584145,3.57218478 3.86584145,3.21220616 C3.86584145,2.85131389 3.57255937,2.55803182 3.21166711,2.55803182 M3.21166711,6.42369053 C1.44101086,6.42369053 -0.000730921053,4.98286241 -0.000730921053,3.21220616 C-0.000730921053,1.44063626 1.44101086,-0.000191866776 3.21166711,-0.000191866776 C4.98232336,-0.000191866776 6.42406513,1.44063626 6.42406513,3.21220616 C6.42406513,4.98286241 4.98232336,6.42369053 3.21166711,6.42369053" id="Fill-1" fill="#DA272C" mask="url(#mask-4)"></path>
                    </g>
                    <g id="Group-3-Copy-25" transform="translate(93.690789, 40.532895)">
                        <mask id="mask-6" fill="white">
                            <use xlink:href="#path-5"></use>
                        </mask>
                        <g id="Clip-2"></g>
                        <path d="M1.49041158,1.48497735 L2.59219562,3.32117815 C2.67672823,3.46227769 2.67672823,3.63801653 2.59219562,3.77911608 L1.49041158,5.61531688 L3.32661239,4.51353284 C3.46771193,4.42900023 3.64376856,4.42900023 3.78455031,4.51353284 L5.62075112,5.61531688 L4.51896708,3.77911608 C4.43475226,3.63801653 4.43475226,3.46227769 4.51896708,3.32117815 L5.62075112,1.48497735 L3.78455031,2.58676138 C3.64376856,2.67129399 3.46771193,2.67129399 3.32661239,2.58676138 L1.49041158,1.48497735 Z M6.53313126,7.10512466 C6.42921336,7.10512466 6.32656662,7.07620561 6.23599597,7.02186322 L3.55574025,5.4138369 L0.875166733,7.02186322 C0.605043736,7.18425481 0.229731665,7.08351482 0.0752848684,6.80989611 C-0.0279974542,6.62748364 -0.0248195366,6.41074966 0.083865246,6.22992614 L1.69189156,3.54998822 L0.0835474542,0.869732494 C-0.0248195366,0.689226773 -0.0279974542,0.472175 0.0752848684,0.29008032 C0.230049457,0.0164616133 0.604408152,-0.084596167 0.875484525,0.0784310069 L3.55574025,1.68645732 L6.23599597,0.0781132151 C6.50643676,-0.0842783753 6.88143104,0.016779405 7.03587783,0.289762529 C7.13916015,0.471857208 7.13630003,0.688908982 7.02761525,0.869414703 L5.41927114,3.54998822 L7.02761525,6.23056173 C7.13598224,6.41074966 7.13916015,6.62748364 7.03587783,6.80989611 C6.93323109,6.99199079 6.74064928,7.10512466 6.53313126,7.10512466 Z" id="Fill-1" fill="#DA272C" mask="url(#mask-6)"></path>
                    </g>
                    <g id="Group-3-Copy-26" transform="translate(13.953947, 0.000000)">
                        <mask id="mask-8" fill="white">
                            <use xlink:href="#path-7"></use>
                        </mask>
                        <g id="Clip-2"></g>
                        <path d="M-0.519883313,6.09676605 L4.24144777,4.90626267 L5.43195115,0.144590372 C5.48040385,-0.0481967905 5.75474169,-0.0481967905 5.80285317,0.144590372 L6.99335655,4.90626267 L11.7550288,6.09676605 C11.947816,6.14487753 11.947816,6.41921537 11.7550288,6.46732686 L6.99335655,7.65783024 L5.80285317,12.4195025 C5.75474169,12.6126309 5.48040385,12.6126309 5.43195115,12.4195025 L4.24144777,7.65783024 L-0.519883313,6.46732686 C-0.712670475,6.41921537 -0.712670475,6.14487753 -0.519883313,6.09676605" id="Fill-1" fill="#DA272C" mask="url(#mask-8)"></path>
                    </g>
                    <g id="Group-3-Copy-27" transform="translate(15.282895, 71.763158)">
                        <mask id="mask-10" fill="white">
                            <use xlink:href="#path-9"></use>
                        </mask>
                        <g id="Clip-2"></g>
                        <path d="M-0.328347355,3.85058908 L2.67880912,3.09869221 L3.43070599,0.0913202347 C3.46130769,-0.0304400782 3.6345737,-0.0304400782 3.6649599,0.0913202347 L4.41685677,3.09869221 L7.42422875,3.85058908 C7.54598906,3.88097528 7.54598906,4.05424129 7.42422875,4.08462749 L4.41685677,4.83652436 L3.6649599,7.84389634 C3.6345737,7.96587216 3.46130769,7.96587216 3.43070599,7.84389634 L2.67880912,4.83652436 L-0.328347355,4.08462749 C-0.450107668,4.05424129 -0.450107668,3.88097528 -0.328347355,3.85058908" id="Fill-1" fill="#DA272C" mask="url(#mask-10)"></path>
                    </g>
                    <g id="Group-3-Copy-28" transform="translate(79.072368, 5.980263)">
                        <mask id="mask-12" fill="white">
                            <use xlink:href="#path-11"></use>
                        </mask>
                        <g id="Clip-2"></g>
                        <path d="M5.9930875,1.86045987 C3.71394276,1.86045987 1.86006118,3.71434145 1.86006118,5.99282171 C1.86006118,8.27130197 3.71394276,10.1251836 5.9930875,10.1251836 C8.27156776,10.1251836 10.1254493,8.27130197 10.1254493,5.99282171 C10.1254493,3.71434145 8.27156776,1.86045987 5.9930875,1.86045987 M5.9930875,11.9857099 C2.68799539,11.9857099 -0.000465131579,9.29724934 -0.000465131579,5.99282171 C-0.000465131579,2.68839408 2.68799539,-6.64473684e-05 5.9930875,-6.64473684e-05 C9.29751513,-6.64473684e-05 11.9859757,2.68839408 11.9859757,5.99282171 C11.9859757,9.29724934 9.29751513,11.9857099 5.9930875,11.9857099" id="Fill-1" fill="#DA272C" mask="url(#mask-12)"></path>
                    </g>
                </g>
                <g id="Group-9-Copy" transform="translate(17.000000, 12.000000)">
                    <g id="Group-3" transform="translate(4.107689, 2.553844)" fill="#DA272C">
                        <path d="M53.8666049,21.3222258 L53.8666049,17.955563 L53.8666049,4.4889118 C53.8666049,2.46891411 51.276519,2.80555232e-05 48.2555002,2.80555232e-05 L19.0777559,2.80555232e-05 C15.9804261,0.00367527356 13.4702984,2.51380295 13.4666512,5.61113273 L13.4666512,15.7111212 L13.4666512,19.1202881 C5.9337432,19.6933221 0,25.9870177 0,33.6666561 C0,41.3462945 5.9337432,47.6399901 13.4666512,48.2130242 L13.4666512,51.6221911 L13.4666512,61.7221795 C13.4702984,64.8195093 15.9804261,67.3294967 19.0777559,67.3332842 L48.2555002,67.3332842 C51.35283,67.3294967 53.8629577,64.8195093 53.8666049,61.7221795 L53.8666049,50.4999702 L53.8666049,47.1333074 L53.8666049,44.8888655 L53.8666049,41.5222027 L53.8666049,21.3222258 Z" id="Fill-1"></path>
                    </g>
                    <g id="Group-19" fill="#000000">
                        <path d="M35.9346956,61.2378245 L31.3985605,61.2378245 C30.9686199,61.2378245 30.6189123,61.587674 30.6189123,62.0174728 C30.6189123,62.4472716 30.9686199,62.797121 31.3985605,62.797121 L35.9346956,62.797121 C36.3644944,62.797121 36.7143439,62.4472716 36.7143439,62.0174728 C36.7143439,61.587674 36.3644944,61.2378245 35.9346956,61.2378245" id="Fill-1"></path>
                        <path d="M52.1655542,6.80420273 L15.1677019,6.80420273 L15.1677019,5.31578338 C15.1677019,3.24447067 16.8528761,1.55929646 18.9241888,1.55929646 L48.4090673,1.55929646 C50.5793245,1.55929646 52.1655542,3.28402009 52.1655542,4.18174959 L52.1655542,6.80420273 Z M18.9241888,0 C15.9966806,0.00340210136 13.6118076,2.38827516 13.6084055,5.31620864 L13.6084055,15.5220875 C13.6084055,15.952028 13.9581131,16.3017357 14.3880537,16.3017357 C14.8179942,16.3017357 15.1677019,15.952028 15.1677019,15.5220875 L15.1677019,8.36349918 L52.1655542,8.36349918 L52.1655542,52.7901276 C52.1655542,53.2200682 52.5154037,53.5697758 52.9452025,53.5697758 C53.3750013,53.5697758 53.7248507,53.2200682 53.7248507,52.7901276 L53.7248507,4.18174959 C53.7248507,1.96896616 50.7522646,0 48.4090673,0 L18.9241888,0 Z" id="Fill-3"></path>
                        <path d="M48.4090673,65.7739597 L18.9241888,65.7739597 C16.8528761,65.7739597 15.1677019,64.0887855 15.1677019,62.0174728 L15.1677019,58.2609858 L52.1655542,58.2609858 L52.1655542,62.0174728 C52.1655542,64.0887855 50.48038,65.7739597 48.4090673,65.7739597 M53.7248507,62.0170475 L53.7248507,50.6771349 C53.7248507,50.2473361 53.3750013,49.8974867 52.9452025,49.8974867 C52.5154037,49.8974867 52.1655542,50.2473361 52.1655542,50.6771349 L52.1655542,56.7016894 L15.1677019,56.7016894 L15.1677019,51.8111687 C15.1677019,51.3813699 14.8179942,51.0315204 14.3880537,51.0315204 C13.9581131,51.0315204 13.6084055,51.3813699 13.6084055,51.8111687 L13.6084055,62.0174728 C13.6118076,64.9448392 15.9966806,67.329854 18.9246141,67.3332561 L48.4090673,67.3332561 C51.3364338,67.329854 53.7214486,64.9448392 53.7248507,62.0170475" id="Fill-5"></path>
                        <path d="M35.3676787,3.40210136 L33.0996112,3.40210136 C32.6696706,3.40210136 32.3199629,3.75180903 32.3199629,4.18174959 C32.3199629,4.61169015 32.6696706,4.96139782 33.0996112,4.96139782 L35.3676787,4.96139782 C35.7974776,4.96139782 36.147327,4.61169015 36.147327,4.18174959 C36.147327,3.75180903 35.7974776,3.40210136 35.3676787,3.40210136" id="Fill-7"></path>
                        <path d="M14.3880537,46.4953853 C7.32231441,46.4870218 1.56765996,40.7323673 1.55929646,33.6670533 L1.55929646,33.6666281 C1.55929646,26.5928088 7.31423442,20.8378708 14.3880537,20.8378708 C21.4618729,20.8378708 27.2168109,26.5928088 27.2168109,33.6666281 C27.2168109,40.7404473 21.4618729,46.4953853 14.3880537,46.4953853 M28.7761074,33.6662028 C28.7761074,25.7330694 22.3216123,19.2785744 14.3880537,19.2785744 C6.45449506,19.2785744 0,25.7330694 0,33.6666281 C0,41.6001867 6.45449506,48.0546817 14.3880537,48.0546817 C22.3123983,48.0456095 28.7670351,41.5908309 28.7761074,33.6662028" id="Fill-11"></path>
                        <path d="M17.5977379,28.5643124 C17.5535105,28.3976094 17.4454938,28.2606748 17.2935333,28.1785991 C17.007615,28.0249376 16.6488351,28.1199129 16.4766037,28.3953413 L9.97065187,38.8083231 C9.87936215,38.9547552 9.85342112,39.1271283 9.89750669,39.2936895 C9.94173401,39.460676 10.0497507,39.5976106 10.201853,39.6795445 C10.2944185,39.7293003 10.394497,39.753115 10.4934414,39.753115 C10.7004026,39.753115 10.9024024,39.6490674 11.0187826,39.4629441 L17.5244509,29.0499623 C17.6158824,28.903672 17.6419652,28.7311571 17.5977379,28.5643124" id="Fill-13"></path>
                        <path d="M11.6743675,29.9308373 C11.6743675,30.4143609 11.5409768,30.809997 11.2780227,31.1065468 C11.0082644,31.4106096 10.6436726,31.5648382 10.1941699,31.5648382 C9.74707711,31.5648382 9.37851612,31.4140117 9.09883504,31.1166113 C8.82269781,30.8226131 8.68264464,30.4343483 8.68264464,29.9623067 L8.68264464,29.1992437 C8.68264464,28.6931811 8.8205715,28.2877641 9.09259786,27.9940493 C9.36887684,27.6956567 9.73247642,27.5445467 10.1733321,27.5445467 C10.6367266,27.5445467 11.0084062,27.6986335 11.277881,28.0026963 C11.5409768,28.2995297 11.6743675,28.688078 11.6743675,29.157568 L11.6743675,29.9308373 Z M12.4173014,32.0494959 C12.9806327,31.5186263 13.2543601,30.8316854 13.2543601,29.9495488 L13.2543601,29.20137 C13.2543601,28.2769907 12.9803492,27.5679361 12.4167344,27.0333809 C11.850001,26.4958489 11.1161394,26.2345959 10.1733321,26.2345959 C9.2451254,26.2345959 8.5183515,26.4989675 7.95147636,27.0428785 C7.38715279,27.5846631 7.11285837,28.2737304 7.11285837,29.149488 L7.11285837,29.887177 C7.11285837,30.8043268 7.38842858,31.5099793 7.95530372,32.044251 C8.52572272,32.5822083 9.25802503,32.843603 10.1941699,32.843603 C11.1233689,32.843603 11.850568,32.5839093 12.4173014,32.0494959 Z" id="Fill-15"></path>
                        <path d="M15.9144773,37.6987277 C15.9144773,37.2062736 16.0524042,36.8078024 16.3245723,36.5143712 C16.6005678,36.2159785 16.9675695,36.0647268 17.4155128,36.0647268 C17.8631726,36.0647268 18.2303161,36.2159785 18.5065951,36.5143712 C18.7786214,36.8079442 18.9165483,37.1959255 18.9165483,37.6672583 L18.9165483,38.461649 C18.9165483,39.5236716 18.4046738,40.0850183 17.4363507,40.0850183 C17.001874,40.0850183 16.6345888,39.9246943 16.3445596,39.6088659 C16.0592084,39.2977154 15.9144773,38.9188063 15.9144773,38.4826286 L15.9144773,37.6987277 Z M19.6552295,35.5444888 C19.0843853,35.0130522 18.3517995,34.7546343 17.4155128,34.7546343 C16.4932598,34.7546343 15.7659189,35.0163126 15.1919561,35.5544116 C14.6218206,36.088825 14.3446911,36.7773253 14.3446911,37.6593201 L14.3446911,38.428195 C14.3446911,39.3249322 14.6188437,40.022363 15.1828838,40.5603202 C15.7494754,41.1009708 16.4865974,41.3637832 17.4363507,41.3637832 C18.378591,41.3637832 19.108767,41.1029554 19.6685544,40.5659904 C20.2257903,40.0311517 20.4966826,39.3454865 20.4966826,38.4697289 L20.4966826,37.7215502 C20.4966826,36.7841295 20.2213959,36.0719563 19.6552295,35.5444888 Z" id="Fill-17"></path>
                    </g>
                </g>
            </g>
        </g>
    </g>
</svg>