<?xml version="1.0" encoding="UTF-8"?>
<svg width="150px" height="102px" viewBox="0 0 150 102" version="1.1" xmlns="http://www.w3.org/2000/svg" xmlns:xlink="http://www.w3.org/1999/xlink">
    <!-- Generator: sketchtool 51.2 (57519) - http://www.bohemiancoding.com/sketch -->
    <title>1471470C-C5C1-41AA-8975-408D80F35744</title>
    <desc>Created with sketchtool.</desc>
    <defs>
        <polygon id="path-1" points="0 2.92134831e-05 26 2.92134831e-05 26 27.157 0 27.157"></polygon>
        <polygon id="path-3" points="0 2.92134831e-05 26 2.92134831e-05 26 27.157 0 27.157"></polygon>
        <polygon id="path-5" points="0 2.92134831e-05 26 2.92134831e-05 26 27.157 0 27.157"></polygon>
        <polygon id="path-7" points="0 2.92134831e-05 26 2.92134831e-05 26 27.157 0 27.157"></polygon>
        <polygon id="path-9" points="0 2.92134831e-05 26 2.92134831e-05 26 27.157 0 27.157"></polygon>
        <polygon id="path-11" points="0 2.92134831e-05 26 2.92134831e-05 26 27.157 0 27.157"></polygon>
        <polygon id="path-13" points="0 2.92134831e-05 26 2.92134831e-05 26 27.157 0 27.157"></polygon>
        <polygon id="path-15" points="0 2.92134831e-05 26 2.92134831e-05 26 27.157 0 27.157"></polygon>
        <polygon id="path-17" points="0 2.92134831e-05 26 2.92134831e-05 26 27.157 0 27.157"></polygon>
        <polygon id="path-19" points="0 2.92134831e-05 26 2.92134831e-05 26 27.157 0 27.157"></polygon>
        <polygon id="path-21" points="0.34084375 0.315592105 1.7801875 0.315592105 1.7801875 6.05730229 0.34084375 6.05730229"></polygon>
        <polygon id="path-23" points="0.019621875 0.250367036 5.77728125 0.250367036 5.77728125 1.68572368 0.019621875 1.68572368"></polygon>
    </defs>
    <g id="FLUJO-" stroke="none" stroke-width="1" fill="none" fill-rule="evenodd">
        <g id="1.-Home_Campaña-navidad" transform="translate(-334.000000, -3535.000000)">
            <g id="Group-65" transform="translate(334.000000, 3535.000000)">
                <g id="Group-62" transform="translate(0.000000, 16.000000)">
                    <g id="Group-3-Copy-10" transform="translate(0.000000, 31.000000)">
                        <mask id="mask-2" fill="white">
                            <use xlink:href="#path-1"></use>
                        </mask>
                        <g id="Clip-2"></g>
                        <path d="M13,15.2726191 C10.2339944,15.2726191 7.98375281,13.0223045 7.98375281,10.2562989 L7.98375281,8.4998382 L11.1002472,8.4998382 C13.4672697,8.4998382 15.751764,7.65016404 17.532764,6.10725393 L18.0162472,5.68847865 L18.0162472,10.2563719 C18.0162472,13.0223045 15.7659326,15.2726191 13,15.2726191 Z M12.9840787,21.4319169 L10.3474157,17.2323326 L10.4,17.0958326 C10.4882978,16.8666528 10.5330674,16.6271753 10.5330674,16.383973 L10.5330674,15.6228888 L10.9282528,15.7718045 C11.5921292,16.022018 12.2891629,16.1488775 13,16.1488775 C13.7010506,16.1488775 14.3878596,16.0260348 15.0413652,15.7838551 L15.4350899,15.6378607 L15.4350899,16.3830966 C15.4350899,16.6263719 15.4798596,16.8660685 15.5682303,17.0955404 L15.6208146,17.2320404 L12.9840787,21.4319169 Z M7.98375281,5.89275393 C7.98375281,3.12674831 10.2339944,0.876433708 13,0.876433708 C14.0935337,0.876433708 15.1333876,1.22356292 16.007382,1.88035506 C16.8520899,2.51516404 17.487191,3.41771461 17.7957584,4.42170899 L17.8473933,4.58975955 L17.4396461,4.99757978 C15.7463596,6.69086629 13.4948764,7.62343371 11.1002472,7.62343371 L7.98375281,7.62343371 L7.98375281,5.89275393 Z M21.3554213,18.3416416 L17.2067416,17.4826921 C16.6879831,17.3752596 16.3114944,16.9128101 16.3114944,16.3831697 L16.3114944,15.1283775 L16.4329494,15.0409562 C17.9731573,13.9325236 18.8926517,12.1438551 18.8926517,10.2562989 L18.8926517,5.8926809 C18.8926517,2.64348427 16.2491966,2.92134831e-05 13,2.92134831e-05 C9.75080337,2.92134831e-05 7.10734831,2.64348427 7.10734831,5.8926809 L7.10734831,10.2562989 C7.10734831,12.1295404 8.01544944,13.9101022 9.53666854,15.0192652 L9.65666292,15.1067596 L9.65666292,16.383973 C9.65666292,16.9133944 9.28046629,17.3756978 8.76214607,17.4833494 L4.6407809,18.3393775 C1.95175281,18.8981584 0,21.2969506 0,24.0434562 L0,26.718827 C0,26.9604225 0.196533708,27.1570292 0.438202247,27.1570292 L20.011236,27.1570292 C20.2529045,27.1570292 20.4494382,26.9604225 20.4494382,26.718827 C20.4494382,26.4771584 20.2529045,26.2806247 20.011236,26.2806247 L0.876404494,26.2806247 L0.876404494,24.0434562 C0.876404494,21.7102483 2.5345618,19.6721697 4.81905618,19.1975966 L8.94049438,18.3414955 C9.14812921,18.2984056 9.3474382,18.2218663 9.53287079,18.1139225 L9.77702247,17.9719449 L12.6129944,22.4891528 C12.6936966,22.6175461 12.8324607,22.6943045 12.9840787,22.6943045 C13.1357697,22.6943045 13.2745337,22.6175461 13.3551629,22.4891528 L16.1915,17.9713607 L16.4356517,18.1133382 C16.6212303,18.221209 16.8208315,18.2978213 17.0289775,18.3409112 L21.1777303,19.1998607 C23.4641236,19.6732652 25.1235955,21.7114899 25.1235955,24.0463775 L25.1235955,26.2806247 L23.6629213,26.2806247 C23.4212528,26.2806247 23.2247191,26.4771584 23.2247191,26.718827 C23.2247191,26.9604225 23.4212528,27.1570292 23.6629213,27.1570292 L25.5617978,27.1570292 C25.8034663,27.1570292 26,26.9604225 26,26.718827 L26,24.0463775 C26,21.2980461 24.0466404,18.8988157 21.3554213,18.3416416 Z" id="Fill-1" fill="#000000" mask="url(#mask-2)"></path>
                    </g>
                    <g id="Group-3-Copy-11" transform="translate(31.000000, 32.000000)">
                        <mask id="mask-4" fill="white">
                            <use xlink:href="#path-3"></use>
                        </mask>
                        <g id="Clip-2"></g>
                        <path d="M13,15.2726191 C10.2339944,15.2726191 7.98375281,13.0223045 7.98375281,10.2562989 L7.98375281,8.4998382 L11.1002472,8.4998382 C13.4672697,8.4998382 15.751764,7.65016404 17.532764,6.10725393 L18.0162472,5.68847865 L18.0162472,10.2563719 C18.0162472,13.0223045 15.7659326,15.2726191 13,15.2726191 Z M12.9840787,21.4319169 L10.3474157,17.2323326 L10.4,17.0958326 C10.4882978,16.8666528 10.5330674,16.6271753 10.5330674,16.383973 L10.5330674,15.6228888 L10.9282528,15.7718045 C11.5921292,16.022018 12.2891629,16.1488775 13,16.1488775 C13.7010506,16.1488775 14.3878596,16.0260348 15.0413652,15.7838551 L15.4350899,15.6378607 L15.4350899,16.3830966 C15.4350899,16.6263719 15.4798596,16.8660685 15.5682303,17.0955404 L15.6208146,17.2320404 L12.9840787,21.4319169 Z M7.98375281,5.89275393 C7.98375281,3.12674831 10.2339944,0.876433708 13,0.876433708 C14.0935337,0.876433708 15.1333876,1.22356292 16.007382,1.88035506 C16.8520899,2.51516404 17.487191,3.41771461 17.7957584,4.42170899 L17.8473933,4.58975955 L17.4396461,4.99757978 C15.7463596,6.69086629 13.4948764,7.62343371 11.1002472,7.62343371 L7.98375281,7.62343371 L7.98375281,5.89275393 Z M21.3554213,18.3416416 L17.2067416,17.4826921 C16.6879831,17.3752596 16.3114944,16.9128101 16.3114944,16.3831697 L16.3114944,15.1283775 L16.4329494,15.0409562 C17.9731573,13.9325236 18.8926517,12.1438551 18.8926517,10.2562989 L18.8926517,5.8926809 C18.8926517,2.64348427 16.2491966,2.92134831e-05 13,2.92134831e-05 C9.75080337,2.92134831e-05 7.10734831,2.64348427 7.10734831,5.8926809 L7.10734831,10.2562989 C7.10734831,12.1295404 8.01544944,13.9101022 9.53666854,15.0192652 L9.65666292,15.1067596 L9.65666292,16.383973 C9.65666292,16.9133944 9.28046629,17.3756978 8.76214607,17.4833494 L4.6407809,18.3393775 C1.95175281,18.8981584 0,21.2969506 0,24.0434562 L0,26.718827 C0,26.9604225 0.196533708,27.1570292 0.438202247,27.1570292 L20.011236,27.1570292 C20.2529045,27.1570292 20.4494382,26.9604225 20.4494382,26.718827 C20.4494382,26.4771584 20.2529045,26.2806247 20.011236,26.2806247 L0.876404494,26.2806247 L0.876404494,24.0434562 C0.876404494,21.7102483 2.5345618,19.6721697 4.81905618,19.1975966 L8.94049438,18.3414955 C9.14812921,18.2984056 9.3474382,18.2218663 9.53287079,18.1139225 L9.77702247,17.9719449 L12.6129944,22.4891528 C12.6936966,22.6175461 12.8324607,22.6943045 12.9840787,22.6943045 C13.1357697,22.6943045 13.2745337,22.6175461 13.3551629,22.4891528 L16.1915,17.9713607 L16.4356517,18.1133382 C16.6212303,18.221209 16.8208315,18.2978213 17.0289775,18.3409112 L21.1777303,19.1998607 C23.4641236,19.6732652 25.1235955,21.7114899 25.1235955,24.0463775 L25.1235955,26.2806247 L23.6629213,26.2806247 C23.4212528,26.2806247 23.2247191,26.4771584 23.2247191,26.718827 C23.2247191,26.9604225 23.4212528,27.1570292 23.6629213,27.1570292 L25.5617978,27.1570292 C25.8034663,27.1570292 26,26.9604225 26,26.718827 L26,24.0463775 C26,21.2980461 24.0466404,18.8988157 21.3554213,18.3416416 Z" id="Fill-1" fill="#000000" mask="url(#mask-4)"></path>
                    </g>
                    <g id="Group-3-Copy-12" transform="translate(62.000000, 32.000000)">
                        <mask id="mask-6" fill="white">
                            <use xlink:href="#path-5"></use>
                        </mask>
                        <g id="Clip-2"></g>
                        <path d="M13,15.2726191 C10.2339944,15.2726191 7.98375281,13.0223045 7.98375281,10.2562989 L7.98375281,8.4998382 L11.1002472,8.4998382 C13.4672697,8.4998382 15.751764,7.65016404 17.532764,6.10725393 L18.0162472,5.68847865 L18.0162472,10.2563719 C18.0162472,13.0223045 15.7659326,15.2726191 13,15.2726191 Z M12.9840787,21.4319169 L10.3474157,17.2323326 L10.4,17.0958326 C10.4882978,16.8666528 10.5330674,16.6271753 10.5330674,16.383973 L10.5330674,15.6228888 L10.9282528,15.7718045 C11.5921292,16.022018 12.2891629,16.1488775 13,16.1488775 C13.7010506,16.1488775 14.3878596,16.0260348 15.0413652,15.7838551 L15.4350899,15.6378607 L15.4350899,16.3830966 C15.4350899,16.6263719 15.4798596,16.8660685 15.5682303,17.0955404 L15.6208146,17.2320404 L12.9840787,21.4319169 Z M7.98375281,5.89275393 C7.98375281,3.12674831 10.2339944,0.876433708 13,0.876433708 C14.0935337,0.876433708 15.1333876,1.22356292 16.007382,1.88035506 C16.8520899,2.51516404 17.487191,3.41771461 17.7957584,4.42170899 L17.8473933,4.58975955 L17.4396461,4.99757978 C15.7463596,6.69086629 13.4948764,7.62343371 11.1002472,7.62343371 L7.98375281,7.62343371 L7.98375281,5.89275393 Z M21.3554213,18.3416416 L17.2067416,17.4826921 C16.6879831,17.3752596 16.3114944,16.9128101 16.3114944,16.3831697 L16.3114944,15.1283775 L16.4329494,15.0409562 C17.9731573,13.9325236 18.8926517,12.1438551 18.8926517,10.2562989 L18.8926517,5.8926809 C18.8926517,2.64348427 16.2491966,2.92134831e-05 13,2.92134831e-05 C9.75080337,2.92134831e-05 7.10734831,2.64348427 7.10734831,5.8926809 L7.10734831,10.2562989 C7.10734831,12.1295404 8.01544944,13.9101022 9.53666854,15.0192652 L9.65666292,15.1067596 L9.65666292,16.383973 C9.65666292,16.9133944 9.28046629,17.3756978 8.76214607,17.4833494 L4.6407809,18.3393775 C1.95175281,18.8981584 0,21.2969506 0,24.0434562 L0,26.718827 C0,26.9604225 0.196533708,27.1570292 0.438202247,27.1570292 L20.011236,27.1570292 C20.2529045,27.1570292 20.4494382,26.9604225 20.4494382,26.718827 C20.4494382,26.4771584 20.2529045,26.2806247 20.011236,26.2806247 L0.876404494,26.2806247 L0.876404494,24.0434562 C0.876404494,21.7102483 2.5345618,19.6721697 4.81905618,19.1975966 L8.94049438,18.3414955 C9.14812921,18.2984056 9.3474382,18.2218663 9.53287079,18.1139225 L9.77702247,17.9719449 L12.6129944,22.4891528 C12.6936966,22.6175461 12.8324607,22.6943045 12.9840787,22.6943045 C13.1357697,22.6943045 13.2745337,22.6175461 13.3551629,22.4891528 L16.1915,17.9713607 L16.4356517,18.1133382 C16.6212303,18.221209 16.8208315,18.2978213 17.0289775,18.3409112 L21.1777303,19.1998607 C23.4641236,19.6732652 25.1235955,21.7114899 25.1235955,24.0463775 L25.1235955,26.2806247 L23.6629213,26.2806247 C23.4212528,26.2806247 23.2247191,26.4771584 23.2247191,26.718827 C23.2247191,26.9604225 23.4212528,27.1570292 23.6629213,27.1570292 L25.5617978,27.1570292 C25.8034663,27.1570292 26,26.9604225 26,26.718827 L26,24.0463775 C26,21.2980461 24.0466404,18.8988157 21.3554213,18.3416416 Z" id="Fill-1" fill="#000000" mask="url(#mask-6)"></path>
                    </g>
                    <g id="Group-3-Copy-17" transform="translate(93.000000, 32.000000)">
                        <mask id="mask-8" fill="white">
                            <use xlink:href="#path-7"></use>
                        </mask>
                        <g id="Clip-2"></g>
                        <path d="M13,15.2726191 C10.2339944,15.2726191 7.98375281,13.0223045 7.98375281,10.2562989 L7.98375281,8.4998382 L11.1002472,8.4998382 C13.4672697,8.4998382 15.751764,7.65016404 17.532764,6.10725393 L18.0162472,5.68847865 L18.0162472,10.2563719 C18.0162472,13.0223045 15.7659326,15.2726191 13,15.2726191 Z M12.9840787,21.4319169 L10.3474157,17.2323326 L10.4,17.0958326 C10.4882978,16.8666528 10.5330674,16.6271753 10.5330674,16.383973 L10.5330674,15.6228888 L10.9282528,15.7718045 C11.5921292,16.022018 12.2891629,16.1488775 13,16.1488775 C13.7010506,16.1488775 14.3878596,16.0260348 15.0413652,15.7838551 L15.4350899,15.6378607 L15.4350899,16.3830966 C15.4350899,16.6263719 15.4798596,16.8660685 15.5682303,17.0955404 L15.6208146,17.2320404 L12.9840787,21.4319169 Z M7.98375281,5.89275393 C7.98375281,3.12674831 10.2339944,0.876433708 13,0.876433708 C14.0935337,0.876433708 15.1333876,1.22356292 16.007382,1.88035506 C16.8520899,2.51516404 17.487191,3.41771461 17.7957584,4.42170899 L17.8473933,4.58975955 L17.4396461,4.99757978 C15.7463596,6.69086629 13.4948764,7.62343371 11.1002472,7.62343371 L7.98375281,7.62343371 L7.98375281,5.89275393 Z M21.3554213,18.3416416 L17.2067416,17.4826921 C16.6879831,17.3752596 16.3114944,16.9128101 16.3114944,16.3831697 L16.3114944,15.1283775 L16.4329494,15.0409562 C17.9731573,13.9325236 18.8926517,12.1438551 18.8926517,10.2562989 L18.8926517,5.8926809 C18.8926517,2.64348427 16.2491966,2.92134831e-05 13,2.92134831e-05 C9.75080337,2.92134831e-05 7.10734831,2.64348427 7.10734831,5.8926809 L7.10734831,10.2562989 C7.10734831,12.1295404 8.01544944,13.9101022 9.53666854,15.0192652 L9.65666292,15.1067596 L9.65666292,16.383973 C9.65666292,16.9133944 9.28046629,17.3756978 8.76214607,17.4833494 L4.6407809,18.3393775 C1.95175281,18.8981584 0,21.2969506 0,24.0434562 L0,26.718827 C0,26.9604225 0.196533708,27.1570292 0.438202247,27.1570292 L20.011236,27.1570292 C20.2529045,27.1570292 20.4494382,26.9604225 20.4494382,26.718827 C20.4494382,26.4771584 20.2529045,26.2806247 20.011236,26.2806247 L0.876404494,26.2806247 L0.876404494,24.0434562 C0.876404494,21.7102483 2.5345618,19.6721697 4.81905618,19.1975966 L8.94049438,18.3414955 C9.14812921,18.2984056 9.3474382,18.2218663 9.53287079,18.1139225 L9.77702247,17.9719449 L12.6129944,22.4891528 C12.6936966,22.6175461 12.8324607,22.6943045 12.9840787,22.6943045 C13.1357697,22.6943045 13.2745337,22.6175461 13.3551629,22.4891528 L16.1915,17.9713607 L16.4356517,18.1133382 C16.6212303,18.221209 16.8208315,18.2978213 17.0289775,18.3409112 L21.1777303,19.1998607 C23.4641236,19.6732652 25.1235955,21.7114899 25.1235955,24.0463775 L25.1235955,26.2806247 L23.6629213,26.2806247 C23.4212528,26.2806247 23.2247191,26.4771584 23.2247191,26.718827 C23.2247191,26.9604225 23.4212528,27.1570292 23.6629213,27.1570292 L25.5617978,27.1570292 C25.8034663,27.1570292 26,26.9604225 26,26.718827 L26,24.0463775 C26,21.2980461 24.0466404,18.8988157 21.3554213,18.3416416 Z" id="Fill-1" fill="#000000" mask="url(#mask-8)"></path>
                    </g>
                    <g id="Group-3-Copy-18" transform="translate(124.000000, 32.000000)">
                        <mask id="mask-10" fill="white">
                            <use xlink:href="#path-9"></use>
                        </mask>
                        <g id="Clip-2"></g>
                        <path d="M13,15.2726191 C10.2339944,15.2726191 7.98375281,13.0223045 7.98375281,10.2562989 L7.98375281,8.4998382 L11.1002472,8.4998382 C13.4672697,8.4998382 15.751764,7.65016404 17.532764,6.10725393 L18.0162472,5.68847865 L18.0162472,10.2563719 C18.0162472,13.0223045 15.7659326,15.2726191 13,15.2726191 Z M12.9840787,21.4319169 L10.3474157,17.2323326 L10.4,17.0958326 C10.4882978,16.8666528 10.5330674,16.6271753 10.5330674,16.383973 L10.5330674,15.6228888 L10.9282528,15.7718045 C11.5921292,16.022018 12.2891629,16.1488775 13,16.1488775 C13.7010506,16.1488775 14.3878596,16.0260348 15.0413652,15.7838551 L15.4350899,15.6378607 L15.4350899,16.3830966 C15.4350899,16.6263719 15.4798596,16.8660685 15.5682303,17.0955404 L15.6208146,17.2320404 L12.9840787,21.4319169 Z M7.98375281,5.89275393 C7.98375281,3.12674831 10.2339944,0.876433708 13,0.876433708 C14.0935337,0.876433708 15.1333876,1.22356292 16.007382,1.88035506 C16.8520899,2.51516404 17.487191,3.41771461 17.7957584,4.42170899 L17.8473933,4.58975955 L17.4396461,4.99757978 C15.7463596,6.69086629 13.4948764,7.62343371 11.1002472,7.62343371 L7.98375281,7.62343371 L7.98375281,5.89275393 Z M21.3554213,18.3416416 L17.2067416,17.4826921 C16.6879831,17.3752596 16.3114944,16.9128101 16.3114944,16.3831697 L16.3114944,15.1283775 L16.4329494,15.0409562 C17.9731573,13.9325236 18.8926517,12.1438551 18.8926517,10.2562989 L18.8926517,5.8926809 C18.8926517,2.64348427 16.2491966,2.92134831e-05 13,2.92134831e-05 C9.75080337,2.92134831e-05 7.10734831,2.64348427 7.10734831,5.8926809 L7.10734831,10.2562989 C7.10734831,12.1295404 8.01544944,13.9101022 9.53666854,15.0192652 L9.65666292,15.1067596 L9.65666292,16.383973 C9.65666292,16.9133944 9.28046629,17.3756978 8.76214607,17.4833494 L4.6407809,18.3393775 C1.95175281,18.8981584 0,21.2969506 0,24.0434562 L0,26.718827 C0,26.9604225 0.196533708,27.1570292 0.438202247,27.1570292 L20.011236,27.1570292 C20.2529045,27.1570292 20.4494382,26.9604225 20.4494382,26.718827 C20.4494382,26.4771584 20.2529045,26.2806247 20.011236,26.2806247 L0.876404494,26.2806247 L0.876404494,24.0434562 C0.876404494,21.7102483 2.5345618,19.6721697 4.81905618,19.1975966 L8.94049438,18.3414955 C9.14812921,18.2984056 9.3474382,18.2218663 9.53287079,18.1139225 L9.77702247,17.9719449 L12.6129944,22.4891528 C12.6936966,22.6175461 12.8324607,22.6943045 12.9840787,22.6943045 C13.1357697,22.6943045 13.2745337,22.6175461 13.3551629,22.4891528 L16.1915,17.9713607 L16.4356517,18.1133382 C16.6212303,18.221209 16.8208315,18.2978213 17.0289775,18.3409112 L21.1777303,19.1998607 C23.4641236,19.6732652 25.1235955,21.7114899 25.1235955,24.0463775 L25.1235955,26.2806247 L23.6629213,26.2806247 C23.4212528,26.2806247 23.2247191,26.4771584 23.2247191,26.718827 C23.2247191,26.9604225 23.4212528,27.1570292 23.6629213,27.1570292 L25.5617978,27.1570292 C25.8034663,27.1570292 26,26.9604225 26,26.718827 L26,24.0463775 C26,21.2980461 24.0466404,18.8988157 21.3554213,18.3416416 Z" id="Fill-1" fill="#000000" mask="url(#mask-10)"></path>
                    </g>
                    <g id="Group-3-Copy-13">
                        <mask id="mask-12" fill="white">
                            <use xlink:href="#path-11"></use>
                        </mask>
                        <g id="Clip-2"></g>
                        <path d="M13,15.2726191 C10.2339944,15.2726191 7.98375281,13.0223045 7.98375281,10.2562989 L7.98375281,8.4998382 L11.1002472,8.4998382 C13.4672697,8.4998382 15.751764,7.65016404 17.532764,6.10725393 L18.0162472,5.68847865 L18.0162472,10.2563719 C18.0162472,13.0223045 15.7659326,15.2726191 13,15.2726191 Z M12.9840787,21.4319169 L10.3474157,17.2323326 L10.4,17.0958326 C10.4882978,16.8666528 10.5330674,16.6271753 10.5330674,16.383973 L10.5330674,15.6228888 L10.9282528,15.7718045 C11.5921292,16.022018 12.2891629,16.1488775 13,16.1488775 C13.7010506,16.1488775 14.3878596,16.0260348 15.0413652,15.7838551 L15.4350899,15.6378607 L15.4350899,16.3830966 C15.4350899,16.6263719 15.4798596,16.8660685 15.5682303,17.0955404 L15.6208146,17.2320404 L12.9840787,21.4319169 Z M7.98375281,5.89275393 C7.98375281,3.12674831 10.2339944,0.876433708 13,0.876433708 C14.0935337,0.876433708 15.1333876,1.22356292 16.007382,1.88035506 C16.8520899,2.51516404 17.487191,3.41771461 17.7957584,4.42170899 L17.8473933,4.58975955 L17.4396461,4.99757978 C15.7463596,6.69086629 13.4948764,7.62343371 11.1002472,7.62343371 L7.98375281,7.62343371 L7.98375281,5.89275393 Z M21.3554213,18.3416416 L17.2067416,17.4826921 C16.6879831,17.3752596 16.3114944,16.9128101 16.3114944,16.3831697 L16.3114944,15.1283775 L16.4329494,15.0409562 C17.9731573,13.9325236 18.8926517,12.1438551 18.8926517,10.2562989 L18.8926517,5.8926809 C18.8926517,2.64348427 16.2491966,2.92134831e-05 13,2.92134831e-05 C9.75080337,2.92134831e-05 7.10734831,2.64348427 7.10734831,5.8926809 L7.10734831,10.2562989 C7.10734831,12.1295404 8.01544944,13.9101022 9.53666854,15.0192652 L9.65666292,15.1067596 L9.65666292,16.383973 C9.65666292,16.9133944 9.28046629,17.3756978 8.76214607,17.4833494 L4.6407809,18.3393775 C1.95175281,18.8981584 0,21.2969506 0,24.0434562 L0,26.718827 C0,26.9604225 0.196533708,27.1570292 0.438202247,27.1570292 L20.011236,27.1570292 C20.2529045,27.1570292 20.4494382,26.9604225 20.4494382,26.718827 C20.4494382,26.4771584 20.2529045,26.2806247 20.011236,26.2806247 L0.876404494,26.2806247 L0.876404494,24.0434562 C0.876404494,21.7102483 2.5345618,19.6721697 4.81905618,19.1975966 L8.94049438,18.3414955 C9.14812921,18.2984056 9.3474382,18.2218663 9.53287079,18.1139225 L9.77702247,17.9719449 L12.6129944,22.4891528 C12.6936966,22.6175461 12.8324607,22.6943045 12.9840787,22.6943045 C13.1357697,22.6943045 13.2745337,22.6175461 13.3551629,22.4891528 L16.1915,17.9713607 L16.4356517,18.1133382 C16.6212303,18.221209 16.8208315,18.2978213 17.0289775,18.3409112 L21.1777303,19.1998607 C23.4641236,19.6732652 25.1235955,21.7114899 25.1235955,24.0463775 L25.1235955,26.2806247 L23.6629213,26.2806247 C23.4212528,26.2806247 23.2247191,26.4771584 23.2247191,26.718827 C23.2247191,26.9604225 23.4212528,27.1570292 23.6629213,27.1570292 L25.5617978,27.1570292 C25.8034663,27.1570292 26,26.9604225 26,26.718827 L26,24.0463775 C26,21.2980461 24.0466404,18.8988157 21.3554213,18.3416416 Z" id="Fill-1" fill="#000000" mask="url(#mask-12)"></path>
                    </g>
                    <g id="Group-3-Copy-14" transform="translate(31.000000, 0.000000)">
                        <mask id="mask-14" fill="white">
                            <use xlink:href="#path-13"></use>
                        </mask>
                        <g id="Clip-2"></g>
                        <path d="M13,15.2726191 C10.2339944,15.2726191 7.98375281,13.0223045 7.98375281,10.2562989 L7.98375281,8.4998382 L11.1002472,8.4998382 C13.4672697,8.4998382 15.751764,7.65016404 17.532764,6.10725393 L18.0162472,5.68847865 L18.0162472,10.2563719 C18.0162472,13.0223045 15.7659326,15.2726191 13,15.2726191 Z M12.9840787,21.4319169 L10.3474157,17.2323326 L10.4,17.0958326 C10.4882978,16.8666528 10.5330674,16.6271753 10.5330674,16.383973 L10.5330674,15.6228888 L10.9282528,15.7718045 C11.5921292,16.022018 12.2891629,16.1488775 13,16.1488775 C13.7010506,16.1488775 14.3878596,16.0260348 15.0413652,15.7838551 L15.4350899,15.6378607 L15.4350899,16.3830966 C15.4350899,16.6263719 15.4798596,16.8660685 15.5682303,17.0955404 L15.6208146,17.2320404 L12.9840787,21.4319169 Z M7.98375281,5.89275393 C7.98375281,3.12674831 10.2339944,0.876433708 13,0.876433708 C14.0935337,0.876433708 15.1333876,1.22356292 16.007382,1.88035506 C16.8520899,2.51516404 17.487191,3.41771461 17.7957584,4.42170899 L17.8473933,4.58975955 L17.4396461,4.99757978 C15.7463596,6.69086629 13.4948764,7.62343371 11.1002472,7.62343371 L7.98375281,7.62343371 L7.98375281,5.89275393 Z M21.3554213,18.3416416 L17.2067416,17.4826921 C16.6879831,17.3752596 16.3114944,16.9128101 16.3114944,16.3831697 L16.3114944,15.1283775 L16.4329494,15.0409562 C17.9731573,13.9325236 18.8926517,12.1438551 18.8926517,10.2562989 L18.8926517,5.8926809 C18.8926517,2.64348427 16.2491966,2.92134831e-05 13,2.92134831e-05 C9.75080337,2.92134831e-05 7.10734831,2.64348427 7.10734831,5.8926809 L7.10734831,10.2562989 C7.10734831,12.1295404 8.01544944,13.9101022 9.53666854,15.0192652 L9.65666292,15.1067596 L9.65666292,16.383973 C9.65666292,16.9133944 9.28046629,17.3756978 8.76214607,17.4833494 L4.6407809,18.3393775 C1.95175281,18.8981584 0,21.2969506 0,24.0434562 L0,26.718827 C0,26.9604225 0.196533708,27.1570292 0.438202247,27.1570292 L20.011236,27.1570292 C20.2529045,27.1570292 20.4494382,26.9604225 20.4494382,26.718827 C20.4494382,26.4771584 20.2529045,26.2806247 20.011236,26.2806247 L0.876404494,26.2806247 L0.876404494,24.0434562 C0.876404494,21.7102483 2.5345618,19.6721697 4.81905618,19.1975966 L8.94049438,18.3414955 C9.14812921,18.2984056 9.3474382,18.2218663 9.53287079,18.1139225 L9.77702247,17.9719449 L12.6129944,22.4891528 C12.6936966,22.6175461 12.8324607,22.6943045 12.9840787,22.6943045 C13.1357697,22.6943045 13.2745337,22.6175461 13.3551629,22.4891528 L16.1915,17.9713607 L16.4356517,18.1133382 C16.6212303,18.221209 16.8208315,18.2978213 17.0289775,18.3409112 L21.1777303,19.1998607 C23.4641236,19.6732652 25.1235955,21.7114899 25.1235955,24.0463775 L25.1235955,26.2806247 L23.6629213,26.2806247 C23.4212528,26.2806247 23.2247191,26.4771584 23.2247191,26.718827 C23.2247191,26.9604225 23.4212528,27.1570292 23.6629213,27.1570292 L25.5617978,27.1570292 C25.8034663,27.1570292 26,26.9604225 26,26.718827 L26,24.0463775 C26,21.2980461 24.0466404,18.8988157 21.3554213,18.3416416 Z" id="Fill-1" fill="#000000" mask="url(#mask-14)"></path>
                    </g>
                    <g id="Group-3-Copy-15" transform="translate(61.000000, 0.000000)">
                        <mask id="mask-16" fill="white">
                            <use xlink:href="#path-15"></use>
                        </mask>
                        <g id="Clip-2"></g>
                        <path d="M13,15.2726191 C10.2339944,15.2726191 7.98375281,13.0223045 7.98375281,10.2562989 L7.98375281,8.4998382 L11.1002472,8.4998382 C13.4672697,8.4998382 15.751764,7.65016404 17.532764,6.10725393 L18.0162472,5.68847865 L18.0162472,10.2563719 C18.0162472,13.0223045 15.7659326,15.2726191 13,15.2726191 Z M12.9840787,21.4319169 L10.3474157,17.2323326 L10.4,17.0958326 C10.4882978,16.8666528 10.5330674,16.6271753 10.5330674,16.383973 L10.5330674,15.6228888 L10.9282528,15.7718045 C11.5921292,16.022018 12.2891629,16.1488775 13,16.1488775 C13.7010506,16.1488775 14.3878596,16.0260348 15.0413652,15.7838551 L15.4350899,15.6378607 L15.4350899,16.3830966 C15.4350899,16.6263719 15.4798596,16.8660685 15.5682303,17.0955404 L15.6208146,17.2320404 L12.9840787,21.4319169 Z M7.98375281,5.89275393 C7.98375281,3.12674831 10.2339944,0.876433708 13,0.876433708 C14.0935337,0.876433708 15.1333876,1.22356292 16.007382,1.88035506 C16.8520899,2.51516404 17.487191,3.41771461 17.7957584,4.42170899 L17.8473933,4.58975955 L17.4396461,4.99757978 C15.7463596,6.69086629 13.4948764,7.62343371 11.1002472,7.62343371 L7.98375281,7.62343371 L7.98375281,5.89275393 Z M21.3554213,18.3416416 L17.2067416,17.4826921 C16.6879831,17.3752596 16.3114944,16.9128101 16.3114944,16.3831697 L16.3114944,15.1283775 L16.4329494,15.0409562 C17.9731573,13.9325236 18.8926517,12.1438551 18.8926517,10.2562989 L18.8926517,5.8926809 C18.8926517,2.64348427 16.2491966,2.92134831e-05 13,2.92134831e-05 C9.75080337,2.92134831e-05 7.10734831,2.64348427 7.10734831,5.8926809 L7.10734831,10.2562989 C7.10734831,12.1295404 8.01544944,13.9101022 9.53666854,15.0192652 L9.65666292,15.1067596 L9.65666292,16.383973 C9.65666292,16.9133944 9.28046629,17.3756978 8.76214607,17.4833494 L4.6407809,18.3393775 C1.95175281,18.8981584 0,21.2969506 0,24.0434562 L0,26.718827 C0,26.9604225 0.196533708,27.1570292 0.438202247,27.1570292 L20.011236,27.1570292 C20.2529045,27.1570292 20.4494382,26.9604225 20.4494382,26.718827 C20.4494382,26.4771584 20.2529045,26.2806247 20.011236,26.2806247 L0.876404494,26.2806247 L0.876404494,24.0434562 C0.876404494,21.7102483 2.5345618,19.6721697 4.81905618,19.1975966 L8.94049438,18.3414955 C9.14812921,18.2984056 9.3474382,18.2218663 9.53287079,18.1139225 L9.77702247,17.9719449 L12.6129944,22.4891528 C12.6936966,22.6175461 12.8324607,22.6943045 12.9840787,22.6943045 C13.1357697,22.6943045 13.2745337,22.6175461 13.3551629,22.4891528 L16.1915,17.9713607 L16.4356517,18.1133382 C16.6212303,18.221209 16.8208315,18.2978213 17.0289775,18.3409112 L21.1777303,19.1998607 C23.4641236,19.6732652 25.1235955,21.7114899 25.1235955,24.0463775 L25.1235955,26.2806247 L23.6629213,26.2806247 C23.4212528,26.2806247 23.2247191,26.4771584 23.2247191,26.718827 C23.2247191,26.9604225 23.4212528,27.1570292 23.6629213,27.1570292 L25.5617978,27.1570292 C25.8034663,27.1570292 26,26.9604225 26,26.718827 L26,24.0463775 C26,21.2980461 24.0466404,18.8988157 21.3554213,18.3416416 Z" id="Fill-1" fill="#000000" mask="url(#mask-16)"></path>
                    </g>
                    <g id="Group-3-Copy-16" transform="translate(92.000000, 0.000000)">
                        <mask id="mask-18" fill="white">
                            <use xlink:href="#path-17"></use>
                        </mask>
                        <g id="Clip-2"></g>
                        <path d="M13,15.2726191 C10.2339944,15.2726191 7.98375281,13.0223045 7.98375281,10.2562989 L7.98375281,8.4998382 L11.1002472,8.4998382 C13.4672697,8.4998382 15.751764,7.65016404 17.532764,6.10725393 L18.0162472,5.68847865 L18.0162472,10.2563719 C18.0162472,13.0223045 15.7659326,15.2726191 13,15.2726191 Z M12.9840787,21.4319169 L10.3474157,17.2323326 L10.4,17.0958326 C10.4882978,16.8666528 10.5330674,16.6271753 10.5330674,16.383973 L10.5330674,15.6228888 L10.9282528,15.7718045 C11.5921292,16.022018 12.2891629,16.1488775 13,16.1488775 C13.7010506,16.1488775 14.3878596,16.0260348 15.0413652,15.7838551 L15.4350899,15.6378607 L15.4350899,16.3830966 C15.4350899,16.6263719 15.4798596,16.8660685 15.5682303,17.0955404 L15.6208146,17.2320404 L12.9840787,21.4319169 Z M7.98375281,5.89275393 C7.98375281,3.12674831 10.2339944,0.876433708 13,0.876433708 C14.0935337,0.876433708 15.1333876,1.22356292 16.007382,1.88035506 C16.8520899,2.51516404 17.487191,3.41771461 17.7957584,4.42170899 L17.8473933,4.58975955 L17.4396461,4.99757978 C15.7463596,6.69086629 13.4948764,7.62343371 11.1002472,7.62343371 L7.98375281,7.62343371 L7.98375281,5.89275393 Z M21.3554213,18.3416416 L17.2067416,17.4826921 C16.6879831,17.3752596 16.3114944,16.9128101 16.3114944,16.3831697 L16.3114944,15.1283775 L16.4329494,15.0409562 C17.9731573,13.9325236 18.8926517,12.1438551 18.8926517,10.2562989 L18.8926517,5.8926809 C18.8926517,2.64348427 16.2491966,2.92134831e-05 13,2.92134831e-05 C9.75080337,2.92134831e-05 7.10734831,2.64348427 7.10734831,5.8926809 L7.10734831,10.2562989 C7.10734831,12.1295404 8.01544944,13.9101022 9.53666854,15.0192652 L9.65666292,15.1067596 L9.65666292,16.383973 C9.65666292,16.9133944 9.28046629,17.3756978 8.76214607,17.4833494 L4.6407809,18.3393775 C1.95175281,18.8981584 0,21.2969506 0,24.0434562 L0,26.718827 C0,26.9604225 0.196533708,27.1570292 0.438202247,27.1570292 L20.011236,27.1570292 C20.2529045,27.1570292 20.4494382,26.9604225 20.4494382,26.718827 C20.4494382,26.4771584 20.2529045,26.2806247 20.011236,26.2806247 L0.876404494,26.2806247 L0.876404494,24.0434562 C0.876404494,21.7102483 2.5345618,19.6721697 4.81905618,19.1975966 L8.94049438,18.3414955 C9.14812921,18.2984056 9.3474382,18.2218663 9.53287079,18.1139225 L9.77702247,17.9719449 L12.6129944,22.4891528 C12.6936966,22.6175461 12.8324607,22.6943045 12.9840787,22.6943045 C13.1357697,22.6943045 13.2745337,22.6175461 13.3551629,22.4891528 L16.1915,17.9713607 L16.4356517,18.1133382 C16.6212303,18.221209 16.8208315,18.2978213 17.0289775,18.3409112 L21.1777303,19.1998607 C23.4641236,19.6732652 25.1235955,21.7114899 25.1235955,24.0463775 L25.1235955,26.2806247 L23.6629213,26.2806247 C23.4212528,26.2806247 23.2247191,26.4771584 23.2247191,26.718827 C23.2247191,26.9604225 23.4212528,27.1570292 23.6629213,27.1570292 L25.5617978,27.1570292 C25.8034663,27.1570292 26,26.9604225 26,26.718827 L26,24.0463775 C26,21.2980461 24.0466404,18.8988157 21.3554213,18.3416416 Z" id="Fill-1" fill="#000000" mask="url(#mask-18)"></path>
                    </g>
                    <g id="Group-3-Copy-19" transform="translate(123.000000, 0.000000)">
                        <mask id="mask-20" fill="white">
                            <use xlink:href="#path-19"></use>
                        </mask>
                        <g id="Clip-2"></g>
                        <path d="M13,15.2726191 C10.2339944,15.2726191 7.98375281,13.0223045 7.98375281,10.2562989 L7.98375281,8.4998382 L11.1002472,8.4998382 C13.4672697,8.4998382 15.751764,7.65016404 17.532764,6.10725393 L18.0162472,5.68847865 L18.0162472,10.2563719 C18.0162472,13.0223045 15.7659326,15.2726191 13,15.2726191 Z M12.9840787,21.4319169 L10.3474157,17.2323326 L10.4,17.0958326 C10.4882978,16.8666528 10.5330674,16.6271753 10.5330674,16.383973 L10.5330674,15.6228888 L10.9282528,15.7718045 C11.5921292,16.022018 12.2891629,16.1488775 13,16.1488775 C13.7010506,16.1488775 14.3878596,16.0260348 15.0413652,15.7838551 L15.4350899,15.6378607 L15.4350899,16.3830966 C15.4350899,16.6263719 15.4798596,16.8660685 15.5682303,17.0955404 L15.6208146,17.2320404 L12.9840787,21.4319169 Z M7.98375281,5.89275393 C7.98375281,3.12674831 10.2339944,0.876433708 13,0.876433708 C14.0935337,0.876433708 15.1333876,1.22356292 16.007382,1.88035506 C16.8520899,2.51516404 17.487191,3.41771461 17.7957584,4.42170899 L17.8473933,4.58975955 L17.4396461,4.99757978 C15.7463596,6.69086629 13.4948764,7.62343371 11.1002472,7.62343371 L7.98375281,7.62343371 L7.98375281,5.89275393 Z M21.3554213,18.3416416 L17.2067416,17.4826921 C16.6879831,17.3752596 16.3114944,16.9128101 16.3114944,16.3831697 L16.3114944,15.1283775 L16.4329494,15.0409562 C17.9731573,13.9325236 18.8926517,12.1438551 18.8926517,10.2562989 L18.8926517,5.8926809 C18.8926517,2.64348427 16.2491966,2.92134831e-05 13,2.92134831e-05 C9.75080337,2.92134831e-05 7.10734831,2.64348427 7.10734831,5.8926809 L7.10734831,10.2562989 C7.10734831,12.1295404 8.01544944,13.9101022 9.53666854,15.0192652 L9.65666292,15.1067596 L9.65666292,16.383973 C9.65666292,16.9133944 9.28046629,17.3756978 8.76214607,17.4833494 L4.6407809,18.3393775 C1.95175281,18.8981584 0,21.2969506 0,24.0434562 L0,26.718827 C0,26.9604225 0.196533708,27.1570292 0.438202247,27.1570292 L20.011236,27.1570292 C20.2529045,27.1570292 20.4494382,26.9604225 20.4494382,26.718827 C20.4494382,26.4771584 20.2529045,26.2806247 20.011236,26.2806247 L0.876404494,26.2806247 L0.876404494,24.0434562 C0.876404494,21.7102483 2.5345618,19.6721697 4.81905618,19.1975966 L8.94049438,18.3414955 C9.14812921,18.2984056 9.3474382,18.2218663 9.53287079,18.1139225 L9.77702247,17.9719449 L12.6129944,22.4891528 C12.6936966,22.6175461 12.8324607,22.6943045 12.9840787,22.6943045 C13.1357697,22.6943045 13.2745337,22.6175461 13.3551629,22.4891528 L16.1915,17.9713607 L16.4356517,18.1133382 C16.6212303,18.221209 16.8208315,18.2978213 17.0289775,18.3409112 L21.1777303,19.1998607 C23.4641236,19.6732652 25.1235955,21.7114899 25.1235955,24.0463775 L25.1235955,26.2806247 L23.6629213,26.2806247 C23.4212528,26.2806247 23.2247191,26.4771584 23.2247191,26.718827 C23.2247191,26.9604225 23.4212528,27.1570292 23.6629213,27.1570292 L25.5617978,27.1570292 C25.8034663,27.1570292 26,26.9604225 26,26.718827 L26,24.0463775 C26,21.2980461 24.0466404,18.8988157 21.3554213,18.3416416 Z" id="Fill-1" fill="#000000" mask="url(#mask-20)"></path>
                    </g>
                </g>
                <g id="Group-3-Copy-21" transform="translate(15.000000, 0.000000)">
                    <g id="Group-64">
                        <path d="M99.747,1.47363158 C97.9417368,1.47363158 96.4733158,2.94205263 96.4733158,4.74678947 C96.4733158,6.55152632 97.9417368,8.01994737 99.747,8.01994737 C101.551737,8.01994737 103.020158,6.55152632 103.020158,4.74678947 C103.020158,2.94205263 101.551737,1.47363158 99.747,1.47363158 M99.747,9.49363158 C97.1291053,9.49363158 94.9996316,7.36415789 94.9996316,4.74678947 C94.9996316,2.12942105 97.1291053,-5.26315789e-05 99.747,-5.26315789e-05 C102.364368,-5.26315789e-05 104.493842,2.12942105 104.493842,4.74678947 C104.493842,7.36415789 102.364368,9.49363158 99.747,9.49363158" id="Fill-1" fill="#DA272C"></path>
                        <g id="Group-63" transform="translate(0.000000, 83.000000)">
                            <g id="Group-3-Copy-22" fill="#DA272C">
                                <path d="M0.0913995428,3.85393317 L3.10116761,3.10138331 L3.85371748,0.0913995428 C3.88434576,-0.0304665143 4.05776224,-0.0304665143 4.08817483,0.0913995428 L4.84072469,3.10138331 L7.85070846,3.85393317 C7.97257451,3.88434576 7.97257451,4.05776224 7.85070846,4.08817483 L4.84072469,4.84072469 L4.08817483,7.85070846 C4.05776224,7.97279021 3.88434576,7.97279021 3.85371748,7.85070846 L3.10116761,4.84072469 L0.0913995428,4.08817483 C-0.0304665143,4.05776224 -0.0304665143,3.88434576 0.0913995428,3.85393317" id="Fill-1"></path>
                            </g>
                            <g id="Group-11-Copy" transform="translate(120.000000, 5.000000)">
                                <g id="Group-3" transform="translate(5.281250, 0.089695)">
                                    <mask id="mask-22" fill="white">
                                        <use xlink:href="#path-21"></use>
                                    </mask>
                                    <g id="Clip-2"></g>
                                    <path d="M1.7801875,1.03335145 C1.7801875,0.636734418 1.45803125,0.315470568 1.06071875,0.315470568 C0.663,0.315470568 0.34084375,0.636734418 0.34084375,1.03335145 L0.34084375,5.33982652 C0.34084375,5.73603843 0.663,6.05730229 1.06071875,6.05730229 C1.45803125,6.05730229 1.7801875,5.73603843 1.7801875,5.33982652 L1.7801875,1.03335145 Z" id="Fill-1" fill="#DA272C" mask="url(#mask-22)"></path>
                                </g>
                                <path d="M7.0614375,8.02953012 C7.0614375,7.63291309 6.73928125,7.31205436 6.34196875,7.31205436 C5.94425,7.31205436 5.62209375,7.63291309 5.62209375,8.02953012 L5.62209375,12.3360052 C5.62209375,12.7322171 5.94425,13.053481 6.34196875,13.053481 C6.73928125,13.053481 7.0614375,12.7322171 7.0614375,12.3360052 L7.0614375,8.02953012 Z" id="Fill-4" fill="#DA272C"></path>
                                <g id="Group-8" transform="translate(6.906250, 5.761440)">
                                    <mask id="mask-24" fill="white">
                                        <use xlink:href="#path-23"></use>
                                    </mask>
                                    <g id="Clip-7"></g>
                                    <path d="M5.05752812,0.250367036 L0.739090625,0.250367036 C0.341778125,0.250367036 0.019621875,0.571630886 0.019621875,0.967842798 C0.019621875,1.36445983 0.341778125,1.68572368 0.739090625,1.68572368 L5.05752812,1.68572368 C5.45524687,1.68572368 5.77740312,1.36445983 5.77740312,0.967842798 C5.77740312,0.571630886 5.45524687,0.250367036 5.05752812,0.250367036" id="Fill-6" fill="#DA272C" mask="url(#mask-24)"></path>
                                </g>
                                <path d="M0.7197125,7.44716343 L5.03815,7.44716343 C5.4354625,7.44716343 5.75761875,7.12589958 5.75761875,6.72968767 C5.75761875,6.33307064 5.4354625,6.01180679 5.03815,6.01180679 L0.7197125,6.01180679 C0.32199375,6.01180679 0.00024375,6.33307064 0.00024375,6.72968767 C0.00024375,7.12589958 0.32199375,7.44716343 0.7197125,7.44716343" id="Fill-9" fill="#DA272C"></path>
                            </g>
                        </g>
                    </g>
                </g>
            </g>
        </g>
    </g>
</svg>