<?xml version="1.0" encoding="UTF-8"?>
<svg width="256px" height="42px" viewBox="0 0 256 42" version="1.1" xmlns="http://www.w3.org/2000/svg" xmlns:xlink="http://www.w3.org/1999/xlink">
    <!-- Generator: Sketch 51.2 (57519) - http://www.bohemiancoding.com/sketch -->
    <title>Group 17</title>
    <desc>Created with Sketch.</desc>
    <defs></defs>
    <g id="FLUJO-" stroke="none" stroke-width="1" fill="none" fill-rule="evenodd">
        <g id="1.-Home_Version-2" transform="translate(-731.000000, -2471.000000)">
            <g id="Group-7" transform="translate(454.000000, 2471.000000)">
                <g id="Group-17" transform="translate(277.000000, 0.000000)">
                    <rect id="Rectangle-16" fill="#0E8D79" x="0" y="0" width="256" height="42" rx="21"></rect>
                    <g id="Group" transform="translate(57.000000, 7.000000)" fill="#FFFFFF">
                        <g id="unlink" fill-rule="nonzero">
                            <path d="M23.0867045,1.72738638 C20.7830682,-0.576249983 17.0344318,-0.575340892 14.7303409,1.72738638 L10.5521591,5.9055682 C10.1971591,6.2605682 10.1971591,6.83602274 10.5521591,7.19102274 C10.9071591,7.54602274 11.4826136,7.54602274 11.8376136,7.19102274 L16.0157955,3.01284093 C16.7844318,2.24465911 17.8117045,1.82102274 18.9080682,1.82102274 C20.0048864,1.82102274 21.0321591,2.24465911 21.8007955,3.01329547 C22.5694318,3.78193184 22.9930682,4.80920456 22.9930682,5.90602274 C22.9930682,7.00238638 22.5694318,8.02965911 21.8007955,8.79829547 L16.3376136,14.2628409 C14.7421591,15.8573864 12.1471591,15.8573864 10.5517045,14.2628409 C10.1967045,13.9078409 9.62125,13.9078409 9.26625,14.2628409 C8.91125,14.6178409 8.91125,15.19375 9.26625,15.5482955 C10.4180682,16.7001137 11.93125,17.2760227 13.4444318,17.2760227 C14.9576136,17.2760227 16.4707955,16.7001137 17.6226136,15.5482955 L23.0867045,10.0842046 C24.1989773,8.97238638 24.8117045,7.48829547 24.8117045,5.90602274 C24.8117045,4.32329547 24.1989773,2.83965911 23.0867045,1.72738638 Z" id="Shape"></path>
                            <path d="M12.3313636,18.4057386 L8.79590909,21.9411932 C8.02727273,22.7098295 7,23.1334659 5.90318182,23.1334659 C4.80681818,23.1334659 3.77909091,22.7098295 3.01045455,21.9411932 C1.41545455,20.3461932 1.41545455,17.7507386 3.01045455,16.1557386 L8.15318182,11.0130114 C8.92181818,10.2448295 9.94909091,9.82119319 11.0459091,9.82119319 C12.1422727,9.82119319 13.1695455,10.2448295 13.9381818,11.0130114 C14.2931818,11.3680114 14.8686364,11.3680114 15.2236364,11.0130114 C15.5786364,10.6580114 15.5786364,10.0825568 15.2236364,9.72755682 C12.9204545,7.424375 9.17181818,7.42392046 6.86727273,9.72755682 L1.72454545,14.8707386 C0.612727273,15.9825568 0,17.4666477 0,19.0489205 C0,20.6307386 0.612727273,22.1148295 1.725,23.2266477 C2.83681818,24.3389205 4.32090909,24.9516477 5.90272727,24.9516477 C7.485,24.9516477 8.96909091,24.3389205 10.0809091,23.2266477 L13.6163636,19.6911932 C13.9713636,19.3361932 13.9713636,18.7607386 13.6163636,18.4057386 C13.2613636,18.0507386 12.6863636,18.0507386 12.3313636,18.4057386 Z" id="Shape"></path>
                        </g>
                        <path d="M42.3833008,14.8339844 C42.2543939,16.1992256 41.7504927,17.2641563 40.871582,18.0288086 C39.9926714,18.7934609 38.8237378,19.1757812 37.3647461,19.1757812 C36.3452097,19.1757812 35.4472695,18.9340844 34.6708984,18.4506836 C33.8945274,17.9672827 33.2954123,17.2802779 32.8735352,16.3896484 C32.451658,15.499019 32.2319337,14.4648496 32.2143555,13.2871094 L32.2143555,12.0917969 C32.2143555,10.8847596 32.4282205,9.82129366 32.855957,8.90136719 C33.2836935,7.98144071 33.8974569,7.27246343 34.6972656,6.77441406 C35.4970743,6.2763647 36.4213815,6.02734375 37.4702148,6.02734375 C38.8823313,6.02734375 40.0190387,6.41112897 40.8803711,7.17871094 C41.7417035,7.9462929 42.2426751,9.03026644 42.3833008,10.4306641 L40.168457,10.4306641 C40.0629878,9.51073759 39.794924,8.84717 39.3642578,8.43994141 C38.9335916,8.03271281 38.3022503,7.82910156 37.4702148,7.82910156 C36.5034131,7.82910156 35.7607448,8.18212538 35.2421875,8.88818359 C34.7236302,9.59424181 34.4584962,10.629876 34.4467773,11.9951172 L34.4467773,13.1289062 C34.4467773,14.5117257 34.6943335,15.5664026 35.1894531,16.2929688 C35.6845728,17.0195349 36.4096632,17.3828125 37.3647461,17.3828125 C38.2377973,17.3828125 38.8940408,17.1865254 39.3334961,16.7939453 C39.7729514,16.4013652 40.0512689,15.7480514 40.168457,14.8339844 L42.3833008,14.8339844 Z M43.7631836,14.1572266 C43.7631836,13.2255813 43.9477521,12.3862342 44.3168945,11.6391602 C44.686037,10.8920861 45.2045865,10.3178731 45.8725586,9.91650391 C46.5405307,9.51513471 47.3081011,9.31445312 48.175293,9.31445312 C49.4585025,9.31445312 50.499996,9.72753493 51.2998047,10.5537109 C52.0996134,11.3798869 52.531738,12.4755791 52.5961914,13.8408203 L52.6049805,14.3417969 C52.6049805,15.2793016 52.4248065,16.1171838 52.0644531,16.8554688 C51.7040998,17.5937537 51.1884799,18.165037 50.5175781,18.5693359 C49.8466763,18.9736348 49.0717817,19.1757812 48.1928711,19.1757812 C46.8510675,19.1757812 45.7773478,18.7290084 44.9716797,17.8354492 C44.1660116,16.9418901 43.7631836,15.750984 43.7631836,14.2626953 L43.7631836,14.1572266 Z M45.8989258,14.3417969 C45.8989258,15.3203174 46.1010722,16.086423 46.5053711,16.6401367 C46.90967,17.1938504 47.4721644,17.4707031 48.1928711,17.4707031 C48.9135778,17.4707031 49.4746074,17.1894559 49.8759766,16.6269531 C50.2773458,16.0644503 50.4780273,15.2412164 50.4780273,14.1572266 C50.4780273,13.1962843 50.2714864,12.4345731 49.8583984,11.8720703 C49.4453104,11.3095675 48.8842809,11.0283203 48.175293,11.0283203 C47.4780239,11.0283203 46.9243185,11.305173 46.5141602,11.8588867 C46.1040019,12.4126004 45.8989258,13.2402289 45.8989258,14.3417969 Z M62.7387695,14.3417969 C62.7387695,15.8125074 62.4047885,16.9858355 61.7368164,17.8618164 C61.0688443,18.7377973 60.1723689,19.1757812 59.0473633,19.1757812 C58.0043893,19.1757812 57.1694367,18.8330112 56.5424805,18.1474609 L56.5424805,22.65625 L54.4067383,22.65625 L54.4067383,9.49023438 L56.3754883,9.49023438 L56.4633789,10.4570312 C57.0903352,9.69530869 57.9428657,9.31445312 59.0209961,9.31445312 C60.1811581,9.31445312 61.090817,9.74657771 61.75,10.6108398 C62.409183,11.475102 62.7387695,12.674797 62.7387695,14.2099609 L62.7387695,14.3417969 Z M60.6118164,14.1572266 C60.6118164,13.2080031 60.4228535,12.4550809 60.0449219,11.8984375 C59.6669903,11.3417941 59.1264684,11.0634766 58.4233398,11.0634766 C57.5502886,11.0634766 56.9233417,11.4238245 56.5424805,12.1445312 L56.5424805,16.3632812 C56.9292012,17.1015662 57.5620073,17.4707031 58.440918,17.4707031 C59.1206089,17.4707031 59.6523418,17.1967801 60.0361328,16.6489258 C60.4199238,16.1010715 60.6118164,15.2705134 60.6118164,14.1572266 Z M66.8168945,19 L64.6811523,19 L64.6811523,9.49023438 L66.8168945,9.49023438 L66.8168945,19 Z M64.5493164,7.02050781 C64.5493164,6.69238117 64.6533193,6.41992296 64.8613281,6.203125 C65.069337,5.98632704 65.3666973,5.87792969 65.753418,5.87792969 C66.1401387,5.87792969 66.4389638,5.98632704 66.6499023,6.203125 C66.8608409,6.41992296 66.9663086,6.69238117 66.9663086,7.02050781 C66.9663086,7.34277505 66.8608409,7.61083877 66.6499023,7.82470703 C66.4389638,8.03857529 66.1401387,8.14550781 65.753418,8.14550781 C65.3666973,8.14550781 65.069337,8.03857529 64.8613281,7.82470703 C64.6533193,7.61083877 64.5493164,7.34277505 64.5493164,7.02050781 Z M74.8237305,19 C74.72998,18.8183585 74.6479496,18.522463 74.5776367,18.1123047 C73.8979458,18.8212926 73.0659229,19.1757812 72.081543,19.1757812 C71.1264601,19.1757812 70.347171,18.903323 69.7436523,18.3583984 C69.1401337,17.8134738 68.8383789,17.1396525 68.8383789,16.3369141 C68.8383789,15.3232371 69.21484,14.5454129 69.9677734,14.003418 C70.7207069,13.4614231 71.7973563,13.1904297 73.1977539,13.1904297 L74.5073242,13.1904297 L74.5073242,12.5664062 C74.5073242,12.0742163 74.3696303,11.6801773 74.0942383,11.3842773 C73.8188463,11.0883774 73.3999052,10.9404297 72.8374023,10.9404297 C72.3510718,10.9404297 71.9526383,11.0620105 71.6420898,11.3051758 C71.3315414,11.5483411 71.1762695,11.85742 71.1762695,12.2324219 L69.0405273,12.2324219 C69.0405273,11.7109349 69.2133772,11.2231468 69.559082,10.769043 C69.9047869,10.3149391 70.374997,9.95898566 70.9697266,9.70117188 C71.5644561,9.44335809 72.2280237,9.31445312 72.9604492,9.31445312 C74.073736,9.31445312 74.9614225,9.59423548 75.6235352,10.1538086 C76.2856478,10.7133817 76.6254882,11.4999949 76.6430664,12.5136719 L76.6430664,16.8027344 C76.6430664,17.6582074 76.7631824,18.3408178 77.003418,18.8505859 L77.003418,19 L74.8237305,19 Z M72.4770508,17.4619141 C72.8989279,17.4619141 73.2958966,17.359376 73.6679688,17.1542969 C74.0400409,16.9492177 74.3198233,16.6738299 74.5073242,16.328125 L74.5073242,14.5351562 L73.355957,14.5351562 C72.5649375,14.5351562 71.9702168,14.6728502 71.5717773,14.9482422 C71.1733379,15.2236342 70.9741211,15.6132787 70.9741211,16.1171875 C70.9741211,16.5273458 71.1103502,16.8540027 71.3828125,17.097168 C71.6552748,17.3403332 72.0200172,17.4619141 72.4770508,17.4619141 Z M83.8588867,11.4414062 C83.5776353,11.394531 83.2875992,11.3710938 82.9887695,11.3710938 C82.010249,11.3710938 81.3510759,11.74609 81.0112305,12.4960938 L81.0112305,19 L78.8754883,19 L78.8754883,9.49023438 L80.9145508,9.49023438 L80.9672852,10.5537109 C81.4829127,9.72753493 82.1977493,9.31445312 83.1118164,9.31445312 C83.4165054,9.31445312 83.668456,9.35546834 83.8676758,9.4375 L83.8588867,11.4414062 Z M93.878418,19.1757812 C92.5248956,19.1757812 91.4277386,18.749516 90.5869141,17.8969727 C89.7460895,17.0444293 89.3256836,15.9091868 89.3256836,14.4912109 L89.3256836,14.2275391 C89.3256836,13.2783156 89.5087872,12.4301795 89.875,11.6831055 C90.2412128,10.9360314 90.7553678,10.3544943 91.4174805,9.93847656 C92.0795932,9.52245886 92.817867,9.31445312 93.6323242,9.31445312 C94.9272526,9.31445312 95.9277308,9.72753493 96.6337891,10.5537109 C97.3398473,11.3798869 97.6928711,12.5488206 97.6928711,14.0605469 L97.6928711,14.921875 L91.4790039,14.921875 C91.5434574,15.7070352 91.8056618,16.3281227 92.265625,16.7851562 C92.7255882,17.2421898 93.3041957,17.4707031 94.0014648,17.4707031 C94.9799854,17.4707031 95.7768524,17.0751993 96.3920898,16.2841797 L97.543457,17.3828125 C97.1625958,17.9511747 96.6543001,18.3920883 96.0185547,18.7055664 C95.3828093,19.0190445 94.6694375,19.1757812 93.878418,19.1757812 Z M93.6235352,11.0283203 C93.0375947,11.0283203 92.5644549,11.2333964 92.2041016,11.6435547 C91.8437482,12.053713 91.61377,12.6249963 91.5141602,13.3574219 L95.5834961,13.3574219 L95.5834961,13.1992188 C95.5366209,12.4843714 95.3461931,11.9438495 95.012207,11.5776367 C94.678221,11.211424 94.215335,11.0283203 93.6235352,11.0283203 Z M101.331543,9.49023438 L101.393066,10.5888672 C102.096195,9.73925356 103.019037,9.31445312 104.161621,9.31445312 C106.1421,9.31445312 107.149902,10.4482308 107.185059,12.7158203 L107.185059,19 L105.049316,19 L105.049316,12.8388672 C105.049316,12.2353485 104.918947,11.7885757 104.658203,11.4985352 C104.39746,11.2084946 103.971194,11.0634766 103.379395,11.0634766 C102.518062,11.0634766 101.876467,11.4531211 101.45459,12.2324219 L101.45459,19 L99.3188477,19 L99.3188477,9.49023438 L101.331543,9.49023438 Z M111.632324,19 L109.496582,19 L109.496582,5.5 L111.632324,5.5 L111.632324,19 Z M119.63916,19 C119.54541,18.8183585 119.463379,18.522463 119.393066,18.1123047 C118.713376,18.8212926 117.881353,19.1757812 116.896973,19.1757812 C115.94189,19.1757812 115.162601,18.903323 114.559082,18.3583984 C113.955563,17.8134738 113.653809,17.1396525 113.653809,16.3369141 C113.653809,15.3232371 114.03027,14.5454129 114.783203,14.003418 C115.536137,13.4614231 116.612786,13.1904297 118.013184,13.1904297 L119.322754,13.1904297 L119.322754,12.5664062 C119.322754,12.0742163 119.18506,11.6801773 118.909668,11.3842773 C118.634276,11.0883774 118.215335,10.9404297 117.652832,10.9404297 C117.166501,10.9404297 116.768068,11.0620105 116.45752,11.3051758 C116.146971,11.5483411 115.991699,11.85742 115.991699,12.2324219 L113.855957,12.2324219 C113.855957,11.7109349 114.028807,11.2231468 114.374512,10.769043 C114.720217,10.3149391 115.190427,9.95898566 115.785156,9.70117188 C116.379886,9.44335809 117.043453,9.31445312 117.775879,9.31445312 C118.889166,9.31445312 119.776852,9.59423548 120.438965,10.1538086 C121.101078,10.7133817 121.440918,11.4999949 121.458496,12.5136719 L121.458496,16.8027344 C121.458496,17.6582074 121.578612,18.3408178 121.818848,18.8505859 L121.818848,19 L119.63916,19 Z M117.29248,17.4619141 C117.714358,17.4619141 118.111326,17.359376 118.483398,17.1542969 C118.855471,16.9492177 119.135253,16.6738299 119.322754,16.328125 L119.322754,14.5351562 L118.171387,14.5351562 C117.380367,14.5351562 116.785647,14.6728502 116.387207,14.9482422 C115.988768,15.2236342 115.789551,15.6132787 115.789551,16.1171875 C115.789551,16.5273458 115.92578,16.8540027 116.198242,17.097168 C116.470704,17.3403332 116.835447,17.4619141 117.29248,17.4619141 Z M127.602051,17.4707031 C128.135257,17.4707031 128.577635,17.3154312 128.929199,17.0048828 C129.280763,16.6943344 129.468262,16.3105492 129.491699,15.8535156 L131.504395,15.8535156 C131.480957,16.4453155 131.296388,16.997556 130.950684,17.5102539 C130.604979,18.0229518 130.136233,18.4287094 129.544434,18.7275391 C128.952634,19.0263687 128.313968,19.1757812 127.628418,19.1757812 C126.298333,19.1757812 125.243656,18.7451215 124.464355,17.8837891 C123.685055,17.0224566 123.29541,15.8330154 123.29541,14.3154297 L123.29541,14.0957031 C123.29541,12.6484303 123.682125,11.4897504 124.455566,10.6196289 C125.229008,9.74950737 126.283685,9.31445312 127.619629,9.31445312 C128.750494,9.31445312 129.671871,9.64403967 130.383789,10.3032227 C131.095707,10.9624056 131.469238,11.8281196 131.504395,12.9003906 L129.491699,12.9003906 C129.468262,12.355466 129.282228,11.9072283 128.933594,11.5556641 C128.584959,11.2040998 128.141116,11.0283203 127.602051,11.0283203 C126.910641,11.0283203 126.377443,11.2788061 126.002441,11.7797852 C125.62744,12.2807642 125.437012,13.0410105 125.431152,14.0605469 L125.431152,14.4033203 C125.431152,15.4345755 125.617186,16.2036107 125.989258,16.7104492 C126.36133,17.2172877 126.898922,17.4707031 127.602051,17.4707031 Z M137.305176,19.1757812 C135.951653,19.1757812 134.854496,18.749516 134.013672,17.8969727 C133.172847,17.0444293 132.752441,15.9091868 132.752441,14.4912109 L132.752441,14.2275391 C132.752441,13.2783156 132.935545,12.4301795 133.301758,11.6831055 C133.667971,10.9360314 134.182126,10.3544943 134.844238,9.93847656 C135.506351,9.52245886 136.244625,9.31445312 137.059082,9.31445312 C138.35401,9.31445312 139.354489,9.72753493 140.060547,10.5537109 C140.766605,11.3798869 141.119629,12.5488206 141.119629,14.0605469 L141.119629,14.921875 L134.905762,14.921875 C134.970215,15.7070352 135.23242,16.3281227 135.692383,16.7851562 C136.152346,17.2421898 136.730954,17.4707031 137.428223,17.4707031 C138.406743,17.4707031 139.20361,17.0751993 139.818848,16.2841797 L140.970215,17.3828125 C140.589354,17.9511747 140.081058,18.3920883 139.445312,18.7055664 C138.809567,19.0190445 138.096195,19.1757812 137.305176,19.1757812 Z M137.050293,11.0283203 C136.464353,11.0283203 135.991213,11.2333964 135.630859,11.6435547 C135.270506,12.053713 135.040528,12.6249963 134.940918,13.3574219 L139.010254,13.3574219 L139.010254,13.1992188 C138.963379,12.4843714 138.772951,11.9438495 138.438965,11.5776367 C138.104979,11.211424 137.642093,11.0283203 137.050293,11.0283203 Z" id="Copiar-enlace"></path>
                    </g>
                </g>
            </g>
        </g>
    </g>
</svg>