<?xml version="1.0" encoding="UTF-8"?>
<svg width="112px" height="60px" viewBox="0 0 112 60" version="1.1" xmlns="http://www.w3.org/2000/svg" xmlns:xlink="http://www.w3.org/1999/xlink">
    <!-- Generator: sketchtool 51.2 (57519) - http://www.bohemiancoding.com/sketch -->
    <title>93D7F20E-A377-4DD0-A5A7-86B601BCF5E0</title>
    <desc>Created with sketchtool.</desc>
    <defs>
        <polygon id="path-1" points="0.49815625 0.46125 2.6018125 0.46125 2.6018125 8.85298026 0.49815625 8.85298026"></polygon>
        <polygon id="path-3" points="0.028678125 0.365921053 8.44371875 0.365921053 8.44371875 2.46375 0.028678125 2.46375"></polygon>
        <polygon id="path-5" points="0 2.92134831e-05 26 2.92134831e-05 26 27.157 0 27.157"></polygon>
    </defs>
    <g id="FLUJO-" stroke="none" stroke-width="1" fill="none" fill-rule="evenodd">
        <g id="1.-Home_Campaña-navidad" transform="translate(-564.000000, -3435.000000)">
            <g id="Group-77" transform="translate(564.000000, 3435.000000)">
                <g id="Group-76">
                    <g id="Group-26">
                        <g id="Group-55" transform="translate(0.000000, 12.000000)">
                            <g id="Group-3">
                                <g id="Group-58">
                                    <path d="M32,34.2726191 C29.2339944,34.2726191 26.9837528,32.0223045 26.9837528,29.2562989 L26.9837528,27.4998382 L30.1002472,27.4998382 C32.4672697,27.4998382 34.751764,26.650164 36.532764,25.1072539 L37.0162472,24.6884787 L37.0162472,29.2563719 C37.0162472,32.0223045 34.7659326,34.2726191 32,34.2726191 Z M31.9840787,40.4319169 L29.3474157,36.2323326 L29.4,36.0958326 C29.4882978,35.8666528 29.5330674,35.6271753 29.5330674,35.383973 L29.5330674,34.6228888 L29.9282528,34.7718045 C30.5921292,35.022018 31.2891629,35.1488775 32,35.1488775 C32.7010506,35.1488775 33.3878596,35.0260348 34.0413652,34.7838551 L34.4350899,34.6378607 L34.4350899,35.3830966 C34.4350899,35.6263719 34.4798596,35.8660685 34.5682303,36.0955404 L34.6208146,36.2320404 L31.9840787,40.4319169 Z M26.9837528,24.8927539 C26.9837528,22.1267483 29.2339944,19.8764337 32,19.8764337 C33.0935337,19.8764337 34.1333876,20.2235629 35.007382,20.8803551 C35.8520899,21.515164 36.487191,22.4177146 36.7957584,23.421709 L36.8473933,23.5897596 L36.4396461,23.9975798 C34.7463596,25.6908663 32.4948764,26.6234337 30.1002472,26.6234337 L26.9837528,26.6234337 L26.9837528,24.8927539 Z M40.3554213,37.3416416 L36.2067416,36.4826921 C35.6879831,36.3752596 35.3114944,35.9128101 35.3114944,35.3831697 L35.3114944,34.1283775 L35.4329494,34.0409562 C36.9731573,32.9325236 37.8926517,31.1438551 37.8926517,29.2562989 L37.8926517,24.8926809 C37.8926517,21.6434843 35.2491966,19.0000292 32,19.0000292 C28.7508034,19.0000292 26.1073483,21.6434843 26.1073483,24.8926809 L26.1073483,29.2562989 C26.1073483,31.1295404 27.0154494,32.9101022 28.5366685,34.0192652 L28.6566629,34.1067596 L28.6566629,35.383973 C28.6566629,35.9133944 28.2804663,36.3756978 27.7621461,36.4833494 L23.6407809,37.3393775 C20.9517528,37.8981584 19,40.2969506 19,43.0434562 L19,45.718827 C19,45.9604225 19.1965337,46.1570292 19.4382022,46.1570292 L39.011236,46.1570292 C39.2529045,46.1570292 39.4494382,45.9604225 39.4494382,45.718827 C39.4494382,45.4771584 39.2529045,45.2806247 39.011236,45.2806247 L19.8764045,45.2806247 L19.8764045,43.0434562 C19.8764045,40.7102483 21.5345618,38.6721697 23.8190562,38.1975966 L27.9404944,37.3414955 C28.1481292,37.2984056 28.3474382,37.2218663 28.5328708,37.1139225 L28.7770225,36.9719449 L31.6129944,41.4891528 C31.6936966,41.6175461 31.8324607,41.6943045 31.9840787,41.6943045 C32.1357697,41.6943045 32.2745337,41.6175461 32.3551629,41.4891528 L35.1915,36.9713607 L35.4356517,37.1133382 C35.6212303,37.221209 35.8208315,37.2978213 36.0289775,37.3409112 L40.1777303,38.1998607 C42.4641236,38.6732652 44.1235955,40.7114899 44.1235955,43.0463775 L44.1235955,45.2806247 L42.6629213,45.2806247 C42.4212528,45.2806247 42.2247191,45.4771584 42.2247191,45.718827 C42.2247191,45.9604225 42.4212528,46.1570292 42.6629213,46.1570292 L44.5617978,46.1570292 C44.8034663,46.1570292 45,45.9604225 45,45.718827 L45,43.0463775 C45,40.2980461 43.0466404,37.8988157 40.3554213,37.3416416 Z" id="Fill-1" fill="#000000"></path>
                                    <path d="M65,35.2726191 C62.2339944,35.2726191 59.9837528,33.0223045 59.9837528,30.2562989 L59.9837528,28.4998382 L63.1002472,28.4998382 C65.4672697,28.4998382 67.751764,27.650164 69.532764,26.1072539 L70.0162472,25.6884787 L70.0162472,30.2563719 C70.0162472,33.0223045 67.7659326,35.2726191 65,35.2726191 Z M64.9840787,41.4319169 L62.3474157,37.2323326 L62.4,37.0958326 C62.4882978,36.8666528 62.5330674,36.6271753 62.5330674,36.383973 L62.5330674,35.6228888 L62.9282528,35.7718045 C63.5921292,36.022018 64.2891629,36.1488775 65,36.1488775 C65.7010506,36.1488775 66.3878596,36.0260348 67.0413652,35.7838551 L67.4350899,35.6378607 L67.4350899,36.3830966 C67.4350899,36.6263719 67.4798596,36.8660685 67.5682303,37.0955404 L67.6208146,37.2320404 L64.9840787,41.4319169 Z M59.9837528,25.8927539 C59.9837528,23.1267483 62.2339944,20.8764337 65,20.8764337 C66.0935337,20.8764337 67.1333876,21.2235629 68.007382,21.8803551 C68.8520899,22.515164 69.487191,23.4177146 69.7957584,24.421709 L69.8473933,24.5897596 L69.4396461,24.9975798 C67.7463596,26.6908663 65.4948764,27.6234337 63.1002472,27.6234337 L59.9837528,27.6234337 L59.9837528,25.8927539 Z M73.3554213,38.3416416 L69.2067416,37.4826921 C68.6879831,37.3752596 68.3114944,36.9128101 68.3114944,36.3831697 L68.3114944,35.1283775 L68.4329494,35.0409562 C69.9731573,33.9325236 70.8926517,32.1438551 70.8926517,30.2562989 L70.8926517,25.8926809 C70.8926517,22.6434843 68.2491966,20.0000292 65,20.0000292 C61.7508034,20.0000292 59.1073483,22.6434843 59.1073483,25.8926809 L59.1073483,30.2562989 C59.1073483,32.1295404 60.0154494,33.9101022 61.5366685,35.0192652 L61.6566629,35.1067596 L61.6566629,36.383973 C61.6566629,36.9133944 61.2804663,37.3756978 60.7621461,37.4833494 L56.6407809,38.3393775 C53.9517528,38.8981584 52,41.2969506 52,44.0434562 L52,46.718827 C52,46.9604225 52.1965337,47.1570292 52.4382022,47.1570292 L72.011236,47.1570292 C72.2529045,47.1570292 72.4494382,46.9604225 72.4494382,46.718827 C72.4494382,46.4771584 72.2529045,46.2806247 72.011236,46.2806247 L52.8764045,46.2806247 L52.8764045,44.0434562 C52.8764045,41.7102483 54.5345618,39.6721697 56.8190562,39.1975966 L60.9404944,38.3414955 C61.1481292,38.2984056 61.3474382,38.2218663 61.5328708,38.1139225 L61.7770225,37.9719449 L64.6129944,42.4891528 C64.6936966,42.6175461 64.8324607,42.6943045 64.9840787,42.6943045 C65.1357697,42.6943045 65.2745337,42.6175461 65.3551629,42.4891528 L68.1915,37.9713607 L68.4356517,38.1133382 C68.6212303,38.221209 68.8208315,38.2978213 69.0289775,38.3409112 L73.1777303,39.1998607 C75.4641236,39.6732652 77.1235955,41.7114899 77.1235955,44.0463775 L77.1235955,46.2806247 L75.6629213,46.2806247 C75.4212528,46.2806247 75.2247191,46.4771584 75.2247191,46.718827 C75.2247191,46.9604225 75.4212528,47.1570292 75.6629213,47.1570292 L77.5617978,47.1570292 C77.8034663,47.1570292 78,46.9604225 78,46.718827 L78,44.0463775 C78,41.2980461 76.0466404,38.8988157 73.3554213,38.3416416 Z" id="Fill-1" fill="#000000"></path>
                                    <g id="Group-3" fill="#DA272C">
                                        <path d="M0.171568465,7.23431844 L5.82128258,5.82168747 L7.23391355,0.171568465 C7.2914067,-0.0571894883 7.6169313,-0.0571894883 7.67401956,0.171568465 L9.08665053,5.82168747 L14.7367695,7.23431844 C14.9655275,7.2914067 14.9655275,7.6169313 14.7367695,7.67401956 L9.08665053,9.08665053 L7.67401956,14.7367695 C7.6169313,14.9659324 7.2914067,14.9659324 7.23391355,14.7367695 L5.82128258,9.08665053 L0.171568465,7.67401956 C-0.0571894883,7.6169313 -0.0571894883,7.2914067 0.171568465,7.23431844" id="Fill-1"></path>
                                    </g>
                                    <g id="Group-11-Copy" transform="translate(93.000000, 25.000000)">
                                        <g id="Group-3" transform="translate(7.718750, 0.131092)">
                                            <mask id="mask-2" fill="white">
                                                <use xlink:href="#path-1"></use>
                                            </mask>
                                            <g id="Clip-2"></g>
                                            <path d="M2.6018125,1.51028289 C2.6018125,0.930611842 2.13096875,0.461072368 1.55028125,0.461072368 C0.969,0.461072368 0.49815625,0.930611842 0.49815625,1.51028289 L0.49815625,7.80436184 C0.49815625,8.38344079 0.969,8.85298026 1.55028125,8.85298026 C2.13096875,8.85298026 2.6018125,8.38344079 2.6018125,7.80436184 L2.6018125,1.51028289 Z" id="Fill-1" fill="#DA272C" mask="url(#mask-2)"></path>
                                        </g>
                                        <path d="M10.3205625,11.7354671 C10.3205625,11.1557961 9.84971875,10.6868487 9.26903125,10.6868487 C8.68775,10.6868487 8.21690625,11.1557961 8.21690625,11.7354671 L8.21690625,18.0295461 C8.21690625,18.608625 8.68775,19.0781645 9.26903125,19.0781645 C9.84971875,19.0781645 10.3205625,18.608625 10.3205625,18.0295461 L10.3205625,11.7354671 Z" id="Fill-4" fill="#DA272C"></path>
                                        <g id="Group-8" transform="translate(10.093750, 8.420566)">
                                            <mask id="mask-4" fill="white">
                                                <use xlink:href="#path-3"></use>
                                            </mask>
                                            <g id="Clip-7"></g>
                                            <path d="M7.39177187,0.365921053 L1.08020937,0.365921053 C0.499521875,0.365921053 0.028678125,0.835460526 0.028678125,1.41453947 C0.028678125,1.99421053 0.499521875,2.46375 1.08020937,2.46375 L7.39177187,2.46375 C7.97305312,2.46375 8.44389687,1.99421053 8.44389687,1.41453947 C8.44389687,0.835460526 7.97305312,0.365921053 7.39177187,0.365921053" id="Fill-6" fill="#DA272C" mask="url(#mask-4)"></path>
                                        </g>
                                        <path d="M1.0518875,10.8843158 L7.36345,10.8843158 C7.9441375,10.8843158 8.41498125,10.4147763 8.41498125,9.83569737 C8.41498125,9.25602632 7.9441375,8.78648684 7.36345,8.78648684 L1.0518875,8.78648684 C0.47060625,8.78648684 0.00035625,9.25602632 0.00035625,9.83569737 C0.00035625,10.4147763 0.47060625,10.8843158 1.0518875,10.8843158" id="Fill-9" fill="#DA272C"></path>
                                    </g>
                                </g>
                            </g>
                            <g id="Group-3-Copy-2" transform="translate(52.000000, 20.000000)"></g>
                        </g>
                        <g id="Group-3-Copy-3" transform="translate(36.000000, 0.000000)">
                            <mask id="mask-6" fill="white">
                                <use xlink:href="#path-5"></use>
                            </mask>
                            <g id="Clip-2"></g>
                            <path d="M13,15.2726191 C10.2339944,15.2726191 7.98375281,13.0223045 7.98375281,10.2562989 L7.98375281,8.4998382 L11.1002472,8.4998382 C13.4672697,8.4998382 15.751764,7.65016404 17.532764,6.10725393 L18.0162472,5.68847865 L18.0162472,10.2563719 C18.0162472,13.0223045 15.7659326,15.2726191 13,15.2726191 Z M12.9840787,21.4319169 L10.3474157,17.2323326 L10.4,17.0958326 C10.4882978,16.8666528 10.5330674,16.6271753 10.5330674,16.383973 L10.5330674,15.6228888 L10.9282528,15.7718045 C11.5921292,16.022018 12.2891629,16.1488775 13,16.1488775 C13.7010506,16.1488775 14.3878596,16.0260348 15.0413652,15.7838551 L15.4350899,15.6378607 L15.4350899,16.3830966 C15.4350899,16.6263719 15.4798596,16.8660685 15.5682303,17.0955404 L15.6208146,17.2320404 L12.9840787,21.4319169 Z M7.98375281,5.89275393 C7.98375281,3.12674831 10.2339944,0.876433708 13,0.876433708 C14.0935337,0.876433708 15.1333876,1.22356292 16.007382,1.88035506 C16.8520899,2.51516404 17.487191,3.41771461 17.7957584,4.42170899 L17.8473933,4.58975955 L17.4396461,4.99757978 C15.7463596,6.69086629 13.4948764,7.62343371 11.1002472,7.62343371 L7.98375281,7.62343371 L7.98375281,5.89275393 Z M21.3554213,18.3416416 L17.2067416,17.4826921 C16.6879831,17.3752596 16.3114944,16.9128101 16.3114944,16.3831697 L16.3114944,15.1283775 L16.4329494,15.0409562 C17.9731573,13.9325236 18.8926517,12.1438551 18.8926517,10.2562989 L18.8926517,5.8926809 C18.8926517,2.64348427 16.2491966,2.92134831e-05 13,2.92134831e-05 C9.75080337,2.92134831e-05 7.10734831,2.64348427 7.10734831,5.8926809 L7.10734831,10.2562989 C7.10734831,12.1295404 8.01544944,13.9101022 9.53666854,15.0192652 L9.65666292,15.1067596 L9.65666292,16.383973 C9.65666292,16.9133944 9.28046629,17.3756978 8.76214607,17.4833494 L4.6407809,18.3393775 C1.95175281,18.8981584 0,21.2969506 0,24.0434562 L0,26.718827 C0,26.9604225 0.196533708,27.1570292 0.438202247,27.1570292 L20.011236,27.1570292 C20.2529045,27.1570292 20.4494382,26.9604225 20.4494382,26.718827 C20.4494382,26.4771584 20.2529045,26.2806247 20.011236,26.2806247 L0.876404494,26.2806247 L0.876404494,24.0434562 C0.876404494,21.7102483 2.5345618,19.6721697 4.81905618,19.1975966 L8.94049438,18.3414955 C9.14812921,18.2984056 9.3474382,18.2218663 9.53287079,18.1139225 L9.77702247,17.9719449 L12.6129944,22.4891528 C12.6936966,22.6175461 12.8324607,22.6943045 12.9840787,22.6943045 C13.1357697,22.6943045 13.2745337,22.6175461 13.3551629,22.4891528 L16.1915,17.9713607 L16.4356517,18.1133382 C16.6212303,18.221209 16.8208315,18.2978213 17.0289775,18.3409112 L21.1777303,19.1998607 C23.4641236,19.6732652 25.1235955,21.7114899 25.1235955,24.0463775 L25.1235955,26.2806247 L23.6629213,26.2806247 C23.4212528,26.2806247 23.2247191,26.4771584 23.2247191,26.718827 C23.2247191,26.9604225 23.4212528,27.1570292 23.6629213,27.1570292 L25.5617978,27.1570292 C25.8034663,27.1570292 26,26.9604225 26,26.718827 L26,24.0463775 C26,21.2980461 24.0466404,18.8988157 21.3554213,18.3416416 Z" id="Fill-1" fill="#000000" mask="url(#mask-6)"></path>
                        </g>
                    </g>
                </g>
            </g>
        </g>
    </g>
</svg>