<?xml version="1.0" encoding="UTF-8"?>
<svg width="1440px" height="363px" viewBox="0 0 1440 363" version="1.1" xmlns="http://www.w3.org/2000/svg" xmlns:xlink="http://www.w3.org/1999/xlink">
    <!-- Generator: sketchtool 51.2 (57519) - http://www.bohemiancoding.com/sketch -->
    <title>33BC2E24-B9C9-498F-A4FF-E1558171FA1B</title>
    <desc>Created with sketchtool.</desc>
    <defs>
        <polygon id="path-1" points="0.000938461184 0.992838616 1529.80394 0.992838616 1529.80394 177.208784 0.000938461184 177.208784"></polygon>
        <polygon id="path-3" points="0.0405267437 0.203092063 6.35590238 0.203092063 6.35590238 14.5 0.0405267437 14.5"></polygon>
        <polygon id="path-5" points="0 0.15158254 57.9483844 0.15158254 57.9483844 24.2530714 0 24.2530714"></polygon>
        <polygon id="path-7" points="0.0405267437 0.203092063 6.35590238 0.203092063 6.35590238 14.5 0.0405267437 14.5"></polygon>
        <polygon id="path-9" points="0 0.15158254 57.9483844 0.15158254 57.9483844 24.2530714 0 24.2530714"></polygon>
        <polygon id="path-11" points="0.0264756153 0.132677508 4.15223161 0.132677508 4.15223161 9.47266883 0.0264756153 9.47266883"></polygon>
        <polygon id="path-13" points="0 0.0990269792 37.8569555 0.0990269792 37.8569555 15.8442285 0 15.8442285"></polygon>
    </defs>
    <g id="FLUJO-" stroke="none" stroke-width="1" fill="none" fill-rule="evenodd">
        <g id="1.-Home_Campaña-navidad" transform="translate(0.000000, -3911.000000)">
            <g id="Group-53" transform="translate(-10.000000, 3907.000000)">
                <g id="Group-70">
                    <g id="Group-17" transform="translate(0.000000, 40.000000)">
                        <g id="Group-3" transform="translate(10.000000, 2.568243)">
                            <mask id="mask-2" fill="white">
                                <use xlink:href="#path-1"></use>
                            </mask>
                            <g id="Clip-2"></g>
                        </g>
                        <g id="Group-6" transform="translate(10.000000, 0.000000)" fill="#E2E2E2">
                            <path d="M1381.66382,24.5185873 C1298.0295,43.2871908 1210.25791,58.1647139 1111.82406,65.1481363 C1004.79792,72.7425644 894.536776,72.7157455 786.899301,66.5508842 C724.219478,62.9594765 661.561106,57.9676529 600.408294,52.0325018 C472.931749,39.6631339 343.26993,29.8905403 209.957497,33.8609115 C164.022503,35.2275121 117.875685,38.2055821 73.6419876,42.7134984 C48.5837333,45.2659632 24.2293249,48.4842376 0.000938461184,51.841271 L0.000938461184,53.8585228 C1.32416873,69.6735433 0.00361977885,85.6109981 0.000938461184,101.445841 L194.419261,101.445841 L649.105045,101.445841 L1114.31366,101.445841 L1465.81698,101.445841 L1490.13787,101.445841 L1529.80394,101.445841 L1529.80394,0.985538253 C1474.96697,3.83534361 1427.14701,14.3087281 1381.66382,24.5185873" id="Fill-4"></path>
                        </g>
                        <path d="M155.159196,58.7729793 C238.797582,77.6596497 326.587182,92.6307622 425.027006,99.6581149 C532.074968,107.300317 642.348971,107.273329 749.993603,101.069687 C812.680156,97.455687 875.349279,92.4324616 936.508625,86.4599745 C1064.00963,74.0127951 1193.68681,64.1787254 1327.0097,68.1740729 C1372.95731,69.5492703 1419.11007,72.5460743 1463.34276,77.0823484 C1488.41095,79.6508698 1512.76849,82.8893894 1537,86.2675407 L1537,88.2974823 C1535.67258,104.21199 1536.99464,120.249702 1537,136.184156 L1342.55664,136.184156 L892.700979,159.651689 L422.538423,136.184156 L70.9898412,136.184156 L46.6711808,136.184156 L7,136.184156 L7,35.0918919 C61.8386664,37.9596244 109.664784,48.4988934 155.159196,58.7729793" id="Fill-9" fill="#EDECEC"></path>
                        <g id="Group-13" transform="translate(0.000000, 33.387162)" fill="#F6F6F6">
                            <path d="M1381.66382,24.5185873 C1298.0295,43.2871908 1210.25791,58.1647139 1111.82406,65.1481363 C1004.79792,72.7425644 894.536776,72.7157455 786.899301,66.5508842 C724.219478,62.9594765 661.561106,57.9676529 600.408294,52.0325018 C472.931749,39.6631339 343.26993,29.8905403 209.957497,33.8609115 C164.022503,35.2275121 117.875685,38.2055821 73.6419876,42.7134984 C48.5837333,45.2659632 24.2293249,48.4842376 0.000938461184,51.841271 C0.000938461184,51.841271 0.00361977885,85.6109981 0.000938461184,101.445841 L194.419261,101.445841 L649.105045,101.445841 L1114.31366,101.445841 L1465.81698,101.445841 L1490.13787,101.445841 L1529.80394,101.445841 L1529.80394,0.985538253 C1474.96697,3.83534361 1427.14701,14.3087281 1381.66382,24.5185873" id="Fill-11"></path>
                        </g>
                    </g>
                    <g id="Group-21-Copy" transform="translate(288.000000, 42.000000) rotate(-12.000000) translate(-288.000000, -42.000000) translate(259.000000, 6.000000)">
                        <path d="M36.8878389,8.74257937 C43.9049183,6.44214286 41.3752437,0.919944444 41.3752437,0.919944444 L39.7636722,0.34431746 L37.8089341,0 C37.8089341,0 40.4541484,3.91131746 36.772069,6.67207143 C36.0995452,7.17657937 33.1703151,7.89352381 31.58245,8.79896825 C32.9684659,8.76605556 35.1432357,9.31475397 36.8878389,8.74257937" id="Fill-1" fill="#E2E2E2"></path>
                        <g id="Group-5" transform="translate(29.920635, 56.538722)">
                            <mask id="mask-4" fill="white">
                                <use xlink:href="#path-3"></use>
                            </mask>
                            <g id="Clip-4"></g>
                            <path d="M0.878354762,13.129727 C1.45329127,15.4301635 6.35590238,14.1387429 6.35590238,14.1387429 C6.35590238,14.1387429 3.70033095,5.78996508 2.94080714,3.51093333 C2.60316429,2.49754444 2.76289444,1.29841746 3.26302937,0.203092063 C-1.70609762,2.27912381 0.43645,11.3627984 0.878354762,13.129727" id="Fill-3" fill="#E2E2E2" mask="url(#mask-4)"></path>
                        </g>
                        <g id="Group-8" transform="translate(0.000000, 34.903802)">
                            <mask id="mask-6" fill="white">
                                <use xlink:href="#path-5"></use>
                            </mask>
                            <g id="Clip-7"></g>
                            <path d="M56.9040071,17.7835825 C56.0547214,15.4559873 55.5237452,15.8224 54.6132373,16.0042254 C54.274904,16.0468048 53.9674119,16.0603841 53.6859278,16.0541698 C53.2279119,16.0219476 52.6486024,15.9280429 51.9542135,15.7839635 C51.8566262,15.760027 51.7629516,15.7377016 51.6729595,15.7183683 C50.9056103,15.5533444 42.2417452,13.3049238 42.2417452,13.3049238 L42.2387532,13.3164317 C39.5194278,12.6319397 36.4741976,11.917527 33.2183722,11.2988603 C16.1919198,8.06305873 18.9855865,3.44975714 6.95035635,4.39133651 C1.76557063,4.79664603 0.722951587,2.56180476 0.775427778,1.87938413 C0.755403968,1.32147937 1.24886429,0.718233333 2.13681667,0.15158254 C-1.25388175,1.49225714 0.0324753968,7.39283651 1.61320556,8.57746349 C4.96155476,11.089646 12.0391659,8.00897143 16.9864278,10.4214952 C27.8381817,15.7112333 38.8496659,17.1400587 45.4232294,17.5718365 C47.3763563,17.7253524 49.5115389,17.8530905 50.5767135,17.7835825 C48.9662929,18.0142016 41.3733563,18.934146 38.0376659,18.5891381 C35.9254992,18.3704873 34.0464833,19.9496063 33.1836183,21.8380587 C34.6851738,21.2111063 36.8348563,21.2223841 39.8780151,22.2698365 C47.4122611,24.8641857 50.9343802,24.6443841 56.7997452,23.1485825 C58.4723087,22.7223286 58.1514675,21.2012095 56.9040071,17.7835825" id="Fill-6" fill="#E2E2E2" mask="url(#mask-6)"></path>
                        </g>
                        <path d="M25.9591198,37.0419992 C26.5584532,37.1131183 27.2597468,37.1810151 28.0358421,37.2445389 C27.3520405,36.8417611 26.6551198,36.4702849 25.8930643,36.1554278 C16.82435,30.905277 5.91022302,32.6468881 2.13677063,35.055269 C2.35127857,34.9705706 2.58304841,34.9026738 2.83599286,34.8566421 C5.36727857,34.3965548 19.1738103,36.2364437 25.9591198,37.0419992" id="Fill-9" fill="#E2E2E2"></path>
                        <path d="M21.0129627,26.229027 C15.8360024,26.5740349 12.037923,21.6276937 17.1009548,23.4673524 C18.5274786,23.9859 20.7218119,24.9159714 23.3124786,26.0124476 C22.3218754,26.1208524 21.5328913,26.194273 21.0129627,26.229027 M48.2780262,24.9629238 C50.6903198,23.784281 50.9803198,22.0990587 51.5568675,19.7212889 L51.5030103,19.7597254 C51.5791929,19.3465905 50.6999865,18.7799397 43.9158278,19.6487889 C37.8679468,20.4230429 25.4992167,17.6008365 25.4992167,17.6008365 C25.9602246,15.5298683 40.0249944,20.3691857 42.6400579,17.1402889 C43.9692246,15.4999476 47.0114627,13.9199079 44.0200897,11.7334 C41.029177,9.54689206 29.8703913,10.8134556 30.6752563,9.54804286 C30.8423516,9.2856619 31.1671056,9.03593968 31.5825421,8.79910635 C30.8214071,8.81728889 30.2975659,9.0101619 30.2158595,9.66243175 C29.9847802,11.5034714 29.0655262,13.1138921 30.4460183,13.8050587 C31.8269706,14.4955349 39.6493754,14.2644556 41.7196532,15.7597968 C43.789931,17.2551381 37.5137325,16.067519 34.3573357,15.4147889 C27.6850341,14.034527 26.1903833,14.6092333 25.3841373,17.2551381 C24.5788119,19.9010429 24.7143754,19.0052651 24.0238992,21.3061619 C24.9512087,23.1467413 25.6815024,20.5853048 36.7813675,23.3244238 C37.4115421,23.479781 38.0403357,23.581281 38.664296,23.6425032 C33.9732008,24.5794794 29.1025817,25.3026381 25.5574468,25.7473048 C24.4529151,25.0393365 23.2747325,24.2899397 21.816677,23.4673524 C17.330423,20.936527 13.6494944,21.3966143 13.3047167,24.7329952 C12.9597087,28.0689159 11.396931,30.4577333 15.2610659,31.0595984 C21.6000976,32.0472095 27.9393595,31.3917175 33.441304,30.1530032 C33.9089865,30.3320667 34.3759786,30.5079079 34.8404389,30.6800667 C34.4556135,30.4526698 34.0845976,30.2524317 33.7296929,30.0871778 C40.2763278,28.5812492 45.6045024,26.2683841 48.2780262,24.9629238" id="Fill-11" fill="#E2E2E2"></path>
                        <path d="M49.887319,42.4493714 C57.4749619,42.0797365 56.4438508,40.8389508 56.9039381,37.2726413 C56.9969222,36.5538556 56.7163587,35.4718794 55.8875571,35.1112206 C55.4350651,34.8773794 54.8407952,34.7204111 54.1199381,34.6025698 C52.8008984,34.3747127 51.0148667,34.2633159 49.2792397,34.1397206 C47.9063429,34.0202683 46.3767079,33.8607683 44.7098984,33.5912524 C42.0140492,33.1551016 38.4981444,32.0353794 34.8404619,30.6802048 C37.3791127,32.1810698 40.5055889,34.8534429 43.441954,36.377554 C43.7913349,36.5869984 45.2169381,37.3851889 46.834954,37.5067127 C46.8464619,37.5078635 46.8584302,37.5094746 46.8701683,37.5103952 C46.9115968,37.5133873 46.9541762,37.5131571 46.9958349,37.5149984 C47.2352,37.5276571 47.4711127,37.5267365 47.7012714,37.5025698 C46.0595492,38.0155937 34.466454,37.7718556 28.0360492,37.2445619 C32.1001921,39.6377524 35.7088508,43.1382365 49.887319,42.4493714" id="Fill-13" fill="#E2E2E2"></path>
                    </g>
                    <g id="Group-21-Copy-7" transform="translate(1162.000000, 72.000000) rotate(-12.000000) translate(-1162.000000, -72.000000) translate(1133.000000, 36.000000)">
                        <path d="M36.8878389,8.74257937 C43.9049183,6.44214286 41.3752437,0.919944444 41.3752437,0.919944444 L39.7636722,0.34431746 L37.8089341,0 C37.8089341,0 40.4541484,3.91131746 36.772069,6.67207143 C36.0995452,7.17657937 33.1703151,7.89352381 31.58245,8.79896825 C32.9684659,8.76605556 35.1432357,9.31475397 36.8878389,8.74257937" id="Fill-1" fill="#E2E2E2"></path>
                        <g id="Group-5" transform="translate(29.920635, 56.538722)">
                            <mask id="mask-8" fill="white">
                                <use xlink:href="#path-7"></use>
                            </mask>
                            <g id="Clip-4"></g>
                            <path d="M0.878354762,13.129727 C1.45329127,15.4301635 6.35590238,14.1387429 6.35590238,14.1387429 C6.35590238,14.1387429 3.70033095,5.78996508 2.94080714,3.51093333 C2.60316429,2.49754444 2.76289444,1.29841746 3.26302937,0.203092063 C-1.70609762,2.27912381 0.43645,11.3627984 0.878354762,13.129727" id="Fill-3" fill="#E2E2E2" mask="url(#mask-8)"></path>
                        </g>
                        <g id="Group-8" transform="translate(0.000000, 34.903802)">
                            <mask id="mask-10" fill="white">
                                <use xlink:href="#path-9"></use>
                            </mask>
                            <g id="Clip-7"></g>
                            <path d="M56.9040071,17.7835825 C56.0547214,15.4559873 55.5237452,15.8224 54.6132373,16.0042254 C54.274904,16.0468048 53.9674119,16.0603841 53.6859278,16.0541698 C53.2279119,16.0219476 52.6486024,15.9280429 51.9542135,15.7839635 C51.8566262,15.760027 51.7629516,15.7377016 51.6729595,15.7183683 C50.9056103,15.5533444 42.2417452,13.3049238 42.2417452,13.3049238 L42.2387532,13.3164317 C39.5194278,12.6319397 36.4741976,11.917527 33.2183722,11.2988603 C16.1919198,8.06305873 18.9855865,3.44975714 6.95035635,4.39133651 C1.76557063,4.79664603 0.722951587,2.56180476 0.775427778,1.87938413 C0.755403968,1.32147937 1.24886429,0.718233333 2.13681667,0.15158254 C-1.25388175,1.49225714 0.0324753968,7.39283651 1.61320556,8.57746349 C4.96155476,11.089646 12.0391659,8.00897143 16.9864278,10.4214952 C27.8381817,15.7112333 38.8496659,17.1400587 45.4232294,17.5718365 C47.3763563,17.7253524 49.5115389,17.8530905 50.5767135,17.7835825 C48.9662929,18.0142016 41.3733563,18.934146 38.0376659,18.5891381 C35.9254992,18.3704873 34.0464833,19.9496063 33.1836183,21.8380587 C34.6851738,21.2111063 36.8348563,21.2223841 39.8780151,22.2698365 C47.4122611,24.8641857 50.9343802,24.6443841 56.7997452,23.1485825 C58.4723087,22.7223286 58.1514675,21.2012095 56.9040071,17.7835825" id="Fill-6" fill="#E2E2E2" mask="url(#mask-10)"></path>
                        </g>
                        <path d="M25.9591198,37.0419992 C26.5584532,37.1131183 27.2597468,37.1810151 28.0358421,37.2445389 C27.3520405,36.8417611 26.6551198,36.4702849 25.8930643,36.1554278 C16.82435,30.905277 5.91022302,32.6468881 2.13677063,35.055269 C2.35127857,34.9705706 2.58304841,34.9026738 2.83599286,34.8566421 C5.36727857,34.3965548 19.1738103,36.2364437 25.9591198,37.0419992" id="Fill-9" fill="#E2E2E2"></path>
                        <path d="M21.0129627,26.229027 C15.8360024,26.5740349 12.037923,21.6276937 17.1009548,23.4673524 C18.5274786,23.9859 20.7218119,24.9159714 23.3124786,26.0124476 C22.3218754,26.1208524 21.5328913,26.194273 21.0129627,26.229027 M48.2780262,24.9629238 C50.6903198,23.784281 50.9803198,22.0990587 51.5568675,19.7212889 L51.5030103,19.7597254 C51.5791929,19.3465905 50.6999865,18.7799397 43.9158278,19.6487889 C37.8679468,20.4230429 25.4992167,17.6008365 25.4992167,17.6008365 C25.9602246,15.5298683 40.0249944,20.3691857 42.6400579,17.1402889 C43.9692246,15.4999476 47.0114627,13.9199079 44.0200897,11.7334 C41.029177,9.54689206 29.8703913,10.8134556 30.6752563,9.54804286 C30.8423516,9.2856619 31.1671056,9.03593968 31.5825421,8.79910635 C30.8214071,8.81728889 30.2975659,9.0101619 30.2158595,9.66243175 C29.9847802,11.5034714 29.0655262,13.1138921 30.4460183,13.8050587 C31.8269706,14.4955349 39.6493754,14.2644556 41.7196532,15.7597968 C43.789931,17.2551381 37.5137325,16.067519 34.3573357,15.4147889 C27.6850341,14.034527 26.1903833,14.6092333 25.3841373,17.2551381 C24.5788119,19.9010429 24.7143754,19.0052651 24.0238992,21.3061619 C24.9512087,23.1467413 25.6815024,20.5853048 36.7813675,23.3244238 C37.4115421,23.479781 38.0403357,23.581281 38.664296,23.6425032 C33.9732008,24.5794794 29.1025817,25.3026381 25.5574468,25.7473048 C24.4529151,25.0393365 23.2747325,24.2899397 21.816677,23.4673524 C17.330423,20.936527 13.6494944,21.3966143 13.3047167,24.7329952 C12.9597087,28.0689159 11.396931,30.4577333 15.2610659,31.0595984 C21.6000976,32.0472095 27.9393595,31.3917175 33.441304,30.1530032 C33.9089865,30.3320667 34.3759786,30.5079079 34.8404389,30.6800667 C34.4556135,30.4526698 34.0845976,30.2524317 33.7296929,30.0871778 C40.2763278,28.5812492 45.6045024,26.2683841 48.2780262,24.9629238" id="Fill-11" fill="#E2E2E2"></path>
                        <path d="M49.887319,42.4493714 C57.4749619,42.0797365 56.4438508,40.8389508 56.9039381,37.2726413 C56.9969222,36.5538556 56.7163587,35.4718794 55.8875571,35.1112206 C55.4350651,34.8773794 54.8407952,34.7204111 54.1199381,34.6025698 C52.8008984,34.3747127 51.0148667,34.2633159 49.2792397,34.1397206 C47.9063429,34.0202683 46.3767079,33.8607683 44.7098984,33.5912524 C42.0140492,33.1551016 38.4981444,32.0353794 34.8404619,30.6802048 C37.3791127,32.1810698 40.5055889,34.8534429 43.441954,36.377554 C43.7913349,36.5869984 45.2169381,37.3851889 46.834954,37.5067127 C46.8464619,37.5078635 46.8584302,37.5094746 46.8701683,37.5103952 C46.9115968,37.5133873 46.9541762,37.5131571 46.9958349,37.5149984 C47.2352,37.5276571 47.4711127,37.5267365 47.7012714,37.5025698 C46.0595492,38.0155937 34.466454,37.7718556 28.0360492,37.2445619 C32.1001921,39.6377524 35.7088508,43.1382365 49.887319,42.4493714" id="Fill-13" fill="#E2E2E2"></path>
                    </g>
                    <g id="Group-21-Copy-4" transform="translate(358.000000, 47.500000) rotate(-12.000000) translate(-358.000000, -47.500000) translate(339.000000, 24.000000)">
                        <path d="M24.0983643,5.71141787 C28.6825345,4.20857144 27.0299297,0.600988211 27.0299297,0.600988211 L25.9771102,0.224938295 L24.7001043,0 C24.7001043,0 26.4281897,2.55521483 24.0227333,4.3587809 C23.5833819,4.68836963 21.6697524,5.15674048 20.63242,5.74825602 C21.5378868,5.72675457 22.9586368,6.08521238 24.0983643,5.71141787" id="Fill-1" fill="#E2E2E2"></path>
                        <g id="Group-5" transform="translate(19.546777, 36.936041)">
                            <mask id="mask-12" fill="white">
                                <use xlink:href="#path-11"></use>
                            </mask>
                            <g id="Clip-4"></g>
                            <path d="M0.573818191,8.57748659 C0.949417029,10.080333 4.15223161,9.23666405 4.15223161,9.23666405 C4.15223161,9.23666405 2.41737998,3.78251184 1.92119256,2.29364888 C1.7006147,1.63161458 1.80496442,0.848239904 2.13169631,0.132677508 C-1.11457226,1.48892311 0.285127332,7.42317423 0.573818191,8.57748659" id="Fill-3" fill="#E2E2E2" mask="url(#mask-12)"></path>
                        </g>
                        <g id="Group-8" transform="translate(0.000000, 22.802217)">
                            <mask id="mask-14" fill="white">
                                <use xlink:href="#path-13"></use>
                            </mask>
                            <g id="Clip-7"></g>
                            <path d="M37.1746769,11.6177923 C36.6198491,10.0972034 36.272969,10.3365762 35.6781456,10.4553605 C35.4571166,10.4831771 35.2562359,10.4920483 35.0723458,10.4879886 C34.7731298,10.4669382 34.3946741,10.4055914 33.9410385,10.3114661 C33.877286,10.2958287 33.8160895,10.2812438 33.7572988,10.2686136 C33.2559992,10.1608056 27.5960044,8.69194049 27.5960044,8.69194049 L27.5940497,8.69945848 C25.8175484,8.25228837 23.8281376,7.78557148 21.7011475,7.38140427 C10.5779789,5.26749553 12.4030465,2.25368324 4.54058096,2.86880527 C1.15342524,3.13358892 0.472295239,1.67359504 0.506577279,1.22777817 C0.493495974,0.863305958 0.815867434,0.469212863 1.39595563,0.0990269792 C-0.819145278,0.974872947 0.021215771,4.82964772 1.05388703,5.60354973 C3.24132173,7.24472719 7.86503664,5.23216097 11.097021,6.80823263 C18.1863363,10.2639524 25.3800013,11.1973862 29.6744282,11.4794612 C30.9503817,11.5797512 32.3452697,11.6632009 33.041135,11.6177923 C31.9890673,11.7684528 27.0286968,12.369441 24.8495319,12.1440517 C23.4696798,12.0012098 22.2421422,13.0328286 21.6784432,14.2665309 C22.6593907,13.8569508 24.0637514,13.8643184 26.051809,14.5486059 C30.9738378,16.2434619 33.2747942,16.0998682 37.1065639,15.1226797 C38.1992287,14.8442134 37.9896271,13.8504853 37.1746769,11.6177923" id="Fill-6" fill="#E2E2E2" mask="url(#mask-14)"></path>
                        </g>
                        <path d="M16.9587686,24.1990753 C17.3503056,24.2455364 17.808452,24.2898926 18.3154653,24.3313919 C17.8687463,24.0682622 17.4134568,23.8255815 16.9156154,23.6198892 C10.9911376,20.1900313 3.86107485,21.3278041 1.39592556,22.9011693 C1.53606091,22.8458369 1.68747325,22.8014807 1.8527187,22.7714087 C3.50637603,22.4708395 12.5260107,23.6728159 16.9587686,24.1990753" id="Fill-9" fill="#E2E2E2"></path>
                        <path d="M13.727506,17.1350956 C10.3454625,17.360485 7.8642247,14.129102 11.1718401,15.3309281 C12.1037703,15.6696888 13.5373008,16.2772928 15.229751,16.993607 C14.5826023,17.0644265 14.0671688,17.1123913 13.727506,17.1350956 M31.5394313,16.3079662 C33.1153526,15.5379736 33.304806,14.437039 33.6814573,12.8836716 L33.6462731,12.9087817 C33.6960422,12.6388858 33.1216677,12.2686999 28.6896616,12.8363083 C24.7386565,13.3421187 16.6583197,11.4984066 16.6583197,11.4984066 C16.9594904,10.1454689 26.1478288,13.3069345 27.8562171,11.1975366 C28.7245451,10.1259221 30.7120012,9.09370193 28.7577746,7.66528362 C26.8038487,6.2368653 19.5139534,7.06429541 20.0397617,6.2376171 C20.1489229,6.0662069 20.3610806,5.9030665 20.6324801,5.74834624 C20.1352402,5.76022466 19.7930212,5.8862262 19.7396435,6.31234593 C19.5886822,7.51507415 18.9881451,8.56714183 19.8900033,9.01867238 C20.7921623,9.46975185 25.9024416,9.31879059 27.2549282,10.2956784 C28.6074148,11.2725661 24.5072528,10.4967094 22.4452181,10.070289 C18.0862869,9.16858113 17.1098502,9.5440296 16.5831397,11.2725661 C16.0570307,13.0011026 16.1455927,12.4159022 15.6945132,13.9190494 C16.3003129,15.1214769 16.7774046,13.4481224 24.0288078,15.2375546 C24.440493,15.3390475 24.851276,15.4053562 25.2589015,15.4453519 C22.1942676,16.0574668 19.012353,16.5298973 16.6963607,16.8203925 C15.9747839,16.3578857 15.205092,15.8683141 14.2525625,15.3309281 C11.3217488,13.6775715 8.91704418,13.9781408 8.69180516,16.1577568 C8.46641579,18.337072 7.44547259,19.8976566 9.96986366,20.2908476 C14.1110739,20.9360416 18.2524345,20.5078168 21.8467861,19.6985802 C22.1523172,19.8155602 22.4573973,19.9304351 22.7608234,20.0429042 C22.5094218,19.8943487 22.2670418,19.7635357 22.0351869,19.6555773 C26.3120217,18.671773 29.7928516,17.1608071 31.5394313,16.3079662" id="Fill-11" fill="#E2E2E2"></path>
                        <path d="M32.5907622,27.731644 C37.5476745,27.4901661 36.8740625,26.6795763 37.1746318,24.3497508 C37.2353771,23.8801771 37.0520885,23.1733356 36.5106428,22.9377217 C36.2150354,22.7849562 35.8268063,22.6824108 35.3558794,22.6054265 C34.4941672,22.4565703 33.327375,22.3837962 32.1935116,22.3030529 C31.2966152,22.2250162 30.2973238,22.1208168 29.208418,21.9447455 C27.4472534,21.6598136 25.1503568,20.9283131 22.7608385,20.0429944 C24.4193073,21.0234908 26.4617951,22.7693187 28.3800857,23.7650015 C28.608332,23.9018289 29.5396607,24.4232768 30.5966903,24.5026668 C30.6042082,24.5034186 30.612027,24.5044711 30.6196953,24.5050725 C30.6467601,24.5070272 30.6745766,24.5068769 30.7017918,24.5080797 C30.858166,24.5163495 31.0122848,24.5157481 31.1626446,24.4999603 C30.090128,24.8351123 22.5165037,24.6758813 18.3156007,24.3314069 C20.9706544,25.8948484 23.3281461,28.1816709 32.5907622,27.731644" id="Fill-13" fill="#E2E2E2"></path>
                    </g>
                </g>
                <rect id="Rectangle-12" fill="#F6F6F6" x="10" y="157" width="1440" height="210"></rect>
            </g>
        </g>
    </g>
</svg>