<?xml version="1.0" encoding="UTF-8"?>
<svg width="55px" height="44px" viewBox="0 0 55 44" version="1.1" xmlns="http://www.w3.org/2000/svg" xmlns:xlink="http://www.w3.org/1999/xlink">
    <!-- Generator: sketchtool 51.2 (57519) - http://www.bohemiancoding.com/sketch -->
    <title>3C092895-1ABB-472F-86FF-F57D22E72356</title>
    <desc>Created with sketchtool.</desc>
    <defs></defs>
    <g id="FLUJO-" stroke="none" stroke-width="1" fill="none" fill-rule="evenodd">
        <g id="1.-Home_Campaña-navidad" transform="translate(-693.000000, -2566.000000)">
            <g id="Group-21-Copy-9" transform="translate(693.000000, 2566.000000)">
                <path d="M5.15982988,23.1647211 C5.15982988,23.1647211 9.33657544,22.3792619 13.7499186,23.2433643 C14.7252737,23.4343781 15.6173151,23.6229596 16.4289719,23.819973 C13.0988683,21.7433059 8.47252219,20.9918985 7.05098373,20.2593005 C6.02648669,21.8300567 5.15982988,23.1647211 5.15982988,23.1647211" id="Fill-1" fill="#DA272C"></path>
                <path d="M19.3453062,42.7198325 C19.0299512,40.5993847 24.7048772,30.4683561 22.1037678,26.6993197 C21.148753,25.3147128 19.2901435,24.5144979 16.4290044,23.8200054 C18.4534275,25.0821884 19.9991228,26.8337428 20.0542855,29.3691349 C20.1345074,33.0295302 17.3399216,38.2050639 18.2417263,42.2491083 C19.0278358,45.7736211 28.2038861,42.7950705 32.4714305,38.0821535 C29.2119482,40.0018584 25.1489453,41.4779184 23.679892,42.2482976 C22.1826879,43.034081 19.6448772,44.7353687 19.3453062,42.7198325" id="Fill-3" fill="#DA272C"></path>
                <path d="M29.486037,27.8164261 C30.079321,24.6624282 36.2915547,26.8154684 35.0096317,33.0488748 C31.9136849,31.0717684 29.247324,29.086068 29.486037,27.8164261 M43.563108,38.6518384 C42.683108,37.6739061 39.7371908,35.9727805 36.7649127,34.1458259 C39.1966287,28.9769404 35.242324,25.4418878 33.1373536,25.4418878 C31.6320133,25.4418878 29.0392027,26.4636009 29.0392027,28.5055676 C29.0392027,30.547048 30.0640251,32.1959609 30.0640251,32.1959609 C30.0640251,32.1959609 30.7290695,33.553975 34.0415991,35.8064137 C34.0256524,35.839006 34.0113328,35.8711119 33.9950607,35.9038664 C33.6221021,36.657544 33.0996021,37.3885204 32.4714956,38.0822021 C33.3757411,37.5495363 34.2176642,36.9829809 34.9258299,36.3875626 C35.4974719,36.7515915 36.1332263,37.1349163 36.841392,37.5367264 C38.8938033,38.700808 41.6529157,40.0860634 42.279395,40.7568819 C44.4074719,43.0333189 44.9592618,42.9551622 45.2741287,42.4051462 C45.589321,41.8559409 46.2486701,40.3182636 46.613818,39.5000499 C46.7182855,39.2657418 46.7309778,39.0340281 46.6736997,38.802963 C46.661821,38.8916596 46.6455488,38.9753295 46.6209778,39.0491082 C46.4523979,39.5543705 45.5566139,40.8669824 43.563108,38.6518384" id="Fill-5" fill="#DA272C"></path>
                <path d="M39.8570192,16.8069611 C34.3197559,17.3529233 33.6124038,15.5504535 33.0584985,13.1909951 C30.4577145,2.11786964 29.4330547,2.98180984 27.0054068,0.406366469 C25.5589719,-1.12871647 24.944534,1.88242647 24.1117234,6.13532131 C25.2201849,3.76516103 26.1724334,1.88712885 26.5170784,1.33241048 C27.5414127,-0.316502419 27.3842234,1.96025892 28.1722855,5.18090088 C28.8409098,7.91233346 32.191679,12.6413035 33.689534,16.6465938 C35.1869009,20.651722 37.5154512,20.05225 38.8904512,20.1020303 C40.518321,20.1617019 49.2599038,19.2838167 51.1064719,18.8451984 C52.4380251,18.5293284 54.1902145,17.5453965 54.7421672,17.5822047 C54.6518565,15.4557573 41.7281583,16.6225955 39.8570192,16.8069611" id="Fill-7" fill="#DA272C"></path>
                <path d="M54.7420858,17.5822372 C54.7422485,17.5858045 54.7432249,17.5892097 54.7433876,17.592777 C54.7472929,17.7583331 53.9881953,18.596167 53.7857692,18.7665876 C50.6478402,21.4127288 45.4711686,23.7313251 43.4198964,25.5801701 C43.8029438,25.3228366 44.2764645,25.1409032 44.8801627,25.0499365 C47.4811095,24.6573691 52.6035947,23.086613 53.7857692,21.9869053 C54.9679438,20.8875219 54.7515237,18.5981128 54.9093639,17.8126536 C54.9401183,17.659421 54.8760059,17.5911555 54.7420858,17.5822372" id="Fill-9" fill="#DA272C"></path>
                <path d="M3.3284926,16.5679993 C0.806954142,16.8819235 1.62721893e-05,17.4324259 1.62721893e-05,17.4324259 L1.62721893e-05,20.102079 C1.62721893e-05,20.102079 15.2947352,18.8595163 19.2474127,18.7043379 C19.1911109,19.0335043 19.1722352,19.3198628 19.1787441,19.5523873 C19.2518062,22.1842592 20.6279453,23.8626836 21.7707411,23.8283076 C21.1343358,22.7436799 20.7093062,21.0553644 20.962176,18.8421662 C21.752679,19.0537732 22.5941139,19.4742305 23.296747,20.0420831 C23.1307707,19.0683667 22.599321,18.1567542 21.4726346,17.6677069 C21.3789068,17.627007 21.2811109,17.5869558 21.1805488,17.5475531 C21.3232559,16.8916525 21.5222648,16.1986194 21.7884778,15.4686159 C22.8816435,12.4728773 23.5468506,9.01873796 24.1116583,6.13536996 C22.4971317,9.58772561 20.5420281,14.0848198 19.6574719,17.0661269 C15.9397648,16.1010045 9.75112574,15.7677844 3.3284926,16.5679993" id="Fill-11" fill="#DA272C"></path>
                <path d="M22.0249778,23.793056 C21.9434541,23.8147842 21.8599778,23.8258104 21.7753624,23.8282427 C22.5772559,25.1946887 23.7101257,25.6029847 24.2314867,24.8927636 C25.6115311,23.0132721 24.7484541,21.2145317 23.2977885,20.0421804 C23.5843417,21.7249829 22.7739867,23.5939346 22.0249778,23.793056" id="Fill-13" fill="#DA272C"></path>
                <path d="M41.2547678,30.1540914 C40.9395754,31.1751558 41.1763358,33.6881711 42.8312175,35.1807705 C44.2922973,36.4982469 46.3858772,37.6399516 46.6737322,38.8028982 C46.9877855,36.4586821 42.9968683,29.0895705 42.5627263,27.1416512 C42.4571198,26.6678462 42.7920015,26.1460445 43.4199453,25.5801377 C42.1528299,26.4314301 41.8843388,28.1174756 41.2547678,30.1540914" id="Fill-15" fill="#DA272C"></path>
                <path d="M20.9622086,18.84215 C20.9622086,18.84215 20.1253299,18.6624867 19.2474453,18.7043217 C19.4557293,17.5640763 19.6573417,17.0661107 19.6573417,17.0661107 L21.1805814,17.5475369 L20.9622086,18.84215 Z" id="Fill-17" fill="#AF0000"></path>
                <path d="M35.0096805,33.0488099 C34.8178314,34.0852788 34.0416479,35.8063488 34.0416479,35.8063488 L34.925716,36.3876599 C34.925716,36.3876599 36.154429,35.000783 36.7649615,34.1457611 L35.0096805,33.0488099 Z" id="Fill-19" fill="#AF0000"></path>
            </g>
        </g>
    </g>
</svg>