<?xml version="1.0" encoding="UTF-8"?>
<svg width="1106px" height="456px" viewBox="0 0 1106 456" version="1.1" xmlns="http://www.w3.org/2000/svg" xmlns:xlink="http://www.w3.org/1999/xlink">
    <!-- Generator: sketchtool 51.2 (57519) - http://www.bohemiancoding.com/sketch -->
    <title>3990EDF1-7C29-456C-9A84-0E99631EC7A4</title>
    <desc>Created with sketchtool.</desc>
    <defs>
        <polygon id="path-1" points="0 0 41 0 41 43 0 43"></polygon>
        <polygon id="path-3" points="0 0 27 0 27 28 0 28"></polygon>
        <polygon id="path-5" points="0 0 41 0 41 43 0 43"></polygon>
        <polygon id="path-7" points="0 0 41 0 41 43 0 43"></polygon>
        <polygon id="path-9" points="0 0 29 0 29 30 0 30"></polygon>
        <polygon id="path-11" points="0 0 62 0 62 65 0 65"></polygon>
        <polygon id="path-13" points="0 0 62 0 62 65 0 65"></polygon>
    </defs>
    <g id="FLUJO-" stroke="none" stroke-width="1" fill="none" fill-rule="evenodd" opacity="0.7">
        <g id="1.-Home_Campaña-navidad" transform="translate(-162.000000, -3156.000000)">
            <g id="Group-33" transform="translate(155.000000, 3148.000000)">
                <g id="Group-38-Copy-4" transform="translate(5.000000, 428.000000)">
                    <mask id="mask-2" fill="white">
                        <use xlink:href="#path-1"></use>
                    </mask>
                    <g id="Clip-2"></g>
                    <path d="M23.1501441,21.724888 L26,21.724888 L26,20.7845832 L23.1501441,20.7845832 L23.1501441,21.724888 Z M19.8862118,18.7213624 L20.8496107,18.7213624 L20.8496107,16 L19.8862118,16 L19.8862118,18.7213624 Z M22.6731653,19.7325366 L25.2748452,17.193905 L24.5905217,16.5270391 L21.989455,19.0650732 L22.6731653,19.7325366 Z M21.8338545,20.2179863 C21.3885108,19.7833284 20.8496107,19.570242 20.2382441,19.570242 C19.6270002,19.570242 19.098032,19.7833284 18.663356,20.2179863 C18.2170315,20.6533612 18,21.1783687 18,21.78536 C18,22.3923514 18.2170315,22.9178369 18.663356,23.342695 C19.098032,23.7781894 19.6270002,24 20.2382441,24 C20.8496107,24 21.3885108,23.7781894 21.8338545,23.342695 C22.2691435,22.9178369 22.4870333,22.3923514 22.4870333,21.78536 C22.4870333,21.1783687 22.2691435,20.6533612 21.8338545,20.2179863 Z M21.0773098,22.6048402 C20.8496107,22.8381237 20.5699221,22.9480729 20.2382441,22.9480729 C19.9172338,22.9480729 19.6373,22.8381237 19.4096009,22.6048402 C19.1812887,22.3720347 19.0565876,22.0987153 19.0565876,21.78536 C19.0565876,21.4520466 19.1812887,21.1783687 19.4096009,20.9561996 C19.6373,20.7241111 19.9172338,20.6122498 20.2382441,20.6225276 C20.5699221,20.6122498 20.8496107,20.7241111 21.0873644,20.9561996 C21.3054994,21.1783687 21.4192876,21.4520466 21.4303231,21.78536 C21.4192876,22.0987153 21.3054994,22.3720347 21.0773098,22.6048402 Z" id="Fill-1" fill="#DA272C" mask="url(#mask-2)"></path>
                    <polygon id="Fill-3" fill="#DA272C" mask="url(#mask-2)" points="20 14 21 14 21 11 20 11"></polygon>
                    <polygon id="Fill-4" fill="#DA272C" mask="url(#mask-2)" points="20 11 21 11 21 8 20 8"></polygon>
                    <polygon id="Fill-5" fill="#DA272C" mask="url(#mask-2)" points="22.6243422 11 25 8.62411453 24.3752099 8 22 10.3753262"></polygon>
                    <polygon id="Fill-6" fill="#DA272C" mask="url(#mask-2)" points="19 10.3753029 16.624902 8 16 8.6241378 18.3756578 11"></polygon>
                    <polygon id="Fill-7" fill="#DA272C" mask="url(#mask-2)" points="28 14.7696001 27.2303643 14 25 16.2303999 25.7694972 17"></polygon>
                    <polygon id="Fill-8" fill="#DA272C" mask="url(#mask-2)" points="31 10.7696357 30.2303643 10 28 12.2303643 28.7694972 13"></polygon>
                    <polygon id="Fill-9" fill="#DA272C" mask="url(#mask-2)" points="29 15 33 14.9978506 32.9998668 14 29.0009326 14.0021494"></polygon>
                    <polygon id="Fill-10" fill="#DA272C" mask="url(#mask-2)" points="27.9978508 11.9990674 28 8.00013323 27.0022756 8 27 12"></polygon>
                    <polygon id="Fill-11" fill="#DA272C" mask="url(#mask-2)" points="27 21 30 21 30 20 27 20"></polygon>
                    <polygon id="Fill-12" fill="#DA272C" mask="url(#mask-2)" points="31 21 34 21 34 20 31 20"></polygon>
                    <polygon id="Fill-13" fill="#DA272C" mask="url(#mask-2)" points="31 22.6243189 33.3758855 25 34 24.3751213 31.6246738 22"></polygon>
                    <polygon id="Fill-14" fill="#DA272C" mask="url(#mask-2)" points="31.6246971 19 34 16.6247901 33.3759741 16 31 18.3756578"></polygon>
                    <path d="M15,23.2156078 L17.8498559,23.2156078 L17.8498559,22.2751976 L15,22.2751976 L15,23.2156078 Z M20.1503893,28 L21.1137882,28 L21.1137882,25.2786782 L20.1503893,25.2786782 L20.1503893,28 Z M18.3268347,24.2675192 L15.7251548,26.8061128 L16.4094783,27.4728492 L19.0104224,24.9349726 L18.3268347,24.2675192 Z M19.1661455,23.7820768 C19.6114892,24.2166087 20.1503893,24.4298113 20.7617559,24.4298113 C21.3729998,24.4298113 21.9018454,24.2166087 22.336644,23.7820768 C22.7829685,23.3467083 23,22.8215892 23,22.2147264 C23,21.6077441 22.7829685,21.0822665 22.336644,20.6574147 C21.9018454,20.2219268 21.3729998,20 20.7617559,20 C20.1503893,20 19.6114892,20.2219268 19.1661455,20.6574147 C18.7308565,21.0822665 18.5129667,21.6077441 18.5129667,22.2147264 C18.5129667,22.8215892 18.7308565,23.3467083 19.1661455,23.7820768 Z M19.9226902,21.395139 C20.1503893,21.161859 20.4300779,21.0519114 20.7617559,21.0519114 C21.0827662,21.0519114 21.3627,21.161859 21.5902765,21.395139 C21.8187113,21.6280605 21.9432898,21.9012563 21.9432898,22.2147264 C21.9432898,22.5480348 21.8187113,22.8215892 21.5902765,23.0437549 C21.3627,23.2759594 21.0827662,23.3876996 20.7617559,23.3774219 C20.4300779,23.3876996 20.1503893,23.2759594 19.912513,23.0437549 C19.6945006,22.8215892 19.5807124,22.5480348 19.5696769,22.2147264 C19.5807124,21.9012563 19.6945006,21.6280605 19.9226902,21.395139 Z" id="Fill-15" fill="#DA272C" mask="url(#mask-2)"></path>
                    <polygon id="Fill-16" fill="#DA272C" mask="url(#mask-2)" points="20 32 21 32 21 29 20 29"></polygon>
                    <polygon id="Fill-17" fill="#DA272C" mask="url(#mask-2)" points="20 36 21 36 21 33 20 33"></polygon>
                    <polygon id="Fill-18" fill="#DA272C" mask="url(#mask-2)" points="18.3756578 32 16 34.3758855 16.6247901 35 19 32.6246738"></polygon>
                    <polygon id="Fill-19" fill="#DA272C" mask="url(#mask-2)" points="21 32.6246971 23.375098 35 24 34.3758622 21.6243422 32"></polygon>
                    <polygon id="Fill-20" fill="#DA272C" mask="url(#mask-2)" points="13 29.2303999 13.7696357 30 16 27.7696001 15.2305028 27"></polygon>
                    <polygon id="Fill-21" fill="#DA272C" mask="url(#mask-2)" points="10 31.2303643 10.7696357 32 13 29.7696357 12.2305028 29"></polygon>
                    <polygon id="Fill-22" fill="#DA272C" mask="url(#mask-2)" points="12 28 8 28.0021494 8.00013323 29 11.9990674 28.9978506"></polygon>
                    <polygon id="Fill-23" fill="#DA272C" mask="url(#mask-2)" points="13.0021492 31.0009326 13 34.9998668 13.9977244 35 14 31"></polygon>
                    <polygon id="Fill-24" fill="#DA272C" mask="url(#mask-2)" points="28.2303999 30 29 29.2303643 26.7697387 27 26 27.7696357"></polygon>
                    <polygon id="Fill-25" fill="#DA272C" mask="url(#mask-2)" points="31.2303999 32 32 31.2303643 29.7697387 29 29 29.7694972"></polygon>
                    <polygon id="Fill-26" fill="#DA272C" mask="url(#mask-2)" points="27 31 27.0021494 35 28 34.9998668 27.9978506 31.0009326"></polygon>
                    <polygon id="Fill-27" fill="#DA272C" mask="url(#mask-2)" points="30.0009326 28.9978506 33.9998668 29 34 28.0021494 30 28"></polygon>
                    <polygon id="Fill-28" fill="#DA272C" mask="url(#mask-2)" points="12.7696001 14 12 14.7696357 14.2302613 17 15 16.2303643"></polygon>
                    <polygon id="Fill-29" fill="#DA272C" mask="url(#mask-2)" points="10.7696001 11 10 11.7696357 12.2302613 14 13 13.2305028"></polygon>
                    <polygon id="Fill-30" fill="#DA272C" mask="url(#mask-2)" points="14 13 13.9978506 9 13 9.00013323 13.0021494 12.9990674"></polygon>
                    <polygon id="Fill-31" fill="#DA272C" mask="url(#mask-2)" points="10.9990674 14.0021494 7.00013323 14 7 14.9978506 11 15"></polygon>
                    <polygon id="Fill-32" fill="#DA272C" mask="url(#mask-2)" points="11 23 14 23 14 22 11 22"></polygon>
                    <polygon id="Fill-33" fill="#DA272C" mask="url(#mask-2)" points="7 23 10 23 10 22 7 22"></polygon>
                    <polygon id="Fill-34" fill="#DA272C" mask="url(#mask-2)" points="10 20.3756578 7.62411453 18 7 18.6247901 9.37532622 21"></polygon>
                    <polygon id="Fill-35" fill="#DA272C" mask="url(#mask-2)" points="9.37530293 23 7 25.3752099 7.62402595 26 10 23.6243422"></polygon>
                    <polygon id="Fill-36" fill="#DA272C" mask="url(#mask-2)" points="18 18.3756811 15.6241145 16 15 16.6248787 17.3753262 19"></polygon>
                    <polygon id="Fill-37" fill="#DA272C" mask="url(#mask-2)" points="22 23.6243189 24.3758855 26 25 25.3751213 22.6246738 23"></polygon>
                </g>
                <g id="Group-38-Copy-13" transform="translate(158.000000, 271.000000)">
                    <mask id="mask-4" fill="white">
                        <use xlink:href="#path-3"></use>
                    </mask>
                    <g id="Clip-2"></g>
                    <path d="M15.21884,13.578055 L17,13.578055 L17,12.9903645 L15.21884,12.9903645 L15.21884,13.578055 Z M13.1788823,11.7008515 L13.7810067,11.7008515 L13.7810067,10 L13.1788823,10 L13.1788823,11.7008515 Z M14.9207283,12.3328354 L16.5467782,10.7461906 L16.1190761,10.3293995 L14.4934094,11.9156707 L14.9207283,12.3328354 Z M14.396159,12.6362414 C14.1178193,12.3645802 13.7810067,12.2314013 13.3989026,12.2314013 C13.0168751,12.2314013 12.68627,12.3645802 12.4145975,12.6362414 C12.1356447,12.9083508 12,13.2364804 12,13.61585 C12,13.9952196 12.1356447,14.323648 12.4145975,14.5891843 C12.68627,14.8613684 13.0168751,15 13.3989026,15 C13.7810067,15 14.1178193,14.8613684 14.396159,14.5891843 C14.6682147,14.323648 14.8043958,13.9952196 14.8043958,13.61585 C14.8043958,13.2364804 14.6682147,12.9083508 14.396159,12.6362414 Z M13.9233186,14.1280251 C13.7810067,14.2738273 13.6062013,14.3425456 13.3989026,14.3425456 C13.1982711,14.3425456 13.0233125,14.2738273 12.8810006,14.1280251 C12.7383054,13.9825217 12.6603672,13.811697 12.6603672,13.61585 C12.6603672,13.4075291 12.7383054,13.2364804 12.8810006,13.0976247 C13.0233125,12.9525695 13.1982711,12.8826561 13.3989026,12.8890798 C13.6062013,12.8826561 13.7810067,12.9525695 13.9296027,13.0976247 C14.0659371,13.2364804 14.1370547,13.4075291 14.1439519,13.61585 C14.1370547,13.811697 14.0659371,13.9825217 13.9233186,14.1280251 Z" id="Fill-1" fill="#DA272C" mask="url(#mask-4)"></path>
                    <polygon id="Fill-3" fill="#DA272C" mask="url(#mask-4)" points="13 9 14 9 14 7 13 7"></polygon>
                    <polygon id="Fill-4" fill="#DA272C" mask="url(#mask-4)" points="13 7 14 7 14 5 13 5"></polygon>
                    <polygon id="Fill-5" fill="#DA272C" mask="url(#mask-4)" points="14.4162281 7 16 5.41607636 15.5834733 5 14 6.58355082"></polygon>
                    <polygon id="Fill-6" fill="#DA272C" mask="url(#mask-4)" points="13 6.58353529 11.4166014 5 11 5.41609187 12.5837719 7"></polygon>
                    <polygon id="Fill-7" fill="#DA272C" mask="url(#mask-4)" points="18 9.51306677 17.4869095 9 16 10.4869332 16.5129981 11"></polygon>
                    <polygon id="Fill-8" fill="#DA272C" mask="url(#mask-4)" points="20 7.51309046 19.4869095 7 18 8.48690954 18.5129981 9"></polygon>
                    <polygon id="Fill-9" fill="#DA272C" mask="url(#mask-4)" points="19 10 22 9.99785055 21.9999001 9 19.0006995 9.00214945"></polygon>
                    <polygon id="Fill-10" fill="#DA272C" mask="url(#mask-4)" points="18.9978508 7.99930056 19 5.00009992 18.0022756 5 18 8"></polygon>
                    <polygon id="Fill-11" fill="#DA272C" mask="url(#mask-4)" points="18 14 20 14 20 13 18 13"></polygon>
                    <polygon id="Fill-12" fill="#DA272C" mask="url(#mask-4)" points="20 14 22 14 22 13 20 13"></polygon>
                    <polygon id="Fill-13" fill="#DA272C" mask="url(#mask-4)" points="20 14.4162126 21.5839236 16 22 15.5834142 20.4164492 14"></polygon>
                    <polygon id="Fill-14" fill="#DA272C" mask="url(#mask-4)" points="20.4164647 12 22 10.4165267 21.5839827 10 20 11.5837719"></polygon>
                    <path d="M10,15.0097549 L11.78116,15.0097549 L11.78116,14.4219985 L10,14.4219985 L10,15.0097549 Z M13.2189933,18 L13.8211177,18 L13.8211177,16.2991739 L13.2189933,16.2991739 L13.2189933,18 Z M12.0792717,15.6671995 L10.4532218,17.2538205 L10.8809239,17.6705308 L12.506514,16.0843579 L12.0792717,15.6671995 Z M12.603841,15.363798 C12.8821807,15.6353804 13.2189933,15.7686321 13.6010974,15.7686321 C13.9831249,15.7686321 14.3136534,15.6353804 14.5854025,15.363798 C14.8643553,15.0916927 15,14.7634932 15,14.384204 C15,14.0048401 14.8643553,13.6764165 14.5854025,13.4108842 C14.3136534,13.1387042 13.9831249,13 13.6010974,13 C13.2189933,13 12.8821807,13.1387042 12.603841,13.4108842 C12.3317853,13.6764165 12.1956042,14.0048401 12.1956042,14.384204 C12.1956042,14.7634932 12.3317853,15.0916927 12.603841,15.363798 Z M13.0766814,13.8719619 C13.2189933,13.7261618 13.3937987,13.6574446 13.6010974,13.6574446 C13.8017289,13.6574446 13.9766875,13.7261618 14.1189228,13.8719619 C14.2616946,14.0175378 14.3395561,14.1882852 14.3395561,14.384204 C14.3395561,14.5925218 14.2616946,14.7634932 14.1189228,14.9023468 C13.9766875,15.0474746 13.8017289,15.1173123 13.6010974,15.1108887 C13.3937987,15.1173123 13.2189933,15.0474746 13.0703206,14.9023468 C12.9340629,14.7634932 12.8629453,14.5925218 12.8560481,14.384204 C12.8629453,14.1882852 12.9340629,14.0175378 13.0766814,13.8719619 Z" id="Fill-15" fill="#DA272C" mask="url(#mask-4)"></path>
                    <polygon id="Fill-16" fill="#DA272C" mask="url(#mask-4)" points="13 21 14 21 14 19 13 19"></polygon>
                    <polygon id="Fill-17" fill="#DA272C" mask="url(#mask-4)" points="13 23 14 23 14 21 13 21"></polygon>
                    <polygon id="Fill-18" fill="#DA272C" mask="url(#mask-4)" points="12.5837719 21 11 22.5839236 11.4165267 23 13 21.4164492"></polygon>
                    <polygon id="Fill-19" fill="#DA272C" mask="url(#mask-4)" points="14 21.4164647 15.5833986 23 16 22.5839081 14.4162281 21"></polygon>
                    <polygon id="Fill-20" fill="#DA272C" mask="url(#mask-4)" points="9 19.4869332 9.51309046 20 11 18.5130668 10.4870019 18"></polygon>
                    <polygon id="Fill-21" fill="#DA272C" mask="url(#mask-4)" points="7 20.4869095 7.51309046 21 9 19.5130905 8.48700189 19"></polygon>
                    <polygon id="Fill-22" fill="#DA272C" mask="url(#mask-4)" points="8 18 5 18.0021494 5.00009992 19 7.99930054 18.9978506"></polygon>
                    <polygon id="Fill-23" fill="#DA272C" mask="url(#mask-4)" points="9.00214918 20.0006994 9 22.9999001 9.9977244 23 10 20"></polygon>
                    <polygon id="Fill-24" fill="#DA272C" mask="url(#mask-4)" points="18.4869332 20 19 19.4869095 17.5131591 18 17 18.5130905"></polygon>
                    <polygon id="Fill-25" fill="#DA272C" mask="url(#mask-4)" points="20.4869332 21 21 20.4869095 19.5131591 19 19 19.5129981"></polygon>
                    <polygon id="Fill-26" fill="#DA272C" mask="url(#mask-4)" points="18 20 18.0021494 23 19 22.9999001 18.9978506 20.0006995"></polygon>
                    <polygon id="Fill-27" fill="#DA272C" mask="url(#mask-4)" points="20.0006994 18.9978506 22.9999001 19 23 18.0021494 20 18"></polygon>
                    <polygon id="Fill-28" fill="#DA272C" mask="url(#mask-4)" points="8.51306677 9 8 9.51309046 9.48684089 11 10 10.4869095"></polygon>
                    <polygon id="Fill-29" fill="#DA272C" mask="url(#mask-4)" points="7.51306677 7 7 7.51309046 8.48684089 9 9 8.48700189"></polygon>
                    <polygon id="Fill-30" fill="#DA272C" mask="url(#mask-4)" points="10 9 9.99785055 6 9 6.00009992 9.00214945 8.99930054"></polygon>
                    <polygon id="Fill-31" fill="#DA272C" mask="url(#mask-4)" points="7.99930056 9.00214945 5.00009992 9 5 9.99785055 8 10"></polygon>
                    <polygon id="Fill-32" fill="#DA272C" mask="url(#mask-4)" points="7 15 9 15 9 14 7 14"></polygon>
                    <polygon id="Fill-33" fill="#DA272C" mask="url(#mask-4)" points="5 15 7 15 7 14 5 14"></polygon>
                    <polygon id="Fill-34" fill="#DA272C" mask="url(#mask-4)" points="7 13.5837719 5.41607636 12 5 12.4165267 6.58355082 14"></polygon>
                    <polygon id="Fill-35" fill="#DA272C" mask="url(#mask-4)" points="6.58353529 15 5 16.5834733 5.4160173 17 7 15.4162281"></polygon>
                    <polygon id="Fill-36" fill="#DA272C" mask="url(#mask-4)" points="12 11.5837874 10.4160764 10 10 10.4165858 11.5835508 12"></polygon>
                    <polygon id="Fill-37" fill="#DA272C" mask="url(#mask-4)" points="14 15.4162126 15.5839236 17 16 16.5834142 14.4164492 15"></polygon>
                </g>
                <g id="Group-38-Copy-11" transform="translate(0.000000, 105.000000)">
                    <mask id="mask-6" fill="white">
                        <use xlink:href="#path-5"></use>
                    </mask>
                    <g id="Clip-2"></g>
                    <path d="M23.1501441,21.724888 L26,21.724888 L26,20.7845832 L23.1501441,20.7845832 L23.1501441,21.724888 Z M19.8862118,18.7213624 L20.8496107,18.7213624 L20.8496107,16 L19.8862118,16 L19.8862118,18.7213624 Z M22.6731653,19.7325366 L25.2748452,17.193905 L24.5905217,16.5270391 L21.989455,19.0650732 L22.6731653,19.7325366 Z M21.8338545,20.2179863 C21.3885108,19.7833284 20.8496107,19.570242 20.2382441,19.570242 C19.6270002,19.570242 19.098032,19.7833284 18.663356,20.2179863 C18.2170315,20.6533612 18,21.1783687 18,21.78536 C18,22.3923514 18.2170315,22.9178369 18.663356,23.342695 C19.098032,23.7781894 19.6270002,24 20.2382441,24 C20.8496107,24 21.3885108,23.7781894 21.8338545,23.342695 C22.2691435,22.9178369 22.4870333,22.3923514 22.4870333,21.78536 C22.4870333,21.1783687 22.2691435,20.6533612 21.8338545,20.2179863 Z M21.0773098,22.6048402 C20.8496107,22.8381237 20.5699221,22.9480729 20.2382441,22.9480729 C19.9172338,22.9480729 19.6373,22.8381237 19.4096009,22.6048402 C19.1812887,22.3720347 19.0565876,22.0987153 19.0565876,21.78536 C19.0565876,21.4520466 19.1812887,21.1783687 19.4096009,20.9561996 C19.6373,20.7241111 19.9172338,20.6122498 20.2382441,20.6225276 C20.5699221,20.6122498 20.8496107,20.7241111 21.0873644,20.9561996 C21.3054994,21.1783687 21.4192876,21.4520466 21.4303231,21.78536 C21.4192876,22.0987153 21.3054994,22.3720347 21.0773098,22.6048402 Z" id="Fill-1" fill="#DA272C" mask="url(#mask-6)"></path>
                    <polygon id="Fill-3" fill="#DA272C" mask="url(#mask-6)" points="20 14 21 14 21 11 20 11"></polygon>
                    <polygon id="Fill-4" fill="#DA272C" mask="url(#mask-6)" points="20 11 21 11 21 8 20 8"></polygon>
                    <polygon id="Fill-5" fill="#DA272C" mask="url(#mask-6)" points="22.6243422 11 25 8.62411453 24.3752099 8 22 10.3753262"></polygon>
                    <polygon id="Fill-6" fill="#DA272C" mask="url(#mask-6)" points="19 10.3753029 16.624902 8 16 8.6241378 18.3756578 11"></polygon>
                    <polygon id="Fill-7" fill="#DA272C" mask="url(#mask-6)" points="28 14.7696001 27.2303643 14 25 16.2303999 25.7694972 17"></polygon>
                    <polygon id="Fill-8" fill="#DA272C" mask="url(#mask-6)" points="31 10.7696357 30.2303643 10 28 12.2303643 28.7694972 13"></polygon>
                    <polygon id="Fill-9" fill="#DA272C" mask="url(#mask-6)" points="29 15 33 14.9978506 32.9998668 14 29.0009326 14.0021494"></polygon>
                    <polygon id="Fill-10" fill="#DA272C" mask="url(#mask-6)" points="27.9978508 11.9990674 28 8.00013323 27.0022756 8 27 12"></polygon>
                    <polygon id="Fill-11" fill="#DA272C" mask="url(#mask-6)" points="27 21 30 21 30 20 27 20"></polygon>
                    <polygon id="Fill-12" fill="#DA272C" mask="url(#mask-6)" points="31 21 34 21 34 20 31 20"></polygon>
                    <polygon id="Fill-13" fill="#DA272C" mask="url(#mask-6)" points="31 22.6243189 33.3758855 25 34 24.3751213 31.6246738 22"></polygon>
                    <polygon id="Fill-14" fill="#DA272C" mask="url(#mask-6)" points="31.6246971 19 34 16.6247901 33.3759741 16 31 18.3756578"></polygon>
                    <path d="M15,23.2156078 L17.8498559,23.2156078 L17.8498559,22.2751976 L15,22.2751976 L15,23.2156078 Z M20.1503893,28 L21.1137882,28 L21.1137882,25.2786782 L20.1503893,25.2786782 L20.1503893,28 Z M18.3268347,24.2675192 L15.7251548,26.8061128 L16.4094783,27.4728492 L19.0104224,24.9349726 L18.3268347,24.2675192 Z M19.1661455,23.7820768 C19.6114892,24.2166087 20.1503893,24.4298113 20.7617559,24.4298113 C21.3729998,24.4298113 21.9018454,24.2166087 22.336644,23.7820768 C22.7829685,23.3467083 23,22.8215892 23,22.2147264 C23,21.6077441 22.7829685,21.0822665 22.336644,20.6574147 C21.9018454,20.2219268 21.3729998,20 20.7617559,20 C20.1503893,20 19.6114892,20.2219268 19.1661455,20.6574147 C18.7308565,21.0822665 18.5129667,21.6077441 18.5129667,22.2147264 C18.5129667,22.8215892 18.7308565,23.3467083 19.1661455,23.7820768 Z M19.9226902,21.395139 C20.1503893,21.161859 20.4300779,21.0519114 20.7617559,21.0519114 C21.0827662,21.0519114 21.3627,21.161859 21.5902765,21.395139 C21.8187113,21.6280605 21.9432898,21.9012563 21.9432898,22.2147264 C21.9432898,22.5480348 21.8187113,22.8215892 21.5902765,23.0437549 C21.3627,23.2759594 21.0827662,23.3876996 20.7617559,23.3774219 C20.4300779,23.3876996 20.1503893,23.2759594 19.912513,23.0437549 C19.6945006,22.8215892 19.5807124,22.5480348 19.5696769,22.2147264 C19.5807124,21.9012563 19.6945006,21.6280605 19.9226902,21.395139 Z" id="Fill-15" fill="#DA272C" mask="url(#mask-6)"></path>
                    <polygon id="Fill-16" fill="#DA272C" mask="url(#mask-6)" points="20 32 21 32 21 29 20 29"></polygon>
                    <polygon id="Fill-17" fill="#DA272C" mask="url(#mask-6)" points="20 36 21 36 21 33 20 33"></polygon>
                    <polygon id="Fill-18" fill="#DA272C" mask="url(#mask-6)" points="18.3756578 32 16 34.3758855 16.6247901 35 19 32.6246738"></polygon>
                    <polygon id="Fill-19" fill="#DA272C" mask="url(#mask-6)" points="21 32.6246971 23.375098 35 24 34.3758622 21.6243422 32"></polygon>
                    <polygon id="Fill-20" fill="#DA272C" mask="url(#mask-6)" points="13 29.2303999 13.7696357 30 16 27.7696001 15.2305028 27"></polygon>
                    <polygon id="Fill-21" fill="#DA272C" mask="url(#mask-6)" points="10 31.2303643 10.7696357 32 13 29.7696357 12.2305028 29"></polygon>
                    <polygon id="Fill-22" fill="#DA272C" mask="url(#mask-6)" points="12 28 8 28.0021494 8.00013323 29 11.9990674 28.9978506"></polygon>
                    <polygon id="Fill-23" fill="#DA272C" mask="url(#mask-6)" points="13.0021492 31.0009326 13 34.9998668 13.9977244 35 14 31"></polygon>
                    <polygon id="Fill-24" fill="#DA272C" mask="url(#mask-6)" points="28.2303999 30 29 29.2303643 26.7697387 27 26 27.7696357"></polygon>
                    <polygon id="Fill-25" fill="#DA272C" mask="url(#mask-6)" points="31.2303999 32 32 31.2303643 29.7697387 29 29 29.7694972"></polygon>
                    <polygon id="Fill-26" fill="#DA272C" mask="url(#mask-6)" points="27 31 27.0021494 35 28 34.9998668 27.9978506 31.0009326"></polygon>
                    <polygon id="Fill-27" fill="#DA272C" mask="url(#mask-6)" points="30.0009326 28.9978506 33.9998668 29 34 28.0021494 30 28"></polygon>
                    <polygon id="Fill-28" fill="#DA272C" mask="url(#mask-6)" points="12.7696001 14 12 14.7696357 14.2302613 17 15 16.2303643"></polygon>
                    <polygon id="Fill-29" fill="#DA272C" mask="url(#mask-6)" points="10.7696001 11 10 11.7696357 12.2302613 14 13 13.2305028"></polygon>
                    <polygon id="Fill-30" fill="#DA272C" mask="url(#mask-6)" points="14 13 13.9978506 9 13 9.00013323 13.0021494 12.9990674"></polygon>
                    <polygon id="Fill-31" fill="#DA272C" mask="url(#mask-6)" points="10.9990674 14.0021494 7.00013323 14 7 14.9978506 11 15"></polygon>
                    <polygon id="Fill-32" fill="#DA272C" mask="url(#mask-6)" points="11 23 14 23 14 22 11 22"></polygon>
                    <polygon id="Fill-33" fill="#DA272C" mask="url(#mask-6)" points="7 23 10 23 10 22 7 22"></polygon>
                    <polygon id="Fill-34" fill="#DA272C" mask="url(#mask-6)" points="10 20.3756578 7.62411453 18 7 18.6247901 9.37532622 21"></polygon>
                    <polygon id="Fill-35" fill="#DA272C" mask="url(#mask-6)" points="9.37530293 23 7 25.3752099 7.62402595 26 10 23.6243422"></polygon>
                    <polygon id="Fill-36" fill="#DA272C" mask="url(#mask-6)" points="18 18.3756811 15.6241145 16 15 16.6248787 17.3753262 19"></polygon>
                    <polygon id="Fill-37" fill="#DA272C" mask="url(#mask-6)" points="22 23.6243189 24.3758855 26 25 25.3751213 22.6246738 23"></polygon>
                </g>
                <g id="Group-38-Copy-12" transform="translate(766.000000, 0.000000)">
                    <mask id="mask-8" fill="white">
                        <use xlink:href="#path-7"></use>
                    </mask>
                    <g id="Clip-2"></g>
                    <path d="M23.1501441,21.724888 L26,21.724888 L26,20.7845832 L23.1501441,20.7845832 L23.1501441,21.724888 Z M19.8862118,18.7213624 L20.8496107,18.7213624 L20.8496107,16 L19.8862118,16 L19.8862118,18.7213624 Z M22.6731653,19.7325366 L25.2748452,17.193905 L24.5905217,16.5270391 L21.989455,19.0650732 L22.6731653,19.7325366 Z M21.8338545,20.2179863 C21.3885108,19.7833284 20.8496107,19.570242 20.2382441,19.570242 C19.6270002,19.570242 19.098032,19.7833284 18.663356,20.2179863 C18.2170315,20.6533612 18,21.1783687 18,21.78536 C18,22.3923514 18.2170315,22.9178369 18.663356,23.342695 C19.098032,23.7781894 19.6270002,24 20.2382441,24 C20.8496107,24 21.3885108,23.7781894 21.8338545,23.342695 C22.2691435,22.9178369 22.4870333,22.3923514 22.4870333,21.78536 C22.4870333,21.1783687 22.2691435,20.6533612 21.8338545,20.2179863 Z M21.0773098,22.6048402 C20.8496107,22.8381237 20.5699221,22.9480729 20.2382441,22.9480729 C19.9172338,22.9480729 19.6373,22.8381237 19.4096009,22.6048402 C19.1812887,22.3720347 19.0565876,22.0987153 19.0565876,21.78536 C19.0565876,21.4520466 19.1812887,21.1783687 19.4096009,20.9561996 C19.6373,20.7241111 19.9172338,20.6122498 20.2382441,20.6225276 C20.5699221,20.6122498 20.8496107,20.7241111 21.0873644,20.9561996 C21.3054994,21.1783687 21.4192876,21.4520466 21.4303231,21.78536 C21.4192876,22.0987153 21.3054994,22.3720347 21.0773098,22.6048402 Z" id="Fill-1" fill="#DA272C" mask="url(#mask-8)"></path>
                    <polygon id="Fill-3" fill="#DA272C" mask="url(#mask-8)" points="20 14 21 14 21 11 20 11"></polygon>
                    <polygon id="Fill-4" fill="#DA272C" mask="url(#mask-8)" points="20 11 21 11 21 8 20 8"></polygon>
                    <polygon id="Fill-5" fill="#DA272C" mask="url(#mask-8)" points="22.6243422 11 25 8.62411453 24.3752099 8 22 10.3753262"></polygon>
                    <polygon id="Fill-6" fill="#DA272C" mask="url(#mask-8)" points="19 10.3753029 16.624902 8 16 8.6241378 18.3756578 11"></polygon>
                    <polygon id="Fill-7" fill="#DA272C" mask="url(#mask-8)" points="28 14.7696001 27.2303643 14 25 16.2303999 25.7694972 17"></polygon>
                    <polygon id="Fill-8" fill="#DA272C" mask="url(#mask-8)" points="31 10.7696357 30.2303643 10 28 12.2303643 28.7694972 13"></polygon>
                    <polygon id="Fill-9" fill="#DA272C" mask="url(#mask-8)" points="29 15 33 14.9978506 32.9998668 14 29.0009326 14.0021494"></polygon>
                    <polygon id="Fill-10" fill="#DA272C" mask="url(#mask-8)" points="27.9978508 11.9990674 28 8.00013323 27.0022756 8 27 12"></polygon>
                    <polygon id="Fill-11" fill="#DA272C" mask="url(#mask-8)" points="27 21 30 21 30 20 27 20"></polygon>
                    <polygon id="Fill-12" fill="#DA272C" mask="url(#mask-8)" points="31 21 34 21 34 20 31 20"></polygon>
                    <polygon id="Fill-13" fill="#DA272C" mask="url(#mask-8)" points="31 22.6243189 33.3758855 25 34 24.3751213 31.6246738 22"></polygon>
                    <polygon id="Fill-14" fill="#DA272C" mask="url(#mask-8)" points="31.6246971 19 34 16.6247901 33.3759741 16 31 18.3756578"></polygon>
                    <path d="M15,23.2156078 L17.8498559,23.2156078 L17.8498559,22.2751976 L15,22.2751976 L15,23.2156078 Z M20.1503893,28 L21.1137882,28 L21.1137882,25.2786782 L20.1503893,25.2786782 L20.1503893,28 Z M18.3268347,24.2675192 L15.7251548,26.8061128 L16.4094783,27.4728492 L19.0104224,24.9349726 L18.3268347,24.2675192 Z M19.1661455,23.7820768 C19.6114892,24.2166087 20.1503893,24.4298113 20.7617559,24.4298113 C21.3729998,24.4298113 21.9018454,24.2166087 22.336644,23.7820768 C22.7829685,23.3467083 23,22.8215892 23,22.2147264 C23,21.6077441 22.7829685,21.0822665 22.336644,20.6574147 C21.9018454,20.2219268 21.3729998,20 20.7617559,20 C20.1503893,20 19.6114892,20.2219268 19.1661455,20.6574147 C18.7308565,21.0822665 18.5129667,21.6077441 18.5129667,22.2147264 C18.5129667,22.8215892 18.7308565,23.3467083 19.1661455,23.7820768 Z M19.9226902,21.395139 C20.1503893,21.161859 20.4300779,21.0519114 20.7617559,21.0519114 C21.0827662,21.0519114 21.3627,21.161859 21.5902765,21.395139 C21.8187113,21.6280605 21.9432898,21.9012563 21.9432898,22.2147264 C21.9432898,22.5480348 21.8187113,22.8215892 21.5902765,23.0437549 C21.3627,23.2759594 21.0827662,23.3876996 20.7617559,23.3774219 C20.4300779,23.3876996 20.1503893,23.2759594 19.912513,23.0437549 C19.6945006,22.8215892 19.5807124,22.5480348 19.5696769,22.2147264 C19.5807124,21.9012563 19.6945006,21.6280605 19.9226902,21.395139 Z" id="Fill-15" fill="#DA272C" mask="url(#mask-8)"></path>
                    <polygon id="Fill-16" fill="#DA272C" mask="url(#mask-8)" points="20 32 21 32 21 29 20 29"></polygon>
                    <polygon id="Fill-17" fill="#DA272C" mask="url(#mask-8)" points="20 36 21 36 21 33 20 33"></polygon>
                    <polygon id="Fill-18" fill="#DA272C" mask="url(#mask-8)" points="18.3756578 32 16 34.3758855 16.6247901 35 19 32.6246738"></polygon>
                    <polygon id="Fill-19" fill="#DA272C" mask="url(#mask-8)" points="21 32.6246971 23.375098 35 24 34.3758622 21.6243422 32"></polygon>
                    <polygon id="Fill-20" fill="#DA272C" mask="url(#mask-8)" points="13 29.2303999 13.7696357 30 16 27.7696001 15.2305028 27"></polygon>
                    <polygon id="Fill-21" fill="#DA272C" mask="url(#mask-8)" points="10 31.2303643 10.7696357 32 13 29.7696357 12.2305028 29"></polygon>
                    <polygon id="Fill-22" fill="#DA272C" mask="url(#mask-8)" points="12 28 8 28.0021494 8.00013323 29 11.9990674 28.9978506"></polygon>
                    <polygon id="Fill-23" fill="#DA272C" mask="url(#mask-8)" points="13.0021492 31.0009326 13 34.9998668 13.9977244 35 14 31"></polygon>
                    <polygon id="Fill-24" fill="#DA272C" mask="url(#mask-8)" points="28.2303999 30 29 29.2303643 26.7697387 27 26 27.7696357"></polygon>
                    <polygon id="Fill-25" fill="#DA272C" mask="url(#mask-8)" points="31.2303999 32 32 31.2303643 29.7697387 29 29 29.7694972"></polygon>
                    <polygon id="Fill-26" fill="#DA272C" mask="url(#mask-8)" points="27 31 27.0021494 35 28 34.9998668 27.9978506 31.0009326"></polygon>
                    <polygon id="Fill-27" fill="#DA272C" mask="url(#mask-8)" points="30.0009326 28.9978506 33.9998668 29 34 28.0021494 30 28"></polygon>
                    <polygon id="Fill-28" fill="#DA272C" mask="url(#mask-8)" points="12.7696001 14 12 14.7696357 14.2302613 17 15 16.2303643"></polygon>
                    <polygon id="Fill-29" fill="#DA272C" mask="url(#mask-8)" points="10.7696001 11 10 11.7696357 12.2302613 14 13 13.2305028"></polygon>
                    <polygon id="Fill-30" fill="#DA272C" mask="url(#mask-8)" points="14 13 13.9978506 9 13 9.00013323 13.0021494 12.9990674"></polygon>
                    <polygon id="Fill-31" fill="#DA272C" mask="url(#mask-8)" points="10.9990674 14.0021494 7.00013323 14 7 14.9978506 11 15"></polygon>
                    <polygon id="Fill-32" fill="#DA272C" mask="url(#mask-8)" points="11 23 14 23 14 22 11 22"></polygon>
                    <polygon id="Fill-33" fill="#DA272C" mask="url(#mask-8)" points="7 23 10 23 10 22 7 22"></polygon>
                    <polygon id="Fill-34" fill="#DA272C" mask="url(#mask-8)" points="10 20.3756578 7.62411453 18 7 18.6247901 9.37532622 21"></polygon>
                    <polygon id="Fill-35" fill="#DA272C" mask="url(#mask-8)" points="9.37530293 23 7 25.3752099 7.62402595 26 10 23.6243422"></polygon>
                    <polygon id="Fill-36" fill="#DA272C" mask="url(#mask-8)" points="18 18.3756811 15.6241145 16 15 16.6248787 17.3753262 19"></polygon>
                    <polygon id="Fill-37" fill="#DA272C" mask="url(#mask-8)" points="22 23.6243189 24.3758855 26 25 25.3751213 22.6246738 23"></polygon>
                </g>
                <g id="Group-38-Copy-14" transform="translate(1089.000000, 418.000000)">
                    <mask id="mask-10" fill="white">
                        <use xlink:href="#path-9"></use>
                    </mask>
                    <g id="Clip-2"></g>
                    <path d="M16.8626081,15.293666 L19,15.293666 L19,14.5884374 L16.8626081,14.5884374 L16.8626081,15.293666 Z M14.4146588,13.0410218 L15.137208,13.0410218 L15.137208,11 L14.4146588,11 L14.4146588,13.0410218 Z M16.504874,13.7994024 L18.4561339,11.8954287 L17.9428913,11.3952794 L15.9920912,13.2988049 L16.504874,13.7994024 Z M15.8753908,14.1634897 C15.5413831,13.8374963 15.137208,13.6776815 14.6786831,13.6776815 C14.2202501,13.6776815 13.823524,13.8374963 13.497517,14.1634897 C13.1627736,14.4900209 13,14.8837765 13,15.33902 C13,15.7942635 13.1627736,16.1883777 13.497517,16.5070212 C13.823524,16.8336421 14.2202501,17 14.6786831,17 C15.137208,17 15.5413831,16.8336421 15.8753908,16.5070212 C16.2018576,16.1883777 16.365275,15.7942635 16.365275,15.33902 C16.365275,14.8837765 16.2018576,14.4900209 15.8753908,14.1634897 Z M15.3079823,15.9536301 C15.137208,16.1285928 14.9274416,16.2110547 14.6786831,16.2110547 C14.4379253,16.2110547 14.227975,16.1285928 14.0572007,15.9536301 C13.8859665,15.779026 13.7924407,15.5740365 13.7924407,15.33902 C13.7924407,15.089035 13.8859665,14.8837765 14.0572007,14.7171497 C14.227975,14.5430834 14.4379253,14.4591873 14.6786831,14.4668957 C14.9274416,14.4591873 15.137208,14.5430834 15.3155233,14.7171497 C15.4791245,14.8837765 15.5644657,15.089035 15.5727423,15.33902 C15.5644657,15.5740365 15.4791245,15.779026 15.3079823,15.9536301 Z" id="Fill-1" fill="#DA272C" mask="url(#mask-10)"></path>
                    <polygon id="Fill-3" fill="#DA272C" mask="url(#mask-10)" points="14 10 15 10 15 8 14 8"></polygon>
                    <polygon id="Fill-4" fill="#DA272C" mask="url(#mask-10)" points="14 8 15 8 15 6 14 6"></polygon>
                    <polygon id="Fill-5" fill="#DA272C" mask="url(#mask-10)" points="16.4162281 8 18 6.41607636 17.5834733 6 16 7.58355082"></polygon>
                    <polygon id="Fill-6" fill="#DA272C" mask="url(#mask-10)" points="13 7.58353529 11.4166014 6 11 6.41609187 12.5837719 8"></polygon>
                    <polygon id="Fill-7" fill="#DA272C" mask="url(#mask-10)" points="20 10.5130668 19.4869095 10 18 11.4869332 18.5129981 12"></polygon>
                    <polygon id="Fill-8" fill="#DA272C" mask="url(#mask-10)" points="22 7.51309046 21.4869095 7 20 8.48690954 20.5129981 9"></polygon>
                    <polygon id="Fill-9" fill="#DA272C" mask="url(#mask-10)" points="21 11 24 10.9978506 23.9999001 10 21.0006995 10.0021494"></polygon>
                    <polygon id="Fill-10" fill="#DA272C" mask="url(#mask-10)" points="19.9978508 8.99930056 20 6.00009992 19.0022756 6 19 9"></polygon>
                    <polygon id="Fill-11" fill="#DA272C" mask="url(#mask-10)" points="19 15 21 15 21 14 19 14"></polygon>
                    <polygon id="Fill-12" fill="#DA272C" mask="url(#mask-10)" points="22 15 24 15 24 14 22 14"></polygon>
                    <polygon id="Fill-13" fill="#DA272C" mask="url(#mask-10)" points="22 15.4162126 23.5839236 17 24 16.5834142 22.4164492 15"></polygon>
                    <polygon id="Fill-14" fill="#DA272C" mask="url(#mask-10)" points="22.4164647 13 24 11.4165267 23.5839827 11 22 12.5837719"></polygon>
                    <path d="M11,16.4117058 L13.1373919,16.4117058 L13.1373919,15.7063982 L11,15.7063982 L11,16.4117058 Z M14.862792,20 L15.5853412,20 L15.5853412,17.9590087 L14.862792,17.9590087 L14.862792,20 Z M13.495126,17.2006394 L11.5438661,19.1045846 L12.0571087,19.6046369 L14.0078168,17.7012294 L13.495126,17.2006394 Z M14.1246092,16.8365576 C14.4586169,17.1624565 14.862792,17.3223585 15.3213169,17.3223585 C15.7797499,17.3223585 16.176384,17.1624565 16.502483,16.8365576 C16.8372264,16.5100312 17,16.1161919 17,15.6610448 C17,15.2058081 16.8372264,14.8116999 16.502483,14.4930611 C16.176384,14.1664451 15.7797499,14 15.3213169,14 C14.862792,14 14.4586169,14.1664451 14.1246092,14.4930611 C13.7981424,14.8116999 13.634725,15.2058081 13.634725,15.6610448 C13.634725,16.1161919 13.7981424,16.5100312 14.1246092,16.8365576 Z M14.6920177,15.0463543 C14.862792,14.8713942 15.0725584,14.7889335 15.3213169,14.7889335 C15.5620747,14.7889335 15.772025,14.8713942 15.9427074,15.0463543 C16.1140335,15.2210454 16.2074674,15.4259422 16.2074674,15.6610448 C16.2074674,15.9110261 16.1140335,16.1161919 15.9427074,16.2828162 C15.772025,16.4569696 15.5620747,16.5407747 15.3213169,16.5330664 C15.0725584,16.5407747 14.862792,16.4569696 14.6843848,16.2828162 C14.5208755,16.1161919 14.4355343,15.9110261 14.4272577,15.6610448 C14.4355343,15.4259422 14.5208755,15.2210454 14.6920177,15.0463543 Z" id="Fill-15" fill="#DA272C" mask="url(#mask-10)"></path>
                    <polygon id="Fill-16" fill="#DA272C" mask="url(#mask-10)" points="14 22 15 22 15 20 14 20"></polygon>
                    <polygon id="Fill-17" fill="#DA272C" mask="url(#mask-10)" points="14 25 15 25 15 23 14 23"></polygon>
                    <polygon id="Fill-18" fill="#DA272C" mask="url(#mask-10)" points="12.5837719 22 11 23.5839236 11.4165267 24 13 22.4164492"></polygon>
                    <polygon id="Fill-19" fill="#DA272C" mask="url(#mask-10)" points="15 22.4164647 16.5833986 24 17 23.5839081 15.4162281 22"></polygon>
                    <polygon id="Fill-20" fill="#DA272C" mask="url(#mask-10)" points="9 20.4869332 9.51309046 21 11 19.5130668 10.4870019 19"></polygon>
                    <polygon id="Fill-21" fill="#DA272C" mask="url(#mask-10)" points="7 21.4869095 7.51309046 22 9 20.5130905 8.48700189 20"></polygon>
                    <polygon id="Fill-22" fill="#DA272C" mask="url(#mask-10)" points="9 20 6 20.0021494 6.00009992 21 8.99930054 20.9978506"></polygon>
                    <polygon id="Fill-23" fill="#DA272C" mask="url(#mask-10)" points="9.00214918 22.0006994 9 24.9999001 9.9977244 25 10 22"></polygon>
                    <polygon id="Fill-24" fill="#DA272C" mask="url(#mask-10)" points="19.4869332 21 20 20.4869095 18.5131591 19 18 19.5130905"></polygon>
                    <polygon id="Fill-25" fill="#DA272C" mask="url(#mask-10)" points="22.4869332 22 23 21.4869095 21.5131591 20 21 20.5129981"></polygon>
                    <polygon id="Fill-26" fill="#DA272C" mask="url(#mask-10)" points="19 22 19.0021494 25 20 24.9999001 19.9978506 22.0006995"></polygon>
                    <polygon id="Fill-27" fill="#DA272C" mask="url(#mask-10)" points="21.0006994 20.9978506 23.9999001 21 24 20.0021494 21 20"></polygon>
                    <polygon id="Fill-28" fill="#DA272C" mask="url(#mask-10)" points="8.51306677 10 8 10.5130905 9.48684089 12 10 11.4869095"></polygon>
                    <polygon id="Fill-29" fill="#DA272C" mask="url(#mask-10)" points="7.51306677 8 7 8.51309046 8.48684089 10 9 9.48700189"></polygon>
                    <polygon id="Fill-30" fill="#DA272C" mask="url(#mask-10)" points="10 9 9.99785055 6 9 6.00009992 9.00214945 8.99930054"></polygon>
                    <polygon id="Fill-31" fill="#DA272C" mask="url(#mask-10)" points="7.99930056 10.0021494 5.00009992 10 5 10.9978506 8 11"></polygon>
                    <polygon id="Fill-32" fill="#DA272C" mask="url(#mask-10)" points="8 16 10 16 10 15 8 15"></polygon>
                    <polygon id="Fill-33" fill="#DA272C" mask="url(#mask-10)" points="5 16 7 16 7 15 5 15"></polygon>
                    <polygon id="Fill-34" fill="#DA272C" mask="url(#mask-10)" points="7 14.5837719 5.41607636 13 5 13.4165267 6.58355082 15"></polygon>
                    <polygon id="Fill-35" fill="#DA272C" mask="url(#mask-10)" points="6.58353529 16 5 17.5834733 5.4160173 18 7 16.4162281"></polygon>
                    <polygon id="Fill-36" fill="#DA272C" mask="url(#mask-10)" points="13 12.5837874 11.4160764 11 11 11.4165858 12.5835508 13"></polygon>
                    <polygon id="Fill-37" fill="#DA272C" mask="url(#mask-10)" points="16 16.4162126 17.5839236 18 18 17.5834142 16.4164492 16"></polygon>
                </g>
                <g id="Group-38-Copy-8" transform="translate(986.000000, 43.000000)">
                    <mask id="mask-12" fill="white">
                        <use xlink:href="#path-11"></use>
                    </mask>
                    <g id="Clip-2"></g>
                    <path d="M34.7252161,32.5873319 L39,32.5873319 L39,31.1768748 L34.7252161,31.1768748 L34.7252161,32.5873319 Z M29.8293176,28.0820436 L31.274416,28.0820436 L31.274416,24 L29.8293176,24 L29.8293176,28.0820436 Z M34.009748,29.5988049 L37.9122678,25.7908575 L36.8857826,24.7905587 L32.9841825,28.5976098 L34.009748,29.5988049 Z M32.7507817,30.3269794 C32.0827662,29.6749925 31.274416,29.355363 30.3573662,29.355363 C29.4405003,29.355363 28.647048,29.6749925 27.995034,30.3269794 C27.3255472,30.9800418 27,31.767553 27,32.67804 C27,33.588527 27.3255472,34.3767553 27.995034,35.0140424 C28.647048,35.6672841 29.4405003,36 30.3573662,36 C31.274416,36 32.0827662,35.6672841 32.7507817,35.0140424 C33.4037153,34.3767553 33.7305499,33.588527 33.7305499,32.67804 C33.7305499,31.767553 33.4037153,30.9800418 32.7507817,30.3269794 Z M31.6159647,33.9072602 C31.274416,34.2571855 30.8548832,34.4221094 30.3573662,34.4221094 C29.8758507,34.4221094 29.45595,34.2571855 29.1144013,33.9072602 C28.7719331,33.558052 28.5848814,33.1480729 28.5848814,32.67804 C28.5848814,32.1780699 28.7719331,31.767553 29.1144013,31.4342994 C29.45595,31.0861667 29.8758507,30.9183747 30.3573662,30.9337915 C30.8548832,30.9183747 31.274416,31.0861667 31.6310465,31.4342994 C31.958249,31.767553 32.1289314,32.1780699 32.1454846,32.67804 C32.1289314,33.1480729 31.958249,33.558052 31.6159647,33.9072602 Z" id="Fill-1" fill="#DA272C" mask="url(#mask-12)"></path>
                    <polygon id="Fill-3" fill="#DA272C" mask="url(#mask-12)" points="30 22 32 22 32 17 30 17"></polygon>
                    <polygon id="Fill-4" fill="#DA272C" mask="url(#mask-12)" points="30 17 32 17 32 12 30 12"></polygon>
                    <polygon id="Fill-5" fill="#DA272C" mask="url(#mask-12)" points="34.0405703 17 38 13.0401909 36.9586832 12 33 15.958877"></polygon>
                    <polygon id="Fill-6" fill="#DA272C" mask="url(#mask-12)" points="29 15.9588382 25.0415034 12 24 13.0402297 27.9594297 17"></polygon>
                    <polygon id="Fill-7" fill="#DA272C" mask="url(#mask-12)" points="43 22.2826669 41.7172739 21 38 24.7173331 39.2824953 26"></polygon>
                    <polygon id="Fill-8" fill="#DA272C" mask="url(#mask-12)" points="47 16.2827261 45.7172739 15 42 18.7172739 43.2824953 20"></polygon>
                    <polygon id="Fill-9" fill="#DA272C" mask="url(#mask-12)" points="44 23 50 22.9957011 49.9998002 21 44.0013989 21.0042989"></polygon>
                    <polygon id="Fill-10" fill="#DA272C" mask="url(#mask-12)" points="42.9957016 17.9986011 43 12.0001998 41.0045512 12 41 18"></polygon>
                    <polygon id="Fill-11" fill="#DA272C" mask="url(#mask-12)" points="41 32 46 32 46 30 41 30"></polygon>
                    <polygon id="Fill-12" fill="#DA272C" mask="url(#mask-12)" points="47 32 52 32 52 30 47 30"></polygon>
                    <polygon id="Fill-13" fill="#DA272C" mask="url(#mask-12)" points="47 34.0405315 50.9598091 38 52 36.9585355 48.041123 33"></polygon>
                    <polygon id="Fill-14" fill="#DA272C" mask="url(#mask-12)" points="48.0411618 29 52 25.0413168 50.9599568 24 47 27.9594297"></polygon>
                    <path d="M23,34.8234117 L27.2747839,34.8234117 L27.2747839,33.4127963 L23,33.4127963 L23,34.8234117 Z M30.725584,42 L32.1706824,42 L32.1706824,37.9180174 L30.725584,37.9180174 L30.725584,42 Z M27.990252,36.4012787 L24.0877322,40.2091693 L25.1142174,41.2092738 L29.0156336,37.4024589 L27.990252,36.4012787 Z M29.2492183,35.6731151 C29.9172338,36.324913 30.725584,36.644717 31.6426338,36.644717 C32.5594997,36.644717 33.3527681,36.324913 34.004966,35.6731151 C34.6744528,35.0200624 35,34.2323837 35,33.3220896 C35,32.4116162 34.6744528,31.6233997 34.004966,30.9861221 C33.3527681,30.3328902 32.5594997,30 31.6426338,30 C30.725584,30 29.9172338,30.3328902 29.2492183,30.9861221 C28.5962847,31.6233997 28.2694501,32.4116162 28.2694501,33.3220896 C28.2694501,34.2323837 28.5962847,35.0200624 29.2492183,35.6731151 Z M30.3840353,32.0927085 C30.725584,31.7427884 31.1451168,31.5778671 31.6426338,31.5778671 C32.1241493,31.5778671 32.54405,31.7427884 32.8854148,32.0927085 C33.2280669,32.4420908 33.4149347,32.8518845 33.4149347,33.3220896 C33.4149347,33.8220523 33.2280669,34.2323837 32.8854148,34.5656324 C32.54405,34.9139391 32.1241493,35.0815494 31.6426338,35.0661329 C31.1451168,35.0815494 30.725584,34.9139391 30.3687695,34.5656324 C30.041751,34.2323837 29.8710686,33.8220523 29.8545154,33.3220896 C29.8710686,32.8518845 30.041751,32.4420908 30.3840353,32.0927085 Z" id="Fill-15" fill="#DA272C" mask="url(#mask-12)"></path>
                    <polygon id="Fill-16" fill="#DA272C" mask="url(#mask-12)" points="30 49 32 49 32 44 30 44"></polygon>
                    <polygon id="Fill-17" fill="#DA272C" mask="url(#mask-12)" points="30 55 32 55 32 50 30 50"></polygon>
                    <polygon id="Fill-18" fill="#DA272C" mask="url(#mask-12)" points="27.9594297 48 24 51.9598091 25.0413168 53 29 49.041123"></polygon>
                    <polygon id="Fill-19" fill="#DA272C" mask="url(#mask-12)" points="32 49.0411618 35.9584966 53 37 51.9597703 33.0405703 48"></polygon>
                    <polygon id="Fill-20" fill="#DA272C" mask="url(#mask-12)" points="20 44.7173331 21.2827261 46 25 42.2826669 23.7175047 41"></polygon>
                    <polygon id="Fill-21" fill="#DA272C" mask="url(#mask-12)" points="15 47.7172739 16.2827261 49 20 45.2827261 18.7175047 44"></polygon>
                    <polygon id="Fill-22" fill="#DA272C" mask="url(#mask-12)" points="18 42 12 42.0042989 12.0001998 44 17.9986011 43.9957011"></polygon>
                    <polygon id="Fill-23" fill="#DA272C" mask="url(#mask-12)" points="20.0042984 47.0013989 20 52.9998002 21.9954488 53 22 47"></polygon>
                    <polygon id="Fill-24" fill="#DA272C" mask="url(#mask-12)" points="42.7173331 46 44 44.7172739 40.2828978 41 39 42.2827261"></polygon>
                    <polygon id="Fill-25" fill="#DA272C" mask="url(#mask-12)" points="47.7173331 49 49 47.7172739 45.2828978 44 44 45.2824953"></polygon>
                    <polygon id="Fill-26" fill="#DA272C" mask="url(#mask-12)" points="41 47 41.0042989 53 43 52.9998002 42.9957011 47.0013989"></polygon>
                    <polygon id="Fill-27" fill="#DA272C" mask="url(#mask-12)" points="45.0013989 43.9957011 50.9998002 44 51 42.0042989 45 42"></polygon>
                    <polygon id="Fill-28" fill="#DA272C" mask="url(#mask-12)" points="19.2826669 21 18 22.2827261 21.7171022 26 23 24.7172739"></polygon>
                    <polygon id="Fill-29" fill="#DA272C" mask="url(#mask-12)" points="16.2826669 17 15 18.2827261 18.7171022 22 20 20.7175047"></polygon>
                    <polygon id="Fill-30" fill="#DA272C" mask="url(#mask-12)" points="22 20 21.9957011 14 20 14.0001998 20.0042989 19.9986011"></polygon>
                    <polygon id="Fill-31" fill="#DA272C" mask="url(#mask-12)" points="16.9986011 21.0042989 11.0001998 21 11 22.9957011 17 23"></polygon>
                    <polygon id="Fill-32" fill="#DA272C" mask="url(#mask-12)" points="17 35 22 35 22 33 17 33"></polygon>
                    <polygon id="Fill-33" fill="#DA272C" mask="url(#mask-12)" points="11 35 16 35 16 33 11 33"></polygon>
                    <polygon id="Fill-34" fill="#DA272C" mask="url(#mask-12)" points="16 30.9594297 12.0401909 27 11 28.0413168 14.958877 32"></polygon>
                    <polygon id="Fill-35" fill="#DA272C" mask="url(#mask-12)" points="14.9588382 35 11 38.9586832 12.0400432 40 16 36.0405703"></polygon>
                    <polygon id="Fill-36" fill="#DA272C" mask="url(#mask-12)" points="28 27.9594685 24.0401909 24 23 25.0414645 26.958877 29"></polygon>
                    <polygon id="Fill-37" fill="#DA272C" mask="url(#mask-12)" points="33 36.0405315 36.9598091 40 38 38.9585355 34.041123 35"></polygon>
                </g>
                <g id="Group-38-Copy-10" transform="translate(220.000000, 4.000000)">
                    <mask id="mask-14" fill="white">
                        <use xlink:href="#path-13"></use>
                    </mask>
                    <g id="Clip-2"></g>
                    <path d="M34.7252161,32.5873319 L39,32.5873319 L39,31.1768748 L34.7252161,31.1768748 L34.7252161,32.5873319 Z M29.8293176,28.0820436 L31.274416,28.0820436 L31.274416,24 L29.8293176,24 L29.8293176,28.0820436 Z M34.009748,29.5988049 L37.9122678,25.7908575 L36.8857826,24.7905587 L32.9841825,28.5976098 L34.009748,29.5988049 Z M32.7507817,30.3269794 C32.0827662,29.6749925 31.274416,29.355363 30.3573662,29.355363 C29.4405003,29.355363 28.647048,29.6749925 27.995034,30.3269794 C27.3255472,30.9800418 27,31.767553 27,32.67804 C27,33.588527 27.3255472,34.3767553 27.995034,35.0140424 C28.647048,35.6672841 29.4405003,36 30.3573662,36 C31.274416,36 32.0827662,35.6672841 32.7507817,35.0140424 C33.4037153,34.3767553 33.7305499,33.588527 33.7305499,32.67804 C33.7305499,31.767553 33.4037153,30.9800418 32.7507817,30.3269794 Z M31.6159647,33.9072602 C31.274416,34.2571855 30.8548832,34.4221094 30.3573662,34.4221094 C29.8758507,34.4221094 29.45595,34.2571855 29.1144013,33.9072602 C28.7719331,33.558052 28.5848814,33.1480729 28.5848814,32.67804 C28.5848814,32.1780699 28.7719331,31.767553 29.1144013,31.4342994 C29.45595,31.0861667 29.8758507,30.9183747 30.3573662,30.9337915 C30.8548832,30.9183747 31.274416,31.0861667 31.6310465,31.4342994 C31.958249,31.767553 32.1289314,32.1780699 32.1454846,32.67804 C32.1289314,33.1480729 31.958249,33.558052 31.6159647,33.9072602 Z" id="Fill-1" fill="#DA272C" mask="url(#mask-14)"></path>
                    <polygon id="Fill-3" fill="#DA272C" mask="url(#mask-14)" points="30 22 32 22 32 17 30 17"></polygon>
                    <polygon id="Fill-4" fill="#DA272C" mask="url(#mask-14)" points="30 17 32 17 32 12 30 12"></polygon>
                    <polygon id="Fill-5" fill="#DA272C" mask="url(#mask-14)" points="34.0405703 17 38 13.0401909 36.9586832 12 33 15.958877"></polygon>
                    <polygon id="Fill-6" fill="#DA272C" mask="url(#mask-14)" points="29 15.9588382 25.0415034 12 24 13.0402297 27.9594297 17"></polygon>
                    <polygon id="Fill-7" fill="#DA272C" mask="url(#mask-14)" points="43 22.2826669 41.7172739 21 38 24.7173331 39.2824953 26"></polygon>
                    <polygon id="Fill-8" fill="#DA272C" mask="url(#mask-14)" points="47 16.2827261 45.7172739 15 42 18.7172739 43.2824953 20"></polygon>
                    <polygon id="Fill-9" fill="#DA272C" mask="url(#mask-14)" points="44 23 50 22.9957011 49.9998002 21 44.0013989 21.0042989"></polygon>
                    <polygon id="Fill-10" fill="#DA272C" mask="url(#mask-14)" points="42.9957016 17.9986011 43 12.0001998 41.0045512 12 41 18"></polygon>
                    <polygon id="Fill-11" fill="#DA272C" mask="url(#mask-14)" points="41 32 46 32 46 30 41 30"></polygon>
                    <polygon id="Fill-12" fill="#DA272C" mask="url(#mask-14)" points="47 32 52 32 52 30 47 30"></polygon>
                    <polygon id="Fill-13" fill="#DA272C" mask="url(#mask-14)" points="47 34.0405315 50.9598091 38 52 36.9585355 48.041123 33"></polygon>
                    <polygon id="Fill-14" fill="#DA272C" mask="url(#mask-14)" points="48.0411618 29 52 25.0413168 50.9599568 24 47 27.9594297"></polygon>
                    <path d="M23,34.8234117 L27.2747839,34.8234117 L27.2747839,33.4127963 L23,33.4127963 L23,34.8234117 Z M30.725584,42 L32.1706824,42 L32.1706824,37.9180174 L30.725584,37.9180174 L30.725584,42 Z M27.990252,36.4012787 L24.0877322,40.2091693 L25.1142174,41.2092738 L29.0156336,37.4024589 L27.990252,36.4012787 Z M29.2492183,35.6731151 C29.9172338,36.324913 30.725584,36.644717 31.6426338,36.644717 C32.5594997,36.644717 33.3527681,36.324913 34.004966,35.6731151 C34.6744528,35.0200624 35,34.2323837 35,33.3220896 C35,32.4116162 34.6744528,31.6233997 34.004966,30.9861221 C33.3527681,30.3328902 32.5594997,30 31.6426338,30 C30.725584,30 29.9172338,30.3328902 29.2492183,30.9861221 C28.5962847,31.6233997 28.2694501,32.4116162 28.2694501,33.3220896 C28.2694501,34.2323837 28.5962847,35.0200624 29.2492183,35.6731151 Z M30.3840353,32.0927085 C30.725584,31.7427884 31.1451168,31.5778671 31.6426338,31.5778671 C32.1241493,31.5778671 32.54405,31.7427884 32.8854148,32.0927085 C33.2280669,32.4420908 33.4149347,32.8518845 33.4149347,33.3220896 C33.4149347,33.8220523 33.2280669,34.2323837 32.8854148,34.5656324 C32.54405,34.9139391 32.1241493,35.0815494 31.6426338,35.0661329 C31.1451168,35.0815494 30.725584,34.9139391 30.3687695,34.5656324 C30.041751,34.2323837 29.8710686,33.8220523 29.8545154,33.3220896 C29.8710686,32.8518845 30.041751,32.4420908 30.3840353,32.0927085 Z" id="Fill-15" fill="#DA272C" mask="url(#mask-14)"></path>
                    <polygon id="Fill-16" fill="#DA272C" mask="url(#mask-14)" points="30 49 32 49 32 44 30 44"></polygon>
                    <polygon id="Fill-17" fill="#DA272C" mask="url(#mask-14)" points="30 55 32 55 32 50 30 50"></polygon>
                    <polygon id="Fill-18" fill="#DA272C" mask="url(#mask-14)" points="27.9594297 48 24 51.9598091 25.0413168 53 29 49.041123"></polygon>
                    <polygon id="Fill-19" fill="#DA272C" mask="url(#mask-14)" points="32 49.0411618 35.9584966 53 37 51.9597703 33.0405703 48"></polygon>
                    <polygon id="Fill-20" fill="#DA272C" mask="url(#mask-14)" points="20 44.7173331 21.2827261 46 25 42.2826669 23.7175047 41"></polygon>
                    <polygon id="Fill-21" fill="#DA272C" mask="url(#mask-14)" points="15 47.7172739 16.2827261 49 20 45.2827261 18.7175047 44"></polygon>
                    <polygon id="Fill-22" fill="#DA272C" mask="url(#mask-14)" points="18 42 12 42.0042989 12.0001998 44 17.9986011 43.9957011"></polygon>
                    <polygon id="Fill-23" fill="#DA272C" mask="url(#mask-14)" points="20.0042984 47.0013989 20 52.9998002 21.9954488 53 22 47"></polygon>
                    <polygon id="Fill-24" fill="#DA272C" mask="url(#mask-14)" points="42.7173331 46 44 44.7172739 40.2828978 41 39 42.2827261"></polygon>
                    <polygon id="Fill-25" fill="#DA272C" mask="url(#mask-14)" points="47.7173331 49 49 47.7172739 45.2828978 44 44 45.2824953"></polygon>
                    <polygon id="Fill-26" fill="#DA272C" mask="url(#mask-14)" points="41 47 41.0042989 53 43 52.9998002 42.9957011 47.0013989"></polygon>
                    <polygon id="Fill-27" fill="#DA272C" mask="url(#mask-14)" points="45.0013989 43.9957011 50.9998002 44 51 42.0042989 45 42"></polygon>
                    <polygon id="Fill-28" fill="#DA272C" mask="url(#mask-14)" points="19.2826669 21 18 22.2827261 21.7171022 26 23 24.7172739"></polygon>
                    <polygon id="Fill-29" fill="#DA272C" mask="url(#mask-14)" points="16.2826669 17 15 18.2827261 18.7171022 22 20 20.7175047"></polygon>
                    <polygon id="Fill-30" fill="#DA272C" mask="url(#mask-14)" points="22 20 21.9957011 14 20 14.0001998 20.0042989 19.9986011"></polygon>
                    <polygon id="Fill-31" fill="#DA272C" mask="url(#mask-14)" points="16.9986011 21.0042989 11.0001998 21 11 22.9957011 17 23"></polygon>
                    <polygon id="Fill-32" fill="#DA272C" mask="url(#mask-14)" points="17 35 22 35 22 33 17 33"></polygon>
                    <polygon id="Fill-33" fill="#DA272C" mask="url(#mask-14)" points="11 35 16 35 16 33 11 33"></polygon>
                    <polygon id="Fill-34" fill="#DA272C" mask="url(#mask-14)" points="16 30.9594297 12.0401909 27 11 28.0413168 14.958877 32"></polygon>
                    <polygon id="Fill-35" fill="#DA272C" mask="url(#mask-14)" points="14.9588382 35 11 38.9586832 12.0400432 40 16 36.0405703"></polygon>
                    <polygon id="Fill-36" fill="#DA272C" mask="url(#mask-14)" points="28 27.9594685 24.0401909 24 23 25.0414645 26.958877 29"></polygon>
                    <polygon id="Fill-37" fill="#DA272C" mask="url(#mask-14)" points="33 36.0405315 36.9598091 40 38 38.9585355 34.041123 35"></polygon>
                </g>
            </g>
        </g>
    </g>
</svg>