<?xml version="1.0" encoding="UTF-8"?>
<svg width="171px" height="53px" viewBox="0 0 171 53" version="1.1" xmlns="http://www.w3.org/2000/svg" xmlns:xlink="http://www.w3.org/1999/xlink">
    <!-- Generator: sketchtool 51.2 (57519) - http://www.bohemiancoding.com/sketch -->
    <title>308AB219-0211-41F9-8E3F-76756B80B2F0</title>
    <desc>Created with sketchtool.</desc>
    <defs>
        <polygon id="path-1" points="0.0286 0.4703 126.116 0.4703 126.116 19.1723 0.0286 19.1723"></polygon>
        <polygon id="path-3" points="0 0.1188 32.4198 0.1188 32.4198 15.76605 0 15.76605"></polygon>
        <polygon id="path-5" points="0.6278 0.65 25.0677874 0.65 25.0677874 12.648 0.6278 12.648"></polygon>
        <polygon id="path-7" points="0 0.562805908 7.6275 0.562805908 7.6275 5.57670204 0 5.57670204"></polygon>
    </defs>
    <g id="FLUJO-" stroke="none" stroke-width="1" fill="none" fill-rule="evenodd">
        <g id="1.-Home_Campaña-navidad" transform="translate(-635.000000, -2661.000000)">
            <g id="Group-31" transform="translate(635.000000, 2660.000000)">
                <g id="Group-3" transform="translate(44.000000, 9.350000)">
                    <mask id="mask-2" fill="white">
                        <use xlink:href="#path-1"></use>
                    </mask>
                    <g id="Clip-2"></g>
                    <path d="M39.2266,19.1723 L44.9326,19.1723 L36.0456,1.6613 C35.5796,0.7993 35.1186,0.4703 34.0546,0.4703 L29.1476,0.4703 L19.7956,19.1723 L25.4976,19.1723 L27.1566,15.7243 L37.6346,15.7243 L39.2266,19.1723 Z M85.9906,19.1723 L91.6276,19.1723 L82.7366,1.6613 C82.2746,0.7993 81.8116,0.4703 80.7506,0.4703 L75.8426,0.4703 L66.4896,19.1723 L72.1946,19.1723 L73.8516,15.7243 L84.3326,15.7243 L85.9906,19.1723 Z M106.0846,14.5973 C106.2876,15.2593 107.0816,15.7243 107.9436,15.7243 L113.3176,15.7243 L117.2966,4.7173 L121.0766,19.1723 L126.1166,19.1723 L121.9386,2.5943 C121.5446,0.9363 120.6136,0.4703 119.0876,0.4703 L113.8466,0.4703 L110.0696,11.4153 L107.0816,2.1243 C106.6856,0.9363 105.9546,0.4703 104.7596,0.4703 L98.8586,0.4703 L94.0156,19.1723 L99.1246,19.1723 L102.8336,4.7173 L106.0846,14.5973 Z M82.4786,11.9423 L75.5106,11.9423 L79.0286,4.4493 L82.4786,11.9423 Z M35.7786,11.9423 L28.8156,11.9423 L32.3326,4.4493 L35.7786,11.9423 Z M15.8166,19.1723 L17.9376,14.8603 L5.3996,14.8603 L5.3996,0.4703 L0.0286,0.4703 L0.0286,19.1723 L15.8166,19.1723 Z M53.0926,19.1723 L58.2616,19.1723 L58.2616,4.7803 L67.2866,4.1843 L67.2866,0.4703 L44.0706,0.4703 L44.0706,4.1843 L53.0926,4.7803 L53.0926,19.1723 Z" id="Fill-1" fill="#273489" mask="url(#mask-2)"></path>
                </g>
                <path d="M7.6279,47.5154 L12.2049,45.8494 C13.1579,45.5024 13.1579,46.2694 13.1579,47.4144 L13.1579,49.5204 C13.1579,51.2234 12.5869,51.4324 11.8239,51.7094 L7.6279,53.2364 L7.6279,47.5154 Z" id="Fill-4" fill="#273489"></path>
                <path d="M7.6279,38.1707 L19.2619,33.9367 C20.2149,33.5897 20.2149,34.3567 20.2149,35.5017 L20.2149,37.5987 C20.2149,39.3107 19.6429,39.5197 18.8799,39.7967 L7.6279,43.8917 L7.6279,38.1707 Z" id="Fill-6" fill="#273489"></path>
                <g id="Group-10" transform="translate(0.000000, 9.350000)">
                    <mask id="mask-4" fill="white">
                        <use xlink:href="#path-3"></use>
                    </mask>
                    <g id="Clip-9"></g>
                    <path d="M6.6748,15.5058 L0.7628,13.3538 C-0.0002,13.0768 -0.0002,12.0388 -0.0002,11.6578 C-0.0002,11.6578 -0.0002,12.9078 1.1448,12.4918 L30.1318,1.9418 C32.4198,1.1088 32.4198,0.4658 31.4668,0.1188 C32.4198,0.4658 32.4198,0.4658 32.4198,3.2668 C32.4198,5.9368 32.4198,6.8298 31.2768,7.2458 L8.5818,15.5058 C7.6278,15.8528 7.6278,15.8528 6.6748,15.5058" id="Fill-8" fill="#273489" mask="url(#mask-4)"></path>
                </g>
                <path d="M2.4795,13.9842 L12.6055,17.6702 L20.4645,14.8092 L1.5255,7.9162 C0.1905,7.4302 0.0005,7.3602 0.0005,8.3142 L0.0005,10.7932 C0.0005,13.0822 1.7155,13.7072 2.4795,13.9842" id="Fill-11" fill="#E53357"></path>
                <path d="M31.4668,18.8138 L28.3238,17.6698 L20.4648,20.5308 L25.4438,22.3418 L30.1318,20.6358 C32.4198,19.8028 32.4198,19.1608 31.4668,18.8138" id="Fill-13" fill="#E53357"></path>
                <path d="M31.4668,18.8138 C32.4198,19.1608 32.4198,19.8028 30.1318,20.6358 L7.6278,28.8268 L7.6278,34.5478 L31.2768,25.9398 C32.4198,25.5238 32.4198,24.6308 32.4198,21.9608 C32.4198,19.1608 32.4198,19.1608 31.4668,18.8138" id="Fill-15" fill="#273489"></path>
                <g id="Group-19" transform="translate(7.000000, 0.350000)">
                    <mask id="mask-6" fill="white">
                        <use xlink:href="#path-5"></use>
                    </mask>
                    <g id="Clip-18"></g>
                    <path d="M24.4668,9.119 C24.4668,9.119 3.4878,1.483 2.1538,0.998 C0.8198,0.512 0.6278,0.442 0.6278,1.396 L0.6278,3.875 C0.6278,6.163 2.3438,6.788 3.1068,7.066 L18.4428,12.648 L23.1318,10.941 C25.4198,10.108 25.4198,9.466 24.4668,9.119" id="Fill-17" fill="#E53357" mask="url(#mask-6)"></path>
                </g>
                <g id="Group-22" transform="translate(0.000000, 16.350000)">
                    <mask id="mask-8" fill="white">
                        <use xlink:href="#path-7"></use>
                    </mask>
                    <g id="Clip-21"></g>
                    <path d="M1.1445,5.4916 L7.6275,3.1316 L1.5255,0.9106 C0.1905,0.4246 -0.0005,0.3556 -0.0005,1.3086 L-0.0005,4.6576 C-0.0005,4.6576 -0.0005,5.9086 1.1445,5.4916" id="Fill-20" fill="#E53357" mask="url(#mask-8)"></path>
                </g>
                <path d="M56.7715,42.6688 C56.7715,40.9358 55.5425,39.3558 52.0555,39.3558 L45.8485,39.3558 L45.8485,45.6078 C47.0985,46.1558 48.8535,46.5728 50.5855,46.5728 C55.1485,46.5728 56.7715,44.7958 56.7715,42.6688 M45.8485,47.2958 L45.8485,53.0648 L44.0285,53.0648 L44.0285,37.7108 L52.2315,37.7108 C56.3335,37.7108 58.5705,39.7068 58.5705,42.6028 C58.5705,46.0238 55.8295,48.2178 50.6295,48.2178 C48.8095,48.2178 46.9665,47.8448 45.8485,47.2958" id="Fill-23" fill="#273489"></path>
                <path d="M68.4697,39.2684 L64.3897,47.2304 L72.5717,47.2304 L68.4697,39.2684 Z M73.4267,48.8754 L63.5557,48.8754 L61.4067,53.0644 L59.4537,53.0644 L67.4387,37.7114 L68.6227,37.7114 C69.2377,37.7114 69.5877,37.9084 69.8517,38.4134 L77.5287,53.0644 L75.5757,53.0644 L73.4267,48.8754 Z" id="Fill-25" fill="#273489"></path>
                <path d="M93.3291,38.347 L92.7361,39.993 C91.9461,39.663 90.1921,39.094 87.5591,39.094 C84.4011,39.094 82.6461,40.278 82.6461,41.747 C82.6461,43.129 83.7661,43.853 86.6391,44.336 L87.9551,44.554 C91.7491,45.19 93.9651,46.397 93.9651,48.854 C93.9651,51.552 91.5081,53.35 86.9241,53.35 C83.3701,53.35 81.0021,52.386 80.2771,51.946 L80.8481,50.324 C81.5271,50.805 83.9841,51.683 87.1421,51.705 C90.5651,51.705 92.1431,50.564 92.1431,48.963 C92.1431,47.493 90.6961,46.704 87.5591,46.178 L86.2441,45.958 C82.9531,45.41 80.8261,44.291 80.8261,41.835 C80.8261,39.246 83.5021,37.448 87.7571,37.448 C90.3901,37.448 92.3631,37.996 93.3291,38.347" id="Fill-27" fill="#273489"></path>
                <path d="M110.75,38.347 L110.158,39.993 C109.368,39.663 107.613,39.094 104.981,39.094 C101.823,39.094 100.068,40.278 100.068,41.747 C100.068,43.129 101.187,43.853 104.061,44.336 L105.376,44.554 C109.171,45.19 111.387,46.397 111.387,48.854 C111.387,51.552 108.93,53.35 104.346,53.35 C100.792,53.35 98.424,52.386 97.699,51.946 L98.27,50.324 C98.949,50.805 101.406,51.683 104.564,51.705 C107.986,51.705 109.565,50.564 109.565,48.963 C109.565,47.493 108.118,46.704 104.981,46.178 L103.665,45.958 C100.375,45.41 98.248,44.291 98.248,41.835 C98.248,39.246 100.924,37.448 105.179,37.448 C107.812,37.448 109.785,37.996 110.75,38.347" id="Fill-29" fill="#273489"></path>
            </g>
        </g>
    </g>
</svg>