<?xml version="1.0" encoding="UTF-8"?>
<svg width="1440px" height="211px" viewBox="0 0 1440 211" version="1.1" xmlns="http://www.w3.org/2000/svg" xmlns:xlink="http://www.w3.org/1999/xlink">
    <!-- Generator: sketchtool 51.2 (57519) - http://www.bohemiancoding.com/sketch -->
    <title>0BAFD024-CC2A-4C52-A28D-09B4288A3861</title>
    <desc>Created with sketchtool.</desc>
    <defs>
        <polygon id="path-1" points="0.000938461184 0.992838616 1529.80394 0.992838616 1529.80394 177.208784 0.000938461184 177.208784"></polygon>
        <polygon id="path-3" points="0.0405267437 0.203092063 6.35590238 0.203092063 6.35590238 14.5 0.0405267437 14.5"></polygon>
        <polygon id="path-5" points="0 0.15158254 57.9483844 0.15158254 57.9483844 24.2530714 0 24.2530714"></polygon>
        <polygon id="path-7" points="0.0289975838 0.152235676 4.54775774 0.152235676 4.54775774 10.8690476 0.0289975838 10.8690476"></polygon>
        <polygon id="path-9" points="0 0.111558776 41.9626232 0.111558776 41.9626232 17.8493047 0 17.8493047"></polygon>
        <polygon id="path-11" points="0.0405267437 0.203092063 6.35590238 0.203092063 6.35590238 14.5 0.0405267437 14.5"></polygon>
        <polygon id="path-13" points="0 0.15158254 57.9483844 0.15158254 57.9483844 24.2530714 0 24.2530714"></polygon>
    </defs>
    <g id="FLUJO-" stroke="none" stroke-width="1" fill="none" fill-rule="evenodd">
        <g id="1.-Home_Campaña-navidad" transform="translate(0.000000, -1639.000000)">
            <g id="Group-10" transform="translate(-65.000000, 590.000000)">
                <g id="Group-44" transform="translate(0.000000, 1045.000000)">
                    <g id="Group-17" transform="translate(0.000000, 35.000000)">
                        <g id="Group-3" transform="translate(19.000000, 2.568243)">
                            <mask id="mask-2" fill="white">
                                <use xlink:href="#path-1"></use>
                            </mask>
                            <g id="Clip-2"></g>
                            <path d="M1381.66382,24.6768512 C1349.98405,31.832096 1317.70635,38.4216809 1284.48617,44.2343637 C1247.22926,43.6018105 1210.19758,44.2097188 1174.60979,46.1813132 C1143.02923,47.9311032 1112.2343,51.0011574 1082.07886,54.6368714 C1052.17546,58.2444197 1022.84319,62.3800737 993.167706,66.1976908 C982.427688,67.580154 971.386022,69.0236428 960.180796,70.0587298 C948.336075,71.1536689 937.095991,71.5292107 924.906721,71.4271103 C916.192439,71.3719526 907.480837,71.2721993 898.77594,71.1313711 C881.350056,70.8473676 863.949645,70.3908496 846.600179,69.7700321 C826.621681,69.0553291 806.710216,68.1223425 786.899301,66.9804607 C724.219478,63.3658709 661.561106,58.3418259 600.408294,52.3683642 C472.931749,39.9191538 343.26993,30.0834795 209.957497,34.0794789 C164.022503,35.4549007 117.875685,38.4521937 73.6419876,42.989208 C48.5837333,45.5581485 24.2293249,48.7971965 0.000938461184,52.1758991 L0.000938461184,54.2061719 C0.92197108,65.2846548 0.562674513,76.4218161 0.258344957,87.5425475 C0.172542792,87.5542832 0.0867406266,87.5660188 0.000938461184,87.5777545 L0.000938461184,146.085992 L45.8541519,177.209018 L1529.80394,177.209018 L1529.80394,102.10066 L1529.80394,67.0004114 L1529.80394,0.991899762 C1474.96697,3.86010021 1427.14701,14.4010889 1381.66382,24.6768512" id="Fill-1" fill="#FFFFFF" mask="url(#mask-2)"></path>
                        </g>
                        <g id="Group-6" transform="translate(19.000000, 0.000000)" fill="#F4F4F6">
                            <path d="M1381.66382,24.5185873 C1298.0295,43.2871908 1210.25791,58.1647139 1111.82406,65.1481363 C1004.79792,72.7425644 894.536776,72.7157455 786.899301,66.5508842 C724.219478,62.9594765 661.561106,57.9676529 600.408294,52.0325018 C472.931749,39.6631339 343.26993,29.8905403 209.957497,33.8609115 C164.022503,35.2275121 117.875685,38.2055821 73.6419876,42.7134984 C48.5837333,45.2659632 24.2293249,48.4842376 0.000938461184,51.841271 L0.000938461184,53.8585228 C1.32416873,69.6735433 0.00361977885,85.6109981 0.000938461184,101.445841 L194.419261,101.445841 L649.105045,101.445841 L1114.31366,101.445841 L1465.81698,101.445841 L1490.13787,101.445841 L1529.80394,101.445841 L1529.80394,0.985538253 C1474.96697,3.83534361 1427.14701,14.3087281 1381.66382,24.5185873" id="Fill-4"></path>
                        </g>
                        <path d="M1187.76011,40.7444534 C1107.23513,45.2615366 1039.4427,57.7307291 963.146703,66.2719717 C890.937565,74.3547356 812.358136,77.193502 736.33031,75.6885995 C699.016311,74.9509953 660.858929,73.398582 624.248866,70.8912029 C574.014615,67.4478624 526.242131,60.6668926 475.513113,57.9457152 C319.451056,49.5766991 156.856468,63.1980271 13,82.6406079 L13,141.857989 L58.8604589,173.356419 L1543,173.356419 L1543,61.8154647 C1437.87881,42.4845341 1304.99437,34.1701553 1187.76011,40.7444534" id="Fill-7" fill="#FFFFFF"></path>
                        <path d="M437.027006,105.658115 C544.074968,113.300317 654.348971,113.273329 761.993603,107.069687 C824.680156,103.455687 887.349279,98.4324616 948.508625,92.4599745 C1076.00963,80.0127951 1205.68681,70.1787254 1339.0097,74.1740729 C1384.95731,75.5492703 1431.11007,78.5460743 1475.34276,83.0823484 C1500.41095,85.6508698 1524.76849,88.8893894 1549,92.2675407 L1549,94.2974823 C1547.67258,110.21199 1552.50026,104.832809 1552.50562,120.767263 L1351.84182,116.121272 L905.391977,125.746619 L435.285974,122.362345 L80.6377186,122.231532 L56.9731213,120.151174 L19,142.184156 L19,41.0918919 C73.8386664,43.9596244 121.664784,54.4988934 167.159196,64.7729793 C250.797582,83.6596497 338.587182,98.6307622 437.027006,105.658115 Z" id="Fill-9" fill="#EDECEC"></path>
                        <g id="Group-13" transform="translate(5.000000, 33.387162)" fill="#E1E1E1">
                            <path d="M1115.82406,65.1481363 C1008.79792,72.7425644 898.536776,72.7157455 790.899301,66.5508842 C728.219478,62.9594765 665.561106,57.9676529 604.408294,52.0325018 C476.931749,39.6631339 347.26993,29.8905403 213.957497,33.8609115 C168.022503,35.2275121 121.875685,38.2055821 77.6419876,42.7134984 C52.5837333,45.2659632 28.2293249,48.4842376 4.00093846,51.841271 C4.00093846,51.841271 4.72678403,66.0679672 4.72410271,81.9028104 C-17.3886521,88.6432259 47.3359345,92.0134337 198.897863,92.0134337 C350.459791,92.0134337 501.76749,91.7391471 652.82096,91.1905741 L1125.36178,88.8443694 L1470.93748,86.0128885 L1508.77637,91.1188376 L1533.80394,101.445841 L1533.80394,0.985538253 C1478.96697,3.83534361 1431.14701,14.3087281 1385.66382,24.5185873 C1302.0295,43.2871908 1214.25791,58.1647139 1115.82406,65.1481363 Z" id="Fill-11"></path>
                        </g>
                        <g id="Group-16" transform="translate(0.000000, 28.966554)" fill="#FFFFFF">
                            <path d="M649.105447,101.318633 L1114.31406,101.318633 L1465.81604,101.318633 L1490.13827,101.318633 L1529.803,101.318633 L1529.803,0.00479085643 C1529.803,-0.0481274399 1428.15157,-0.571430593 1208.07304,58.241964 C1160.08818,71.0646551 1103.70811,81.4095941 1043.64659,85.7077357 C936.619119,93.3667771 826.360655,93.33973 718.723179,87.1224182 C656.043357,83.5004548 593.383644,78.4649849 532.230832,72.4805136 C404.754287,60.0059072 275.092468,50.1501685 141.780034,54.1543196 C95.8450407,55.5313712 49.6995636,58.5359545 5.46586607,63.0810482 C3.63318544,63.2703781 1.82731799,63.4855791 0.00268131767,63.6807889 L0.00268131767,65.7822332 L0.00268131767,67.7284505 L0.00268131767,74.9394504 L0.00268131767,75.882572 C0.00268131767,84.208384 0.00268131767,95.3294579 0,101.318633 L194.419663,101.318633 L649.105447,101.318633 Z" id="Fill-14"></path>
                        </g>
                    </g>
                    <text id="*" transform="translate(971.527552, 58.547256) rotate(-7.000000) translate(-971.527552, -58.547256) " font-family="XmastfbChristmas, Xmas tfb Christmas" font-size="90" font-weight="normal" fill="#FFFFFF">
                        <tspan x="874.527552" y="87.047256">*</tspan>
                    </text>
                    <g id="Group-21-Copy" transform="translate(340.000000, 42.000000) rotate(-12.000000) translate(-340.000000, -42.000000) translate(311.000000, 6.000000)">
                        <path d="M36.8878389,8.74257937 C43.9049183,6.44214286 41.3752437,0.919944444 41.3752437,0.919944444 L39.7636722,0.34431746 L37.8089341,0 C37.8089341,0 40.4541484,3.91131746 36.772069,6.67207143 C36.0995452,7.17657937 33.1703151,7.89352381 31.58245,8.79896825 C32.9684659,8.76605556 35.1432357,9.31475397 36.8878389,8.74257937" id="Fill-1" fill="#FFFFFF"></path>
                        <g id="Group-5" transform="translate(29.920635, 56.538722)">
                            <mask id="mask-4" fill="white">
                                <use xlink:href="#path-3"></use>
                            </mask>
                            <g id="Clip-4"></g>
                            <path d="M0.878354762,13.129727 C1.45329127,15.4301635 6.35590238,14.1387429 6.35590238,14.1387429 C6.35590238,14.1387429 3.70033095,5.78996508 2.94080714,3.51093333 C2.60316429,2.49754444 2.76289444,1.29841746 3.26302937,0.203092063 C-1.70609762,2.27912381 0.43645,11.3627984 0.878354762,13.129727" id="Fill-3" fill="#FFFFFF" mask="url(#mask-4)"></path>
                        </g>
                        <g id="Group-8" transform="translate(0.000000, 34.903802)">
                            <mask id="mask-6" fill="white">
                                <use xlink:href="#path-5"></use>
                            </mask>
                            <g id="Clip-7"></g>
                            <path d="M56.9040071,17.7835825 C56.0547214,15.4559873 55.5237452,15.8224 54.6132373,16.0042254 C54.274904,16.0468048 53.9674119,16.0603841 53.6859278,16.0541698 C53.2279119,16.0219476 52.6486024,15.9280429 51.9542135,15.7839635 C51.8566262,15.760027 51.7629516,15.7377016 51.6729595,15.7183683 C50.9056103,15.5533444 42.2417452,13.3049238 42.2417452,13.3049238 L42.2387532,13.3164317 C39.5194278,12.6319397 36.4741976,11.917527 33.2183722,11.2988603 C16.1919198,8.06305873 18.9855865,3.44975714 6.95035635,4.39133651 C1.76557063,4.79664603 0.722951587,2.56180476 0.775427778,1.87938413 C0.755403968,1.32147937 1.24886429,0.718233333 2.13681667,0.15158254 C-1.25388175,1.49225714 0.0324753968,7.39283651 1.61320556,8.57746349 C4.96155476,11.089646 12.0391659,8.00897143 16.9864278,10.4214952 C27.8381817,15.7112333 38.8496659,17.1400587 45.4232294,17.5718365 C47.3763563,17.7253524 49.5115389,17.8530905 50.5767135,17.7835825 C48.9662929,18.0142016 41.3733563,18.934146 38.0376659,18.5891381 C35.9254992,18.3704873 34.0464833,19.9496063 33.1836183,21.8380587 C34.6851738,21.2111063 36.8348563,21.2223841 39.8780151,22.2698365 C47.4122611,24.8641857 50.9343802,24.6443841 56.7997452,23.1485825 C58.4723087,22.7223286 58.1514675,21.2012095 56.9040071,17.7835825" id="Fill-6" fill="#FFFFFF" mask="url(#mask-6)"></path>
                        </g>
                        <path d="M25.9591198,37.0419992 C26.5584532,37.1131183 27.2597468,37.1810151 28.0358421,37.2445389 C27.3520405,36.8417611 26.6551198,36.4702849 25.8930643,36.1554278 C16.82435,30.905277 5.91022302,32.6468881 2.13677063,35.055269 C2.35127857,34.9705706 2.58304841,34.9026738 2.83599286,34.8566421 C5.36727857,34.3965548 19.1738103,36.2364437 25.9591198,37.0419992" id="Fill-9" fill="#FFFFFF"></path>
                        <path d="M21.0129627,26.229027 C15.8360024,26.5740349 12.037923,21.6276937 17.1009548,23.4673524 C18.5274786,23.9859 20.7218119,24.9159714 23.3124786,26.0124476 C22.3218754,26.1208524 21.5328913,26.194273 21.0129627,26.229027 M48.2780262,24.9629238 C50.6903198,23.784281 50.9803198,22.0990587 51.5568675,19.7212889 L51.5030103,19.7597254 C51.5791929,19.3465905 50.6999865,18.7799397 43.9158278,19.6487889 C37.8679468,20.4230429 25.4992167,17.6008365 25.4992167,17.6008365 C25.9602246,15.5298683 40.0249944,20.3691857 42.6400579,17.1402889 C43.9692246,15.4999476 47.0114627,13.9199079 44.0200897,11.7334 C41.029177,9.54689206 29.8703913,10.8134556 30.6752563,9.54804286 C30.8423516,9.2856619 31.1671056,9.03593968 31.5825421,8.79910635 C30.8214071,8.81728889 30.2975659,9.0101619 30.2158595,9.66243175 C29.9847802,11.5034714 29.0655262,13.1138921 30.4460183,13.8050587 C31.8269706,14.4955349 39.6493754,14.2644556 41.7196532,15.7597968 C43.789931,17.2551381 37.5137325,16.067519 34.3573357,15.4147889 C27.6850341,14.034527 26.1903833,14.6092333 25.3841373,17.2551381 C24.5788119,19.9010429 24.7143754,19.0052651 24.0238992,21.3061619 C24.9512087,23.1467413 25.6815024,20.5853048 36.7813675,23.3244238 C37.4115421,23.479781 38.0403357,23.581281 38.664296,23.6425032 C33.9732008,24.5794794 29.1025817,25.3026381 25.5574468,25.7473048 C24.4529151,25.0393365 23.2747325,24.2899397 21.816677,23.4673524 C17.330423,20.936527 13.6494944,21.3966143 13.3047167,24.7329952 C12.9597087,28.0689159 11.396931,30.4577333 15.2610659,31.0595984 C21.6000976,32.0472095 27.9393595,31.3917175 33.441304,30.1530032 C33.9089865,30.3320667 34.3759786,30.5079079 34.8404389,30.6800667 C34.4556135,30.4526698 34.0845976,30.2524317 33.7296929,30.0871778 C40.2763278,28.5812492 45.6045024,26.2683841 48.2780262,24.9629238" id="Fill-11" fill="#FFFFFF"></path>
                        <path d="M49.887319,42.4493714 C57.4749619,42.0797365 56.4438508,40.8389508 56.9039381,37.2726413 C56.9969222,36.5538556 56.7163587,35.4718794 55.8875571,35.1112206 C55.4350651,34.8773794 54.8407952,34.7204111 54.1199381,34.6025698 C52.8008984,34.3747127 51.0148667,34.2633159 49.2792397,34.1397206 C47.9063429,34.0202683 46.3767079,33.8607683 44.7098984,33.5912524 C42.0140492,33.1551016 38.4981444,32.0353794 34.8404619,30.6802048 C37.3791127,32.1810698 40.5055889,34.8534429 43.441954,36.377554 C43.7913349,36.5869984 45.2169381,37.3851889 46.834954,37.5067127 C46.8464619,37.5078635 46.8584302,37.5094746 46.8701683,37.5103952 C46.9115968,37.5133873 46.9541762,37.5131571 46.9958349,37.5149984 C47.2352,37.5276571 47.4711127,37.5267365 47.7012714,37.5025698 C46.0595492,38.0155937 34.466454,37.7718556 28.0360492,37.2445619 C32.1001921,39.6377524 35.7088508,43.1382365 49.887319,42.4493714" id="Fill-13" fill="#FFFFFF"></path>
                    </g>
                    <g id="Group-21-Copy-2" transform="translate(1159.000000, 56.000000) rotate(-12.000000) translate(-1159.000000, -56.000000) translate(1138.000000, 30.000000)">
                        <path d="M26.6278688,6.79641797 C31.4262058,5.00807527 29.6963933,0.715158158 29.6963933,0.715158158 L28.5943875,0.267669904 L27.2577214,0 C27.2577214,0 29.0665408,3.04062991 26.5487045,5.18682008 C26.0888271,5.5790209 24.0857953,6.13636833 23,6.84025429 C23.9477691,6.81466819 25.4348947,7.24122237 26.6278688,6.79641797" id="Fill-1" fill="#FFFFFF"></path>
                        <g id="Group-5" transform="translate(22.000000, 41.000000)">
                            <mask id="mask-8" fill="white">
                                <use xlink:href="#path-7"></use>
                            </mask>
                            <g id="Clip-4"></g>
                            <path d="M0.628477976,9.84190537 C1.03985496,11.5662884 4.54775774,10.5982531 4.54775774,10.5982531 C4.54775774,10.5982531 2.6476506,4.34009698 2.10419821,2.63175873 C1.86260893,1.87213307 1.97689861,0.973280083 2.33475377,0.152235676 C-1.22074226,1.70840726 0.3122875,8.51743428 0.628477976,9.84190537" id="Fill-3" fill="#FFFFFF" mask="url(#mask-8)"></path>
                        </g>
                        <g id="Group-8" transform="translate(0.000000, 25.000000)">
                            <mask id="mask-10" fill="white">
                                <use xlink:href="#path-9"></use>
                            </mask>
                            <g id="Clip-7"></g>
                            <path d="M41.20635,13.0880159 C40.59135,11.3749976 40.20685,11.6446629 39.5475167,11.7784792 C39.3025167,11.8098159 39.07985,11.8198098 38.8760167,11.8152363 C38.54435,11.791522 38.12485,11.7224118 37.6220167,11.6163751 C37.55135,11.5987588 37.4835167,11.5823282 37.41835,11.5680996 C36.8626833,11.4466486 30.58885,9.79189959 30.58885,9.79189959 L30.5866833,9.80036898 C28.6175167,9.2966098 26.41235,8.7708302 24.0546833,8.31551592 C11.7251833,5.93409347 13.7481833,2.53888531 5.03301667,3.23185061 C1.27851667,3.53014245 0.523516667,1.88538735 0.561516667,1.38315265 C0.547016667,0.972556735 0.90435,0.528591429 1.54735,0.111558776 C-0.907983333,1.09824245 0.0235166667,5.44083633 1.16818333,6.3126751 C3.59285,8.16154245 8.71801667,5.89428735 12.3005167,7.6698098 C20.1586833,11.5628486 28.1325167,12.6144078 32.8926833,12.9321792 C34.3070167,13.0451608 35.8531833,13.139171 36.6245167,13.0880159 C35.45835,13.2577424 29.9600167,13.9347853 27.5445167,13.6808731 C26.0150167,13.5199547 24.65435,14.6821241 24.0295167,16.0719506 C25.11685,15.6105384 26.6735167,15.6188384 28.8771833,16.389722 C34.3330167,18.2990608 36.8835167,18.1372955 41.13085,17.0364445 C42.3420167,16.7227384 42.1096833,15.6032547 41.20635,13.0880159" id="Fill-6" fill="#FFFFFF" mask="url(#mask-10)"></path>
                        </g>
                        <path d="M19.4764812,26.8654555 C19.9161623,26.912699 20.4306433,26.957802 21,27 C20.4983515,26.7324399 19.9870787,26.4856731 19.4280217,26.2765176 C12.7750584,22.7889105 4.76826895,23.9458402 2,25.5456964 C2.15736668,25.4894324 2.32739698,25.4443294 2.51296133,25.4137511 C4.36995566,25.1081211 14.4986625,26.3303354 19.4764812,26.8654555" id="Fill-9" fill="#FFFFFF"></path>
                        <path d="M14.9897429,18.2639502 C11.2591712,18.5067029 8.5222355,15.0263839 12.1707091,16.320795 C13.1986771,16.6856528 14.7799366,17.3400648 16.6467981,18.1115617 C15.9329591,18.1878369 15.3644089,18.2394968 14.9897429,18.2639502 M34.6372327,17.3731012 C36.3755567,16.5437907 36.5845338,15.3580434 37,13.6850093 L36.96119,13.7120538 C37.0160879,13.421366 36.3825226,13.0226621 31.4937869,13.6339972 C27.1356207,14.1787738 18.2225844,12.1930276 18.2225844,12.1930276 C18.5547916,10.7358637 28.6900117,14.1408791 30.5744538,11.8689795 C31.5322652,10.7148111 33.7245338,9.6030718 31.5689191,8.06461245 C29.4136362,6.5261531 21.3724985,7.41732592 21.9524927,6.52696281 C22.0729033,6.34234769 22.3069244,6.16663944 22.6062923,6 C22.0578105,6.0127935 21.680325,6.14850181 21.6214466,6.60744853 C21.4549284,7.9028313 20.7925044,9.0359471 21.7873014,9.5222622 C22.7824301,10.0080915 28.4193367,9.84550061 29.9112005,10.8976449 C31.4030644,11.9497891 26.8803702,11.1141628 24.6058376,10.6548922 C19.7977073,9.68371946 18.7206464,10.0880914 18.139657,11.9497891 C17.5593311,13.8114869 17.6570196,13.1812044 17.1594552,14.8001494 C17.8276842,16.0952083 18.3539414,14.2929437 26.3526202,16.2202284 C26.8067306,16.32954 27.2598459,16.4009569 27.7094782,16.4440337 C24.329026,17.1033041 20.819207,17.6121292 18.2645457,17.9250033 C17.4686086,17.4268663 16.6195979,16.8995796 15.5689078,16.320795 C12.3360663,14.5400688 9.68355072,14.8637931 9.43510024,17.2113201 C9.18648392,19.5585232 8.06032991,21.2393306 10.8448659,21.6628117 C15.4128385,22.3577095 19.9809769,21.8964956 23.9457356,21.0249179 C24.2827525,21.1509096 24.6192719,21.2746342 24.9539668,21.3957676 C24.6766576,21.2357678 24.4092997,21.0948773 24.1535516,20.9786022 C28.8711252,19.9190086 32.7106635,18.2916424 34.6372327,17.3731012" id="Fill-11" fill="#FFFFFF"></path>
                        <path d="M35.8863719,30.9330889 C41.4027615,30.6525268 40.6531202,29.7107397 40.9876141,27.0038225 C41.0552157,26.4582464 40.8512396,25.6369996 40.248682,25.3632507 C39.9197099,25.1857594 39.4876622,25.0666166 38.9635826,24.9771722 C38.0046106,24.804223 36.7061248,24.71967 35.4442843,24.6258582 C34.446157,24.5351909 33.3340775,24.4141264 32.1222689,24.2095572 C30.162325,23.878508 27.606182,23.0286111 24.9469633,22 C26.7926204,23.1391938 29.06564,25.167591 31.2004444,26.3244291 C31.4544523,26.4834026 32.4908984,27.0892489 33.6672328,27.1814885 C33.6755994,27.182362 33.6843006,27.1835849 33.6928344,27.1842837 C33.7229539,27.1865547 33.7539101,27.18638 33.784197,27.1877776 C33.9582208,27.1973859 34.1297348,27.1966871 34.2970654,27.178344 C33.1034959,27.5677418 24.675051,27.3827385 20,26.9825096 C22.9547246,28.7990004 25.5783019,31.4559545 35.8863719,30.9330889" id="Fill-13" fill="#FFFFFF"></path>
                    </g>
                    <g id="Group-21-Copy-3" transform="translate(1228.851101, 44.242753) rotate(-12.000000) translate(-1228.851101, -44.242753) translate(1199.851101, 8.242753)">
                        <path d="M36.8878389,8.74257937 C43.9049183,6.44214286 41.3752437,0.919944444 41.3752437,0.919944444 L39.7636722,0.34431746 L37.8089341,0 C37.8089341,0 40.4541484,3.91131746 36.772069,6.67207143 C36.0995452,7.17657937 33.1703151,7.89352381 31.58245,8.79896825 C32.9684659,8.76605556 35.1432357,9.31475397 36.8878389,8.74257937" id="Fill-1" fill="#FFFFFF"></path>
                        <g id="Group-5" transform="translate(29.920635, 56.538722)">
                            <mask id="mask-12" fill="white">
                                <use xlink:href="#path-11"></use>
                            </mask>
                            <g id="Clip-4"></g>
                            <path d="M0.878354762,13.129727 C1.45329127,15.4301635 6.35590238,14.1387429 6.35590238,14.1387429 C6.35590238,14.1387429 3.70033095,5.78996508 2.94080714,3.51093333 C2.60316429,2.49754444 2.76289444,1.29841746 3.26302937,0.203092063 C-1.70609762,2.27912381 0.43645,11.3627984 0.878354762,13.129727" id="Fill-3" fill="#FFFFFF" mask="url(#mask-12)"></path>
                        </g>
                        <g id="Group-8" transform="translate(0.000000, 34.903802)">
                            <mask id="mask-14" fill="white">
                                <use xlink:href="#path-13"></use>
                            </mask>
                            <g id="Clip-7"></g>
                            <path d="M56.9040071,17.7835825 C56.0547214,15.4559873 55.5237452,15.8224 54.6132373,16.0042254 C54.274904,16.0468048 53.9674119,16.0603841 53.6859278,16.0541698 C53.2279119,16.0219476 52.6486024,15.9280429 51.9542135,15.7839635 C51.8566262,15.760027 51.7629516,15.7377016 51.6729595,15.7183683 C50.9056103,15.5533444 42.2417452,13.3049238 42.2417452,13.3049238 L42.2387532,13.3164317 C39.5194278,12.6319397 36.4741976,11.917527 33.2183722,11.2988603 C16.1919198,8.06305873 18.9855865,3.44975714 6.95035635,4.39133651 C1.76557063,4.79664603 0.722951587,2.56180476 0.775427778,1.87938413 C0.755403968,1.32147937 1.24886429,0.718233333 2.13681667,0.15158254 C-1.25388175,1.49225714 0.0324753968,7.39283651 1.61320556,8.57746349 C4.96155476,11.089646 12.0391659,8.00897143 16.9864278,10.4214952 C27.8381817,15.7112333 38.8496659,17.1400587 45.4232294,17.5718365 C47.3763563,17.7253524 49.5115389,17.8530905 50.5767135,17.7835825 C48.9662929,18.0142016 41.3733563,18.934146 38.0376659,18.5891381 C35.9254992,18.3704873 34.0464833,19.9496063 33.1836183,21.8380587 C34.6851738,21.2111063 36.8348563,21.2223841 39.8780151,22.2698365 C47.4122611,24.8641857 50.9343802,24.6443841 56.7997452,23.1485825 C58.4723087,22.7223286 58.1514675,21.2012095 56.9040071,17.7835825" id="Fill-6" fill="#FFFFFF" mask="url(#mask-14)"></path>
                        </g>
                        <path d="M25.9591198,37.0419992 C26.5584532,37.1131183 27.2597468,37.1810151 28.0358421,37.2445389 C27.3520405,36.8417611 26.6551198,36.4702849 25.8930643,36.1554278 C16.82435,30.905277 5.91022302,32.6468881 2.13677063,35.055269 C2.35127857,34.9705706 2.58304841,34.9026738 2.83599286,34.8566421 C5.36727857,34.3965548 19.1738103,36.2364437 25.9591198,37.0419992" id="Fill-9" fill="#FFFFFF"></path>
                        <path d="M21.0129627,26.229027 C15.8360024,26.5740349 12.037923,21.6276937 17.1009548,23.4673524 C18.5274786,23.9859 20.7218119,24.9159714 23.3124786,26.0124476 C22.3218754,26.1208524 21.5328913,26.194273 21.0129627,26.229027 M48.2780262,24.9629238 C50.6903198,23.784281 50.9803198,22.0990587 51.5568675,19.7212889 L51.5030103,19.7597254 C51.5791929,19.3465905 50.6999865,18.7799397 43.9158278,19.6487889 C37.8679468,20.4230429 25.4992167,17.6008365 25.4992167,17.6008365 C25.9602246,15.5298683 40.0249944,20.3691857 42.6400579,17.1402889 C43.9692246,15.4999476 47.0114627,13.9199079 44.0200897,11.7334 C41.029177,9.54689206 29.8703913,10.8134556 30.6752563,9.54804286 C30.8423516,9.2856619 31.1671056,9.03593968 31.5825421,8.79910635 C30.8214071,8.81728889 30.2975659,9.0101619 30.2158595,9.66243175 C29.9847802,11.5034714 29.0655262,13.1138921 30.4460183,13.8050587 C31.8269706,14.4955349 39.6493754,14.2644556 41.7196532,15.7597968 C43.789931,17.2551381 37.5137325,16.067519 34.3573357,15.4147889 C27.6850341,14.034527 26.1903833,14.6092333 25.3841373,17.2551381 C24.5788119,19.9010429 24.7143754,19.0052651 24.0238992,21.3061619 C24.9512087,23.1467413 25.6815024,20.5853048 36.7813675,23.3244238 C37.4115421,23.479781 38.0403357,23.581281 38.664296,23.6425032 C33.9732008,24.5794794 29.1025817,25.3026381 25.5574468,25.7473048 C24.4529151,25.0393365 23.2747325,24.2899397 21.816677,23.4673524 C17.330423,20.936527 13.6494944,21.3966143 13.3047167,24.7329952 C12.9597087,28.0689159 11.396931,30.4577333 15.2610659,31.0595984 C21.6000976,32.0472095 27.9393595,31.3917175 33.441304,30.1530032 C33.9089865,30.3320667 34.3759786,30.5079079 34.8404389,30.6800667 C34.4556135,30.4526698 34.0845976,30.2524317 33.7296929,30.0871778 C40.2763278,28.5812492 45.6045024,26.2683841 48.2780262,24.9629238" id="Fill-11" fill="#FFFFFF"></path>
                        <path d="M49.887319,42.4493714 C57.4749619,42.0797365 56.4438508,40.8389508 56.9039381,37.2726413 C56.9969222,36.5538556 56.7163587,35.4718794 55.8875571,35.1112206 C55.4350651,34.8773794 54.8407952,34.7204111 54.1199381,34.6025698 C52.8008984,34.3747127 51.0148667,34.2633159 49.2792397,34.1397206 C47.9063429,34.0202683 46.3767079,33.8607683 44.7098984,33.5912524 C42.0140492,33.1551016 38.4981444,32.0353794 34.8404619,30.6802048 C37.3791127,32.1810698 40.5055889,34.8534429 43.441954,36.377554 C43.7913349,36.5869984 45.2169381,37.3851889 46.834954,37.5067127 C46.8464619,37.5078635 46.8584302,37.5094746 46.8701683,37.5103952 C46.9115968,37.5133873 46.9541762,37.5131571 46.9958349,37.5149984 C47.2352,37.5276571 47.4711127,37.5267365 47.7012714,37.5025698 C46.0595492,38.0155937 34.466454,37.7718556 28.0360492,37.2445619 C32.1001921,39.6377524 35.7088508,43.1382365 49.887319,42.4493714" id="Fill-13" fill="#FFFFFF"></path>
                    </g>
                </g>
            </g>
        </g>
    </g>
</svg>