<?xml version="1.0" encoding="UTF-8"?>
<svg width="165px" height="198px" viewBox="0 0 165 198" version="1.1" xmlns="http://www.w3.org/2000/svg" xmlns:xlink="http://www.w3.org/1999/xlink">
    <!-- Generator: sketchtool 51.2 (57519) - http://www.bohemiancoding.com/sketch -->
    <title>381D58CA-7060-477E-B574-F9D36B126A6E</title>
    <desc>Created with sketchtool.</desc>
    <defs>
        <polygon id="path-1" points="0.0008 0.0002 165 0.0002 165 165 0.0008 165"></polygon>
    </defs>
    <g id="FLUJO-" stroke="none" stroke-width="1" fill="none" fill-rule="evenodd">
        <g id="1.-Home_Campaña-navidad" transform="translate(-638.000000, -756.000000)">
            <g id="Group-20" transform="translate(638.000000, 752.000000)">
                <g id="Group-16" transform="translate(0.000000, 37.000000)">
                    <path d="M130.3569,54.774 C132.0679,60.283 132.9999,66.151 132.9999,72.245 C132.9999,103.861 108.1509,129.491 77.4999,129.491 C64.8989,129.491 55.8319,125.572 49.3609,118.628 L39.7309,118.628 C49.8879,131.635 65.7159,140 83.4999,140 C114.1509,140 138.9999,115.152 138.9999,84.5 C138.9999,73.561 135.8219,63.369 130.3569,54.774" id="Fill-1" fill="#DFDFDF"></path>
                    <g id="Group-5">
                        <mask id="mask-2" fill="white">
                            <use xlink:href="#path-1"></use>
                        </mask>
                        <g id="Clip-4"></g>
                        <path d="M74.7368,2.3692 L74.5478,0.3782 C77.1728,0.1272 79.8478,0.0002 82.5008,0.0002 L82.5278,0.0002 C83.9028,0.0002 85.2978,0.0352 86.6748,0.1042 L86.5748,2.1012 C85.2308,2.0342 83.8698,2.0002 82.5278,2.0002 L82.5008,2.0002 C79.9128,2.0002 77.3008,2.1242 74.7368,2.3692 Z M104.0848,4.9262 C100.2958,3.8732 96.3888,3.0952 92.4748,2.6122 L92.7208,0.6262 C96.7308,1.1222 100.7348,1.9202 104.6198,2.9992 L104.0848,4.9262 Z M57.3778,5.9972 L56.7548,4.0972 C60.5888,2.8392 64.5508,1.8572 68.5318,1.1782 L68.8678,3.1502 C64.9848,3.8122 61.1198,4.7702 57.3778,5.9972 Z M120.5338,11.5342 C117.0648,9.6702 113.4278,8.0512 109.7288,6.7212 L110.4048,4.8392 C114.1978,6.2022 117.9248,7.8622 121.4808,9.7722 L120.5338,11.5342 Z M41.2308,13.3682 L40.2038,11.6522 C43.6728,9.5772 47.3228,7.7442 51.0528,6.2052 L51.8168,8.0542 C48.1758,9.5562 44.6158,11.3442 41.2308,13.3682 Z M135.1368,21.5932 C132.1568,19.0142 128.9638,16.6362 125.6428,14.5252 L126.7168,12.8372 C130.1178,15.0012 133.3908,17.4382 136.4458,20.0802 L135.1368,21.5932 Z M27.0978,24.0982 L25.7208,22.6462 C28.6508,19.8672 31.8108,17.2812 35.1118,14.9602 L36.2618,16.5962 C33.0398,18.8612 29.9578,21.3852 27.0978,24.0982 Z M147.2058,34.5992 C144.8598,31.4372 142.2578,28.4192 139.4728,25.6292 L140.8888,24.2162 C143.7428,27.0762 146.4088,30.1682 148.8108,33.4082 L147.2058,34.5992 Z M15.6448,37.6432 L13.9848,36.5272 C16.2368,33.1792 18.7568,29.9682 21.4728,26.9832 L22.9518,28.3292 C20.3008,31.2432 17.8418,34.3762 15.6448,37.6432 Z M156.1408,49.9312 C154.5478,46.3352 152.6688,42.8212 150.5568,39.4862 L152.2468,38.4162 C154.4108,41.8332 156.3368,45.4352 157.9688,49.1212 L156.1408,49.9312 Z M7.4378,53.3542 L5.5748,52.6302 C7.0338,48.8712 8.7898,45.1882 10.7898,41.6832 L12.5258,42.6752 C10.5748,46.0942 8.8638,49.6872 7.4378,53.3542 Z M161.4808,66.8602 C160.7188,62.9892 159.6608,59.1462 158.3388,55.4372 L160.2208,54.7652 C161.5788,58.5662 162.6628,62.5062 163.4438,66.4732 L161.4808,66.8602 Z M2.8888,70.4962 L0.9108,70.2012 C1.5078,66.2072 2.4088,62.2252 3.5868,58.3662 L5.4988,58.9502 C4.3498,62.7152 3.4708,66.6002 2.8888,70.4962 Z M164.9748,84.5852 L162.9748,84.5362 C162.9908,83.8592 163.0008,83.1802 163.0008,82.5002 C163.0008,79.2312 162.8008,75.9372 162.4108,72.7092 L164.3968,72.4692 C164.7978,75.7762 165.0008,79.1512 165.0008,82.5002 C165.0008,83.1972 164.9908,83.8912 164.9748,84.5852 Z M0.2058,88.3622 C0.0688,86.4262 0.0008,84.4532 0.0008,82.5002 C0.0008,80.4092 0.0808,78.3002 0.2348,76.2322 L2.2288,76.3822 C2.0788,78.4002 2.0008,80.4592 2.0008,82.5002 C2.0008,84.4072 2.0668,86.3312 2.1998,88.2222 L0.2058,88.3622 Z M162.5338,102.5982 L160.5938,102.1122 C161.5498,98.3002 162.2268,94.3752 162.6138,90.4482 L164.6038,90.6432 C164.2098,94.6682 163.5118,98.6902 162.5338,102.5982 Z M3.4668,106.2442 C2.3088,102.3792 1.4298,98.3932 0.8518,94.3972 L2.8308,94.1112 C3.3948,98.0102 4.2528,101.8992 5.3828,105.6702 L3.4668,106.2442 Z M156.1898,119.6342 L154.4048,118.7332 C156.1818,115.2152 157.7098,111.5362 158.9458,107.8002 L160.8438,108.4282 C159.5768,112.2582 158.0118,116.0282 156.1898,119.6342 Z M10.5978,122.9822 C8.6118,119.4612 6.8738,115.7652 5.4298,111.9972 L7.2978,111.2832 C8.7058,114.9582 10.4028,118.5642 12.3408,121.9992 L10.5978,122.9822 Z M146.2618,134.8542 L144.7168,133.5852 C147.2188,130.5412 149.5158,127.2882 151.5438,123.9152 L153.2578,124.9462 C151.1778,128.4022 148.8248,131.7362 146.2618,134.8542 Z M21.2228,137.7412 C18.5178,134.7432 16.0118,131.5192 13.7758,128.1602 L15.4398,127.0512 C17.6238,130.3302 20.0688,133.4762 22.7078,136.4012 L21.2228,137.7412 Z M133.2508,147.5492 L132.0178,145.9732 C135.1218,143.5472 138.0728,140.8712 140.7918,138.0192 L142.2388,139.3992 C139.4538,142.3212 136.4298,145.0632 133.2508,147.5492 Z M34.8028,149.8232 C31.5138,147.4892 28.3678,144.8902 25.4518,142.0962 L26.8348,140.6522 C29.6798,143.3772 32.7508,145.9142 35.9618,148.1922 L34.8028,149.8232 Z M117.7738,157.1002 L116.9188,155.2922 C120.4788,153.6062 123.9438,151.6402 127.2168,149.4472 L128.3308,151.1092 C124.9748,153.3562 121.4228,155.3712 117.7738,157.1002 Z M50.6878,158.6432 C46.9728,157.0892 43.3348,155.2422 39.8778,153.1512 L40.9128,151.4392 C44.2858,153.4792 47.8348,155.2822 51.4598,156.7972 L50.6878,158.6432 Z M100.5668,163.0152 L100.1318,161.0632 C103.9748,160.2042 107.7898,159.0502 111.4708,157.6312 L112.1898,159.4972 C108.4188,160.9512 104.5078,162.1352 100.5668,163.0152 Z M68.1278,163.7522 C64.1468,163.0532 60.1898,162.0512 56.3658,160.7742 L56.9988,158.8772 C60.7288,160.1222 64.5908,161.1002 68.4728,161.7832 L68.1278,163.7522 Z M82.5008,165.0002 C79.7118,165.0002 76.8988,164.8592 74.1388,164.5812 L74.3408,162.5912 C80.9438,163.2562 87.7548,163.1032 94.3068,162.1402 L94.5978,164.1192 C90.6218,164.7032 86.5508,165.0002 82.5008,165.0002 Z" id="Fill-3" fill="#FFFFFF" mask="url(#mask-2)"></path>
                    </g>
                    <path d="M130.3569,54.774 C120.5099,39.286 103.2109,29 83.4999,29 C79.7049,29 76.3079,29.525 73.2609,30.499 C73.1159,30.545 72.9769,30.603 72.8329,30.651 C73.0059,30.642 73.1829,30.634 73.3889,30.634 C78.6939,30.634 83.1279,35.717 83.6549,40.941 C83.6759,41.154 83.6739,42.068 83.6739,42.301 L83.6609,48.486 L83.6609,55.631 C83.8339,56.366 83.8339,57.129 83.6609,57.862 L83.6609,77.589 C83.6609,79.724 81.9379,81.455 79.8129,81.455 L69.5189,81.455 L69.5189,81.932 C83.5029,85.415 82.9359,85.272 82.9959,85.29 C83.0119,85.297 88.5389,86.305 89.7139,92.224 C90.4049,95.745 91.7109,101.118 91.9939,102.632 C92.2779,104.147 81.5429,100.175 76.2229,109.088 C75.8909,109.644 76.5429,118.153 76.3369,118.372 C75.6079,119.146 66.5859,119.205 49.2839,118.548 C55.7589,125.544 64.8489,129.491 77.4999,129.491 C108.1509,129.491 132.9999,103.861 132.9999,72.245 C132.9999,66.151 132.0679,60.283 130.3569,54.774" id="Fill-6" fill="#FFFFFF"></path>
                    <path d="M86.9312,127.9117 C83.4772,127.9117 80.2302,126.5647 77.7882,124.1167 C75.3442,121.6707 73.9992,118.4167 73.9992,114.9547 C73.9992,111.4947 75.3452,108.2407 77.7882,105.7957 C80.2302,103.3487 83.4772,101.9997 86.9312,101.9997 C90.3852,101.9997 93.6332,103.3487 96.0742,105.7957 C98.5172,108.2407 99.8632,111.4947 99.8632,114.9547 C99.8632,118.4167 98.5182,121.6707 96.0742,124.1167 C93.6332,126.5647 90.3852,127.9117 86.9312,127.9117 M86.9312,104.1597 C84.0532,104.1597 81.3472,105.2817 79.3122,107.3227 C77.2762,109.3607 76.1552,112.0717 76.1552,114.9547 C76.1552,117.8387 77.2762,120.5517 79.3122,122.5897 C81.3482,124.6297 84.0532,125.7527 86.9312,125.7527 C89.8102,125.7527 92.5162,124.6297 94.5502,122.5897 C96.5872,120.5517 97.7072,117.8387 97.7072,114.9547 C97.7072,112.0717 96.5872,109.3607 94.5502,107.3227 C92.5162,105.2817 89.8102,104.1597 86.9312,104.1597" id="Fill-8" fill="#FF1C24"></path>
                    <path d="M92.854,113.0001 L88.155,113.0001 L88.155,109.0801 C88.155,108.4821 87.673,108.0001 87.077,108.0001 C86.481,108.0001 86,108.4821 86,109.0801 L86,113.0001 L82.078,113.0001 C81.481,113.0001 81,113.4821 81,114.0801 C81,114.6771 81.481,115.1591 82.078,115.1591 L86,115.1591 L86,119.8751 C86,120.4731 86.481,120.9551 87.077,120.9551 C87.673,120.9551 88.155,120.4731 88.155,119.8751 L88.155,115.1591 L92.854,115.1591 C93.45,115.1591 93.931,114.6771 93.931,114.0801 C93.931,113.4821 93.45,113.0001 92.854,113.0001" id="Fill-10" fill="#FF1B22"></path>
                    <path d="M85.2573,99.42 C85.9543,99.286 86.4103,98.612 86.2783,97.912 C85.9883,96.367 85.4303,93.916 84.7233,90.325 C83.5203,84.287 77.8663,83.26 77.8493,83.252 C77.7883,83.233 78.3673,83.379 64.0613,79.827 L64.0613,79.34 L74.5933,79.34 C76.7673,79.34 78.5293,77.575 78.5293,75.396 L78.5293,55.274 C78.7063,54.526 78.7063,53.749 78.5293,52.999 L78.5293,45.711 C78.5293,44.977 77.9653,44.337 77.2333,44.316 C76.4763,44.294 75.8553,44.901 75.8553,45.655 L75.8553,49.5 C75.1493,49.078 74.3423,48.775 73.4743,48.625 C73.1603,47.229 72.0033,46.125 70.5343,45.932 C69.0053,45.731 67.8453,44.837 67.0883,43.276 C66.7353,42.545 66.0403,42.066 65.2333,41.992 C64.4253,41.919 63.6593,42.265 63.1803,42.919 C60.8823,46.052 54.4913,53.082 43.4563,53.082 C42.6173,53.082 42.0483,53.042 41.8503,53.033 C39.8213,52.91 38.1083,54.533 38.1083,56.569 L38.1083,59.428 C38.1083,64.114 39.8253,68.668 43.0393,72.071 C44.3853,73.496 45.9113,74.656 47.5603,75.548 L47.5603,76.661 L37.0763,76.661 C36.3793,76.661 35.8143,76.095 35.8143,75.397 L35.8143,45.294 C35.8143,35.535 43.7573,27.493 53.3513,27.493 C53.3823,27.493 53.4133,27.494 53.4443,27.494 C56.8813,27.512 60.8513,28.49 63.5553,29.985 C65.2693,30.933 66.3283,30.18 68.0213,30.18 C72.1533,30.18 75.4633,34.436 75.8603,38.263 C75.8623,38.319 75.8683,38.544 75.8693,39.404 C75.8693,40.697 77.3273,40.796 77.2073,40.743 C77.9453,40.742 78.5443,40.142 78.5433,39.402 C78.5433,39.164 78.5453,38.232 78.5233,38.015 C77.9863,32.686 73.4483,27.5 68.0213,27.5 C65.9023,27.5 65.5703,28.039 64.8473,27.639 C61.7803,25.944 57.3103,24.835 53.4583,24.815 C42.3573,24.743 33.1403,34.007 33.1403,45.294 L33.1403,75.397 C33.1403,77.575 34.9033,79.34 37.0763,79.34 L47.5603,79.34 L47.5603,79.827 L33.8263,83.237 C33.8083,83.241 33.7903,83.246 33.7733,83.252 L32.7693,83.548 C32.7393,83.558 32.7103,83.567 32.6803,83.577 C30.8903,84.247 27.7573,86.013 26.8983,90.325 C23.9473,105.172 22.5943,112.099 22.0693,114.813 C21.9213,115.577 22.5063,116.286 23.2833,116.286 L23.4093,116.286 C24.0933,116.286 24.6753,115.789 24.7843,115.112 C25.2083,112.494 26.6013,105.518 29.5213,90.849 C30.1193,87.845 32.2973,86.59 33.5733,86.104 L34.5003,85.83 L42.3873,83.872 C51.1603,94.226 50.6413,93.677 51.1493,94.173 C54.0763,97.034 58.2553,96.832 61.0053,93.597 L69.2643,83.879 L77.1203,85.83 C77.3473,85.934 81.2583,86.624 82.1013,90.849 C83.0413,95.802 83.3893,97.702 83.5503,98.573 C83.6653,99.199 84.2683,99.611 84.8933,99.49 C85.0133,99.467 85.1363,99.443 85.2573,99.42 Z M73.5613,51.389 C74.6783,51.721 75.5393,52.459 75.8553,53.369 L75.8553,54.904 C75.5393,55.815 74.6783,56.552 73.5613,56.884 L73.5613,51.389 Z M73.5613,59.88 L73.5613,59.633 C74.3973,59.478 75.1733,59.182 75.8553,58.774 L75.8553,75.397 C75.8553,76.095 75.2903,76.661 74.5933,76.661 L64.0613,76.661 L64.0613,75.626 C69.7313,72.656 73.5613,66.711 73.5613,59.88 Z M45.5433,70.794 C42.5183,67.901 40.7823,63.838 40.7823,59.647 C40.8613,56.73 40.5903,56.377 41.0543,55.938 C41.2193,55.783 41.4403,55.692 41.6893,55.707 C51.2783,56.285 59.5253,52.063 64.9693,44.992 C66.4383,47.575 68.5903,48.379 70.1873,48.589 C70.5863,48.642 70.8873,48.982 70.8873,49.383 L70.8873,59.88 C70.8873,73.21 54.9573,79.795 45.5433,70.794 Z M58.9683,91.86 C57.1053,94.052 54.4973,94.046 52.6383,91.849 L49.8483,88.549 L61.7813,88.549 L58.9683,91.86 Z M64.0593,85.87 L47.5823,85.87 L45.2843,83.152 L49.2193,82.175 C49.8173,82.027 50.2353,81.477 50.2353,80.861 L50.2353,76.717 C53.9143,77.946 57.8003,77.933 61.3863,76.755 C61.4113,81.037 61.3293,80.939 61.4613,81.317 C61.6073,81.734 61.9543,82.064 62.4023,82.175 L66.3623,83.158 L64.0593,85.87 Z" id="Fill-12" fill="#FFFFFF"></path>
                    <path d="M65.4868,65.1842 C65.2848,64.9822 65.0158,64.8702 64.7298,64.8702 C64.4448,64.8702 64.1748,64.9822 63.9728,65.1842 C59.6328,69.5332 52.5708,69.5322 48.2298,65.1842 C47.8128,64.7662 47.1338,64.7662 46.7168,65.1842 C46.5148,65.3872 46.4038,65.6562 46.4038,65.9422 C46.4038,66.2282 46.5148,66.4982 46.7168,66.7002 C49.2198,69.2072 52.5528,70.5892 56.1018,70.5892 C59.6508,70.5892 62.9838,69.2072 65.4868,66.7002 C65.6888,66.4982 65.7998,66.2282 65.7998,65.9422 C65.7998,65.6562 65.6888,65.3872 65.4868,65.1842" id="Fill-14" fill="#FFFFFF"></path>
                </g>
                <path d="M53.6191406,14.4892578 L53.6191406,20 L50.3964844,20 L50.3964844,4.359375 L56.4980469,4.359375 C57.6725319,4.359375 58.7055619,4.5742166 59.597168,5.00390625 C60.488774,5.4335959 61.1744768,6.04410412 61.6542969,6.83544922 C62.134117,7.62679432 62.3740234,8.5273387 62.3740234,9.53710938 C62.3740234,11.0696691 61.8494519,12.2781531 60.800293,13.1625977 C59.7511341,14.0470422 58.2991629,14.4892578 56.4443359,14.4892578 L53.6191406,14.4892578 Z M53.6191406,11.8789062 L56.4980469,11.8789062 C57.3502647,11.8789062 58.0001605,11.6783874 58.4477539,11.2773438 C58.8953473,10.8763001 59.1191406,10.3033891 59.1191406,9.55859375 C59.1191406,8.79231388 58.8935569,8.17285393 58.4423828,7.70019531 C57.9912087,7.2275367 57.368168,6.98404955 56.5732422,6.96972656 L53.6191406,6.96972656 L53.6191406,11.8789062 Z M71,20 C70.8567701,19.7207017 70.75293,19.3733745 70.6884766,18.9580078 C69.9365197,19.7959026 68.9589904,20.2148438 67.7558594,20.2148438 C66.6171818,20.2148438 65.6736691,19.88542 64.925293,19.2265625 C64.1769168,18.567705 63.8027344,17.7369842 63.8027344,16.734375 C63.8027344,15.502598 64.2592728,14.557295 65.1723633,13.8984375 C66.0854538,13.23958 67.4049393,12.9065756 69.1308594,12.8994141 L70.5595703,12.8994141 L70.5595703,12.2333984 C70.5595703,11.6962864 70.4217136,11.2666032 70.1459961,10.9443359 C69.8702786,10.6220687 69.4352243,10.4609375 68.8408203,10.4609375 C68.3180312,10.4609375 67.9080419,10.5862618 67.6108398,10.8369141 C67.3136378,11.0875664 67.1650391,11.4313129 67.1650391,11.8681641 L64.0605469,11.8681641 C64.0605469,11.1949836 64.2682271,10.571943 64.6835938,9.99902344 C65.0989604,9.42610391 65.6861941,8.97672689 66.4453125,8.65087891 C67.2044309,8.32503092 68.0566359,8.16210938 69.0019531,8.16210938 C70.434252,8.16210938 71.5711221,8.52196906 72.4125977,9.24169922 C73.2540732,9.96142938 73.6748047,10.9729753 73.6748047,12.2763672 L73.6748047,17.3144531 C73.6819662,18.4173232 73.835936,19.2516248 74.1367188,19.8173828 L74.1367188,20 L71,20 Z M68.4326172,17.8408203 C68.8909528,17.8408203 69.3134746,17.7387706 69.7001953,17.534668 C70.086916,17.3305654 70.3733715,17.0566423 70.5595703,16.7128906 L70.5595703,14.7148438 L69.3994141,14.7148438 C67.8453698,14.7148438 67.0182297,15.2519478 66.9179688,16.3261719 L66.9072266,16.5087891 C66.9072266,16.8955097 67.0432929,17.2141915 67.3154297,17.4648438 C67.5875665,17.715496 67.9599586,17.8408203 68.4326172,17.8408203 Z M82.3544922,16.7880859 C82.3544922,16.4085267 82.1665058,16.1095389 81.7905273,15.8911133 C81.4145489,15.6726877 80.8112021,15.4775399 79.9804688,15.3056641 C77.216132,14.725583 75.8339844,13.5511156 75.8339844,11.7822266 C75.8339844,10.7509714 76.2618772,9.88981465 77.1176758,9.19873047 C77.9734743,8.50764628 79.092441,8.16210938 80.4746094,8.16210938 C81.9498772,8.16210938 83.1297156,8.50943663 84.0141602,9.20410156 C84.8986047,9.89876649 85.3408203,10.8011012 85.3408203,11.9111328 L82.2363281,11.9111328 C82.2363281,11.4671202 82.0931004,11.1000991 81.8066406,10.8100586 C81.5201809,10.5200181 81.0725942,10.375 80.4638672,10.375 C79.9410781,10.375 79.5364598,10.4931629 79.25,10.7294922 C78.9635402,10.9658215 78.8203125,11.2665997 78.8203125,11.6318359 C78.8203125,11.9755877 78.983234,12.2530914 79.309082,12.4643555 C79.63493,12.6756195 80.1845664,12.8582349 80.9580078,13.012207 C81.7314492,13.1661792 82.3831354,13.3398428 82.9130859,13.5332031 C84.5530681,14.1347686 85.3730469,15.1767504 85.3730469,16.6591797 C85.3730469,17.7190808 84.9182988,18.5766569 84.0087891,19.2319336 C83.0992793,19.8872103 81.9248119,20.2148438 80.4853516,20.2148438 C79.5113884,20.2148438 78.6466509,20.0411801 77.8911133,19.6938477 C77.1355756,19.3465152 76.5429709,18.870283 76.1132812,18.2651367 C75.6835916,17.6599905 75.46875,17.0065139 75.46875,16.3046875 L78.4121094,16.3046875 C78.4407554,16.8561225 78.6448549,17.2786444 79.0244141,17.5722656 C79.4039733,17.8658869 79.9124317,18.0126953 80.5498047,18.0126953 C81.1442087,18.0126953 81.5935857,17.8999035 81.8979492,17.6743164 C82.2023127,17.4487293 82.3544922,17.1533221 82.3544922,16.7880859 Z M86.8876953,14.0810547 C86.8876953,12.9280541 87.1096983,11.9003951 87.5537109,10.9980469 C87.9977236,10.0956986 88.6368773,9.39746341 89.4711914,8.90332031 C90.3055055,8.40917722 91.274083,8.16210938 92.3769531,8.16210938 C93.9453203,8.16210938 95.2254182,8.64192229 96.2172852,9.6015625 C97.2091521,10.5612027 97.7623692,11.8645751 97.8769531,13.5117188 L97.8984375,14.3066406 C97.8984375,16.0898527 97.4007211,17.5203397 96.4052734,18.5981445 C95.4098258,19.6759494 94.0742271,20.2148438 92.3984375,20.2148438 C90.7226479,20.2148438 89.3852589,19.6777397 88.3862305,18.6035156 C87.387202,17.5292915 86.8876953,16.0683686 86.8876953,14.2207031 L86.8876953,14.0810547 Z M89.9921875,14.3066406 C89.9921875,15.4095107 90.1998677,16.252764 90.6152344,16.8364258 C91.030601,17.4200876 91.6249961,17.7119141 92.3984375,17.7119141 C93.1503944,17.7119141 93.7376281,17.4236682 94.1601562,16.847168 C94.5826844,16.2706677 94.7939453,15.3486392 94.7939453,14.0810547 C94.7939453,12.9996691 94.5826844,12.1617868 94.1601562,11.5673828 C93.7376281,10.9729788 93.143233,10.6757812 92.3769531,10.6757812 C91.6178347,10.6757812 91.030601,10.9711885 90.6152344,11.5620117 C90.1998677,12.152835 89.9921875,13.0677021 89.9921875,14.3066406 Z M115.880859,20 L105.160156,20 L105.160156,17.8730469 L110.219727,12.4804688 C110.914391,11.7213504 111.428221,11.0589221 111.76123,10.4931641 C112.09424,9.92740603 112.260742,9.39030202 112.260742,8.88183594 C112.260742,8.18717101 112.085288,7.64111527 111.734375,7.24365234 C111.383462,6.84618942 110.882165,6.64746094 110.230469,6.64746094 C109.528642,6.64746094 108.975425,6.88915774 108.570801,7.37255859 C108.166176,7.85595945 107.963867,8.49153252 107.963867,9.27929688 L104.848633,9.27929688 C104.848633,8.32681815 105.076007,7.45670967 105.530762,6.66894531 C105.985517,5.88118096 106.628251,5.26351135 107.458984,4.81591797 C108.289718,4.36832458 109.23144,4.14453125 110.28418,4.14453125 C111.895516,4.14453125 113.146968,4.53124613 114.038574,5.3046875 C114.93018,6.07812887 115.375977,7.17024034 115.375977,8.58105469 C115.375977,9.35449605 115.175458,10.1422486 114.774414,10.9443359 C114.37337,11.7464233 113.685877,12.6809842 112.711914,13.7480469 L109.15625,17.4970703 L115.880859,17.4970703 L115.880859,20 Z" id="Paso-2" fill="#FFFFFF"></path>
            </g>
        </g>
    </g>
</svg>