<?xml version="1.0" encoding="UTF-8"?>
<svg width="118px" height="66px" viewBox="0 0 118 66" version="1.1" xmlns="http://www.w3.org/2000/svg" xmlns:xlink="http://www.w3.org/1999/xlink">
    <!-- Generator: sketchtool 51.2 (57519) - http://www.bohemiancoding.com/sketch -->
    <title>A9A63719-5EE5-4BFC-94BA-B030D306C05E</title>
    <desc>Created with sketchtool.</desc>
    <defs>
        <polygon id="path-1" points="0 2.90322581e-05 26 2.90322581e-05 26 26.9885323 0 26.9885323"></polygon>
        <polygon id="path-3" points="0 2.90322581e-05 26 2.90322581e-05 26 26.9885323 0 26.9885323"></polygon>
        <polygon id="path-5" points="0 2.90322581e-05 26 2.90322581e-05 26 26.9885323 0 26.9885323"></polygon>
        <polygon id="path-7" points="0 2.90322581e-05 26 2.90322581e-05 26 26.9885323 0 26.9885323"></polygon>
        <polygon id="path-9" points="0 2.90322581e-05 26 2.90322581e-05 26 26.9885323 0 26.9885323"></polygon>
        <polygon id="path-11" points="0.28840625 0.273201923 1.5063125 0.273201923 1.5063125 5.24368831 0.28840625 5.24368831"></polygon>
        <polygon id="path-13" points="0.016603125 0.216737854 4.88846875 0.216737854 4.88846875 1.45929808 0.016603125 1.45929808"></polygon>
    </defs>
    <g id="FLUJO-" stroke="none" stroke-width="1" fill="none" fill-rule="evenodd">
        <g id="1.-Home_Campaña-navidad" transform="translate(-973.000000, -3439.000000)">
            <g id="Group-3-Copy-29" transform="translate(973.000000, 3439.000000)">
                <g id="Group-59">
                    <path d="M4.74736842,57.4736842 C2.94210526,57.4736842 1.47368421,58.9421053 1.47368421,60.7468421 C1.47368421,62.5515789 2.94210526,64.02 4.74736842,64.02 C6.55210526,64.02 8.02052632,62.5515789 8.02052632,60.7468421 C8.02052632,58.9421053 6.55210526,57.4736842 4.74736842,57.4736842 M4.74736842,65.4936842 C2.12947368,65.4936842 0,63.3642105 0,60.7468421 C0,58.1294737 2.12947368,56 4.74736842,56 C7.36473684,56 9.49421053,58.1294737 9.49421053,60.7468421 C9.49421053,63.3642105 7.36473684,65.4936842 4.74736842,65.4936842" id="Fill-1" fill="#DA272C"></path>
                    <g id="Group-57" transform="translate(5.000000, 0.000000)">
                        <g id="Group-56" transform="translate(11.000000, 4.000000)">
                            <g id="Group-3-Copy-4" transform="translate(1.000000, 31.000000)">
                                <mask id="mask-2" fill="white">
                                    <use xlink:href="#path-1"></use>
                                </mask>
                                <g id="Clip-2"></g>
                                <path d="M13,15.1778758 C10.2339944,15.1778758 7.98375281,12.941521 7.98375281,10.1926742 L7.98375281,8.44710968 L11.1002472,8.44710968 C13.4672697,8.44710968 15.751764,7.60270645 17.532764,6.06936774 L18.0162472,5.65319032 L18.0162472,10.1927468 C18.0162472,12.941521 15.7659326,15.1778758 13,15.1778758 Z M12.9840787,21.2989645 L10.3474157,17.1254323 L10.4,16.989779 C10.4882978,16.762021 10.5330674,16.524029 10.5330674,16.2823355 L10.5330674,15.5259726 L10.9282528,15.6739645 C11.5921292,15.9226258 12.2891629,16.0486984 13,16.0486984 C13.7010506,16.0486984 14.3878596,15.9266177 15.0413652,15.6859403 L15.4350899,15.5408516 L15.4350899,16.2814645 C15.4350899,16.5232306 15.4798596,16.7614403 15.5682303,16.9894887 L15.6208146,17.1251419 L12.9840787,21.2989645 Z M7.98375281,5.85619839 C7.98375281,3.10735161 10.2339944,0.870996774 13,0.870996774 C14.0935337,0.870996774 15.1333876,1.21597258 16.007382,1.86869032 C16.8520899,2.49956129 17.487191,3.3965129 17.7957584,4.39427903 L17.8473933,4.5612871 L17.4396461,4.96657742 C15.7463596,6.64935968 13.4948764,7.57614194 11.1002472,7.57614194 L7.98375281,7.57614194 L7.98375281,5.85619839 Z M21.3554213,18.2278597 L17.2067416,17.3742387 C16.6879831,17.2674726 16.3114944,16.8078919 16.3114944,16.2815371 L16.3114944,15.034529 L16.4329494,14.94765 C17.9731573,13.8460935 18.8926517,12.068521 18.8926517,10.1926742 L18.8926517,5.85612581 C18.8926517,2.62708548 16.2491966,2.90322581e-05 13,2.90322581e-05 C9.75080337,2.90322581e-05 7.10734831,2.62708548 7.10734831,5.85612581 L7.10734831,10.1926742 C7.10734831,12.0542952 8.01544944,13.8238113 9.53666854,14.9260935 L9.65666292,15.0130452 L9.65666292,16.2823355 C9.65666292,16.8084726 9.28046629,17.2679081 8.76214607,17.3748919 L4.6407809,18.2256097 C1.95175281,18.7809242 0,21.1648355 0,23.8943032 L0,26.5530774 C0,26.7931742 0.196533708,26.9885613 0.438202247,26.9885613 L20.011236,26.9885613 C20.2529045,26.9885613 20.4494382,26.7931742 20.4494382,26.5530774 C20.4494382,26.3129081 20.2529045,26.1175935 20.011236,26.1175935 L0.876404494,26.1175935 L0.876404494,23.8943032 C0.876404494,21.5755694 2.5345618,19.5501339 4.81905618,19.0785048 L8.94049438,18.2277145 C9.14812921,18.1848919 9.3474382,18.1088274 9.53287079,18.0015532 L9.77702247,17.8604565 L12.6129944,22.3496419 C12.6936966,22.4772387 12.8324607,22.553521 12.9840787,22.553521 C13.1357697,22.553521 13.2745337,22.4772387 13.3551629,22.3496419 L16.1915,17.8598758 L16.4356517,18.0009726 C16.6212303,18.1081742 16.8208315,18.1843113 17.0289775,18.2271339 L21.1777303,19.0807548 C23.4641236,19.5512226 25.1235955,21.5768032 25.1235955,23.8972065 L25.1235955,26.1175935 L23.6629213,26.1175935 C23.4212528,26.1175935 23.2247191,26.3129081 23.2247191,26.5530774 C23.2247191,26.7931742 23.4212528,26.9885613 23.6629213,26.9885613 L25.5617978,26.9885613 C25.8034663,26.9885613 26,26.7931742 26,26.5530774 L26,23.8972065 C26,21.1659242 24.0466404,18.7815774 21.3554213,18.2278597 Z" id="Fill-1" fill="#000000" mask="url(#mask-2)"></path>
                            </g>
                            <g id="Group-3-Copy-5" transform="translate(65.000000, 32.000000)">
                                <mask id="mask-4" fill="white">
                                    <use xlink:href="#path-3"></use>
                                </mask>
                                <g id="Clip-2"></g>
                                <path d="M13,15.1778758 C10.2339944,15.1778758 7.98375281,12.941521 7.98375281,10.1926742 L7.98375281,8.44710968 L11.1002472,8.44710968 C13.4672697,8.44710968 15.751764,7.60270645 17.532764,6.06936774 L18.0162472,5.65319032 L18.0162472,10.1927468 C18.0162472,12.941521 15.7659326,15.1778758 13,15.1778758 Z M12.9840787,21.2989645 L10.3474157,17.1254323 L10.4,16.989779 C10.4882978,16.762021 10.5330674,16.524029 10.5330674,16.2823355 L10.5330674,15.5259726 L10.9282528,15.6739645 C11.5921292,15.9226258 12.2891629,16.0486984 13,16.0486984 C13.7010506,16.0486984 14.3878596,15.9266177 15.0413652,15.6859403 L15.4350899,15.5408516 L15.4350899,16.2814645 C15.4350899,16.5232306 15.4798596,16.7614403 15.5682303,16.9894887 L15.6208146,17.1251419 L12.9840787,21.2989645 Z M7.98375281,5.85619839 C7.98375281,3.10735161 10.2339944,0.870996774 13,0.870996774 C14.0935337,0.870996774 15.1333876,1.21597258 16.007382,1.86869032 C16.8520899,2.49956129 17.487191,3.3965129 17.7957584,4.39427903 L17.8473933,4.5612871 L17.4396461,4.96657742 C15.7463596,6.64935968 13.4948764,7.57614194 11.1002472,7.57614194 L7.98375281,7.57614194 L7.98375281,5.85619839 Z M21.3554213,18.2278597 L17.2067416,17.3742387 C16.6879831,17.2674726 16.3114944,16.8078919 16.3114944,16.2815371 L16.3114944,15.034529 L16.4329494,14.94765 C17.9731573,13.8460935 18.8926517,12.068521 18.8926517,10.1926742 L18.8926517,5.85612581 C18.8926517,2.62708548 16.2491966,2.90322581e-05 13,2.90322581e-05 C9.75080337,2.90322581e-05 7.10734831,2.62708548 7.10734831,5.85612581 L7.10734831,10.1926742 C7.10734831,12.0542952 8.01544944,13.8238113 9.53666854,14.9260935 L9.65666292,15.0130452 L9.65666292,16.2823355 C9.65666292,16.8084726 9.28046629,17.2679081 8.76214607,17.3748919 L4.6407809,18.2256097 C1.95175281,18.7809242 0,21.1648355 0,23.8943032 L0,26.5530774 C0,26.7931742 0.196533708,26.9885613 0.438202247,26.9885613 L20.011236,26.9885613 C20.2529045,26.9885613 20.4494382,26.7931742 20.4494382,26.5530774 C20.4494382,26.3129081 20.2529045,26.1175935 20.011236,26.1175935 L0.876404494,26.1175935 L0.876404494,23.8943032 C0.876404494,21.5755694 2.5345618,19.5501339 4.81905618,19.0785048 L8.94049438,18.2277145 C9.14812921,18.1848919 9.3474382,18.1088274 9.53287079,18.0015532 L9.77702247,17.8604565 L12.6129944,22.3496419 C12.6936966,22.4772387 12.8324607,22.553521 12.9840787,22.553521 C13.1357697,22.553521 13.2745337,22.4772387 13.3551629,22.3496419 L16.1915,17.8598758 L16.4356517,18.0009726 C16.6212303,18.1081742 16.8208315,18.1843113 17.0289775,18.2271339 L21.1777303,19.0807548 C23.4641236,19.5512226 25.1235955,21.5768032 25.1235955,23.8972065 L25.1235955,26.1175935 L23.6629213,26.1175935 C23.4212528,26.1175935 23.2247191,26.3129081 23.2247191,26.5530774 C23.2247191,26.7931742 23.4212528,26.9885613 23.6629213,26.9885613 L25.5617978,26.9885613 C25.8034663,26.9885613 26,26.7931742 26,26.5530774 L26,23.8972065 C26,21.1659242 24.0466404,18.7815774 21.3554213,18.2278597 Z" id="Fill-1" fill="#000000" mask="url(#mask-4)"></path>
                            </g>
                            <g id="Group-3-Copy-30" transform="translate(34.000000, 19.000000)">
                                <mask id="mask-6" fill="white">
                                    <use xlink:href="#path-5"></use>
                                </mask>
                                <g id="Clip-2"></g>
                                <path d="M13,15.1778758 C10.2339944,15.1778758 7.98375281,12.941521 7.98375281,10.1926742 L7.98375281,8.44710968 L11.1002472,8.44710968 C13.4672697,8.44710968 15.751764,7.60270645 17.532764,6.06936774 L18.0162472,5.65319032 L18.0162472,10.1927468 C18.0162472,12.941521 15.7659326,15.1778758 13,15.1778758 Z M12.9840787,21.2989645 L10.3474157,17.1254323 L10.4,16.989779 C10.4882978,16.762021 10.5330674,16.524029 10.5330674,16.2823355 L10.5330674,15.5259726 L10.9282528,15.6739645 C11.5921292,15.9226258 12.2891629,16.0486984 13,16.0486984 C13.7010506,16.0486984 14.3878596,15.9266177 15.0413652,15.6859403 L15.4350899,15.5408516 L15.4350899,16.2814645 C15.4350899,16.5232306 15.4798596,16.7614403 15.5682303,16.9894887 L15.6208146,17.1251419 L12.9840787,21.2989645 Z M7.98375281,5.85619839 C7.98375281,3.10735161 10.2339944,0.870996774 13,0.870996774 C14.0935337,0.870996774 15.1333876,1.21597258 16.007382,1.86869032 C16.8520899,2.49956129 17.487191,3.3965129 17.7957584,4.39427903 L17.8473933,4.5612871 L17.4396461,4.96657742 C15.7463596,6.64935968 13.4948764,7.57614194 11.1002472,7.57614194 L7.98375281,7.57614194 L7.98375281,5.85619839 Z M21.3554213,18.2278597 L17.2067416,17.3742387 C16.6879831,17.2674726 16.3114944,16.8078919 16.3114944,16.2815371 L16.3114944,15.034529 L16.4329494,14.94765 C17.9731573,13.8460935 18.8926517,12.068521 18.8926517,10.1926742 L18.8926517,5.85612581 C18.8926517,2.62708548 16.2491966,2.90322581e-05 13,2.90322581e-05 C9.75080337,2.90322581e-05 7.10734831,2.62708548 7.10734831,5.85612581 L7.10734831,10.1926742 C7.10734831,12.0542952 8.01544944,13.8238113 9.53666854,14.9260935 L9.65666292,15.0130452 L9.65666292,16.2823355 C9.65666292,16.8084726 9.28046629,17.2679081 8.76214607,17.3748919 L4.6407809,18.2256097 C1.95175281,18.7809242 0,21.1648355 0,23.8943032 L0,26.5530774 C0,26.7931742 0.196533708,26.9885613 0.438202247,26.9885613 L20.011236,26.9885613 C20.2529045,26.9885613 20.4494382,26.7931742 20.4494382,26.5530774 C20.4494382,26.3129081 20.2529045,26.1175935 20.011236,26.1175935 L0.876404494,26.1175935 L0.876404494,23.8943032 C0.876404494,21.5755694 2.5345618,19.5501339 4.81905618,19.0785048 L8.94049438,18.2277145 C9.14812921,18.1848919 9.3474382,18.1088274 9.53287079,18.0015532 L9.77702247,17.8604565 L12.6129944,22.3496419 C12.6936966,22.4772387 12.8324607,22.553521 12.9840787,22.553521 C13.1357697,22.553521 13.2745337,22.4772387 13.3551629,22.3496419 L16.1915,17.8598758 L16.4356517,18.0009726 C16.6212303,18.1081742 16.8208315,18.1843113 17.0289775,18.2271339 L21.1777303,19.0807548 C23.4641236,19.5512226 25.1235955,21.5768032 25.1235955,23.8972065 L25.1235955,26.1175935 L23.6629213,26.1175935 C23.4212528,26.1175935 23.2247191,26.3129081 23.2247191,26.5530774 C23.2247191,26.7931742 23.4212528,26.9885613 23.6629213,26.9885613 L25.5617978,26.9885613 C25.8034663,26.9885613 26,26.7931742 26,26.5530774 L26,23.8972065 C26,21.1659242 24.0466404,18.7815774 21.3554213,18.2278597 Z" id="Fill-1" fill="#000000" mask="url(#mask-6)"></path>
                            </g>
                            <g id="Group-3-Copy-6">
                                <mask id="mask-8" fill="white">
                                    <use xlink:href="#path-7"></use>
                                </mask>
                                <g id="Clip-2"></g>
                                <path d="M13,15.1778758 C10.2339944,15.1778758 7.98375281,12.941521 7.98375281,10.1926742 L7.98375281,8.44710968 L11.1002472,8.44710968 C13.4672697,8.44710968 15.751764,7.60270645 17.532764,6.06936774 L18.0162472,5.65319032 L18.0162472,10.1927468 C18.0162472,12.941521 15.7659326,15.1778758 13,15.1778758 Z M12.9840787,21.2989645 L10.3474157,17.1254323 L10.4,16.989779 C10.4882978,16.762021 10.5330674,16.524029 10.5330674,16.2823355 L10.5330674,15.5259726 L10.9282528,15.6739645 C11.5921292,15.9226258 12.2891629,16.0486984 13,16.0486984 C13.7010506,16.0486984 14.3878596,15.9266177 15.0413652,15.6859403 L15.4350899,15.5408516 L15.4350899,16.2814645 C15.4350899,16.5232306 15.4798596,16.7614403 15.5682303,16.9894887 L15.6208146,17.1251419 L12.9840787,21.2989645 Z M7.98375281,5.85619839 C7.98375281,3.10735161 10.2339944,0.870996774 13,0.870996774 C14.0935337,0.870996774 15.1333876,1.21597258 16.007382,1.86869032 C16.8520899,2.49956129 17.487191,3.3965129 17.7957584,4.39427903 L17.8473933,4.5612871 L17.4396461,4.96657742 C15.7463596,6.64935968 13.4948764,7.57614194 11.1002472,7.57614194 L7.98375281,7.57614194 L7.98375281,5.85619839 Z M21.3554213,18.2278597 L17.2067416,17.3742387 C16.6879831,17.2674726 16.3114944,16.8078919 16.3114944,16.2815371 L16.3114944,15.034529 L16.4329494,14.94765 C17.9731573,13.8460935 18.8926517,12.068521 18.8926517,10.1926742 L18.8926517,5.85612581 C18.8926517,2.62708548 16.2491966,2.90322581e-05 13,2.90322581e-05 C9.75080337,2.90322581e-05 7.10734831,2.62708548 7.10734831,5.85612581 L7.10734831,10.1926742 C7.10734831,12.0542952 8.01544944,13.8238113 9.53666854,14.9260935 L9.65666292,15.0130452 L9.65666292,16.2823355 C9.65666292,16.8084726 9.28046629,17.2679081 8.76214607,17.3748919 L4.6407809,18.2256097 C1.95175281,18.7809242 0,21.1648355 0,23.8943032 L0,26.5530774 C0,26.7931742 0.196533708,26.9885613 0.438202247,26.9885613 L20.011236,26.9885613 C20.2529045,26.9885613 20.4494382,26.7931742 20.4494382,26.5530774 C20.4494382,26.3129081 20.2529045,26.1175935 20.011236,26.1175935 L0.876404494,26.1175935 L0.876404494,23.8943032 C0.876404494,21.5755694 2.5345618,19.5501339 4.81905618,19.0785048 L8.94049438,18.2277145 C9.14812921,18.1848919 9.3474382,18.1088274 9.53287079,18.0015532 L9.77702247,17.8604565 L12.6129944,22.3496419 C12.6936966,22.4772387 12.8324607,22.553521 12.9840787,22.553521 C13.1357697,22.553521 13.2745337,22.4772387 13.3551629,22.3496419 L16.1915,17.8598758 L16.4356517,18.0009726 C16.6212303,18.1081742 16.8208315,18.1843113 17.0289775,18.2271339 L21.1777303,19.0807548 C23.4641236,19.5512226 25.1235955,21.5768032 25.1235955,23.8972065 L25.1235955,26.1175935 L23.6629213,26.1175935 C23.4212528,26.1175935 23.2247191,26.3129081 23.2247191,26.5530774 C23.2247191,26.7931742 23.4212528,26.9885613 23.6629213,26.9885613 L25.5617978,26.9885613 C25.8034663,26.9885613 26,26.7931742 26,26.5530774 L26,23.8972065 C26,21.1659242 24.0466404,18.7815774 21.3554213,18.2278597 Z" id="Fill-1" fill="#000000" mask="url(#mask-8)"></path>
                            </g>
                            <g id="Group-3-Copy-7" transform="translate(64.000000, 0.000000)">
                                <mask id="mask-10" fill="white">
                                    <use xlink:href="#path-9"></use>
                                </mask>
                                <g id="Clip-2"></g>
                                <path d="M13,15.1778758 C10.2339944,15.1778758 7.98375281,12.941521 7.98375281,10.1926742 L7.98375281,8.44710968 L11.1002472,8.44710968 C13.4672697,8.44710968 15.751764,7.60270645 17.532764,6.06936774 L18.0162472,5.65319032 L18.0162472,10.1927468 C18.0162472,12.941521 15.7659326,15.1778758 13,15.1778758 Z M12.9840787,21.2989645 L10.3474157,17.1254323 L10.4,16.989779 C10.4882978,16.762021 10.5330674,16.524029 10.5330674,16.2823355 L10.5330674,15.5259726 L10.9282528,15.6739645 C11.5921292,15.9226258 12.2891629,16.0486984 13,16.0486984 C13.7010506,16.0486984 14.3878596,15.9266177 15.0413652,15.6859403 L15.4350899,15.5408516 L15.4350899,16.2814645 C15.4350899,16.5232306 15.4798596,16.7614403 15.5682303,16.9894887 L15.6208146,17.1251419 L12.9840787,21.2989645 Z M7.98375281,5.85619839 C7.98375281,3.10735161 10.2339944,0.870996774 13,0.870996774 C14.0935337,0.870996774 15.1333876,1.21597258 16.007382,1.86869032 C16.8520899,2.49956129 17.487191,3.3965129 17.7957584,4.39427903 L17.8473933,4.5612871 L17.4396461,4.96657742 C15.7463596,6.64935968 13.4948764,7.57614194 11.1002472,7.57614194 L7.98375281,7.57614194 L7.98375281,5.85619839 Z M21.3554213,18.2278597 L17.2067416,17.3742387 C16.6879831,17.2674726 16.3114944,16.8078919 16.3114944,16.2815371 L16.3114944,15.034529 L16.4329494,14.94765 C17.9731573,13.8460935 18.8926517,12.068521 18.8926517,10.1926742 L18.8926517,5.85612581 C18.8926517,2.62708548 16.2491966,2.90322581e-05 13,2.90322581e-05 C9.75080337,2.90322581e-05 7.10734831,2.62708548 7.10734831,5.85612581 L7.10734831,10.1926742 C7.10734831,12.0542952 8.01544944,13.8238113 9.53666854,14.9260935 L9.65666292,15.0130452 L9.65666292,16.2823355 C9.65666292,16.8084726 9.28046629,17.2679081 8.76214607,17.3748919 L4.6407809,18.2256097 C1.95175281,18.7809242 0,21.1648355 0,23.8943032 L0,26.5530774 C0,26.7931742 0.196533708,26.9885613 0.438202247,26.9885613 L20.011236,26.9885613 C20.2529045,26.9885613 20.4494382,26.7931742 20.4494382,26.5530774 C20.4494382,26.3129081 20.2529045,26.1175935 20.011236,26.1175935 L0.876404494,26.1175935 L0.876404494,23.8943032 C0.876404494,21.5755694 2.5345618,19.5501339 4.81905618,19.0785048 L8.94049438,18.2277145 C9.14812921,18.1848919 9.3474382,18.1088274 9.53287079,18.0015532 L9.77702247,17.8604565 L12.6129944,22.3496419 C12.6936966,22.4772387 12.8324607,22.553521 12.9840787,22.553521 C13.1357697,22.553521 13.2745337,22.4772387 13.3551629,22.3496419 L16.1915,17.8598758 L16.4356517,18.0009726 C16.6212303,18.1081742 16.8208315,18.1843113 17.0289775,18.2271339 L21.1777303,19.0807548 C23.4641236,19.5512226 25.1235955,21.5768032 25.1235955,23.8972065 L25.1235955,26.1175935 L23.6629213,26.1175935 C23.4212528,26.1175935 23.2247191,26.3129081 23.2247191,26.5530774 C23.2247191,26.7931742 23.4212528,26.9885613 23.6629213,26.9885613 L25.5617978,26.9885613 C25.8034663,26.9885613 26,26.7931742 26,26.5530774 L26,23.8972065 C26,21.1659242 24.0466404,18.7815774 21.3554213,18.2278597 Z" id="Fill-1" fill="#000000" mask="url(#mask-10)"></path>
                            </g>
                        </g>
                        <g id="Group-3" transform="translate(104.000000, 13.000000)" fill="#DA272C">
                            <path d="M1.83517826,1.82848696 L3.19183043,4.08944348 C3.29591739,4.26318261 3.29591739,4.47957391 3.19183043,4.65331304 L1.83517826,6.91426957 L4.09613478,5.55761739 C4.26987391,5.45353043 4.48665652,5.45353043 4.66000435,5.55761739 L6.92096087,6.91426957 L5.5643087,4.65331304 C5.46061304,4.47957391 5.46061304,4.26318261 5.5643087,4.08944348 L6.92096087,1.82848696 L4.66000435,3.18513913 C4.48665652,3.28922609 4.26987391,3.28922609 4.09613478,3.18513913 L1.83517826,1.82848696 Z M8.04439565,8.74870435 C7.91643913,8.74870435 7.79004783,8.71309565 7.67852609,8.64618261 L4.37826522,6.66618261 L1.07761304,8.64618261 C0.745004348,8.84613913 0.282873913,8.72209565 0.0927,8.38518261 C-0.034473913,8.16057391 -0.0305608696,7.89370435 0.103265217,7.67105217 L2.08326522,4.37118261 L0.102873913,1.07092174 C-0.0305608696,0.84866087 -0.034473913,0.5814 0.0927,0.357182609 C0.283265217,0.0202695652 0.744221739,-0.104165217 1.07800435,0.096573913 L4.37826522,2.07657391 L7.67852609,0.0961826087 C8.01152609,-0.103773913 8.47326522,0.0206608696 8.66343913,0.356791304 C8.79061304,0.581008696 8.7870913,0.848269565 8.65326522,1.07053043 L6.67287391,4.37118261 L8.65326522,7.67183478 C8.7867,7.89370435 8.79061304,8.16057391 8.66343913,8.38518261 C8.53704783,8.6094 8.29991739,8.74870435 8.04439565,8.74870435 Z" id="Fill-1"></path>
                        </g>
                        <g id="Group-11-Copy-3">
                            <g id="Group-3" transform="translate(4.468750, 0.077647)">
                                <mask id="mask-12" fill="white">
                                    <use xlink:href="#path-11"></use>
                                </mask>
                                <g id="Clip-2"></g>
                                <path d="M1.5063125,0.894552176 C1.5063125,0.551208553 1.23371875,0.273096711 0.89753125,0.273096711 C0.561,0.273096711 0.28840625,0.551208553 0.28840625,0.894552176 L0.28840625,4.62258355 C0.28840625,4.96557647 0.561,5.24368831 0.89753125,5.24368831 C1.23371875,5.24368831 1.5063125,4.96557647 1.5063125,4.62258355 L1.5063125,0.894552176 Z" id="Fill-1" fill="#DA272C" mask="url(#mask-12)"></path>
                            </g>
                            <path d="M5.9750625,6.95100744 C5.9750625,6.60766382 5.70246875,6.32990268 5.36628125,6.32990268 C5.02975,6.32990268 4.75715625,6.60766382 4.75715625,6.95100744 L4.75715625,10.6790388 C4.75715625,11.0220317 5.02975,11.3001436 5.36628125,11.3001436 C5.70246875,11.3001436 5.9750625,11.0220317 5.9750625,10.6790388 L5.9750625,6.95100744 Z" id="Fill-4" fill="#DA272C"></path>
                            <g id="Group-8" transform="translate(5.843750, 4.987566)">
                                <mask id="mask-14" fill="white">
                                    <use xlink:href="#path-13"></use>
                                </mask>
                                <g id="Clip-7"></g>
                                <path d="M4.27944687,0.216737854 L0.625384375,0.216737854 C0.289196875,0.216737854 0.016603125,0.494849696 0.016603125,0.837842611 C0.016603125,1.18118623 0.289196875,1.45929808 0.625384375,1.45929808 L4.27944687,1.45929808 C4.61597812,1.45929808 4.88857187,1.18118623 4.88857187,0.837842611 C4.88857187,0.494849696 4.61597812,0.216737854 4.27944687,0.216737854" id="Fill-6" fill="#DA272C" mask="url(#mask-14)"></path>
                            </g>
                            <path d="M0.6089875,6.44686397 L4.26305,6.44686397 C4.5992375,6.44686397 4.87183125,6.16875213 4.87183125,5.82575921 C4.87183125,5.48241559 4.5992375,5.20430374 4.26305,5.20430374 L0.6089875,5.20430374 C0.27245625,5.20430374 0.00020625,5.48241559 0.00020625,5.82575921 C0.00020625,6.16875213 0.27245625,6.44686397 0.6089875,6.44686397" id="Fill-9" fill="#DA272C"></path>
                        </g>
                    </g>
                </g>
            </g>
        </g>
    </g>
</svg>