<?xml version="1.0" encoding="UTF-8"?>
<svg width="320px" height="94px" viewBox="0 0 320 94" version="1.1" xmlns="http://www.w3.org/2000/svg" xmlns:xlink="http://www.w3.org/1999/xlink">
    <!-- Generator: sketchtool 51.2 (57519) - http://www.bohemiancoding.com/sketch -->
    <title>658A5E59-050E-4894-B4BE-122DC2012B93</title>
    <desc>Created with sketchtool.</desc>
    <defs>
        <polygon id="path-1" points="0.000722127599 0.762456175 1177.15433 0.762456175 1177.15433 136.088514 0.000722127599 136.088514"></polygon>
    </defs>
    <g id="FLUJO_-MOVIL" stroke="none" stroke-width="1" fill="none" fill-rule="evenodd">
        <g id="1.-HOME-movil-Copy-2" transform="translate(0.000000, -3117.000000)">
            <g id="Group-70" transform="translate(-147.000000, 3084.000000)">
                <g id="Group-17" transform="translate(0.000000, 8.000000)">
                    <g id="Group-3" transform="translate(7.694805, 1.972297)">
                        <mask id="mask-2" fill="white">
                            <use xlink:href="#path-1"></use>
                        </mask>
                        <g id="Clip-2"></g>
                    </g>
                    <g id="Group-6" transform="translate(7.694805, 0.000000)" fill="#E2E2E2">
                        <path d="M1063.1634,18.8291913 C998.808416,33.2426493 931.269885,44.6679295 855.526953,50.0308892 C773.172427,55.8630743 688.328623,55.8424786 605.503683,51.1081376 C557.27278,48.3500952 509.058384,44.5165953 462.002486,39.9586616 C363.911768,30.4595338 264.139524,22.9546138 161.558203,26.0036834 C126.212121,27.0531723 90.7030434,29.3401984 56.6660748,32.8020789 C37.3842363,34.762259 18.6439935,37.2337516 0.000722127599,39.8118048 L0.000722127599,41.360965 C1.01892204,53.5062017 0.00278534931,65.7454626 0.000722127599,77.9059223 L149.601834,77.9059223 L499.473687,77.9059223 L857.442654,77.9059223 L1127.91761,77.9059223 L1146.63206,77.9059223 L1177.15433,77.9059223 L1177.15433,0.756849818 C1134.95835,2.94537438 1098.16183,10.9884708 1063.1634,18.8291913" id="Fill-4"></path>
                    </g>
                    <path d="M119.391979,45.1350504 C183.750087,59.6391785 251.302474,71.1363312 327.050001,76.5330275 C409.421323,82.4019009 494.27502,82.3811756 577.105468,77.6170525 C625.341549,74.8416602 673.564218,70.9840451 720.625143,66.397439 C818.734683,56.8385553 918.518743,49.2864245 1021.10811,52.3546748 C1056.46391,53.4107656 1091.97756,55.7121786 1126.01375,59.1958366 C1145.30323,61.1683475 1164.04589,63.6553874 1182.69156,66.2496583 L1182.69156,67.8085637 C1181.67013,80.030202 1182.68743,92.3464559 1182.69156,104.583413 L1033.07118,104.583413 L686.916013,122.605441 L325.135085,104.583413 L54.6252999,104.583413 L35.9125644,104.583413 L5.38636364,104.583413 L5.38636364,26.949022 C47.5836492,29.1513138 84.3849151,37.2450065 119.391979,45.1350504" id="Fill-9" fill="#EDECEC"></path>
                    <g id="Group-13" transform="translate(0.000000, 25.639865)" fill="#F6F6F6">
                        <path d="M855.526953,50.0308892 C773.172427,55.8630743 688.328623,55.8424786 605.503683,51.1081376 C557.27278,48.3500952 509.058384,44.5165953 462.002486,39.9586616 C363.911768,30.4595338 264.139524,22.9546138 161.558203,26.0036834 C126.212121,27.0531723 90.7030434,29.3401984 56.6660748,32.8020789 C37.3842363,34.762259 18.6439935,37.2337516 0.000722127599,39.8118048 C0.000722127599,39.8118048 0.00278534931,77.4267798 0.000722127599,89.5872395 L150.048701,93.0120387 L498.049342,89.5872395 L857.442654,77.9059223 L1127.91761,77.9059223 L1146.63206,77.9059223 L1177.15433,77.9059223 L1177.15433,0.756849818 C1134.95835,2.94537438 1098.16183,10.9884708 1063.1634,18.8291913 C998.808416,33.2426493 931.269885,44.6679295 855.526953,50.0308892 Z" id="Fill-11"></path>
                    </g>
                </g>
            </g>
        </g>
    </g>
</svg>