<?xml version="1.0" encoding="UTF-8"?>
<svg width="80px" height="34px" viewBox="0 0 80 34" version="1.1" xmlns="http://www.w3.org/2000/svg" xmlns:xlink="http://www.w3.org/1999/xlink">
    <!-- Generator: sketchtool 51.2 (57519) - http://www.bohemiancoding.com/sketch -->
    <title>B36FDC1A-DB07-4134-9768-E045ED32C398</title>
    <desc>Created with sketchtool.</desc>
    <defs></defs>
    <g id="FLUJO-" stroke="none" stroke-width="1" fill="none" fill-rule="evenodd">
        <g id="2.1.1.-confirmacion-mancha-" transform="translate(-252.000000, -132.000000)">
            <g id="Group-25" transform="translate(252.000000, 132.000000)">
                <circle id="Oval-2" fill="#DA272C" cx="17" cy="17" r="17"></circle>
                <rect id="Rectangle-3" fill="#DA272C" x="10" y="4" width="70" height="26" rx="5"></rect>
                <g id="right-arrow" transform="translate(17.000000, 17.000000) scale(-1, 1) translate(-17.000000, -17.000000) translate(7.000000, 10.000000)" fill="#FFFFFF" fill-rule="nonzero">
                    <path d="M13.253125,0.612956522 C12.985,0.342695652 12.53875,0.342695652 12.26125,0.612956522 C11.993125,0.874086957 11.993125,1.30869565 12.26125,1.56921739 L17.290625,6.4673913 L0.694375,6.4673913 C0.3075,6.468 0,6.76747826 0,7.14426087 C0,7.52104348 0.3075,7.83026087 0.694375,7.83026087 L17.290625,7.83026087 L12.26125,12.7193043 C11.993125,12.9895652 11.993125,13.4247826 12.26125,13.6853043 C12.53875,13.9555652 12.985625,13.9555652 13.253125,13.6853043 L19.473125,7.62756522 C19.750625,7.36643478 19.750625,6.93182609 19.473125,6.67130435 L13.253125,0.612956522 Z" id="Shape"></path>
                </g>
            </g>
        </g>
    </g>
</svg>