<?xml version="1.0" encoding="UTF-8"?>
<svg width="1920px" height="212px" viewBox="0 0 1920 212" version="1.1" xmlns="http://www.w3.org/2000/svg" xmlns:xlink="http://www.w3.org/1999/xlink">
    <!-- Generator: sketchtool 51.2 (57519) - http://www.bohemiancoding.com/sketch -->
    <title>18E87F0A-152F-49FE-BB88-5CC33CBB1B49</title>
    <desc>Created with sketchtool.</desc>
    <defs>
        <polygon id="path-1" points="0.0405267437 0.203092063 6.35590238 0.203092063 6.35590238 14.5 0.0405267437 14.5"></polygon>
        <polygon id="path-3" points="0 0.15158254 57.9483844 0.15158254 57.9483844 24.2530714 0 24.2530714"></polygon>
        <polygon id="path-5" points="0.0358805098 0.178925491 5.62722284 0.178925491 5.62722284 12.7745987 0.0358805098 12.7745987"></polygon>
        <polygon id="path-7" points="0 0.133545249 51.304827 0.133545249 51.304827 21.367121 0 21.367121"></polygon>
        <polygon id="path-9" points="0.0262203725 0.131398407 4.1122013 0.131398407 4.1122013 9.38134593 0.0262203725 9.38134593"></polygon>
        <polygon id="path-11" points="0 0.0980722925 37.4919889 0.0980722925 37.4919889 15.6914795 0 15.6914795"></polygon>
    </defs>
    <g id="FLUJO-" stroke="none" stroke-width="1" fill="none" fill-rule="evenodd">
        <g id="FONDO-NIEVE" transform="translate(0.000000, -556.000000)">
            <g id="Group-2" transform="translate(-43.000000, 552.000000)">
                <g id="Group-17" transform="translate(0.000000, 23.000000)">
                    <g id="Group-3" transform="translate(0.000000, 4.568243)" fill="#FFFFFF">
                        <path d="M1527.48617,52.2343637 C1490.22926,51.6018105 1453.19758,52.2097188 1417.60979,54.1813132 C1386.02923,55.9311032 1355.2343,59.0011574 1325.07886,62.6368714 C1295.17546,66.2444197 1265.84319,70.3800737 1236.16771,74.1976908 C1225.42769,75.580154 1214.38602,77.0236428 1203.1808,78.0587298 C1191.33607,79.1536689 1180.09599,79.5292107 1167.90672,79.4271103 C1159.19244,79.3719526 1150.48084,79.2721993 1141.77594,79.1313711 C1124.35006,78.8473676 1106.94965,78.3908496 1089.60018,77.7700321 C1069.62168,77.0553291 1049.71022,76.1223425 1029.8993,74.9804607 C967.219478,71.3658709 904.561106,66.3418259 843.408294,60.3683642 C715.931749,47.9191538 586.26993,38.0834795 452.957497,42.0794789 C407.022503,43.4549007 360.875685,46.4521937 316.641988,50.989208 C291.583733,53.5581485 267.229325,56.7971965 243.000938,60.1758991 L243.000938,62.2061719 C243.921971,73.2846548 243.562675,84.4218161 243.258345,95.5425475 C243.201144,95.5503713 162.243297,126.648445 0.3848066,188.836768 L288.854152,185.209018 L1977.28301,185.209018 C1980.36982,161.519364 1981.44738,141.328159 1980.51567,124.635404 C1979.58396,107.94265 1977.7419,66.8127047 1974.9895,1.24556998 L1772.80394,8.99189976 C1717.96697,11.8601002 1670.14701,22.4010889 1624.66382,32.6768512 C1592.98405,39.832096 1560.70635,46.4216809 1527.48617,52.2343637 Z" id="Fill-1"></path>
                    </g>
                    <g id="Group-6" transform="translate(8.000000, 0.000000)" fill="#F4F4F6">
                        <path d="M1337.82312,77.1625981 C1230.79698,84.7570262 1120.53584,84.7302072 1012.89836,78.565346 C950.21854,74.9739382 887.560168,69.9821147 826.407356,64.0469636 C698.93081,51.6775956 569.268991,41.9050021 435.956558,45.8753733 C390.021564,47.2419739 343.874747,50.2200438 299.641049,54.7279601 C274.582795,57.2804249 250.228386,60.4986994 226,63.8557328 C75.6665129,89.9708353 0.498875594,108.306668 0.497088048,118.86323 L41.0922647,158.161709 L875.104106,113.460303 L1340.31272,113.460303 L1691.81604,113.460303 L1716.13693,113.460303 L1988.74582,115.758874 L1970.58583,0.0438050405 C1755.34961,2.3094494 1653.14608,26.3231899 1607.66288,36.533049 C1524.02856,55.3016525 1436.25697,70.1791757 1337.82312,77.1625981 Z" id="Fill-4"></path>
                    </g>
                    <path d="M1187.1467,76.2719717 C1114.93756,84.3547356 1036.35814,87.193502 960.33031,85.6885995 C923.016311,84.9509953 884.858929,83.398582 848.248866,80.8912029 C798.014615,77.4478624 750.242131,70.6668926 699.513113,67.9457152 C543.451056,59.5766991 380.856468,73.1980271 237,92.6406079 C194.950298,99.8988457 152.788039,108.381495 110.513221,118.088556 C106.542083,119.000401 79.3354088,126.44611 28.8931989,140.425684 L19.2228569,183.356419 L1974.68714,177.70042 C2007.87762,165.059078 2008.19252,147.268336 1975.63185,124.328193 C1950.8073,106.838422 1881.26335,89.3341789 1767,71.8154647 C1661.87881,52.4845341 1528.99437,44.1701553 1411.76011,50.7444534 C1331.23513,55.2615366 1263.4427,67.7307291 1187.1467,76.2719717 Z" id="Fill-7" fill="#FFFFFF"></path>
                </g>
                <g id="Group-21-Copy-9" transform="translate(558.000000, 42.000000) rotate(-12.000000) translate(-558.000000, -42.000000) translate(529.000000, 6.000000)">
                    <path d="M36.8878389,8.74257937 C43.9049183,6.44214286 41.3752437,0.919944444 41.3752437,0.919944444 L39.7636722,0.34431746 L37.8089341,0 C37.8089341,0 40.4541484,3.91131746 36.772069,6.67207143 C36.0995452,7.17657937 33.1703151,7.89352381 31.58245,8.79896825 C32.9684659,8.76605556 35.1432357,9.31475397 36.8878389,8.74257937" id="Fill-1" fill="#FFFFFF"></path>
                    <g id="Group-5" transform="translate(29.920635, 56.538722)">
                        <mask id="mask-2" fill="white">
                            <use xlink:href="#path-1"></use>
                        </mask>
                        <g id="Clip-4"></g>
                        <path d="M0.878354762,13.129727 C1.45329127,15.4301635 6.35590238,14.1387429 6.35590238,14.1387429 C6.35590238,14.1387429 3.70033095,5.78996508 2.94080714,3.51093333 C2.60316429,2.49754444 2.76289444,1.29841746 3.26302937,0.203092063 C-1.70609762,2.27912381 0.43645,11.3627984 0.878354762,13.129727" id="Fill-3" fill="#FFFFFF" mask="url(#mask-2)"></path>
                    </g>
                    <g id="Group-8" transform="translate(0.000000, 34.903802)">
                        <mask id="mask-4" fill="white">
                            <use xlink:href="#path-3"></use>
                        </mask>
                        <g id="Clip-7"></g>
                        <path d="M56.9040071,17.7835825 C56.0547214,15.4559873 55.5237452,15.8224 54.6132373,16.0042254 C54.274904,16.0468048 53.9674119,16.0603841 53.6859278,16.0541698 C53.2279119,16.0219476 52.6486024,15.9280429 51.9542135,15.7839635 C51.8566262,15.760027 51.7629516,15.7377016 51.6729595,15.7183683 C50.9056103,15.5533444 42.2417452,13.3049238 42.2417452,13.3049238 L42.2387532,13.3164317 C39.5194278,12.6319397 36.4741976,11.917527 33.2183722,11.2988603 C16.1919198,8.06305873 18.9855865,3.44975714 6.95035635,4.39133651 C1.76557063,4.79664603 0.722951587,2.56180476 0.775427778,1.87938413 C0.755403968,1.32147937 1.24886429,0.718233333 2.13681667,0.15158254 C-1.25388175,1.49225714 0.0324753968,7.39283651 1.61320556,8.57746349 C4.96155476,11.089646 12.0391659,8.00897143 16.9864278,10.4214952 C27.8381817,15.7112333 38.8496659,17.1400587 45.4232294,17.5718365 C47.3763563,17.7253524 49.5115389,17.8530905 50.5767135,17.7835825 C48.9662929,18.0142016 41.3733563,18.934146 38.0376659,18.5891381 C35.9254992,18.3704873 34.0464833,19.9496063 33.1836183,21.8380587 C34.6851738,21.2111063 36.8348563,21.2223841 39.8780151,22.2698365 C47.4122611,24.8641857 50.9343802,24.6443841 56.7997452,23.1485825 C58.4723087,22.7223286 58.1514675,21.2012095 56.9040071,17.7835825" id="Fill-6" fill="#FFFFFF" mask="url(#mask-4)"></path>
                    </g>
                    <path d="M25.9591198,37.0419992 C26.5584532,37.1131183 27.2597468,37.1810151 28.0358421,37.2445389 C27.3520405,36.8417611 26.6551198,36.4702849 25.8930643,36.1554278 C16.82435,30.905277 5.91022302,32.6468881 2.13677063,35.055269 C2.35127857,34.9705706 2.58304841,34.9026738 2.83599286,34.8566421 C5.36727857,34.3965548 19.1738103,36.2364437 25.9591198,37.0419992" id="Fill-9" fill="#FFFFFF"></path>
                    <path d="M21.0129627,26.229027 C15.8360024,26.5740349 12.037923,21.6276937 17.1009548,23.4673524 C18.5274786,23.9859 20.7218119,24.9159714 23.3124786,26.0124476 C22.3218754,26.1208524 21.5328913,26.194273 21.0129627,26.229027 M48.2780262,24.9629238 C50.6903198,23.784281 50.9803198,22.0990587 51.5568675,19.7212889 L51.5030103,19.7597254 C51.5791929,19.3465905 50.6999865,18.7799397 43.9158278,19.6487889 C37.8679468,20.4230429 25.4992167,17.6008365 25.4992167,17.6008365 C25.9602246,15.5298683 40.0249944,20.3691857 42.6400579,17.1402889 C43.9692246,15.4999476 47.0114627,13.9199079 44.0200897,11.7334 C41.029177,9.54689206 29.8703913,10.8134556 30.6752563,9.54804286 C30.8423516,9.2856619 31.1671056,9.03593968 31.5825421,8.79910635 C30.8214071,8.81728889 30.2975659,9.0101619 30.2158595,9.66243175 C29.9847802,11.5034714 29.0655262,13.1138921 30.4460183,13.8050587 C31.8269706,14.4955349 39.6493754,14.2644556 41.7196532,15.7597968 C43.789931,17.2551381 37.5137325,16.067519 34.3573357,15.4147889 C27.6850341,14.034527 26.1903833,14.6092333 25.3841373,17.2551381 C24.5788119,19.9010429 24.7143754,19.0052651 24.0238992,21.3061619 C24.9512087,23.1467413 25.6815024,20.5853048 36.7813675,23.3244238 C37.4115421,23.479781 38.0403357,23.581281 38.664296,23.6425032 C33.9732008,24.5794794 29.1025817,25.3026381 25.5574468,25.7473048 C24.4529151,25.0393365 23.2747325,24.2899397 21.816677,23.4673524 C17.330423,20.936527 13.6494944,21.3966143 13.3047167,24.7329952 C12.9597087,28.0689159 11.396931,30.4577333 15.2610659,31.0595984 C21.6000976,32.0472095 27.9393595,31.3917175 33.441304,30.1530032 C33.9089865,30.3320667 34.3759786,30.5079079 34.8404389,30.6800667 C34.4556135,30.4526698 34.0845976,30.2524317 33.7296929,30.0871778 C40.2763278,28.5812492 45.6045024,26.2683841 48.2780262,24.9629238" id="Fill-11" fill="#FFFFFF"></path>
                    <path d="M49.887319,42.4493714 C57.4749619,42.0797365 56.4438508,40.8389508 56.9039381,37.2726413 C56.9969222,36.5538556 56.7163587,35.4718794 55.8875571,35.1112206 C55.4350651,34.8773794 54.8407952,34.7204111 54.1199381,34.6025698 C52.8008984,34.3747127 51.0148667,34.2633159 49.2792397,34.1397206 C47.9063429,34.0202683 46.3767079,33.8607683 44.7098984,33.5912524 C42.0140492,33.1551016 38.4981444,32.0353794 34.8404619,30.6802048 C37.3791127,32.1810698 40.5055889,34.8534429 43.441954,36.377554 C43.7913349,36.5869984 45.2169381,37.3851889 46.834954,37.5067127 C46.8464619,37.5078635 46.8584302,37.5094746 46.8701683,37.5103952 C46.9115968,37.5133873 46.9541762,37.5131571 46.9958349,37.5149984 C47.2352,37.5276571 47.4711127,37.5267365 47.7012714,37.5025698 C46.0595492,38.0155937 34.466454,37.7718556 28.0360492,37.2445619 C32.1001921,39.6377524 35.7088508,43.1382365 49.887319,42.4493714" id="Fill-13" fill="#FFFFFF"></path>
                </g>
                <g id="Group-21-Copy-10" transform="translate(1405.000000, 46.000000) rotate(-12.000000) translate(-1405.000000, -46.000000) translate(1379.000000, 14.000000)">
                    <path d="M32.6587913,7.70227194 C38.8713898,5.67557171 36.6317325,0.810477318 36.6317325,0.810477318 L35.2049215,0.303346027 L33.4742866,0 C33.4742866,0 35.8162373,3.44589731 32.556294,5.87814035 C31.9608725,6.32261528 29.3674672,6.95424821 27.9616447,7.75195093 C29.1887592,7.72295462 31.1142001,8.20636166 32.6587913,7.70227194" id="Fill-1" fill="#FFFFFF"></path>
                    <g id="Group-5" transform="translate(26.490350, 49.810999)">
                        <mask id="mask-6" fill="white">
                            <use xlink:href="#path-5"></use>
                        </mask>
                        <g id="Clip-4"></g>
                        <path d="M0.777654797,11.5673789 C1.28667707,13.5940791 5.62722284,12.4563287 5.62722284,12.4563287 C5.62722284,12.4563287 3.27610237,5.10099865 2.60365502,3.09315617 C2.3047216,2.20035366 2.44613932,1.14391462 2.88893571,0.178925491 C-1.51050015,2.00792359 0.386412701,10.0107028 0.777654797,11.5673789" id="Fill-3" fill="#FFFFFF" mask="url(#mask-6)"></path>
                    </g>
                    <g id="Group-8" transform="translate(0.000000, 30.750487)">
                        <mask id="mask-8" fill="white">
                            <use xlink:href="#path-7"></use>
                        </mask>
                        <g id="Clip-7"></g>
                        <path d="M50.3801836,15.6674573 C49.6282651,13.61683 49.1581633,13.9396421 48.3520416,14.0998315 C48.0524969,14.1373442 47.7802576,14.1493077 47.5310445,14.1438329 C47.1255384,14.1154449 46.6126444,14.0327142 45.9978645,13.9057793 C45.9114652,13.8846911 45.8285301,13.8650222 45.7488552,13.8479894 C45.0694796,13.7026023 37.3988931,11.7217285 37.3988931,11.7217285 L37.396244,11.731867 C34.9886787,11.1288249 32.2925724,10.4994224 29.4100148,9.95437286 C14.3355791,7.10360963 16.8089627,3.03925953 6.15352497,3.86879736 C1.56315481,4.22587781 0.640067993,2.25696744 0.686527992,1.65575021 C0.668799835,1.16423232 1.10568684,0.632768456 1.89183893,0.133545249 C-1.11012907,1.3146887 0.0287522186,6.51313929 1.4282578,7.55680373 C4.39273176,9.77005365 10.6589222,7.05595835 15.0389998,9.18140825 C24.6466422,13.8417035 34.3957024,15.1005084 40.2156324,15.4809076 C41.9448409,15.6161561 43.8352331,15.7286942 44.7782896,15.6674573 C43.3524974,15.8706342 36.6300616,16.6811116 33.6767951,16.3771572 C31.8067801,16.1845244 30.1431861,17.575739 29.3792452,19.2394784 C30.7086532,18.6871291 32.611883,18.6970649 35.3061554,19.6198776 C41.9766294,21.9055169 45.0949511,21.7118702 50.2878749,20.3940588 C51.7686854,20.0185262 51.4846274,18.6784099 50.3801836,15.6674573" id="Fill-6" fill="#FFFFFF" mask="url(#mask-8)"></path>
                    </g>
                    <path d="M22.9830075,32.6342535 C23.5136296,32.6969098 24.1345226,32.7567274 24.8216416,32.8126923 C24.2162352,32.4578423 23.5992138,32.1305693 22.9245249,31.853178 C14.8955036,27.2277594 5.23263888,28.7621307 1.89179817,30.8839307 C2.08171361,30.8093108 2.28691194,30.7494932 2.51085728,30.7089389 C4.75194091,30.3035989 16.9756074,31.9245535 22.9830075,32.6342535" id="Fill-9" fill="#FFFFFF"></path>
                    <path d="M18.6039081,23.1079513 C14.0204662,23.4119057 10.6578219,19.0541453 15.1403967,20.6748972 C16.4033751,21.1317412 18.3461366,21.9511404 20.6397934,22.9171434 C19.762759,23.0126488 19.0642288,23.0773328 18.6039081,23.1079513 M42.7431378,21.9925058 C44.8788714,20.9541134 45.135624,19.4694212 45.6460727,17.3745898 L45.5983901,17.4084526 C45.6658386,17.0444779 44.8874298,16.5452547 38.8810485,17.3107168 C33.5265337,17.9928398 22.5758304,15.5064568 22.5758304,15.5064568 C22.9839856,13.6819197 35.4362842,17.9453913 37.7515408,15.1007112 C38.9283236,13.6555594 41.6217809,12.2635337 38.9733572,10.3372053 C36.3253411,8.4108769 26.4458668,9.52672796 27.1584572,8.41189076 C27.3063957,8.18073135 27.5939179,7.96072437 27.9617262,7.75207259 C27.2878524,7.76809154 26.8240675,7.93801398 26.7517285,8.51266815 C26.5471415,10.1346366 25.7332764,11.5534282 26.9555004,12.1623507 C28.178132,12.7706649 35.1037284,12.5670825 36.9366568,13.8844883 C38.7695853,15.2018941 33.2129287,14.1555937 30.4184005,13.5805339 C24.5110524,12.3645138 23.1877575,12.870834 22.4739445,15.2018941 C21.7609465,17.5329542 21.8809682,16.7437679 21.2696524,18.7708737 C22.0906495,20.3924366 22.7372178,18.1357936 32.5645264,20.5489762 C33.1224539,20.6858469 33.6791588,20.7752691 34.2315845,20.8292062 C30.0783052,21.6546886 25.7660837,22.2917964 22.6273847,22.6835508 C21.6494833,22.0598259 20.6063748,21.3996022 19.3154796,20.6748972 C15.3435573,18.4452228 12.0846329,18.8505628 11.7793825,21.7899372 C11.4739284,24.728906 10.090317,26.8334704 13.5114439,27.3637176 C19.1237303,28.2338098 24.7362204,27.6563168 29.6073882,26.5650011 C30.0214528,26.7227572 30.434906,26.8776746 30.8461178,27.0293476 C30.5054111,26.8290094 30.1769308,26.6525983 29.8627145,26.5070084 C35.6588031,25.1802751 40.3761232,23.1426252 42.7431378,21.9925058" id="Fill-11" fill="#FFFFFF"></path>
                    <path d="M44.1679315,37.3981852 C50.8856806,37.0725343 49.9727823,35.9793937 50.3801224,32.8374507 C50.4624463,32.2041956 50.2140483,31.2509672 49.4802656,30.9332244 C49.07965,30.7272087 48.5535109,30.5889186 47.9152972,30.4850996 C46.7474803,30.2843559 45.1662102,30.1862145 43.6295661,30.0773263 C42.4140666,29.9720879 41.0597983,29.8315673 39.5840821,29.594122 C37.1973015,29.2098702 34.0844816,28.2233873 30.8461382,27.0294693 C33.0937425,28.3517416 35.8617803,30.7061204 38.4615025,32.0488727 C38.7708283,32.2333947 40.0329916,32.9366059 41.4655082,33.0436692 C41.4756968,33.0446831 41.486293,33.0461025 41.4966854,33.0469136 C41.5333643,33.0495496 41.5710621,33.0493468 41.6079448,33.050969 C41.8198676,33.0621214 42.0287338,33.0613103 42.2325058,33.0400193 C40.7790006,33.4919968 30.5150088,33.2772619 24.821825,32.8127126 C28.4200296,34.9211297 31.6149696,38.00508 44.1679315,37.3981852" id="Fill-13" fill="#FFFFFF"></path>
                </g>
                <g id="Group-21-Copy-11" transform="translate(1465.000000, 51.500000) rotate(-12.000000) translate(-1465.000000, -51.500000) translate(1446.000000, 28.000000)">
                    <path d="M23.8660398,5.65635595 C28.4060156,4.16799798 26.769343,0.595194281 26.769343,0.595194281 L25.7266734,0.222769738 L24.4619786,0 C24.4619786,0 26.1734042,2.53058084 23.7911379,4.31675932 C23.3560222,4.64317059 21.4608414,5.10702603 20.4335096,5.69283897 C21.3302471,5.6715448 22.7373001,6.02654684 23.8660398,5.65635595" id="Fill-1" fill="#FFFFFF"></path>
                    <g id="Group-5" transform="translate(19.358333, 36.579953)">
                        <mask id="mask-10" fill="white">
                            <use xlink:href="#path-9"></use>
                        </mask>
                        <g id="Clip-4"></g>
                        <path d="M0.568286198,8.49479385 C0.940264009,9.98315182 4.1122013,9.1476164 4.1122013,9.1476164 C4.1122013,9.1476164 2.39407481,3.74604588 1.90267097,2.27153656 C1.68421963,1.61588472 1.78756335,0.8400623 2.11114533,0.131398407 C-1.10382703,1.47456889 0.282378512,7.35160984 0.568286198,8.49479385" id="Fill-3" fill="#FFFFFF" mask="url(#mask-10)"></path>
                    </g>
                    <g id="Group-8" transform="translate(0.000000, 22.582389)">
                        <mask id="mask-12" fill="white">
                            <use xlink:href="#path-11"></use>
                        </mask>
                        <g id="Clip-7"></g>
                        <path d="M36.816288,11.5057889 C36.2668091,9.99985955 35.9232732,10.2369247 35.3341842,10.3545638 C35.1152862,10.3821122 34.9163421,10.3908979 34.7342248,10.3868773 C34.4378934,10.3660299 34.0630863,10.3052745 33.6138241,10.2120567 C33.5506861,10.19657 33.4900797,10.1821257 33.4318558,10.1696172 C32.935389,10.0628486 27.3299603,8.60814433 27.3299603,8.60814433 L27.3280245,8.61558984 C25.5686499,8.17273075 23.5984183,7.71051333 21.4919339,7.31024257 C10.4760001,5.21671332 12.2834727,2.23195622 4.49680671,2.84114806 C1.14230544,3.10337902 0.467741995,1.65746046 0.501693533,1.21594156 C0.488738341,0.854983108 0.808001923,0.464689335 1.38249768,0.0980722925 C-0.811248166,0.965474515 0.0210112367,4.78308667 1.04372685,5.54952774 C3.21007321,7.17488315 7.7892124,5.18171941 10.9900383,6.74259668 C18.0110078,10.165001 25.135321,11.0894359 29.3883467,11.3687915 C30.6519992,11.4681146 32.0334396,11.5507598 32.7225962,11.5057889 C31.6806712,11.654997 26.7681219,12.2501913 24.6099656,12.0269748 C23.2434163,11.8855101 22.027713,12.9071833 21.4694484,14.128992 C22.4409389,13.7233604 23.8317607,13.730657 25.800652,14.4083476 C30.6752292,16.086864 32.9540028,15.9446547 36.7488316,14.9768869 C37.8309624,14.7011051 37.6233815,13.7169573 36.816288,11.5057889" id="Fill-6" fill="#FFFFFF" mask="url(#mask-12)"></path>
                    </g>
                    <path d="M16.7952747,23.9657799 C17.183037,24.0117932 17.6367665,24.0557217 18.1388919,24.0968209 C17.6964796,23.836228 17.2455793,23.5958868 16.7525375,23.3921776 C10.8851757,19.9953858 3.82385149,21.1221897 1.3824679,22.6803866 C1.52125225,22.6255876 1.67120488,22.5816591 1.83485724,22.551877 C3.4725722,22.2542054 12.4052515,23.444594 16.7952747,23.9657799" id="Fill-9" fill="#FFFFFF"></path>
                    <path d="M13.5951636,16.9699018 C10.2457253,17.1931182 7.78840828,13.992888 11.064136,15.1831276 C11.9870818,15.5186224 13.4067921,16.1203688 15.0829259,16.8297772 C14.4420162,16.8999139 13.9315519,16.9474163 13.5951636,16.9699018 M31.23537,16.1507465 C32.7960983,15.3881771 32.9837252,14.2978562 33.3567454,12.7594644 L33.3219004,12.7843324 C33.3711897,12.5170385 32.8023526,12.1504214 28.4130739,12.7125576 C24.5001592,13.2134917 16.4977222,11.3875542 16.4977222,11.3875542 C16.7959895,10.0476597 25.8957461,13.1786467 27.5876644,11.0895848 C28.4476211,10.0283014 30.4159168,9.00603253 28.4805303,7.59138512 C26.5454415,6.17673772 19.3258258,6.99619084 19.8465649,6.17748227 C19.9546738,6.00772459 20.1647861,5.84615696 20.4335691,5.69292831 C19.9411229,5.70469222 19.6022032,5.82947901 19.54934,6.25149067 C19.3998342,7.44262378 18.8050866,8.48454882 19.6982503,8.93172631 C20.5917118,9.37845707 25.6527246,9.22895118 26.9921723,10.1964211 C28.33162,11.163891 24.2709863,10.3955141 22.2288311,9.97320462 C17.9119229,9.08018983 16.9448997,9.45201873 16.4232671,11.163891 C15.9022301,12.8757633 15.9899383,12.2962046 15.5432075,13.7848604 C16.1431669,14.9756957 16.6156592,13.3184734 23.7971539,15.0906544 C24.2048702,15.1911688 24.611693,15.2568382 25.0153887,15.2964483 C21.9802999,15.902662 18.8290612,16.370538 16.5353965,16.6582326 C15.8207762,16.2001847 15.0585046,15.7153329 14.1151582,15.1831276 C11.2125995,13.5457105 8.83107787,13.8433821 8.60801031,16.0019851 C8.38479384,18.1602903 7.37369323,19.7058298 9.87374746,20.0952301 C13.9750336,20.734204 18.0764687,20.3101076 21.6361683,19.5086727 C21.938754,19.6245248 22.2408929,19.7382923 22.5413938,19.8496771 C22.2924158,19.7025538 22.0523725,19.5730019 21.8227529,19.4660843 C26.0583561,18.4917645 29.5056285,16.9953654 31.23537,16.1507465" id="Fill-11" fill="#FFFFFF"></path>
                    <path d="M32.2765653,27.4642923 C37.1856896,27.2251424 36.5185717,26.4223672 36.8162433,24.1150029 C36.876403,23.6499561 36.6948815,22.949929 36.1586556,22.7165867 C35.8658981,22.5652939 35.4814118,22.4637371 35.0150249,22.387495 C34.1616202,22.2400739 33.0060767,22.1680013 31.8831445,22.0880365 C30.9948948,22.0107521 30.0052373,21.9075573 28.9268292,21.7331834 C27.1826434,21.4509984 24.9078904,20.7265501 22.5414086,19.8497665 C24.1838887,20.8208102 26.2066856,22.5498072 28.1064826,23.5358909 C28.3325284,23.6713992 29.2548785,24.18782 30.3017176,24.2664446 C30.3091631,24.2671891 30.3169064,24.2682315 30.3245008,24.2688271 C30.3513047,24.270763 30.3788531,24.2706141 30.4058058,24.2718054 C30.5606725,24.2799954 30.7133055,24.2793998 30.8622158,24.2637642 C29.8000389,24.5956852 22.2994295,24.4379892 18.1390259,24.0968358 C20.7684832,25.6452046 23.103247,27.9099806 32.2765653,27.4642923" id="Fill-13" fill="#FFFFFF"></path>
                </g>
            </g>
        </g>
    </g>
</svg>