<?xml version="1.0" encoding="UTF-8"?>
<svg width="96px" height="93px" viewBox="0 0 96 93" version="1.1" xmlns="http://www.w3.org/2000/svg" xmlns:xlink="http://www.w3.org/1999/xlink">
    <!-- Generator: sketchtool 51.2 (57519) - http://www.bohemiancoding.com/sketch -->
    <title>1707F434-8D81-4B04-A123-23A5E10E0468</title>
    <desc>Created with sketchtool.</desc>
    <defs>
        <polygon id="path-1" points="0.254768771 0.24133776 1.33062784 0.24133776 1.33062784 4.63210498 0.254768771 4.63210498"></polygon>
        <polygon id="path-3" points="0.0146666647 0.191459224 4.31831549 0.191459224 4.31831549 1.28909681 0.0146666647 1.28909681"></polygon>
        <polygon id="path-5" points="0.254768771 0.24133776 1.33062784 0.24133776 1.33062784 4.63210498 0.254768771 4.63210498"></polygon>
        <polygon id="path-7" points="0.0146666647 0.191459224 4.31831549 0.191459224 4.31831549 1.28909681 0.0146666647 1.28909681"></polygon>
        <polygon id="path-9" points="0.35275676 0.323220214 1.84240777 0.323220214 1.84240777 6.20371203 0.35275676 6.20371203"></polygon>
        <polygon id="path-11" points="0.0203076895 0.256418603 5.97920606 0.256418603 5.97920606 1.72646895 0.0203076895 1.72646895"></polygon>
        <polygon id="path-13" points="0.195975978 0.189622525 1.02355987 0.189622525 1.02355987 3.63951106 0.195975978 3.63951106"></polygon>
        <polygon id="path-15" points="0.0112820497 0.150432247 3.32178114 0.150432247 3.32178114 1.01286178 0.0112820497 1.01286178"></polygon>
        <polygon id="path-17" points="0 4.84705756e-05 80.5220668 4.84705756e-05 80.5220668 81.7537042 0 81.7537042"></polygon>
    </defs>
    <g id="FLUJO-" stroke="none" stroke-width="1" fill="none" fill-rule="evenodd">
        <g id="2.1.1.-confirmacion-mancha-gigas" transform="translate(-716.000000, -222.000000)">
            <g id="Group-2" transform="translate(628.000000, 222.000000)">
                <g id="Group-22" transform="translate(88.000000, 0.000000)">
                    <g id="Group-11" transform="translate(86.282955, 14.097095)">
                        <g id="Group-3" transform="translate(3.947549, 0.068591)">
                            <mask id="mask-2" fill="white">
                                <use xlink:href="#path-1"></use>
                            </mask>
                            <g id="Clip-2"></g>
                            <path d="M1.33062784,0.790218515 C1.33062784,0.486919842 1.08982732,0.241244818 0.792850133,0.241244818 C0.49556929,0.241244818 0.254768771,0.486919842 0.254768771,0.790218515 L0.254768771,4.08344109 C0.254768771,4.38642996 0.49556929,4.63210498 0.792850133,4.63210498 C1.08982732,4.63210498 1.33062784,4.38642996 1.33062784,4.08344109 L1.33062784,0.790218515 Z" id="Fill-1" fill="#DA272C" mask="url(#mask-2)"></path>
                        </g>
                        <path d="M5.27817733,6.14029558 C5.27817733,5.83699691 5.03737681,5.59163169 4.74039963,5.59163169 C4.44311878,5.59163169 4.20231826,5.83699691 4.20231826,6.14029558 L4.20231826,9.43351816 C4.20231826,9.73650703 4.44311878,9.98218205 4.74039963,9.98218205 C5.03737681,9.98218205 5.27817733,9.73650703 5.27817733,9.43351816 L5.27817733,6.14029558 Z" id="Fill-4" fill="#DA272C"></path>
                        <g id="Group-8" transform="translate(5.162180, 4.405855)">
                            <mask id="mask-4" fill="white">
                                <use xlink:href="#path-3"></use>
                            </mask>
                            <g id="Clip-7"></g>
                            <path d="M3.78032522,0.191459224 L0.552444369,0.191459224 C0.255467184,0.191459224 0.0146666647,0.437134247 0.0146666647,0.740123116 C0.0146666647,1.04342179 0.255467184,1.28909681 0.552444369,1.28909681 L3.78032522,1.28909681 C4.07760607,1.28909681 4.31840658,1.04342179 4.31840658,0.740123116 C4.31840658,0.437134247 4.07760607,0.191459224 3.78032522,0.191459224" id="Fill-6" fill="#DA272C" mask="url(#mask-4)"></path>
                        </g>
                        <path d="M0.537959899,5.69495152 L3.76584075,5.69495152 C4.06281794,5.69495152 4.30361846,5.44927649 4.30361846,5.14628762 C4.30361846,4.84298895 4.06281794,4.59731393 3.76584075,4.59731393 L0.537959899,4.59731393 C0.240679056,4.59731393 0.000182194592,4.84298895 0.000182194592,5.14628762 C0.000182194592,5.44927649 0.240679056,5.69495152 0.537959899,5.69495152" id="Fill-9" fill="#DA272C"></path>
                    </g>
                    <g id="Group-11-Copy-3" transform="translate(0.324481, 82.863874)">
                        <g id="Group-3" transform="translate(3.947549, 0.068591)">
                            <mask id="mask-6" fill="white">
                                <use xlink:href="#path-5"></use>
                            </mask>
                            <g id="Clip-2"></g>
                            <path d="M1.33062784,0.790218515 C1.33062784,0.486919842 1.08982732,0.241244818 0.792850133,0.241244818 C0.49556929,0.241244818 0.254768771,0.486919842 0.254768771,0.790218515 L0.254768771,4.08344109 C0.254768771,4.38642996 0.49556929,4.63210498 0.792850133,4.63210498 C1.08982732,4.63210498 1.33062784,4.38642996 1.33062784,4.08344109 L1.33062784,0.790218515 Z" id="Fill-1" fill="#DA272C" mask="url(#mask-6)"></path>
                        </g>
                        <path d="M5.27817733,6.14029558 C5.27817733,5.83699691 5.03737681,5.59163169 4.74039963,5.59163169 C4.44311878,5.59163169 4.20231826,5.83699691 4.20231826,6.14029558 L4.20231826,9.43351816 C4.20231826,9.73650703 4.44311878,9.98218205 4.74039963,9.98218205 C5.03737681,9.98218205 5.27817733,9.73650703 5.27817733,9.43351816 L5.27817733,6.14029558 Z" id="Fill-4" fill="#DA272C"></path>
                        <g id="Group-8" transform="translate(5.162180, 4.405855)">
                            <mask id="mask-8" fill="white">
                                <use xlink:href="#path-7"></use>
                            </mask>
                            <g id="Clip-7"></g>
                            <path d="M3.78032522,0.191459224 L0.552444369,0.191459224 C0.255467184,0.191459224 0.0146666647,0.437134247 0.0146666647,0.740123116 C0.0146666647,1.04342179 0.255467184,1.28909681 0.552444369,1.28909681 L3.78032522,1.28909681 C4.07760607,1.28909681 4.31840658,1.04342179 4.31840658,0.740123116 C4.31840658,0.437134247 4.07760607,0.191459224 3.78032522,0.191459224" id="Fill-6" fill="#DA272C" mask="url(#mask-8)"></path>
                        </g>
                        <path d="M0.537959899,5.69495152 L3.76584075,5.69495152 C4.06281794,5.69495152 4.30361846,5.44927649 4.30361846,5.14628762 C4.30361846,4.84298895 4.06281794,4.59731393 3.76584075,4.59731393 L0.537959899,4.59731393 C0.240679056,4.59731393 0.000182194592,4.84298895 0.000182194592,5.14628762 C0.000182194592,5.44927649 0.240679056,5.69495152 0.537959899,5.69495152" id="Fill-9" fill="#DA272C"></path>
                    </g>
                    <g id="Group-11-Copy-4" transform="translate(10.120567, 0.000000)">
                        <g id="Group-3" transform="translate(5.465838, 0.091863)">
                            <mask id="mask-10" fill="white">
                                <use xlink:href="#path-9"></use>
                            </mask>
                            <g id="Clip-2"></g>
                            <path d="M1.84240777,1.05832837 C1.84240777,0.652124788 1.50899167,0.323095739 1.09779249,0.323095739 C0.686172863,0.323095739 0.35275676,0.652124788 0.35275676,1.05832837 L0.35275676,5.46889431 C0.35275676,5.87468298 0.686172863,6.20371203 1.09779249,6.20371203 C1.50899167,6.20371203 1.84240777,5.87468298 1.84240777,5.46889431 L1.84240777,1.05832837 Z" id="Fill-1" fill="#DA272C" mask="url(#mask-10)"></path>
                        </g>
                        <path d="M7.30824553,8.22361016 C7.30824553,7.81740658 6.97482943,7.48879244 6.56363025,7.48879244 C6.15201062,7.48879244 5.81859452,7.81740658 5.81859452,8.22361016 L5.81859452,12.6341761 C5.81859452,13.0399648 6.15201062,13.3689938 6.56363025,13.3689938 C6.97482943,13.3689938 7.30824553,13.0399648 7.30824553,12.6341761 L7.30824553,8.22361016 Z" id="Fill-4" fill="#DA272C"></path>
                        <g id="Group-8" transform="translate(7.147634, 5.900698)">
                            <mask id="mask-12" fill="white">
                                <use xlink:href="#path-11"></use>
                            </mask>
                            <g id="Clip-7"></g>
                            <path d="M5.23429646,0.256418603 L0.764922972,0.256418603 C0.353723793,0.256418603 0.0203076895,0.585447653 0.0203076895,0.991236316 C0.0203076895,1.3974399 0.353723793,1.72646895 0.764922972,1.72646895 L5.23429646,1.72646895 C5.64591609,1.72646895 5.97933219,1.3974399 5.97933219,0.991236316 C5.97933219,0.585447653 5.64591609,0.256418603 5.23429646,0.256418603" id="Fill-6" fill="#DA272C" mask="url(#mask-12)"></path>
                        </g>
                        <path d="M0.744867552,7.62716721 L5.21424104,7.62716721 C5.62544022,7.62716721 5.95885633,7.29813816 5.95885633,6.8923495 C5.95885633,6.48614592 5.62544022,6.15711687 5.21424104,6.15711687 L0.744867552,6.15711687 C0.333247924,6.15711687 0.000252269435,6.48614592 0.000252269435,6.8923495 C0.000252269435,7.29813816 0.333247924,7.62716721 0.744867552,7.62716721" id="Fill-9" fill="#DA272C"></path>
                    </g>
                    <g id="Group-11-Copy-2" transform="translate(85.535490, 77.631619)">
                        <g id="Group-3" transform="translate(3.036577, 0.053893)">
                            <mask id="mask-14" fill="white">
                                <use xlink:href="#path-13"></use>
                            </mask>
                            <g id="Clip-2"></g>
                            <path d="M1.02355987,0.620885976 C1.02355987,0.382579876 0.838328706,0.1895495 0.609884718,0.1895495 C0.381207146,0.1895495 0.195975978,0.382579876 0.195975978,0.620885976 L0.195975978,3.208418 C0.195975978,3.44648068 0.381207146,3.63951106 0.609884718,3.63951106 C0.838328706,3.63951106 1.02355987,3.44648068 1.02355987,3.208418 L1.02355987,0.620885976 Z" id="Fill-1" fill="#DA272C" mask="url(#mask-14)"></path>
                        </g>
                        <path d="M4.06013641,4.82451796 C4.06013641,4.58621186 3.87490524,4.3934249 3.64646125,4.3934249 C3.41778368,4.3934249 3.23255251,4.58621186 3.23255251,4.82451796 L3.23255251,7.41204998 C3.23255251,7.65011266 3.41778368,7.84314304 3.64646125,7.84314304 C3.87490524,7.84314304 4.06013641,7.65011266 4.06013641,7.41204998 L4.06013641,4.82451796 Z" id="Fill-4" fill="#DA272C"></path>
                        <g id="Group-8" transform="translate(3.970908, 3.461743)">
                            <mask id="mask-16" fill="white">
                                <use xlink:href="#path-15"></use>
                            </mask>
                            <g id="Clip-7"></g>
                            <path d="M2.90794248,0.150432247 L0.424957207,0.150432247 C0.196513218,0.150432247 0.0112820497,0.343462623 0.0112820497,0.581525306 C0.0112820497,0.819831406 0.196513218,1.01286178 0.424957207,1.01286178 L2.90794248,1.01286178 C3.13662005,1.01286178 3.32185122,0.819831406 3.32185122,0.581525306 C3.32185122,0.343462623 3.13662005,0.150432247 2.90794248,0.150432247" id="Fill-6" fill="#DA272C" mask="url(#mask-16)"></path>
                        </g>
                        <path d="M0.413815307,4.47460476 L2.89680058,4.47460476 C3.12524457,4.47460476 3.31047574,4.28157439 3.31047574,4.0435117 C3.31047574,3.8052056 3.12524457,3.61217523 2.89680058,3.61217523 L0.413815307,3.61217523 C0.185137735,3.61217523 0.000140149686,3.8052056 0.000140149686,4.0435117 C0.000140149686,4.28157439 0.185137735,4.47460476 0.413815307,4.47460476" id="Fill-9" fill="#DA272C"></path>
                    </g>
                    <g id="Group-16" transform="translate(5.556736, 8.117375)">
                        <g id="Group-3" transform="translate(4.588285, 1.966408)">
                            <path d="M80.4739356,48.2160728 C80.7717065,46.5769595 79.6420189,45.1549943 78.4457651,43.6493367 C77.4304681,42.3705213 76.8156996,41.5479757 76.8156996,40.8768198 C76.8156996,40.2064717 77.4304681,39.3837645 78.4428569,38.1086652 C79.642342,36.5983221 80.7717065,35.1761954 80.4739356,33.5375668 C80.1713176,31.870179 78.590369,30.9508537 76.9165184,29.9775646 C75.5679055,29.192826 74.7321112,28.6843696 74.523203,28.124696 C74.3131638,27.560337 74.6241834,26.6245317 75.1491197,25.1444019 C75.7829532,23.3556761 76.3815649,21.666315 75.5493251,20.2453193 C74.7154696,18.8225463 72.9429007,18.5236444 71.0659584,18.2072931 C69.5413972,17.9508838 68.589112,17.7712195 68.2137882,17.3256134 C67.8392722,16.8816229 67.8242463,15.9146349 67.8310322,14.3739169 C67.8395953,12.4670844 67.8478353,10.67335 66.5982639,9.61895341 C65.3410987,8.55874036 63.5769313,8.86749792 61.7093601,9.19451274 C60.1733275,9.46287816 59.2089246,9.61184439 58.7075773,9.31843584 C58.2076841,9.025512 57.8627352,8.11652714 57.3411918,6.65772438 C56.6952406,4.84928721 56.087258,3.14683902 54.5224662,2.56406114 C52.9736698,1.98742285 51.3985376,2.86360929 49.730342,3.79068983 C48.3350357,4.56605748 47.4449544,5.0283052 46.8279239,4.91682287 C46.2154174,4.80582526 45.5468466,4.07181917 44.5071528,2.88348223 C43.2091108,1.40060575 41.983613,-3.23137171e-05 40.2608072,-3.23137171e-05 C38.5394555,-3.23137171e-05 37.3136347,1.39979791 36.0159158,2.88186654 C34.9752525,4.07149604 34.3070049,4.80517898 33.6932058,4.91633817 C33.080053,5.02765892 32.1885176,4.56605748 30.7946654,3.79182081 C29.1217842,2.86280145 27.5464905,1.98758442 25.9997945,2.56341486 C24.4346796,3.14635432 23.826697,4.84864093 23.1826846,6.65110007 C22.6606565,8.1136189 22.3152229,9.02502729 21.8140371,9.31795114 C21.3134977,9.61135969 20.3492563,9.46255502 18.8175861,9.19483588 C16.9450062,8.86701322 15.181162,8.55825565 13.9233506,9.61911498 C12.6739407,10.672219 12.6820191,12.466115 12.6907438,14.3653537 C12.6983375,15.9097878 12.6837964,16.8790378 12.3078263,17.3256134 C11.932664,17.7700885 10.9819945,17.9499144 9.46163408,18.2063237 C7.58000634,18.5228366 5.80646798,18.8212538 4.97228937,20.2453193 C4.14053429,21.6650224 4.7391459,23.354222 5.37281789,25.1424631 C5.89791579,26.6234007 6.20893532,27.5588828 5.99873459,28.1235651 C5.79031112,28.6840465 4.95354741,29.192826 3.60558071,29.9765952 C1.93027605,30.9511769 0.350458418,31.870179 0.0484867324,33.5369205 C-0.24928417,35.1763569 0.879757104,36.5981605 2.07536464,38.103495 C3.09082319,39.3815025 3.70656107,40.2050176 3.70656107,40.8761735 C3.70656107,41.5479757 3.09082319,42.3714907 2.07649562,43.6480441 C0.88024181,45.1537018 -0.249607307,46.5758285 0.0483251639,48.2160728 C0.350458418,49.8828143 1.93027605,50.801978 3.60283404,51.7747824 C4.95354741,52.5603289 5.79031112,53.0691084 5.99873459,53.6295898 C6.20893532,54.1941104 5.89791579,55.1297541 5.3733026,56.6093992 C4.73946904,58.398125 4.14069586,60.0874861 4.97245094,61.5084818 C5.80695268,62.9325473 7.58032947,63.2309645 9.45759487,63.5468311 C10.9800556,63.8027557 11.9321793,63.9822584 12.3078263,64.4281877 C12.6837964,64.8737939 12.6983375,65.8432054 12.6907438,67.3878011 C12.6820191,69.2867167 12.6739407,71.0804511 13.9235121,72.1346861 C15.1801926,73.194576 16.9437137,72.88598 18.8108003,72.5600962 C20.3465097,72.2909229 21.3125282,72.1408257 21.8145218,72.4353653 C22.3150613,72.7289354 22.6606565,73.6398591 23.1826846,75.1020548 C23.8276664,76.9062912 24.435649,78.6072852 25.999956,79.1895784 C27.5479447,79.7663782 29.1233999,78.8901918 30.7912724,77.9629497 C32.0490839,77.2644887 32.8966727,76.8201751 33.5014239,76.8201751 C33.5686364,76.8201751 33.632456,76.8256684 33.6936905,76.8369782 C34.3078127,76.9479758 34.9755757,77.6819819 36.0146232,78.8703189 C37.3136347,80.3538416 38.5394555,81.7536718 40.2608072,81.7536718 C41.983613,81.7536718 43.2091108,80.3531954 44.5069912,78.8703189 C45.5481392,77.6813357 46.2160637,76.9484606 46.8284086,76.8373014 C47.442854,76.7266269 48.3348741,77.1880668 49.730342,77.963596 C51.3995071,78.8906765 52.9752855,79.7662167 54.5224662,79.1902247 C56.087258,78.6074468 56.6952406,76.9049986 57.3390914,75.102701 C57.8627352,73.6377587 58.2076841,72.7289354 58.7072542,72.4360115 C59.2090862,72.1422798 60.1734891,72.2917308 61.705644,72.5591268 C63.5770929,72.8866263 65.3412603,73.1952223 66.5984254,72.1353324 C67.8478353,71.0810974 67.8395953,69.2873629 67.8310322,67.3882858 C67.8242463,65.8398125 67.8392722,64.8731476 68.2137882,64.4281877 C68.5887889,63.9838741 69.5386506,63.8040483 71.0575568,63.5479621 C72.9416081,63.230803 74.7149849,62.9323858 75.5493251,61.5083203 C76.3815649,60.0879708 75.7829532,58.3984481 75.1489581,56.6098839 C74.6241834,55.1297541 74.3131638,54.1939488 74.5230414,53.6300745 C74.7324343,53.0686236 75.5688749,52.5601673 76.9160337,51.7770444 C78.5900459,50.8037552 80.171156,49.8842684 80.4739356,48.2160728" id="Fill-1"></path>
                        </g>
                        <g id="Group-14">
                            <path d="M61.1752466,21.3042559 L61.1556968,21.2819595 C60.9395181,21.0207031 60.6212279,20.8707674 60.2827418,20.8707674 C59.659087,20.8707674 59.1517617,21.3780928 59.1517617,22.0017475 C59.1517617,22.2688204 59.2466024,22.5279764 59.4193192,22.7315528 L59.4370918,22.7525567 C59.4551875,22.7730759 59.4744141,22.7927873 59.4939639,22.8116908 L59.5109286,22.8289787 C64.1135329,27.735655 66.6482209,34.1452424 66.6482209,40.8768359 C66.6482209,47.9255886 63.9036553,54.552001 58.9200723,59.5354224 C53.9368124,64.5194901 47.3102385,67.2642173 40.2608395,67.2642173 C37.2089705,67.2642173 34.2178513,66.7476825 31.3708513,65.728831 L31.3482317,65.7201063 C31.3134944,65.7057267 31.2774646,65.6932859 31.2411117,65.6818146 L31.2307713,65.6787447 C31.1267211,65.6482083 31.019278,65.6328593 30.9113502,65.6328593 C30.2876955,65.6328593 29.7803701,66.1401846 29.7803701,66.7638394 C29.7803701,67.2603396 30.1125551,67.7062689 30.5883746,67.8481261 L30.6130946,67.8562046 C33.7035785,68.9613337 36.9494914,69.5218151 40.2608395,69.5218151 C47.9117583,69.5218151 55.1051149,66.5421673 60.5155621,61.1315585 C65.9260093,55.7211113 68.9058187,48.5279163 68.9058187,40.8768359 C68.9058187,33.5797523 66.1602838,26.6287487 61.1752466,21.3042559" id="Fill-1" fill="#000000"></path>
                            <path d="M55.4065857,16.7696882 C54.7830925,16.7696882 54.2756056,17.2770135 54.2756056,17.9006683 C54.2756056,18.524323 54.7830925,19.0316484 55.4065857,19.0316484 C56.0300789,19.0316484 56.5375658,18.524323 56.5375658,17.9006683 C56.5375658,17.2770135 56.0300789,16.7696882 55.4065857,16.7696882" id="Fill-3" fill="#000000"></path>
                            <path d="M50.0235405,13.9382957 L49.9978511,13.9297325 C46.8800621,12.8031148 43.6040975,12.2318083 40.2607588,12.2318083 C32.60984,12.2318083 25.416645,15.2116177 20.0060362,20.6220649 C14.595589,26.0326737 11.6157796,33.2258687 11.6157796,40.8767875 C11.6157796,48.157391 14.3504894,55.0969234 19.3158152,60.4172153 L19.3332646,60.4369267 C19.5496049,60.695598 19.8662794,60.8437564 20.202342,60.8437564 C20.8259968,60.8437564 21.3333221,60.336431 21.3333221,59.7127763 C21.3333221,59.4465112 21.2389661,59.1881631 21.0678649,58.9855561 L21.0436296,58.95712 C21.0282806,58.9398322 21.0121238,58.9235137 20.9956438,58.9075184 L20.9778712,58.8894228 C16.3964324,53.9864625 13.8733774,47.5894775 13.8733774,40.8767875 C13.8733774,33.8278732 16.6181045,27.2014608 21.6021722,22.2182009 C26.5854321,17.2341332 33.2118445,14.4894061 40.2607588,14.4894061 C43.3124662,14.4894061 46.302616,15.0057793 49.1494545,16.0243077 L49.1638341,16.0243077 L49.2552819,16.0629226 C49.3948772,16.1223798 49.5438434,16.1524316 49.6979798,16.1524316 C50.3216346,16.1524316 50.8289599,15.6451062 50.8289599,15.0214515 C50.8289599,14.525759 50.4979059,14.0803144 50.0235405,13.9382957" id="Fill-5" fill="#000000"></path>
                            <g id="Group-9">
                                <mask id="mask-18" fill="white">
                                    <use xlink:href="#path-17"></use>
                                </mask>
                                <g id="Clip-8"></g>
                                <path d="M78.2639681,47.8224109 L78.2638066,47.8228956 C78.1532937,48.4282931 77.2963339,48.9530679 75.7908378,49.828608 C74.3136162,50.6876682 72.9207334,51.4977731 72.419063,52.8460629 C71.9101219,54.2127716 72.4512151,55.740241 73.0242989,57.357381 C73.6553858,59.1360895 73.8851363,59.9067717 73.6125701,60.3725739 C73.3387114,60.8404765 72.5541343,61.0140012 70.6951262,61.3263133 C69.009158,61.6105124 67.4202925,61.8782315 66.4975743,62.9731818 C65.5704938,64.0721714 65.577926,65.6868878 65.5860044,67.396445 C65.5948907,69.2698328 65.5574067,70.0676584 65.144599,70.4174544 C64.7384156,70.7596567 63.9465679,70.6619077 62.1004853,70.3389321 C60.4138708,70.0432616 58.8241975,69.7653636 57.57091,70.4992081 C56.3281244,71.2275593 55.787516,72.7406491 55.2150785,74.3424401 C54.6206676,76.0062733 54.2854128,76.8829445 53.7378569,77.0858746 C53.1873927,77.2909052 52.36,76.8543469 50.8226749,75.9998106 C49.3086157,75.1588461 47.8788953,74.3642518 46.4339874,74.627447 C45.0089525,74.8857952 43.9442155,76.1027298 42.8167899,77.3912393 C41.6740153,78.6970366 40.9396861,79.4968011 40.2614212,79.4968011 C39.58251,79.4968011 38.8481808,78.6970366 37.706214,77.3922087 C36.577819,76.1024067 35.513082,74.8856336 34.0878855,74.627447 C32.6431392,74.3642518 31.2140651,75.1586845 29.7012984,75.9990028 C28.1620345,76.8543469 27.333834,77.2909052 26.7836929,77.0857131 C26.2367833,76.8829445 25.9015285,76.0062733 25.3079255,74.3443789 C24.7358111,72.7416185 24.1953642,71.2278824 22.9508014,70.4992081 C21.6996143,69.7660099 20.1110719,70.0434231 18.429143,70.3376395 C16.577567,70.6615845 15.7845884,70.7594951 15.3793743,70.4184238 C14.9649509,70.0679816 14.9273054,69.2699943 14.9361917,67.396445 C14.9442701,65.6868878 14.9517023,64.0721714 14.0247833,62.9733434 C13.101742,61.87807 11.5125534,61.6103508 9.82981657,61.326798 C7.9679002,61.0141627 7.18364628,60.8404765 6.90962596,60.3724123 C6.63689819,59.9067717 6.86681029,59.1360895 7.49789718,57.3577041 C8.07098095,55.740241 8.61207415,54.2127716 8.1031331,52.8462245 C7.6006548,51.4968037 6.20728732,50.6868603 4.73216614,49.8294159 C3.22263085,48.9509675 2.36760989,48.4271621 2.25822796,47.8222493 C2.14819975,47.2144283 2.75553607,46.4135328 3.83836872,45.0507018 C4.93315746,43.6721986 5.96477288,42.3733488 5.96477288,40.8769006 C5.96477288,39.379806 4.93202648,38.0801483 3.83885343,36.7043918 C2.75440509,35.338491 2.14819975,34.5387265 2.25838953,33.9318749 C2.36793303,33.3256696 3.22553908,32.8007332 4.73216614,31.9248699 C6.20777203,31.0664561 7.60081637,30.256028 8.1031331,28.9075766 C8.61207415,27.5415142 8.07098095,26.0140448 7.49789718,24.3970664 C6.86664872,22.6177116 6.63673662,21.8468679 6.9099491,21.3815503 C7.1825153,20.9149403 7.96499196,20.7410925 9.81947618,20.4286188 C11.5102914,20.1442581 13.1009342,19.8767005 14.0247833,18.7809424 C14.9517023,17.6816297 14.9442701,16.0670749 14.9361917,14.3578408 C14.9273054,12.4834836 14.9649509,11.6854964 15.3792128,11.3361851 C15.7821648,10.9951138 16.5727199,11.0922166 18.4155712,11.413738 C20.1084868,11.7102164 21.6979986,11.9884375 22.9506398,11.2544314 C24.1937485,10.5267265 24.734357,9.01395984 25.3067945,7.41233046 C25.9013669,5.74801246 26.2362986,4.87182602 26.7836929,4.66792647 C27.333834,4.4630575 28.1620345,4.89913111 29.6995212,5.75382893 C31.2129341,6.59495499 32.6416851,7.38922615 34.0875624,7.12700034 C35.5125973,6.86816746 36.5776574,5.65139445 37.7052446,4.36336969 C38.8481808,3.05741081 39.58251,2.25748474 40.2614212,2.25748474 C40.9396861,2.25748474 41.6740153,3.05741081 42.8161437,4.36223871 C43.9455081,5.65236386 45.0097603,6.86816746 46.4339874,7.12700034 C47.8788953,7.38906458 49.3082925,6.59511655 50.8218671,5.75415207 C52.3604847,4.89929268 53.1886853,4.46370378 53.7385032,4.66792647 C54.2858975,4.87182602 54.6209908,5.74801246 55.2142706,7.40926066 C55.7865465,9.01202102 56.3269935,10.5259187 57.5713947,11.2544314 C58.8237128,11.9884375 60.4133861,11.7100548 62.0962845,11.4155153 C63.9493146,11.0923781 64.739385,10.995437 65.143468,11.3361851 C65.5572452,11.6858195 65.5948907,12.4838068 65.5860044,14.3578408 C65.577926,16.0670749 65.5704938,17.6816297 66.4975743,18.781104 C67.4214235,19.8768621 69.0115815,20.1442581 70.6952878,20.4274878 C72.5567194,20.7409309 73.3395192,20.9147787 73.6128933,21.3823582 C73.8852979,21.8468679 73.6555474,22.6177116 73.0242989,24.3967433 C72.4512151,26.0140448 71.9101219,27.5415142 72.419063,28.907415 C72.9205719,30.2552202 74.3123237,31.0653251 75.7858292,31.9227696 C77.295526,32.7999254 78.1531321,33.3245386 78.2638066,33.9313902 C78.3739963,34.5387265 77.767791,35.338491 76.6867356,36.7000295 C75.590008,38.0801483 74.5575848,39.379806 74.5575848,40.8769006 C74.5575848,42.3733488 75.5888771,43.6721986 76.6810807,45.0469857 C77.7668216,46.4135328 78.3741579,47.2144283 78.2639681,47.8224109 M80.4739032,48.2161535 C80.7716741,46.5770402 79.641825,45.1549136 78.4457328,43.6494175 C77.4304358,42.3706021 76.8156673,41.5478949 76.8156673,40.8769006 C76.8156673,40.2063909 77.4304358,39.3838453 78.442663,38.1085844 C79.6421482,36.5982413 80.7716741,35.1762762 80.4739032,33.5376476 C80.1712853,31.8700982 78.5903367,30.9509345 76.9164861,29.9776454 C75.5678731,29.1927452 74.7320789,28.6842888 74.5231707,28.1246153 C74.3131315,27.5604178 74.624151,26.6246125 75.1490874,25.1443211 C75.7829209,23.3557569 76.3815325,21.6662342 75.5491312,20.2454001 C74.7154373,18.8224655 72.9427068,18.5237252 71.0659261,18.2073739 C69.5413649,17.950803 68.5890797,17.7711387 68.2137559,17.3255326 C67.8392399,16.8815421 67.824214,15.9147157 67.8309999,14.3739977 C67.8394014,12.4670036 67.8476414,10.6732692 66.5982316,9.6190342 C65.3410664,8.55882114 63.576899,8.86757871 61.7093277,9.19459352 C60.1731336,9.46279737 59.2088923,9.61176361 58.707545,9.31851663 C58.2074902,9.02559278 57.8625413,8.11660792 57.3411595,6.65780517 C56.6952083,4.84920642 56.0872257,3.14691981 54.5224339,2.56414192 C52.9736375,1.98750364 51.3985053,2.86352851 49.7303097,3.79077062 C48.3350034,4.56613826 47.4449221,5.02838598 46.8278916,4.91690366 C46.2153851,4.80574447 45.5468143,4.07173839 44.5069589,2.88340144 C43.2090785,1.40052497 41.9834192,4.84705756e-05 40.2607749,4.84705756e-05 C38.5394232,4.84705756e-05 37.3136023,1.39987869 36.0158835,2.88194733 C34.9752202,4.07141525 34.3069725,4.80525977 33.6931735,4.91625738 C33.0800207,5.02757814 32.1886468,4.56597669 30.7944715,3.7919016 C29.1217519,2.86272066 27.5464582,1.98766521 25.9997622,2.56349564 C24.4346473,3.14627353 23.8265031,4.84872172 23.1826523,6.65101928 C22.6606242,8.11353812 22.3151906,9.02494651 21.8138433,9.31803192 C21.3134653,9.6112789 20.349224,9.46247424 18.8173923,9.19475509 C16.9449739,8.867094 15.1811297,8.55833643 13.9233182,9.6190342 C12.6739084,10.6721382 12.6819868,12.4660342 12.6907115,14.3654345 C12.6981437,15.9097071 12.6837641,16.8791186 12.307794,17.3255326 C11.9326317,17.7701693 10.9818006,17.9498336 9.46160177,18.2062429 C7.57997402,18.5229174 5.80659723,18.821173 4.97241862,20.2454001 C4.14050198,21.6651032 4.73911359,23.3543028 5.37278558,25.1425439 C5.89788348,26.62332 6.20874144,27.5589636 5.99870228,28.1236458 C5.7902788,28.6839657 4.9535151,29.1927452 3.60554839,29.9765144 C1.93024373,30.9512577 0.350426105,31.8702598 0.0482928501,33.5368397 C-0.249316484,35.1762762 0.87972479,36.5982413 2.07517075,38.1034142 C3.09079088,39.3814217 3.70652876,40.2049368 3.70652876,40.8762543 C3.70652876,41.5480565 3.09079088,42.3715715 2.0764633,43.6479634 C0.880209496,45.153621 -0.249639621,46.5757477 0.0482928501,48.2161535 C0.350426105,49.8828951 1.93024373,50.8018972 3.60280173,51.7748632 C4.9535151,52.5602481 5.7902788,53.0691891 5.99870228,53.629509 C6.20874144,54.1941912 5.89788348,55.1298349 5.37327028,56.60948 C4.73943672,58.3980442 4.14066355,60.0874053 4.97241862,61.5084011 C5.80692037,62.9324666 7.58029716,63.2308837 9.45756255,63.5467503 C10.9800233,63.802675 11.9323086,63.9823392 12.307794,64.428107 C12.6837641,64.8737131 12.6981437,65.8431246 12.6907115,67.3878819 C12.6819868,69.2867975 12.6739084,71.0803703 13.9233182,72.1347669 C15.1801603,73.1944953 16.9436814,72.8860608 18.8106064,72.5600154 C20.3463158,72.2908422 21.3124959,72.1409065 21.8144895,72.435446 C22.315029,72.7288546 22.6606242,73.6399398 23.1826523,75.1021355 C23.8276341,76.9063719 24.4356167,78.6072044 25.9999237,79.1896592 C27.5479123,79.766459 29.1233676,78.890111 30.7912401,77.9630305 C32.0490516,77.2645695 32.8966404,76.8202559 33.5013916,76.8202559 C33.5684425,76.8202559 33.6324237,76.8257492 33.6936582,76.8368974 C34.3076188,76.9480566 34.9757049,77.6820627 36.0145909,78.8703997 C37.3136023,80.3539224 38.5394232,81.7537526 40.2607749,81.7537526 C41.9834192,81.7537526 43.2090785,80.3532761 44.5067973,78.8703997 C45.5481069,77.6814164 46.2160314,76.9485413 46.8283763,76.8373822 C47.4426601,76.7265461 48.3348418,77.1881475 49.7303097,77.9636768 C51.3994747,78.8907573 52.9750916,79.7662975 54.5224339,79.1903055 C56.0872257,78.607366 56.6952083,76.9050794 57.3388975,75.1027818 C57.8625413,73.6376779 58.2074902,72.7288546 58.7072219,72.4360923 C59.2088923,72.1421991 60.1734568,72.29165 61.7056117,72.5592076 C63.5770606,72.8867071 65.341228,73.1953031 66.5983931,72.1352516 C67.8476414,71.0810166 67.8394014,69.2874437 67.8309999,67.3883666 C67.824214,65.8398933 67.8392399,64.8730668 68.2137559,64.428107 C68.5887565,63.9837933 69.5386183,63.8041291 71.057363,63.5478813 C72.9415758,63.2307222 74.7149526,62.9324666 75.5491312,61.5082395 C76.3815325,60.0880516 75.7829209,58.3985289 75.1489258,56.6099647 C74.624151,55.1298349 74.3131315,54.1940296 74.5230091,53.6299937 C74.732402,53.0687044 75.568681,52.5600865 76.9160014,51.7771252 C78.5900135,50.8036744 80.1711237,49.8843492 80.4739032,48.2161535" id="Fill-7" fill="#000000" mask="url(#mask-18)"></path>
                            </g>
                            <path d="M37.7972741,40.6347416 L32.4761743,40.6347416 C31.7827219,40.6347416 31.218686,41.1989391 31.218686,41.8922299 C31.218686,42.5855207 31.7827219,43.1495566 32.4761743,43.1495566 L34.0724719,43.1495566 C34.9439728,43.1495566 35.6530974,43.8586811 35.6530974,44.7301821 L35.6530974,46.8363901 C35.6530974,47.3870159 35.3585578,47.9072667 34.8845156,48.1942125 C34.0483982,48.6999222 32.8800957,48.9564931 31.411922,48.9564931 C29.6228731,48.9564931 28.2044624,48.2880839 27.196436,46.9695226 C26.1985885,45.6643716 25.6925557,43.813765 25.6925557,41.4687586 L25.6925557,39.8220516 C25.7224458,37.4658969 26.1879249,35.6497044 27.0759059,34.4240451 C27.9760045,33.1815827 29.3055524,32.5514652 31.0275503,32.5514652 C33.2360313,32.5514652 34.6988733,33.4819387 35.375361,35.3171963 C35.6264385,35.9986926 36.2462156,36.438967 36.9540476,36.438967 C37.4946561,36.438967 37.977423,36.1817498 38.2782637,35.7335585 C38.5834668,35.278743 38.6387233,34.7255321 38.4301382,34.2159448 C38.0013352,33.1689804 37.3704099,32.2895626 36.5549732,31.6024114 C35.1821249,30.4457419 33.2977505,29.8594095 30.9537135,29.8594095 C28.1891134,29.8594095 26.0971234,30.7376963 24.5581826,32.5443562 C23.0339446,34.3335667 22.2613236,36.8619535 22.2613236,40.0592343 L22.2613236,41.7490801 C22.2902444,43.7405745 22.6801094,45.5078117 23.4196088,47.0013517 C24.1557153,48.4881058 25.2162515,49.6465525 26.5716503,50.4442166 C27.928988,51.2434964 29.5128448,51.6487104 31.2787895,51.6487104 C33.0045035,51.6487104 34.5667102,51.3887466 35.9221091,50.8756048 C37.0753856,50.439208 38.0254089,49.8186231 38.7455201,49.0312994 C38.9448957,48.8135049 39.0547624,48.5200964 39.0547624,48.2055223 L39.0547624,41.8922299 C39.0547624,41.1989391 38.4907264,40.6347416 37.7972741,40.6347416" id="Fill-10" fill="#DA272C"></path>
                            <path d="M51.9628482,38.3892614 C51.2811904,38.9377867 50.329713,39.2158462 49.1345902,39.2158462 L46.887979,39.2158462 C46.0163165,39.2158462 45.3073535,38.5067217 45.3073535,37.6352208 L45.3073535,34.4275996 C45.3073535,33.5560987 46.0163165,32.8471357 46.887979,32.8471357 L49.1051847,32.8471357 C50.4355404,32.8471357 51.3939653,33.090458 52.0349078,33.5908359 C52.6795665,34.0939605 53.0062582,34.912467 53.0062582,36.0240588 C53.0062582,37.0366092 52.6551696,37.8323344 51.9628482,38.3892614 M52.4780905,47.7526456 C51.7907777,48.3552964 50.8299293,48.6608226 49.6225273,48.6608226 L46.887979,48.6608226 C46.0163165,48.6608226 45.3073535,47.9518596 45.3073535,47.0803587 L45.3073535,43.222424 C45.3073535,42.3509231 46.0163165,41.6417985 46.887979,41.6417985 L49.9259531,41.6417985 C52.3131289,41.6928542 53.5234392,42.896217 53.5234392,45.217796 C53.5234392,46.2915809 53.1717044,47.1443399 52.4780905,47.7526456 M56.0028707,42.186931 C55.7852378,41.8881906 55.5317367,41.6198252 55.2493148,41.3889437 C54.8886938,41.0944042 54.6691221,40.6633392 54.6469872,40.2064232 C54.625337,39.76421 54.7857746,39.3494635 55.0984098,39.0382824 C55.2995627,38.8382605 55.4810042,38.6191735 55.6374026,38.3873225 C56.1558762,37.6195486 56.4079232,36.7787457 56.4079232,35.8170895 C56.4079232,33.9212437 55.8047876,32.5367625 54.5645872,31.5848004 C53.3279412,30.6360697 51.491068,30.1549184 49.1051847,30.1549184 L43.1481509,30.1549184 C42.4548601,30.1549184 41.8908242,30.7189543 41.8908242,31.4122451 L41.8908242,50.0957132 C41.8908242,50.789004 42.4548601,51.3530399 43.1481509,51.3530399 L49.5779344,51.3530399 C51.9421675,51.3530399 53.7795254,50.8188942 55.0394372,49.7649823 C56.3083969,48.7031536 56.9254273,47.2206002 56.9254273,45.2326604 C56.9254273,44.051594 56.6150541,43.026926 56.0028707,42.186931" id="Fill-12" fill="#DA272C"></path>
                        </g>
                    </g>
                </g>
            </g>
        </g>
    </g>
</svg>