<?xml version="1.0" encoding="UTF-8"?>
<svg width="1013px" height="722px" viewBox="0 0 1013 722" version="1.1" xmlns="http://www.w3.org/2000/svg" xmlns:xlink="http://www.w3.org/1999/xlink">
    <!-- Generator: sketchtool 51.2 (57519) - http://www.bohemiancoding.com/sketch -->
    <title>983BA58F-F718-4028-936E-995EFAC6B494</title>
    <desc>Created with sketchtool.</desc>
    <defs>
        <polygon id="path-1" points="7.51951916e-05 0.082925636 62.8759459 0.082925636 62.8759459 44.8484528 7.51951916e-05 44.8484528"></polygon>
        <polygon id="path-3" points="-4.34259204e-05 0.0298181818 45.8373405 0.0298181818 45.8373405 20.3144018 -4.34259204e-05 20.3144018"></polygon>
        <polygon id="path-5" points="4.77429788e-05 0.0531242355 39.9212355 0.0531242355 39.9212355 28.7310401 4.77429788e-05 28.7310401"></polygon>
        <polygon id="path-7" points="-2.7572013e-05 0.0191022727 29.1030734 0.0191022727 29.1030734 13.0139137 -2.7572013e-05 13.0139137"></polygon>
        <polygon id="path-9" points="4.77429788e-05 0.0531242355 39.9212355 0.0531242355 39.9212355 28.7310401 4.77429788e-05 28.7310401"></polygon>
        <polygon id="path-11" points="-2.7572013e-05 0.0191022727 29.1030734 0.0191022727 29.1030734 13.0139137 -2.7572013e-05 13.0139137"></polygon>
        <polygon id="path-13" points="0 0 43 0 43 45 0 45"></polygon>
    </defs>
    <g id="FLUJO-" stroke="none" stroke-width="1" fill="none" fill-rule="evenodd">
        <g id="2.1.-Arma-tu-mancha" transform="translate(-137.000000, -682.000000)">
            <g id="Group-28" transform="translate(137.000000, 682.000000)">
                <g id="Group-21" transform="translate(173.000000, 534.000000)">
                    <path d="M6.6608713,30.0088432 C6.6608713,30.0088432 12.0526701,28.9913166 17.749895,30.1107219 C19.0089896,30.3581716 20.160534,30.6024704 21.2083092,30.8576923 C16.9094482,28.1674645 10.9372559,27.1940503 9.10217899,26.245003 C7.77964645,28.2798462 6.6608713,30.0088432 6.6608713,30.0088432" id="Fill-1" fill="#DA272C"></path>
                    <path d="M24.9730317,55.3416012 C24.565937,52.5946574 31.8917506,39.4703704 28.5339547,34.587755 C27.3011175,32.7940598 24.9018216,31.7574178 21.2083512,30.8577343 C23.8216973,32.4928349 25.8170494,34.7618941 25.8882595,38.0463793 C25.9918186,42.788255 22.3842624,49.4929237 23.5484104,54.7317994 C24.5632062,59.2976456 36.408653,55.4390686 41.9176648,49.3336988 C37.7099695,51.8205893 32.4650021,53.732758 30.5685879,54.7307491 C28.6358334,55.7486959 25.3597506,57.9526367 24.9730317,55.3416012" id="Fill-3" fill="#DA272C"></path>
                    <path d="M38.0637932,36.0349157 C38.8296689,31.9490547 46.8490979,34.7382204 45.1942518,42.8133151 C41.197666,40.2520636 37.7556364,37.679679 38.0637932,36.0349157 M56.2360121,50.0716997 C55.1000121,48.8048328 51.2971009,46.6011021 47.4601601,44.2343654 C50.5992843,37.5383092 45.4946364,32.9588092 42.7773109,32.9588092 C40.8340536,32.9588092 37.4869707,34.282392 37.4869707,36.9276672 C37.4869707,39.5723121 38.8099234,41.7084038 38.8099234,41.7084038 C38.8099234,41.7084038 39.6684352,43.4676494 43.9446098,46.3855814 C43.924024,46.4278033 43.9055388,46.469395 43.8845328,46.5118269 C43.4030772,47.488182 42.7285772,48.4351287 41.9177488,49.3337618 C43.0850476,48.6437175 44.1718938,47.9097707 45.0860713,47.1384334 C45.8240092,47.6100163 46.6447104,48.1065962 47.5588879,48.6271228 C50.2083642,50.1351376 53.7701275,51.9296731 54.5788553,52.7986879 C57.3260092,55.7477086 58.0383198,55.6464601 58.4447843,54.9339393 C58.8516689,54.2224689 59.7028287,52.2304778 60.1742015,51.1705192 C60.3090595,50.8669837 60.3254441,50.5668092 60.2515033,50.2674749 C60.2361689,50.3823772 60.215163,50.4907678 60.1834441,50.5863447 C59.9658228,51.2408891 58.809447,52.941318 56.2360121,50.0716997" id="Fill-5" fill="#DA272C"></path>
                    <path d="M51.4517885,21.7726541 C44.3036849,22.4799234 43.3905577,20.1449056 42.6755163,17.0883346 C39.3181405,2.74360385 37.9953979,3.86279911 34.8615251,0.52642929 C32.9943092,-1.46220089 32.2011257,2.43859793 31.1260429,7.94802988 C32.556966,4.87759497 33.7862322,2.44468964 34.2311376,1.72607722 C35.5534601,-0.410014497 35.3505429,2.53942633 36.3678595,6.7116216 C37.2309926,10.2500683 41.5565311,16.376234 43.4901257,21.5649056 C45.4230902,26.7533672 48.429037,25.9767784 50.204037,26.0412666 C52.3054689,26.1185683 63.5900577,24.981308 65.9738092,24.4130979 C67.6927234,24.0039027 69.9546405,22.7292636 70.6671612,22.776947 C70.5505784,20.0222311 53.8672589,21.5338169 51.4517885,21.7726541" id="Fill-7" fill="#DA272C"></path>
                    <path d="M70.6670562,22.7769891 C70.6672663,22.7816104 70.6685266,22.7860216 70.6687367,22.7906429 C70.6737781,23.0051133 69.6938521,24.0904891 69.4325385,24.3112612 C65.3817574,27.7392169 58.699145,30.742853 56.0511391,33.1379476 C56.5456183,32.8045837 57.1568905,32.5688973 57.9362101,32.4510541 C61.2937959,31.9425009 67.9064586,29.9076577 69.4325385,28.4830364 C70.9586183,27.0588352 70.6792396,24.0930098 70.882997,23.0754831 C70.9226982,22.8769772 70.8399349,22.7885423 70.6670562,22.7769891" id="Fill-9" fill="#DA272C"></path>
                    <path d="M4.29678136,21.4630899 C1.04170444,21.8697645 2.10059172e-05,22.5829154 2.10059172e-05,22.5829154 L2.10059172e-05,26.0413296 C2.10059172e-05,26.0413296 19.7441127,24.4316462 24.8466601,24.2306195 C24.7739796,24.6570396 24.7496127,25.0280041 24.7580151,25.329229 C24.8523317,28.7386994 26.6288021,30.9130219 28.1040476,30.8684893 C27.2825062,29.4634036 26.7338317,27.2762675 27.0602636,24.4091698 C28.0807311,24.683297 29.166947,25.2279805 30.0739825,25.9636077 C29.8597222,24.7022024 29.1736689,23.5212497 27.7192192,22.8877112 C27.5982251,22.8349864 27.4719796,22.7831018 27.342163,22.7320574 C27.5263849,21.882368 27.7832873,20.9845751 28.1269441,20.0388888 C29.5381216,16.1580456 30.3968435,11.6833651 31.1259589,7.9480929 C29.0417518,12.4204627 26.5178908,18.2462438 25.3760092,22.1083917 C20.5767873,20.8581195 12.5878169,20.4264479 4.29678136,21.4630899" id="Fill-11" fill="#DA272C"></path>
                    <path d="M28.4322441,30.8228225 C28.3270044,30.8509704 28.2192441,30.8652544 28.1100133,30.8684053 C29.1451849,32.638574 30.6076169,33.167503 31.2806464,32.2474438 C33.0621583,29.8126479 31.9480044,27.4824615 30.0753269,25.9637337 C30.4452411,28.1437278 29.3991464,30.5648698 28.4322441,30.8228225" id="Fill-13" fill="#DA272C"></path>
                    <path d="M53.2561547,39.0632547 C52.8492701,40.3859973 53.1549062,43.6414944 55.291208,45.5750891 C57.1773293,47.2818198 59.8799506,48.7608464 60.2515453,50.2673908 C60.6569595,47.2305654 55.5050482,37.6842163 54.9446104,35.1607754 C54.808282,34.5469825 55.2405837,33.8710121 56.0512021,33.1379056 C54.4154713,34.2407163 54.0688737,36.4249115 53.2561547,39.0632547" id="Fill-15" fill="#DA272C"></path>
                    <path d="M27.0603056,24.4091488 C27.0603056,24.4091488 25.9799713,24.1764033 24.8467021,24.2305985 C25.1155778,22.7534624 25.3758411,22.1083707 25.3758411,22.1083707 L27.342205,22.7320364 L27.0603056,24.4091488 Z" id="Fill-17" fill="#AF0000"></path>
                    <path d="M45.1943148,42.8132311 C44.946655,44.1559293 43.9446728,46.3854973 43.9446728,46.3854973 L45.0859243,47.1385595 C45.0859243,47.1385595 46.6720811,45.3419234 47.4602231,44.2342814 L45.1943148,42.8132311 Z" id="Fill-19" fill="#AF0000"></path>
                </g>
                <g id="Group-21-Copy" transform="translate(876.000000, 678.000000)">
                    <path d="M5.15982988,23.1647211 C5.15982988,23.1647211 9.33657544,22.3792619 13.7499186,23.2433643 C14.7252737,23.4343781 15.6173151,23.6229596 16.4289719,23.819973 C13.0988683,21.7433059 8.47252219,20.9918985 7.05098373,20.2593005 C6.02648669,21.8300567 5.15982988,23.1647211 5.15982988,23.1647211" id="Fill-1" fill="#DA272C"></path>
                    <path d="M19.3453062,42.7198325 C19.0299512,40.5993847 24.7048772,30.4683561 22.1037678,26.6993197 C21.148753,25.3147128 19.2901435,24.5144979 16.4290044,23.8200054 C18.4534275,25.0821884 19.9991228,26.8337428 20.0542855,29.3691349 C20.1345074,33.0295302 17.3399216,38.2050639 18.2417263,42.2491083 C19.0278358,45.7736211 28.2038861,42.7950705 32.4714305,38.0821535 C29.2119482,40.0018584 25.1489453,41.4779184 23.679892,42.2482976 C22.1826879,43.034081 19.6448772,44.7353687 19.3453062,42.7198325" id="Fill-3" fill="#DA272C"></path>
                    <path d="M29.486037,27.8164261 C30.079321,24.6624282 36.2915547,26.8154684 35.0096317,33.0488748 C31.9136849,31.0717684 29.247324,29.086068 29.486037,27.8164261 M43.563108,38.6518384 C42.683108,37.6739061 39.7371908,35.9727805 36.7649127,34.1458259 C39.1966287,28.9769404 35.242324,25.4418878 33.1373536,25.4418878 C31.6320133,25.4418878 29.0392027,26.4636009 29.0392027,28.5055676 C29.0392027,30.547048 30.0640251,32.1959609 30.0640251,32.1959609 C30.0640251,32.1959609 30.7290695,33.553975 34.0415991,35.8064137 C34.0256524,35.839006 34.0113328,35.8711119 33.9950607,35.9038664 C33.6221021,36.657544 33.0996021,37.3885204 32.4714956,38.0822021 C33.3757411,37.5495363 34.2176642,36.9829809 34.9258299,36.3875626 C35.4974719,36.7515915 36.1332263,37.1349163 36.841392,37.5367264 C38.8938033,38.700808 41.6529157,40.0860634 42.279395,40.7568819 C44.4074719,43.0333189 44.9592618,42.9551622 45.2741287,42.4051462 C45.589321,41.8559409 46.2486701,40.3182636 46.613818,39.5000499 C46.7182855,39.2657418 46.7309778,39.0340281 46.6736997,38.802963 C46.661821,38.8916596 46.6455488,38.9753295 46.6209778,39.0491082 C46.4523979,39.5543705 45.5566139,40.8669824 43.563108,38.6518384" id="Fill-5" fill="#DA272C"></path>
                    <path d="M39.8570192,16.8069611 C34.3197559,17.3529233 33.6124038,15.5504535 33.0584985,13.1909951 C30.4577145,2.11786964 29.4330547,2.98180984 27.0054068,0.406366469 C25.5589719,-1.12871647 24.944534,1.88242647 24.1117234,6.13532131 C25.2201849,3.76516103 26.1724334,1.88712885 26.5170784,1.33241048 C27.5414127,-0.316502419 27.3842234,1.96025892 28.1722855,5.18090088 C28.8409098,7.91233346 32.191679,12.6413035 33.689534,16.6465938 C35.1869009,20.651722 37.5154512,20.05225 38.8904512,20.1020303 C40.518321,20.1617019 49.2599038,19.2838167 51.1064719,18.8451984 C52.4380251,18.5293284 54.1902145,17.5453965 54.7421672,17.5822047 C54.6518565,15.4557573 41.7281583,16.6225955 39.8570192,16.8069611" id="Fill-7" fill="#DA272C"></path>
                    <path d="M54.7420858,17.5822372 C54.7422485,17.5858045 54.7432249,17.5892097 54.7433876,17.592777 C54.7472929,17.7583331 53.9881953,18.596167 53.7857692,18.7665876 C50.6478402,21.4127288 45.4711686,23.7313251 43.4198964,25.5801701 C43.8029438,25.3228366 44.2764645,25.1409032 44.8801627,25.0499365 C47.4811095,24.6573691 52.6035947,23.086613 53.7857692,21.9869053 C54.9679438,20.8875219 54.7515237,18.5981128 54.9093639,17.8126536 C54.9401183,17.659421 54.8760059,17.5911555 54.7420858,17.5822372" id="Fill-9" fill="#DA272C"></path>
                    <path d="M3.3284926,16.5679993 C0.806954142,16.8819235 1.62721893e-05,17.4324259 1.62721893e-05,17.4324259 L1.62721893e-05,20.102079 C1.62721893e-05,20.102079 15.2947352,18.8595163 19.2474127,18.7043379 C19.1911109,19.0335043 19.1722352,19.3198628 19.1787441,19.5523873 C19.2518062,22.1842592 20.6279453,23.8626836 21.7707411,23.8283076 C21.1343358,22.7436799 20.7093062,21.0553644 20.962176,18.8421662 C21.752679,19.0537732 22.5941139,19.4742305 23.296747,20.0420831 C23.1307707,19.0683667 22.599321,18.1567542 21.4726346,17.6677069 C21.3789068,17.627007 21.2811109,17.5869558 21.1805488,17.5475531 C21.3232559,16.8916525 21.5222648,16.1986194 21.7884778,15.4686159 C22.8816435,12.4728773 23.5468506,9.01873796 24.1116583,6.13536996 C22.4971317,9.58772561 20.5420281,14.0848198 19.6574719,17.0661269 C15.9397648,16.1010045 9.75112574,15.7677844 3.3284926,16.5679993" id="Fill-11" fill="#DA272C"></path>
                    <path d="M22.0249778,23.793056 C21.9434541,23.8147842 21.8599778,23.8258104 21.7753624,23.8282427 C22.5772559,25.1946887 23.7101257,25.6029847 24.2314867,24.8927636 C25.6115311,23.0132721 24.7484541,21.2145317 23.2977885,20.0421804 C23.5843417,21.7249829 22.7739867,23.5939346 22.0249778,23.793056" id="Fill-13" fill="#DA272C"></path>
                    <path d="M41.2547678,30.1540914 C40.9395754,31.1751558 41.1763358,33.6881711 42.8312175,35.1807705 C44.2922973,36.4982469 46.3858772,37.6399516 46.6737322,38.8028982 C46.9877855,36.4586821 42.9968683,29.0895705 42.5627263,27.1416512 C42.4571198,26.6678462 42.7920015,26.1460445 43.4199453,25.5801377 C42.1528299,26.4314301 41.8843388,28.1174756 41.2547678,30.1540914" id="Fill-15" fill="#DA272C"></path>
                    <path d="M20.9622086,18.84215 C20.9622086,18.84215 20.1253299,18.6624867 19.2474453,18.7043217 C19.4557293,17.5640763 19.6573417,17.0661107 19.6573417,17.0661107 L21.1805814,17.5475369 L20.9622086,18.84215 Z" id="Fill-17" fill="#AF0000"></path>
                    <path d="M35.0096805,33.0488099 C34.8178314,34.0852788 34.0416479,35.8063488 34.0416479,35.8063488 L34.925716,36.3876599 C34.925716,36.3876599 36.154429,35.000783 36.7649615,34.1457611 L35.0096805,33.0488099 Z" id="Fill-19" fill="#AF0000"></path>
                </g>
                <g id="Group-15" transform="translate(0.000000, 282.000000)">
                    <g id="Group-3" transform="translate(0.000000, 19.121697)">
                        <mask id="mask-2" fill="white">
                            <use xlink:href="#path-1"></use>
                        </mask>
                        <g id="Clip-2"></g>
                        <path d="M11.9769324,22.2433212 C3.92485135,22.7303515 1.49752703,23.1293818 2.22944595,20.6961697 C2.87282432,18.5587152 15.2205811,19.0285333 24.9109054,19.9996848 C19.1506622,20.0663515 14.1819324,22.1102303 11.9769324,22.2433212 M29.5476081,30.2697455 C23.4468243,30.2697455 10.1603919,34.4925333 10.4046081,32.7902303 C10.6293649,31.2241697 20.4374189,28.3960485 30.6448784,30.1832 C30.7000946,30.192897 30.7562838,30.2038061 30.8122297,30.2147152 C30.3019054,30.2493818 29.8696622,30.2697455 29.5476081,30.2697455 M40.1639595,10.5247758 C17.4946622,10.4452606 1.86993243,5.74174545 1.61987838,3.62950303 C1.46882432,2.34635152 4.41328378,-0.399345455 10.1333919,5.41229091 C14.4991216,9.8481697 23.9043649,8.77689697 30.0764189,8.56865455 C37.7273919,8.30950303 43.8308514,8.52210909 48.5850405,9.01713939 C45.8385811,9.93956364 42.845473,10.5339879 40.1639595,10.5247758 M57.1408784,6.76089697 C58.5706622,4.64404848 59.0710135,2.5262303 57.7562838,1.17059394 C57.8535811,1.69010909 57.8419054,2.24332121 57.6974189,2.83483636 C57.4648784,3.78732121 56.5366622,4.81859394 55.1630676,5.80744242 C49.9221486,3.56695758 42.7255541,2.52744242 35.8872568,3.65010909 C13.7287703,7.28889697 12.7015541,2.76768485 10.5055541,1.31241212 C6.00214865,-1.67231515 1.86360811,1.48041212 0.937824324,3.35701818 C-2.46077027,10.2484121 3.7845,12.2396848 13.1272297,13.5482909 C28.6617162,15.725503 44.7208784,16.3638061 51.8260135,11.8164121 C52.7106892,11.2501091 53.5742027,10.5890182 54.3720405,9.87459394 C62.1468243,11.4530182 63.8103649,13.9747152 61.3937432,15.4336242 C59.7669324,16.4166545 52.7048514,18.2093818 44.3584459,19.2956848 C36.5189595,16.7012606 26.0509865,15.0792 14.5927703,15.7667152 C2.66217568,16.4830788 1.12536486,18.7036848 2.12412162,22.5667152 C3.02339189,26.0428364 3.19536486,29.4947152 10.8628784,28.0098667 C12.3267162,27.7257455 18.4002568,25.3807758 25.7632297,25.6583515 C33.2884459,25.9424727 41.9415811,25.0792 48.9679054,23.3555636 C54.3547703,24.3773818 57.1121757,25.3313212 56.0273108,26.1967758 C55.5999324,26.5364121 55.857527,27.5907152 42.7844189,28.9453818 C40.6969054,29.1618667 37.1611216,29.5948364 34.1796892,29.9070788 C23.1493378,27.8244121 8.37085135,28.3865939 8.57517568,31.6954424 C8.74909459,34.5308364 10.3934189,36.6442909 12.9413919,38.1296242 C16.6617973,40.2988364 20.5532027,36.8132606 37.8981486,36.0379879 C39.099527,35.9844121 40.3033378,35.9458667 41.4959595,35.9036848 C43.0167162,37.3582303 43.6856351,38.7099879 42.6776351,39.4406545 C39.9929595,41.3865939 22.8783649,38.488897 22.8783649,38.488897 L23.9712568,44.0673212 C27.111527,45.1562909 40.0024459,46.3402909 45.2718243,38.3526545 C45.9023108,37.3970182 46.0667432,36.5116848 45.8531757,35.6961697 C49.5772297,35.4392 53.0013649,34.9034424 55.6493108,33.4527758 C60.7934189,30.6360485 58.6489865,26.2559273 51.9532297,22.5400485 C56.8176081,21.0627152 60.5399595,19.125503 61.9578243,16.8481697 C64.3238514,13.0469576 61.9038243,9.34829091 57.1408784,6.76089697" id="Fill-1" fill="#DA272C" mask="url(#mask-2)"></path>
                    </g>
                    <g id="Group-6" transform="translate(11.918919, 0.212606)">
                        <mask id="mask-4" fill="white">
                            <use xlink:href="#path-3"></use>
                        </mask>
                        <g id="Clip-5"></g>
                        <path d="M31.0323405,15.3472485 C18.4639622,15.4689455 0.143124324,16.0478545 1.39996216,12.3324606 C2.04601622,10.4253091 18.5332865,11.1928242 33.4513946,15.3043394 C32.7211784,15.324703 31.9179892,15.3387636 31.0323405,15.3472485 M40.4193405,15.1540364 C40.5236919,14.7002182 40.6224486,14.180703 40.7265568,13.5790061 C41.4981243,9.11888485 29.0207189,3.15064242 25.0242324,1.46724848 C15.3302595,-2.61517576 15.1925838,3.09973333 15.7389081,5.00567273 C17.9232324,4.32446061 23.2490432,5.27694545 30.6219892,9.08785455 C36.4593405,12.1036121 40.0099622,13.7266424 39.0126649,14.560097 C37.1134216,13.8051879 35.1061784,13.1688242 33.3939892,12.5748848 C29.8842324,11.3581576 1.88863784,4.79233939 0.180097297,13.0616727 C-1.52722703,21.3317333 9.22485405,19.5033697 18.7432054,20.1106424 C28.1956378,20.7140364 33.7493676,19.8655515 36.3571784,19.0219152 C38.0759351,18.4662788 39.0092595,18.0781576 39.6095838,17.2417939 C41.4759892,17.9108848 43.2733135,18.6393697 44.9594757,19.4301576 C45.3148541,19.6190061 45.6028541,19.8379152 45.8373405,20.0796121 C45.4376919,17.9467636 43.1684757,16.3925818 40.4193405,15.1540364" id="Fill-4" fill="#DA272C" mask="url(#mask-4)"></path>
                    </g>
                    <path d="M55.1630676,24.9291879 C53.4856622,26.1364606 51.1427432,27.2799758 48.5850405,28.1388848 C50.801473,28.3694303 52.7243108,28.6615515 54.3720405,28.996097 C55.4564189,28.0251879 56.4169865,26.9544 57.1408784,25.8826424 C56.5196351,25.5451879 55.8587432,25.2266424 55.1630676,24.9291879" id="Fill-7" fill="#AF0000"></path>
                    <path d="M52.3382108,15.3666909 C51.880427,15.1603879 51.4095081,14.9628121 50.9315351,14.7727515 C50.4131838,15.2059636 48.6642649,15.4258424 45.3702649,15.5169939 C47.4706703,16.095903 49.5389676,16.7409939 51.5284541,17.4544485 C51.8840757,16.9586909 52.1224541,16.3051152 52.3382108,15.3666909" id="Fill-9" fill="#AF0000"></path>
                    <path d="M34.1797622,49.0287273 C32.9017622,49.1625455 31.7281135,49.2735758 30.8120595,49.3363636 C34.2442216,49.9945455 39.0091135,52.6466667 41.4960324,55.0253333 C42.9744649,54.9732121 44.435627,54.9157576 45.8530054,54.8178182 C45.1417622,52.1050909 40.2243568,50.1700606 34.1797622,49.0287273" id="Fill-11" fill="#AF0000"></path>
                    <path d="M26.8444703,39.1758788 C26.1918486,39.1298182 25.5467676,39.1140606 24.9109297,39.1213333 C26.2409838,39.2546667 27.521173,39.3974545 28.7140378,39.5441212 C37.0295514,40.5673939 44.0806865,41.5501818 48.9679297,42.4772121 C50.001227,42.2238788 50.9992541,41.9516364 51.9532541,41.661697 C49.8440919,40.4912727 47.2861459,39.386303 44.3584703,38.4173333 C38.6789838,39.1564848 32.4052541,39.5688485 26.8444703,39.1758788" id="Fill-13" fill="#AF0000"></path>
                </g>
                <g id="Group-15-Copy" transform="translate(847.000000, 0.000000)">
                    <g id="Group-3" transform="translate(0.000000, 12.249837)">
                        <mask id="mask-6" fill="white">
                            <use xlink:href="#path-5"></use>
                        </mask>
                        <g id="Clip-2"></g>
                        <path d="M7.60440154,14.2496277 C2.49196911,14.5616314 0.950810811,14.8172602 1.41552124,13.2584837 C1.82401544,11.8891769 9.663861,12.1901542 15.8164479,12.8122981 C12.1591506,12.8550064 9.00440154,14.1643663 7.60440154,14.2496277 M18.7603861,19.3915557 C14.8868726,19.3915557 6.45104247,22.0967792 6.60610039,21.0062413 C6.74880309,20.0029837 12.976139,18.1912186 19.4570656,19.3361125 C19.4921236,19.3423246 19.5277992,19.3493133 19.5633205,19.3563019 C19.239305,19.3785102 18.9648649,19.3915557 18.7603861,19.3915557 M25.5009266,6.74243447 C11.107722,6.69149508 1.18725869,3.67830568 1.02849421,2.32515038 C0.932586873,1.50313144 2.80208494,-0.255830682 6.43389961,3.46724886 C9.20579151,6.30898371 15.1773745,5.62269962 19.096139,5.48929432 C23.9538996,5.32327538 27.829112,5.45947614 30.8476448,5.77660492 C29.103861,6.36753295 27.2034749,6.74833598 25.5009266,6.74243447 M36.2799228,4.33119962 C37.187722,2.97509356 37.5054054,1.61836629 36.6706564,0.749911742 C36.7324324,1.08272614 36.7250193,1.43712765 36.6332819,1.81606705 C36.4856371,2.42625265 35.8962934,3.08691174 35.0241699,3.7203928 C31.6966023,2.2850822 27.1273359,1.6191428 22.7855598,2.33835114 C8.71667954,4.66944962 8.06447876,1.77304811 6.67019305,0.840764015 C3.81088803,-1.07132689 1.18324324,0.948389015 0.595444015,2.15058977 C-1.56239382,6.56538902 2.40285714,7.84104811 8.33474903,8.67937386 C18.1979151,10.0741504 28.3942085,10.4830633 32.9054054,7.56988902 C33.4671042,7.20710114 34.0153668,6.78358977 34.5219305,6.32591174 C39.4583012,7.33708977 40.5145174,8.95255189 38.9801544,9.88716553 C37.9472587,10.5169193 33.4633977,11.6653852 28.1640927,12.3612981 C23.1866409,10.6992451 16.5403089,9.6601125 9.26525097,10.1005519 C1.69027027,10.5594723 0.714517375,11.9820481 1.34864865,14.4568019 C1.9196139,16.683692 2.02880309,18.8950519 6.89706564,17.9438208 C7.82648649,17.7618057 11.6827027,16.2595595 16.3576062,16.4373814 C21.1355212,16.6193966 26.6295753,16.0663625 31.0907336,14.962158 C34.5109653,15.6167602 36.2616988,16.2278777 35.5728958,16.7823095 C35.3015444,16.999889 35.4650965,17.6753019 27.1647104,18.5431352 C25.839305,18.6818208 23.5943629,18.959192 21.70139,19.1592223 C14.6979923,17.825014 5.31482625,18.1851617 5.44455598,20.3048928 C5.55498069,22.121317 6.59899614,23.4752489 8.21675676,24.4267905 C10.5789189,25.816442 13.0496525,23.5834951 24.0623166,23.086836 C24.8250965,23.052514 25.5894208,23.0278208 26.3466409,23.0007981 C27.3122008,23.9326163 27.7369112,24.798586 27.0969112,25.2666693 C25.3923552,26.5132867 14.5259459,24.6569496 14.5259459,24.6569496 L15.2198456,28.2306277 C17.213668,28.9282489 25.3983784,29.6867489 28.7440154,24.5696693 C29.1443243,23.9574648 29.2487259,23.3902981 29.1131274,22.8678587 C31.4776062,22.7032375 33.6516602,22.3600178 35.3328958,21.4306845 C38.5989961,19.6262186 37.2374517,16.8202034 32.9861776,14.4397186 C36.0746718,13.4933019 38.4380695,12.2522754 39.3383012,10.7933587 C40.8405405,8.3582072 39.3040154,5.98874886 36.2799228,4.33119962" id="Fill-1" fill="#DA272C" mask="url(#mask-6)"></path>
                    </g>
                    <g id="Group-6" transform="translate(7.567568, 0.136201)">
                        <mask id="mask-8" fill="white">
                            <use xlink:href="#path-7"></use>
                        </mask>
                        <g id="Clip-5"></g>
                        <path d="M19.7030734,9.83183106 C11.7231506,9.90979318 0.0908725869,10.2806568 0.888864865,7.90048258 C1.29905792,6.67871364 11.767166,7.17040303 21.2389807,9.80434242 C20.7753514,9.81738788 20.26539,9.82639545 19.7030734,9.83183106 M25.6630734,9.70805455 C25.7293282,9.41732727 25.7920309,9.08451288 25.8581313,8.69905076 C26.3480154,5.84178561 18.4258533,2.0183803 15.8884015,0.939956061 C9.73349807,-1.67534697 9.64608494,1.98576667 9.99295753,3.20675909 C11.3798301,2.77035758 14.7612973,3.38054318 19.4425328,5.82190682 C23.1487876,7.75387652 25.4031506,8.7936303 24.7699459,9.32756212 C23.5640772,8.84394848 22.2896371,8.43627803 21.2025328,8.05578561 C18.9741158,7.2763197 1.19913514,3.07009242 0.11434749,8.36763409 C-0.969667954,13.6656417 5.85705019,12.4943462 11.9004479,12.8833803 C17.9019923,13.2699295 21.4281699,12.7263689 23.0839228,12.1859144 C24.1751969,11.8299598 24.7677838,11.5813197 25.1489421,11.0455242 C26.3339614,11.4741606 27.4751197,11.9408462 28.5456988,12.4474447 C28.7713359,12.5684258 28.9541931,12.7086644 29.1030734,12.8635015 C28.8493282,11.4971455 27.408556,10.5014977 25.6630734,9.70805455" id="Fill-4" fill="#DA272C" mask="url(#mask-8)"></path>
                    </g>
                    <path d="M35.0241699,15.970261 C33.9591506,16.7436701 32.471583,17.4762345 30.8476448,18.0264731 C32.2549035,18.1741663 33.4757529,18.3613064 34.5219305,18.5756246 C35.2104247,17.953636 35.8203089,17.2676625 36.2799228,16.5810678 C35.8854826,16.364886 35.4658687,16.1608178 35.0241699,15.970261" id="Fill-7" fill="#AF0000"></path>
                    <path d="M33.23061,9.84428636 C32.9399537,9.71212348 32.6409575,9.58555152 32.3374826,9.46379394 C32.0083707,9.74132045 30.8979459,9.8821803 28.8065174,9.94057424 C30.1401081,10.3114379 31.4533127,10.7246992 32.7164788,11.1817561 C32.9422703,10.8641614 33.0936216,10.4454644 33.23061,9.84428636" id="Fill-9" fill="#AF0000"></path>
                    <path d="M21.7014363,31.4090284 C20.8900077,31.4947557 20.144834,31.5658845 19.5632124,31.606108 C21.7423629,32.0277557 24.7676911,33.7267708 26.3466873,35.2506042 C27.2853745,35.217214 28.2130965,35.1804072 29.1130193,35.1176648 C28.6614363,33.3798239 25.5392741,32.1401951 21.7014363,31.4090284" id="Fill-11" fill="#AF0000"></path>
                    <path d="M17.0441081,25.0970473 C16.6297452,25.0675398 16.2201699,25.0574451 15.8164633,25.0621042 C16.6609421,25.1475208 17.4737606,25.2389943 18.2311351,25.3329527 C23.5108263,25.9884867 27.9877375,26.6180852 31.090749,27.211964 C31.7468108,27.0496723 32.3804788,26.875267 32.9861931,26.6895246 C31.6470425,25.9397216 30.0229498,25.2318504 28.1641081,24.6111042 C24.5580849,25.0846231 20.5747645,25.3487936 17.0441081,25.0970473" id="Fill-13" fill="#AF0000"></path>
                </g>
                <g id="Group-15-Copy-2" transform="translate(973.000000, 186.000000)">
                    <g id="Group-3" transform="translate(0.000000, 12.249837)">
                        <mask id="mask-10" fill="white">
                            <use xlink:href="#path-9"></use>
                        </mask>
                        <g id="Clip-2"></g>
                        <path d="M7.60440154,14.2496277 C2.49196911,14.5616314 0.950810811,14.8172602 1.41552124,13.2584837 C1.82401544,11.8891769 9.663861,12.1901542 15.8164479,12.8122981 C12.1591506,12.8550064 9.00440154,14.1643663 7.60440154,14.2496277 M18.7603861,19.3915557 C14.8868726,19.3915557 6.45104247,22.0967792 6.60610039,21.0062413 C6.74880309,20.0029837 12.976139,18.1912186 19.4570656,19.3361125 C19.4921236,19.3423246 19.5277992,19.3493133 19.5633205,19.3563019 C19.239305,19.3785102 18.9648649,19.3915557 18.7603861,19.3915557 M25.5009266,6.74243447 C11.107722,6.69149508 1.18725869,3.67830568 1.02849421,2.32515038 C0.932586873,1.50313144 2.80208494,-0.255830682 6.43389961,3.46724886 C9.20579151,6.30898371 15.1773745,5.62269962 19.096139,5.48929432 C23.9538996,5.32327538 27.829112,5.45947614 30.8476448,5.77660492 C29.103861,6.36753295 27.2034749,6.74833598 25.5009266,6.74243447 M36.2799228,4.33119962 C37.187722,2.97509356 37.5054054,1.61836629 36.6706564,0.749911742 C36.7324324,1.08272614 36.7250193,1.43712765 36.6332819,1.81606705 C36.4856371,2.42625265 35.8962934,3.08691174 35.0241699,3.7203928 C31.6966023,2.2850822 27.1273359,1.6191428 22.7855598,2.33835114 C8.71667954,4.66944962 8.06447876,1.77304811 6.67019305,0.840764015 C3.81088803,-1.07132689 1.18324324,0.948389015 0.595444015,2.15058977 C-1.56239382,6.56538902 2.40285714,7.84104811 8.33474903,8.67937386 C18.1979151,10.0741504 28.3942085,10.4830633 32.9054054,7.56988902 C33.4671042,7.20710114 34.0153668,6.78358977 34.5219305,6.32591174 C39.4583012,7.33708977 40.5145174,8.95255189 38.9801544,9.88716553 C37.9472587,10.5169193 33.4633977,11.6653852 28.1640927,12.3612981 C23.1866409,10.6992451 16.5403089,9.6601125 9.26525097,10.1005519 C1.69027027,10.5594723 0.714517375,11.9820481 1.34864865,14.4568019 C1.9196139,16.683692 2.02880309,18.8950519 6.89706564,17.9438208 C7.82648649,17.7618057 11.6827027,16.2595595 16.3576062,16.4373814 C21.1355212,16.6193966 26.6295753,16.0663625 31.0907336,14.962158 C34.5109653,15.6167602 36.2616988,16.2278777 35.5728958,16.7823095 C35.3015444,16.999889 35.4650965,17.6753019 27.1647104,18.5431352 C25.839305,18.6818208 23.5943629,18.959192 21.70139,19.1592223 C14.6979923,17.825014 5.31482625,18.1851617 5.44455598,20.3048928 C5.55498069,22.121317 6.59899614,23.4752489 8.21675676,24.4267905 C10.5789189,25.816442 13.0496525,23.5834951 24.0623166,23.086836 C24.8250965,23.052514 25.5894208,23.0278208 26.3466409,23.0007981 C27.3122008,23.9326163 27.7369112,24.798586 27.0969112,25.2666693 C25.3923552,26.5132867 14.5259459,24.6569496 14.5259459,24.6569496 L15.2198456,28.2306277 C17.213668,28.9282489 25.3983784,29.6867489 28.7440154,24.5696693 C29.1443243,23.9574648 29.2487259,23.3902981 29.1131274,22.8678587 C31.4776062,22.7032375 33.6516602,22.3600178 35.3328958,21.4306845 C38.5989961,19.6262186 37.2374517,16.8202034 32.9861776,14.4397186 C36.0746718,13.4933019 38.4380695,12.2522754 39.3383012,10.7933587 C40.8405405,8.3582072 39.3040154,5.98874886 36.2799228,4.33119962" id="Fill-1" fill="#DA272C" mask="url(#mask-10)"></path>
                    </g>
                    <g id="Group-6" transform="translate(7.567568, 0.136201)">
                        <mask id="mask-12" fill="white">
                            <use xlink:href="#path-11"></use>
                        </mask>
                        <g id="Clip-5"></g>
                        <path d="M19.7030734,9.83183106 C11.7231506,9.90979318 0.0908725869,10.2806568 0.888864865,7.90048258 C1.29905792,6.67871364 11.767166,7.17040303 21.2389807,9.80434242 C20.7753514,9.81738788 20.26539,9.82639545 19.7030734,9.83183106 M25.6630734,9.70805455 C25.7293282,9.41732727 25.7920309,9.08451288 25.8581313,8.69905076 C26.3480154,5.84178561 18.4258533,2.0183803 15.8884015,0.939956061 C9.73349807,-1.67534697 9.64608494,1.98576667 9.99295753,3.20675909 C11.3798301,2.77035758 14.7612973,3.38054318 19.4425328,5.82190682 C23.1487876,7.75387652 25.4031506,8.7936303 24.7699459,9.32756212 C23.5640772,8.84394848 22.2896371,8.43627803 21.2025328,8.05578561 C18.9741158,7.2763197 1.19913514,3.07009242 0.11434749,8.36763409 C-0.969667954,13.6656417 5.85705019,12.4943462 11.9004479,12.8833803 C17.9019923,13.2699295 21.4281699,12.7263689 23.0839228,12.1859144 C24.1751969,11.8299598 24.7677838,11.5813197 25.1489421,11.0455242 C26.3339614,11.4741606 27.4751197,11.9408462 28.5456988,12.4474447 C28.7713359,12.5684258 28.9541931,12.7086644 29.1030734,12.8635015 C28.8493282,11.4971455 27.408556,10.5014977 25.6630734,9.70805455" id="Fill-4" fill="#DA272C" mask="url(#mask-12)"></path>
                    </g>
                    <path d="M35.0241699,15.970261 C33.9591506,16.7436701 32.471583,17.4762345 30.8476448,18.0264731 C32.2549035,18.1741663 33.4757529,18.3613064 34.5219305,18.5756246 C35.2104247,17.953636 35.8203089,17.2676625 36.2799228,16.5810678 C35.8854826,16.364886 35.4658687,16.1608178 35.0241699,15.970261" id="Fill-7" fill="#AF0000"></path>
                    <path d="M33.23061,9.84428636 C32.9399537,9.71212348 32.6409575,9.58555152 32.3374826,9.46379394 C32.0083707,9.74132045 30.8979459,9.8821803 28.8065174,9.94057424 C30.1401081,10.3114379 31.4533127,10.7246992 32.7164788,11.1817561 C32.9422703,10.8641614 33.0936216,10.4454644 33.23061,9.84428636" id="Fill-9" fill="#AF0000"></path>
                    <path d="M21.7014363,31.4090284 C20.8900077,31.4947557 20.144834,31.5658845 19.5632124,31.606108 C21.7423629,32.0277557 24.7676911,33.7267708 26.3466873,35.2506042 C27.2853745,35.217214 28.2130965,35.1804072 29.1130193,35.1176648 C28.6614363,33.3798239 25.5392741,32.1401951 21.7014363,31.4090284" id="Fill-11" fill="#AF0000"></path>
                    <path d="M17.0441081,25.0970473 C16.6297452,25.0675398 16.2201699,25.0574451 15.8164633,25.0621042 C16.6609421,25.1475208 17.4737606,25.2389943 18.2311351,25.3329527 C23.5108263,25.9884867 27.9877375,26.6180852 31.090749,27.211964 C31.7468108,27.0496723 32.3804788,26.875267 32.9861931,26.6895246 C31.6470425,25.9397216 30.0229498,25.2318504 28.1641081,24.6111042 C24.5580849,25.0846231 20.5747645,25.3487936 17.0441081,25.0970473" id="Fill-13" fill="#AF0000"></path>
                </g>
                <g id="Group-38-Copy-9" opacity="0.7" transform="translate(110.000000, 65.000000)">
                    <mask id="mask-14" fill="white">
                        <use xlink:href="#path-13"></use>
                    </mask>
                    <g id="Clip-2"></g>
                    <path d="M24.1501441,22.724888 L27,22.724888 L27,21.7845832 L24.1501441,21.7845832 L24.1501441,22.724888 Z M20.8862118,19.7213624 L21.8496107,19.7213624 L21.8496107,17 L20.8862118,17 L20.8862118,19.7213624 Z M23.6731653,20.7325366 L26.2748452,18.193905 L25.5905217,17.5270391 L22.989455,20.0650732 L23.6731653,20.7325366 Z M22.8338545,21.2179863 C22.3885108,20.7833284 21.8496107,20.570242 21.2382441,20.570242 C20.6270002,20.570242 20.098032,20.7833284 19.663356,21.2179863 C19.2170315,21.6533612 19,22.1783687 19,22.78536 C19,23.3923514 19.2170315,23.9178369 19.663356,24.342695 C20.098032,24.7781894 20.6270002,25 21.2382441,25 C21.8496107,25 22.3885108,24.7781894 22.8338545,24.342695 C23.2691435,23.9178369 23.4870333,23.3923514 23.4870333,22.78536 C23.4870333,22.1783687 23.2691435,21.6533612 22.8338545,21.2179863 Z M22.0773098,23.6048402 C21.8496107,23.8381237 21.5699221,23.9480729 21.2382441,23.9480729 C20.9172338,23.9480729 20.6373,23.8381237 20.4096009,23.6048402 C20.1812887,23.3720347 20.0565876,23.0987153 20.0565876,22.78536 C20.0565876,22.4520466 20.1812887,22.1783687 20.4096009,21.9561996 C20.6373,21.7241111 20.9172338,21.6122498 21.2382441,21.6225276 C21.5699221,21.6122498 21.8496107,21.7241111 22.0873644,21.9561996 C22.3054994,22.1783687 22.4192876,22.4520466 22.4303231,22.78536 C22.4192876,23.0987153 22.3054994,23.3720347 22.0773098,23.6048402 Z" id="Fill-1" fill="#DA272C" mask="url(#mask-14)"></path>
                    <polygon id="Fill-3" fill="#DA272C" mask="url(#mask-14)" points="21 15 22 15 22 12 21 12"></polygon>
                    <polygon id="Fill-4" fill="#DA272C" mask="url(#mask-14)" points="21 11 22 11 22 8 21 8"></polygon>
                    <polygon id="Fill-5" fill="#DA272C" mask="url(#mask-14)" points="23.6243422 11 26 8.62411453 25.3752099 8 23 10.3753262"></polygon>
                    <polygon id="Fill-6" fill="#DA272C" mask="url(#mask-14)" points="20 10.3753029 17.624902 8 17 8.6241378 19.3756578 11"></polygon>
                    <polygon id="Fill-7" fill="#DA272C" mask="url(#mask-14)" points="29 15.7696001 28.2303643 15 26 17.2303999 26.7694972 18"></polygon>
                    <polygon id="Fill-8" fill="#DA272C" mask="url(#mask-14)" points="32 10.7696357 31.2303643 10 29 12.2303643 29.7694972 13"></polygon>
                    <polygon id="Fill-9" fill="#DA272C" mask="url(#mask-14)" points="31 16 35 15.9978506 34.9998668 15 31.0009326 15.0021494"></polygon>
                    <polygon id="Fill-10" fill="#DA272C" mask="url(#mask-14)" points="28.9978508 11.9990674 29 8.00013323 28.0022756 8 28 12"></polygon>
                    <polygon id="Fill-11" fill="#DA272C" mask="url(#mask-14)" points="28 22 31 22 31 21 28 21"></polygon>
                    <polygon id="Fill-12" fill="#DA272C" mask="url(#mask-14)" points="33 22 36 22 36 21 33 21"></polygon>
                    <polygon id="Fill-13" fill="#DA272C" mask="url(#mask-14)" points="33 23.6243189 35.3758855 26 36 25.3751213 33.6246738 23"></polygon>
                    <polygon id="Fill-14" fill="#DA272C" mask="url(#mask-14)" points="33.6246971 20 36 17.6247901 35.3759741 17 33 19.3756578"></polygon>
                    <path d="M16,24.2156078 L18.8498559,24.2156078 L18.8498559,23.2751976 L16,23.2751976 L16,24.2156078 Z M21.1503893,29 L22.1137882,29 L22.1137882,26.2786782 L21.1503893,26.2786782 L21.1503893,29 Z M19.3268347,25.2675192 L16.7251548,27.8061128 L17.4094783,28.4728492 L20.0104224,25.9349726 L19.3268347,25.2675192 Z M20.1661455,24.7820768 C20.6114892,25.2166087 21.1503893,25.4298113 21.7617559,25.4298113 C22.3729998,25.4298113 22.9018454,25.2166087 23.336644,24.7820768 C23.7829685,24.3467083 24,23.8215892 24,23.2147264 C24,22.6077441 23.7829685,22.0822665 23.336644,21.6574147 C22.9018454,21.2219268 22.3729998,21 21.7617559,21 C21.1503893,21 20.6114892,21.2219268 20.1661455,21.6574147 C19.7308565,22.0822665 19.5129667,22.6077441 19.5129667,23.2147264 C19.5129667,23.8215892 19.7308565,24.3467083 20.1661455,24.7820768 Z M20.9226902,22.395139 C21.1503893,22.161859 21.4300779,22.0519114 21.7617559,22.0519114 C22.0827662,22.0519114 22.3627,22.161859 22.5902765,22.395139 C22.8187113,22.6280605 22.9432898,22.9012563 22.9432898,23.2147264 C22.9432898,23.5480348 22.8187113,23.8215892 22.5902765,24.0437549 C22.3627,24.2759594 22.0827662,24.3876996 21.7617559,24.3774219 C21.4300779,24.3876996 21.1503893,24.2759594 20.912513,24.0437549 C20.6945006,23.8215892 20.5807124,23.5480348 20.5696769,23.2147264 C20.5807124,22.9012563 20.6945006,22.6280605 20.9226902,22.395139 Z" id="Fill-15" fill="#DA272C" mask="url(#mask-14)"></path>
                    <polygon id="Fill-16" fill="#DA272C" mask="url(#mask-14)" points="21 33 22 33 22 30 21 30"></polygon>
                    <polygon id="Fill-17" fill="#DA272C" mask="url(#mask-14)" points="21 38 22 38 22 35 21 35"></polygon>
                    <polygon id="Fill-18" fill="#DA272C" mask="url(#mask-14)" points="19.3756578 33 17 35.3758855 17.6247901 36 20 33.6246738"></polygon>
                    <polygon id="Fill-19" fill="#DA272C" mask="url(#mask-14)" points="22 33.6246971 24.375098 36 25 35.3758622 22.6243422 33"></polygon>
                    <polygon id="Fill-20" fill="#DA272C" mask="url(#mask-14)" points="14 30.2303999 14.7696357 31 17 28.7696001 16.2305028 28"></polygon>
                    <polygon id="Fill-21" fill="#DA272C" mask="url(#mask-14)" points="10 32.2303643 10.7696357 33 13 30.7696357 12.2305028 30"></polygon>
                    <polygon id="Fill-22" fill="#DA272C" mask="url(#mask-14)" points="12 29 8 29.0021494 8.00013323 30 11.9990674 29.9978506"></polygon>
                    <polygon id="Fill-23" fill="#DA272C" mask="url(#mask-14)" points="14.0021492 33.0009326 14 36.9998668 14.9977244 37 15 33"></polygon>
                    <polygon id="Fill-24" fill="#DA272C" mask="url(#mask-14)" points="29.2303999 31 30 30.2303643 27.7697387 28 27 28.7696357"></polygon>
                    <polygon id="Fill-25" fill="#DA272C" mask="url(#mask-14)" points="33.2303999 33 34 32.2303643 31.7697387 30 31 30.7694972"></polygon>
                    <polygon id="Fill-26" fill="#DA272C" mask="url(#mask-14)" points="28 33 28.0021494 37 29 36.9998668 28.9978506 33.0009326"></polygon>
                    <polygon id="Fill-27" fill="#DA272C" mask="url(#mask-14)" points="31.0009326 29.9978506 34.9998668 30 35 29.0021494 31 29"></polygon>
                    <polygon id="Fill-28" fill="#DA272C" mask="url(#mask-14)" points="12.7696001 15 12 15.7696357 14.2302613 18 15 17.2303643"></polygon>
                    <polygon id="Fill-29" fill="#DA272C" mask="url(#mask-14)" points="10.7696001 12 10 12.7696357 12.2302613 15 13 14.2305028"></polygon>
                    <polygon id="Fill-30" fill="#DA272C" mask="url(#mask-14)" points="15 14 14.9978506 10 14 10.0001332 14.0021494 13.9990674"></polygon>
                    <polygon id="Fill-31" fill="#DA272C" mask="url(#mask-14)" points="11.9990674 15.0021494 8.00013323 15 8 15.9978506 12 16"></polygon>
                    <polygon id="Fill-32" fill="#DA272C" mask="url(#mask-14)" points="12 24 15 24 15 23 12 23"></polygon>
                    <polygon id="Fill-33" fill="#DA272C" mask="url(#mask-14)" points="8 24 11 24 11 23 8 23"></polygon>
                    <polygon id="Fill-34" fill="#DA272C" mask="url(#mask-14)" points="11 21.3756578 8.62411453 19 8 19.6247901 10.3753262 22"></polygon>
                    <polygon id="Fill-35" fill="#DA272C" mask="url(#mask-14)" points="10.3753029 24 8 26.3752099 8.62402595 27 11 24.6243422"></polygon>
                    <polygon id="Fill-36" fill="#DA272C" mask="url(#mask-14)" points="19 19.3756811 16.6241145 17 16 17.6248787 18.3753262 20"></polygon>
                    <polygon id="Fill-37" fill="#DA272C" mask="url(#mask-14)" points="23 24.6243189 25.3758855 27 26 26.3751213 23.6246738 24"></polygon>
                </g>
            </g>
        </g>
    </g>
</svg>