<?xml version="1.0" encoding="UTF-8"?>
<svg width="64px" height="57px" viewBox="0 0 64 57" version="1.1" xmlns="http://www.w3.org/2000/svg" xmlns:xlink="http://www.w3.org/1999/xlink">
    <!-- Generator: sketchtool 51.2 (57519) - http://www.bohemiancoding.com/sketch -->
    <title>3F72321F-9090-41D1-8C4C-CF3071CF1736</title>
    <desc>Created with sketchtool.</desc>
    <defs>
        <polygon id="path-1" points="0 2.44349569e-05 40.592735 2.44349569e-05 40.592735 41.2136273 0 41.2136273"></polygon>
        <polygon id="path-3" points="0.192270833 0.190265625 1.00420833 0.190265625 1.00420833 3.65185436 0.192270833 3.65185436"></polygon>
        <polygon id="path-5" points="0.01106875 0.150942434 3.25897917 0.150942434 3.25897917 1.01629688 0.01106875 1.01629688"></polygon>
        <polygon id="path-7" points="0.139833333 0.138375 0.730333333 0.138375 0.730333333 2.65589408 0.139833333 2.65589408"></polygon>
        <polygon id="path-9" points="0.00805 0.109776316 2.37016667 0.109776316 2.37016667 0.739125 0.00805 0.739125"></polygon>
        <polygon id="path-11" points="0.20975 0.199875 1.0955 0.199875 1.0955 3.83629145 0.20975 3.83629145"></polygon>
        <polygon id="path-13" points="0.012075 0.158565789 3.55525 0.158565789 3.55525 1.067625 0.012075 1.067625"></polygon>
        <polygon id="path-15" points="0.279666667 0.246 1.46066667 0.246 1.46066667 4.72158947 0.279666667 4.72158947"></polygon>
        <polygon id="path-17" points="0.0161 0.195157895 4.74033333 0.195157895 4.74033333 1.314 0.0161 1.314"></polygon>
        <polygon id="path-19" points="0.122354167 0.107625 0.639041667 0.107625 0.639041667 2.06569539 0.122354167 2.06569539"></polygon>
        <polygon id="path-21" points="0.00704375 0.0853815789 2.07389583 0.0853815789 2.07389583 0.585381579 0.00704375 0.585381579"></polygon>
    </defs>
    <g id="FLUJO-" stroke="none" stroke-width="1" fill="none" fill-rule="evenodd">
        <g id="REGISTRO" transform="translate(-453.000000, -258.000000)">
            <g id="Group-73" transform="translate(453.000000, 258.000000)">
                <g id="Group-16" transform="translate(12.666667, 12.000000)">
                    <g id="Group-3" transform="translate(2.313043, 0.991304)" fill="#DA272C">
                        <path d="M40.5684711,24.3066571 C40.7185832,23.4803483 40.1490858,22.7635081 39.546031,22.0044769 C39.0342001,21.3598013 38.7242834,20.94514 38.7242834,20.6067973 C38.7242834,20.2688619 39.0342001,19.8541192 39.5445649,19.211317 C40.1492487,18.4499237 40.7185832,17.7330021 40.5684711,16.9069376 C40.4159155,16.0663751 39.6189287,15.6029254 38.7751082,15.1122715 C38.0952462,14.7166695 37.6739061,14.4603468 37.5685914,14.1782045 C37.4627066,13.8937002 37.6194976,13.4219426 37.8841282,12.6757805 C38.203656,11.7740491 38.5054277,10.9224094 38.0858795,10.2060579 C37.6655168,9.48881051 36.7719304,9.33812828 35.8257274,9.17864946 C35.0571666,9.04938854 34.5771011,8.9588163 34.3878931,8.73417759 C34.1990923,8.51035339 34.1915175,8.022876 34.1949384,7.24617017 C34.1992552,6.28489897 34.2034092,5.38064266 33.573476,4.8491009 C32.9397147,4.31462694 32.0503637,4.47027762 31.1088848,4.63513213 C30.334541,4.77042034 29.8483668,4.84551711 29.5956279,4.69760417 C29.3436221,4.54993558 29.1697266,4.09169869 28.9068065,3.35628794 C28.5811699,2.4446197 28.2746741,1.58638256 27.4858323,1.29259293 C26.705054,1.00189839 25.9109993,1.44360096 25.0700295,1.91096024 C24.3666286,2.3018381 23.9179213,2.53486614 23.6068643,2.47866573 C23.2980879,2.42270968 22.9610484,2.05268299 22.4369186,1.45361929 C21.7825504,0.706072514 21.1647533,-1.62899713e-05 20.2962535,-1.62899713e-05 C19.4284867,-1.62899713e-05 18.8105266,0.705665264 18.1563214,1.4528048 C17.6317029,2.05252009 17.2948263,2.42238388 16.9853983,2.47842139 C16.6762961,2.53454034 16.2268558,2.3018381 15.5241878,1.91153039 C14.680856,1.44319371 13.8867199,1.00197984 13.1070005,1.29226713 C12.3179957,1.58613821 12.0114999,2.4442939 11.6868408,3.35294849 C11.4236763,4.09023259 11.2495365,4.54969123 10.996879,4.69735982 C10.7445474,4.84527276 10.2584546,4.77025744 9.48631,4.63529503 C8.54230617,4.47003327 7.65311809,4.31438259 7.01903096,4.84918235 C6.38917922,5.38007251 6.39325171,6.28441027 6.39765,7.24185333 C6.40147815,8.0204325 6.39414766,8.50905019 6.20461384,8.73417759 C6.01548728,8.95824615 5.53623632,9.04889984 4.76979318,9.17816076 C3.82122815,9.33772103 2.92715308,9.48815891 2.50662747,10.2060579 C2.08732361,10.9217578 2.38909533,11.7733161 2.70854166,12.6748031 C2.9732537,13.4213725 3.13004467,13.8929671 3.02407841,14.1776344 C2.91900809,14.4601839 2.49717929,14.7166695 1.81764314,15.1117828 C0.973089577,15.6030883 0.176672883,16.0663751 0.0244431019,16.9066118 C-0.125668983,17.7330835 0.443502612,18.4498422 1.04623155,19.2087106 C1.55814389,19.8529789 1.8685493,20.2681288 1.8685493,20.6064715 C1.8685493,20.94514 1.55814389,21.36029 1.0468017,22.0038253 C0.443746962,22.7628565 -0.125831883,23.4797781 0.024361652,24.3066571 C0.176672883,25.1468938 0.973089577,25.610262 1.81625849,26.1006716 C2.49717929,26.4966808 2.91900809,26.7531664 3.02407841,27.0357159 C3.13004467,27.3203017 2.9732537,27.7919779 2.70878601,28.5378956 C2.38925823,29.439627 2.08740506,30.2912667 2.50670892,31.0076182 C2.92739743,31.7255172 3.82139105,31.8759551 4.76775693,32.0351896 C5.53525892,32.1642061 6.01524293,32.2546969 6.20461384,32.4794985 C6.39414766,32.7041372 6.40147815,33.1928364 6.39765,33.971497 C6.39325171,34.9287772 6.38917922,35.8330335 7.01911241,36.3644938 C7.65262939,36.8988048 8.54165457,36.7432356 9.48288911,36.5789512 C10.25707,36.4432558 10.7440587,36.3675889 10.9971234,36.516072 C11.249455,36.6640663 11.4236763,37.1232806 11.6868408,37.8604018 C12.0119886,38.7699524 12.3184844,39.6274565 13.1070819,39.9210017 C13.887453,40.2117777 14.6816705,39.7700752 15.5224774,39.3026344 C16.1565645,38.9505267 16.5838505,38.7265396 16.8887173,38.7265396 C16.9226004,38.7265396 16.9547731,38.7293089 16.9856426,38.7350104 C17.2952335,38.7909664 17.6318658,39.1609931 18.1556698,39.7600568 C18.8105266,40.5079294 19.4284867,41.213611 20.2962535,41.213611 C21.1647533,41.213611 21.7825504,40.5076036 22.4368371,39.7600568 C22.9617,39.1606673 23.2984137,38.7912108 23.6071087,38.7351733 C23.9168625,38.6793801 24.3665471,38.9120009 25.0700295,39.3029602 C25.911488,39.7703195 26.7058685,40.2116963 27.4858323,39.9213275 C28.2746741,39.6275379 28.5811699,38.7693008 28.9057476,37.8607276 C29.1697266,37.1222218 29.3436221,36.6640663 29.595465,36.5163978 C29.8484483,36.3683219 30.3346225,36.443663 31.1070114,36.5784625 C32.0504451,36.7435614 32.9397961,36.8991306 33.5735574,36.3648196 C34.2034092,35.8333593 34.1992552,34.929103 34.1949384,33.9717413 C34.1915175,33.1911259 34.1990923,32.7038114 34.3878931,32.4794985 C34.5769382,32.2555114 35.0557819,32.1648577 35.821492,32.0357597 C36.7712788,31.8758736 37.6652724,31.7254358 38.0858795,31.0075367 C38.5054277,30.291511 38.203656,29.4397899 37.8840467,28.53814 C37.6194976,27.7919779 37.4627066,27.3202203 37.56851,27.0359603 C37.674069,26.752922 38.0957349,26.4965993 38.7748638,26.1018119 C39.6187658,25.611158 40.4158341,25.1476268 40.5684711,24.3066571" id="Fill-1"></path>
                    </g>
                    <g id="Group-14">
                        <path d="M30.8396279,10.7398884 L30.8297724,10.7286484 C30.7207925,10.596944 30.5603363,10.5213585 30.3896988,10.5213585 C30.0753024,10.5213585 29.8195499,10.777111 29.8195499,11.0915075 C29.8195499,11.2261441 29.8673609,11.3567897 29.9544308,11.4594165 L29.9633903,11.470005 C29.9725127,11.4803491 29.9822052,11.490286 29.9920606,11.4998156 L30.0006129,11.5085307 C32.3208749,13.9820814 33.5986603,17.2132787 33.5986603,20.6068055 C33.5986603,24.1602184 32.2150716,27.5007213 29.7027508,30.0129607 C27.1905928,32.5255258 23.8500084,33.909196 20.2962698,33.909196 C18.7577634,33.909196 17.2498822,33.6488008 15.8146543,33.135178 L15.8032513,33.1307797 C15.7857396,33.1235307 15.7675763,33.1172591 15.7492501,33.1114761 L15.7440373,33.1099286 C15.6915836,33.0945345 15.6374194,33.0867968 15.5830109,33.0867968 C15.2686145,33.0867968 15.0128619,33.3425494 15.0128619,33.6569458 C15.0128619,33.9072412 15.1803228,34.1320428 15.4201927,34.2035558 L15.4326545,34.2076283 C16.9906273,34.7647453 18.626955,35.0472948 20.2962698,35.0472948 C24.1532463,35.0472948 27.7795568,33.5451966 30.5070681,30.8176038 C33.2345794,28.0900925 34.7367591,24.4638634 34.7367591,20.6068055 C34.7367591,16.9282042 33.3526817,13.4240685 30.8396279,10.7398884" id="Fill-1" fill="#000000"></path>
                        <path d="M27.931534,8.45392493 C27.617219,8.45392493 27.361385,8.70967748 27.361385,9.02407392 C27.361385,9.33847037 27.617219,9.59422292 27.931534,9.59422292 C28.245849,9.59422292 28.501683,9.33847037 28.501683,9.02407392 C28.501683,8.70967748 28.245849,8.45392493 27.931534,8.45392493" id="Fill-3" fill="#000000"></path>
                        <path d="M25.2178366,7.02656507 L25.2048861,7.02224823 C23.6331482,6.45429838 21.9816709,6.16629169 20.296229,6.16629169 C16.4392525,6.16629169 12.8130235,7.66847138 10.0854307,10.3959827 C7.35791937,13.1235755 5.85573967,16.7498046 5.85573967,20.606781 C5.85573967,24.2770745 7.23435994,27.7754272 9.73747692,30.4574896 L9.74627351,30.4674264 C9.85533486,30.5978277 10.0149766,30.6725172 10.1843923,30.6725172 C10.4987887,30.6725172 10.7545413,30.4167646 10.7545413,30.1023682 C10.7545413,29.9681388 10.7069746,29.8379005 10.6207192,29.7357624 L10.6085017,29.7214272 C10.6007639,29.7127121 10.592619,29.7044856 10.5843111,29.6964221 L10.5753516,29.6872997 C8.26575947,27.2156224 6.99383852,23.9907782 6.99383852,20.606781 C6.99383852,17.0532867 8.37750867,13.7127838 10.8900738,11.2006258 C13.4022318,8.68806068 16.7427347,7.30439053 20.296229,7.30439053 C21.8346539,7.30439053 23.3420464,7.56470427 24.7771929,8.07816416 L24.7844419,8.07816416 L24.8305425,8.09763068 C24.9009152,8.12760422 24.976012,8.1427539 25.0537151,8.1427539 C25.3681116,8.1427539 25.6238641,7.88700135 25.6238641,7.5726049 C25.6238641,7.32271674 25.4569734,7.09815949 25.2178366,7.02656507" id="Fill-5" fill="#000000"></path>
                        <g id="Group-9">
                            <mask id="mask-2" fill="white">
                                <use xlink:href="#path-1"></use>
                            </mask>
                            <g id="Clip-8"></g>
                            <path d="M39.4543837,24.1082045 L39.4543022,24.1084488 C39.3985905,24.4136414 38.9665805,24.6781906 38.2076307,25.1195673 C37.4629347,25.5526362 36.7607555,25.9610258 36.5078537,26.6407249 C36.2512866,27.3297092 36.5240622,28.0997361 36.8129648,28.9149677 C37.131108,29.8116492 37.2469297,30.200165 37.1095238,30.434985 C36.9714662,30.6708637 36.5759457,30.7583409 35.6387837,30.9157835 C34.7888544,31.0590538 33.9878766,31.1940162 33.5227164,31.7460019 C33.0553572,32.3000238 33.0591039,33.1140336 33.0631763,33.9758546 C33.0676561,34.9202656 33.0487597,35.322465 32.8406553,35.498804 C32.6358904,35.6713148 32.2367047,35.6220376 31.3060586,35.4592193 C30.4558035,35.3101661 29.6544184,35.1700724 29.0226119,35.5400176 C28.3960996,35.9071936 28.1235684,36.6699715 27.8349915,37.4774653 C27.5353375,38.316236 27.3663291,38.7581829 27.0902955,38.8604839 C26.8127958,38.9638438 26.3956911,38.7437662 25.6206957,38.312978 C24.8574291,37.8890315 24.1366794,37.4884611 23.4082733,37.6211429 C22.6898856,37.7513812 22.153131,38.3648615 21.5847739,39.0144241 C21.0086791,39.6727019 20.6384895,40.0758786 20.296563,40.0758786 C19.9543107,40.0758786 19.5841211,39.6727019 19.0084335,39.0149128 C18.4395877,38.3646986 17.9028332,37.7512998 17.184364,37.6211429 C16.4560394,37.4884611 15.7356154,37.88895 14.9730004,38.3125707 C14.1970276,38.7437662 13.7795156,38.9638438 13.5021789,38.8604024 C13.2264711,38.7581829 13.0574627,38.316236 12.7582159,37.4784427 C12.4698019,36.6704602 12.1973522,35.9073565 11.5699439,35.5400176 C10.9391962,35.1703982 10.1383813,35.3102476 9.29048826,35.4585677 C8.3570729,35.6218747 7.95731701,35.6712333 7.75304077,35.4992927 C7.54412189,35.3226279 7.52514407,34.9203471 7.52962381,33.9758546 C7.53369631,33.1140336 7.537443,32.3000238 7.07016518,31.7460833 C6.60484215,31.1939347 5.80370136,31.0589723 4.95540111,30.9160278 C4.01677297,30.7584223 3.62141536,30.6708637 3.48327641,30.4349035 C3.34578905,30.200165 3.46169219,29.8116492 3.77983533,28.9151306 C4.06873797,28.0997361 4.34151354,27.3297092 4.08494649,26.6408063 C3.83163744,25.9605371 3.12921388,25.552229 2.38557669,25.1199746 C1.62459069,24.6771317 1.19355805,24.4130713 1.1384165,24.108123 C1.08294914,23.8017087 1.38911915,23.3979617 1.93499609,22.7109322 C2.48690032,22.016002 3.00695765,21.3612266 3.00695765,20.6068381 C3.00695765,19.8521237 2.48633017,19.1969411 1.93524044,18.5033955 C1.388549,17.8148184 1.08294914,17.4116417 1.13849795,17.105716 C1.19372095,16.8001161 1.62605678,16.5354855 2.38557669,16.0939459 C3.12945823,15.6612028 3.83171889,15.2526503 4.08494649,14.5728698 C4.34151354,13.8842113 4.06873797,13.1141843 3.77983533,12.2990342 C3.46161074,11.4020269 3.3457076,11.0134296 3.48343931,10.7788541 C3.62084521,10.5436269 4.01530687,10.4559868 4.95018832,10.2984628 C5.80256106,10.1551111 6.6044349,10.0202301 7.07016518,9.46783717 C7.537443,8.91365235 7.53369631,8.09972394 7.52962381,7.23806591 C7.52514407,6.29316613 7.54412189,5.89088529 7.75295932,5.7147907 C7.95609526,5.54285005 8.35462941,5.59180142 9.28364647,5.75388663 C10.1370781,5.90334712 10.9383817,6.04360377 11.5698625,5.67357707 C12.1965377,5.30672692 12.4690689,4.54411191 12.7576457,3.73669949 C13.0573812,2.89768452 13.2262268,2.45598195 13.5021789,2.35319223 C13.7795156,2.24991381 14.1970276,2.46974698 14.9721044,2.90061672 C15.7350452,3.32464467 16.4553063,3.72505216 17.1842011,3.59285904 C17.9025888,3.46237637 18.4395063,2.84897751 19.0079448,2.19965925 C19.5841211,1.54130006 19.9543107,1.13804183 20.296563,1.13804183 C20.6384895,1.13804183 21.0086791,1.54130006 21.5844481,2.1990891 C22.1537826,2.84946621 22.6902928,3.46237637 23.4082733,3.59285904 C24.1366794,3.72497071 24.8572662,3.32472612 25.6202885,2.90077961 C26.3959355,2.46982843 26.8134474,2.25023961 27.0906213,2.35319223 C27.3665734,2.45598195 27.5355004,2.89768452 27.8345843,3.73515194 C28.1230797,4.54313452 28.3955294,5.30631967 29.0228562,5.67357707 C29.6541741,6.04360377 30.4555592,5.90326567 31.3039409,5.75478258 C32.2380893,5.59188286 32.6363791,5.54301295 32.8400852,5.7147907 C33.0486783,5.89104819 33.0676561,6.29332903 33.0631763,7.23806591 C33.0591039,8.09972394 33.0553572,8.91365235 33.5227164,9.46791862 C33.9884467,10.0203115 34.7900762,10.1551111 35.6388651,10.2978927 C36.5772489,10.4559054 36.9718735,10.5435454 37.1096867,10.7792613 C37.2470111,11.0134296 37.1311894,11.4020269 36.8129648,12.2988713 C36.5240622,13.1141843 36.2512866,13.8842113 36.5078537,14.5727884 C36.760674,15.2522431 37.4622831,15.6606326 38.2051058,16.092887 C38.9661732,16.5350783 39.3985091,16.799546 39.4543022,17.1054716 C39.509851,17.4116417 39.2042512,17.8148184 38.6592702,18.5011964 C38.1063885,19.1969411 37.585924,19.8521237 37.585924,20.6068381 C37.585924,21.3612266 38.1058184,22.016002 38.6564194,22.7090589 C39.2037625,23.3979617 39.5099325,23.8017087 39.4543837,24.1082045 M40.5684548,24.3066978 C40.7185669,23.480389 40.148988,22.7634674 39.5460148,22.0045176 C39.0341839,21.359842 38.7242672,20.9450993 38.7242672,20.6068381 C38.7242672,20.2688212 39.0341839,19.8541599 39.5444672,19.2112762 C40.1491509,18.449883 40.7185669,17.7330428 40.5684548,16.9069783 C40.4158992,16.0663344 39.6189124,15.6029661 38.7750919,15.1123122 C38.0952299,14.7166288 37.6738898,14.4603061 37.5685751,14.1781638 C37.4626903,13.8937409 37.6194813,13.4219833 37.8841119,12.6757398 C38.2036397,11.7740899 38.5054114,10.9223687 38.0857817,10.2060987 C37.6655005,9.48876979 36.7718326,9.338169 35.8257111,9.17869018 C35.0571503,9.04934781 34.5770848,8.95877557 34.3878768,8.73413687 C34.199076,8.51031266 34.1915012,8.02291672 34.1949221,7.24621089 C34.1991575,6.28485824 34.2033114,5.38060194 33.5734597,4.84914163 C32.9396984,4.31466767 32.0503474,4.47031834 31.1088685,4.63517285 C30.3344433,4.77037961 29.8483505,4.84547638 29.5956116,4.69764489 C29.3435243,4.5499763 29.1696289,4.09173941 28.9067902,3.35632866 C28.5811537,2.44457897 28.2746578,1.58642328 27.485816,1.29263365 C26.7050377,1.00193912 25.910983,1.44356024 25.0700133,1.91100096 C24.3666123,2.30187882 23.917905,2.53490686 23.606848,2.47870646 C23.2980716,2.42266896 22.9610321,2.05264226 22.4368209,1.45357857 C21.7825342,0.706031789 21.1646555,2.44349569e-05 20.2962372,2.44349569e-05 C19.4284704,2.44349569e-05 18.8105104,0.705705989 18.1563051,1.45284552 C17.6316866,2.05247936 17.29481,2.42242461 16.985382,2.47838066 C16.6762798,2.53449961 16.2269209,2.30179737 15.5240901,1.91157111 C14.6808397,1.44315299 13.8867036,1.00202057 13.1069842,1.29230785 C12.3179794,1.58609749 12.0114022,2.44433462 11.6868245,3.35290777 C11.42366,4.09019187 11.2495202,4.5496505 10.9967813,4.69740054 C10.7445311,4.84523203 10.2584383,4.77021672 9.48621226,4.6352543 C8.54228988,4.47007399 7.6531018,4.31442332 7.01901467,4.84914163 C6.38916293,5.38003179 6.39323542,6.28436954 6.39763371,7.24189405 C6.40138041,8.02039178 6.39413137,8.50909092 6.20459755,8.73413687 C6.01547099,8.95828687 5.53613858,9.04885911 4.76977689,9.17812003 C3.82121186,9.33776175 2.92721824,9.48811819 2.50669263,10.2060987 C2.08730732,10.9217986 2.38907904,11.7733568 2.70852537,12.6748438 C2.97323741,13.4213317 3.12994693,13.8930079 3.02406212,14.1776751 C2.9189918,14.4601432 2.497163,14.7166288 1.81762685,15.1117421 C0.973073287,15.603129 0.176656593,16.0664158 0.024345362,16.9065711 C-0.125685273,17.7330428 0.443486322,18.449883 1.04613381,19.2086698 C1.5581276,19.8529382 1.86853301,20.2680881 1.86853301,20.6065123 C1.86853301,20.9451808 1.5581276,21.3603307 1.04678541,22.0037845 C0.443730672,22.7628158 -0.125848173,23.4797374 0.024345362,24.3066978 C0.176656593,25.1469345 0.973073287,25.6102213 1.8162422,26.1007123 C2.497163,26.4966401 2.9189918,26.7532071 3.02406212,27.0356752 C3.12994693,27.3203425 2.97323741,27.7920186 2.70876972,28.5379364 C2.38924194,29.4395863 2.08738877,30.291226 2.50669263,31.0075775 C2.92738114,31.7254765 3.82137476,31.8759144 4.76774064,32.0351488 C5.53524263,32.1641654 6.01530809,32.2547377 6.20459755,32.4794578 C6.39413137,32.7040965 6.40138041,33.1927956 6.39763371,33.9715377 C6.39323542,34.9288179 6.38916293,35.8329927 7.01901467,36.3645345 C7.6526131,36.8987641 8.54163828,36.7432763 9.48279137,36.5789105 C10.2569723,36.4432151 10.7440424,36.3676296 10.9971071,36.5161127 C11.2494387,36.6640256 11.42366,37.1233214 11.6868245,37.8604426 C12.0119723,38.7699931 12.3184681,39.6274157 13.1070656,39.9210425 C13.8874367,40.2118185 14.6816542,39.7700344 15.5224611,39.3026752 C16.1565482,38.9505674 16.5838342,38.7265803 16.888701,38.7265803 C16.9225027,38.7265803 16.9547568,38.7293496 16.9856263,38.7349697 C17.2951358,38.7910072 17.6319309,39.1610339 18.1556535,39.7600976 C18.8105104,40.5079701 19.4284704,41.2136517 20.2962372,41.2136517 C21.1646555,41.2136517 21.7825342,40.5076443 22.4367394,39.7600976 C22.9616837,39.1607081 23.2983974,38.7912515 23.6070924,38.735214 C23.9167647,38.6793394 24.3665308,38.9120417 25.0700133,39.303001 C25.9114717,39.7703602 26.7057707,40.211737 27.485816,39.9213683 C28.2746578,39.6274972 28.5811537,38.7693415 28.9056499,37.8607684 C29.1696289,37.1221811 29.3435243,36.6640256 29.5954487,36.5164385 C29.8483505,36.3682812 30.3346062,36.4436223 31.1069951,36.5785033 C32.0504288,36.7436021 32.9397798,36.8991714 33.5735411,36.3647788 C34.2033114,35.8333185 34.1991575,34.9291437 34.1949221,33.9717821 C34.1915012,33.1911666 34.199076,32.7037707 34.3878768,32.4794578 C34.5769219,32.2554707 35.0557656,32.1648985 35.8213943,32.035719 C36.7712625,31.8758329 37.6652561,31.7254765 38.0857817,31.007496 C38.5054114,30.2915518 38.2036397,29.4398306 37.8840304,28.5381807 C37.6194813,27.7920186 37.4626903,27.320261 37.5684937,27.0359196 C37.6740527,26.7529628 38.0956372,26.4965586 38.7748475,26.1018526 C39.6187495,25.6111172 40.4158178,25.1476675 40.5684548,24.3066978" id="Fill-7" fill="#000000" mask="url(#mask-2)"></path>
                        </g>
                        <path d="M19.0543386,20.484761 L16.3718691,20.484761 C16.0222863,20.484761 15.7379448,20.7691839 15.7379448,21.1186852 C15.7379448,21.4681866 16.0222863,21.752528 16.3718691,21.752528 L17.1765937,21.752528 C17.6159342,21.752528 17.9734176,22.1100114 17.9734176,22.549352 L17.9734176,23.6111323 C17.9734176,23.8887134 17.8249345,24.1509819 17.5859606,24.2956369 C17.1644576,24.5505749 16.5754937,24.6799173 15.8353589,24.6799173 C14.9334646,24.6799173 14.2184163,24.3429593 13.7102507,23.678247 C13.2072164,23.020295 12.9521154,22.0873684 12.9521154,20.9052052 L12.9521154,20.0750682 C12.9671836,18.887285 13.2018407,17.9717072 13.6494891,17.3538285 C14.1032462,16.7274791 14.7734971,16.4098247 15.6415897,16.4098247 C16.7549278,16.4098247 17.4923747,16.8788944 17.8334053,17.8040833 C17.9599784,18.1476388 18.27242,18.3695897 18.6292518,18.3695897 C18.9017831,18.3695897 19.1451552,18.2399215 19.2968149,18.0139796 C19.4506736,17.7846983 19.4785295,17.505814 19.3733777,17.2489211 C19.1572098,16.7211261 18.8391481,16.2777945 18.4280707,15.9313883 C17.7359913,15.3482887 16.7860416,15.0527072 15.6043671,15.0527072 C14.2106786,15.0527072 13.1560659,15.4954686 12.380256,16.4062409 C11.611858,17.3082166 11.2223648,18.5828254 11.2223648,20.1946366 L11.2223648,21.0465207 C11.2369443,22.0504716 11.4334828,22.9413701 11.8062788,23.6942926 C12.1773644,24.4437942 12.7120012,25.0277896 13.3952841,25.4299076 C14.0795443,25.83284 14.8779973,26.0371163 15.7682442,26.0371163 C16.6382101,26.0371163 17.4257488,25.9060634 18.1090316,25.6473787 C18.6904207,25.4273826 19.1693458,25.1145337 19.5323678,24.7176286 C19.632877,24.6078342 19.6882629,24.4599213 19.6882629,24.3013384 L19.6882629,21.1186852 C19.6882629,20.7691839 19.4039214,20.484761 19.0543386,20.484761" id="Fill-10" fill="#FFFFFF"></path>
                        <path d="M26.1954792,19.3527709 C25.8518423,19.6292932 25.3721841,19.7694684 24.7696995,19.7694684 L23.6371392,19.7694684 C23.1977173,19.7694684 22.8403153,19.411985 22.8403153,18.9726444 L22.8403153,17.3556204 C22.8403153,16.9162799 23.1977173,16.5588779 23.6371392,16.5588779 L24.7548756,16.5588779 C25.4255337,16.5588779 25.9086943,16.6815414 26.2318059,16.9337916 C26.5567908,17.1874265 26.7214824,17.6000515 26.7214824,18.1604265 C26.7214824,18.6708727 26.5444919,19.0720133 26.1954792,19.3527709 M26.4552228,24.0730344 C26.1087351,24.3768424 25.6243528,24.5308641 25.0156781,24.5308641 L23.6371392,24.5308641 C23.1977173,24.5308641 22.8403153,24.1734621 22.8403153,23.7341216 L22.8403153,21.7892619 C22.8403153,21.3499214 23.1977173,20.992438 23.6371392,20.992438 L25.1686409,20.992438 C26.3720625,21.0181761 26.9822034,21.6248147 26.9822034,22.7951676 C26.9822034,23.3364834 26.804887,23.7663757 26.4552228,24.0730344 M28.2321329,21.2672498 C28.1224199,21.116649 27.9946251,20.9813608 27.8522507,20.8649689 C27.6704547,20.7164859 27.5597643,20.4991776 27.5486057,20.2688374 C27.5376914,20.0459092 27.6185711,19.8368274 27.7761766,19.679955 C27.8775817,19.5791201 27.9690498,19.4686741 28.0478933,19.3517935 C28.3092659,18.9647438 28.4363277,18.5408787 28.4363277,18.0560892 C28.4363277,17.1003566 28.1322754,16.4024128 27.5070663,15.9225102 C26.8836491,15.4442367 25.9576456,15.201679 24.7548756,15.201679 L21.7518194,15.201679 C21.4023181,15.201679 21.1179766,15.4860204 21.1179766,15.8355218 L21.1179766,25.2542202 C21.1179766,25.6037216 21.4023181,25.888063 21.7518194,25.888063 L24.9931979,25.888063 C26.1850536,25.888063 27.1113014,25.6187898 27.7464474,25.0874924 C28.3861546,24.5522039 28.6972116,23.8048201 28.6972116,22.802661 C28.6972116,22.2072626 28.5407464,21.6907076 28.2321329,21.2672498" id="Fill-12" fill="#FFFFFF"></path>
                    </g>
                </g>
                <g id="Group-11" transform="translate(56.666667, 12.000000)">
                    <g id="Group-3" transform="translate(2.979167, 0.054075)">
                        <mask id="mask-4" fill="white">
                            <use xlink:href="#path-3"></use>
                        </mask>
                        <g id="Clip-2"></g>
                        <path d="M1.00420833,0.622991694 C1.00420833,0.383877385 0.822479167,0.190192352 0.598354167,0.190192352 C0.374,0.190192352 0.192270833,0.383877385 0.192270833,0.622991694 L0.192270833,3.21929926 C0.192270833,3.45816933 0.374,3.65185436 0.598354167,3.65185436 C0.822479167,3.65185436 1.00420833,3.45816933 1.00420833,3.21929926 L1.00420833,0.622991694 Z" id="Fill-1" fill="#DA272C" mask="url(#mask-4)"></path>
                    </g>
                    <path d="M3.983375,4.84088018 C3.983375,4.60176587 3.80164583,4.40832508 3.57752083,4.40832508 C3.35316667,4.40832508 3.1714375,4.60176587 3.1714375,4.84088018 L3.1714375,7.43718775 C3.1714375,7.67605781 3.35316667,7.86974285 3.57752083,7.86974285 C3.80164583,7.86974285 3.983375,7.67605781 3.983375,7.43718775 L3.983375,4.84088018 Z" id="Fill-4" fill="#DA272C"></path>
                    <g id="Group-8" transform="translate(3.895833, 3.473483)">
                        <mask id="mask-6" fill="white">
                            <use xlink:href="#path-5"></use>
                        </mask>
                        <g id="Clip-7"></g>
                        <path d="M2.85296458,0.150942434 L0.416922917,0.150942434 C0.192797917,0.150942434 0.01106875,0.344627467 0.01106875,0.583497533 C0.01106875,0.822611842 0.192797917,1.01629688 0.416922917,1.01629688 L2.85296458,1.01629688 C3.07731875,1.01629688 3.25904792,0.822611842 3.25904792,0.583497533 C3.25904792,0.344627467 3.07731875,0.150942434 2.85296458,0.150942434" id="Fill-6" fill="#DA272C" mask="url(#mask-6)"></path>
                    </g>
                    <path d="M0.405991667,4.48978026 L2.84203333,4.48978026 C3.06615833,4.48978026 3.2478875,4.29609523 3.2478875,4.05722516 C3.2478875,3.81811086 3.06615833,3.62442582 2.84203333,3.62442582 L0.405991667,3.62442582 C0.1816375,3.62442582 0.0001375,3.81811086 0.0001375,4.05722516 C0.0001375,4.29609523 0.1816375,4.48978026 0.405991667,4.48978026" id="Fill-9" fill="#DA272C"></path>
                </g>
                <g id="Group-11-Copy-3" transform="translate(9.333333, 51.333333)">
                    <g id="Group-3" transform="translate(2.166667, 0.039328)">
                        <mask id="mask-8" fill="white">
                            <use xlink:href="#path-7"></use>
                        </mask>
                        <g id="Clip-2"></g>
                        <path d="M0.730333333,0.453084868 C0.730333333,0.279183553 0.598166667,0.138321711 0.435166667,0.138321711 C0.272,0.138321711 0.139833333,0.279183553 0.139833333,0.453084868 L0.139833333,2.34130855 C0.139833333,2.51503224 0.272,2.65589408 0.435166667,2.65589408 C0.598166667,2.65589408 0.730333333,2.51503224 0.730333333,2.34130855 L0.730333333,0.453084868 Z" id="Fill-1" fill="#DA272C" mask="url(#mask-8)"></path>
                    </g>
                    <path d="M2.897,3.52064013 C2.897,3.34673882 2.76483333,3.20605461 2.60183333,3.20605461 C2.43866667,3.20605461 2.3065,3.34673882 2.3065,3.52064013 L2.3065,5.40886382 C2.3065,5.5825875 2.43866667,5.72344934 2.60183333,5.72344934 C2.76483333,5.72344934 2.897,5.5825875 2.897,5.40886382 L2.897,3.52064013 Z" id="Fill-4" fill="#DA272C"></path>
                    <g id="Group-8" transform="translate(2.833333, 2.526170)">
                        <mask id="mask-10" fill="white">
                            <use xlink:href="#path-9"></use>
                        </mask>
                        <g id="Clip-7"></g>
                        <path d="M2.07488333,0.109776316 L0.303216667,0.109776316 C0.140216667,0.109776316 0.00805,0.250638158 0.00805,0.424361842 C0.00805,0.598263158 0.140216667,0.739125 0.303216667,0.739125 L2.07488333,0.739125 C2.23805,0.739125 2.37021667,0.598263158 2.37021667,0.424361842 C2.37021667,0.250638158 2.23805,0.109776316 2.07488333,0.109776316" id="Fill-6" fill="#DA272C" mask="url(#mask-10)"></path>
                    </g>
                    <path d="M0.295266667,3.26529474 L2.06693333,3.26529474 C2.22993333,3.26529474 2.3621,3.12443289 2.3621,2.95070921 C2.3621,2.77680789 2.22993333,2.63594605 2.06693333,2.63594605 L0.295266667,2.63594605 C0.1321,2.63594605 0.0001,2.77680789 0.0001,2.95070921 C0.0001,3.12443289 0.1321,3.26529474 0.295266667,3.26529474" id="Fill-9" fill="#DA272C"></path>
                </g>
                <g id="Group-11-Copy" transform="translate(0.000000, 26.666667)">
                    <g id="Group-3" transform="translate(3.250000, 0.056807)">
                        <mask id="mask-12" fill="white">
                            <use xlink:href="#path-11"></use>
                        </mask>
                        <g id="Clip-2"></g>
                        <path d="M1.0955,0.654455921 C1.0955,0.403265132 0.89725,0.199798026 0.65275,0.199798026 C0.408,0.199798026 0.20975,0.403265132 0.20975,0.654455921 L0.20975,3.38189013 C0.20975,3.63282434 0.408,3.83629145 0.65275,3.83629145 C0.89725,3.83629145 1.0955,3.63282434 1.0955,3.38189013 L1.0955,0.654455921 Z" id="Fill-1" fill="#DA272C" mask="url(#mask-12)"></path>
                    </g>
                    <path d="M4.3455,5.08536908 C4.3455,4.83417829 4.14725,4.63096776 3.90275,4.63096776 C3.658,4.63096776 3.45975,4.83417829 3.45975,5.08536908 L3.45975,7.81280329 C3.45975,8.0637375 3.658,8.26720461 3.90275,8.26720461 C4.14725,8.26720461 4.3455,8.0637375 4.3455,7.81280329 L4.3455,5.08536908 Z" id="Fill-4" fill="#DA272C"></path>
                    <g id="Group-8" transform="translate(4.250000, 3.648912)">
                        <mask id="mask-14" fill="white">
                            <use xlink:href="#path-13"></use>
                        </mask>
                        <g id="Clip-7"></g>
                        <path d="M3.112325,0.158565789 L0.454825,0.158565789 C0.210325,0.158565789 0.012075,0.362032895 0.012075,0.612967105 C0.012075,0.864157895 0.210325,1.067625 0.454825,1.067625 L3.112325,1.067625 C3.357075,1.067625 3.555325,0.864157895 3.555325,0.612967105 C3.555325,0.362032895 3.357075,0.158565789 3.112325,0.158565789" id="Fill-6" fill="#DA272C" mask="url(#mask-14)"></path>
                    </g>
                    <path d="M0.4429,4.71653684 L3.1004,4.71653684 C3.3449,4.71653684 3.54315,4.51306974 3.54315,4.26213553 C3.54315,4.01094474 3.3449,3.80747763 3.1004,3.80747763 L0.4429,3.80747763 C0.19815,3.80747763 0.00015,4.01094474 0.00015,4.26213553 C0.00015,4.51306974 0.19815,4.71653684 0.4429,4.71653684" id="Fill-9" fill="#DA272C"></path>
                </g>
                <g id="Group-11-Copy-4" transform="translate(12.666667, 0.000000)">
                    <g id="Group-3" transform="translate(4.333333, 0.069916)">
                        <mask id="mask-16" fill="white">
                            <use xlink:href="#path-15"></use>
                        </mask>
                        <g id="Clip-2"></g>
                        <path d="M1.46066667,0.805484211 C1.46066667,0.496326316 1.19633333,0.245905263 0.870333333,0.245905263 C0.544,0.245905263 0.279666667,0.496326316 0.279666667,0.805484211 L0.279666667,4.16232632 C0.279666667,4.47116842 0.544,4.72158947 0.870333333,4.72158947 C1.19633333,4.72158947 1.46066667,4.47116842 1.46066667,4.16232632 L1.46066667,0.805484211 Z" id="Fill-1" fill="#DA272C" mask="url(#mask-16)"></path>
                    </g>
                    <path d="M5.794,6.25891579 C5.794,5.94975789 5.52966667,5.69965263 5.20366667,5.69965263 C4.87733333,5.69965263 4.613,5.94975789 4.613,6.25891579 L4.613,9.61575789 C4.613,9.9246 4.87733333,10.1750211 5.20366667,10.1750211 C5.52966667,10.1750211 5.794,9.9246 5.794,9.61575789 L5.794,6.25891579 Z" id="Fill-4" fill="#DA272C"></path>
                    <g id="Group-8" transform="translate(5.666667, 4.490968)">
                        <mask id="mask-18" fill="white">
                            <use xlink:href="#path-17"></use>
                        </mask>
                        <g id="Clip-7"></g>
                        <path d="M4.14976667,0.195157895 L0.606433333,0.195157895 C0.280433333,0.195157895 0.0161,0.445578947 0.0161,0.754421053 C0.0161,1.06357895 0.280433333,1.314 0.606433333,1.314 L4.14976667,1.314 C4.4761,1.314 4.74043333,1.06357895 4.74043333,0.754421053 C4.74043333,0.445578947 4.4761,0.195157895 4.14976667,0.195157895" id="Fill-6" fill="#DA272C" mask="url(#mask-18)"></path>
                    </g>
                    <path d="M4.13386667,5.80496842 C4.45986667,5.80496842 4.7242,5.55454737 4.7242,5.24570526 C4.7242,4.93654737 4.45986667,4.68612632 4.13386667,4.68612632 L0.590533333,4.68612632 C0.2642,4.68612632 0.0002,4.93654737 0.0002,5.24570526 C0.0002,5.55454737 0.2642,5.80496842 0.590533333,5.80496842 L4.13386667,5.80496842 Z" id="Fill-9" fill="#DA272C"></path>
                </g>
                <g id="Group-11-Copy-2" transform="translate(58.000000, 47.333333)">
                    <g id="Group-3" transform="translate(1.895833, 0.030588)">
                        <mask id="mask-20" fill="white">
                            <use xlink:href="#path-19"></use>
                        </mask>
                        <g id="Clip-2"></g>
                        <path d="M0.639041667,0.352399342 C0.639041667,0.217142763 0.523395833,0.107583553 0.380770833,0.107583553 C0.238,0.107583553 0.122354167,0.217142763 0.122354167,0.352399342 L0.122354167,1.82101776 C0.122354167,1.95613618 0.238,2.06569539 0.380770833,2.06569539 C0.523395833,2.06569539 0.639041667,1.95613618 0.639041667,1.82101776 L0.639041667,0.352399342 Z" id="Fill-1" fill="#DA272C" mask="url(#mask-20)"></path>
                    </g>
                    <path d="M2.534875,2.73827566 C2.534875,2.60301908 2.41922917,2.49359803 2.27660417,2.49359803 C2.13383333,2.49359803 2.0181875,2.60301908 2.0181875,2.73827566 L2.0181875,4.20689408 C2.0181875,4.3420125 2.13383333,4.45157171 2.27660417,4.45157171 C2.41922917,4.45157171 2.534875,4.3420125 2.534875,4.20689408 L2.534875,2.73827566 Z" id="Fill-4" fill="#DA272C"></path>
                    <g id="Group-8" transform="translate(2.479167, 1.964799)">
                        <mask id="mask-22" fill="white">
                            <use xlink:href="#path-21"></use>
                        </mask>
                        <g id="Clip-7"></g>
                        <path d="M1.81552292,0.0853815789 L0.265314583,0.0853815789 C0.122689583,0.0853815789 0.00704375,0.197292389 0.00704375,0.335311017 C0.00704375,0.473470769 0.122689583,0.585381579 0.265314583,0.585381579 L1.81552292,0.585381579 C1.95829375,0.585381579 2.07393958,0.473470769 2.07393958,0.335311017 C2.07393958,0.197292389 1.95829375,0.0853815789 1.81552292,0.0853815789" id="Fill-6" fill="#DA272C" mask="url(#mask-22)"></path>
                    </g>
                    <path d="M0.258358333,2.55018026 L1.80856667,2.55018026 C1.95119167,2.55018026 2.0668375,2.43826945 2.0668375,2.30025082 C2.0668375,2.16209107 1.95119167,2.05018026 1.80856667,2.05018026 L0.258358333,2.05018026 C0.1155875,2.05018026 8.75e-05,2.16209107 8.75e-05,2.30025082 C8.75e-05,2.43826945 0.1155875,2.55018026 0.258358333,2.55018026" id="Fill-9" fill="#DA272C"></path>
                </g>
            </g>
        </g>
    </g>
</svg>