<?xml version="1.0" encoding="UTF-8"?>
<svg width="91px" height="29px" viewBox="0 0 91 29" version="1.1" xmlns="http://www.w3.org/2000/svg" xmlns:xlink="http://www.w3.org/1999/xlink">
    <!-- Generator: sketchtool 51.2 (57519) - http://www.bohemiancoding.com/sketch -->
    <title>7C93FE0B-512B-47C0-B935-1FCC2E832E5E</title>
    <desc>Created with sketchtool.</desc>
    <defs>
        <polygon id="path-1" points="0.015219883 0.252568519 67.1143626 0.252568519 67.1143626 10.2962352 0.015219883 10.2962352"></polygon>
        <polygon id="path-3" points="0 0.0638 17.2526421 0.0638 17.2526421 8.46695278 0 8.46695278"></polygon>
        <polygon id="path-5" points="0.334092398 0.349074074 13.3401676 0.349074074 13.3401676 6.79244444 0.334092398 6.79244444"></polygon>
        <polygon id="path-7" points="0 0.302247618 4.05907895 0.302247618 4.05907895 2.99489554 0 2.99489554"></polygon>
    </defs>
    <g id="FLUJO-" stroke="none" stroke-width="1" fill="none" fill-rule="evenodd">
        <g id="REGISTRO" transform="translate(-796.000000, -274.000000)">
            <g id="Group-31" transform="translate(796.000000, 274.000000)">
                <g id="Group-3" transform="translate(23.415205, 5.021296)">
                    <mask id="mask-2" fill="white">
                        <use xlink:href="#path-1"></use>
                    </mask>
                    <g id="Clip-2"></g>
                    <path d="M20.8749743,10.2962352 L23.9115006,10.2962352 L19.1821614,0.89217963 C18.9341731,0.429253704 18.6888456,0.252568519 18.1226234,0.252568519 L15.5112959,0.252568519 L10.5345006,10.2962352 L13.5688982,10.2962352 L14.4517579,8.44453148 L20.0277696,8.44453148 L20.8749743,10.2962352 Z M45.7610795,10.2962352 L48.7608865,10.2962352 L44.0294187,0.89217963 C43.7835591,0.429253704 43.5371673,0.252568519 42.9725415,0.252568519 L40.3606819,0.252568519 L35.3833544,10.2962352 L38.4193485,10.2962352 L39.3011439,8.44453148 L44.878752,8.44453148 L45.7610795,10.2962352 Z M56.4543778,7.83929074 C56.562407,8.19480926 56.984945,8.44453148 57.4436702,8.44453148 L60.3035181,8.44453148 L62.4209977,2.53336481 L64.4325766,10.2962352 L67.1146819,10.2962352 L64.8913018,1.39323519 C64.6816292,0.502827778 64.1861848,0.252568519 63.3741029,0.252568519 L60.5850327,0.252568519 L58.5750503,6.13043889 L56.984945,1.14082778 C56.7742082,0.502827778 56.3851965,0.252568519 55.7492608,0.252568519 L52.6089626,0.252568519 L50.0316936,10.2962352 L52.7505181,10.2962352 L54.7243135,2.53336481 L56.4543778,7.83929074 Z M43.8921205,6.41345741 L40.1840035,6.41345741 L42.0561556,2.38943889 L43.8921205,6.41345741 Z M19.0400737,6.41345741 L15.3346175,6.41345741 L17.2062374,2.38943889 L19.0400737,6.41345741 Z M8.41702105,10.2962352 L9.54574035,7.98053148 L2.87347135,7.98053148 L2.87347135,0.252568519 L0.015219883,0.252568519 L0.015219883,10.2962352 L8.41702105,10.2962352 Z M28.2539567,10.2962352 L31.0047111,10.2962352 L31.0047111,2.56719815 L35.8074889,2.24712407 L35.8074889,0.252568519 L23.4527754,0.252568519 L23.4527754,2.24712407 L28.2539567,2.56719815 L28.2539567,10.2962352 Z" id="Fill-1" fill="#273489" mask="url(#mask-2)"></path>
                </g>
                <path d="M4.05929181,25.5175296 L6.49500526,24.6228259 C7.00215731,24.4364741 7.00215731,24.8483815 7.00215731,25.4632889 L7.00215731,26.5942889 C7.00215731,27.508863 6.69829181,27.6211037 6.29225088,27.769863 L4.05929181,28.5899185 L4.05929181,25.5175296 Z" id="Fill-4" fill="#273489"></path>
                <path d="M4.05929181,20.4990796 L10.2504848,18.2252648 C10.7576368,18.038913 10.7576368,18.4508204 10.7576368,19.0657278 L10.7576368,20.1918944 C10.7576368,21.1113019 10.4532392,21.2235426 10.0471982,21.3723019 L4.05929181,23.5714685 L4.05929181,20.4990796 Z" id="Fill-6" fill="#273489"></path>
                <g id="Group-10" transform="translate(0.000000, 5.021296)">
                    <mask id="mask-4" fill="white">
                        <use xlink:href="#path-3"></use>
                    </mask>
                    <g id="Clip-9"></g>
                    <path d="M3.55208655,8.32718889 L0.405934503,7.17148519 C-0.000106432749,7.02272593 -0.000106432749,6.46528148 -0.000106432749,6.26067037 C-0.000106432749,6.26067037 -0.000106432749,6.93196667 0.609221053,6.70855926 L16.0350515,1.04281852 C17.2526421,0.595466667 17.2526421,0.250151852 16.7454901,0.0638 C17.2526421,0.250151852 17.2526421,0.250151852 17.2526421,1.75439259 C17.2526421,3.18828148 17.2526421,3.66785556 16.6443789,3.89126296 L4.56692281,8.32718889 C4.0592386,8.51354074 4.0592386,8.51354074 3.55208655,8.32718889" id="Fill-8" fill="#273489" mask="url(#mask-4)"></path>
                </g>
                <path d="M1.3195,7.51003333 L6.70819006,9.48955185 L10.8904649,7.95308889 L0.811815789,4.25129259 C0.101377193,3.99029259 0.000266081871,3.9527 0.000266081871,4.46503333 L0.000266081871,5.79634815 C0.000266081871,7.02562593 0.912926901,7.36127407 1.3195,7.51003333" id="Fill-11" fill="#E53357"></path>
                <path d="M16.7454901,10.1037074 L15.0728994,9.48933704 L10.8906246,11.0258 L13.5402678,11.9983741 L16.0350515,11.0821889 C17.2526421,10.634837 17.2526421,10.2900593 16.7454901,10.1037074" id="Fill-13" fill="#E53357"></path>
                <path d="M16.7454901,10.1037074 C17.2526421,10.2900593 17.2526421,10.634837 16.0350515,11.0821889 L4.0592386,15.4810593 L4.0592386,18.5534481 L16.6443789,13.9306333 C17.2526421,13.7072259 17.2526421,13.2276519 17.2526421,11.793763 C17.2526421,10.2900593 17.2526421,10.2900593 16.7454901,10.1037074" id="Fill-15" fill="#273489"></path>
                <g id="Group-19" transform="translate(3.725146, 0.187963)">
                    <mask id="mask-6" fill="white">
                        <use xlink:href="#path-5"></use>
                    </mask>
                    <g id="Clip-18"></g>
                    <path d="M13.0203439,4.89724074 C13.0203439,4.89724074 1.8560807,0.796425926 1.14617427,0.535962963 C0.436267836,0.274962963 0.334092398,0.23737037 0.334092398,0.749703704 L0.334092398,2.08101852 C0.334092398,3.30975926 1.24728538,3.64540741 1.65332632,3.7947037 L9.81458947,6.79244444 L12.3099053,5.87572222 C13.5274959,5.42837037 13.5274959,5.08359259 13.0203439,4.89724074" id="Fill-17" fill="#E53357" mask="url(#mask-6)"></path>
                </g>
                <g id="Group-22" transform="translate(0.000000, 8.780556)">
                    <mask id="mask-8" fill="white">
                        <use xlink:href="#path-7"></use>
                    </mask>
                    <g id="Clip-21"></g>
                    <path d="M0.609061404,2.94919259 L4.05907895,1.68178519 L0.811815789,0.489025926 C0.101377193,0.228025926 -0.000266081871,0.19097037 -0.000266081871,0.702766667 L-0.000266081871,2.5013037 C-0.000266081871,2.5013037 -0.000266081871,3.17313704 0.609061404,2.94919259" id="Fill-20" fill="#E53357" mask="url(#mask-8)"></path>
                </g>
                <path d="M30.2117339,22.9147259 C30.2117339,21.9840407 29.5577047,21.1355222 27.7020497,21.1355222 L24.3989094,21.1355222 L24.3989094,24.4930778 C25.064114,24.7873741 25.9980614,25.0113185 26.919769,25.0113185 C29.3480322,25.0113185 30.2117339,24.0570037 30.2117339,22.9147259 M24.3989094,25.3995963 L24.3989094,28.497763 L23.4303713,28.497763 L23.4303713,20.2520963 L27.7957105,20.2520963 C29.9786462,20.2520963 31.1690965,21.3240222 31.1690965,22.8792815 C31.1690965,24.7164852 29.7104357,25.8947444 26.9431842,25.8947444 C25.9746462,25.8947444 24.9938684,25.6944296 24.3989094,25.3995963" id="Fill-23" fill="#273489"></path>
                <path d="M36.4370918,21.0885852 L34.2658637,25.3644741 L38.6200275,25.3644741 L36.4370918,21.0885852 Z M39.0750275,26.2479 L33.8220392,26.2479 L32.6784193,28.4975481 L31.6391035,28.4975481 L35.888431,20.2524185 L36.5185129,20.2524185 C36.8457936,20.2524185 37.0320509,20.3582148 37.1725421,20.6294185 L41.2579632,28.4975481 L40.2186474,28.4975481 L39.0750275,26.2479 Z" id="Fill-25" fill="#273489"></path>
                <path d="M49.6663632,20.5937593 L49.3507901,21.4777222 C48.9303807,21.3005 47.9969655,20.9949259 46.5957784,20.9949259 C44.9152053,20.9949259 43.9812579,21.6307778 43.9812579,22.4196852 C43.9812579,23.1618704 44.5772813,23.5506852 46.1061877,23.8100741 L46.8065152,23.9271481 C48.8255444,24.2687037 50.0048193,24.9169074 50.0048193,26.2364074 C50.0048193,27.6853333 48.697293,28.6509259 46.2578544,28.6509259 C44.3665444,28.6509259 43.1063807,28.1332222 42.720562,27.8969259 L43.0244275,27.0258519 C43.3857667,27.2841667 44.693293,27.7556852 46.3738661,27.7675 C48.1954626,27.7675 49.035217,27.1547407 49.035217,26.2949444 C49.035217,25.5055 48.265176,25.0817778 46.5957784,24.7992963 L45.895983,24.6811481 C44.1446322,24.3868519 43.0127199,23.7859074 43.0127199,22.4669444 C43.0127199,21.0765556 44.4367901,20.110963 46.7011468,20.110963 C48.1023339,20.110963 49.152293,20.4052593 49.6663632,20.5937593" id="Fill-27" fill="#273489"></path>
                <path d="M58.9371345,20.5937593 L58.6220936,21.4777222 C58.2016842,21.3005 57.2677368,20.9949259 55.8670819,20.9949259 C54.1865088,20.9949259 53.2525614,21.6307778 53.2525614,22.4196852 C53.2525614,23.1618704 53.8480526,23.5506852 55.3774912,23.8100741 L56.0772865,23.9271481 C58.096848,24.2687037 59.2761228,24.9169074 59.2761228,26.2364074 C59.2761228,27.6853333 57.9685965,28.6509259 55.5291579,28.6509259 C53.637848,28.6509259 52.3776842,28.1332222 51.9918655,27.8969259 L52.295731,27.0258519 C52.6570702,27.2841667 53.9645965,27.7556852 55.6451696,27.7675 C57.4662339,27.7675 58.3065205,27.1547407 58.3065205,26.2949444 C58.3065205,25.5055 57.5364795,25.0817778 55.8670819,24.7992963 L55.1667544,24.6811481 C53.4159357,24.3868519 52.2840234,23.7859074 52.2840234,22.4669444 C52.2840234,21.0765556 53.7080936,20.110963 55.9724503,20.110963 C57.3736374,20.110963 58.4235965,20.4052593 58.9371345,20.5937593" id="Fill-29" fill="#273489"></path>
            </g>
        </g>
    </g>
</svg>