<?xml version="1.0" encoding="UTF-8"?>
<svg width="152px" height="133px" viewBox="0 0 152 133" version="1.1" xmlns="http://www.w3.org/2000/svg" xmlns:xlink="http://www.w3.org/1999/xlink">
    <!-- Generator: sketchtool 51.2 (57519) - http://www.bohemiancoding.com/sketch -->
    <title>B45DF8D4-BCA2-4CA9-A852-A4071970646B</title>
    <desc>Created with sketchtool.</desc>
    <defs>
        <polygon id="path-1" points="0.34084375 0.322875 1.7801875 0.322875 1.7801875 6.19708618 0.34084375 6.19708618"></polygon>
        <polygon id="path-3" points="0.019621875 0.256144737 5.77728125 0.256144737 5.77728125 1.724625 0.019621875 1.724625"></polygon>
        <polygon id="path-5" points="0.34084375 0.322875 1.7801875 0.322875 1.7801875 6.19708618 0.34084375 6.19708618"></polygon>
        <polygon id="path-7" points="0.019621875 0.256144737 5.77728125 0.256144737 5.77728125 1.724625 0.019621875 1.724625"></polygon>
        <polygon id="path-9" points="0.49815625 0.46125 2.6018125 0.46125 2.6018125 8.85298026 0.49815625 8.85298026"></polygon>
        <polygon id="path-11" points="0.028678125 0.365921053 8.44371875 0.365921053 8.44371875 2.46375 0.028678125 2.46375"></polygon>
        <polygon id="path-13" points="0.62925 0.5765625 3.2865 0.5765625 3.2865 11.0662253 0.62925 11.0662253"></polygon>
        <polygon id="path-15" points="0.036225 0.457401316 10.66575 0.457401316 10.66575 3.0796875 0.036225 3.0796875"></polygon>
        <polygon id="path-17" points="0.2621875 0.2536875 1.369375 0.2536875 1.369375 4.86913914 0.2621875 4.86913914"></polygon>
        <polygon id="path-19" points="0.01509375 0.201256579 4.4440625 0.201256579 4.4440625 1.3550625 0.01509375 1.3550625"></polygon>
        <polygon id="path-21" points="0 6.48466163e-05 107.726874 6.48466163e-05 107.726874 109.374626 0 109.374626"></polygon>
    </defs>
    <g id="FLUJO-" stroke="none" stroke-width="1" fill="none" fill-rule="evenodd">
        <g id="2.1.-Arma-tu-mancha" transform="translate(-784.000000, -372.000000)">
            <g id="Group-22" transform="translate(784.000000, 372.000000)">
                <g id="Group-11" transform="translate(139.000000, 27.000000)">
                    <g id="Group-3" transform="translate(5.281250, 0.091764)">
                        <mask id="mask-2" fill="white">
                            <use xlink:href="#path-1"></use>
                        </mask>
                        <g id="Clip-2"></g>
                        <path d="M1.7801875,1.05719803 C1.7801875,0.651428289 1.45803125,0.322750658 1.06071875,0.322750658 C0.663,0.322750658 0.34084375,0.651428289 0.34084375,1.05719803 L0.34084375,5.46305329 C0.34084375,5.86840855 0.663,6.19708618 1.06071875,6.19708618 C1.45803125,6.19708618 1.7801875,5.86840855 1.7801875,5.46305329 L1.7801875,1.05719803 Z" id="Fill-1" fill="#DA272C" mask="url(#mask-2)"></path>
                    </g>
                    <path d="M7.0614375,8.21482697 C7.0614375,7.80905724 6.73928125,7.48079408 6.34196875,7.48079408 C5.94425,7.48079408 5.62209375,7.80905724 5.62209375,8.21482697 L5.62209375,12.6206822 C5.62209375,13.0260375 5.94425,13.3547151 6.34196875,13.3547151 C6.73928125,13.3547151 7.0614375,13.0260375 7.0614375,12.6206822 L7.0614375,8.21482697 Z" id="Fill-4" fill="#DA272C"></path>
                    <g id="Group-8" transform="translate(6.906250, 5.894396)">
                        <mask id="mask-4" fill="white">
                            <use xlink:href="#path-3"></use>
                        </mask>
                        <g id="Clip-7"></g>
                        <path d="M5.05752812,0.256144737 L0.739090625,0.256144737 C0.341778125,0.256144737 0.019621875,0.584822368 0.019621875,0.990177632 C0.019621875,1.39594737 0.341778125,1.724625 0.739090625,1.724625 L5.05752812,1.724625 C5.45524687,1.724625 5.77740312,1.39594737 5.77740312,0.990177632 C5.77740312,0.584822368 5.45524687,0.256144737 5.05752812,0.256144737" id="Fill-6" fill="#DA272C" mask="url(#mask-4)"></path>
                    </g>
                    <path d="M0.7197125,7.61902105 L5.03815,7.61902105 C5.4354625,7.61902105 5.75761875,7.29034342 5.75761875,6.88498816 C5.75761875,6.47921842 5.4354625,6.15054079 5.03815,6.15054079 L0.7197125,6.15054079 C0.32199375,6.15054079 0.00024375,6.47921842 0.00024375,6.88498816 C0.00024375,7.29034342 0.32199375,7.61902105 0.7197125,7.61902105" id="Fill-9" fill="#DA272C"></path>
                </g>
                <g id="Group-11-Copy-3" transform="translate(24.000000, 119.000000)">
                    <g id="Group-3" transform="translate(5.281250, 0.091764)">
                        <mask id="mask-6" fill="white">
                            <use xlink:href="#path-5"></use>
                        </mask>
                        <g id="Clip-2"></g>
                        <path d="M1.7801875,1.05719803 C1.7801875,0.651428289 1.45803125,0.322750658 1.06071875,0.322750658 C0.663,0.322750658 0.34084375,0.651428289 0.34084375,1.05719803 L0.34084375,5.46305329 C0.34084375,5.86840855 0.663,6.19708618 1.06071875,6.19708618 C1.45803125,6.19708618 1.7801875,5.86840855 1.7801875,5.46305329 L1.7801875,1.05719803 Z" id="Fill-1" fill="#DA272C" mask="url(#mask-6)"></path>
                    </g>
                    <path d="M7.0614375,8.21482697 C7.0614375,7.80905724 6.73928125,7.48079408 6.34196875,7.48079408 C5.94425,7.48079408 5.62209375,7.80905724 5.62209375,8.21482697 L5.62209375,12.6206822 C5.62209375,13.0260375 5.94425,13.3547151 6.34196875,13.3547151 C6.73928125,13.3547151 7.0614375,13.0260375 7.0614375,12.6206822 L7.0614375,8.21482697 Z" id="Fill-4" fill="#DA272C"></path>
                    <g id="Group-8" transform="translate(6.906250, 5.894396)">
                        <mask id="mask-8" fill="white">
                            <use xlink:href="#path-7"></use>
                        </mask>
                        <g id="Clip-7"></g>
                        <path d="M5.05752812,0.256144737 L0.739090625,0.256144737 C0.341778125,0.256144737 0.019621875,0.584822368 0.019621875,0.990177632 C0.019621875,1.39594737 0.341778125,1.724625 0.739090625,1.724625 L5.05752812,1.724625 C5.45524687,1.724625 5.77740312,1.39594737 5.77740312,0.990177632 C5.77740312,0.584822368 5.45524687,0.256144737 5.05752812,0.256144737" id="Fill-6" fill="#DA272C" mask="url(#mask-8)"></path>
                    </g>
                    <path d="M0.7197125,7.61902105 L5.03815,7.61902105 C5.4354625,7.61902105 5.75761875,7.29034342 5.75761875,6.88498816 C5.75761875,6.47921842 5.4354625,6.15054079 5.03815,6.15054079 L0.7197125,6.15054079 C0.32199375,6.15054079 0.00024375,6.47921842 0.00024375,6.88498816 C0.00024375,7.29034342 0.32199375,7.61902105 0.7197125,7.61902105" id="Fill-9" fill="#DA272C"></path>
                </g>
                <g id="Group-11-Copy" transform="translate(0.000000, 62.000000)">
                    <g id="Group-3" transform="translate(7.718750, 0.131092)">
                        <mask id="mask-10" fill="white">
                            <use xlink:href="#path-9"></use>
                        </mask>
                        <g id="Clip-2"></g>
                        <path d="M2.6018125,1.51028289 C2.6018125,0.930611842 2.13096875,0.461072368 1.55028125,0.461072368 C0.969,0.461072368 0.49815625,0.930611842 0.49815625,1.51028289 L0.49815625,7.80436184 C0.49815625,8.38344079 0.969,8.85298026 1.55028125,8.85298026 C2.13096875,8.85298026 2.6018125,8.38344079 2.6018125,7.80436184 L2.6018125,1.51028289 Z" id="Fill-1" fill="#DA272C" mask="url(#mask-10)"></path>
                    </g>
                    <path d="M10.3205625,11.7354671 C10.3205625,11.1557961 9.84971875,10.6868487 9.26903125,10.6868487 C8.68775,10.6868487 8.21690625,11.1557961 8.21690625,11.7354671 L8.21690625,18.0295461 C8.21690625,18.608625 8.68775,19.0781645 9.26903125,19.0781645 C9.84971875,19.0781645 10.3205625,18.608625 10.3205625,18.0295461 L10.3205625,11.7354671 Z" id="Fill-4" fill="#DA272C"></path>
                    <g id="Group-8" transform="translate(10.093750, 8.420566)">
                        <mask id="mask-12" fill="white">
                            <use xlink:href="#path-11"></use>
                        </mask>
                        <g id="Clip-7"></g>
                        <path d="M7.39177187,0.365921053 L1.08020937,0.365921053 C0.499521875,0.365921053 0.028678125,0.835460526 0.028678125,1.41453947 C0.028678125,1.99421053 0.499521875,2.46375 1.08020937,2.46375 L7.39177187,2.46375 C7.97305312,2.46375 8.44389687,1.99421053 8.44389687,1.41453947 C8.44389687,0.835460526 7.97305312,0.365921053 7.39177187,0.365921053" id="Fill-6" fill="#DA272C" mask="url(#mask-12)"></path>
                    </g>
                    <path d="M1.0518875,10.8843158 L7.36345,10.8843158 C7.9441375,10.8843158 8.41498125,10.4147763 8.41498125,9.83569737 C8.41498125,9.25602632 7.9441375,8.78648684 7.36345,8.78648684 L1.0518875,8.78648684 C0.47060625,8.78648684 0.00035625,9.25602632 0.00035625,9.83569737 C0.00035625,10.4147763 0.47060625,10.8843158 1.0518875,10.8843158" id="Fill-9" fill="#DA272C"></path>
                </g>
                <g id="Group-11-Copy-4" transform="translate(30.000000, 0.000000)">
                    <g id="Group-3" transform="translate(9.750000, 0.163865)">
                        <mask id="mask-14" fill="white">
                            <use xlink:href="#path-13"></use>
                        </mask>
                        <g id="Clip-2"></g>
                        <path d="M3.2865,1.88785362 C3.2865,1.1632648 2.69175,0.576340461 1.95825,0.576340461 C1.224,0.576340461 0.62925,1.1632648 0.62925,1.88785362 L0.62925,9.7554523 C0.62925,10.479301 1.224,11.0662253 1.95825,11.0662253 C2.69175,11.0662253 3.2865,10.479301 3.2865,9.7554523 L3.2865,1.88785362 Z" id="Fill-1" fill="#DA272C" mask="url(#mask-14)"></path>
                    </g>
                    <path d="M13.0365,14.6693339 C13.0365,13.9447451 12.44175,13.3585609 11.70825,13.3585609 C10.974,13.3585609 10.37925,13.9447451 10.37925,14.6693339 L10.37925,22.5369326 C10.37925,23.2607812 10.974,23.8477056 11.70825,23.8477056 C12.44175,23.8477056 13.0365,23.2607812 13.0365,22.5369326 L13.0365,14.6693339 Z" id="Fill-4" fill="#DA272C"></path>
                    <g id="Group-8" transform="translate(12.750000, 10.525707)">
                        <mask id="mask-16" fill="white">
                            <use xlink:href="#path-15"></use>
                        </mask>
                        <g id="Clip-7"></g>
                        <path d="M9.336975,0.457401316 L1.364475,0.457401316 C0.630975,0.457401316 0.036225,1.04432566 0.036225,1.76817434 C0.036225,2.49276316 0.630975,3.0796875 1.364475,3.0796875 L9.336975,3.0796875 C10.071225,3.0796875 10.665975,2.49276316 10.665975,1.76817434 C10.665975,1.04432566 10.071225,0.457401316 9.336975,0.457401316" id="Fill-6" fill="#DA272C" mask="url(#mask-16)"></path>
                    </g>
                    <path d="M1.3287,13.6053947 L9.3012,13.6053947 C10.0347,13.6053947 10.62945,13.0184704 10.62945,12.2946217 C10.62945,11.5700329 10.0347,10.9831086 9.3012,10.9831086 L1.3287,10.9831086 C0.59445,10.9831086 0.00045,11.5700329 0.00045,12.2946217 C0.00045,13.0184704 0.59445,13.6053947 1.3287,13.6053947" id="Fill-9" fill="#DA272C"></path>
                </g>
                <g id="Group-11-Copy-2" transform="translate(138.000000, 112.000000)">
                    <g id="Group-3" transform="translate(4.062500, 0.072101)">
                        <mask id="mask-18" fill="white">
                            <use xlink:href="#path-17"></use>
                        </mask>
                        <g id="Clip-2"></g>
                        <path d="M1.369375,0.830655592 C1.369375,0.511836513 1.1215625,0.253589803 0.8159375,0.253589803 C0.51,0.253589803 0.2621875,0.511836513 0.2621875,0.830655592 L0.2621875,4.29239901 C0.2621875,4.61089243 0.51,4.86913914 0.8159375,4.86913914 C1.1215625,4.86913914 1.369375,4.61089243 1.369375,4.29239901 L1.369375,0.830655592 Z" id="Fill-1" fill="#DA272C" mask="url(#mask-18)"></path>
                    </g>
                    <path d="M5.431875,6.45450691 C5.431875,6.13568783 5.1840625,5.87776678 4.8784375,5.87776678 C4.5725,5.87776678 4.3246875,6.13568783 4.3246875,6.45450691 L4.3246875,9.91625033 C4.3246875,10.2347437 4.5725,10.4929905 4.8784375,10.4929905 C5.1840625,10.4929905 5.431875,10.2347437 5.431875,9.91625033 L5.431875,6.45450691 Z" id="Fill-4" fill="#DA272C"></path>
                    <g id="Group-8" transform="translate(5.312500, 4.631311)">
                        <mask id="mask-20" fill="white">
                            <use xlink:href="#path-19"></use>
                        </mask>
                        <g id="Clip-7"></g>
                        <path d="M3.89040625,0.201256579 L0.56853125,0.201256579 C0.26290625,0.201256579 0.01509375,0.459503289 0.01509375,0.777996711 C0.01509375,1.09681579 0.26290625,1.3550625 0.56853125,1.3550625 L3.89040625,1.3550625 C4.19634375,1.3550625 4.44415625,1.09681579 4.44415625,0.777996711 C4.44415625,0.459503289 4.19634375,0.201256579 3.89040625,0.201256579" id="Fill-6" fill="#DA272C" mask="url(#mask-20)"></path>
                    </g>
                    <path d="M0.553625,5.98637368 L3.8755,5.98637368 C4.181125,5.98637368 4.4289375,5.72812697 4.4289375,5.40963355 C4.4289375,5.09081447 4.181125,4.83256776 3.8755,4.83256776 L0.553625,4.83256776 C0.2476875,4.83256776 0.0001875,5.09081447 0.0001875,5.40963355 C0.0001875,5.72812697 0.2476875,5.98637368 0.553625,5.98637368" id="Fill-9" fill="#DA272C"></path>
                </g>
                <g id="Group-16" transform="translate(31.000000, 19.000000)">
                    <g id="Group-3" transform="translate(6.138462, 2.630769)">
                        <path d="M107.662481,64.5061283 C108.060855,62.3132319 106.549497,60.4108484 104.949082,58.3964963 C103.590762,56.6856264 102.768291,55.5851793 102.768291,54.6872699 C102.768291,53.7904412 103.590762,52.6897779 104.945192,50.9838796 C106.549929,48.963259 108.060855,47.0606593 107.662481,44.8684114 C107.257622,42.6376878 105.142541,41.4077636 102.903172,40.1056436 C101.098923,39.0557768 99.9807508,38.3755358 99.7012619,37.6267736 C99.4202599,36.8717428 99.836359,35.6197708 100.538648,33.6395713 C101.386625,31.246515 102.187481,28.9863943 101.074065,27.0853076 C99.9584868,25.1818433 97.587046,24.7819558 95.0759689,24.3587236 C93.0363267,24.015685 91.7623068,23.7753202 91.2601778,23.1791636 C90.7591296,22.5851686 90.7390272,21.2914786 90.7481057,19.2302208 C90.759562,16.6791549 90.7705859,14.2793978 89.0988401,12.8687678 C87.416935,11.4503561 85.0567344,11.8634291 82.5581942,12.3009276 C80.503205,12.6599617 79.2129735,12.8592569 78.5422433,12.4667188 C77.8734585,12.074829 77.4119668,10.8587388 76.7142172,8.90707183 C75.8500279,6.48764458 75.0366352,4.21001526 72.9431703,3.43034277 C70.8711047,2.65888419 68.7638059,3.83109486 66.5320015,5.07139448 C64.6652836,6.10872418 63.4744835,6.72714474 62.6489861,6.57799753 C61.829541,6.42949878 60.93509,5.44750485 59.5441301,3.85768197 C57.8075377,1.87380782 56.1679991,-4.32310776e-05 53.8631342,-4.32310776e-05 C51.5602147,-4.32310776e-05 49.9202438,1.87272705 48.1840837,3.85552042 C46.7918269,5.44707254 45.8978082,6.42863415 45.0766339,6.57734906 C44.2563242,6.72628012 43.0635787,6.10872418 41.1988062,5.07290756 C38.9607333,3.83001408 36.8532183,2.65910035 34.7839628,3.42947815 C32.6900655,4.20936679 31.8766728,6.48677995 31.0150774,8.89820946 C30.3166794,10.854848 29.8545391,12.0741806 29.1840251,12.4660703 C28.5143757,12.8586085 27.2243604,12.6595294 25.1752073,12.3013599 C22.6699664,11.8627806 20.310198,11.4497077 18.6274283,12.8689839 C16.9558987,14.2778847 16.9667065,16.677858 16.9783789,19.2187646 C16.9885382,21.284994 16.9690842,22.5817101 16.4660906,23.1791636 C15.9641778,23.7738071 14.6923195,24.014388 12.6582973,24.3574266 C10.1409516,24.780875 7.76821394,25.180114 6.65220367,27.0853076 C5.53943574,28.984665 6.34029145,31.2445696 7.18805288,33.6369774 C7.89055789,35.6182577 8.30665701,36.8697974 8.02543885,37.6252605 C7.7465984,38.3751035 6.62712965,39.0557768 4.82374525,40.1043466 C2.58243003,41.4081959 0.468862651,42.6376878 0.0648682318,44.8675467 C-0.333506148,47.0608755 1.1769877,48.9630429 2.77653757,50.9769626 C4.13507418,52.6867517 4.95884236,53.7884958 4.95884236,54.6864052 C4.95884236,55.5851793 4.13507418,56.6869233 2.77805066,58.3947671 C1.17763617,60.4091191 -0.333938458,62.3117188 0.0646520765,64.5061283 C0.468862651,66.7359873 2.58243003,67.9656953 4.82007061,69.2671669 C6.62712965,70.3181144 7.7465984,70.9987877 8.02543885,71.7486308 C8.30665701,72.5038777 7.89055789,73.7556335 7.18870134,75.7351846 C6.34072376,78.1282409 5.53965189,80.3883616 6.65241983,82.2894482 C7.7688624,84.1946418 10.1413839,84.5938808 12.6528934,85.0164646 C14.6897256,85.3588547 15.9635293,85.5990034 16.4660906,86.1955923 C16.9690842,86.7917488 16.9885382,88.0886811 16.9783789,90.1551266 C16.9667065,92.6956009 16.9558987,95.095358 18.6276445,96.5057719 C20.3089011,97.9237513 22.6682371,97.5108945 25.1661288,97.0749091 C27.2206857,96.7147942 28.5130788,96.5139858 29.1846736,96.9080371 C29.854323,97.3007915 30.3166794,98.5194755 31.0150774,100.475682 C31.8779697,102.889489 32.6913625,105.165173 34.7841789,105.944197 C36.8551637,106.715872 38.9628949,105.543661 41.1942669,104.303145 C42.8770366,103.368705 44.0109878,102.774278 44.8200574,102.774278 C44.9099781,102.774278 44.9953594,102.781627 45.0772823,102.796758 C45.898889,102.945257 46.7922592,103.927251 48.1823545,105.517074 C49.9202438,107.501813 51.5602147,109.374583 53.8631342,109.374583 C56.1679991,109.374583 57.8075377,107.500948 59.543914,105.517074 C60.9368193,103.926386 61.8304056,102.945906 62.6496346,102.797191 C63.4716735,102.649124 64.6650674,103.266464 66.5320015,104.30401 C68.7651028,105.544309 70.8732663,106.715656 72.9431703,105.945062 C75.0366352,105.165389 75.8500279,102.88776 76.7114072,100.476546 C77.4119668,98.5166655 77.8734585,97.3007915 78.541811,96.9089017 C79.2131896,96.5159312 80.5034211,96.715875 82.5532227,97.0736121 C85.0569505,97.5117591 87.4171512,97.9246159 89.0990563,96.5066366 C90.7705859,95.0962227 90.759562,92.6964655 90.7481057,90.1557751 C90.7390272,88.0841419 90.7591296,86.7908842 91.2601778,86.1955923 C91.7618745,85.6011649 93.032652,85.360584 95.0647288,85.0179777 C97.5853168,84.5936647 99.9578383,84.1944257 101.074065,82.2892321 C102.187481,80.3890101 101.386625,78.1286732 100.538432,75.735833 C99.836359,73.7556335 99.4202599,72.5036615 99.7010457,71.7492792 C99.9811831,70.9981393 101.10022,70.3178983 102.902523,69.2701931 C105.142109,67.968073 107.257406,66.7379327 107.662481,64.5061283" id="Fill-1"></path>
                    </g>
                    <g id="Group-14">
                        <path d="M81.8436278,28.5020117 L81.817473,28.4721822 C81.528257,28.1226589 81.1024309,27.9220667 80.6495854,27.9220667 C79.8152256,27.9220667 79.1364977,28.6007947 79.1364977,29.4351545 C79.1364977,29.7924593 79.2633809,30.1391726 79.494451,30.4115283 L79.5182281,30.4396285 C79.5424375,30.4670803 79.56816,30.4934512 79.5943148,30.5187414 L79.6170111,30.54187 C85.7746296,37.106293 89.1656754,45.6813934 89.1656754,54.6872915 C89.1656754,64.1175026 85.4938438,72.9826835 78.8265309,79.6497803 C72.1596502,86.3177417 63.2942532,89.9897894 53.8631774,89.9897894 C49.7802183,89.9897894 45.7785336,89.2987406 41.9696595,87.9356647 L41.9393978,87.9239924 C41.8929244,87.9047545 41.8447217,87.8881106 41.7960868,87.8727635 L41.7822528,87.8686566 C41.6430488,87.8278032 41.4993054,87.8072684 41.3549136,87.8072684 C40.5205538,87.8072684 39.8418259,88.4859964 39.8418259,89.3203562 C39.8418259,89.9846017 40.2862414,90.5811905 40.922819,90.770975 L40.9558908,90.7817827 C45.090511,92.2602856 49.4330728,93.0101286 53.8631774,93.0101286 C64.0989997,93.0101286 73.7226698,89.023791 80.9610653,81.7851793 C88.1994608,74.5467839 92.1860146,64.9233299 92.1860146,54.6872915 C92.1860146,44.9248495 88.5128861,35.6254125 81.8436278,28.5020117" id="Fill-1" fill="#000000"></path>
                        <path d="M74.1259942,22.4354162 C73.2918505,22.4354162 72.6129065,23.1141441 72.6129065,23.9485039 C72.6129065,24.7828637 73.2918505,25.4615916 74.1259942,25.4615916 C74.9601378,25.4615916 75.6390819,24.7828637 75.6390819,23.9485039 C75.6390819,23.1141441 74.9601378,22.4354162 74.1259942,22.4354162" id="Fill-3" fill="#000000"></path>
                        <path d="M66.9242587,18.6474227 L66.88989,18.6359664 C62.7187394,17.1287149 58.3359728,16.3643895 53.8630694,16.3643895 C43.6272471,16.3643895 34.0037931,20.3509433 26.7651815,27.5893388 C19.526786,34.8279504 15.5402322,44.4514044 15.5402322,54.6872266 C15.5402322,64.4276207 19.1988783,73.7117108 25.8417657,80.8294915 L25.8651105,80.8558625 C26.1545425,81.2019273 26.5782071,81.4001417 27.0278103,81.4001417 C27.8621701,81.4001417 28.540898,80.7214138 28.540898,79.887054 C28.540898,79.53083 28.4146633,79.1851975 28.1857547,78.9141386 L28.1533314,78.8760953 C28.1327966,78.8529667 28.1111811,78.831135 28.0891332,78.8097356 L28.0653562,78.7855262 C21.936054,72.2260748 18.5605714,63.6678345 18.5605714,54.6872266 C18.5605714,45.2567994 22.2326192,36.3916185 28.9005806,29.7247378 C35.5674612,23.0567764 44.4326421,19.3847287 53.8630694,19.3847287 C57.9458123,19.3847287 61.9462001,20.0755613 65.754858,21.4382049 L65.7740958,21.4382049 L65.8964398,21.489866 C66.0831981,21.5694112 66.2824933,21.6096161 66.4887056,21.6096161 C67.3230654,21.6096161 68.0017933,20.9308882 68.0017933,20.0965284 C68.0017933,19.4333637 67.5588909,18.8374233 66.9242587,18.6474227" id="Fill-5" fill="#000000"></path>
                        <g id="Group-9">
                            <mask id="mask-22" fill="white">
                                <use xlink:href="#path-21"></use>
                            </mask>
                            <g id="Clip-8"></g>
                            <path d="M104.705864,63.9794657 L104.705648,63.9801142 C104.557798,64.7900484 103.41131,65.4921211 101.397174,66.6634672 C99.4208651,67.8127654 97.5573895,68.8965685 96.886227,70.7003852 C96.2053376,72.5288436 96.929242,74.5723767 97.6959451,76.7358759 C98.5402481,79.1155306 98.847621,80.1465918 98.4829669,80.7697678 C98.1165835,81.3957538 97.0669329,81.6279047 94.579849,82.045733 C92.3242676,82.4259504 90.1985955,82.7841198 88.9641321,84.2490049 C87.7238325,85.7192939 87.7337756,87.8795508 87.7445834,90.166691 C87.7564719,92.6730127 87.7063239,93.740388 87.1540469,94.2083644 C86.6106322,94.6661815 85.5512547,94.5354075 83.0814632,94.1033129 C80.8250171,93.7077485 78.6982642,93.3359613 77.0215469,94.317739 C75.3588797,95.2921675 74.6356237,97.3164627 73.8697852,99.4594272 C73.0745495,101.685395 72.6260271,102.858255 71.8934765,103.129746 C71.1570351,103.404047 70.0501033,102.819995 67.9933848,101.676749 C65.9677927,100.55166 64.0550337,99.4886082 62.121956,99.8407253 C60.2154655,100.186358 58.7910015,101.81444 57.2826692,103.538279 C55.7538022,105.285247 54.7713759,106.355216 53.8639556,106.355216 C52.9556707,106.355216 51.9732444,105.285247 50.4454581,103.539576 C48.9358289,101.814008 47.5113649,100.186142 45.6046582,99.8407253 C43.6717968,99.4886082 41.7599024,100.551444 39.7360395,101.675668 C37.6767271,102.819995 36.5687146,103.404047 35.8327055,103.12953 C35.1010195,102.858255 34.6524971,101.685395 33.8583422,99.4620211 C33.0929359,97.3177597 32.3698962,95.2925998 30.7048512,94.317739 C29.0309439,93.3368259 26.9057041,93.7079647 24.6555265,94.1015836 C22.1783858,94.5349752 21.1174951,94.6659654 20.5753774,94.2096613 C20.0209389,93.7408203 19.9705747,92.6732288 19.9824632,90.166691 C19.993271,87.8795508 20.0032141,85.7192939 18.7631307,84.2492211 C17.5282349,82.7839037 15.4021305,82.4257342 13.1508722,82.0463815 C10.6598975,81.6281208 9.61067923,81.3957538 9.24407969,80.7695516 C8.8792094,80.1465918 9.18679852,79.1155306 10.0311015,76.7363083 C10.7978046,74.5723767 11.521709,72.5288436 10.8408195,70.7006014 C10.1685763,68.8952716 8.30445222,67.8116846 6.33095353,66.664548 C4.31141375,65.4893111 3.16751944,64.7885354 3.02118224,63.9792496 C2.87398042,63.166073 3.68650852,62.0945908 5.13518193,60.2713201 C6.59985084,58.4270823 7.98000299,56.6894091 7.98000299,54.6873779 C7.98000299,52.6844821 6.59833775,50.9457282 5.1358304,49.105165 C3.68499543,47.2777874 2.87398042,46.2078182 3.02139839,45.3959386 C3.16795175,44.5849236 4.31530454,43.8826347 6.33095353,42.7108564 C8.30510069,41.5624228 10.1687924,40.4781874 10.8408195,38.6741545 C11.521709,36.8465607 10.7978046,34.8030277 10.0311015,32.6397445 C9.18658236,30.2592253 8.87899324,29.2279479 9.24451201,28.6054204 C9.60916614,27.9811636 10.6560067,27.7485804 13.1370382,27.3305359 C15.3991044,26.9501024 17.5271542,26.5921491 18.7631307,25.1261833 C20.0032141,23.655462 19.993271,21.4954212 19.9824632,19.2087134 C19.9705747,16.7010947 20.0209389,15.6335033 20.5751613,15.1661753 C21.1142528,14.7098713 22.1719011,14.8397807 24.6373695,15.2699299 C26.9022456,15.666575 29.0287823,16.0387946 30.7046351,15.0568007 C32.3677346,14.0832368 33.0909905,12.0593739 33.8568291,9.91662557 C34.6522809,7.69000892 35.100371,6.51779825 35.8327055,6.24501015 C36.5687146,5.97092512 37.6767271,6.55432851 39.7336618,7.69779051 C41.7583893,8.82309546 43.6698514,9.88571535 45.6042259,9.53489515 C47.5107164,9.18861422 48.9356128,7.560748 50.4441612,5.83755725 C51.9732444,4.09037325 52.9556707,3.02018792 53.8639556,3.02018792 C54.7713759,3.02018792 55.7538022,4.09037325 57.2818046,5.83604416 C58.7927308,7.56204493 60.2165463,9.18861422 62.121956,9.53489515 C64.0550337,9.88549919 65.9673604,8.82331162 67.9923041,7.69822282 C70.0507518,6.55454467 71.1587643,5.97178974 71.8943411,6.24501015 C72.6266756,6.51779825 73.0749818,7.69000892 73.8687044,9.91251862 C74.6343268,12.0567801 75.3573666,14.082156 77.0221954,15.0568007 C78.6976158,16.0387946 80.8243686,15.6663589 83.0758432,15.2723076 C85.5549293,14.8399968 86.6119291,14.7103036 87.1525338,15.1661753 C87.7061077,15.6339356 87.7564719,16.701527 87.7445834,19.2087134 C87.7337756,21.4954212 87.7238325,23.655462 88.9641321,25.1263994 C90.2001086,26.5923653 92.3275099,26.9501024 94.5800652,27.3290228 C97.0703914,27.7483643 98.1176643,27.9809475 98.4833992,28.6065012 C98.8478372,29.2279479 98.5404642,30.2592253 97.6959451,32.6393122 C96.929242,34.8030277 96.2053376,36.8465607 96.886227,38.6739383 C97.5571734,40.4771066 99.4191359,41.5609097 101.390473,42.7080463 C103.410229,43.8815539 104.557582,44.5834105 104.705648,45.3952901 C104.853066,46.2078182 104.042051,47.2777874 102.595755,49.0993289 C101.128493,50.9457282 99.7472597,52.6844821 99.7472597,54.6873779 C99.7472597,56.6894091 101.12698,58.4270823 102.58819,60.2663485 C104.040754,62.0945908 104.853282,63.166073 104.705864,63.9794657 M107.662438,64.5062364 C108.060812,62.31334 106.549237,60.4107403 104.949039,58.3966044 C103.590719,56.6857345 102.768247,55.5850713 102.768247,54.6873779 C102.768247,53.7903331 103.590719,52.689886 104.944932,50.9837715 C106.54967,48.963151 108.060812,47.0607674 107.662438,44.8685194 C107.257579,42.6375797 105.142498,41.4078717 102.903128,40.1057516 C101.098879,39.0556688 99.9807076,38.3754278 99.7012186,37.6266655 C99.4202166,36.8718509 99.8363158,35.6198789 100.538605,33.6394632 C101.386582,31.2466231 102.187438,28.9862862 101.073805,27.0854157 C99.9584436,25.1817352 97.5867866,24.7820639 95.0759257,24.3588316 C93.0362834,24.0155769 91.7622636,23.7752121 91.2601346,23.1790555 C90.7590864,22.5850605 90.738984,21.2915867 90.7480625,19.2303289 C90.7593026,16.6790469 90.7703265,14.2792898 89.0987969,12.8688759 C87.4168918,11.4504642 85.0566911,11.8635371 82.558151,12.3010356 C80.5029456,12.6598536 79.2129302,12.8591489 78.5422001,12.4668268 C77.8731991,12.0749371 77.4117074,10.8588469 76.7141739,8.90717991 C75.8499847,6.4875365 75.036592,4.21012333 72.9431271,3.43045085 C70.8710615,2.65899227 68.7637626,3.83098678 66.5319583,5.07150255 C64.6652403,6.10883226 63.4744403,6.72725282 62.6489429,6.57810561 C61.8294978,6.4293907 60.9350468,5.44739677 59.5438707,3.8575739 C57.8074945,1.87369975 56.1677397,6.48466163e-05 53.863091,6.48466163e-05 C51.5601715,6.48466163e-05 49.9202006,1.87283513 48.1840405,3.8556285 C46.7917836,5.44696446 45.8977649,6.42874223 45.0765906,6.57724098 C44.2562809,6.72617205 43.0637517,6.1086161 41.1985468,5.07301564 C38.9606901,3.82990601 36.8531751,2.65920843 34.7839195,3.42958623 C32.6900223,4.20925871 31.8764134,6.48688803 31.0150342,8.89810138 C30.3166361,10.85474 29.8544959,12.0740725 29.1837657,12.4661784 C28.5143325,12.8585004 27.2243172,12.6594213 25.1749479,12.3012518 C22.6699231,11.8628887 20.3101548,11.4498157 18.6273851,12.8688759 C16.9558555,14.2777767 16.9666632,16.6777499 16.9783356,19.2188727 C16.9882788,21.2848859 16.9690409,22.5818182 16.4660474,23.1790555 C15.9641345,23.7739152 14.6920601,24.01428 12.658254,24.3573186 C10.1409084,24.7809831 7.76838686,25.180006 6.6523766,27.0854157 C5.53939251,28.9847731 6.34024822,31.2446777 7.18800965,33.6370855 C7.89051466,35.6181496 8.30639762,36.8699055 8.02539562,37.6253686 C7.74655517,38.3749954 6.62708642,39.0556688 4.82370202,40.1042385 C2.5823868,41.408304 0.46881942,42.6377958 0.0646088454,44.8674387 C-0.333549379,47.0607674 1.17694447,48.963151 2.77627818,50.9768545 C4.13503095,52.6866437 4.95879913,53.7883877 4.95879913,54.6865133 C4.95879913,55.5852874 4.13503095,56.6870314 2.77800743,58.394659 C1.17759294,60.409011 -0.33398169,62.3116108 0.0646088454,64.5062364 C0.46881942,66.7360954 2.5823868,67.9655872 4.82002737,69.267275 C6.62708642,70.3180063 7.74655517,70.9988958 8.02539562,71.7485227 C8.30639762,72.5039858 7.89051466,73.7557416 7.18865811,75.7352927 C6.34068053,78.1281328 5.53960866,80.3882535 6.6523766,82.2893402 C7.76881917,84.1945338 10.1413407,84.5937728 12.6528502,85.0163565 C14.6896824,85.3587467 15.9637022,85.5991115 16.4660474,86.1954842 C16.9690409,86.7916407 16.9882788,88.0885731 16.9783356,90.1552347 C16.9666632,92.695709 16.9558555,95.09525 18.6273851,96.50588 C20.3088578,97.9236432 22.6681939,97.5110026 25.1658694,97.074801 C27.2204264,96.7146861 28.5130356,96.5140939 29.1846304,96.9081452 C29.8542798,97.3006834 30.3166361,98.5195836 31.0150342,100.47579 C31.8779265,102.889597 32.6913192,105.165065 34.7841357,105.944305 C36.8551205,106.71598 38.9628516,105.543553 41.1942237,104.303253 C42.8769934,103.368814 44.0109446,102.774386 44.8200142,102.774386 C44.9097187,102.774386 44.9953162,102.781736 45.0772391,102.79665 C45.8986296,102.945365 46.7924321,103.927359 48.1823112,105.517182 C49.9202006,107.501921 51.5601715,109.374691 53.863091,109.374691 C56.1677397,109.374691 57.8074945,107.501056 59.5436546,105.517182 C60.936776,103.926494 61.8303624,102.946014 62.6495913,102.797299 C63.4714141,102.649016 64.6650242,103.266572 66.5319583,104.304118 C68.7650596,105.544418 70.8730069,106.715764 72.9431271,105.94517 C75.036592,105.165281 75.8499847,102.887868 76.7111478,100.476654 C77.4117074,98.5165574 77.8731991,97.3006834 78.5417677,96.9090098 C79.2129302,96.5158232 80.5033779,96.7157669 82.5531794,97.0737202 C85.0569073,97.5118672 87.417108,97.924724 89.099013,96.5065285 C90.7703265,95.0961146 90.7593026,92.6965736 90.7480625,90.1558832 C90.738984,88.08425 90.7590864,86.7907761 91.2601346,86.1954842 C91.7618313,85.6010569 93.0326088,85.3606921 95.0644694,85.0178696 C97.5852736,84.5935566 99.9577951,84.1945338 101.073805,82.289124 C102.187438,80.3891182 101.386582,78.1287813 100.538388,75.7359411 C99.8363158,73.7557416 99.4202166,72.5037696 99.7010025,71.7491712 C99.9811399,70.9982473 101.09996,70.3177902 102.90248,69.2703012 C105.142066,67.967965 107.257363,66.7380408 107.662438,64.5062364" id="Fill-7" fill="#000000" mask="url(#mask-22)"></path>
                        </g>
                        <path d="M50.5672833,54.3634042 L43.4484218,54.3634042 C42.5206829,54.3634042 41.7660844,55.1182189 41.7660844,56.0457416 C41.7660844,56.9732644 42.5206829,57.7278628 43.4484218,57.7278628 L45.584037,57.7278628 C46.7499792,57.7278628 47.6986852,58.6765688 47.6986852,59.842511 L47.6986852,62.6603126 C47.6986852,63.3969702 47.3046339,64.0929906 46.670434,64.4768825 C45.5518299,65.1534489 43.9888103,65.4967036 42.0246062,65.4967036 C39.6311176,65.4967036 37.7334895,64.6024688 36.384896,62.8384247 C35.0499203,61.0923215 34.3729217,58.6164776 34.3729217,55.4791984 L34.3729217,53.2761426 C34.4129104,50.1239486 35.0356541,47.6941459 36.2236441,46.0543911 C37.4278458,44.3921562 39.2065885,43.5491502 41.5103726,43.5491502 C44.4650006,43.5491502 46.4220715,44.7939891 47.3271141,47.2492981 C47.6630195,48.1610415 48.4921916,48.750065 49.4391684,48.750065 C50.1624243,48.750065 50.8082966,48.4059456 51.2107779,47.8063306 C51.6190954,47.1978531 51.6930206,46.4577371 51.413964,45.775983 C50.8402876,44.3752961 49.9962008,43.1987623 48.9052645,42.2794534 C47.0685922,40.731997 44.5475719,39.9475691 41.4115896,39.9475691 C37.7129547,39.9475691 34.9141748,41.1225898 32.8552947,43.5396394 C30.8160848,45.9333441 29.7824297,49.3159598 29.7824297,53.5934587 L29.7824297,55.8542279 C29.8211215,58.5185593 30.3427045,60.8828669 31.3320477,62.8810073 C32.3168516,64.8700692 33.7356956,66.4199033 35.5490231,67.4870624 C37.3649446,68.5563832 39.4839158,69.0985009 41.8464942,69.0985009 C44.1552499,69.0985009 46.2452563,68.7507068 48.0585839,68.0641973 C49.601501,67.4803616 50.8724947,66.6501088 51.8358993,65.5967836 C52.102635,65.3054061 52.2496207,64.9128679 52.2496207,64.4920134 L52.2496207,56.0457416 C52.2496207,55.1182189 51.4950222,54.3634042 50.5672833,54.3634042" id="Fill-10" fill="#DA272C"></path>
                        <path d="M69.5187718,51.3592767 C68.6068122,52.0931242 67.3338731,52.4651276 65.7349717,52.4651276 L62.7293311,52.4651276 C61.5631727,52.4651276 60.6146829,51.5164216 60.6146829,50.3504795 L60.6146829,46.0591466 C60.6146829,44.8932044 61.5631727,43.9447146 62.7293311,43.9447146 L65.6956314,43.9447146 C67.4754549,43.9447146 68.7576887,44.2702446 69.6151771,44.9396778 C70.4776371,45.6127857 70.9147033,46.7078289 70.9147033,48.1949779 C70.9147033,49.5496238 70.4449976,50.614189 69.5187718,51.3592767 M70.2080913,63.8861298 C69.2885663,64.6923894 68.0030902,65.1011393 66.387761,65.1011393 L62.7293311,65.1011393 C61.5631727,65.1011393 60.6146829,64.1526494 60.6146829,62.9867073 L60.6146829,57.8253489 C60.6146829,56.6594068 61.5631727,55.7107008 62.7293311,55.7107008 L66.7937008,55.7107008 C69.9873967,55.7790059 71.6066167,57.3889312 71.6066167,60.494868 C71.6066167,61.9314367 71.1360464,63.0723048 70.2080913,63.8861298 M74.9237373,56.440009 C74.6325759,56.0403377 74.2934281,55.6813036 73.9155885,55.3724176 C73.4331297,54.9783663 73.1393745,54.4016637 73.1097612,53.7903763 C73.0807964,53.198759 73.2954387,52.6438881 73.7136994,52.2275729 C73.9828129,51.9599725 74.2255554,51.6668658 74.4347938,51.3566828 C75.1284364,50.3295124 75.4656388,49.2046398 75.4656388,47.9180829 C75.4656388,45.3817156 74.6587307,43.5294801 72.999522,42.2558925 C71.3450687,40.9866281 68.8875981,40.3429173 65.6956314,40.3429173 L57.7259823,40.3429173 C56.7984595,40.3429173 56.0438611,41.0975158 56.0438611,42.0250386 L56.0438611,67.0208153 C56.0438611,67.948338 56.7984595,68.7029365 57.7259823,68.7029365 L66.3281021,68.7029365 C69.4911039,68.7029365 71.949223,67.9883268 73.6348027,66.5783452 C75.3324871,65.157772 76.1579845,63.1743302 76.1579845,60.5147543 C76.1579845,58.9346584 75.74275,57.5638009 74.9237373,56.440009" id="Fill-12" fill="#DA272C"></path>
                    </g>
                </g>
            </g>
        </g>
    </g>
</svg>