<?xml version="1.0" encoding="UTF-8"?>
<svg width="189px" height="59px" viewBox="0 0 189 59" version="1.1" xmlns="http://www.w3.org/2000/svg" xmlns:xlink="http://www.w3.org/1999/xlink">
    <!-- Generator: sketchtool 51.2 (57519) - http://www.bohemiancoding.com/sketch -->
    <title>023E4A62-FA8F-4DDA-8ECD-7ACAE2651404</title>
    <desc>Created with sketchtool.</desc>
    <defs>
        <polygon id="path-1" points="0 0 140.074423 0 140.074423 20.7766348 0 20.7766348"></polygon>
        <polygon id="path-3" points="0 0 36.0161665 0 36.0161665 17.3830178 0 17.3830178"></polygon>
        <polygon id="path-5" points="0 0 27.1511439 0 27.1511439 13.3289522 0 13.3289522"></polygon>
        <polygon id="path-7" points="0 0 8.47362753 0 8.47362753 5.57009352 0 5.57009352"></polygon>
    </defs>
    <g id="FLUJO-" stroke="none" stroke-width="1" fill="none" fill-rule="evenodd">
        <g id="2.1.-Arma-tu-mancha" transform="translate(-775.000000, -372.000000)">
            <g id="Group-29" transform="translate(721.000000, 322.000000)">
                <g id="Group-22-Copy">
                    <g id="Group-31" transform="translate(54.000000, 50.000000)">
                        <g id="Group-3" transform="translate(48.461538, 9.692308)">
                            <mask id="mask-2" fill="white">
                                <use xlink:href="#path-1"></use>
                            </mask>
                            <g id="Clip-2"></g>
                            <path d="M43.8788113,20.7766348 L50.2177846,20.7766348 L40.3449393,1.32311903 C39.8272453,0.365496356 39.3151061,0 38.1330753,0 L32.681736,0 L22.2923077,20.7766348 L28.6268372,20.7766348 L30.4698721,16.9461441 L42.1102089,16.9461441 L43.8788113,20.7766348 Z M95.3258073,20.7766348 L101.588126,20.7766348 L91.7108372,1.32311903 C91.197587,0.365496356 90.6832259,0 89.5045279,0 L84.0520777,0 L73.6615385,20.7766348 L79.9994008,20.7766348 L81.8402138,16.9461441 L93.4838834,16.9461441 L95.3258073,20.7766348 Z M118.084751,15.6941247 C118.31027,16.4295611 119.19235,16.9461441 120.149972,16.9461441 L126.120117,16.9461441 L130.540512,4.7181247 L134.739832,20.7766348 L140.338925,20.7766348 L135.697454,2.35961781 C135.259747,0.517693927 134.22547,0 132.530189,0 L126.707799,0 L122.511812,12.1591417 L119.19235,1.83748016 C118.752421,0.517693927 117.94033,0 116.612768,0 L110.057163,0 L104.676923,20.7766348 L110.35267,20.7766348 L114.473114,4.7181247 L118.084751,15.6941247 Z M92.0640453,13.1703611 L84.3230769,13.1703611 L88.2313328,4.84615385 L92.0640453,13.1703611 Z M39.7200291,13.1703611 L31.9846154,13.1703611 L35.8917603,4.84615385 L39.7200291,13.1703611 Z M17.5393814,20.7766348 L19.8956664,15.9862996 L5.96681134,15.9862996 L5.96681134,0 L0,0 L0,20.7766348 L17.5393814,20.7766348 Z M59.4535903,20.7766348 L65.1959935,20.7766348 L65.1959935,4.78811336 L75.2221474,4.12599838 L75.2221474,0 L49.4307692,0 L49.4307692,4.12599838 L59.4535903,4.78811336 L59.4535903,20.7766348 Z" id="Fill-1" fill="#273489" mask="url(#mask-2)"></path>
                        </g>
                        <path d="M7.75384615,51.3749938 L12.8385781,49.5241824 C13.8972955,49.1386893 13.8972955,49.9907735 13.8972955,51.2627897 L13.8972955,53.6024108 C13.8972955,55.4943266 13.2629538,55.7265112 12.4153134,56.0342391 L7.75384615,57.730631 L7.75384615,51.3749938 Z" id="Fill-4" fill="#273489"></path>
                        <path d="M7.75384615,41.627865 L20.6784194,36.9241824 C21.7371368,36.5386893 21.7371368,37.3907735 21.7371368,38.6627897 L21.7371368,40.9924124 C21.7371368,42.8943266 21.1016842,43.1265112 20.2540437,43.4342391 L7.75384615,47.9835023 L7.75384615,41.627865 Z" id="Fill-6" fill="#273489"></path>
                        <g id="Group-10" transform="translate(0.000000, 9.692308)">
                            <mask id="mask-4" fill="white">
                                <use xlink:href="#path-3"></use>
                            </mask>
                            <g id="Clip-9"></g>
                            <path d="M7.41546559,17.093898 L0.847640486,14.7031741 C0,14.3954462 0,13.2422996 0,12.8190348 C0,12.8190348 0,14.2076988 1.27201619,13.7455514 L33.4745781,2.02522753 C36.0163887,1.09982186 36.0163887,0.385493117 34.9576713,0 C36.0163887,0.385493117 36.0163887,0.385493117 36.0163887,3.49721134 C36.0163887,6.46339757 36.0163887,7.45545911 34.7465943,7.91760648 L9.53401134,17.093898 C8.474183,17.4793911 8.474183,17.4793911 7.41546559,17.093898" id="Fill-8" fill="#273489" mask="url(#mask-4)"></path>
                        </g>
                        <path d="M2.75399838,14.8817146 L14.0032874,18.976607 L22.7340955,15.7982329 L1.69417004,8.14058428 C0.211076923,7.60067173 0,7.52290655 0,8.58273489 L0,11.3367333 C0,13.8796547 1.90524696,14.5739867 2.75399838,14.8817146" id="Fill-11" fill="#E53357"></path>
                        <path d="M34.5147725,19.6862899 L31.0231158,18.4153846 L22.2923077,21.5937587 L27.823634,23.6056551 L33.0316794,21.7104065 C35.5734899,20.7850008 35.5734899,20.071783 34.5147725,19.6862899" id="Fill-13" fill="#E53357"></path>
                        <path d="M34.2373344,19.3846154 C35.2960518,19.7701085 35.2960518,20.4833263 32.7542413,21.408732 L7.75384615,30.5083692 L7.75384615,36.8640065 L34.0262575,27.3011109 C35.2960518,26.8389636 35.2960518,25.846902 35.2960518,22.8807158 C35.2960518,19.7701085 35.2960518,19.7701085 34.2373344,19.3846154" id="Fill-15" fill="#273489"></path>
                        <g id="Group-19" transform="translate(7.753846, 0.000000)">
                            <mask id="mask-6" fill="white">
                                <use xlink:href="#path-5"></use>
                            </mask>
                            <g id="Clip-18"></g>
                            <path d="M26.4834883,9.40861019 C26.4834883,9.40861019 3.17726316,0.925539747 1.69528097,0.386738127 C0.213298785,-0.153174423 0,-0.230939605 0,0.828888735 L0,3.58288712 C0,6.12469764 1.90635789,6.81902963 2.75399838,7.12786849 L19.7912389,13.3290863 L25.0003951,11.4327268 C27.5422057,10.5073211 27.5422057,9.79410331 26.4834883,9.40861019" id="Fill-17" fill="#E53357" mask="url(#mask-6)"></path>
                        </g>
                        <g id="Group-22" transform="translate(0.000000, 17.446154)">
                            <mask id="mask-8" fill="white">
                                <use xlink:href="#path-7"></use>
                            </mask>
                            <g id="Clip-21"></g>
                            <path d="M1.27201619,5.47555101 L8.474183,2.85375344 L1.69528097,0.386375298 C0.212187854,-0.153537252 0,-0.230191503 0,0.828525906 L0,4.54903441 C0,4.54903441 0,5.93880931 1.27201619,5.47555101" id="Fill-20" fill="#E53357" mask="url(#mask-8)"></path>
                        </g>
                        <path d="M62.5347012,46.3266688 C62.5347012,44.4014251 61.1693668,42.6461538 57.2955498,42.6461538 L50.4,42.6461538 L50.4,49.5916955 C51.788664,50.2004858 53.7383482,50.6637441 55.662481,50.6637441 C60.7316599,50.6637441 62.5347012,48.6896194 62.5347012,46.3266688 M50.4834332,51.3559676 L50.4834332,57.7649296 L48.4615385,57.7649296 L48.4615385,40.7076923 L57.5745069,40.7076923 C62.1315466,40.7076923 64.6166996,42.9251109 64.6166996,46.1423676 C64.6166996,49.9428632 61.5716372,52.3802462 55.7947951,52.3802462 C53.7729004,52.3802462 51.7254543,51.9658688 50.4834332,51.3559676" id="Fill-23" fill="#273489"></path>
                        <path d="M75.2864453,42.6461538 L70.7538462,51.4913879 L79.843485,51.4913879 L75.2864453,42.6461538 Z M81.4307336,53.1101279 L70.464732,53.1101279 L68.0773409,57.7638186 L65.9076923,57.7638186 L74.7784777,40.7076923 L76.0938202,40.7076923 C76.7770429,40.7076923 77.1658688,40.9265457 77.4591547,41.487566 L85.9877733,57.7638186 L83.8181247,57.7638186 L81.4307336,53.1101279 Z" id="Fill-25" fill="#273489"></path>
                        <path d="M103.669104,41.7064194 L103.010322,43.5350121 C102.132687,43.1684049 100.184113,42.536285 97.2590316,42.536285 C93.7507109,42.536285 91.8010267,43.8516275 91.8010267,45.4835854 C91.8010267,47.0188923 93.0452696,47.8232065 96.2369749,48.3597862 L97.6989603,48.6019692 C101.913833,49.3085215 104.375657,50.6494154 104.375657,53.3789733 C104.375657,56.3762656 101.646099,58.3737198 96.5535903,58.3737198 C92.6053409,58.3737198 89.9746559,57.3027822 89.1692308,56.8139725 L89.8035725,55.0120421 C90.5578947,55.5464 93.2874526,56.5217976 96.7957733,56.5462381 C100.598491,56.5462381 102.35154,55.2786656 102.35154,53.5000648 C102.35154,51.866996 100.744023,50.9904713 97.2590316,50.4061215 L95.7981571,50.1617166 C92.1420826,49.5529263 89.779132,48.3097943 89.779132,45.5813474 C89.779132,42.7051466 92.7519838,40.7076923 97.478996,40.7076923 C100.404078,40.7076923 102.595945,41.3164826 103.669104,41.7064194" id="Fill-27" fill="#273489"></path>
                        <path d="M123.052609,41.7064194 L122.394938,43.5350121 C121.517302,43.1684049 119.567618,42.536285 116.643647,42.536285 C113.135326,42.536285 111.185642,43.8516275 111.185642,45.4835854 C111.185642,47.0188923 112.428774,47.8232065 115.62159,48.3597862 L117.082465,48.6019692 C121.298449,49.3085215 123.760272,50.6494154 123.760272,53.3789733 C123.760272,56.3762656 121.030714,58.3737198 115.938206,58.3737198 C111.989956,58.3737198 109.359271,57.3027822 108.553846,56.8139725 L109.188188,55.0120421 C109.94251,55.5464 112.672068,56.5217976 116.180389,56.5462381 C119.981995,56.5462381 121.736155,55.2786656 121.736155,53.5000648 C121.736155,51.866996 120.128638,50.9904713 116.643647,50.4061215 L115.181662,50.1617166 C111.526698,49.5529263 109.163747,48.3097943 109.163747,45.5813474 C109.163747,42.7051466 112.136599,40.7076923 116.863611,40.7076923 C119.788693,40.7076923 121.98056,41.3164826 123.052609,41.7064194" id="Fill-29" fill="#273489"></path>
                    </g>
                </g>
            </g>
        </g>
    </g>
</svg>