<?xml version="1.0" encoding="UTF-8"?>
<svg width="818px" height="512px" viewBox="0 0 818 512" version="1.1" xmlns="http://www.w3.org/2000/svg" xmlns:xlink="http://www.w3.org/1999/xlink">
    <!-- Generator: sketchtool 51.2 (57519) - http://www.bohemiancoding.com/sketch -->
    <title>554D9A2C-44F3-4E8F-848A-99CA982C1690</title>
    <desc>Created with sketchtool.</desc>
    <defs>
        <polygon id="path-1" points="4.77429788e-05 0.0531242355 39.9212355 0.0531242355 39.9212355 28.7310401 4.77429788e-05 28.7310401"></polygon>
        <polygon id="path-3" points="-2.7572013e-05 0.0191022727 29.1030734 0.0191022727 29.1030734 13.0139137 -2.7572013e-05 13.0139137"></polygon>
        <polygon id="path-5" points="0 0 62 0 62 65 0 65"></polygon>
        <polygon id="path-7" points="0 0 39 0 39 41 0 41"></polygon>
        <polygon id="path-9" points="0.49815625 0.46125 2.6018125 0.46125 2.6018125 8.85298026 0.49815625 8.85298026"></polygon>
        <polygon id="path-11" points="0.028678125 0.365921053 8.44371875 0.365921053 8.44371875 2.46375 0.028678125 2.46375"></polygon>
        <polygon id="path-13" points="0 6.95652174e-05 15.5666087 6.95652174e-05 15.5666087 15.5532522 0 15.5532522"></polygon>
        <polygon id="path-15" points="0.49815625 0.46125 2.6018125 0.46125 2.6018125 8.85298026 0.49815625 8.85298026"></polygon>
        <polygon id="path-17" points="0.028678125 0.365921053 8.44371875 0.365921053 8.44371875 2.46375 0.028678125 2.46375"></polygon>
        <polygon id="path-19" points="0 0 18.9082095 0 18.9082095 18.9085176 0 18.9085176"></polygon>
    </defs>
    <g id="FLUJO-" stroke="none" stroke-width="1" fill="none" fill-rule="evenodd">
        <g id="2.1.1.-confirmacion-mancha-" transform="translate(-316.000000, -121.000000)">
            <g id="Group-9" transform="translate(316.000000, 121.000000)">
                <g id="Group-21" transform="translate(0.000000, 200.000000)">
                    <path d="M4.59693935,20.5323664 C4.59693935,20.5323664 8.31803994,19.836164 12.2499275,20.6020729 C13.1188802,20.7713806 13.913608,20.9385324 14.6367204,21.1131579 C11.6699009,19.2724757 7.54824704,18.6064555 6.2817855,17.9571073 C5.36905178,19.3493684 4.59693935,20.5323664 4.59693935,20.5323664" id="Fill-1" fill="#DA272C"></path>
                    <path d="M17.2349092,37.8653061 C16.9539565,35.9858182 22.0097997,27.0060429 19.6924476,23.6653061 C18.8416163,22.4380409 17.1857642,21.7287595 14.6367494,21.1131866 C16.4403263,22.2319397 17.8174003,23.7844538 17.8665453,26.0317332 C17.9380157,29.2761745 15.4482938,33.8635794 16.2517198,37.4480733 C16.9520719,40.5720733 25.1270985,37.9319943 28.9290926,33.754636 C26.0251902,35.4561927 22.405424,36.7645186 21.0966311,37.4473547 C19.7627583,38.1438445 17.5017997,39.651804 17.2349092,37.8653061" id="Fill-3" fill="#DA272C"></path>
                    <path d="M26.2693784,24.6554686 C26.7979405,21.8598796 32.332476,23.7682561 31.1903991,29.2933209 C28.432192,27.5408856 26.0567068,25.780833 26.2693784,24.6554686 M38.8107689,34.259584 C38.0267689,33.3927804 35.4022246,31.8849646 32.754195,30.2656184 C34.9206328,25.6841063 31.3977068,22.5507642 29.5223695,22.5507642 C28.1812482,22.5507642 25.8712896,23.4563735 25.8712896,25.2662986 C25.8712896,27.0757925 26.7843133,28.5373289 26.7843133,28.5373289 C26.7843133,28.5373289 27.3768074,29.7410233 30.3279701,31.737503 C30.313763,31.7663917 30.3010056,31.7948492 30.2865086,31.8238816 C29.9542364,32.491914 29.4887364,33.1398249 28.9291506,33.7546791 C29.7347512,33.2825435 30.4848281,32.7803694 31.1157393,32.2526123 C31.6250204,32.5752743 32.1914198,32.9150395 32.8223311,33.2711893 C34.6508429,34.3029889 37.1089612,35.5308289 37.6670973,36.125418 C39.5630204,38.143169 40.0546151,38.0738937 40.3351328,37.5863796 C40.6159405,37.099584 41.2033607,35.7366427 41.5286743,35.0114079 C41.6217453,34.8037257 41.633053,34.5983431 41.5820234,34.3935354 C41.5714405,34.4721528 41.5569435,34.5463148 41.535053,34.6117095 C41.3848636,35.0595557 40.5868015,36.2230071 38.8107689,34.259584" id="Fill-5" fill="#DA272C"></path>
                    <path d="M35.5089808,14.8970791 C30.5757825,15.3810002 29.9455962,13.7833565 29.4521169,11.6920184 C27.1350547,1.87720263 26.222176,2.64296781 24.0593624,0.360188462 C22.7707204,-1.00045324 22.2233121,1.66851437 21.4813536,5.43812571 C22.468892,3.33730182 23.3172589,1.67268239 23.6243062,1.1810002 C24.536895,-0.280536235 24.3968536,1.73750223 25.0989453,4.59216215 C25.6946287,7.01320466 28.6798595,11.2047917 30.0143121,14.7549354 C31.3483299,18.3049354 33.4228565,17.7735852 34.6478565,17.8177087 C36.0981405,17.8705994 43.8860962,17.0924739 45.5312204,16.7036986 C46.7175133,16.4237229 48.2785547,15.5516014 48.7702944,15.5842269 C48.6898358,13.6994213 37.1759956,14.7336642 35.5089808,14.8970791" id="Fill-7" fill="#DA272C"></path>
                    <path d="M48.7702219,15.5842557 C48.7703669,15.5874176 48.7712367,15.5904358 48.7713817,15.5935978 C48.7748609,15.7403407 48.098574,16.4829662 47.9182308,16.6340209 C45.1226213,18.9794642 40.5106775,21.0345836 38.6831805,22.6733326 C39.0244408,22.4452415 39.4463047,22.2839824 39.984145,22.2033528 C42.3013521,21.8553953 46.8650207,20.4631342 47.9182308,19.4883933 C48.9714408,18.5139399 48.7786302,16.4846909 48.9192515,15.7884885 C48.9466509,15.6526686 48.8895325,15.5921605 48.7702219,15.5842557" id="Fill-9" fill="#DA272C"></path>
                    <path d="M2.96538432,14.6852721 C0.718922781,14.9635231 1.44970414e-05,15.4514684 1.44970414e-05,15.4514684 L1.44970414e-05,17.8177518 C1.44970414e-05,17.8177518 13.6262186,16.7163895 17.147695,16.5788449 C17.0975352,16.8706061 17.0807186,17.1244239 17.0865175,17.3305251 C17.1516092,19.6633206 18.377624,21.151015 19.3957512,21.1205453 C18.8287719,20.1591709 18.4501092,18.6627093 18.6753932,16.7010109 C19.3796595,16.8885717 20.1293015,17.2612498 20.7552837,17.7645737 C20.6074139,16.9015069 20.1339405,16.0934866 19.1301654,15.660013 C19.0466624,15.6239381 18.9595352,15.5884381 18.8699435,15.553513 C18.9970825,14.9721466 19.1743814,14.3578672 19.411553,13.7108186 C20.3854642,11.0555049 20.9781033,7.99388138 21.4812956,5.43816883 C20.0428991,8.49821134 18.3010796,12.4842721 17.5130204,15.1267943 C14.2008814,14.2713449 8.68736657,13.9759907 2.96538432,14.6852721" id="Fill-11" fill="#DA272C"></path>
                    <path d="M19.622253,21.0892996 C19.5496228,21.1085587 19.475253,21.118332 19.3998683,21.1204879 C20.1142825,22.3316559 21.1235666,22.6935547 21.5880518,22.0640405 C22.8175459,20.3981275 22.0486228,18.8037895 20.7562115,17.7646599 C21.0115044,19.2562348 20.2895518,20.9128057 19.622253,21.0892996" id="Fill-13" fill="#DA272C"></path>
                    <path d="M36.7542476,26.7274901 C36.4734399,27.6325245 36.6843719,29.8599698 38.158721,31.1829557 C39.4604104,32.3507188 41.3255997,33.3626844 41.5820524,34.3934779 C41.8618453,32.31565 38.3063009,25.7839374 37.9195198,24.0573727 C37.825434,23.6374091 38.1237831,23.174903 38.683224,22.6733038 C37.5543393,23.4278585 37.3151382,24.9223079 36.7542476,26.7274901" id="Fill-15" fill="#DA272C"></path>
                    <path d="M18.6754222,16.7009966 C18.6754222,16.7009966 17.9298393,16.5417496 17.147724,16.5788306 C17.3332861,15.5681585 17.5129044,15.12678 17.5129044,15.12678 L18.8699725,15.5534986 L18.6754222,16.7009966 Z" id="Fill-17" fill="#AF0000"></path>
                    <path d="M31.1904426,29.2932634 C31.0195225,30.2119516 30.3280136,31.7374455 30.3280136,31.7374455 L31.1156379,32.2526986 C31.1156379,32.2526986 32.2103095,31.0234213 32.7542385,30.2655609 L31.1904426,29.2932634 Z" id="Fill-19" fill="#AF0000"></path>
                </g>
                <g id="Group-15-Copy" transform="translate(642.000000, 0.000000)">
                    <g id="Group-3" transform="translate(0.000000, 12.249837)">
                        <mask id="mask-2" fill="white">
                            <use xlink:href="#path-1"></use>
                        </mask>
                        <g id="Clip-2"></g>
                        <path d="M7.60440154,14.2496277 C2.49196911,14.5616314 0.950810811,14.8172602 1.41552124,13.2584837 C1.82401544,11.8891769 9.663861,12.1901542 15.8164479,12.8122981 C12.1591506,12.8550064 9.00440154,14.1643663 7.60440154,14.2496277 M18.7603861,19.3915557 C14.8868726,19.3915557 6.45104247,22.0967792 6.60610039,21.0062413 C6.74880309,20.0029837 12.976139,18.1912186 19.4570656,19.3361125 C19.4921236,19.3423246 19.5277992,19.3493133 19.5633205,19.3563019 C19.239305,19.3785102 18.9648649,19.3915557 18.7603861,19.3915557 M25.5009266,6.74243447 C11.107722,6.69149508 1.18725869,3.67830568 1.02849421,2.32515038 C0.932586873,1.50313144 2.80208494,-0.255830682 6.43389961,3.46724886 C9.20579151,6.30898371 15.1773745,5.62269962 19.096139,5.48929432 C23.9538996,5.32327538 27.829112,5.45947614 30.8476448,5.77660492 C29.103861,6.36753295 27.2034749,6.74833598 25.5009266,6.74243447 M36.2799228,4.33119962 C37.187722,2.97509356 37.5054054,1.61836629 36.6706564,0.749911742 C36.7324324,1.08272614 36.7250193,1.43712765 36.6332819,1.81606705 C36.4856371,2.42625265 35.8962934,3.08691174 35.0241699,3.7203928 C31.6966023,2.2850822 27.1273359,1.6191428 22.7855598,2.33835114 C8.71667954,4.66944962 8.06447876,1.77304811 6.67019305,0.840764015 C3.81088803,-1.07132689 1.18324324,0.948389015 0.595444015,2.15058977 C-1.56239382,6.56538902 2.40285714,7.84104811 8.33474903,8.67937386 C18.1979151,10.0741504 28.3942085,10.4830633 32.9054054,7.56988902 C33.4671042,7.20710114 34.0153668,6.78358977 34.5219305,6.32591174 C39.4583012,7.33708977 40.5145174,8.95255189 38.9801544,9.88716553 C37.9472587,10.5169193 33.4633977,11.6653852 28.1640927,12.3612981 C23.1866409,10.6992451 16.5403089,9.6601125 9.26525097,10.1005519 C1.69027027,10.5594723 0.714517375,11.9820481 1.34864865,14.4568019 C1.9196139,16.683692 2.02880309,18.8950519 6.89706564,17.9438208 C7.82648649,17.7618057 11.6827027,16.2595595 16.3576062,16.4373814 C21.1355212,16.6193966 26.6295753,16.0663625 31.0907336,14.962158 C34.5109653,15.6167602 36.2616988,16.2278777 35.5728958,16.7823095 C35.3015444,16.999889 35.4650965,17.6753019 27.1647104,18.5431352 C25.839305,18.6818208 23.5943629,18.959192 21.70139,19.1592223 C14.6979923,17.825014 5.31482625,18.1851617 5.44455598,20.3048928 C5.55498069,22.121317 6.59899614,23.4752489 8.21675676,24.4267905 C10.5789189,25.816442 13.0496525,23.5834951 24.0623166,23.086836 C24.8250965,23.052514 25.5894208,23.0278208 26.3466409,23.0007981 C27.3122008,23.9326163 27.7369112,24.798586 27.0969112,25.2666693 C25.3923552,26.5132867 14.5259459,24.6569496 14.5259459,24.6569496 L15.2198456,28.2306277 C17.213668,28.9282489 25.3983784,29.6867489 28.7440154,24.5696693 C29.1443243,23.9574648 29.2487259,23.3902981 29.1131274,22.8678587 C31.4776062,22.7032375 33.6516602,22.3600178 35.3328958,21.4306845 C38.5989961,19.6262186 37.2374517,16.8202034 32.9861776,14.4397186 C36.0746718,13.4933019 38.4380695,12.2522754 39.3383012,10.7933587 C40.8405405,8.3582072 39.3040154,5.98874886 36.2799228,4.33119962" id="Fill-1" fill="#DA272C" mask="url(#mask-2)"></path>
                    </g>
                    <g id="Group-6" transform="translate(7.567568, 0.136201)">
                        <mask id="mask-4" fill="white">
                            <use xlink:href="#path-3"></use>
                        </mask>
                        <g id="Clip-5"></g>
                        <path d="M19.7030734,9.83183106 C11.7231506,9.90979318 0.0908725869,10.2806568 0.888864865,7.90048258 C1.29905792,6.67871364 11.767166,7.17040303 21.2389807,9.80434242 C20.7753514,9.81738788 20.26539,9.82639545 19.7030734,9.83183106 M25.6630734,9.70805455 C25.7293282,9.41732727 25.7920309,9.08451288 25.8581313,8.69905076 C26.3480154,5.84178561 18.4258533,2.0183803 15.8884015,0.939956061 C9.73349807,-1.67534697 9.64608494,1.98576667 9.99295753,3.20675909 C11.3798301,2.77035758 14.7612973,3.38054318 19.4425328,5.82190682 C23.1487876,7.75387652 25.4031506,8.7936303 24.7699459,9.32756212 C23.5640772,8.84394848 22.2896371,8.43627803 21.2025328,8.05578561 C18.9741158,7.2763197 1.19913514,3.07009242 0.11434749,8.36763409 C-0.969667954,13.6656417 5.85705019,12.4943462 11.9004479,12.8833803 C17.9019923,13.2699295 21.4281699,12.7263689 23.0839228,12.1859144 C24.1751969,11.8299598 24.7677838,11.5813197 25.1489421,11.0455242 C26.3339614,11.4741606 27.4751197,11.9408462 28.5456988,12.4474447 C28.7713359,12.5684258 28.9541931,12.7086644 29.1030734,12.8635015 C28.8493282,11.4971455 27.408556,10.5014977 25.6630734,9.70805455" id="Fill-4" fill="#DA272C" mask="url(#mask-4)"></path>
                    </g>
                    <path d="M35.0241699,15.970261 C33.9591506,16.7436701 32.471583,17.4762345 30.8476448,18.0264731 C32.2549035,18.1741663 33.4757529,18.3613064 34.5219305,18.5756246 C35.2104247,17.953636 35.8203089,17.2676625 36.2799228,16.5810678 C35.8854826,16.364886 35.4658687,16.1608178 35.0241699,15.970261" id="Fill-7" fill="#AF0000"></path>
                    <path d="M33.23061,9.84428636 C32.9399537,9.71212348 32.6409575,9.58555152 32.3374826,9.46379394 C32.0083707,9.74132045 30.8979459,9.8821803 28.8065174,9.94057424 C30.1401081,10.3114379 31.4533127,10.7246992 32.7164788,11.1817561 C32.9422703,10.8641614 33.0936216,10.4454644 33.23061,9.84428636" id="Fill-9" fill="#AF0000"></path>
                    <path d="M21.7014363,31.4090284 C20.8900077,31.4947557 20.144834,31.5658845 19.5632124,31.606108 C21.7423629,32.0277557 24.7676911,33.7267708 26.3466873,35.2506042 C27.2853745,35.217214 28.2130965,35.1804072 29.1130193,35.1176648 C28.6614363,33.3798239 25.5392741,32.1401951 21.7014363,31.4090284" id="Fill-11" fill="#AF0000"></path>
                    <path d="M17.0441081,25.0970473 C16.6297452,25.0675398 16.2201699,25.0574451 15.8164633,25.0621042 C16.6609421,25.1475208 17.4737606,25.2389943 18.2311351,25.3329527 C23.5108263,25.9884867 27.9877375,26.6180852 31.090749,27.211964 C31.7468108,27.0496723 32.3804788,26.875267 32.9861931,26.6895246 C31.6470425,25.9397216 30.0229498,25.2318504 28.1641081,24.6111042 C24.5580849,25.0846231 20.5747645,25.3487936 17.0441081,25.0970473" id="Fill-13" fill="#AF0000"></path>
                </g>
                <g id="Group-38-Copy-8" opacity="0.7" transform="translate(766.000000, 158.000000)">
                    <mask id="mask-6" fill="white">
                        <use xlink:href="#path-5"></use>
                    </mask>
                    <g id="Clip-2"></g>
                    <path d="M34.7252161,32.5873319 L39,32.5873319 L39,31.1768748 L34.7252161,31.1768748 L34.7252161,32.5873319 Z M29.8293176,28.0820436 L31.274416,28.0820436 L31.274416,24 L29.8293176,24 L29.8293176,28.0820436 Z M34.009748,29.5988049 L37.9122678,25.7908575 L36.8857826,24.7905587 L32.9841825,28.5976098 L34.009748,29.5988049 Z M32.7507817,30.3269794 C32.0827662,29.6749925 31.274416,29.355363 30.3573662,29.355363 C29.4405003,29.355363 28.647048,29.6749925 27.995034,30.3269794 C27.3255472,30.9800418 27,31.767553 27,32.67804 C27,33.588527 27.3255472,34.3767553 27.995034,35.0140424 C28.647048,35.6672841 29.4405003,36 30.3573662,36 C31.274416,36 32.0827662,35.6672841 32.7507817,35.0140424 C33.4037153,34.3767553 33.7305499,33.588527 33.7305499,32.67804 C33.7305499,31.767553 33.4037153,30.9800418 32.7507817,30.3269794 Z M31.6159647,33.9072602 C31.274416,34.2571855 30.8548832,34.4221094 30.3573662,34.4221094 C29.8758507,34.4221094 29.45595,34.2571855 29.1144013,33.9072602 C28.7719331,33.558052 28.5848814,33.1480729 28.5848814,32.67804 C28.5848814,32.1780699 28.7719331,31.767553 29.1144013,31.4342994 C29.45595,31.0861667 29.8758507,30.9183747 30.3573662,30.9337915 C30.8548832,30.9183747 31.274416,31.0861667 31.6310465,31.4342994 C31.958249,31.767553 32.1289314,32.1780699 32.1454846,32.67804 C32.1289314,33.1480729 31.958249,33.558052 31.6159647,33.9072602 Z" id="Fill-1" fill="#DA272C" mask="url(#mask-6)"></path>
                    <polygon id="Fill-3" fill="#DA272C" mask="url(#mask-6)" points="30 22 32 22 32 17 30 17"></polygon>
                    <polygon id="Fill-4" fill="#DA272C" mask="url(#mask-6)" points="30 17 32 17 32 12 30 12"></polygon>
                    <polygon id="Fill-5" fill="#DA272C" mask="url(#mask-6)" points="34.0405703 17 38 13.0401909 36.9586832 12 33 15.958877"></polygon>
                    <polygon id="Fill-6" fill="#DA272C" mask="url(#mask-6)" points="29 15.9588382 25.0415034 12 24 13.0402297 27.9594297 17"></polygon>
                    <polygon id="Fill-7" fill="#DA272C" mask="url(#mask-6)" points="43 22.2826669 41.7172739 21 38 24.7173331 39.2824953 26"></polygon>
                    <polygon id="Fill-8" fill="#DA272C" mask="url(#mask-6)" points="47 16.2827261 45.7172739 15 42 18.7172739 43.2824953 20"></polygon>
                    <polygon id="Fill-9" fill="#DA272C" mask="url(#mask-6)" points="44 23 50 22.9957011 49.9998002 21 44.0013989 21.0042989"></polygon>
                    <polygon id="Fill-10" fill="#DA272C" mask="url(#mask-6)" points="42.9957016 17.9986011 43 12.0001998 41.0045512 12 41 18"></polygon>
                    <polygon id="Fill-11" fill="#DA272C" mask="url(#mask-6)" points="41 32 46 32 46 30 41 30"></polygon>
                    <polygon id="Fill-12" fill="#DA272C" mask="url(#mask-6)" points="47 32 52 32 52 30 47 30"></polygon>
                    <polygon id="Fill-13" fill="#DA272C" mask="url(#mask-6)" points="47 34.0405315 50.9598091 38 52 36.9585355 48.041123 33"></polygon>
                    <polygon id="Fill-14" fill="#DA272C" mask="url(#mask-6)" points="48.0411618 29 52 25.0413168 50.9599568 24 47 27.9594297"></polygon>
                    <path d="M23,34.8234117 L27.2747839,34.8234117 L27.2747839,33.4127963 L23,33.4127963 L23,34.8234117 Z M30.725584,42 L32.1706824,42 L32.1706824,37.9180174 L30.725584,37.9180174 L30.725584,42 Z M27.990252,36.4012787 L24.0877322,40.2091693 L25.1142174,41.2092738 L29.0156336,37.4024589 L27.990252,36.4012787 Z M29.2492183,35.6731151 C29.9172338,36.324913 30.725584,36.644717 31.6426338,36.644717 C32.5594997,36.644717 33.3527681,36.324913 34.004966,35.6731151 C34.6744528,35.0200624 35,34.2323837 35,33.3220896 C35,32.4116162 34.6744528,31.6233997 34.004966,30.9861221 C33.3527681,30.3328902 32.5594997,30 31.6426338,30 C30.725584,30 29.9172338,30.3328902 29.2492183,30.9861221 C28.5962847,31.6233997 28.2694501,32.4116162 28.2694501,33.3220896 C28.2694501,34.2323837 28.5962847,35.0200624 29.2492183,35.6731151 Z M30.3840353,32.0927085 C30.725584,31.7427884 31.1451168,31.5778671 31.6426338,31.5778671 C32.1241493,31.5778671 32.54405,31.7427884 32.8854148,32.0927085 C33.2280669,32.4420908 33.4149347,32.8518845 33.4149347,33.3220896 C33.4149347,33.8220523 33.2280669,34.2323837 32.8854148,34.5656324 C32.54405,34.9139391 32.1241493,35.0815494 31.6426338,35.0661329 C31.1451168,35.0815494 30.725584,34.9139391 30.3687695,34.5656324 C30.041751,34.2323837 29.8710686,33.8220523 29.8545154,33.3220896 C29.8710686,32.8518845 30.041751,32.4420908 30.3840353,32.0927085 Z" id="Fill-15" fill="#DA272C" mask="url(#mask-6)"></path>
                    <polygon id="Fill-16" fill="#DA272C" mask="url(#mask-6)" points="30 49 32 49 32 44 30 44"></polygon>
                    <polygon id="Fill-17" fill="#DA272C" mask="url(#mask-6)" points="30 55 32 55 32 50 30 50"></polygon>
                    <polygon id="Fill-18" fill="#DA272C" mask="url(#mask-6)" points="27.9594297 48 24 51.9598091 25.0413168 53 29 49.041123"></polygon>
                    <polygon id="Fill-19" fill="#DA272C" mask="url(#mask-6)" points="32 49.0411618 35.9584966 53 37 51.9597703 33.0405703 48"></polygon>
                    <polygon id="Fill-20" fill="#DA272C" mask="url(#mask-6)" points="20 44.7173331 21.2827261 46 25 42.2826669 23.7175047 41"></polygon>
                    <polygon id="Fill-21" fill="#DA272C" mask="url(#mask-6)" points="15 47.7172739 16.2827261 49 20 45.2827261 18.7175047 44"></polygon>
                    <polygon id="Fill-22" fill="#DA272C" mask="url(#mask-6)" points="18 42 12 42.0042989 12.0001998 44 17.9986011 43.9957011"></polygon>
                    <polygon id="Fill-23" fill="#DA272C" mask="url(#mask-6)" points="20.0042984 47.0013989 20 52.9998002 21.9954488 53 22 47"></polygon>
                    <polygon id="Fill-24" fill="#DA272C" mask="url(#mask-6)" points="42.7173331 46 44 44.7172739 40.2828978 41 39 42.2827261"></polygon>
                    <polygon id="Fill-25" fill="#DA272C" mask="url(#mask-6)" points="47.7173331 49 49 47.7172739 45.2828978 44 44 45.2824953"></polygon>
                    <polygon id="Fill-26" fill="#DA272C" mask="url(#mask-6)" points="41 47 41.0042989 53 43 52.9998002 42.9957011 47.0013989"></polygon>
                    <polygon id="Fill-27" fill="#DA272C" mask="url(#mask-6)" points="45.0013989 43.9957011 50.9998002 44 51 42.0042989 45 42"></polygon>
                    <polygon id="Fill-28" fill="#DA272C" mask="url(#mask-6)" points="19.2826669 21 18 22.2827261 21.7171022 26 23 24.7172739"></polygon>
                    <polygon id="Fill-29" fill="#DA272C" mask="url(#mask-6)" points="16.2826669 17 15 18.2827261 18.7171022 22 20 20.7175047"></polygon>
                    <polygon id="Fill-30" fill="#DA272C" mask="url(#mask-6)" points="22 20 21.9957011 14 20 14.0001998 20.0042989 19.9986011"></polygon>
                    <polygon id="Fill-31" fill="#DA272C" mask="url(#mask-6)" points="16.9986011 21.0042989 11.0001998 21 11 22.9957011 17 23"></polygon>
                    <polygon id="Fill-32" fill="#DA272C" mask="url(#mask-6)" points="17 35 22 35 22 33 17 33"></polygon>
                    <polygon id="Fill-33" fill="#DA272C" mask="url(#mask-6)" points="11 35 16 35 16 33 11 33"></polygon>
                    <polygon id="Fill-34" fill="#DA272C" mask="url(#mask-6)" points="16 30.9594297 12.0401909 27 11 28.0413168 14.958877 32"></polygon>
                    <polygon id="Fill-35" fill="#DA272C" mask="url(#mask-6)" points="14.9588382 35 11 38.9586832 12.0400432 40 16 36.0405703"></polygon>
                    <polygon id="Fill-36" fill="#DA272C" mask="url(#mask-6)" points="28 27.9594685 24.0401909 24 23 25.0414645 26.958877 29"></polygon>
                    <polygon id="Fill-37" fill="#DA272C" mask="url(#mask-6)" points="33 36.0405315 36.9598091 40 38 38.9585355 34.041123 35"></polygon>
                </g>
                <g id="Group-38-Copy-9" opacity="0.7" transform="translate(330.000000, 32.000000)">
                    <mask id="mask-8" fill="white">
                        <use xlink:href="#path-7"></use>
                    </mask>
                    <g id="Clip-2"></g>
                    <path d="M21.8432811,20.5550863 L24.5322581,20.5550863 L24.5322581,19.6654133 L21.8432811,19.6654133 L21.8432811,20.5550863 Z M18.763603,17.7132891 L19.6726165,17.7132891 L19.6726165,15.1384615 L18.763603,15.1384615 L18.763603,17.7132891 Z M21.3932286,18.6700154 L23.8480394,16.2680793 L23.2023471,15.6371216 L20.7481148,18.0384923 L21.3932286,18.6700154 Z M20.6012982,19.1293255 C20.1810949,18.7180722 19.6726165,18.5164597 19.0957626,18.5164597 C18.5190244,18.5164597 18.0199173,18.7180722 17.6097795,19.1293255 C17.1886506,19.5412572 16.983871,20.037995 16.983871,20.6123022 C16.983871,21.1866094 17.1886506,21.6837995 17.6097795,22.0857806 C18.0199173,22.4978254 18.5190244,22.7076923 19.0957626,22.7076923 C19.6726165,22.7076923 20.1810949,22.4978254 20.6012982,22.0857806 C21.0120145,21.6837995 21.217604,21.1866094 21.217604,20.6123022 C21.217604,20.037995 21.0120145,19.5412572 20.6012982,19.1293255 Z M19.8874617,21.3876565 C19.6726165,21.6083786 19.4087169,21.7124074 19.0957626,21.7124074 C18.7928738,21.7124074 18.5287427,21.6083786 18.3138976,21.3876565 C18.098474,21.1673866 17.9808125,20.9087844 17.9808125,20.6123022 C17.9808125,20.2969364 18.098474,20.037995 18.3138976,19.8277888 C18.5287427,19.6081975 18.7928738,19.5023594 19.0957626,19.5120838 C19.4087169,19.5023594 19.6726165,19.6081975 19.8969486,19.8277888 C20.1027696,20.037995 20.2101343,20.2969364 20.2205468,20.6123022 C20.2101343,20.9087844 20.1027696,21.1673866 19.8874617,21.3876565 Z" id="Fill-1" fill="#DA272C" mask="url(#mask-8)"></path>
                    <polygon id="Fill-3" fill="#DA272C" mask="url(#mask-8)" points="18.8709677 13.8769231 20.1290323 13.8769231 20.1290323 10.7230769 18.8709677 10.7230769"></polygon>
                    <polygon id="Fill-4" fill="#DA272C" mask="url(#mask-8)" points="18.8709677 10.7230769 20.1290323 10.7230769 20.1290323 7.56923077 18.8709677 7.56923077"></polygon>
                    <polygon id="Fill-5" fill="#DA272C" mask="url(#mask-8)" points="21.4126168 10.7230769 23.9032258 8.22535118 23.248204 7.56923077 20.7580645 10.0663686"></polygon>
                    <polygon id="Fill-6" fill="#DA272C" mask="url(#mask-8)" points="18.2419355 10.0663441 15.7519134 7.56923077 15.0967742 8.22537564 17.5873832 10.7230769"></polygon>
                    <polygon id="Fill-7" fill="#DA272C" mask="url(#mask-8)" points="27.0483871 14.0552207 26.241511 13.2461538 23.9032258 15.5909332 24.7099567 16.4"></polygon>
                    <polygon id="Fill-8" fill="#DA272C" mask="url(#mask-8)" points="29.5645161 10.2706426 28.75764 9.46153846 26.4193548 11.8062804 27.2260857 12.6153846"></polygon>
                    <polygon id="Fill-9" fill="#DA272C" mask="url(#mask-8)" points="27.6774194 14.5076923 31.4516129 14.5049807 31.4514872 13.2461538 27.6782993 13.2488655"></polygon>
                    <polygon id="Fill-10" fill="#DA272C" mask="url(#mask-8)" points="27.0456833 11.3529638 27.0483871 7.56935682 25.7931854 7.56923077 25.7903226 11.3538462"></polygon>
                    <polygon id="Fill-11" fill="#DA272C" mask="url(#mask-8)" points="25.7903226 20.1846154 28.9354839 20.1846154 28.9354839 18.9230769 25.7903226 18.9230769"></polygon>
                    <polygon id="Fill-12" fill="#DA272C" mask="url(#mask-8)" points="29.5645161 20.1846154 32.7096774 20.1846154 32.7096774 18.9230769 29.5645161 18.9230769"></polygon>
                    <polygon id="Fill-13" fill="#DA272C" mask="url(#mask-8)" points="29.5645161 21.4717198 32.0553638 23.9692308 32.7096774 23.312307 30.2194161 20.8153846"></polygon>
                    <polygon id="Fill-14" fill="#DA272C" mask="url(#mask-8)" points="30.2194405 18.2923077 32.7096774 15.7952921 32.0554567 15.1384615 29.5645161 17.635948"></polygon>
                    <path d="M14.4677419,21.9655366 L17.1567189,21.9655366 L17.1567189,21.0757638 L14.4677419,21.0757638 L14.4677419,21.9655366 Z M19.3273835,26.4923077 L20.236397,26.4923077 L20.236397,23.9175186 L19.3273835,23.9175186 L19.3273835,26.4923077 Z M17.6067714,22.9608066 L15.1519606,25.3627068 L15.7976529,25.993542 L18.2517695,23.5923202 L17.6067714,22.9608066 Z M18.3987018,22.5015034 C18.8189051,22.9126374 19.3273835,23.1143599 19.9042374,23.1143599 C20.4809756,23.1143599 20.979967,22.9126374 21.3902205,22.5015034 C21.8113494,22.0895778 22.016129,21.5927344 22.016129,21.0185488 C22.016129,20.4442502 21.8113494,19.9470675 21.3902205,19.5450924 C20.979967,19.1330538 20.4809756,18.9230769 19.9042374,18.9230769 C19.3273835,18.9230769 18.8189051,19.1330538 18.3987018,19.5450924 C17.9879855,19.9470675 17.782396,20.4442502 17.782396,21.0185488 C17.782396,21.5927344 17.9879855,22.0895778 18.3987018,22.5015034 Z M19.1125383,20.2430931 C19.3273835,20.0223742 19.5912831,19.9183469 19.9042374,19.9183469 C20.2071262,19.9183469 20.4712573,20.0223742 20.6859867,20.2430931 C20.901526,20.4634727 21.0190718,20.7219579 21.0190718,21.0185488 C21.0190718,21.3339099 20.901526,21.5927344 20.6859867,21.8029374 C20.4712573,22.0226385 20.2071262,22.1283619 19.9042374,22.1186377 C19.5912831,22.1283619 19.3273835,22.0226385 19.1029357,21.8029374 C18.8972304,21.5927344 18.7898657,21.3339099 18.7794532,21.0185488 C18.7898657,20.7219579 18.8972304,20.4634727 19.1125383,20.2430931 Z" id="Fill-15" fill="#DA272C" mask="url(#mask-8)"></path>
                    <polygon id="Fill-16" fill="#DA272C" mask="url(#mask-8)" points="18.8709677 30.9076923 20.1290323 30.9076923 20.1290323 27.7538462 18.8709677 27.7538462"></polygon>
                    <polygon id="Fill-17" fill="#DA272C" mask="url(#mask-8)" points="18.8709677 34.6923077 20.1290323 34.6923077 20.1290323 31.5384615 18.8709677 31.5384615"></polygon>
                    <polygon id="Fill-18" fill="#DA272C" mask="url(#mask-8)" points="17.5873832 30.2769231 15.0967742 32.7746488 15.751796 33.4307692 18.2419355 30.9336314"></polygon>
                    <polygon id="Fill-19" fill="#DA272C" mask="url(#mask-8)" points="20.1290323 30.9336559 22.6190543 33.4307692 23.2741935 32.7746244 20.7835845 30.2769231"></polygon>
                    <polygon id="Fill-20" fill="#DA272C" mask="url(#mask-8)" points="12.5806452 28.2063178 13.3875213 29.0153846 15.7258065 26.6706053 14.9190756 25.8615385"></polygon>
                    <polygon id="Fill-21" fill="#DA272C" mask="url(#mask-8)" points="9.43548387 30.0985881 10.24236 30.9076923 12.5806452 28.5629503 11.7739143 27.7538462"></polygon>
                    <polygon id="Fill-22" fill="#DA272C" mask="url(#mask-8)" points="11.3225806 26.4923077 7.5483871 26.4950193 7.54851281 27.7538462 11.3217007 27.7511345"></polygon>
                    <polygon id="Fill-23" fill="#DA272C" mask="url(#mask-8)" points="12.583349 29.6470362 12.5806452 33.4306432 13.8358468 33.4307692 13.8387097 29.6461538"></polygon>
                    <polygon id="Fill-24" fill="#DA272C" mask="url(#mask-8)" points="26.8705805 29.0153846 27.6774194 28.2062804 25.3392421 25.8615385 24.5322581 26.6706426"></polygon>
                    <polygon id="Fill-25" fill="#DA272C" mask="url(#mask-8)" points="30.0157418 30.9076923 30.8225806 30.0985881 28.4844034 27.7538462 27.6774194 28.5628047"></polygon>
                    <polygon id="Fill-26" fill="#DA272C" mask="url(#mask-8)" points="25.7903226 29.6461538 25.7930267 33.4307692 27.0483871 33.4306432 27.045683 29.6470362"></polygon>
                    <polygon id="Fill-27" fill="#DA272C" mask="url(#mask-8)" points="28.3073316 27.7511345 32.0805195 27.7538462 32.0806452 26.4950193 28.3064516 26.4923077"></polygon>
                    <polygon id="Fill-28" fill="#DA272C" mask="url(#mask-8)" points="12.1294195 13.2461538 11.3225806 14.055258 13.6607579 16.4 14.4677419 15.5908958"></polygon>
                    <polygon id="Fill-29" fill="#DA272C" mask="url(#mask-8)" points="10.2423227 10.7230769 9.43548387 11.5321811 11.7736611 13.8769231 12.5806452 13.0679645"></polygon>
                    <polygon id="Fill-30" fill="#DA272C" mask="url(#mask-8)" points="13.8387097 12.6153846 13.8360055 8.83076923 12.5806452 8.83089529 12.5833493 12.6145022"></polygon>
                    <polygon id="Fill-31" fill="#DA272C" mask="url(#mask-8)" points="10.6926684 13.2488655 6.91948054 13.2461538 6.91935484 14.5049807 10.6935484 14.5076923"></polygon>
                    <polygon id="Fill-32" fill="#DA272C" mask="url(#mask-8)" points="10.6935484 22.0769231 13.8387097 22.0769231 13.8387097 20.8153846 10.6935484 20.8153846"></polygon>
                    <polygon id="Fill-33" fill="#DA272C" mask="url(#mask-8)" points="6.91935484 22.0769231 10.0645161 22.0769231 10.0645161 20.8153846 6.91935484 20.8153846"></polygon>
                    <polygon id="Fill-34" fill="#DA272C" mask="url(#mask-8)" points="10.0645161 19.5282557 7.57366846 17.0307692 6.91935484 17.6875998 9.4096162 20.1846154"></polygon>
                    <polygon id="Fill-35" fill="#DA272C" mask="url(#mask-8)" points="9.40959179 22.0769231 6.91935484 24.5739387 7.57357559 25.2307692 10.0645161 22.7332828"></polygon>
                    <polygon id="Fill-36" fill="#DA272C" mask="url(#mask-8)" points="17.6129032 17.6359725 15.1220556 15.1384615 14.4677419 15.7953853 16.9580033 18.2923077"></polygon>
                    <polygon id="Fill-37" fill="#DA272C" mask="url(#mask-8)" points="20.7580645 22.7332583 23.2489122 25.2307692 23.9032258 24.5738455 21.4129644 22.0769231"></polygon>
                </g>
                <g id="Group-11-Copy" transform="translate(201.000000, 17.000000)">
                    <g id="Group-3" transform="translate(7.718750, 0.131092)">
                        <mask id="mask-10" fill="white">
                            <use xlink:href="#path-9"></use>
                        </mask>
                        <g id="Clip-2"></g>
                        <path d="M2.6018125,1.51028289 C2.6018125,0.930611842 2.13096875,0.461072368 1.55028125,0.461072368 C0.969,0.461072368 0.49815625,0.930611842 0.49815625,1.51028289 L0.49815625,7.80436184 C0.49815625,8.38344079 0.969,8.85298026 1.55028125,8.85298026 C2.13096875,8.85298026 2.6018125,8.38344079 2.6018125,7.80436184 L2.6018125,1.51028289 Z" id="Fill-1" fill="#DA272C" mask="url(#mask-10)"></path>
                    </g>
                    <path d="M10.3205625,11.7354671 C10.3205625,11.1557961 9.84971875,10.6868487 9.26903125,10.6868487 C8.68775,10.6868487 8.21690625,11.1557961 8.21690625,11.7354671 L8.21690625,18.0295461 C8.21690625,18.608625 8.68775,19.0781645 9.26903125,19.0781645 C9.84971875,19.0781645 10.3205625,18.608625 10.3205625,18.0295461 L10.3205625,11.7354671 Z" id="Fill-4" fill="#DA272C"></path>
                    <g id="Group-8" transform="translate(10.093750, 8.420566)">
                        <mask id="mask-12" fill="white">
                            <use xlink:href="#path-11"></use>
                        </mask>
                        <g id="Clip-7"></g>
                        <path d="M7.39177187,0.365921053 L1.08020937,0.365921053 C0.499521875,0.365921053 0.028678125,0.835460526 0.028678125,1.41453947 C0.028678125,1.99421053 0.499521875,2.46375 1.08020937,2.46375 L7.39177187,2.46375 C7.97305312,2.46375 8.44389687,1.99421053 8.44389687,1.41453947 C8.44389687,0.835460526 7.97305312,0.365921053 7.39177187,0.365921053" id="Fill-6" fill="#DA272C" mask="url(#mask-12)"></path>
                    </g>
                    <path d="M1.0518875,10.8843158 L7.36345,10.8843158 C7.9441375,10.8843158 8.41498125,10.4147763 8.41498125,9.83569737 C8.41498125,9.25602632 7.9441375,8.78648684 7.36345,8.78648684 L1.0518875,8.78648684 C0.47060625,8.78648684 0.00035625,9.25602632 0.00035625,9.83569737 C0.00035625,10.4147763 0.47060625,10.8843158 1.0518875,10.8843158" id="Fill-9" fill="#DA272C"></path>
                </g>
                <g id="Group-3" transform="translate(60.000000, 478.000000)">
                    <mask id="mask-14" fill="white">
                        <use xlink:href="#path-13"></use>
                    </mask>
                    <g id="Clip-2"></g>
                    <path d="M3.26253913,3.25064348 L5.67436522,7.27012174 C5.8594087,7.5789913 5.8594087,7.96368696 5.67436522,8.27255652 L3.26253913,12.2920348 L7.28201739,9.8802087 C7.59088696,9.69516522 7.97627826,9.69516522 8.28445217,9.8802087 L12.3039304,12.2920348 L9.89210435,8.27255652 C9.70775652,7.96368696 9.70775652,7.5789913 9.89210435,7.27012174 L12.3039304,3.25064348 L8.28445217,5.66246957 C7.97627826,5.84751304 7.59088696,5.84751304 7.28201739,5.66246957 L3.26253913,3.25064348 Z M14.3011478,15.5532522 C14.0736696,15.5532522 13.8489739,15.4899478 13.650713,15.3709913 L7.78358261,11.8509913 L1.91575652,15.3709913 C1.32445217,15.7264696 0.502886957,15.5059478 0.1648,14.9069913 C-0.0612869565,14.507687 -0.0543304348,14.0332522 0.183582609,13.6374261 L3.70358261,7.7709913 L0.182886957,1.90386087 C-0.0543304348,1.50873043 -0.0612869565,1.0336 0.1648,0.634991304 C0.503582609,0.0360347826 1.32306087,-0.185182609 1.91645217,0.171686957 L7.78358261,3.69168696 L13.650713,0.170991304 C14.242713,-0.184486957 15.0635826,0.0367304348 15.4016696,0.634295652 C15.6277565,1.03290435 15.6214957,1.50803478 15.3835826,1.90316522 L11.862887,7.7709913 L15.3835826,13.6388174 C15.6208,14.0332522 15.6277565,14.507687 15.4016696,14.9069913 C15.1769739,15.3056 14.7554087,15.5532522 14.3011478,15.5532522 Z" id="Fill-1" fill="#DA272C" mask="url(#mask-14)"></path>
                </g>
                <g id="Group-11-Copy" transform="translate(493.000000, 41.000000)">
                    <g id="Group-3" transform="translate(7.718750, 0.131092)">
                        <mask id="mask-16" fill="white">
                            <use xlink:href="#path-15"></use>
                        </mask>
                        <g id="Clip-2"></g>
                        <path d="M2.6018125,1.51028289 C2.6018125,0.930611842 2.13096875,0.461072368 1.55028125,0.461072368 C0.969,0.461072368 0.49815625,0.930611842 0.49815625,1.51028289 L0.49815625,7.80436184 C0.49815625,8.38344079 0.969,8.85298026 1.55028125,8.85298026 C2.13096875,8.85298026 2.6018125,8.38344079 2.6018125,7.80436184 L2.6018125,1.51028289 Z" id="Fill-1" fill="#DA272C" mask="url(#mask-16)"></path>
                    </g>
                    <path d="M10.3205625,11.7354671 C10.3205625,11.1557961 9.84971875,10.6868487 9.26903125,10.6868487 C8.68775,10.6868487 8.21690625,11.1557961 8.21690625,11.7354671 L8.21690625,18.0295461 C8.21690625,18.608625 8.68775,19.0781645 9.26903125,19.0781645 C9.84971875,19.0781645 10.3205625,18.608625 10.3205625,18.0295461 L10.3205625,11.7354671 Z" id="Fill-4" fill="#DA272C"></path>
                    <g id="Group-8" transform="translate(10.093750, 8.420566)">
                        <mask id="mask-18" fill="white">
                            <use xlink:href="#path-17"></use>
                        </mask>
                        <g id="Clip-7"></g>
                        <path d="M7.39177187,0.365921053 L1.08020937,0.365921053 C0.499521875,0.365921053 0.028678125,0.835460526 0.028678125,1.41453947 C0.028678125,1.99421053 0.499521875,2.46375 1.08020937,2.46375 L7.39177187,2.46375 C7.97305312,2.46375 8.44389687,1.99421053 8.44389687,1.41453947 C8.44389687,0.835460526 7.97305312,0.365921053 7.39177187,0.365921053" id="Fill-6" fill="#DA272C" mask="url(#mask-18)"></path>
                    </g>
                    <path d="M1.0518875,10.8843158 L7.36345,10.8843158 C7.9441375,10.8843158 8.41498125,10.4147763 8.41498125,9.83569737 C8.41498125,9.25602632 7.9441375,8.78648684 7.36345,8.78648684 L1.0518875,8.78648684 C0.47060625,8.78648684 0.00035625,9.25602632 0.00035625,9.83569737 C0.00035625,10.4147763 0.47060625,10.8843158 1.0518875,10.8843158" id="Fill-9" fill="#DA272C"></path>
                </g>
                <g id="Group-3" transform="translate(692.000000, 493.000000)">
                    <mask id="mask-20" fill="white">
                        <use xlink:href="#path-19"></use>
                    </mask>
                    <g id="Clip-2"></g>
                    <path d="M-0.782398649,9.17533108 L6.38316892,7.38368243 L8.17481757,0.217601351 C8.24773649,-0.0725337838 8.66060135,-0.0725337838 8.73300676,0.217601351 L10.5246554,7.38368243 L17.6907365,9.17533108 C17.9808716,9.24773649 17.9808716,9.66060135 17.6907365,9.73300676 L10.5246554,11.5246554 L8.73300676,18.6907365 C8.66060135,18.9813851 8.24773649,18.9813851 8.17481757,18.6907365 L6.38316892,11.5246554 L-0.782398649,9.73300676 C-1.07253378,9.66060135 -1.07253378,9.24773649 -0.782398649,9.17533108" id="Fill-1" fill="#DA272C" mask="url(#mask-20)"></path>
                </g>
            </g>
        </g>
    </g>
</svg>