<?xml version="1.0" encoding="UTF-8"?>
<svg width="32px" height="32px" viewBox="0 0 32 32" version="1.1" xmlns="http://www.w3.org/2000/svg" xmlns:xlink="http://www.w3.org/1999/xlink">
    <!-- Generator: sketchtool 51.2 (57519) - http://www.bohemiancoding.com/sketch -->
    <title>6C3B79EC-8DB5-4A4F-8A00-636148E31EFE</title>
    <desc>Created with sketchtool.</desc>
    <defs>
        <polygon id="path-1" points="0 0.0248304348 16.9616957 0.0248304348 16.9616957 21 0 21"></polygon>
    </defs>
    <g id="FLUJO-" stroke="none" stroke-width="1" fill="none" fill-rule="evenodd">
        <g id="2.2.1.1.-tabla-de-la-mancha-(ditable)" transform="translate(-865.000000, -501.000000)">
            <g id="Group-13" transform="translate(865.000000, 501.000000)">
                <g id="Group-5-Copy" fill="#DA272C">
                    <path d="M16,0 C7.1770625,0 0,7.1770625 0,16 C0,24.8229375 7.1770625,32 16,32 C24.8229375,32 32,24.8216875 32,16 C32,7.1783125 24.8229375,0 16,0" id="Fill-1"></path>
                </g>
                <g id="Group-10" transform="translate(8.000000, 5.000000)">
                    <g id="Group-3" transform="translate(0.000000, 0.018652)">
                        <mask id="mask-2" fill="white">
                            <use xlink:href="#path-1"></use>
                        </mask>
                        <g id="Clip-2"></g>
                        <path d="M15.8252043,5.05717826 C15.8252043,5.75187391 15.259987,6.31713478 14.5655087,6.31713478 L2.39611739,6.31713478 C1.70163913,6.31713478 1.13642174,5.75187391 1.13642174,5.05717826 L1.13642174,4.93422174 C1.13642174,4.23952609 1.70163913,3.67426522 2.39611739,3.67426522 L14.5655522,3.67426522 C15.2600304,3.67426522 15.8252478,4.23952609 15.8252478,4.93422174 L15.8252478,5.05717826 L15.8252043,5.05717826 Z M14.3108565,18.603613 C14.3108565,19.2983087 13.7456391,19.8635696 13.0511609,19.8635696 L3.91046522,19.8635696 C3.21598696,19.8635696 2.65076957,19.2982652 2.65076957,18.603613 L2.65076957,7.45356957 L14.3108565,7.45356957 L14.3108565,18.603613 Z M8.48081304,1.1613087 C9.3085087,1.1613087 9.99937826,1.75456957 10.1522478,2.53783043 L6.80968261,2.53783043 C6.9625087,1.75452609 7.65342174,1.1613087 8.48081304,1.1613087 Z M14.5655522,2.53783043 L11.3006391,2.53783043 C11.1377261,1.12552609 9.93611739,0.0248304348 8.48081304,0.0248304348 C7.02555217,0.0248304348 5.82411739,1.12548261 5.6612913,2.53783043 L2.39611739,2.53783043 C1.07481304,2.53783043 -1.30434783e-05,3.61296087 -1.30434783e-05,4.93422174 L-1.30434783e-05,5.05717826 C-1.30434783e-05,6.06687391 0.628682609,6.9310913 1.51433478,7.28322174 L1.51433478,18.603613 C1.51433478,19.9249174 2.5892913,21.0000043 3.9105087,21.0000043 L13.0512043,21.0000043 C14.3724652,21.0000043 15.4473783,19.9248304 15.4473783,18.603613 L15.4473783,7.28326522 C16.3329435,6.9310913 16.9617261,6.06687391 16.9617261,5.05722174 L16.9617261,4.93426522 C16.9617261,3.61296087 15.8867696,2.53783043 14.5655522,2.53783043 Z" id="Fill-1" fill="#FFFFFF" mask="url(#mask-2)"></path>
                    </g>
                    <path d="M5.43430435,18.4288391 C5.74813043,18.4288391 6.00252174,18.1743174 6.00252174,17.8606652 L6.00252174,11.4626217 C6.00252174,11.1489261 5.74808696,10.8944043 5.43430435,10.8944043 C5.12052174,10.8944043 4.86608696,11.1489261 4.86608696,11.4626217 L4.86608696,17.8606652 C4.86604348,18.1744043 5.12047826,18.4288391 5.43430435,18.4288391" id="Fill-4" fill="#FFFFFF"></path>
                    <path d="M8.48082174,18.4288391 C8.79464783,18.4288391 9.04908261,18.1743174 9.04908261,17.8606652 L9.04908261,11.4626217 C9.04908261,11.1489261 8.79456087,10.8944043 8.48082174,10.8944043 C8.16703913,10.8944043 7.91260435,11.1489261 7.91260435,11.4626217 L7.91260435,17.8606652 C7.91260435,18.1744043 8.16699565,18.4288391 8.48082174,18.4288391" id="Fill-6" fill="#FFFFFF"></path>
                    <path d="M11.5273565,18.4288391 C11.8411391,18.4288391 12.095487,18.1743174 12.095487,17.8606652 L12.095487,11.4626217 C12.095487,11.1489261 11.8410957,10.8944043 11.5273565,10.8944043 C11.213487,10.8944043 10.9590957,11.1489261 10.9590957,11.4626217 L10.9590957,17.8606652 C10.9590522,18.1744043 11.2135739,18.4288391 11.5273565,18.4288391" id="Fill-8" fill="#FFFFFF"></path>
                </g>
            </g>
        </g>
    </g>
</svg>