<?xml version="1.0" encoding="UTF-8"?>
<svg width="31px" height="31px" viewBox="0 0 31 31" version="1.1" xmlns="http://www.w3.org/2000/svg" xmlns:xlink="http://www.w3.org/1999/xlink">
    <!-- Generator: sketchtool 51.2 (57519) - http://www.bohemiancoding.com/sketch -->
    <title>C9611C77-A117-4257-A919-D166F5EF52C0</title>
    <desc>Created with sketchtool.</desc>
    <defs></defs>
    <g id="FLUJO-" stroke="none" stroke-width="1" fill="none" fill-rule="evenodd">
        <g id="2.2.1-tabla-de-la-mancha-(flujo-1)" transform="translate(-1065.000000, -774.000000)" fill="#F5A623" fill-rule="nonzero">
            <g id="clock-copy-3" transform="translate(1065.000000, 774.000000)">
                <path d="M29.762634,9.46619444 C28.1282451,5.65577778 25.3509085,2.88457026 21.5086814,1.24587582 C19.5883023,0.426857843 17.5763922,0.00850980392 15.4745212,0.00850980392 C13.3730049,0.00850980392 11.3759363,0.422906863 9.45768464,1.24587582 C5.64726797,2.88021405 2.85762255,5.64964869 1.22034641,9.46619444 C0.399910131,11.3782663 0,13.3814641 0,15.4829804 C0,17.584902 0.399910131,19.6047141 1.22034641,21.5171912 C2.85762255,25.3337369 5.64762255,28.1197859 9.45768464,29.7545294 C11.3762908,30.5774984 13.3729542,30.9914902 15.4745212,30.9914902 C17.5760882,30.9914902 19.5883023,30.5731422 21.5083775,29.7545294 C25.3506046,28.1157843 28.1279412,25.3272533 29.7626846,21.5171912 C30.5856029,19.598585 31,17.584902 31,15.4829804 C31,13.3814641 30.5859575,11.38475 29.762634,9.46619444 Z M27.2883072,22.3307892 C26.0715572,24.4174641 24.4046487,26.0728742 22.3052598,27.296817 C20.218585,28.513567 17.9322337,29.1271846 15.4748758,29.1271846 C13.6275392,29.1271846 11.8647941,28.7713938 10.1866405,28.0424379 C8.50853758,27.3138366 7.05964216,26.3559771 5.84760294,25.1442925 C4.63556373,23.9322533 3.67086601,22.4692255 2.94950817,20.7882353 C2.23027778,19.1133742 1.88173039,17.3307222 1.88173039,15.483031 C1.88173039,13.0253186 2.4855719,10.750567 3.69548366,8.66966667 C4.90970098,6.5811683 6.57696405,4.92398529 8.66151144,3.70358824 C10.7457042,2.48324183 13.0172141,1.87286601 15.4745212,1.87286601 C17.9322337,1.87286601 20.2181797,2.48683824 22.3049052,3.70358824 C24.4042941,4.9275817 26.0676062,6.58471405 27.2879526,8.66961601 C28.508299,10.7541634 29.1183203,13.0253186 29.1183203,15.4829804 C29.1183203,17.9407435 28.5123007,20.2309951 27.2883072,22.3307892 Z" id="Shape"></path>
                <path d="M16.4576569,15.3474314 L16.4576569,6.56769444 C16.4576569,6.04231536 15.9999003,5.61854739 15.4744706,5.61854739 C14.9830801,5.61854739 14.5422925,6.04231536 14.5422925,6.56769444 L14.5422925,15.4829804 C14.5422925,15.5 14.576281,15.5679771 14.576281,15.6186307 C14.5422925,15.923768 14.6272892,16.1779984 14.8305114,16.3815752 L19.8985556,21.4492647 C20.2376814,21.7883905 20.8646716,21.7883905 21.2035441,21.4492647 C21.5932729,21.0594853 21.5676422,20.4939379 21.2035441,20.1272565 L16.4576569,15.3474314 Z" id="Shape"></path>
            </g>
        </g>
    </g>
</svg>