<?xml version="1.0" encoding="UTF-8"?>
<svg width="13px" height="13px" viewBox="0 0 13 13" version="1.1" xmlns="http://www.w3.org/2000/svg" xmlns:xlink="http://www.w3.org/1999/xlink">
    <!-- Generator: sketchtool 52.4 (67378) - http://www.bohemiancoding.com/sketch -->
    <title>DB140719-F45A-4960-8691-696C86585137</title>
    <desc>Created with sketchtool.</desc>
    <g id="FLUJO-" stroke="none" stroke-width="1" fill="none" fill-rule="evenodd">
        <g id="-CONSULTA-MANCHA-TABLA--Copy" transform="translate(-469.000000, -794.000000)" fill-rule="nonzero">
            <g id="Group-6" transform="translate(468.000000, 775.000000)">
                <g id="Group-4">
                    <g id="like-copy-2" transform="translate(1.000000, 19.000000)">
                        <path d="M2.60351351,11.7389189 L0.137027027,11.7389189 C0.0632432432,11.7389189 0,11.6756757 0,11.6018919 L0,5.13702703 C0,5.06324324 0.0632432432,5 0.137027027,5 L2.60351351,5 C2.6772973,5 2.74054054,5.06324324 2.74054054,5.13702703 L2.74054054,11.6018919 C2.74054054,11.6756757 2.68081081,11.7389189 2.60351351,11.7389189 Z" id="XMLID_595_" fill="#2197AE"></path>
                        <path d="M12.9367568,5.95951574 C12.9367568,4.96870493 12.1321622,4.16411034 11.1413514,4.16411034 L8.35162162,4.16411034 L8.35162162,2.15086709 C8.35162162,1.30411034 8.10567568,0.692758986 7.61378378,0.334380608 C6.84081081,-0.234808581 5.77621622,0.0919481755 5.73405405,0.10600223 C5.60054054,0.148164392 5.5127027,0.271137365 5.5127027,0.408164392 L5.5127027,2.66384007 C5.5127027,4.44167791 3.45027027,5.04951574 3.36243243,5.07411034 C3.32027027,5.08465088 3.28513514,5.10573196 3.25351351,5.13032655 C3.14459459,4.99329953 2.97594595,4.90546169 2.78972973,4.90546169 L0.593783784,4.90546169 C0.267027027,4.90546169 0,5.17248872 0,5.49924547 L0,11.6865428 C0,12.0132995 0.267027027,12.2803266 0.593783784,12.2803266 L2.7827027,12.2803266 C3.00054054,12.2803266 3.19378378,12.1608671 3.29567568,11.9816779 C3.61891892,12.2908671 4.05459459,12.4805968 4.53594595,12.4805968 L10.0521622,12.4805968 C11.2713514,12.4805968 12.0478378,11.8411374 12.1848649,10.7273536 L12.9262162,6.00870493 C12.9332432,5.99465088 12.9367568,5.97708331 12.9367568,5.95951574 Z M2.74405405,11.6408671 L0.639459459,11.6408671 L0.639459459,5.54140763 L2.74405405,5.54140763 L2.74405405,11.6408671 Z M11.5594595,10.6360022 C11.5594595,10.6395157 11.5594595,10.6430293 11.5594595,10.6465428 C11.4610811,11.4405968 10.9551351,11.8446509 10.0556757,11.8446509 L4.53945946,11.8446509 C3.9,11.8446509 3.38,11.3246509 3.38,10.6851914 L3.38,5.6889752 C3.42918919,5.69951574 3.48189189,5.69951574 3.53108108,5.68546169 C3.63648649,5.65735358 6.14513514,4.92654277 6.14513514,2.66384007 L6.14513514,0.664650878 C6.41918919,0.622488716 6.89351351,0.597894121 7.23432432,0.847353581 C7.55054054,1.07924547 7.71216216,1.51843466 7.71216216,2.15086709 L7.71216216,4.48384007 C7.71216216,4.65951574 7.85621622,4.8035698 8.03189189,4.8035698 L11.1413514,4.8035698 C11.7737838,4.8035698 12.2867568,5.30951574 12.3008108,5.93843466 L11.5594595,10.6360022 Z" id="Shape" fill="#000000"></path>
                    </g>
                </g>
            </g>
        </g>
    </g>
</svg>