<?xml version="1.0" encoding="UTF-8"?>
<svg width="28px" height="38px" viewBox="0 0 28 38" version="1.1" xmlns="http://www.w3.org/2000/svg" xmlns:xlink="http://www.w3.org/1999/xlink">
    <!-- Generator: sketchtool 51.2 (57519) - http://www.bohemiancoding.com/sketch -->
    <title>11068453-B9C1-4A0C-824A-1F5DA6194298</title>
    <desc>Created with sketchtool.</desc>
    <defs></defs>
    <g id="FLUJO-" stroke="none" stroke-width="1" fill="none" fill-rule="evenodd">
        <g id="2.2.1-tabla-de-la-mancha-(flujo-1)" transform="translate(-906.000000, -716.000000)" fill-rule="nonzero">
            <g id="like" transform="translate(906.000000, 716.000000)">
                <path d="M6.29621622,35.9459459 L0.983783784,35.9459459 C0.824864865,35.9459459 0.688648649,35.8097297 0.688648649,35.6508108 L0.688648649,21.7264865 C0.688648649,21.5675676 0.824864865,21.4313514 0.983783784,21.4313514 L6.29621622,21.4313514 C6.45513514,21.4313514 6.59135135,21.5675676 6.59135135,21.7264865 L6.59135135,35.6508108 C6.59135135,35.8097297 6.4627027,35.9459459 6.29621622,35.9459459 Z" id="XMLID_595_" fill="#2197AE"></path>
                <path d="M14.1589189,0.688648649 L14.1589189,6.68216216 C14.1589189,7.06054054 14.4691892,7.37081081 14.8475676,7.37081081 C15.2259459,7.37081081 15.5362162,7.06054054 15.5362162,6.68216216 L15.5362162,0.688648649 C15.5362162,0.31027027 15.2259459,0 14.8475676,0 C14.4616216,0 14.1589189,0.31027027 14.1589189,0.688648649 Z" id="Shape" fill="#000000"></path>
                <path d="M27.2962162,13.4702703 L21.3027027,13.4702703 C20.9243243,13.4702703 20.6140541,13.7805405 20.6140541,14.1589189 C20.6140541,14.5372973 20.9243243,14.8475676 21.3027027,14.8475676 L27.2962162,14.8475676 C27.6745946,14.8475676 27.9848649,14.5372973 27.9848649,14.1589189 C27.9848649,13.7805405 27.6745946,13.4702703 27.2962162,13.4702703 Z" id="Shape" fill="#000000"></path>
                <path d="M1.7027027,14.1589189 C1.7027027,14.5372973 2.01297297,14.8475676 2.39135135,14.8475676 L8.38486486,14.8475676 C8.76324324,14.8475676 9.07351351,14.5372973 9.07351351,14.1589189 C9.07351351,13.7805405 8.76324324,13.4702703 8.38486486,13.4702703 L2.39135135,13.4702703 C2.01297297,13.4702703 1.7027027,13.7805405 1.7027027,14.1589189 Z" id="Shape" fill="#000000"></path>
                <path d="M5.42594595,4.60864865 C5.55459459,4.48 5.63027027,4.30594595 5.63027027,4.12432432 C5.63027027,3.9427027 5.55459459,3.76864865 5.42594595,3.64 C5.2972973,3.51135135 5.12324324,3.43567568 4.94162162,3.43567568 C4.76,3.43567568 4.58594595,3.51135135 4.4572973,3.64 C4.32864865,3.76864865 4.25297297,3.9427027 4.25297297,4.12432432 C4.25297297,4.30594595 4.32864865,4.48 4.4572973,4.60864865 C4.58594595,4.7372973 4.76,4.81297297 4.94162162,4.81297297 C5.12324324,4.81297297 5.2972973,4.7372973 5.42594595,4.60864865 Z" id="Shape" fill="#000000"></path>
                <path d="M7.28,6.4627027 C7.01513514,6.72756757 7.01513514,7.16648649 7.28,7.43135135 C7.41621622,7.56756757 7.59027027,7.63567568 7.76432432,7.63567568 C7.93837838,7.63567568 8.12,7.56756757 8.24864865,7.43135135 C8.51351351,7.16648649 8.51351351,6.72756757 8.24864865,6.4627027 C7.98378378,6.19783784 7.54486486,6.19783784 7.28,6.4627027 Z" id="Shape" fill="#000000"></path>
                <path d="M6.84108108,6.02378378 C7.10594595,5.75891892 7.10594595,5.32 6.84108108,5.05513514 C6.57621622,4.79027027 6.1372973,4.79027027 5.87243243,5.05513514 C5.60756757,5.32 5.60756757,5.75891892 5.87243243,6.02378378 C6.00864865,6.16 6.1827027,6.22054054 6.35675676,6.22054054 C6.53081081,6.22810811 6.70486486,6.16 6.84108108,6.02378378 Z" id="Shape" fill="#000000"></path>
                <path d="M8.69513514,7.87783784 C8.56648649,8.00648649 8.49837838,8.18054054 8.49837838,8.36216216 C8.49837838,8.54378378 8.57405405,8.71783784 8.7027027,8.84648649 C8.83135135,8.97513514 9.00540541,9.05081081 9.18702703,9.05081081 C9.36864865,9.05081081 9.5427027,8.97513514 9.67135135,8.84648649 C9.8,8.71783784 9.87567568,8.54378378 9.87567568,8.36216216 C9.87567568,8.18054054 9.8,8.00648649 9.67135135,7.87783784 C9.5427027,7.74918919 9.36864865,7.67351351 9.18702703,7.67351351 C8.99783784,7.67351351 8.81621622,7.74918919 8.69513514,7.87783784 Z" id="Shape" fill="#000000"></path>
                <path d="M23.6183784,4.07891892 C23.4897297,4.20756757 23.4140541,4.38162162 23.4140541,4.56324324 C23.4140541,4.74486486 23.4897297,4.91891892 23.6183784,5.04756757 C23.747027,5.17621622 23.9210811,5.25189189 24.1027027,5.25189189 C24.2843243,5.25189189 24.4583784,5.17621622 24.587027,5.04756757 C24.7156757,4.91891892 24.7837838,4.74486486 24.7837838,4.56324324 C24.7837838,4.38162162 24.7081081,4.20756757 24.587027,4.07891892 C24.4583784,3.95027027 24.2843243,3.88216216 24.1027027,3.88216216 C23.9286486,3.87459459 23.747027,3.95027027 23.6183784,4.07891892 Z" id="Shape" fill="#000000"></path>
                <path d="M21.28,8.06702703 C21.4540541,8.06702703 21.6281081,7.99891892 21.7643243,7.87027027 C22.0291892,7.60540541 22.0291892,7.16648649 21.7643243,6.90162162 C21.4994595,6.63675676 21.0605405,6.63675676 20.7956757,6.90162162 C20.5308108,7.16648649 20.5308108,7.60540541 20.7956757,7.87027027 C20.9318919,8.00648649 21.1059459,8.06702703 21.28,8.06702703 Z" id="Shape" fill="#000000"></path>
                <path d="M22.2108108,5.48648649 C21.9459459,5.75135135 21.9459459,6.19027027 22.2108108,6.45513514 C22.347027,6.59135135 22.5210811,6.65945946 22.6951351,6.65945946 C22.8691892,6.65945946 23.0432432,6.59135135 23.1794595,6.45513514 C23.4443243,6.19027027 23.4443243,5.75135135 23.1794595,5.48648649 C22.9145946,5.22162162 22.4756757,5.22162162 22.2108108,5.48648649 Z" id="Shape" fill="#000000"></path>
                <path d="M19.1837838,8.80108108 C19.1837838,8.9827027 19.2594595,9.15675676 19.3881081,9.28540541 C19.5167568,9.41405405 19.6908108,9.48972973 19.8724324,9.48972973 C20.0540541,9.48972973 20.2281081,9.41405405 20.3567568,9.28540541 C20.4854054,9.15675676 20.5610811,8.9827027 20.5610811,8.80108108 C20.5610811,8.61945946 20.4854054,8.44540541 20.3567568,8.31675676 C20.2281081,8.18810811 20.0540541,8.12 19.8724324,8.12 C19.6908108,8.12 19.5167568,8.19567568 19.3881081,8.31675676 C19.2594595,8.43783784 19.1837838,8.61945946 19.1837838,8.80108108 Z" id="Shape" fill="#000000"></path>
                <path d="M27.8637838,23.0205405 C27.8637838,20.8864865 26.1308108,19.1535135 23.9967568,19.1535135 L17.9881081,19.1535135 L17.9881081,14.8172973 C17.9881081,12.9935135 17.4583784,11.6767568 16.3989189,10.9048649 C14.7340541,9.67891892 12.4410811,10.3827027 12.3502703,10.412973 C12.0627027,10.5037838 11.8735135,10.7686486 11.8735135,11.0637838 L11.8735135,15.9221622 C11.8735135,19.7513514 7.43135135,21.0605405 7.24216216,21.1135135 C7.15135135,21.1362162 7.07567568,21.1816216 7.00756757,21.2345946 C6.77297297,20.9394595 6.40972973,20.7502703 6.00864865,20.7502703 L1.27891892,20.7502703 C0.575135135,20.7502703 0,21.3254054 0,22.0291892 L0,35.3556757 C0,36.0594595 0.575135135,36.6345946 1.27891892,36.6345946 L5.99351351,36.6345946 C6.4627027,36.6345946 6.87891892,36.3772973 7.09837838,35.9913514 C7.79459459,36.6572973 8.73297297,37.0659459 9.76972973,37.0659459 L21.6508108,37.0659459 C24.2767568,37.0659459 25.9491892,35.6886486 26.2443243,33.2897297 L27.8410811,23.1264865 C27.8562162,23.0962162 27.8637838,23.0583784 27.8637838,23.0205405 Z M5.91027027,35.2572973 L1.3772973,35.2572973 L1.3772973,22.12 L5.91027027,22.12 L5.91027027,35.2572973 Z M24.8972973,33.092973 C24.8972973,33.1005405 24.8972973,33.1081081 24.8972973,33.1156757 C24.6854054,34.8259459 23.5956757,35.6962162 21.6583784,35.6962162 L9.7772973,35.6962162 C8.4,35.6962162 7.28,34.5762162 7.28,33.1989189 L7.28,22.4378378 C7.38594595,22.4605405 7.49945946,22.4605405 7.60540541,22.4302703 C7.83243243,22.3697297 13.2356757,20.7956757 13.2356757,15.9221622 L13.2356757,11.6162162 C13.8259459,11.5254054 14.8475676,11.4724324 15.5816216,12.0097297 C16.2627027,12.5091892 16.6108108,13.4551351 16.6108108,14.8172973 L16.6108108,19.8421622 C16.6108108,20.2205405 16.9210811,20.5308108 17.2994595,20.5308108 L23.9967568,20.5308108 C25.3589189,20.5308108 26.4637838,21.6205405 26.4940541,22.9751351 L24.8972973,33.092973 Z" id="Shape" fill="#000000"></path>
            </g>
        </g>
    </g>
</svg>