<?xml version="1.0" encoding="UTF-8"?>
<svg width="32px" height="32px" viewBox="0 0 32 32" version="1.1" xmlns="http://www.w3.org/2000/svg" xmlns:xlink="http://www.w3.org/1999/xlink">
    <!-- Generator: sketchtool 51.2 (57519) - http://www.bohemiancoding.com/sketch -->
    <title>33FF5E98-4CE5-459F-9538-95FA7AB72AB5</title>
    <desc>Created with sketchtool.</desc>
    <defs></defs>
    <g id="FLUJO-" stroke="none" stroke-width="1" fill="none" fill-rule="evenodd">
        <g id="2.2.1.1.-tabla-de-la-mancha-(ditable)" transform="translate(-370.000000, -501.000000)">
            <g id="Group-14" transform="translate(370.000000, 501.000000)">
                <g id="Group-5">
                    <path d="M16,0 C7.1770625,0 0,7.1770625 0,16 C0,24.8229375 7.1770625,32 16,32 C24.8229375,32 32,24.8216875 32,16 C32,7.1783125 24.8229375,0 16,0" id="Fill-1" fill="#2197AE"></path>
                    <path d="M22.196775,14.6491375 L17.2394,14.6491375 L17.2394,9.6917625 C17.2394,9.0076375 16.6853375,8.4523875 16.000025,8.4523875 C15.31465,8.4523875 14.7605875,9.0076375 14.7605875,9.6917625 L14.7605875,14.6491375 L9.803275,14.6491375 C9.1178375,14.6491375 8.5639,15.2043875 8.5639,15.8885125 C8.5639,16.5726375 9.1178375,17.1278875 9.803275,17.1278875 L14.7605875,17.1278875 L14.7605875,22.0852625 C14.7605875,22.769325 15.31465,23.3246375 16.000025,23.3246375 C16.6853375,23.3246375 17.2394,22.769325 17.2394,22.0852625 L17.2394,17.1278875 L22.196775,17.1278875 C22.88215,17.1278875 23.4360875,16.5726375 23.4360875,15.8885125 C23.4360875,15.2043875 22.88215,14.6491375 22.196775,14.6491375" id="Fill-3" fill="#FFFFFF"></path>
                </g>
            </g>
        </g>
    </g>
</svg>