<?xml version="1.0" encoding="UTF-8"?>
<svg width="879px" height="595px" viewBox="0 0 879 595" version="1.1" xmlns="http://www.w3.org/2000/svg" xmlns:xlink="http://www.w3.org/1999/xlink">
    <!-- Generator: sketchtool 51.2 (57519) - http://www.bohemiancoding.com/sketch -->
    <title>58CA531B-5EBA-4995-BE72-A469A9EA5CCD</title>
    <desc>Created with sketchtool.</desc>
    <defs>
        <polygon id="path-1" points="3.46136596e-05 0.0385150708 28.9428958 0.0385150708 28.9428958 20.8300041 3.46136596e-05 20.8300041"></polygon>
        <polygon id="path-3" points="-1.99897094e-05 0.0138491477 21.0997282 0.0138491477 21.0997282 9.4350874 -1.99897094e-05 9.4350874"></polygon>
        <polygon id="path-5" points="0 0 43 0 43 45 0 45"></polygon>
        <polygon id="path-7" points="0 0 43 0 43 45 0 45"></polygon>
    </defs>
    <g id="FLUJO-" stroke="none" stroke-width="1" fill="none" fill-rule="evenodd">
        <g id="2.2.1.1.-tabla-de-la-mancha-(ditable)" transform="translate(-263.000000, -461.000000)">
            <g id="Group-28" transform="translate(263.000000, 453.000000)">
                <g id="Group-21" transform="translate(0.000000, 521.000000)">
                    <path d="M4.87838462,22.1117792 C4.87838462,22.1117792 8.82730769,21.3620227 12.9999231,22.1868477 C13.9220769,22.3691791 14.7654615,22.5491887 15.5328462,22.737247 C12.3843846,20.7549738 8.01038462,20.0377213 6.66638462,19.3384232 C5.69776923,20.8377814 4.87838462,22.1117792 4.87838462,22.1117792" id="Fill-1" fill="#DA272C"></path>
                    <path d="M18.2901077,40.7780219 C17.9919538,38.7539581 23.3573385,29.0834308 20.8981077,25.4857142 C19.9951846,24.164044 18.2379538,23.4002026 15.5328769,22.7372779 C17.4468769,23.9420889 18.9082615,25.6140272 18.9604154,28.0341742 C19.0362615,31.5281879 16.3941077,36.4684701 17.2467231,40.3286943 C17.9899538,43.693002 26.6654923,40.84984 30.7002615,36.3511465 C27.6185692,38.1835922 23.7771846,39.5925585 22.3882615,40.3279204 C20.9727231,41.0779864 18.5733385,42.7019428 18.2901077,40.7780219" id="Fill-3" fill="#DA272C"></path>
                    <path d="M27.8777077,26.5520431 C28.4386308,23.5414088 34.3120154,25.5965835 33.1000154,31.5466532 C30.1729385,29.6594153 27.6520154,27.763974 27.8777077,26.5520431 M41.1869385,36.8949366 C40.3549385,35.9614558 37.5697077,34.3376542 34.7595538,32.5937429 C37.0586308,27.6598068 33.3200154,24.2854383 31.3298615,24.2854383 C29.9066308,24.2854383 27.4552462,25.2607099 27.4552462,27.20986 C27.4552462,29.1585458 28.4241692,30.7325081 28.4241692,30.7325081 C28.4241692,30.7325081 29.0529385,32.0287943 32.1847846,34.1788494 C32.1697077,34.2099603 32.1561692,34.2406068 32.1407846,34.2718725 C31.7881692,34.991292 31.2941692,35.6890422 30.7003231,36.3511929 C31.5552462,35.8427392 32.3512462,35.3019363 33.0207846,34.7335825 C33.5612462,35.0810646 34.1623231,35.4469656 34.8318615,35.8305115 C36.7723231,36.9416803 39.3809385,38.2639696 39.9732462,38.9042963 C41.9852462,41.077259 42.5069385,41.0026548 42.8046308,40.4776395 C43.1026308,39.9533982 43.7260154,38.4856152 44.0712462,37.7045931 C44.1700154,37.4809354 44.1820154,37.2597541 44.1278615,37.039192 C44.1166308,37.1238569 44.1012462,37.2037236 44.0780154,37.2741487 C43.9186308,37.7564446 43.0717077,39.0093922 41.1869385,36.8949366" id="Fill-5" fill="#DA272C"></path>
                    <path d="M37.683,16.0430083 C32.4477692,16.5641541 31.779,14.8436147 31.2553077,12.5914045 C28.7963846,2.02160283 27.8276154,2.84627303 25.5323846,0.387895266 C24.1648462,-1.07741118 23.5839231,1.79686163 22.7965385,5.85644307 C23.8445385,3.59401735 24.7448462,1.80135026 25.0706923,1.27184637 C26.0391538,-0.302115945 25.8905385,1.87115624 26.6356154,4.94540539 C27.2677692,7.55268194 30.4357692,12.0666988 31.8519231,15.8899305 C33.2676154,19.7130074 35.4691538,19.1407841 36.7691538,19.1883017 C38.3082308,19.2452609 46.573,18.4072796 48.3188462,17.9885985 C49.5777692,17.6870862 51.2343846,16.7478784 51.7562308,16.7830136 C51.6708462,14.7532229 39.4520769,15.867023 37.683,16.0430083" id="Fill-7" fill="#DA272C"></path>
                    <path d="M51.7561538,16.7830446 C51.7563077,16.7864497 51.7572308,16.7897001 51.7573846,16.7931053 C51.7610769,16.9511361 51.0433846,17.7508867 50.852,17.9135609 C47.8852308,20.439423 42.9909231,22.6526285 41.0515385,24.4174351 C41.4136923,24.1717985 41.8613846,23.9981349 42.4321538,23.9113031 C44.8912308,23.5365796 49.7343077,22.0372215 50.852,20.9875005 C51.9696923,19.9380891 51.7650769,17.752744 51.9143077,17.0029876 C51.9433846,16.8567201 51.8827692,16.7915575 51.7561538,16.7830446" id="Fill-9" fill="#DA272C"></path>
                    <path d="M3.14693846,15.8149084 C0.762938462,16.1145633 1.53846154e-05,16.6400429 1.53846154e-05,16.6400429 L1.53846154e-05,19.1883481 C1.53846154e-05,19.1883481 14.4604769,18.0022656 18.1975538,17.8541407 C18.1443231,18.168345 18.1264769,18.4416873 18.1326308,18.6636424 C18.2017077,21.1758838 19.5027846,22.7780161 20.5832462,22.7452027 C19.9815538,21.7098763 19.5797077,20.0983023 19.8187846,17.9857041 C20.5661692,18.1876926 21.3617077,18.5890382 22.0260154,19.1310794 C21.8690923,18.2016228 21.3666308,17.3314472 20.3014,16.8646293 C20.2127846,16.8257794 20.1203231,16.7875487 20.0252462,16.749937 C20.1601692,16.1238501 20.3483231,15.4623185 20.6000154,14.765497 C21.6335538,11.9059283 22.2624769,8.60879533 22.7964769,5.8564895 C21.2700154,9.1519199 19.4215538,13.4446007 18.5852462,16.2903939 C15.0703231,15.3691407 9.21924615,15.0510669 3.14693846,15.8149084" id="Fill-11" fill="#DA272C"></path>
                    <path d="M20.8236154,22.7115534 C20.7465385,22.732294 20.6676154,22.7428191 20.5876154,22.7451408 C21.3457692,24.0494756 22.4168462,24.4392127 22.9097692,23.7612744 C24.2145385,21.9672143 23.3985385,20.2502348 22.027,19.1311722 C22.2979231,20.7374836 21.5317692,22.521483 20.8236154,22.7115534" id="Fill-13" fill="#DA272C"></path>
                    <path d="M39.0045077,28.7834509 C38.7065077,29.7581033 38.9303538,32.1568906 40.4949692,33.5816446 C41.8763538,34.8392357 43.8557385,35.9290448 44.1278923,37.0391301 C44.4248154,34.8014692 40.6515846,27.7673173 40.2411231,25.9079398 C40.1412769,25.4556713 40.4578923,24.9575879 41.0515846,24.4174041 C39.8535846,25.2300015 39.5997385,26.8394085 39.0045077,28.7834509" id="Fill-15" fill="#DA272C"></path>
                    <path d="M19.8188154,17.9856886 C19.8188154,17.9856886 19.0275846,17.8141919 18.1975846,17.8541252 C18.3945077,16.7657092 18.5851231,16.2903784 18.5851231,16.2903784 L20.0252769,16.7499216 L19.8188154,17.9856886 Z" id="Fill-17" fill="#AF0000"></path>
                    <path d="M33.1000615,31.5465913 C32.9186769,32.5359479 32.1848308,34.1787875 32.1848308,34.1787875 L33.0206769,34.7336754 C33.0206769,34.7336754 34.1823692,33.4098383 34.7596,32.593681 L33.1000615,31.5465913 Z" id="Fill-19" fill="#AF0000"></path>
                </g>
                <g id="Group-15-Copy" transform="translate(833.000000, 573.000000)">
                    <g id="Group-3" transform="translate(0.000000, 8.881132)">
                        <mask id="mask-2" fill="white">
                            <use xlink:href="#path-1"></use>
                        </mask>
                        <g id="Clip-2"></g>
                        <path d="M5.51319112,10.33098 C1.80667761,10.5571828 0.689337838,10.7425137 1.0262529,9.61240069 C1.3224112,8.61965325 7.00629923,8.83786177 11.4669247,9.28891613 C8.81538417,9.31987967 6.52819112,10.2691656 5.51319112,10.33098 M13.6012799,14.0588779 C10.7929826,14.0588779 4.67700579,16.0201649 4.78942278,15.2295249 C4.89288224,14.5021632 9.40770077,13.1886335 14.1063726,14.0186816 C14.1317896,14.0231854 14.1576544,14.0282521 14.1834073,14.0333189 C13.9484961,14.0494199 13.749527,14.0588779 13.6012799,14.0588779 M18.4881718,4.88826499 C8.05309846,4.85133393 0.860762548,2.66677162 0.745658301,1.68573402 C0.676125483,1.08977029 2.03151158,-0.185477244 4.66457722,2.51375543 C6.67419884,4.57401319 11.0035965,4.07645723 13.8447008,3.97973838 C17.3665772,3.85937465 20.1761062,3.9581202 22.3645425,4.18803857 C21.1002992,4.61646139 19.7225193,4.89254359 18.4881718,4.88826499 M26.302944,3.14011973 C26.9610985,2.15694283 27.1914189,1.17331556 26.5862259,0.543686013 C26.6310135,0.784976449 26.625639,1.04191755 26.5591293,1.31664861 C26.4520869,1.75903317 26.0248127,2.23801101 25.3925232,2.69728478 C22.9800367,1.65668459 19.6673185,1.17387853 16.5195309,1.69530457 C6.31959266,3.38535098 5.8467471,1.28545988 4.83588996,0.609553911 C2.76289382,-0.776711998 0.857851351,0.687582036 0.431696911,1.55917759 C-1.13273552,4.75990704 1.74207143,5.68475988 6.04269305,6.29254605 C13.1934884,7.30375902 20.5858012,7.60022086 23.8564189,5.48816954 C24.2636506,5.22514832 24.6611409,4.91810259 25.0283996,4.58628601 C28.6072683,5.31939009 29.3730251,6.49060012 28.260612,7.16819501 C27.5117625,7.62476651 24.2609633,8.45740429 20.4189672,8.96194113 C16.8103147,7.75695268 11.9917239,7.00358156 6.71730695,7.32290012 C1.22544595,7.65561745 0.518025097,8.68698488 0.97777027,10.4811814 C1.39172008,12.0956767 1.47088224,13.6989126 5.00037259,13.0092701 C5.6742027,12.8773091 8.46995946,11.7881806 11.8592645,11.9171015 C15.3232529,12.0490625 19.3064421,11.6481128 22.5407819,10.8475645 C25.0204498,11.3221512 26.2897317,11.7652113 25.7903494,12.1671744 C25.5936197,12.3249195 25.712195,12.8145939 19.6944151,13.443773 C18.7334961,13.5443201 17.1059131,13.7454142 15.7335077,13.8904362 C10.6560444,12.9231352 3.85324903,13.1842423 3.94730309,14.7210473 C4.027361,16.0379549 4.7842722,17.0195554 5.95714865,17.7094231 C7.66971622,18.7169205 9.46099807,17.0980339 17.4451795,16.7379561 C17.998195,16.7130727 18.5523301,16.6951701 19.1013147,16.6755786 C19.8013456,17.3511468 20.1092606,17.9789748 19.6452606,18.3183353 C18.4094575,19.2221329 10.5313108,17.8762885 10.5313108,17.8762885 L11.034388,20.467205 C12.4799093,20.9729804 18.4138243,21.5228929 20.8394112,17.8130103 C21.1296351,17.369162 21.2053263,16.9579661 21.1070174,16.5791976 C22.8212645,16.4598472 24.3974537,16.2110129 25.6163494,15.5372462 C27.9842722,14.2290085 26.9971525,12.1946475 23.9149788,10.468796 C26.1541371,9.78264387 27.8676004,8.88289965 28.5202683,7.82518507 C29.6093919,6.05970022 28.4954112,4.34184293 26.302944,3.14011973" id="Fill-1" fill="#DA272C" mask="url(#mask-2)"></path>
                    </g>
                    <g id="Group-6" transform="translate(5.486486, 0.098746)">
                        <mask id="mask-4" fill="white">
                            <use xlink:href="#path-3"></use>
                        </mask>
                        <g id="Clip-5"></g>
                        <path d="M14.2847282,7.12807752 C8.49928417,7.18460006 0.0658826255,7.45347619 0.644427027,5.72784987 C0.941816988,4.84206739 8.53119537,5.1985422 15.398261,7.10814826 C15.0621297,7.11760621 14.6924077,7.1241367 14.2847282,7.12807752 M18.6057282,7.03833955 C18.6537629,6.82756227 18.6992224,6.58627184 18.7471452,6.3068118 C19.1023112,4.23529456 13.3587436,1.46332572 11.5190911,0.681468144 C7.0567861,-1.21462655 6.99341158,1.43968083 7.24489421,2.32490034 C8.25037683,2.00850924 10.7019405,2.45089381 14.0958363,4.22088244 C16.782871,5.62156047 18.4172842,6.37538197 17.9582108,6.76248254 C17.083956,6.41186265 16.1599869,6.11630157 15.3718363,5.84044456 C13.756234,5.27533178 0.869372973,2.22581701 0.0829019305,6.06653472 C-0.703009266,9.90759021 4.24636139,9.058401 8.62782471,9.34045072 C12.9789444,9.62069892 15.5354232,9.22661748 16.735844,8.83478794 C17.5270178,8.57672089 17.9566432,8.39645678 18.232983,8.00800508 C19.092122,8.31876644 19.9194618,8.6571135 20.6956317,9.02439741 C20.8592185,9.11210867 20.99179,9.21378169 21.0997282,9.3260386 C20.9157629,8.33543045 19.8712031,7.61358585 18.6057282,7.03833955" id="Fill-4" fill="#DA272C" mask="url(#mask-4)"></path>
                    </g>
                    <path d="M25.3925232,11.5784392 C24.6203842,12.1391608 23.5418977,12.67027 22.3645425,13.069193 C23.384805,13.1762706 24.2699208,13.3119472 25.0283996,13.4673279 C25.5275579,13.0163861 25.9697239,12.5190553 26.302944,12.0212742 C26.0169749,11.8645423 25.7127548,11.7165929 25.3925232,11.5784392" id="Fill-7" fill="#AF0000"></path>
                    <path d="M24.0921923,7.13710761 C23.8814664,7.04128953 23.6646942,6.94952485 23.4446749,6.86125061 C23.2060687,7.06245733 22.4010108,7.16458072 20.8847251,7.20691633 C21.8515784,7.47579246 22.8036517,7.77540695 23.7194471,8.10677314 C23.8831459,7.87651699 23.9928757,7.57296169 24.0921923,7.13710761" id="Fill-9" fill="#AF0000"></path>
                    <path d="M15.7335413,22.7715456 C15.1452556,22.8336979 14.6050046,22.8852662 14.183329,22.9144283 C15.7632131,23.2201229 17.9565761,24.4519089 19.1013483,25.556688 C19.7818965,25.5324802 20.454495,25.5057952 21.106939,25.460307 C20.7795413,24.2003723 18.5159737,23.3016414 15.7335413,22.7715456" id="Fill-11" fill="#AF0000"></path>
                    <path d="M12.3569784,18.1953593 C12.0565653,18.1739663 11.7596232,18.1666477 11.4669359,18.1700255 C12.079183,18.2319526 12.6684764,18.2982709 13.217573,18.3663907 C17.045349,18.8416529 20.2911097,19.2981118 22.5407931,19.7286739 C23.0164378,19.6110125 23.4758471,19.4845686 23.91499,19.3499054 C22.9441058,18.8062982 21.7666386,18.2930915 20.4189784,17.8430505 C17.8046116,18.1863518 14.9167042,18.3778753 12.3569784,18.1953593" id="Fill-13" fill="#AF0000"></path>
                </g>
                <g id="Group-38-Copy-9" opacity="0.7" transform="translate(14.000000, 55.000000)">
                    <mask id="mask-6" fill="white">
                        <use xlink:href="#path-5"></use>
                    </mask>
                    <g id="Clip-2"></g>
                    <path d="M24.1501441,22.724888 L27,22.724888 L27,21.7845832 L24.1501441,21.7845832 L24.1501441,22.724888 Z M20.8862118,19.7213624 L21.8496107,19.7213624 L21.8496107,17 L20.8862118,17 L20.8862118,19.7213624 Z M23.6731653,20.7325366 L26.2748452,18.193905 L25.5905217,17.5270391 L22.989455,20.0650732 L23.6731653,20.7325366 Z M22.8338545,21.2179863 C22.3885108,20.7833284 21.8496107,20.570242 21.2382441,20.570242 C20.6270002,20.570242 20.098032,20.7833284 19.663356,21.2179863 C19.2170315,21.6533612 19,22.1783687 19,22.78536 C19,23.3923514 19.2170315,23.9178369 19.663356,24.342695 C20.098032,24.7781894 20.6270002,25 21.2382441,25 C21.8496107,25 22.3885108,24.7781894 22.8338545,24.342695 C23.2691435,23.9178369 23.4870333,23.3923514 23.4870333,22.78536 C23.4870333,22.1783687 23.2691435,21.6533612 22.8338545,21.2179863 Z M22.0773098,23.6048402 C21.8496107,23.8381237 21.5699221,23.9480729 21.2382441,23.9480729 C20.9172338,23.9480729 20.6373,23.8381237 20.4096009,23.6048402 C20.1812887,23.3720347 20.0565876,23.0987153 20.0565876,22.78536 C20.0565876,22.4520466 20.1812887,22.1783687 20.4096009,21.9561996 C20.6373,21.7241111 20.9172338,21.6122498 21.2382441,21.6225276 C21.5699221,21.6122498 21.8496107,21.7241111 22.0873644,21.9561996 C22.3054994,22.1783687 22.4192876,22.4520466 22.4303231,22.78536 C22.4192876,23.0987153 22.3054994,23.3720347 22.0773098,23.6048402 Z" id="Fill-1" fill="#DA272C" mask="url(#mask-6)"></path>
                    <polygon id="Fill-3" fill="#DA272C" mask="url(#mask-6)" points="21 15 22 15 22 12 21 12"></polygon>
                    <polygon id="Fill-4" fill="#DA272C" mask="url(#mask-6)" points="21 11 22 11 22 8 21 8"></polygon>
                    <polygon id="Fill-5" fill="#DA272C" mask="url(#mask-6)" points="23.6243422 11 26 8.62411453 25.3752099 8 23 10.3753262"></polygon>
                    <polygon id="Fill-6" fill="#DA272C" mask="url(#mask-6)" points="20 10.3753029 17.624902 8 17 8.6241378 19.3756578 11"></polygon>
                    <polygon id="Fill-7" fill="#DA272C" mask="url(#mask-6)" points="29 15.7696001 28.2303643 15 26 17.2303999 26.7694972 18"></polygon>
                    <polygon id="Fill-8" fill="#DA272C" mask="url(#mask-6)" points="32 10.7696357 31.2303643 10 29 12.2303643 29.7694972 13"></polygon>
                    <polygon id="Fill-9" fill="#DA272C" mask="url(#mask-6)" points="31 16 35 15.9978506 34.9998668 15 31.0009326 15.0021494"></polygon>
                    <polygon id="Fill-10" fill="#DA272C" mask="url(#mask-6)" points="28.9978508 11.9990674 29 8.00013323 28.0022756 8 28 12"></polygon>
                    <polygon id="Fill-11" fill="#DA272C" mask="url(#mask-6)" points="28 22 31 22 31 21 28 21"></polygon>
                    <polygon id="Fill-12" fill="#DA272C" mask="url(#mask-6)" points="33 22 36 22 36 21 33 21"></polygon>
                    <polygon id="Fill-13" fill="#DA272C" mask="url(#mask-6)" points="33 23.6243189 35.3758855 26 36 25.3751213 33.6246738 23"></polygon>
                    <polygon id="Fill-14" fill="#DA272C" mask="url(#mask-6)" points="33.6246971 20 36 17.6247901 35.3759741 17 33 19.3756578"></polygon>
                    <path d="M16,24.2156078 L18.8498559,24.2156078 L18.8498559,23.2751976 L16,23.2751976 L16,24.2156078 Z M21.1503893,29 L22.1137882,29 L22.1137882,26.2786782 L21.1503893,26.2786782 L21.1503893,29 Z M19.3268347,25.2675192 L16.7251548,27.8061128 L17.4094783,28.4728492 L20.0104224,25.9349726 L19.3268347,25.2675192 Z M20.1661455,24.7820768 C20.6114892,25.2166087 21.1503893,25.4298113 21.7617559,25.4298113 C22.3729998,25.4298113 22.9018454,25.2166087 23.336644,24.7820768 C23.7829685,24.3467083 24,23.8215892 24,23.2147264 C24,22.6077441 23.7829685,22.0822665 23.336644,21.6574147 C22.9018454,21.2219268 22.3729998,21 21.7617559,21 C21.1503893,21 20.6114892,21.2219268 20.1661455,21.6574147 C19.7308565,22.0822665 19.5129667,22.6077441 19.5129667,23.2147264 C19.5129667,23.8215892 19.7308565,24.3467083 20.1661455,24.7820768 Z M20.9226902,22.395139 C21.1503893,22.161859 21.4300779,22.0519114 21.7617559,22.0519114 C22.0827662,22.0519114 22.3627,22.161859 22.5902765,22.395139 C22.8187113,22.6280605 22.9432898,22.9012563 22.9432898,23.2147264 C22.9432898,23.5480348 22.8187113,23.8215892 22.5902765,24.0437549 C22.3627,24.2759594 22.0827662,24.3876996 21.7617559,24.3774219 C21.4300779,24.3876996 21.1503893,24.2759594 20.912513,24.0437549 C20.6945006,23.8215892 20.5807124,23.5480348 20.5696769,23.2147264 C20.5807124,22.9012563 20.6945006,22.6280605 20.9226902,22.395139 Z" id="Fill-15" fill="#DA272C" mask="url(#mask-6)"></path>
                    <polygon id="Fill-16" fill="#DA272C" mask="url(#mask-6)" points="21 33 22 33 22 30 21 30"></polygon>
                    <polygon id="Fill-17" fill="#DA272C" mask="url(#mask-6)" points="21 38 22 38 22 35 21 35"></polygon>
                    <polygon id="Fill-18" fill="#DA272C" mask="url(#mask-6)" points="19.3756578 33 17 35.3758855 17.6247901 36 20 33.6246738"></polygon>
                    <polygon id="Fill-19" fill="#DA272C" mask="url(#mask-6)" points="22 33.6246971 24.375098 36 25 35.3758622 22.6243422 33"></polygon>
                    <polygon id="Fill-20" fill="#DA272C" mask="url(#mask-6)" points="14 30.2303999 14.7696357 31 17 28.7696001 16.2305028 28"></polygon>
                    <polygon id="Fill-21" fill="#DA272C" mask="url(#mask-6)" points="10 32.2303643 10.7696357 33 13 30.7696357 12.2305028 30"></polygon>
                    <polygon id="Fill-22" fill="#DA272C" mask="url(#mask-6)" points="12 29 8 29.0021494 8.00013323 30 11.9990674 29.9978506"></polygon>
                    <polygon id="Fill-23" fill="#DA272C" mask="url(#mask-6)" points="14.0021492 33.0009326 14 36.9998668 14.9977244 37 15 33"></polygon>
                    <polygon id="Fill-24" fill="#DA272C" mask="url(#mask-6)" points="29.2303999 31 30 30.2303643 27.7697387 28 27 28.7696357"></polygon>
                    <polygon id="Fill-25" fill="#DA272C" mask="url(#mask-6)" points="33.2303999 33 34 32.2303643 31.7697387 30 31 30.7694972"></polygon>
                    <polygon id="Fill-26" fill="#DA272C" mask="url(#mask-6)" points="28 33 28.0021494 37 29 36.9998668 28.9978506 33.0009326"></polygon>
                    <polygon id="Fill-27" fill="#DA272C" mask="url(#mask-6)" points="31.0009326 29.9978506 34.9998668 30 35 29.0021494 31 29"></polygon>
                    <polygon id="Fill-28" fill="#DA272C" mask="url(#mask-6)" points="12.7696001 15 12 15.7696357 14.2302613 18 15 17.2303643"></polygon>
                    <polygon id="Fill-29" fill="#DA272C" mask="url(#mask-6)" points="10.7696001 12 10 12.7696357 12.2302613 15 13 14.2305028"></polygon>
                    <polygon id="Fill-30" fill="#DA272C" mask="url(#mask-6)" points="15 14 14.9978506 10 14 10.0001332 14.0021494 13.9990674"></polygon>
                    <polygon id="Fill-31" fill="#DA272C" mask="url(#mask-6)" points="11.9990674 15.0021494 8.00013323 15 8 15.9978506 12 16"></polygon>
                    <polygon id="Fill-32" fill="#DA272C" mask="url(#mask-6)" points="12 24 15 24 15 23 12 23"></polygon>
                    <polygon id="Fill-33" fill="#DA272C" mask="url(#mask-6)" points="8 24 11 24 11 23 8 23"></polygon>
                    <polygon id="Fill-34" fill="#DA272C" mask="url(#mask-6)" points="11 21.3756578 8.62411453 19 8 19.6247901 10.3753262 22"></polygon>
                    <polygon id="Fill-35" fill="#DA272C" mask="url(#mask-6)" points="10.3753029 24 8 26.3752099 8.62402595 27 11 24.6243422"></polygon>
                    <polygon id="Fill-36" fill="#DA272C" mask="url(#mask-6)" points="19 19.3756811 16.6241145 17 16 17.6248787 18.3753262 20"></polygon>
                    <polygon id="Fill-37" fill="#DA272C" mask="url(#mask-6)" points="23 24.6243189 25.3758855 27 26 26.3751213 23.6246738 24"></polygon>
                </g>
                <g id="Group-38-Copy-10" opacity="0.7" transform="translate(843.000000, 0.000000)">
                    <mask id="mask-8" fill="white">
                        <use xlink:href="#path-7"></use>
                    </mask>
                    <g id="Clip-2"></g>
                    <path d="M24.1501441,22.724888 L27,22.724888 L27,21.7845832 L24.1501441,21.7845832 L24.1501441,22.724888 Z M20.8862118,19.7213624 L21.8496107,19.7213624 L21.8496107,17 L20.8862118,17 L20.8862118,19.7213624 Z M23.6731653,20.7325366 L26.2748452,18.193905 L25.5905217,17.5270391 L22.989455,20.0650732 L23.6731653,20.7325366 Z M22.8338545,21.2179863 C22.3885108,20.7833284 21.8496107,20.570242 21.2382441,20.570242 C20.6270002,20.570242 20.098032,20.7833284 19.663356,21.2179863 C19.2170315,21.6533612 19,22.1783687 19,22.78536 C19,23.3923514 19.2170315,23.9178369 19.663356,24.342695 C20.098032,24.7781894 20.6270002,25 21.2382441,25 C21.8496107,25 22.3885108,24.7781894 22.8338545,24.342695 C23.2691435,23.9178369 23.4870333,23.3923514 23.4870333,22.78536 C23.4870333,22.1783687 23.2691435,21.6533612 22.8338545,21.2179863 Z M22.0773098,23.6048402 C21.8496107,23.8381237 21.5699221,23.9480729 21.2382441,23.9480729 C20.9172338,23.9480729 20.6373,23.8381237 20.4096009,23.6048402 C20.1812887,23.3720347 20.0565876,23.0987153 20.0565876,22.78536 C20.0565876,22.4520466 20.1812887,22.1783687 20.4096009,21.9561996 C20.6373,21.7241111 20.9172338,21.6122498 21.2382441,21.6225276 C21.5699221,21.6122498 21.8496107,21.7241111 22.0873644,21.9561996 C22.3054994,22.1783687 22.4192876,22.4520466 22.4303231,22.78536 C22.4192876,23.0987153 22.3054994,23.3720347 22.0773098,23.6048402 Z" id="Fill-1" fill="#DA272C" mask="url(#mask-8)"></path>
                    <polygon id="Fill-3" fill="#DA272C" mask="url(#mask-8)" points="21 15 22 15 22 12 21 12"></polygon>
                    <polygon id="Fill-4" fill="#DA272C" mask="url(#mask-8)" points="21 11 22 11 22 8 21 8"></polygon>
                    <polygon id="Fill-5" fill="#DA272C" mask="url(#mask-8)" points="23.6243422 11 26 8.62411453 25.3752099 8 23 10.3753262"></polygon>
                    <polygon id="Fill-6" fill="#DA272C" mask="url(#mask-8)" points="20 10.3753029 17.624902 8 17 8.6241378 19.3756578 11"></polygon>
                    <polygon id="Fill-7" fill="#DA272C" mask="url(#mask-8)" points="29 15.7696001 28.2303643 15 26 17.2303999 26.7694972 18"></polygon>
                    <polygon id="Fill-8" fill="#DA272C" mask="url(#mask-8)" points="32 10.7696357 31.2303643 10 29 12.2303643 29.7694972 13"></polygon>
                    <polygon id="Fill-9" fill="#DA272C" mask="url(#mask-8)" points="31 16 35 15.9978506 34.9998668 15 31.0009326 15.0021494"></polygon>
                    <polygon id="Fill-10" fill="#DA272C" mask="url(#mask-8)" points="28.9978508 11.9990674 29 8.00013323 28.0022756 8 28 12"></polygon>
                    <polygon id="Fill-11" fill="#DA272C" mask="url(#mask-8)" points="28 22 31 22 31 21 28 21"></polygon>
                    <polygon id="Fill-12" fill="#DA272C" mask="url(#mask-8)" points="33 22 36 22 36 21 33 21"></polygon>
                    <polygon id="Fill-13" fill="#DA272C" mask="url(#mask-8)" points="33 23.6243189 35.3758855 26 36 25.3751213 33.6246738 23"></polygon>
                    <polygon id="Fill-14" fill="#DA272C" mask="url(#mask-8)" points="33.6246971 20 36 17.6247901 35.3759741 17 33 19.3756578"></polygon>
                    <path d="M16,24.2156078 L18.8498559,24.2156078 L18.8498559,23.2751976 L16,23.2751976 L16,24.2156078 Z M21.1503893,29 L22.1137882,29 L22.1137882,26.2786782 L21.1503893,26.2786782 L21.1503893,29 Z M19.3268347,25.2675192 L16.7251548,27.8061128 L17.4094783,28.4728492 L20.0104224,25.9349726 L19.3268347,25.2675192 Z M20.1661455,24.7820768 C20.6114892,25.2166087 21.1503893,25.4298113 21.7617559,25.4298113 C22.3729998,25.4298113 22.9018454,25.2166087 23.336644,24.7820768 C23.7829685,24.3467083 24,23.8215892 24,23.2147264 C24,22.6077441 23.7829685,22.0822665 23.336644,21.6574147 C22.9018454,21.2219268 22.3729998,21 21.7617559,21 C21.1503893,21 20.6114892,21.2219268 20.1661455,21.6574147 C19.7308565,22.0822665 19.5129667,22.6077441 19.5129667,23.2147264 C19.5129667,23.8215892 19.7308565,24.3467083 20.1661455,24.7820768 Z M20.9226902,22.395139 C21.1503893,22.161859 21.4300779,22.0519114 21.7617559,22.0519114 C22.0827662,22.0519114 22.3627,22.161859 22.5902765,22.395139 C22.8187113,22.6280605 22.9432898,22.9012563 22.9432898,23.2147264 C22.9432898,23.5480348 22.8187113,23.8215892 22.5902765,24.0437549 C22.3627,24.2759594 22.0827662,24.3876996 21.7617559,24.3774219 C21.4300779,24.3876996 21.1503893,24.2759594 20.912513,24.0437549 C20.6945006,23.8215892 20.5807124,23.5480348 20.5696769,23.2147264 C20.5807124,22.9012563 20.6945006,22.6280605 20.9226902,22.395139 Z" id="Fill-15" fill="#DA272C" mask="url(#mask-8)"></path>
                    <polygon id="Fill-16" fill="#DA272C" mask="url(#mask-8)" points="21 33 22 33 22 30 21 30"></polygon>
                    <polygon id="Fill-17" fill="#DA272C" mask="url(#mask-8)" points="21 38 22 38 22 35 21 35"></polygon>
                    <polygon id="Fill-18" fill="#DA272C" mask="url(#mask-8)" points="19.3756578 33 17 35.3758855 17.6247901 36 20 33.6246738"></polygon>
                    <polygon id="Fill-19" fill="#DA272C" mask="url(#mask-8)" points="22 33.6246971 24.375098 36 25 35.3758622 22.6243422 33"></polygon>
                    <polygon id="Fill-20" fill="#DA272C" mask="url(#mask-8)" points="14 30.2303999 14.7696357 31 17 28.7696001 16.2305028 28"></polygon>
                    <polygon id="Fill-21" fill="#DA272C" mask="url(#mask-8)" points="10 32.2303643 10.7696357 33 13 30.7696357 12.2305028 30"></polygon>
                    <polygon id="Fill-22" fill="#DA272C" mask="url(#mask-8)" points="12 29 8 29.0021494 8.00013323 30 11.9990674 29.9978506"></polygon>
                    <polygon id="Fill-23" fill="#DA272C" mask="url(#mask-8)" points="14.0021492 33.0009326 14 36.9998668 14.9977244 37 15 33"></polygon>
                    <polygon id="Fill-24" fill="#DA272C" mask="url(#mask-8)" points="29.2303999 31 30 30.2303643 27.7697387 28 27 28.7696357"></polygon>
                    <polygon id="Fill-25" fill="#DA272C" mask="url(#mask-8)" points="33.2303999 33 34 32.2303643 31.7697387 30 31 30.7694972"></polygon>
                    <polygon id="Fill-26" fill="#DA272C" mask="url(#mask-8)" points="28 33 28.0021494 37 29 36.9998668 28.9978506 33.0009326"></polygon>
                    <polygon id="Fill-27" fill="#DA272C" mask="url(#mask-8)" points="31.0009326 29.9978506 34.9998668 30 35 29.0021494 31 29"></polygon>
                    <polygon id="Fill-28" fill="#DA272C" mask="url(#mask-8)" points="12.7696001 15 12 15.7696357 14.2302613 18 15 17.2303643"></polygon>
                    <polygon id="Fill-29" fill="#DA272C" mask="url(#mask-8)" points="10.7696001 12 10 12.7696357 12.2302613 15 13 14.2305028"></polygon>
                    <polygon id="Fill-30" fill="#DA272C" mask="url(#mask-8)" points="15 14 14.9978506 10 14 10.0001332 14.0021494 13.9990674"></polygon>
                    <polygon id="Fill-31" fill="#DA272C" mask="url(#mask-8)" points="11.9990674 15.0021494 8.00013323 15 8 15.9978506 12 16"></polygon>
                    <polygon id="Fill-32" fill="#DA272C" mask="url(#mask-8)" points="12 24 15 24 15 23 12 23"></polygon>
                    <polygon id="Fill-33" fill="#DA272C" mask="url(#mask-8)" points="8 24 11 24 11 23 8 23"></polygon>
                    <polygon id="Fill-34" fill="#DA272C" mask="url(#mask-8)" points="11 21.3756578 8.62411453 19 8 19.6247901 10.3753262 22"></polygon>
                    <polygon id="Fill-35" fill="#DA272C" mask="url(#mask-8)" points="10.3753029 24 8 26.3752099 8.62402595 27 11 24.6243422"></polygon>
                    <polygon id="Fill-36" fill="#DA272C" mask="url(#mask-8)" points="19 19.3756811 16.6241145 17 16 17.6248787 18.3753262 20"></polygon>
                    <polygon id="Fill-37" fill="#DA272C" mask="url(#mask-8)" points="23 24.6243189 25.3758855 27 26 26.3751213 23.6246738 24"></polygon>
                </g>
            </g>
        </g>
    </g>
</svg>