<?xml version="1.0" encoding="UTF-8"?>
<svg width="48px" height="48px" viewBox="0 0 48 48" version="1.1" xmlns="http://www.w3.org/2000/svg" xmlns:xlink="http://www.w3.org/1999/xlink">
    <!-- Generator: sketchtool 51.2 (57519) - http://www.bohemiancoding.com/sketch -->
    <title>ED56B412-04E9-4412-AF69-2BFF41E1AD7B</title>
    <desc>Created with sketchtool.</desc>
    <defs></defs>
    <g id="FLUJO-" stroke="none" stroke-width="1" fill="none" fill-rule="evenodd">
        <g id="2.2.1.1.-FLUJO-tabla-de-la-mancha-(editable)-(eliminar)-(confirmacion)-" transform="translate(-696.000000, -496.000000)">
            <g id="Group-8" transform="translate(698.000000, 498.000000)">
                <path d="M22.5539163,8.56790123 C21.0432132,8.56790123 19.8641975,9.37853405 19.8641975,10.8156083 C19.8641975,15.2002215 20.3799573,21.5008544 20.3799573,25.8855868 C20.3800764,27.027788 21.3750198,27.5067333 22.5540354,27.5067333 C23.4382971,27.5067333 24.6910608,27.027788 24.6910608,25.8855868 C24.6910608,21.5009735 25.2068206,15.2003407 25.2068206,10.8156083 C25.2068206,9.37865319 23.9909905,8.56790123 22.5539163,8.56790123" id="Fill-4" fill="#DA272C"></path>
                <path d="M22.7014124,29.654321 C21.0802659,29.654321 19.8641975,30.9438991 19.8641975,32.4915358 C19.8641975,34.002239 21.0801467,35.3287507 22.7014124,35.3287507 C24.2121155,35.3287507 25.5018128,34.002239 25.5018128,32.4915358 C25.5018128,30.9438991 24.2119964,29.654321 22.7014124,29.654321" id="Fill-6" fill="#DA272C"></path>
                <circle id="Oval-6" stroke="#DA272C" stroke-width="4" cx="22" cy="22" r="22"></circle>
            </g>
        </g>
    </g>
</svg>