<?xml version="1.0" encoding="UTF-8"?>
<svg width="608px" height="198px" viewBox="0 0 608 198" version="1.1" xmlns="http://www.w3.org/2000/svg" xmlns:xlink="http://www.w3.org/1999/xlink">
    <!-- Generator: sketchtool 51.2 (57519) - http://www.bohemiancoding.com/sketch -->
    <title>95ADBE2F-631B-402B-8030-7CABCC9EEEB8</title>
    <desc>Created with sketchtool.</desc>
    <defs>
        <polygon id="path-1" points="0 0 18.9082095 0 18.9082095 18.9085176 0 18.9085176"></polygon>
        <polygon id="path-3" points="0.49815625 0.46125 2.6018125 0.46125 2.6018125 8.85298026 0.49815625 8.85298026"></polygon>
        <polygon id="path-5" points="0.028678125 0.365921053 8.44371875 0.365921053 8.44371875 2.46375 0.028678125 2.46375"></polygon>
        <polygon id="path-7" points="0.49815625 0.46125 2.6018125 0.46125 2.6018125 8.85298026 0.49815625 8.85298026"></polygon>
        <polygon id="path-9" points="0.028678125 0.365921053 8.44371875 0.365921053 8.44371875 2.46375 0.028678125 2.46375"></polygon>
        <polygon id="path-11" points="0.722326563 0.6688125 3.77262813 0.6688125 3.77262813 12.8368214 0.722326563 12.8368214"></polygon>
        <polygon id="path-13" points="0.0415832813 0.530585526 12.2433922 0.530585526 12.2433922 3.5724375 0.0415832813 3.5724375"></polygon>
    </defs>
    <g id="FLUJO-" stroke="none" stroke-width="1" fill="none" fill-rule="evenodd">
        <g id="2.2.1-tabla-de-la-mancha-(flujo-1)" transform="translate(-420.000000, -181.000000)">
            <g id="Group-19" transform="translate(0.000000, 134.000000)">
                <g id="Group-14" transform="translate(420.000000, 47.000000)">
                    <g id="Group-3" transform="translate(513.000000, 0.000000)">
                        <mask id="mask-2" fill="white">
                            <use xlink:href="#path-1"></use>
                        </mask>
                        <g id="Clip-2"></g>
                        <path d="M-0.782398649,9.17533108 L6.38316892,7.38368243 L8.17481757,0.217601351 C8.24773649,-0.0725337838 8.66060135,-0.0725337838 8.73300676,0.217601351 L10.5246554,7.38368243 L17.6907365,9.17533108 C17.9808716,9.24773649 17.9808716,9.66060135 17.6907365,9.73300676 L10.5246554,11.5246554 L8.73300676,18.6907365 C8.66060135,18.9813851 8.24773649,18.9813851 8.17481757,18.6907365 L6.38316892,11.5246554 L-0.782398649,9.73300676 C-1.07253378,9.66060135 -1.07253378,9.24773649 -0.782398649,9.17533108" id="Fill-1" fill="#FFFFFF" mask="url(#mask-2)"></path>
                    </g>
                    <path d="M24.650813,187.641148 L26.6104217,190.906974 C26.7607696,191.15793 26.7607696,191.470496 26.6104217,191.721452 L24.650813,194.987278 L27.9166391,193.02767 C28.1675957,192.877322 28.4807261,192.877322 28.7311174,193.02767 L31.9969435,194.987278 L30.0373348,191.721452 C29.8875522,191.470496 29.8875522,191.15793 30.0373348,190.906974 L31.9969435,187.641148 L28.7311174,189.600757 C28.4807261,189.751104 28.1675957,189.751104 27.9166391,189.600757 L24.650813,187.641148 Z M33.6196826,197.637017 C33.4348565,197.637017 33.2522913,197.585583 33.0912043,197.48893 L28.3241609,194.62893 L23.5565522,197.48893 C23.0761174,197.777757 22.4085957,197.598583 22.1339,197.11193 C21.9502043,196.787496 21.9558565,196.402017 22.1491609,196.080409 L25.0091609,191.31393 L22.1485957,186.546887 C21.9558565,186.225843 21.9502043,185.8398 22.1339,185.51593 C22.4091609,185.029278 23.074987,184.849539 23.5571174,185.139496 L28.3241609,187.999496 L33.0912043,185.13893 C33.5722043,184.850104 34.2391609,185.029843 34.5138565,185.515365 C34.6975522,185.839235 34.6924652,186.225278 34.4991609,186.546322 L31.6385957,191.31393 L34.4991609,196.081539 C34.6919,196.402017 34.6975522,196.787496 34.5138565,197.11193 C34.3312913,197.4358 33.9887696,197.637017 33.6196826,197.637017 Z" id="Fill-1" fill="#FFFFFF"></path>
                    <g id="Group-11-Copy" transform="translate(0.000000, 4.000000)">
                        <g id="Group-3" transform="translate(7.718750, 0.131092)">
                            <mask id="mask-4" fill="white">
                                <use xlink:href="#path-3"></use>
                            </mask>
                            <g id="Clip-2"></g>
                            <path d="M2.6018125,1.51028289 C2.6018125,0.930611842 2.13096875,0.461072368 1.55028125,0.461072368 C0.969,0.461072368 0.49815625,0.930611842 0.49815625,1.51028289 L0.49815625,7.80436184 C0.49815625,8.38344079 0.969,8.85298026 1.55028125,8.85298026 C2.13096875,8.85298026 2.6018125,8.38344079 2.6018125,7.80436184 L2.6018125,1.51028289 Z" id="Fill-1" fill="#FFFFFF" mask="url(#mask-4)"></path>
                        </g>
                        <path d="M10.3205625,11.7354671 C10.3205625,11.1557961 9.84971875,10.6868487 9.26903125,10.6868487 C8.68775,10.6868487 8.21690625,11.1557961 8.21690625,11.7354671 L8.21690625,18.0295461 C8.21690625,18.608625 8.68775,19.0781645 9.26903125,19.0781645 C9.84971875,19.0781645 10.3205625,18.608625 10.3205625,18.0295461 L10.3205625,11.7354671 Z" id="Fill-4" fill="#FFFFFF"></path>
                        <g id="Group-8" transform="translate(10.093750, 8.420566)">
                            <mask id="mask-6" fill="white">
                                <use xlink:href="#path-5"></use>
                            </mask>
                            <g id="Clip-7"></g>
                            <path d="M7.39177187,0.365921053 L1.08020937,0.365921053 C0.499521875,0.365921053 0.028678125,0.835460526 0.028678125,1.41453947 C0.028678125,1.99421053 0.499521875,2.46375 1.08020937,2.46375 L7.39177187,2.46375 C7.97305312,2.46375 8.44389687,1.99421053 8.44389687,1.41453947 C8.44389687,0.835460526 7.97305312,0.365921053 7.39177187,0.365921053" id="Fill-6" fill="#FFFFFF" mask="url(#mask-6)"></path>
                        </g>
                        <path d="M1.0518875,10.8843158 L7.36345,10.8843158 C7.9441375,10.8843158 8.41498125,10.4147763 8.41498125,9.83569737 C8.41498125,9.25602632 7.9441375,8.78648684 7.36345,8.78648684 L1.0518875,8.78648684 C0.47060625,8.78648684 0.00035625,9.25602632 0.00035625,9.83569737 C0.00035625,10.4147763 0.47060625,10.8843158 1.0518875,10.8843158" id="Fill-9" fill="#FFFFFF"></path>
                    </g>
                    <g id="Group-11-Copy-3" transform="translate(258.000000, 135.000000)">
                        <g id="Group-3" transform="translate(7.718750, 0.131092)">
                            <mask id="mask-8" fill="white">
                                <use xlink:href="#path-7"></use>
                            </mask>
                            <g id="Clip-2"></g>
                            <path d="M2.6018125,1.51028289 C2.6018125,0.930611842 2.13096875,0.461072368 1.55028125,0.461072368 C0.969,0.461072368 0.49815625,0.930611842 0.49815625,1.51028289 L0.49815625,7.80436184 C0.49815625,8.38344079 0.969,8.85298026 1.55028125,8.85298026 C2.13096875,8.85298026 2.6018125,8.38344079 2.6018125,7.80436184 L2.6018125,1.51028289 Z" id="Fill-1" fill="#FFFFFF" mask="url(#mask-8)"></path>
                        </g>
                        <path d="M10.3205625,11.7354671 C10.3205625,11.1557961 9.84971875,10.6868487 9.26903125,10.6868487 C8.68775,10.6868487 8.21690625,11.1557961 8.21690625,11.7354671 L8.21690625,18.0295461 C8.21690625,18.608625 8.68775,19.0781645 9.26903125,19.0781645 C9.84971875,19.0781645 10.3205625,18.608625 10.3205625,18.0295461 L10.3205625,11.7354671 Z" id="Fill-4" fill="#FFFFFF"></path>
                        <g id="Group-8" transform="translate(10.093750, 8.420566)">
                            <mask id="mask-10" fill="white">
                                <use xlink:href="#path-9"></use>
                            </mask>
                            <g id="Clip-7"></g>
                            <path d="M7.39177187,0.365921053 L1.08020937,0.365921053 C0.499521875,0.365921053 0.028678125,0.835460526 0.028678125,1.41453947 C0.028678125,1.99421053 0.499521875,2.46375 1.08020937,2.46375 L7.39177187,2.46375 C7.97305312,2.46375 8.44389687,1.99421053 8.44389687,1.41453947 C8.44389687,0.835460526 7.97305312,0.365921053 7.39177187,0.365921053" id="Fill-6" fill="#FFFFFF" mask="url(#mask-10)"></path>
                        </g>
                        <path d="M1.0518875,10.8843158 L7.36345,10.8843158 C7.9441375,10.8843158 8.41498125,10.4147763 8.41498125,9.83569737 C8.41498125,9.25602632 7.9441375,8.78648684 7.36345,8.78648684 L1.0518875,8.78648684 C0.47060625,8.78648684 0.00035625,9.25602632 0.00035625,9.83569737 C0.00035625,10.4147763 0.47060625,10.8843158 1.0518875,10.8843158" id="Fill-9" fill="#FFFFFF"></path>
                    </g>
                    <g id="Group-11-Copy-2" transform="translate(581.000000, 123.000000)">
                        <g id="Group-3" transform="translate(11.192187, 0.190084)">
                            <mask id="mask-12" fill="white">
                                <use xlink:href="#path-11"></use>
                            </mask>
                            <g id="Clip-2"></g>
                            <path d="M3.77262813,2.1899102 C3.77262813,1.34938717 3.08990469,0.668554934 2.24790781,0.668554934 C1.40505,0.668554934 0.722326563,1.34938717 0.722326563,2.1899102 L0.722326563,11.3163247 C0.722326563,12.1559891 1.40505,12.8368214 2.24790781,12.8368214 C3.08990469,12.8368214 3.77262813,12.1559891 3.77262813,11.3163247 L3.77262813,2.1899102 Z" id="Fill-1" fill="#FFFFFF" mask="url(#mask-12)"></path>
                        </g>
                        <path d="M14.9648156,17.0164273 C14.9648156,16.1759043 14.2820922,15.4959306 13.4400953,15.4959306 C12.5972375,15.4959306 11.9145141,16.1759043 11.9145141,17.0164273 L11.9145141,26.1428418 C11.9145141,26.9825063 12.5972375,27.6633385 13.4400953,27.6633385 C14.2820922,27.6633385 14.9648156,26.9825063 14.9648156,26.1428418 L14.9648156,17.0164273 Z" id="Fill-4" fill="#FFFFFF"></path>
                        <g id="Group-8" transform="translate(14.635938, 12.209820)">
                            <mask id="mask-14" fill="white">
                                <use xlink:href="#path-13"></use>
                            </mask>
                            <g id="Clip-7"></g>
                            <path d="M10.7180692,0.530585526 L1.56630359,0.530585526 C0.724306719,0.530585526 0.0415832813,1.21141776 0.0415832813,2.05108224 C0.0415832813,2.89160526 0.724306719,3.5724375 1.56630359,3.5724375 L10.7180692,3.5724375 C11.560927,3.5724375 12.2436505,2.89160526 12.2436505,2.05108224 C12.2436505,1.21141776 11.560927,0.530585526 10.7180692,0.530585526" id="Fill-6" fill="#FFFFFF" mask="url(#mask-14)"></path>
                        </g>
                        <path d="M1.52523687,15.7822579 L10.6770025,15.7822579 C11.5189994,15.7822579 12.2017228,15.1014257 12.2017228,14.2617612 C12.2017228,13.4212382 11.5189994,12.7404059 10.6770025,12.7404059 L1.52523687,12.7404059 C0.682379062,12.7404059 0.0005165625,13.4212382 0.0005165625,14.2617612 C0.0005165625,15.1014257 0.682379062,15.7822579 1.52523687,15.7822579" id="Fill-9" fill="#FFFFFF"></path>
                    </g>
                </g>
            </g>
        </g>
    </g>
</svg>