<?xml version="1.0" encoding="UTF-8"?>
<svg width="32px" height="32px" viewBox="0 0 32 32" version="1.1" xmlns="http://www.w3.org/2000/svg" xmlns:xlink="http://www.w3.org/1999/xlink">
    <!-- Generator: sketchtool 51.2 (57519) - http://www.bohemiancoding.com/sketch -->
    <title>3748B000-3221-4D30-BF02-8A1AC3B64FC1</title>
    <desc>Created with sketchtool.</desc>
    <defs></defs>
    <g id="FLUJO-" stroke="none" stroke-width="1" fill="none" fill-rule="evenodd">
        <g id="2.2.1.1.-tabla-de-la-mancha-(ditable)" transform="translate(-644.000000, -501.000000)">
            <g id="Group-8-Copy" transform="translate(644.000000, 501.000000)">
                <g id="Group-3" transform="translate(0.000000, 0.025030)" fill="#F5A623">
                    <path d="M18.9876066,31.7106376 C26.3447551,30.2917597 31.919303,23.8053703 31.919303,16.0403538 C31.9194086,7.24014257 24.759963,0.0805914191 15.9597518,0.0805914191 C7.15954059,0.0805914191 -1.05610561e-05,7.24014257 -1.05610561e-05,16.0403538 C-1.05610561e-05,19.6048158 1.17480132,22.8998653 3.15732277,25.5593505 L4.30414785,26.9301756 C7.21878812,30.0477993 11.36527,32.0000106 15.9597518,32.0000106 C16.4340488,32.0000106 16.903171,31.977938 17.3670125,31.9371723 L18.9876066,31.7106376 Z" id="Fill-1"></path>
                </g>
                <path d="M23.3493506,13.564142 C23.2730835,13.3292428 23.0722968,13.1562057 22.8286485,13.1152883 L18.3686565,12.3668454 L16.2786898,8.35650242 C16.16451,8.13742223 15.9380064,8 15.6909115,8 C15.443905,8 15.2173129,8.13742223 15.1031332,8.35650242 L13.0130781,12.3668454 L8.55317445,13.1152883 C8.30952617,13.1561173 8.10882786,13.3291544 8.03247235,13.564142 C7.95611685,13.7991296 8.01674171,14.0570062 8.1898672,14.2333132 L11.3580903,17.4603052 L10.6917471,21.9332883 C10.6553369,22.1776435 10.7578512,22.4219104 10.9577541,22.567198 C11.1574803,22.7123088 11.4216315,22.734314 11.6427443,22.6242879 L15.6909115,20.6082905 L19.7389903,22.6242879 C19.8325788,22.6708612 19.9336791,22.6938385 20.034426,22.6938385 C20.172025,22.6938385 20.3087402,22.6510653 20.4240688,22.5672864 C20.6239718,22.4219988 20.7264861,22.1777319 20.6900758,21.9333766 L20.023821,17.4603936 L23.1920441,14.2333132 C23.3650812,14.0570062 23.4257061,13.7991296 23.3493506,13.564142 Z" id="Fill-4" fill="#FFFFFF"></path>
            </g>
        </g>
    </g>
</svg>