<?xml version="1.0" encoding="UTF-8"?>
<svg width="46px" height="46px" viewBox="0 0 46 46" version="1.1" xmlns="http://www.w3.org/2000/svg" xmlns:xlink="http://www.w3.org/1999/xlink">
    <!-- Generator: sketchtool 51.2 (57519) - http://www.bohemiancoding.com/sketch -->
    <title>1FEA7F55-A654-47DD-9D07-172C893387EB</title>
    <desc>Created with sketchtool.</desc>
    <defs></defs>
    <g id="FLUJO-" stroke="none" stroke-width="1" fill="none" fill-rule="evenodd">
        <g id="2.2.1.1.-FLUJO-tabla-de-la-mancha-(editable)-(Cambio-de-lider)-(si)" transform="translate(-696.000000, -495.000000)" fill="#0E8D79" fill-rule="nonzero">
            <g id="checked" transform="translate(697.000000, 496.000000)">
                <path d="M37.5563203,6.44359375 C33.4010703,2.28834375 27.8764922,0 22,0 C16.1235078,0 10.5989297,2.28834375 6.44376563,6.44359375 C2.28834375,10.5989297 0,16.1235938 0,22 C0,27.8764062 2.28834375,33.4010703 6.44376563,37.5564062 C10.5989297,41.7116563 16.1235078,44 22,44 C27.8764922,44 33.4010703,41.7116563 37.5563203,37.5564062 C41.7116563,33.4010703 44,27.8764062 44,22 C44,16.1235938 41.7116563,10.5989297 37.5563203,6.44359375 Z M22,42.2470469 C10.8357734,42.2470469 1.75295312,33.1643125 1.75295312,22 C1.75295312,10.8356875 10.8357734,1.75295312 22,1.75295312 C33.1642266,1.75295312 42.2470469,10.8357734 42.2470469,22 C42.2470469,33.1642266 33.1642266,42.2470469 22,42.2470469 Z" id="Shape" stroke="#0E8D79"></path>
                <path d="M35.7689554,12.5558984 C34.5728772,11.3598203 32.6266507,11.3598203 31.4305725,12.5558984 L18.5240491,25.4623359 L14.2948069,21.2332656 C13.0987288,20.0371875 11.1525022,20.0371875 9.95642411,21.2332656 C8.76034598,22.4293437 8.76034598,24.3755703 9.95642411,25.5717344 L16.3549007,31.970125 C16.9343772,32.5495156 17.704721,32.8685156 18.5240491,32.8685156 C19.3433772,32.8685156 20.113721,32.5494297 20.6932835,31.9700391 L35.7689554,16.8943672 C36.9649475,15.6982031 36.9649475,13.7518906 35.7689554,12.5558984 Z" id="Shape"></path>
            </g>
        </g>
    </g>
</svg>