<?xml version="1.0" encoding="UTF-8"?>
<svg width="134px" height="41px" viewBox="0 0 134 41" version="1.1" xmlns="http://www.w3.org/2000/svg" xmlns:xlink="http://www.w3.org/1999/xlink">
    <!-- Generator: sketchtool 51.2 (57519) - http://www.bohemiancoding.com/sketch -->
    <title>E8E3D8F2-A05A-4C70-A814-DCC820225CDB</title>
    <desc>Created with sketchtool.</desc>
    <defs></defs>
    <g id="FLUJO-" stroke="none" stroke-width="1" fill="none" fill-rule="evenodd">
        <g id="2.2.1.1.-tabla-de-la-mancha-(ditable)" transform="translate(-1065.000000, -179.000000)">
            <g id="Group-16" transform="translate(1065.000000, 179.000000)">
                <rect id="Rectangle-22" fill="#A1191F" x="0" y="3" width="134" height="38" rx="5"></rect>
                <rect id="Rectangle-22" stroke="#FFFFFF" fill="#FFFFFF" x="0.5" y="0.5" width="133" height="37" rx="5"></rect>
                <g id="Group-5" transform="translate(115.000000, 19.000000) scale(-1, 1) translate(-115.000000, -19.000000) translate(103.000000, 7.000000)" fill="#DA272C">
                    <path d="M20.9753085,0 L10.0676212,0 C8.677434,0 7.55046642,1.12696757 7.55046642,2.51715481 L7.55046642,7.55146444 C7.55046642,8.01487657 7.92612228,8.39053243 8.38953441,8.39053243 C8.85294655,8.39053243 9.22860241,8.01487657 9.22860241,7.55146444 L9.22860241,2.51715481 C9.22860241,2.05374268 9.60425826,1.67808682 10.0676704,1.67808682 L20.9753576,1.67808682 C21.4387698,1.67808682 21.8143765,2.05374268 21.8143765,2.51715481 L21.8143765,20.9763065 C21.8143765,21.4397186 21.4387698,21.8153745 20.9753576,21.8153745 L10.0676212,21.8153745 C9.6042091,21.8153745 9.22855324,21.4397186 9.22855324,20.9763065 L9.22855324,15.9419969 C9.22855324,15.4785847 8.85289738,15.1029289 8.38948525,15.1029289 C7.92607312,15.1029289 7.55041726,15.4785847 7.55041726,15.9419969 L7.55041726,20.9763065 C7.55041726,22.3664937 8.67738483,23.4934613 10.0675721,23.4934613 L20.9752593,23.4934613 C22.3653974,23.4934613 23.4924141,22.3664937 23.4924141,20.9763065 L23.4924141,2.51715481 C23.4924633,1.12696757 22.3654465,0 20.9753085,0" id="Fill-1"></path>
                    <path d="M16.7800177,10.9076971 L2.86354383,10.9076971 L5.6265637,8.1446772 C5.94848421,7.81135084 5.93924153,7.28019184 5.60591517,6.95827134 C5.2807499,6.64426611 4.76527395,6.64426611 4.44015785,6.95827134 L0.24486705,11.153513 C0.16694341,11.2314858 0.105341946,11.3241584 0.063651569,11.4262211 C-0.0212040795,11.6314774 -0.0212040795,11.8620036 0.063651569,12.0672598 C0.105538598,12.1696667 0.167435042,12.2626343 0.245702824,12.3407546 L4.44094446,16.5359962 C4.76286496,16.8693718 5.29402395,16.8786144 5.62735031,16.5566448 C5.96067667,16.2347243 5.96991935,15.7036144 5.64799885,15.3702881 C5.64126349,15.3633069 5.63438065,15.3564241 5.62735031,15.3496395 L2.86354383,12.5857839 L16.7800668,12.5857839 C17.243479,12.5857839 17.6190857,12.210128 17.6190857,11.7467159 C17.6190857,11.2833038 17.2434298,10.9076971 16.7800177,10.9076971" id="Fill-3"></path>
                </g>
            </g>
        </g>
    </g>
</svg>