<?xml version="1.0" encoding="UTF-8"?>
<svg width="14px" height="14px" viewBox="0 0 14 14" version="1.1" xmlns="http://www.w3.org/2000/svg" xmlns:xlink="http://www.w3.org/1999/xlink">
    <!-- Generator: sketchtool 52.4 (67378) - http://www.bohemiancoding.com/sketch -->
    <title>E378E4E9-3F5E-45AA-83AA-E9270562A490</title>
    <desc>Created with sketchtool.</desc>
    <g id="FLUJO-" stroke="none" stroke-width="1" fill="none" fill-rule="evenodd">
        <g id="-CONSULTA-MANCHA-TABLA--Copy" transform="translate(-469.000000, -817.000000)" fill="#F5A623" fill-rule="nonzero">
            <g id="Group-6" transform="translate(468.000000, 775.000000)">
                <g id="Group-4">
                    <g id="clock-copy-4" transform="translate(1.000000, 42.000000)">
                        <path d="M12.9611471,4.11866912 C12.2493971,2.45929412 11.0399118,1.25247794 9.36668382,0.538852941 C8.53038971,0.182183824 7.65423529,0 6.73890441,0 C5.82372794,0 4.95403676,0.180463235 4.11866912,0.538852941 C2.45929412,1.25058088 1.24444853,2.456625 0.531441176,4.11866912 C0.174154412,4.95134559 0,5.82370588 0,6.73888235 C0,7.65423529 0.174154412,8.53383088 0.531441176,9.36668382 C1.24444853,11.0287279 2.45944853,12.2420074 4.11866912,12.9539118 C4.95419118,13.3123015 5.82370588,13.4925882 6.73890441,13.4925882 C7.65410294,13.4925882 8.53038971,13.3104044 9.36655147,12.9539118 C11.0397794,12.2402647 12.2492647,11.0259044 12.9611691,9.36668382 C13.3195368,8.53116176 13.5,7.65423529 13.5,6.73888235 C13.5,5.82370588 13.3196912,4.95416912 12.9611471,4.11866912 Z M11.8836176,9.72099265 C11.3537426,10.6297059 10.6278309,11.3506103 9.71358088,11.8836176 C8.80486765,12.4134926 7.80919853,12.6807132 6.73905882,12.6807132 C5.93457353,12.6807132 5.16692647,12.5257721 4.43611765,12.2083235 C3.70533088,11.8910294 3.07436029,11.4738971 2.54653676,10.9462279 C2.01871324,10.4184044 1.59860294,9.78127941 1.28446324,9.04923529 C0.97125,8.31986029 0.819463235,7.54354412 0.819463235,6.73890441 C0.819463235,5.66861029 1.08242647,4.67799265 1.60932353,3.77179412 C2.13809559,2.86228676 2.86416176,2.14061029 3.77194853,1.60914706 C4.67958088,1.07770588 5.66878676,0.811897059 6.73890441,0.811897059 C7.80919853,0.811897059 8.80469118,1.07927206 9.71342647,1.60914706 C10.6276765,2.14217647 11.3520221,2.86383088 11.8834632,3.77177206 C12.4149044,4.67955882 12.6805588,5.66861029 12.6805588,6.73888235 C12.6805588,7.80919853 12.4166471,8.80656618 11.8836176,9.72099265 Z" id="Shape"></path>
                        <path d="M6.83411029,6.23677206 L6.83411029,2.41333824 C6.83411029,2.18454412 6.63476471,2 6.40594853,2 C6.19195588,2 6,2.18454412 6,2.41333824 L6,6.29580147 C6,6.30321324 6.01480147,6.33281618 6.01480147,6.354875 C6,6.48775735 6.03701471,6.59847059 6.12551471,6.687125 L8.33256618,8.89402206 C8.48025,9.04170588 8.75329412,9.04170588 8.90086765,8.89402206 C9.07058824,8.72427941 9.05942647,8.47799265 8.90086765,8.31830882 L6.83411029,6.23677206 Z" id="Shape"></path>
                    </g>
                </g>
            </g>
        </g>
    </g>
</svg>