<?xml version="1.0" encoding="UTF-8"?>
<svg width="28px" height="28px" viewBox="0 0 28 28" version="1.1" xmlns="http://www.w3.org/2000/svg" xmlns:xlink="http://www.w3.org/1999/xlink">
    <!-- Generator: sketchtool 51.2 (57519) - http://www.bohemiancoding.com/sketch -->
    <title>E5260AA7-5BDE-41B3-B839-5958CB282B4B</title>
    <desc>Created with sketchtool.</desc>
    <defs></defs>
    <g id="FLUJO-" stroke="none" stroke-width="1" fill="none" fill-rule="evenodd">
        <g id="2.2.1-tabla-de-la-mancha-(flujo-1)" transform="translate(-906.000000, -834.000000)" fill-rule="nonzero">
            <g id="like-copy" transform="translate(920.000000, 848.000000) scale(1, -1) translate(-920.000000, -848.000000) translate(906.000000, 834.000000)">
                <path d="M6.29621622,26.6126126 L0.983783784,26.6126126 C0.824864865,26.6126126 0.688648649,26.4763964 0.688648649,26.3174775 L0.688648649,12.3931532 C0.688648649,12.2342342 0.824864865,12.098018 0.983783784,12.098018 L6.29621622,12.098018 C6.45513514,12.098018 6.59135135,12.2342342 6.59135135,12.3931532 L6.59135135,26.3174775 C6.59135135,26.4763964 6.4627027,26.6126126 6.29621622,26.6126126 Z" id="XMLID_595_" fill="#DA272C"></path>
                <path d="M27.8637838,13.6872072 C27.8637838,11.5531532 26.1308108,9.82018018 23.9967568,9.82018018 L17.9881081,9.82018018 L17.9881081,5.48396396 C17.9881081,3.66018018 17.4583784,2.34342342 16.3989189,1.57153153 C14.7340541,0.345585586 12.4410811,1.04936937 12.3502703,1.07963964 C12.0627027,1.17045045 11.8735135,1.43531532 11.8735135,1.73045045 L11.8735135,6.58882883 C11.8735135,10.418018 7.43135135,11.7272072 7.24216216,11.7801802 C7.15135135,11.8028829 7.07567568,11.8482883 7.00756757,11.9012613 C6.77297297,11.6061261 6.40972973,11.4169369 6.00864865,11.4169369 L1.27891892,11.4169369 C0.575135135,11.4169369 0,11.9920721 0,12.6958559 L0,26.0223423 C0,26.7261261 0.575135135,27.3012613 1.27891892,27.3012613 L5.99351351,27.3012613 C6.4627027,27.3012613 6.87891892,27.043964 7.09837838,26.658018 C7.79459459,27.323964 8.73297297,27.7326126 9.76972973,27.7326126 L21.6508108,27.7326126 C24.2767568,27.7326126 25.9491892,26.3553153 26.2443243,23.9563964 L27.8410811,13.7931532 C27.8562162,13.7628829 27.8637838,13.725045 27.8637838,13.6872072 Z M5.91027027,25.923964 L1.3772973,25.923964 L1.3772973,12.7866667 L5.91027027,12.7866667 L5.91027027,25.923964 Z M24.8972973,23.7596396 C24.8972973,23.7672072 24.8972973,23.7747748 24.8972973,23.7823423 C24.6854054,25.4926126 23.5956757,26.3628829 21.6583784,26.3628829 L9.7772973,26.3628829 C8.4,26.3628829 7.28,25.2428829 7.28,23.8655856 L7.28,13.1045045 C7.38594595,13.1272072 7.49945946,13.1272072 7.60540541,13.0969369 C7.83243243,13.0363964 13.2356757,11.4623423 13.2356757,6.58882883 L13.2356757,2.28288288 C13.8259459,2.19207207 14.8475676,2.1390991 15.5816216,2.6763964 C16.2627027,3.17585586 16.6108108,4.1218018 16.6108108,5.48396396 L16.6108108,10.5088288 C16.6108108,10.8872072 16.9210811,11.1974775 17.2994595,11.1974775 L23.9967568,11.1974775 C25.3589189,11.1974775 26.4637838,12.2872072 26.4940541,13.6418018 L24.8972973,23.7596396 Z" id="Shape" fill="#000000"></path>
            </g>
        </g>
    </g>
</svg>