<?xml version="1.0" encoding="UTF-8"?>
<svg width="578px" height="173px" viewBox="0 0 578 173" version="1.1" xmlns="http://www.w3.org/2000/svg" xmlns:xlink="http://www.w3.org/1999/xlink">
    <!-- Generator: sketchtool 51.2 (57519) - http://www.bohemiancoding.com/sketch -->
    <title>0598D6E5-5FA8-47FE-862B-1BB5BA356E63</title>
    <desc>Created with sketchtool.</desc>
    <defs>
        <polygon id="path-1" points="0 0 18.9082095 0 18.9082095 18.9085176 0 18.9085176"></polygon>
        <polygon id="path-3" points="0 5.65217391e-05 12.6478696 5.65217391e-05 12.6478696 12.6370174 0 12.6370174"></polygon>
        <polygon id="path-5" points="0.49815625 0.46125 2.6018125 0.46125 2.6018125 8.85298026 0.49815625 8.85298026"></polygon>
        <polygon id="path-7" points="0.028678125 0.365921053 8.44371875 0.365921053 8.44371875 2.46375 0.028678125 2.46375"></polygon>
        <polygon id="path-9" points="0.49815625 0.46125 2.6018125 0.46125 2.6018125 8.85298026 0.49815625 8.85298026"></polygon>
        <polygon id="path-11" points="0.028678125 0.365921053 8.44371875 0.365921053 8.44371875 2.46375 0.028678125 2.46375"></polygon>
        <polygon id="path-13" points="0.722326563 0.6688125 3.77262813 0.6688125 3.77262813 12.8368214 0.722326563 12.8368214"></polygon>
        <polygon id="path-15" points="0.0415832813 0.530585526 12.2433922 0.530585526 12.2433922 3.5724375 0.0415832813 3.5724375"></polygon>
    </defs>
    <g id="FLUJO-" stroke="none" stroke-width="1" fill="none" fill-rule="evenodd">
        <g id="2.2.1.1.-tabla-de-la-mancha-(ditable)" transform="translate(-416.000000, -189.000000)">
            <g id="Group-27" transform="translate(0.000000, 133.000000)">
                <g id="Group-20" transform="translate(416.000000, 56.000000)">
                    <g id="Group-3" transform="translate(483.000000, 18.000000)">
                        <mask id="mask-2" fill="white">
                            <use xlink:href="#path-1"></use>
                        </mask>
                        <g id="Clip-2"></g>
                        <path d="M-0.782398649,9.17533108 L6.38316892,7.38368243 L8.17481757,0.217601351 C8.24773649,-0.0725337838 8.66060135,-0.0725337838 8.73300676,0.217601351 L10.5246554,7.38368243 L17.6907365,9.17533108 C17.9808716,9.24773649 17.9808716,9.66060135 17.6907365,9.73300676 L10.5246554,11.5246554 L8.73300676,18.6907365 C8.66060135,18.9813851 8.24773649,18.9813851 8.17481757,18.6907365 L6.38316892,11.5246554 L-0.782398649,9.73300676 C-1.07253378,9.66060135 -1.07253378,9.24773649 -0.782398649,9.17533108" id="Fill-1" fill="#FFFFFF" mask="url(#mask-2)"></path>
                    </g>
                    <g id="Group-3">
                        <mask id="mask-4" fill="white">
                            <use xlink:href="#path-3"></use>
                        </mask>
                        <g id="Clip-2"></g>
                        <path d="M2.65081304,2.64114783 L4.61042174,5.90697391 C4.76076957,6.15793043 4.76076957,6.47049565 4.61042174,6.72145217 L2.65081304,9.98727826 L5.91663913,8.02766957 C6.16759565,7.87732174 6.48072609,7.87732174 6.73111739,8.02766957 L9.99694348,9.98727826 L8.03733478,6.72145217 C7.88755217,6.47049565 7.88755217,6.15793043 8.03733478,5.90697391 L9.99694348,2.64114783 L6.73111739,4.60075652 C6.48072609,4.75110435 6.16759565,4.75110435 5.91663913,4.60075652 L2.65081304,2.64114783 Z M11.6196826,12.6370174 C11.4348565,12.6370174 11.2522913,12.5855826 11.0912043,12.4889304 L6.32416087,9.62893043 L1.55655217,12.4889304 C1.07611739,12.7777565 0.408595652,12.5985826 0.1339,12.1119304 C-0.0497956522,11.7874957 -0.0441434783,11.4020174 0.14916087,11.0804087 L3.00916087,6.31393043 L0.148595652,1.54688696 C-0.0441434783,1.22584348 -0.0497956522,0.8398 0.1339,0.515930435 C0.40916087,0.0292782609 1.07498696,-0.15046087 1.55711739,0.139495652 L6.32416087,2.99949565 L11.0912043,0.138930435 C11.5722043,-0.149895652 12.2391609,0.0298434783 12.5138565,0.515365217 C12.6975522,0.839234783 12.6924652,1.22527826 12.4991609,1.54632174 L9.63859565,6.31393043 L12.4991609,11.0815391 C12.6919,11.4020174 12.6975522,11.7874957 12.5138565,12.1119304 C12.3312913,12.4358 11.9887696,12.6370174 11.6196826,12.6370174 Z" id="Fill-1" fill="#FFFFFF" mask="url(#mask-4)"></path>
                    </g>
                    <g id="Group-11-Copy" transform="translate(218.000000, 31.000000)">
                        <g id="Group-3" transform="translate(7.718750, 0.131092)">
                            <mask id="mask-6" fill="white">
                                <use xlink:href="#path-5"></use>
                            </mask>
                            <g id="Clip-2"></g>
                            <path d="M2.6018125,1.51028289 C2.6018125,0.930611842 2.13096875,0.461072368 1.55028125,0.461072368 C0.969,0.461072368 0.49815625,0.930611842 0.49815625,1.51028289 L0.49815625,7.80436184 C0.49815625,8.38344079 0.969,8.85298026 1.55028125,8.85298026 C2.13096875,8.85298026 2.6018125,8.38344079 2.6018125,7.80436184 L2.6018125,1.51028289 Z" id="Fill-1" fill="#FFFFFF" mask="url(#mask-6)"></path>
                        </g>
                        <path d="M10.3205625,11.7354671 C10.3205625,11.1557961 9.84971875,10.6868487 9.26903125,10.6868487 C8.68775,10.6868487 8.21690625,11.1557961 8.21690625,11.7354671 L8.21690625,18.0295461 C8.21690625,18.608625 8.68775,19.0781645 9.26903125,19.0781645 C9.84971875,19.0781645 10.3205625,18.608625 10.3205625,18.0295461 L10.3205625,11.7354671 Z" id="Fill-4" fill="#FFFFFF"></path>
                        <g id="Group-8" transform="translate(10.093750, 8.420566)">
                            <mask id="mask-8" fill="white">
                                <use xlink:href="#path-7"></use>
                            </mask>
                            <g id="Clip-7"></g>
                            <path d="M7.39177187,0.365921053 L1.08020937,0.365921053 C0.499521875,0.365921053 0.028678125,0.835460526 0.028678125,1.41453947 C0.028678125,1.99421053 0.499521875,2.46375 1.08020937,2.46375 L7.39177187,2.46375 C7.97305312,2.46375 8.44389687,1.99421053 8.44389687,1.41453947 C8.44389687,0.835460526 7.97305312,0.365921053 7.39177187,0.365921053" id="Fill-6" fill="#FFFFFF" mask="url(#mask-8)"></path>
                        </g>
                        <path d="M1.0518875,10.8843158 L7.36345,10.8843158 C7.9441375,10.8843158 8.41498125,10.4147763 8.41498125,9.83569737 C8.41498125,9.25602632 7.9441375,8.78648684 7.36345,8.78648684 L1.0518875,8.78648684 C0.47060625,8.78648684 0.00035625,9.25602632 0.00035625,9.83569737 C0.00035625,10.4147763 0.47060625,10.8843158 1.0518875,10.8843158" id="Fill-9" fill="#FFFFFF"></path>
                    </g>
                    <g id="Group-11-Copy-3" transform="translate(79.000000, 153.000000)">
                        <g id="Group-3" transform="translate(7.718750, 0.131092)">
                            <mask id="mask-10" fill="white">
                                <use xlink:href="#path-9"></use>
                            </mask>
                            <g id="Clip-2"></g>
                            <path d="M2.6018125,1.51028289 C2.6018125,0.930611842 2.13096875,0.461072368 1.55028125,0.461072368 C0.969,0.461072368 0.49815625,0.930611842 0.49815625,1.51028289 L0.49815625,7.80436184 C0.49815625,8.38344079 0.969,8.85298026 1.55028125,8.85298026 C2.13096875,8.85298026 2.6018125,8.38344079 2.6018125,7.80436184 L2.6018125,1.51028289 Z" id="Fill-1" fill="#FFFFFF" mask="url(#mask-10)"></path>
                        </g>
                        <path d="M10.3205625,11.7354671 C10.3205625,11.1557961 9.84971875,10.6868487 9.26903125,10.6868487 C8.68775,10.6868487 8.21690625,11.1557961 8.21690625,11.7354671 L8.21690625,18.0295461 C8.21690625,18.608625 8.68775,19.0781645 9.26903125,19.0781645 C9.84971875,19.0781645 10.3205625,18.608625 10.3205625,18.0295461 L10.3205625,11.7354671 Z" id="Fill-4" fill="#FFFFFF"></path>
                        <g id="Group-8" transform="translate(10.093750, 8.420566)">
                            <mask id="mask-12" fill="white">
                                <use xlink:href="#path-11"></use>
                            </mask>
                            <g id="Clip-7"></g>
                            <path d="M7.39177187,0.365921053 L1.08020937,0.365921053 C0.499521875,0.365921053 0.028678125,0.835460526 0.028678125,1.41453947 C0.028678125,1.99421053 0.499521875,2.46375 1.08020937,2.46375 L7.39177187,2.46375 C7.97305312,2.46375 8.44389687,1.99421053 8.44389687,1.41453947 C8.44389687,0.835460526 7.97305312,0.365921053 7.39177187,0.365921053" id="Fill-6" fill="#FFFFFF" mask="url(#mask-12)"></path>
                        </g>
                        <path d="M1.0518875,10.8843158 L7.36345,10.8843158 C7.9441375,10.8843158 8.41498125,10.4147763 8.41498125,9.83569737 C8.41498125,9.25602632 7.9441375,8.78648684 7.36345,8.78648684 L1.0518875,8.78648684 C0.47060625,8.78648684 0.00035625,9.25602632 0.00035625,9.83569737 C0.00035625,10.4147763 0.47060625,10.8843158 1.0518875,10.8843158" id="Fill-9" fill="#FFFFFF"></path>
                    </g>
                    <g id="Group-11-Copy-2" transform="translate(551.000000, 141.000000)">
                        <g id="Group-3" transform="translate(11.192187, 0.190084)">
                            <mask id="mask-14" fill="white">
                                <use xlink:href="#path-13"></use>
                            </mask>
                            <g id="Clip-2"></g>
                            <path d="M3.77262813,2.1899102 C3.77262813,1.34938717 3.08990469,0.668554934 2.24790781,0.668554934 C1.40505,0.668554934 0.722326563,1.34938717 0.722326563,2.1899102 L0.722326563,11.3163247 C0.722326563,12.1559891 1.40505,12.8368214 2.24790781,12.8368214 C3.08990469,12.8368214 3.77262813,12.1559891 3.77262813,11.3163247 L3.77262813,2.1899102 Z" id="Fill-1" fill="#FFFFFF" mask="url(#mask-14)"></path>
                        </g>
                        <path d="M14.9648156,17.0164273 C14.9648156,16.1759043 14.2820922,15.4959306 13.4400953,15.4959306 C12.5972375,15.4959306 11.9145141,16.1759043 11.9145141,17.0164273 L11.9145141,26.1428418 C11.9145141,26.9825063 12.5972375,27.6633385 13.4400953,27.6633385 C14.2820922,27.6633385 14.9648156,26.9825063 14.9648156,26.1428418 L14.9648156,17.0164273 Z" id="Fill-4" fill="#FFFFFF"></path>
                        <g id="Group-8" transform="translate(14.635938, 12.209820)">
                            <mask id="mask-16" fill="white">
                                <use xlink:href="#path-15"></use>
                            </mask>
                            <g id="Clip-7"></g>
                            <path d="M10.7180692,0.530585526 L1.56630359,0.530585526 C0.724306719,0.530585526 0.0415832813,1.21141776 0.0415832813,2.05108224 C0.0415832813,2.89160526 0.724306719,3.5724375 1.56630359,3.5724375 L10.7180692,3.5724375 C11.560927,3.5724375 12.2436505,2.89160526 12.2436505,2.05108224 C12.2436505,1.21141776 11.560927,0.530585526 10.7180692,0.530585526" id="Fill-6" fill="#FFFFFF" mask="url(#mask-16)"></path>
                        </g>
                        <path d="M1.52523687,15.7822579 L10.6770025,15.7822579 C11.5189994,15.7822579 12.2017228,15.1014257 12.2017228,14.2617612 C12.2017228,13.4212382 11.5189994,12.7404059 10.6770025,12.7404059 L1.52523687,12.7404059 C0.682379062,12.7404059 0.0005165625,13.4212382 0.0005165625,14.2617612 C0.0005165625,15.1014257 0.682379062,15.7822579 1.52523687,15.7822579" id="Fill-9" fill="#FFFFFF"></path>
                    </g>
                </g>
            </g>
        </g>
    </g>
</svg>