<?xml version="1.0" encoding="UTF-8"?>
<svg width="704px" height="180px" viewBox="0 0 704 180" version="1.1" xmlns="http://www.w3.org/2000/svg" xmlns:xlink="http://www.w3.org/1999/xlink">
    <!-- Generator: sketchtool 51.2 (57519) - http://www.bohemiancoding.com/sketch -->
    <title>8AFE1672-FD6C-4995-88C6-E701D18F3D51</title>
    <desc>Created with sketchtool.</desc>
    <defs>
        <polygon id="path-1" points="0 0 62 0 62 65 0 65"></polygon>
        <polygon id="path-3" points="0 0 39 0 39 41 0 41"></polygon>
        <polygon id="path-5" points="0.49815625 0.46125 2.6018125 0.46125 2.6018125 8.85298026 0.49815625 8.85298026"></polygon>
        <polygon id="path-7" points="0.028678125 0.365921053 8.44371875 0.365921053 8.44371875 2.46375 0.028678125 2.46375"></polygon>
        <polygon id="path-9" points="0.49815625 0.46125 2.6018125 0.46125 2.6018125 8.85298026 0.49815625 8.85298026"></polygon>
        <polygon id="path-11" points="0.028678125 0.365921053 8.44371875 0.365921053 8.44371875 2.46375 0.028678125 2.46375"></polygon>
        <polygon id="path-13" points="0 0 18.9082095 0 18.9082095 18.9085176 0 18.9085176"></polygon>
        <polygon id="path-15" points="0 5.65217391e-05 12.6478696 5.65217391e-05 12.6478696 12.6370174 0 12.6370174"></polygon>
    </defs>
    <g id="FLUJO-" stroke="none" stroke-width="1" fill="none" fill-rule="evenodd">
        <g id="2.2.1.2.1.1--confirmacion-cambio-de-codigo" transform="translate(-363.000000, -130.000000)">
            <g id="Group-6" transform="translate(363.000000, 130.000000)">
                <g id="Group-38-Copy-8" opacity="0.7" transform="translate(652.000000, 13.000000)">
                    <mask id="mask-2" fill="white">
                        <use xlink:href="#path-1"></use>
                    </mask>
                    <g id="Clip-2"></g>
                    <path d="M34.7252161,32.5873319 L39,32.5873319 L39,31.1768748 L34.7252161,31.1768748 L34.7252161,32.5873319 Z M29.8293176,28.0820436 L31.274416,28.0820436 L31.274416,24 L29.8293176,24 L29.8293176,28.0820436 Z M34.009748,29.5988049 L37.9122678,25.7908575 L36.8857826,24.7905587 L32.9841825,28.5976098 L34.009748,29.5988049 Z M32.7507817,30.3269794 C32.0827662,29.6749925 31.274416,29.355363 30.3573662,29.355363 C29.4405003,29.355363 28.647048,29.6749925 27.995034,30.3269794 C27.3255472,30.9800418 27,31.767553 27,32.67804 C27,33.588527 27.3255472,34.3767553 27.995034,35.0140424 C28.647048,35.6672841 29.4405003,36 30.3573662,36 C31.274416,36 32.0827662,35.6672841 32.7507817,35.0140424 C33.4037153,34.3767553 33.7305499,33.588527 33.7305499,32.67804 C33.7305499,31.767553 33.4037153,30.9800418 32.7507817,30.3269794 Z M31.6159647,33.9072602 C31.274416,34.2571855 30.8548832,34.4221094 30.3573662,34.4221094 C29.8758507,34.4221094 29.45595,34.2571855 29.1144013,33.9072602 C28.7719331,33.558052 28.5848814,33.1480729 28.5848814,32.67804 C28.5848814,32.1780699 28.7719331,31.767553 29.1144013,31.4342994 C29.45595,31.0861667 29.8758507,30.9183747 30.3573662,30.9337915 C30.8548832,30.9183747 31.274416,31.0861667 31.6310465,31.4342994 C31.958249,31.767553 32.1289314,32.1780699 32.1454846,32.67804 C32.1289314,33.1480729 31.958249,33.558052 31.6159647,33.9072602 Z" id="Fill-1" fill="#DA272C" mask="url(#mask-2)"></path>
                    <polygon id="Fill-3" fill="#DA272C" mask="url(#mask-2)" points="30 22 32 22 32 17 30 17"></polygon>
                    <polygon id="Fill-4" fill="#DA272C" mask="url(#mask-2)" points="30 17 32 17 32 12 30 12"></polygon>
                    <polygon id="Fill-5" fill="#DA272C" mask="url(#mask-2)" points="34.0405703 17 38 13.0401909 36.9586832 12 33 15.958877"></polygon>
                    <polygon id="Fill-6" fill="#DA272C" mask="url(#mask-2)" points="29 15.9588382 25.0415034 12 24 13.0402297 27.9594297 17"></polygon>
                    <polygon id="Fill-7" fill="#DA272C" mask="url(#mask-2)" points="43 22.2826669 41.7172739 21 38 24.7173331 39.2824953 26"></polygon>
                    <polygon id="Fill-8" fill="#DA272C" mask="url(#mask-2)" points="47 16.2827261 45.7172739 15 42 18.7172739 43.2824953 20"></polygon>
                    <polygon id="Fill-9" fill="#DA272C" mask="url(#mask-2)" points="44 23 50 22.9957011 49.9998002 21 44.0013989 21.0042989"></polygon>
                    <polygon id="Fill-10" fill="#DA272C" mask="url(#mask-2)" points="42.9957016 17.9986011 43 12.0001998 41.0045512 12 41 18"></polygon>
                    <polygon id="Fill-11" fill="#DA272C" mask="url(#mask-2)" points="41 32 46 32 46 30 41 30"></polygon>
                    <polygon id="Fill-12" fill="#DA272C" mask="url(#mask-2)" points="47 32 52 32 52 30 47 30"></polygon>
                    <polygon id="Fill-13" fill="#DA272C" mask="url(#mask-2)" points="47 34.0405315 50.9598091 38 52 36.9585355 48.041123 33"></polygon>
                    <polygon id="Fill-14" fill="#DA272C" mask="url(#mask-2)" points="48.0411618 29 52 25.0413168 50.9599568 24 47 27.9594297"></polygon>
                    <path d="M23,34.8234117 L27.2747839,34.8234117 L27.2747839,33.4127963 L23,33.4127963 L23,34.8234117 Z M30.725584,42 L32.1706824,42 L32.1706824,37.9180174 L30.725584,37.9180174 L30.725584,42 Z M27.990252,36.4012787 L24.0877322,40.2091693 L25.1142174,41.2092738 L29.0156336,37.4024589 L27.990252,36.4012787 Z M29.2492183,35.6731151 C29.9172338,36.324913 30.725584,36.644717 31.6426338,36.644717 C32.5594997,36.644717 33.3527681,36.324913 34.004966,35.6731151 C34.6744528,35.0200624 35,34.2323837 35,33.3220896 C35,32.4116162 34.6744528,31.6233997 34.004966,30.9861221 C33.3527681,30.3328902 32.5594997,30 31.6426338,30 C30.725584,30 29.9172338,30.3328902 29.2492183,30.9861221 C28.5962847,31.6233997 28.2694501,32.4116162 28.2694501,33.3220896 C28.2694501,34.2323837 28.5962847,35.0200624 29.2492183,35.6731151 Z M30.3840353,32.0927085 C30.725584,31.7427884 31.1451168,31.5778671 31.6426338,31.5778671 C32.1241493,31.5778671 32.54405,31.7427884 32.8854148,32.0927085 C33.2280669,32.4420908 33.4149347,32.8518845 33.4149347,33.3220896 C33.4149347,33.8220523 33.2280669,34.2323837 32.8854148,34.5656324 C32.54405,34.9139391 32.1241493,35.0815494 31.6426338,35.0661329 C31.1451168,35.0815494 30.725584,34.9139391 30.3687695,34.5656324 C30.041751,34.2323837 29.8710686,33.8220523 29.8545154,33.3220896 C29.8710686,32.8518845 30.041751,32.4420908 30.3840353,32.0927085 Z" id="Fill-15" fill="#DA272C" mask="url(#mask-2)"></path>
                    <polygon id="Fill-16" fill="#DA272C" mask="url(#mask-2)" points="30 49 32 49 32 44 30 44"></polygon>
                    <polygon id="Fill-17" fill="#DA272C" mask="url(#mask-2)" points="30 55 32 55 32 50 30 50"></polygon>
                    <polygon id="Fill-18" fill="#DA272C" mask="url(#mask-2)" points="27.9594297 48 24 51.9598091 25.0413168 53 29 49.041123"></polygon>
                    <polygon id="Fill-19" fill="#DA272C" mask="url(#mask-2)" points="32 49.0411618 35.9584966 53 37 51.9597703 33.0405703 48"></polygon>
                    <polygon id="Fill-20" fill="#DA272C" mask="url(#mask-2)" points="20 44.7173331 21.2827261 46 25 42.2826669 23.7175047 41"></polygon>
                    <polygon id="Fill-21" fill="#DA272C" mask="url(#mask-2)" points="15 47.7172739 16.2827261 49 20 45.2827261 18.7175047 44"></polygon>
                    <polygon id="Fill-22" fill="#DA272C" mask="url(#mask-2)" points="18 42 12 42.0042989 12.0001998 44 17.9986011 43.9957011"></polygon>
                    <polygon id="Fill-23" fill="#DA272C" mask="url(#mask-2)" points="20.0042984 47.0013989 20 52.9998002 21.9954488 53 22 47"></polygon>
                    <polygon id="Fill-24" fill="#DA272C" mask="url(#mask-2)" points="42.7173331 46 44 44.7172739 40.2828978 41 39 42.2827261"></polygon>
                    <polygon id="Fill-25" fill="#DA272C" mask="url(#mask-2)" points="47.7173331 49 49 47.7172739 45.2828978 44 44 45.2824953"></polygon>
                    <polygon id="Fill-26" fill="#DA272C" mask="url(#mask-2)" points="41 47 41.0042989 53 43 52.9998002 42.9957011 47.0013989"></polygon>
                    <polygon id="Fill-27" fill="#DA272C" mask="url(#mask-2)" points="45.0013989 43.9957011 50.9998002 44 51 42.0042989 45 42"></polygon>
                    <polygon id="Fill-28" fill="#DA272C" mask="url(#mask-2)" points="19.2826669 21 18 22.2827261 21.7171022 26 23 24.7172739"></polygon>
                    <polygon id="Fill-29" fill="#DA272C" mask="url(#mask-2)" points="16.2826669 17 15 18.2827261 18.7171022 22 20 20.7175047"></polygon>
                    <polygon id="Fill-30" fill="#DA272C" mask="url(#mask-2)" points="22 20 21.9957011 14 20 14.0001998 20.0042989 19.9986011"></polygon>
                    <polygon id="Fill-31" fill="#DA272C" mask="url(#mask-2)" points="16.9986011 21.0042989 11.0001998 21 11 22.9957011 17 23"></polygon>
                    <polygon id="Fill-32" fill="#DA272C" mask="url(#mask-2)" points="17 35 22 35 22 33 17 33"></polygon>
                    <polygon id="Fill-33" fill="#DA272C" mask="url(#mask-2)" points="11 35 16 35 16 33 11 33"></polygon>
                    <polygon id="Fill-34" fill="#DA272C" mask="url(#mask-2)" points="16 30.9594297 12.0401909 27 11 28.0413168 14.958877 32"></polygon>
                    <polygon id="Fill-35" fill="#DA272C" mask="url(#mask-2)" points="14.9588382 35 11 38.9586832 12.0400432 40 16 36.0405703"></polygon>
                    <polygon id="Fill-36" fill="#DA272C" mask="url(#mask-2)" points="28 27.9594685 24.0401909 24 23 25.0414645 26.958877 29"></polygon>
                    <polygon id="Fill-37" fill="#DA272C" mask="url(#mask-2)" points="33 36.0405315 36.9598091 40 38 38.9585355 34.041123 35"></polygon>
                </g>
                <g id="Group-38-Copy-9" opacity="0.7" transform="translate(261.000000, 15.000000)">
                    <mask id="mask-4" fill="white">
                        <use xlink:href="#path-3"></use>
                    </mask>
                    <g id="Clip-2"></g>
                    <path d="M21.8432811,20.5550863 L24.5322581,20.5550863 L24.5322581,19.6654133 L21.8432811,19.6654133 L21.8432811,20.5550863 Z M18.763603,17.7132891 L19.6726165,17.7132891 L19.6726165,15.1384615 L18.763603,15.1384615 L18.763603,17.7132891 Z M21.3932286,18.6700154 L23.8480394,16.2680793 L23.2023471,15.6371216 L20.7481148,18.0384923 L21.3932286,18.6700154 Z M20.6012982,19.1293255 C20.1810949,18.7180722 19.6726165,18.5164597 19.0957626,18.5164597 C18.5190244,18.5164597 18.0199173,18.7180722 17.6097795,19.1293255 C17.1886506,19.5412572 16.983871,20.037995 16.983871,20.6123022 C16.983871,21.1866094 17.1886506,21.6837995 17.6097795,22.0857806 C18.0199173,22.4978254 18.5190244,22.7076923 19.0957626,22.7076923 C19.6726165,22.7076923 20.1810949,22.4978254 20.6012982,22.0857806 C21.0120145,21.6837995 21.217604,21.1866094 21.217604,20.6123022 C21.217604,20.037995 21.0120145,19.5412572 20.6012982,19.1293255 Z M19.8874617,21.3876565 C19.6726165,21.6083786 19.4087169,21.7124074 19.0957626,21.7124074 C18.7928738,21.7124074 18.5287427,21.6083786 18.3138976,21.3876565 C18.098474,21.1673866 17.9808125,20.9087844 17.9808125,20.6123022 C17.9808125,20.2969364 18.098474,20.037995 18.3138976,19.8277888 C18.5287427,19.6081975 18.7928738,19.5023594 19.0957626,19.5120838 C19.4087169,19.5023594 19.6726165,19.6081975 19.8969486,19.8277888 C20.1027696,20.037995 20.2101343,20.2969364 20.2205468,20.6123022 C20.2101343,20.9087844 20.1027696,21.1673866 19.8874617,21.3876565 Z" id="Fill-1" fill="#DA272C" mask="url(#mask-4)"></path>
                    <polygon id="Fill-3" fill="#DA272C" mask="url(#mask-4)" points="18.8709677 13.8769231 20.1290323 13.8769231 20.1290323 10.7230769 18.8709677 10.7230769"></polygon>
                    <polygon id="Fill-4" fill="#DA272C" mask="url(#mask-4)" points="18.8709677 10.7230769 20.1290323 10.7230769 20.1290323 7.56923077 18.8709677 7.56923077"></polygon>
                    <polygon id="Fill-5" fill="#DA272C" mask="url(#mask-4)" points="21.4126168 10.7230769 23.9032258 8.22535118 23.248204 7.56923077 20.7580645 10.0663686"></polygon>
                    <polygon id="Fill-6" fill="#DA272C" mask="url(#mask-4)" points="18.2419355 10.0663441 15.7519134 7.56923077 15.0967742 8.22537564 17.5873832 10.7230769"></polygon>
                    <polygon id="Fill-7" fill="#DA272C" mask="url(#mask-4)" points="27.0483871 14.0552207 26.241511 13.2461538 23.9032258 15.5909332 24.7099567 16.4"></polygon>
                    <polygon id="Fill-8" fill="#DA272C" mask="url(#mask-4)" points="29.5645161 10.2706426 28.75764 9.46153846 26.4193548 11.8062804 27.2260857 12.6153846"></polygon>
                    <polygon id="Fill-9" fill="#DA272C" mask="url(#mask-4)" points="27.6774194 14.5076923 31.4516129 14.5049807 31.4514872 13.2461538 27.6782993 13.2488655"></polygon>
                    <polygon id="Fill-10" fill="#DA272C" mask="url(#mask-4)" points="27.0456833 11.3529638 27.0483871 7.56935682 25.7931854 7.56923077 25.7903226 11.3538462"></polygon>
                    <polygon id="Fill-11" fill="#DA272C" mask="url(#mask-4)" points="25.7903226 20.1846154 28.9354839 20.1846154 28.9354839 18.9230769 25.7903226 18.9230769"></polygon>
                    <polygon id="Fill-12" fill="#DA272C" mask="url(#mask-4)" points="29.5645161 20.1846154 32.7096774 20.1846154 32.7096774 18.9230769 29.5645161 18.9230769"></polygon>
                    <polygon id="Fill-13" fill="#DA272C" mask="url(#mask-4)" points="29.5645161 21.4717198 32.0553638 23.9692308 32.7096774 23.312307 30.2194161 20.8153846"></polygon>
                    <polygon id="Fill-14" fill="#DA272C" mask="url(#mask-4)" points="30.2194405 18.2923077 32.7096774 15.7952921 32.0554567 15.1384615 29.5645161 17.635948"></polygon>
                    <path d="M14.4677419,21.9655366 L17.1567189,21.9655366 L17.1567189,21.0757638 L14.4677419,21.0757638 L14.4677419,21.9655366 Z M19.3273835,26.4923077 L20.236397,26.4923077 L20.236397,23.9175186 L19.3273835,23.9175186 L19.3273835,26.4923077 Z M17.6067714,22.9608066 L15.1519606,25.3627068 L15.7976529,25.993542 L18.2517695,23.5923202 L17.6067714,22.9608066 Z M18.3987018,22.5015034 C18.8189051,22.9126374 19.3273835,23.1143599 19.9042374,23.1143599 C20.4809756,23.1143599 20.979967,22.9126374 21.3902205,22.5015034 C21.8113494,22.0895778 22.016129,21.5927344 22.016129,21.0185488 C22.016129,20.4442502 21.8113494,19.9470675 21.3902205,19.5450924 C20.979967,19.1330538 20.4809756,18.9230769 19.9042374,18.9230769 C19.3273835,18.9230769 18.8189051,19.1330538 18.3987018,19.5450924 C17.9879855,19.9470675 17.782396,20.4442502 17.782396,21.0185488 C17.782396,21.5927344 17.9879855,22.0895778 18.3987018,22.5015034 Z M19.1125383,20.2430931 C19.3273835,20.0223742 19.5912831,19.9183469 19.9042374,19.9183469 C20.2071262,19.9183469 20.4712573,20.0223742 20.6859867,20.2430931 C20.901526,20.4634727 21.0190718,20.7219579 21.0190718,21.0185488 C21.0190718,21.3339099 20.901526,21.5927344 20.6859867,21.8029374 C20.4712573,22.0226385 20.2071262,22.1283619 19.9042374,22.1186377 C19.5912831,22.1283619 19.3273835,22.0226385 19.1029357,21.8029374 C18.8972304,21.5927344 18.7898657,21.3339099 18.7794532,21.0185488 C18.7898657,20.7219579 18.8972304,20.4634727 19.1125383,20.2430931 Z" id="Fill-15" fill="#DA272C" mask="url(#mask-4)"></path>
                    <polygon id="Fill-16" fill="#DA272C" mask="url(#mask-4)" points="18.8709677 30.9076923 20.1290323 30.9076923 20.1290323 27.7538462 18.8709677 27.7538462"></polygon>
                    <polygon id="Fill-17" fill="#DA272C" mask="url(#mask-4)" points="18.8709677 34.6923077 20.1290323 34.6923077 20.1290323 31.5384615 18.8709677 31.5384615"></polygon>
                    <polygon id="Fill-18" fill="#DA272C" mask="url(#mask-4)" points="17.5873832 30.2769231 15.0967742 32.7746488 15.751796 33.4307692 18.2419355 30.9336314"></polygon>
                    <polygon id="Fill-19" fill="#DA272C" mask="url(#mask-4)" points="20.1290323 30.9336559 22.6190543 33.4307692 23.2741935 32.7746244 20.7835845 30.2769231"></polygon>
                    <polygon id="Fill-20" fill="#DA272C" mask="url(#mask-4)" points="12.5806452 28.2063178 13.3875213 29.0153846 15.7258065 26.6706053 14.9190756 25.8615385"></polygon>
                    <polygon id="Fill-21" fill="#DA272C" mask="url(#mask-4)" points="9.43548387 30.0985881 10.24236 30.9076923 12.5806452 28.5629503 11.7739143 27.7538462"></polygon>
                    <polygon id="Fill-22" fill="#DA272C" mask="url(#mask-4)" points="11.3225806 26.4923077 7.5483871 26.4950193 7.54851281 27.7538462 11.3217007 27.7511345"></polygon>
                    <polygon id="Fill-23" fill="#DA272C" mask="url(#mask-4)" points="12.583349 29.6470362 12.5806452 33.4306432 13.8358468 33.4307692 13.8387097 29.6461538"></polygon>
                    <polygon id="Fill-24" fill="#DA272C" mask="url(#mask-4)" points="26.8705805 29.0153846 27.6774194 28.2062804 25.3392421 25.8615385 24.5322581 26.6706426"></polygon>
                    <polygon id="Fill-25" fill="#DA272C" mask="url(#mask-4)" points="30.0157418 30.9076923 30.8225806 30.0985881 28.4844034 27.7538462 27.6774194 28.5628047"></polygon>
                    <polygon id="Fill-26" fill="#DA272C" mask="url(#mask-4)" points="25.7903226 29.6461538 25.7930267 33.4307692 27.0483871 33.4306432 27.045683 29.6470362"></polygon>
                    <polygon id="Fill-27" fill="#DA272C" mask="url(#mask-4)" points="28.3073316 27.7511345 32.0805195 27.7538462 32.0806452 26.4950193 28.3064516 26.4923077"></polygon>
                    <polygon id="Fill-28" fill="#DA272C" mask="url(#mask-4)" points="12.1294195 13.2461538 11.3225806 14.055258 13.6607579 16.4 14.4677419 15.5908958"></polygon>
                    <polygon id="Fill-29" fill="#DA272C" mask="url(#mask-4)" points="10.2423227 10.7230769 9.43548387 11.5321811 11.7736611 13.8769231 12.5806452 13.0679645"></polygon>
                    <polygon id="Fill-30" fill="#DA272C" mask="url(#mask-4)" points="13.8387097 12.6153846 13.8360055 8.83076923 12.5806452 8.83089529 12.5833493 12.6145022"></polygon>
                    <polygon id="Fill-31" fill="#DA272C" mask="url(#mask-4)" points="10.6926684 13.2488655 6.91948054 13.2461538 6.91935484 14.5049807 10.6935484 14.5076923"></polygon>
                    <polygon id="Fill-32" fill="#DA272C" mask="url(#mask-4)" points="10.6935484 22.0769231 13.8387097 22.0769231 13.8387097 20.8153846 10.6935484 20.8153846"></polygon>
                    <polygon id="Fill-33" fill="#DA272C" mask="url(#mask-4)" points="6.91935484 22.0769231 10.0645161 22.0769231 10.0645161 20.8153846 6.91935484 20.8153846"></polygon>
                    <polygon id="Fill-34" fill="#DA272C" mask="url(#mask-4)" points="10.0645161 19.5282557 7.57366846 17.0307692 6.91935484 17.6875998 9.4096162 20.1846154"></polygon>
                    <polygon id="Fill-35" fill="#DA272C" mask="url(#mask-4)" points="9.40959179 22.0769231 6.91935484 24.5739387 7.57357559 25.2307692 10.0645161 22.7332828"></polygon>
                    <polygon id="Fill-36" fill="#DA272C" mask="url(#mask-4)" points="17.6129032 17.6359725 15.1220556 15.1384615 14.4677419 15.7953853 16.9580033 18.2923077"></polygon>
                    <polygon id="Fill-37" fill="#DA272C" mask="url(#mask-4)" points="20.7580645 22.7332583 23.2489122 25.2307692 23.9032258 24.5738455 21.4129644 22.0769231"></polygon>
                </g>
                <g id="Group-11-Copy" transform="translate(132.000000, 0.000000)">
                    <g id="Group-3" transform="translate(7.718750, 0.131092)">
                        <mask id="mask-6" fill="white">
                            <use xlink:href="#path-5"></use>
                        </mask>
                        <g id="Clip-2"></g>
                        <path d="M2.6018125,1.51028289 C2.6018125,0.930611842 2.13096875,0.461072368 1.55028125,0.461072368 C0.969,0.461072368 0.49815625,0.930611842 0.49815625,1.51028289 L0.49815625,7.80436184 C0.49815625,8.38344079 0.969,8.85298026 1.55028125,8.85298026 C2.13096875,8.85298026 2.6018125,8.38344079 2.6018125,7.80436184 L2.6018125,1.51028289 Z" id="Fill-1" fill="#DA272C" mask="url(#mask-6)"></path>
                    </g>
                    <path d="M10.3205625,11.7354671 C10.3205625,11.1557961 9.84971875,10.6868487 9.26903125,10.6868487 C8.68775,10.6868487 8.21690625,11.1557961 8.21690625,11.7354671 L8.21690625,18.0295461 C8.21690625,18.608625 8.68775,19.0781645 9.26903125,19.0781645 C9.84971875,19.0781645 10.3205625,18.608625 10.3205625,18.0295461 L10.3205625,11.7354671 Z" id="Fill-4" fill="#DA272C"></path>
                    <g id="Group-8" transform="translate(10.093750, 8.420566)">
                        <mask id="mask-8" fill="white">
                            <use xlink:href="#path-7"></use>
                        </mask>
                        <g id="Clip-7"></g>
                        <path d="M7.39177187,0.365921053 L1.08020937,0.365921053 C0.499521875,0.365921053 0.028678125,0.835460526 0.028678125,1.41453947 C0.028678125,1.99421053 0.499521875,2.46375 1.08020937,2.46375 L7.39177187,2.46375 C7.97305312,2.46375 8.44389687,1.99421053 8.44389687,1.41453947 C8.44389687,0.835460526 7.97305312,0.365921053 7.39177187,0.365921053" id="Fill-6" fill="#DA272C" mask="url(#mask-8)"></path>
                    </g>
                    <path d="M1.0518875,10.8843158 L7.36345,10.8843158 C7.9441375,10.8843158 8.41498125,10.4147763 8.41498125,9.83569737 C8.41498125,9.25602632 7.9441375,8.78648684 7.36345,8.78648684 L1.0518875,8.78648684 C0.47060625,8.78648684 0.00035625,9.25602632 0.00035625,9.83569737 C0.00035625,10.4147763 0.47060625,10.8843158 1.0518875,10.8843158" id="Fill-9" fill="#DA272C"></path>
                </g>
                <g id="Group-11-Copy" transform="translate(424.000000, 24.000000)">
                    <g id="Group-3" transform="translate(7.718750, 0.131092)">
                        <mask id="mask-10" fill="white">
                            <use xlink:href="#path-9"></use>
                        </mask>
                        <g id="Clip-2"></g>
                        <path d="M2.6018125,1.51028289 C2.6018125,0.930611842 2.13096875,0.461072368 1.55028125,0.461072368 C0.969,0.461072368 0.49815625,0.930611842 0.49815625,1.51028289 L0.49815625,7.80436184 C0.49815625,8.38344079 0.969,8.85298026 1.55028125,8.85298026 C2.13096875,8.85298026 2.6018125,8.38344079 2.6018125,7.80436184 L2.6018125,1.51028289 Z" id="Fill-1" fill="#DA272C" mask="url(#mask-10)"></path>
                    </g>
                    <path d="M10.3205625,11.7354671 C10.3205625,11.1557961 9.84971875,10.6868487 9.26903125,10.6868487 C8.68775,10.6868487 8.21690625,11.1557961 8.21690625,11.7354671 L8.21690625,18.0295461 C8.21690625,18.608625 8.68775,19.0781645 9.26903125,19.0781645 C9.84971875,19.0781645 10.3205625,18.608625 10.3205625,18.0295461 L10.3205625,11.7354671 Z" id="Fill-4" fill="#DA272C"></path>
                    <g id="Group-8" transform="translate(10.093750, 8.420566)">
                        <mask id="mask-12" fill="white">
                            <use xlink:href="#path-11"></use>
                        </mask>
                        <g id="Clip-7"></g>
                        <path d="M7.39177187,0.365921053 L1.08020937,0.365921053 C0.499521875,0.365921053 0.028678125,0.835460526 0.028678125,1.41453947 C0.028678125,1.99421053 0.499521875,2.46375 1.08020937,2.46375 L7.39177187,2.46375 C7.97305312,2.46375 8.44389687,1.99421053 8.44389687,1.41453947 C8.44389687,0.835460526 7.97305312,0.365921053 7.39177187,0.365921053" id="Fill-6" fill="#DA272C" mask="url(#mask-12)"></path>
                    </g>
                    <path d="M1.0518875,10.8843158 L7.36345,10.8843158 C7.9441375,10.8843158 8.41498125,10.4147763 8.41498125,9.83569737 C8.41498125,9.25602632 7.9441375,8.78648684 7.36345,8.78648684 L1.0518875,8.78648684 C0.47060625,8.78648684 0.00035625,9.25602632 0.00035625,9.83569737 C0.00035625,10.4147763 0.47060625,10.8843158 1.0518875,10.8843158" id="Fill-9" fill="#DA272C"></path>
                </g>
                <g id="Group-3" transform="translate(0.000000, 123.000000)">
                    <mask id="mask-14" fill="white">
                        <use xlink:href="#path-13"></use>
                    </mask>
                    <g id="Clip-2"></g>
                    <path d="M-0.782398649,9.17533108 L6.38316892,7.38368243 L8.17481757,0.217601351 C8.24773649,-0.0725337838 8.66060135,-0.0725337838 8.73300676,0.217601351 L10.5246554,7.38368243 L17.6907365,9.17533108 C17.9808716,9.24773649 17.9808716,9.66060135 17.6907365,9.73300676 L10.5246554,11.5246554 L8.73300676,18.6907365 C8.66060135,18.9813851 8.24773649,18.9813851 8.17481757,18.6907365 L6.38316892,11.5246554 L-0.782398649,9.73300676 C-1.07253378,9.66060135 -1.07253378,9.24773649 -0.782398649,9.17533108" id="Fill-1" fill="#DA272C" mask="url(#mask-14)"></path>
                </g>
                <g id="Group-3" transform="translate(586.000000, 167.000000)">
                    <mask id="mask-16" fill="white">
                        <use xlink:href="#path-15"></use>
                    </mask>
                    <g id="Clip-2"></g>
                    <path d="M2.65081304,2.64114783 L4.61042174,5.90697391 C4.76076957,6.15793043 4.76076957,6.47049565 4.61042174,6.72145217 L2.65081304,9.98727826 L5.91663913,8.02766957 C6.16759565,7.87732174 6.48072609,7.87732174 6.73111739,8.02766957 L9.99694348,9.98727826 L8.03733478,6.72145217 C7.88755217,6.47049565 7.88755217,6.15793043 8.03733478,5.90697391 L9.99694348,2.64114783 L6.73111739,4.60075652 C6.48072609,4.75110435 6.16759565,4.75110435 5.91663913,4.60075652 L2.65081304,2.64114783 Z M11.6196826,12.6370174 C11.4348565,12.6370174 11.2522913,12.5855826 11.0912043,12.4889304 L6.32416087,9.62893043 L1.55655217,12.4889304 C1.07611739,12.7777565 0.408595652,12.5985826 0.1339,12.1119304 C-0.0497956522,11.7874957 -0.0441434783,11.4020174 0.14916087,11.0804087 L3.00916087,6.31393043 L0.148595652,1.54688696 C-0.0441434783,1.22584348 -0.0497956522,0.8398 0.1339,0.515930435 C0.40916087,0.0292782609 1.07498696,-0.15046087 1.55711739,0.139495652 L6.32416087,2.99949565 L11.0912043,0.138930435 C11.5722043,-0.149895652 12.2391609,0.0298434783 12.5138565,0.515365217 C12.6975522,0.839234783 12.6924652,1.22527826 12.4991609,1.54632174 L9.63859565,6.31393043 L12.4991609,11.0815391 C12.6919,11.4020174 12.6975522,11.7874957 12.5138565,12.1119304 C12.3312913,12.4358 11.9887696,12.6370174 11.6196826,12.6370174 Z" id="Fill-1" fill="#DA272C" mask="url(#mask-16)"></path>
                </g>
            </g>
        </g>
    </g>
</svg>