<?xml version="1.0" encoding="UTF-8"?>
<svg width="49px" height="40px" viewBox="0 0 49 40" version="1.1" xmlns="http://www.w3.org/2000/svg" xmlns:xlink="http://www.w3.org/1999/xlink">
    <!-- Generator: sketchtool 52.4 (67378) - http://www.bohemiancoding.com/sketch -->
    <title>E5B7ABFD-68F9-4EF9-823A-0335C4A99FD1</title>
    <desc>Created with sketchtool.</desc>
    <g id="Page-1" stroke="none" stroke-width="1" fill="none" fill-rule="evenodd">
        <g id="Arma-tu-mancha-Cierre-registros" transform="translate(-239.000000, -361.000000)" fill="#DA252C">
            <g id="img03_ico_chatea" transform="translate(239.000000, 361.000000)">
                <g id="Group_2513" fill-rule="nonzero">
                    <path d="M3.0966,1.20262857 C2.05385597,1.20369839 1.20866194,2.04536195 1.20705,3.08428571 L1.20705,21.5093714 C1.20866194,22.5482952 2.05385597,23.3899588 3.0966,23.3910286 L7.02975,23.3910286 C7.36306765,23.3910286 7.633275,23.6602461 7.633275,23.9923429 L7.633275,31.4655429 L14.136525,23.6105714 C14.2514737,23.4722253 14.4223145,23.3921031 14.602575,23.392 L34.98495,23.392 C36.0275356,23.3909291 36.8724502,22.5491095 36.873525,21.5103429 L36.873525,3.08428571 C36.8724502,2.04551907 36.0275356,1.20369947 34.98495,1.20262857 L3.0966,1.20262857 Z M7.02975,33.7454857 C6.96035518,33.7450929 6.89150255,33.7332765 6.825975,33.7105143 C6.58679779,33.6238182 6.42722951,33.397751 6.426225,33.1441714 L6.426225,24.5956 L3.0966,24.5956 C1.38728587,24.5934591 0.00214873181,23.2133958 -4.4408921e-16,21.5103429 L-4.4408921e-16,3.08428571 C0.00214979972,1.38139055 1.3874436,0.00160566442 3.0966,-2.22044605e-16 L34.98495,-2.22044605e-16 C36.6939481,0.00160661033 38.0789625,1.38154767 38.080575,3.08428571 L38.080575,21.5093714 C38.0789634,23.2122672 36.6941058,24.5924866 34.98495,24.5946286 L14.88435,24.5946286 L7.492875,33.5220571 C7.37818495,33.6607353 7.20717744,33.7409356 7.026825,33.7406286 L7.02975,33.7454857 Z" id="Path_382"></path>
                </g>
                <g id="Group_2514" transform="translate(20.000000, 9.000000)">
                    <path d="M1.238,12.385 L0,12.385 L0,3.468 C0.000550648509,2.10486554 1.10486643,0.999654848 2.468,0.998 L15.154,0.998 L15.154,2.238 L2.468,2.238 C1.78914639,2.23910114 1.23910114,2.78914639 1.238,3.468 L1.238,12.385 Z" id="Path_383"></path>
                </g>
                <g id="Group_2515" transform="translate(20.000000, 11.000000)">
                    <path d="M23.0675667,28.0952 C22.8887557,28.0955055 22.7192098,28.0156983 22.6055,27.8777 L17.3555333,21.5093 L2.38476667,21.5093 C1.06722744,21.5076997 -9.71812862e-07,20.4391735 -3.55271368e-15,19.1216333 L-3.55271368e-15,13.5575 L1.19673333,13.5575 L1.19673333,19.1216333 C1.19673312,19.7779226 1.72847764,20.3100998 2.38476667,20.3106333 L17.6358667,20.3106333 C17.8144659,20.3112728 17.9836302,20.3909003 18.0979333,20.5281333 L22.4692,25.8293333 L22.4692,20.9109333 C22.4697322,20.5806853 22.7373186,20.3130989 23.0675667,20.3125667 L26.1966667,20.3125667 C26.512433,20.3125668 26.8152523,20.187063 27.0384421,19.9636918 C27.261632,19.7403206 27.3868898,19.4373996 27.3866333,19.1216333 L27.3866333,2.38573333 C27.3855689,1.72950818 26.8538585,1.19779777 26.1976333,1.19673333 L17.4077333,1.19673333 L17.4077333,-7.10542736e-15 L26.1966667,-7.10542736e-15 C27.5136084,0.00159790877 28.5808021,1.06879164 28.5824,2.38573333 L28.5824,19.1216333 C28.5824004,20.4395506 27.5145835,21.5082329 26.1966667,21.5093 L23.6630333,21.5093 L23.6630333,27.4968333 C23.6620374,27.7491699 23.503833,27.9741289 23.2667,28.0604 C23.2017325,28.0830507 23.1334684,28.0948091 23.0646667,28.0952" id="Path_384"></path>
                </g>
                <polygon id="Path_385" points="14 11 15 11 15 12 14 12"></polygon>
                <polygon id="Path_386" points="11 11 12 11 12 12 11 12"></polygon>
                <polygon id="Path_387" points="8 11 9 11 9 12 8 12"></polygon>
                <polygon id="Path_388" points="32 17 33 17 33 18 32 18"></polygon>
                <polygon id="Path_389" points="29 17 30 17 30 18 29 18"></polygon>
                <polygon id="Path_390" points="26 17 27 17 27 18 26 18"></polygon>
            </g>
        </g>
    </g>
</svg>