<?xml version="1.0" encoding="UTF-8"?>
<svg width="800px" height="223px" viewBox="0 0 800 223" version="1.1" xmlns="http://www.w3.org/2000/svg" xmlns:xlink="http://www.w3.org/1999/xlink">
    <!-- Generator: sketchtool 51.2 (57519) - http://www.bohemiancoding.com/sketch -->
    <title>3DDBC23E-09A4-438E-B49E-D6EA0A23FACC</title>
    <desc>Created with sketchtool.</desc>
    <defs>
        <polygon id="path-1" points="0 0 18.9082095 0 18.9082095 18.9085176 0 18.9085176"></polygon>
        <polygon id="path-3" points="0 0 28.8598986 0 28.8598986 28.8603689 0 28.8603689"></polygon>
        <polygon id="path-5" points="0.49815625 0.46125 2.6018125 0.46125 2.6018125 8.85298026 0.49815625 8.85298026"></polygon>
        <polygon id="path-7" points="0.028678125 0.365921053 8.44371875 0.365921053 8.44371875 2.46375 0.028678125 2.46375"></polygon>
        <polygon id="path-9" points="0.49815625 0.46125 2.6018125 0.46125 2.6018125 8.85298026 0.49815625 8.85298026"></polygon>
        <polygon id="path-11" points="0.028678125 0.365921053 8.44371875 0.365921053 8.44371875 2.46375 0.028678125 2.46375"></polygon>
        <polygon id="path-13" points="0.722326563 0.6688125 3.77262813 0.6688125 3.77262813 12.8368214 0.722326563 12.8368214"></polygon>
        <polygon id="path-15" points="0.0415832813 0.530585526 12.2433922 0.530585526 12.2433922 3.5724375 0.0415832813 3.5724375"></polygon>
    </defs>
    <g id="FLUJO-" stroke="none" stroke-width="1" fill="none" fill-rule="evenodd">
        <g id="FONDO-NIEVE-internas" transform="translate(-557.000000, -200.000000)">
            <g id="Group-4" transform="translate(0.000000, 132.000000)">
                <g id="Group-19" transform="translate(557.000000, 68.000000)">
                    <g id="Group-14">
                        <g id="Group-3" transform="translate(611.000000, 2.000000)">
                            <mask id="mask-2" fill="white">
                                <use xlink:href="#path-1"></use>
                            </mask>
                            <g id="Clip-2"></g>
                            <path d="M-0.782398649,9.17533108 L6.38316892,7.38368243 L8.17481757,0.217601351 C8.24773649,-0.0725337838 8.66060135,-0.0725337838 8.73300676,0.217601351 L10.5246554,7.38368243 L17.6907365,9.17533108 C17.9808716,9.24773649 17.9808716,9.66060135 17.6907365,9.73300676 L10.5246554,11.5246554 L8.73300676,18.6907365 C8.66060135,18.9813851 8.24773649,18.9813851 8.17481757,18.6907365 L6.38316892,11.5246554 L-0.782398649,9.73300676 C-1.07253378,9.66060135 -1.07253378,9.24773649 -0.782398649,9.17533108" id="Fill-1" fill="#FFFFFF" mask="url(#mask-2)"></path>
                        </g>
                        <g id="Group-3-Copy" transform="translate(0.000000, 6.000000)">
                            <mask id="mask-4" fill="white">
                                <use xlink:href="#path-3"></use>
                            </mask>
                            <g id="Clip-2"></g>
                            <path d="M-1.19418741,14.0044527 L9.74273151,11.2698311 L12.4773531,0.332128378 C12.5886504,-0.110709459 13.2188126,-0.110709459 13.3293261,0.332128378 L16.0639477,11.2698311 L27.0016504,14.0044527 C27.4444883,14.1149662 27.4444883,14.7451284 27.0016504,14.8556419 L16.0639477,17.5902635 L13.3293261,28.5279662 C13.2188126,28.9715878 12.5886504,28.9715878 12.4773531,28.5279662 L9.74273151,17.5902635 L-1.19418741,14.8556419 C-1.63702525,14.7451284 -1.63702525,14.1149662 -1.19418741,14.0044527" id="Fill-1" fill="#FFFFFF" mask="url(#mask-4)"></path>
                        </g>
                        <path d="M124.650831,212.641119 L126.61044,215.906945 C126.760788,216.157902 126.760788,216.470467 126.61044,216.721423 L124.650831,219.98725 L127.916657,218.027641 C128.167614,217.877293 128.480744,217.877293 128.731136,218.027641 L131.996962,219.98725 L130.037353,216.721423 C129.88757,216.470467 129.88757,216.157902 130.037353,215.906945 L131.996962,212.641119 L128.731136,214.600728 C128.480744,214.751076 128.167614,214.751076 127.916657,214.600728 L124.650831,212.641119 Z M133.619701,222.636989 C133.434875,222.636989 133.25231,222.585554 133.091223,222.488902 L128.324179,219.628902 L123.55657,222.488902 C123.076136,222.777728 122.408614,222.598554 122.133918,222.111902 C121.950223,221.787467 121.955875,221.401989 122.149179,221.08038 L125.009179,216.313902 L122.148614,211.546858 C121.955875,211.225815 121.950223,210.839771 122.133918,210.515902 C122.409179,210.02925 123.075005,209.84951 123.557136,210.139467 L128.324179,212.999467 L133.091223,210.138902 C133.572223,209.850076 134.239179,210.029815 134.513875,210.515337 C134.69757,210.839206 134.692484,211.22525 134.499179,211.546293 L131.638614,216.313902 L134.499179,221.08151 C134.691918,221.401989 134.69757,221.787467 134.513875,222.111902 C134.33131,222.435771 133.988788,222.636989 133.619701,222.636989 Z" id="Fill-1" fill="#FFFFFF"></path>
                        <path d="M788.860416,2.84993622 L790.974959,6.37397113 C791.137194,6.64476924 791.137194,6.98204707 790.974959,7.25284518 L788.860416,10.7768801 L792.384451,8.66233717 C792.655249,8.50010226 792.993137,8.50010226 793.263325,8.66233717 L796.78736,10.7768801 L794.672817,7.25284518 C794.511192,6.98204707 794.511192,6.64476924 794.672817,6.37397113 L796.78736,2.84993622 L793.263325,4.96447915 C792.993137,5.12671405 792.655249,5.12671405 792.384451,4.96447915 L788.860416,2.84993622 Z M798.538399,13.6361178 C798.33896,13.6361178 798.141961,13.5806164 797.968138,13.4763225 L792.824193,10.3901999 L787.679639,13.4763225 C787.161219,13.7879843 786.440921,13.5946442 786.144506,13.0695155 C785.946287,12.7194296 785.952386,12.303474 786.160974,11.9564376 L789.247097,6.8131032 L786.160364,1.66915886 C785.952386,1.32273245 785.946287,0.90616688 786.144506,0.556690937 C786.44153,0.0315621628 787.159999,-0.162387837 787.680249,0.150493767 L792.824193,3.23661641 L797.968138,0.149883861 C798.487167,-0.161777932 799.206856,0.0321720685 799.50327,0.556081031 C799.701489,0.905556974 799.696,1.32212254 799.487413,1.66854896 L796.40068,6.8131032 L799.487413,11.9576574 C799.69539,12.303474 799.701489,12.7194296 799.50327,13.0695155 C799.306271,13.4189914 798.936668,13.6361178 798.538399,13.6361178 Z" id="Fill-1" fill="#FFFFFF"></path>
                        <g id="Group-11-Copy" transform="translate(167.000000, 11.000000)">
                            <g id="Group-3" transform="translate(7.718750, 0.131092)">
                                <mask id="mask-6" fill="white">
                                    <use xlink:href="#path-5"></use>
                                </mask>
                                <g id="Clip-2"></g>
                                <path d="M2.6018125,1.51028289 C2.6018125,0.930611842 2.13096875,0.461072368 1.55028125,0.461072368 C0.969,0.461072368 0.49815625,0.930611842 0.49815625,1.51028289 L0.49815625,7.80436184 C0.49815625,8.38344079 0.969,8.85298026 1.55028125,8.85298026 C2.13096875,8.85298026 2.6018125,8.38344079 2.6018125,7.80436184 L2.6018125,1.51028289 Z" id="Fill-1" fill="#FFFFFF" mask="url(#mask-6)"></path>
                            </g>
                            <path d="M10.3205625,11.7354671 C10.3205625,11.1557961 9.84971875,10.6868487 9.26903125,10.6868487 C8.68775,10.6868487 8.21690625,11.1557961 8.21690625,11.7354671 L8.21690625,18.0295461 C8.21690625,18.608625 8.68775,19.0781645 9.26903125,19.0781645 C9.84971875,19.0781645 10.3205625,18.608625 10.3205625,18.0295461 L10.3205625,11.7354671 Z" id="Fill-4" fill="#FFFFFF"></path>
                            <g id="Group-8" transform="translate(10.093750, 8.420566)">
                                <mask id="mask-8" fill="white">
                                    <use xlink:href="#path-7"></use>
                                </mask>
                                <g id="Clip-7"></g>
                                <path d="M7.39177187,0.365921053 L1.08020937,0.365921053 C0.499521875,0.365921053 0.028678125,0.835460526 0.028678125,1.41453947 C0.028678125,1.99421053 0.499521875,2.46375 1.08020937,2.46375 L7.39177187,2.46375 C7.97305312,2.46375 8.44389687,1.99421053 8.44389687,1.41453947 C8.44389687,0.835460526 7.97305312,0.365921053 7.39177187,0.365921053" id="Fill-6" fill="#FFFFFF" mask="url(#mask-8)"></path>
                            </g>
                            <path d="M1.0518875,10.8843158 L7.36345,10.8843158 C7.9441375,10.8843158 8.41498125,10.4147763 8.41498125,9.83569737 C8.41498125,9.25602632 7.9441375,8.78648684 7.36345,8.78648684 L1.0518875,8.78648684 C0.47060625,8.78648684 0.00035625,9.25602632 0.00035625,9.83569737 C0.00035625,10.4147763 0.47060625,10.8843158 1.0518875,10.8843158" id="Fill-9" fill="#FFFFFF"></path>
                        </g>
                        <g id="Group-11-Copy-3" transform="translate(361.000000, 154.000000)">
                            <g id="Group-3" transform="translate(7.718750, 0.131092)">
                                <mask id="mask-10" fill="white">
                                    <use xlink:href="#path-9"></use>
                                </mask>
                                <g id="Clip-2"></g>
                                <path d="M2.6018125,1.51028289 C2.6018125,0.930611842 2.13096875,0.461072368 1.55028125,0.461072368 C0.969,0.461072368 0.49815625,0.930611842 0.49815625,1.51028289 L0.49815625,7.80436184 C0.49815625,8.38344079 0.969,8.85298026 1.55028125,8.85298026 C2.13096875,8.85298026 2.6018125,8.38344079 2.6018125,7.80436184 L2.6018125,1.51028289 Z" id="Fill-1" fill="#FFFFFF" mask="url(#mask-10)"></path>
                            </g>
                            <path d="M10.3205625,11.7354671 C10.3205625,11.1557961 9.84971875,10.6868487 9.26903125,10.6868487 C8.68775,10.6868487 8.21690625,11.1557961 8.21690625,11.7354671 L8.21690625,18.0295461 C8.21690625,18.608625 8.68775,19.0781645 9.26903125,19.0781645 C9.84971875,19.0781645 10.3205625,18.608625 10.3205625,18.0295461 L10.3205625,11.7354671 Z" id="Fill-4" fill="#FFFFFF"></path>
                            <g id="Group-8" transform="translate(10.093750, 8.420566)">
                                <mask id="mask-12" fill="white">
                                    <use xlink:href="#path-11"></use>
                                </mask>
                                <g id="Clip-7"></g>
                                <path d="M7.39177187,0.365921053 L1.08020937,0.365921053 C0.499521875,0.365921053 0.028678125,0.835460526 0.028678125,1.41453947 C0.028678125,1.99421053 0.499521875,2.46375 1.08020937,2.46375 L7.39177187,2.46375 C7.97305312,2.46375 8.44389687,1.99421053 8.44389687,1.41453947 C8.44389687,0.835460526 7.97305312,0.365921053 7.39177187,0.365921053" id="Fill-6" fill="#FFFFFF" mask="url(#mask-12)"></path>
                            </g>
                            <path d="M1.0518875,10.8843158 L7.36345,10.8843158 C7.9441375,10.8843158 8.41498125,10.4147763 8.41498125,9.83569737 C8.41498125,9.25602632 7.9441375,8.78648684 7.36345,8.78648684 L1.0518875,8.78648684 C0.47060625,8.78648684 0.00035625,9.25602632 0.00035625,9.83569737 C0.00035625,10.4147763 0.47060625,10.8843158 1.0518875,10.8843158" id="Fill-9" fill="#FFFFFF"></path>
                        </g>
                        <g id="Group-11-Copy-2" transform="translate(683.000000, 137.000000)">
                            <g id="Group-3" transform="translate(11.192187, 0.190084)">
                                <mask id="mask-14" fill="white">
                                    <use xlink:href="#path-13"></use>
                                </mask>
                                <g id="Clip-2"></g>
                                <path d="M3.77262813,2.1899102 C3.77262813,1.34938717 3.08990469,0.668554934 2.24790781,0.668554934 C1.40505,0.668554934 0.722326563,1.34938717 0.722326563,2.1899102 L0.722326563,11.3163247 C0.722326563,12.1559891 1.40505,12.8368214 2.24790781,12.8368214 C3.08990469,12.8368214 3.77262813,12.1559891 3.77262813,11.3163247 L3.77262813,2.1899102 Z" id="Fill-1" fill="#FFFFFF" mask="url(#mask-14)"></path>
                            </g>
                            <path d="M14.9648156,17.0164273 C14.9648156,16.1759043 14.2820922,15.4959306 13.4400953,15.4959306 C12.5972375,15.4959306 11.9145141,16.1759043 11.9145141,17.0164273 L11.9145141,26.1428418 C11.9145141,26.9825063 12.5972375,27.6633385 13.4400953,27.6633385 C14.2820922,27.6633385 14.9648156,26.9825063 14.9648156,26.1428418 L14.9648156,17.0164273 Z" id="Fill-4" fill="#FFFFFF"></path>
                            <g id="Group-8" transform="translate(14.635938, 12.209820)">
                                <mask id="mask-16" fill="white">
                                    <use xlink:href="#path-15"></use>
                                </mask>
                                <g id="Clip-7"></g>
                                <path d="M10.7180692,0.530585526 L1.56630359,0.530585526 C0.724306719,0.530585526 0.0415832813,1.21141776 0.0415832813,2.05108224 C0.0415832813,2.89160526 0.724306719,3.5724375 1.56630359,3.5724375 L10.7180692,3.5724375 C11.560927,3.5724375 12.2436505,2.89160526 12.2436505,2.05108224 C12.2436505,1.21141776 11.560927,0.530585526 10.7180692,0.530585526" id="Fill-6" fill="#FFFFFF" mask="url(#mask-16)"></path>
                            </g>
                            <path d="M1.52523687,15.7822579 L10.6770025,15.7822579 C11.5189994,15.7822579 12.2017228,15.1014257 12.2017228,14.2617612 C12.2017228,13.4212382 11.5189994,12.7404059 10.6770025,12.7404059 L1.52523687,12.7404059 C0.682379062,12.7404059 0.0005165625,13.4212382 0.0005165625,14.2617612 C0.0005165625,15.1014257 0.682379062,15.7822579 1.52523687,15.7822579" id="Fill-9" fill="#FFFFFF"></path>
                        </g>
                    </g>
                </g>
            </g>
        </g>
    </g>
</svg>