<?xml version="1.0" encoding="UTF-8"?>
<svg width="32px" height="32px" viewBox="0 0 32 32" version="1.1" xmlns="http://www.w3.org/2000/svg" xmlns:xlink="http://www.w3.org/1999/xlink">
    <!-- Generator: sketchtool 51.2 (57519) - http://www.bohemiancoding.com/sketch -->
    <title>0A18C6E9-A5D5-47E0-B4EC-7F498FB591E6</title>
    <desc>Created with sketchtool.</desc>
    <defs>
        <polygon id="path-1" points="0 0.0805914191 31.919303 0.0805914191 31.919303 32 0 32"></polygon>
    </defs>
    <g id="FLUJO-" stroke="none" stroke-width="1" fill="none" fill-rule="evenodd">
        <g id="2.1.-Arma-tu-mancha" transform="translate(-651.000000, -847.000000)">
            <g id="Group-8" transform="translate(651.000000, 847.000000)">
                <g id="Group-3" transform="translate(0.000000, 0.025030)">
                    <mask id="mask-2" fill="white">
                        <use xlink:href="#path-1"></use>
                    </mask>
                    <g id="Clip-2"></g>
                    <path d="M1.58414785,16.0403538 C1.58414785,8.11364752 8.03304554,1.66474983 15.9597518,1.66474983 C23.8864581,1.66474983 30.3352502,8.11364752 30.3352502,16.0403538 C30.3352502,23.9670601 23.8864581,30.4158521 15.9597518,30.4158521 C8.03304554,30.4158521 1.58414785,23.9670601 1.58414785,16.0403538 Z M18.9876066,31.7106376 C26.3447551,30.2917597 31.919303,23.8053703 31.919303,16.0403538 C31.9194086,7.24014257 24.759963,0.0805914191 15.9597518,0.0805914191 C7.15954059,0.0805914191 -1.05610561e-05,7.24014257 -1.05610561e-05,16.0403538 C-1.05610561e-05,19.6048158 1.17480132,22.8998653 3.15732277,25.5593505 L4.30414785,26.9301756 C7.21878812,30.0477993 11.36527,32.0000106 15.9597518,32.0000106 C16.4340488,32.0000106 16.903171,31.977938 17.3670125,31.9371723 L18.9876066,31.7106376 Z" id="Fill-1" fill="#F5A623" mask="url(#mask-2)"></path>
                </g>
                <path d="M23.3493506,13.564142 C23.2730835,13.3292428 23.0722968,13.1562057 22.8286485,13.1152883 L18.3686565,12.3668454 L16.2786898,8.35650242 C16.16451,8.13742223 15.9380064,8 15.6909115,8 C15.443905,8 15.2173129,8.13742223 15.1031332,8.35650242 L13.0130781,12.3668454 L8.55317445,13.1152883 C8.30952617,13.1561173 8.10882786,13.3291544 8.03247235,13.564142 C7.95611685,13.7991296 8.01674171,14.0570062 8.1898672,14.2333132 L11.3580903,17.4603052 L10.6917471,21.9332883 C10.6553369,22.1776435 10.7578512,22.4219104 10.9577541,22.567198 C11.1574803,22.7123088 11.4216315,22.734314 11.6427443,22.6242879 L15.6909115,20.6082905 L19.7389903,22.6242879 C19.8325788,22.6708612 19.9336791,22.6938385 20.034426,22.6938385 C20.172025,22.6938385 20.3087402,22.6510653 20.4240688,22.5672864 C20.6239718,22.4219988 20.7264861,22.1777319 20.6900758,21.9333766 L20.023821,17.4603936 L23.1920441,14.2333132 C23.3650812,14.0570062 23.4257061,13.7991296 23.3493506,13.564142 Z" id="Fill-4" fill="#F5A623"></path>
                <path d="M27.9584211,16.8643274 C27.5246785,16.8063472 27.1265267,17.1117729 27.0691802,17.5455155 C26.3344475,23.0908092 21.5583155,27.2726706 15.9597941,27.2726706 C9.78009769,27.2726706 4.75250693,22.2451855 4.75250693,16.0653835 C4.75250693,9.88558152 9.78009769,4.85809637 15.9597941,4.85809637 C21.5584211,4.85809637 26.3344475,9.03985215 27.0691802,14.5852515 C27.1265267,15.0189941 27.5253122,15.324631 27.9584211,15.2664396 C28.3918469,15.2089875 28.6970614,14.8108356 28.639398,14.3771987 C27.8009558,8.04732409 22.3498667,3.27393795 15.9597941,3.27393795 C8.90659274,3.27393795 3.16834851,9.01207657 3.16834851,16.0653835 C3.16834851,23.1186904 8.90659274,28.8567234 15.9597941,28.8567234 C22.3498667,28.8567234 27.8009558,24.0833373 28.6396092,17.7534627 C28.6970614,17.3199314 28.3919525,16.9217795 27.9584211,16.8643274" id="Fill-6" fill="#F5A623"></path>
            </g>
        </g>
    </g>
</svg>