<?xml version="1.0" encoding="UTF-8"?>
<svg width="740px" height="311px" viewBox="0 0 740 311" version="1.1" xmlns="http://www.w3.org/2000/svg" xmlns:xlink="http://www.w3.org/1999/xlink">
    <!-- Generator: sketchtool 51.2 (57519) - http://www.bohemiancoding.com/sketch -->
    <title>910E96C8-0FE6-4177-B85F-7D3185783CAF</title>
    <desc>Created with sketchtool.</desc>
    <defs>
        <polygon id="path-1" points="0 0 37 0 37 39 0 39"></polygon>
        <polygon id="path-3" points="0 0 27 0 27 28 0 28"></polygon>
        <polygon id="path-5" points="0 0 37 0 37 39 0 39"></polygon>
        <polygon id="path-7" points="0 0 31 0 31 32 0 32"></polygon>
        <polygon id="path-9" points="0 0 31 0 31 32 0 32"></polygon>
    </defs>
    <g id="FLUJO-" stroke="none" stroke-width="1" fill="none" fill-rule="evenodd" opacity="0.7">
        <g id="FONDO-NIEVE" transform="translate(-565.000000, -173.000000)">
            <g id="Group-4" transform="translate(561.000000, 166.000000)">
                <g id="Group-26">
                    <g id="Group-38" transform="translate(77.000000, 0.000000)">
                        <mask id="mask-2" fill="white">
                            <use xlink:href="#path-1"></use>
                        </mask>
                        <g id="Clip-2"></g>
                        <path d="M20.9814761,19.2561507 L23.4920635,19.2561507 L23.4920635,18.4226988 L20.9814761,18.4226988 L20.9814761,19.2561507 Z M18.1061072,16.5939349 L18.9548158,16.5939349 L18.9548158,14.1818182 L18.1061072,14.1818182 L18.1061072,16.5939349 Z M20.5612806,17.4902029 L22.8532366,15.2400521 L22.2503803,14.6489665 L19.9589643,16.8985876 L20.5612806,17.4902029 Z M19.8218877,17.9204878 C19.4295611,17.5352229 18.9548158,17.3463509 18.4162309,17.3463509 C17.8777541,17.3463509 17.4117584,17.5352229 17.0288295,17.9204878 C16.6356388,18.3063884 16.4444444,18.7717359 16.4444444,19.3097509 C16.4444444,19.847766 16.6356388,20.3135372 17.0288295,20.690116 C17.4117584,21.0761224 17.8777541,21.2727273 18.4162309,21.2727273 C18.9548158,21.2727273 19.4295611,21.0761224 19.8218877,20.690116 C20.2053566,20.3135372 20.3973071,19.847766 20.3973071,19.3097509 C20.3973071,18.7717359 20.2053566,18.3063884 19.8218877,17.9204878 Z M19.1554078,20.0361083 C18.9548158,20.2428824 18.7084235,20.3403373 18.4162309,20.3403373 C18.1334361,20.3403373 17.8868278,20.2428824 17.6862357,20.0361083 C17.4851035,19.829758 17.3752478,19.5874976 17.3752478,19.3097509 C17.3752478,19.014314 17.4851035,18.7717359 17.6862357,18.5748133 C17.8868278,18.3690985 18.1334361,18.2699487 18.4162309,18.2790586 C18.7084235,18.2699487 18.9548158,18.3690985 19.1642654,18.5748133 C19.356432,18.7717359 19.456674,19.014314 19.4663957,19.3097509 C19.456674,19.5874976 19.356432,19.829758 19.1554078,20.0361083 Z" id="Fill-1" fill="#FFFFFF" mask="url(#mask-2)"></path>
                        <polygon id="Fill-3" fill="#FFFFFF" mask="url(#mask-2)" points="18.2063492 13 18.7936508 13 18.7936508 10.0454545 18.2063492 10.0454545"></polygon>
                        <polygon id="Fill-4" fill="#FFFFFF" mask="url(#mask-2)" points="18.2063492 10.0454545 18.7936508 10.0454545 18.7936508 7.09090909 18.2063492 7.09090909"></polygon>
                        <polygon id="Fill-5" fill="#FFFFFF" mask="url(#mask-2)" points="20.5793826 10.0454545 22.9047619 7.70556734 22.2931949 7.09090909 19.968254 9.43024552"></polygon>
                        <polygon id="Fill-6" fill="#FFFFFF" mask="url(#mask-2)" points="17.6190476 9.43022259 15.2942163 7.09090909 14.6825397 7.70559026 17.007919 10.0454545"></polygon>
                        <polygon id="Fill-7" fill="#FFFFFF" mask="url(#mask-2)" points="25.2539683 13.0154425 24.6512906 12.4090909 22.9047619 14.1663756 23.5073311 14.7727273"></polygon>
                        <polygon id="Fill-8" fill="#FFFFFF" mask="url(#mask-2)" points="27.6031746 10.0609251 27.0004969 9.45454545 25.2539683 11.2118022 25.8565375 11.8181818"></polygon>
                        <polygon id="Fill-9" fill="#FFFFFF" mask="url(#mask-2)" points="26.4285714 13 29.952381 12.9987299 29.9522636 12.4090909 26.429393 12.410361"></polygon>
                        <polygon id="Fill-10" fill="#FFFFFF" mask="url(#mask-2)" points="24.6654045 11.2264461 24.6666667 7.68193627 24.0807015 7.68181818 24.0793651 11.2272727"></polygon>
                        <polygon id="Fill-11" fill="#FFFFFF" mask="url(#mask-2)" points="24.6666667 18.9090909 27.6031746 18.9090909 27.6031746 18.3181818 24.6666667 18.3181818"></polygon>
                        <polygon id="Fill-12" fill="#FFFFFF" mask="url(#mask-2)" points="27.6031746 18.9090909 30.5396825 18.9090909 30.5396825 18.3181818 27.6031746 18.3181818"></polygon>
                        <polygon id="Fill-13" fill="#FFFFFF" mask="url(#mask-2)" points="27.6031746 20.7057686 29.9287768 23.0454545 30.5396825 22.4300437 28.2146278 20.0909091"></polygon>
                        <polygon id="Fill-14" fill="#FFFFFF" mask="url(#mask-2)" points="28.2146506 17.7272727 30.5396825 15.3880508 29.9288635 14.7727273 27.6031746 17.1123903"></polygon>
                        <path d="M13.5079365,20.5774705 L16.0185239,20.5774705 L16.0185239,19.7439251 L13.5079365,19.7439251 L13.5079365,20.5774705 Z M18.0451842,24.8181818 L18.8938928,24.8181818 L18.8938928,22.4061012 L18.0451842,22.4061012 L18.0451842,24.8181818 Z M16.4387194,21.5098465 L14.1467634,23.7599637 L14.7496197,24.3509345 L17.0409277,22.101453 L16.4387194,21.5098465 Z M17.1781123,21.079568 C17.5704389,21.4647213 18.0451842,21.6536964 18.5837691,21.6536964 C19.1222459,21.6536964 19.5881336,21.4647213 19.9711705,21.079568 C20.3643612,20.6936733 20.5555556,20.2282268 20.5555556,19.6903257 C20.5555556,19.1523187 20.3643612,18.6865544 19.9711705,18.3099812 C19.5881336,17.9239805 19.1222459,17.7272727 18.5837691,17.7272727 C18.0451842,17.7272727 17.5704389,17.9239805 17.1781123,18.3099812 C16.7946434,18.6865544 16.6026929,19.1523187 16.6026929,19.6903257 C16.6026929,20.2282268 16.7946434,20.6936733 17.1781123,21.079568 Z M17.8445922,18.9638732 C18.0451842,18.7571023 18.2915765,18.6596487 18.5837691,18.6596487 C18.8665639,18.6596487 19.1131722,18.7571023 19.3136563,18.9638732 C19.5148965,19.1703264 19.6246442,19.4124772 19.6246442,19.6903257 C19.6246442,19.9857582 19.5148965,20.2282268 19.3136563,20.4251464 C19.1131722,20.630964 18.8665639,20.7300065 18.5837691,20.7208967 C18.2915765,20.7300065 18.0451842,20.630964 17.8356266,20.4251464 C17.643568,20.2282268 17.543326,19.9857582 17.5336043,19.6903257 C17.543326,19.4124772 17.643568,19.1703264 17.8445922,18.9638732 Z" id="Fill-15" fill="#FFFFFF" mask="url(#mask-2)"></path>
                        <polygon id="Fill-16" fill="#FFFFFF" mask="url(#mask-2)" points="18.2063492 28.9545455 18.7936508 28.9545455 18.7936508 26 18.2063492 26"></polygon>
                        <polygon id="Fill-17" fill="#FFFFFF" mask="url(#mask-2)" points="18.2063492 32.5 18.7936508 32.5 18.7936508 29.5454545 18.2063492 29.5454545"></polygon>
                        <polygon id="Fill-18" fill="#FFFFFF" mask="url(#mask-2)" points="17.007919 28.9545455 14.6825397 31.2944327 15.2941067 31.9090909 17.6190476 29.5697545"></polygon>
                        <polygon id="Fill-19" fill="#FFFFFF" mask="url(#mask-2)" points="19.3809524 29.5697774 21.7057837 31.9090909 22.3174603 31.2944097 19.992081 28.9545455"></polygon>
                        <polygon id="Fill-20" fill="#FFFFFF" mask="url(#mask-2)" points="11.7460317 25.9845575 12.3487094 26.5909091 14.0952381 24.8336244 13.4926689 24.2272727"></polygon>
                        <polygon id="Fill-21" fill="#FFFFFF" mask="url(#mask-2)" points="9.3968254 28.3481658 9.99950307 28.9545455 11.7460317 27.1972887 11.1434625 26.5909091"></polygon>
                        <polygon id="Fill-22" fill="#FFFFFF" mask="url(#mask-2)" points="10.5714286 25.4090909 7.04761905 25.410361 7.04773642 26 10.570607 25.9987299"></polygon>
                        <polygon id="Fill-23" fill="#FFFFFF" mask="url(#mask-2)" points="11.747294 27.7735539 11.7460317 31.3180637 12.3319969 31.3181818 12.3333333 27.7727273"></polygon>
                        <polygon id="Fill-24" fill="#FFFFFF" mask="url(#mask-2)" points="25.23862 26.5909091 25.8412698 25.9845295 24.0948218 24.2272727 23.4920635 24.8336524"></polygon>
                        <polygon id="Fill-25" fill="#FFFFFF" mask="url(#mask-2)" points="27.5878263 28.9545455 28.1904762 28.3481658 26.4440282 26.5909091 25.8412698 27.1971796"></polygon>
                        <polygon id="Fill-26" fill="#FFFFFF" mask="url(#mask-2)" points="24.6666667 27.7727273 24.667929 31.3181818 25.2539683 31.3180637 25.2527059 27.7735539"></polygon>
                        <polygon id="Fill-27" fill="#FFFFFF" mask="url(#mask-2)" points="27.0166946 25.9987299 30.5395652 26 30.5396825 25.410361 27.015873 25.4090909"></polygon>
                        <polygon id="Fill-28" fill="#FFFFFF" mask="url(#mask-2)" points="11.76138 12.4090909 11.1587302 13.0154705 12.9051782 14.7727273 13.5079365 14.1663476"></polygon>
                        <polygon id="Fill-29" fill="#FFFFFF" mask="url(#mask-2)" points="9.41217366 10.0454545 8.80952381 10.6518342 10.5559718 12.4090909 11.1587302 11.8028204"></polygon>
                        <polygon id="Fill-30" fill="#FFFFFF" mask="url(#mask-2)" points="12.3333333 11.8181818 12.332071 8.27272727 11.7460317 8.27284536 11.7472941 11.8173552"></polygon>
                        <polygon id="Fill-31" fill="#FFFFFF" mask="url(#mask-2)" points="9.98330542 13.0012701 6.46043483 13 6.46031746 13.589639 9.98412698 13.5909091"></polygon>
                        <polygon id="Fill-32" fill="#FFFFFF" mask="url(#mask-2)" points="9.98412698 20.0909091 12.9206349 20.0909091 12.9206349 19.5 9.98412698 19.5"></polygon>
                        <polygon id="Fill-33" fill="#FFFFFF" mask="url(#mask-2)" points="6.46031746 20.0909091 9.3968254 20.0909091 9.3968254 19.5 6.46031746 19.5"></polygon>
                        <polygon id="Fill-34" fill="#FFFFFF" mask="url(#mask-2)" points="9.3968254 18.2942085 7.07122322 15.9545455 6.46031746 16.569869 8.78537223 18.9090909"></polygon>
                        <polygon id="Fill-35" fill="#FFFFFF" mask="url(#mask-2)" points="8.78534943 21.2727273 6.46031746 23.6119492 7.07113651 24.2272727 9.3968254 21.8876097"></polygon>
                        <polygon id="Fill-36" fill="#FFFFFF" mask="url(#mask-2)" points="16.4444444 17.1124132 14.1188423 14.7727273 13.5079365 15.3881381 15.8329913 17.7272727"></polygon>
                        <polygon id="Fill-37" fill="#FFFFFF" mask="url(#mask-2)" points="19.968254 21.8875868 22.2938561 24.2272727 22.9047619 23.6118619 20.5797071 21.2727273"></polygon>
                    </g>
                    <g id="Group-38-Copy-3" transform="translate(0.000000, 215.000000)">
                        <mask id="mask-4" fill="white">
                            <use xlink:href="#path-3"></use>
                        </mask>
                        <g id="Clip-2"></g>
                        <path d="M15.3108069,13.8249287 L17.1428571,13.8249287 L17.1428571,13.226553 L15.3108069,13.226553 L15.3108069,13.8249287 Z M13.2125647,11.9135943 L13.8318926,11.9135943 L13.8318926,10.1818182 L13.2125647,10.1818182 L13.2125647,11.9135943 Z M15.0041777,12.5570687 L16.6766862,10.9415759 L16.236764,10.5172067 L14.5646496,12.1323193 L15.0041777,12.5570687 Z M14.4646207,12.8659913 C14.1783284,12.5893908 13.8318926,12.4537904 13.4388712,12.4537904 C13.0459287,12.4537904 12.7058777,12.5893908 12.4264432,12.8659913 C12.1395202,13.143048 12,13.4771437 12,13.8634109 C12,14.2496781 12.1395202,14.584078 12.4264432,14.8544422 C12.7058777,15.1315751 13.0459287,15.2727273 13.4388712,15.2727273 C13.8318926,15.2727273 14.1783284,15.1315751 14.4646207,14.8544422 C14.7444494,14.584078 14.8845214,14.2496781 14.8845214,13.8634109 C14.8845214,13.4771437 14.7444494,13.143048 14.4646207,12.8659913 Z M13.9782706,14.3848983 C13.8318926,14.5333514 13.6520928,14.6033191 13.4388712,14.6033191 C13.2325074,14.6033191 13.05255,14.5333514 12.906172,14.3848983 C12.7593999,14.2367493 12.6792349,14.0628188 12.6792349,13.8634109 C12.6792349,13.6513024 12.7593999,13.4771437 12.906172,13.3357634 C13.05255,13.1880707 13.2325074,13.1168862 13.4388712,13.1234267 C13.6520928,13.1168862 13.8318926,13.1880707 13.9847342,13.3357634 C14.1249639,13.4771437 14.1981135,13.6513024 14.2052077,13.8634109 C14.1981135,14.0628188 14.1249639,14.2367493 13.9782706,14.3848983 Z" id="Fill-1" fill="#FFFFFF" mask="url(#mask-4)"></path>
                        <polygon id="Fill-3" fill="#FFFFFF" mask="url(#mask-4)" points="13.2857143 9.33333333 13.7857143 9.33333333 13.7857143 7.21212121 13.2857143 7.21212121"></polygon>
                        <polygon id="Fill-4" fill="#FFFFFF" mask="url(#mask-4)" points="13.2857143 7.21212121 13.7857143 7.21212121 13.7857143 5.09090909 13.2857143 5.09090909"></polygon>
                        <polygon id="Fill-5" fill="#FFFFFF" mask="url(#mask-4)" points="15.0173873 7.21212121 16.7142857 5.53220219 16.2680071 5.09090909 14.5714286 6.77043268"></polygon>
                        <polygon id="Fill-6" fill="#FFFFFF" mask="url(#mask-4)" points="12.8571429 6.77041622 11.1606443 5.09090909 10.7142857 5.53221865 12.4111842 7.21212121"></polygon>
                        <polygon id="Fill-7" fill="#FFFFFF" mask="url(#mask-4)" points="18.4285714 9.34442029 17.9887796 8.90909091 16.7142857 10.1707312 17.1539984 10.6060606"></polygon>
                        <polygon id="Fill-8" fill="#FFFFFF" mask="url(#mask-4)" points="20.1428571 7.22322827 19.7030653 6.78787879 18.4285714 8.04949901 18.8682841 8.48484848"></polygon>
                        <polygon id="Fill-9" fill="#FFFFFF" mask="url(#mask-4)" points="19.2857143 9.40909091 21.8571429 9.40801618 21.8570572 8.90909091 19.2863138 8.91016563"></polygon>
                        <polygon id="Fill-10" fill="#FFFFFF" mask="url(#mask-4)" points="18.070354 8.0600126 18.0714286 5.5152363 17.5725664 5.51515152 17.5714286 8.06060606"></polygon>
                        <polygon id="Fill-11" fill="#FFFFFF" mask="url(#mask-4)" points="18 13.6515152 20.1428571 13.6515152 20.1428571 13.1515152 18 13.1515152"></polygon>
                        <polygon id="Fill-12" fill="#FFFFFF" mask="url(#mask-4)" points="20.1428571 13.6515152 22.2857143 13.6515152 22.2857143 13.1515152 20.1428571 13.1515152"></polygon>
                        <polygon id="Fill-13" fill="#FFFFFF" mask="url(#mask-4)" points="20.1428571 14.86568 21.8399182 16.5454545 22.2857143 16.1036211 20.5890527 14.4242424"></polygon>
                        <polygon id="Fill-14" fill="#FFFFFF" mask="url(#mask-4)" points="20.5890693 12.7272727 22.2857143 11.0478314 21.8399815 10.6060606 20.1428571 12.2858187"></polygon>
                        <path d="M9.85714286,14.7735686 L11.6891931,14.7735686 L11.6891931,14.1751257 L9.85714286,14.1751257 L9.85714286,14.7735686 Z M13.1681074,17.8181818 L13.7874353,17.8181818 L13.7874353,16.0864316 L13.1681074,16.0864316 L13.1681074,17.8181818 Z M11.9958223,15.4429667 L10.3233138,17.0584354 L10.763236,17.4827222 L12.4352716,15.8677098 L11.9958223,15.4429667 Z M12.5353793,15.1340488 C12.8216716,15.4105691 13.1681074,15.5462436 13.5611288,15.5462436 C13.9540713,15.5462436 14.2940435,15.4105691 14.5735568,15.1340488 C14.8604798,14.8569962 15,14.5228295 15,14.1366441 C15,13.7503826 14.8604798,13.4159878 14.5735568,13.1456276 C14.2940435,12.8684989 13.9540713,12.7272727 13.5611288,12.7272727 C13.1681074,12.7272727 12.8216716,12.8684989 12.5353793,13.1456276 C12.2555506,13.4159878 12.1154786,13.7503826 12.1154786,14.1366441 C12.1154786,14.5228295 12.2555506,14.8569962 12.5353793,15.1340488 Z M13.0217294,13.6150885 C13.1681074,13.4666375 13.3479072,13.3966709 13.5611288,13.3966709 C13.7674926,13.3966709 13.94745,13.4666375 14.0937492,13.6150885 C14.2406001,13.7633112 14.3206863,13.9371631 14.3206863,14.1366441 C14.3206863,14.3487494 14.2406001,14.5228295 14.0937492,14.6642077 C13.94745,14.8119742 13.7674926,14.8830816 13.5611288,14.8765412 C13.3479072,14.8830816 13.1681074,14.8119742 13.0151869,14.6642077 C12.8750361,14.5228295 12.8018865,14.3487494 12.7947923,14.1366441 C12.8018865,13.9371631 12.8750361,13.7633112 13.0217294,13.6150885 Z" id="Fill-15" fill="#FFFFFF" mask="url(#mask-4)"></path>
                        <polygon id="Fill-16" fill="#FFFFFF" mask="url(#mask-4)" points="13.2857143 20.7878788 13.7857143 20.7878788 13.7857143 18.6666667 13.2857143 18.6666667"></polygon>
                        <polygon id="Fill-17" fill="#FFFFFF" mask="url(#mask-4)" points="13.2857143 23.3333333 13.7857143 23.3333333 13.7857143 21.2121212 13.2857143 21.2121212"></polygon>
                        <polygon id="Fill-18" fill="#FFFFFF" mask="url(#mask-4)" points="12.4111842 20.7878788 10.7142857 22.4677978 11.1605643 22.9090909 12.8571429 21.2295673"></polygon>
                        <polygon id="Fill-19" fill="#FFFFFF" mask="url(#mask-4)" points="14.1428571 21.2295838 15.8393557 22.9090909 16.2857143 22.4677814 14.5888158 20.7878788"></polygon>
                        <polygon id="Fill-20" fill="#FFFFFF" mask="url(#mask-4)" points="8.57142857 18.6555797 9.01122039 19.0909091 10.2857143 17.8292688 9.84600162 17.3939394"></polygon>
                        <polygon id="Fill-21" fill="#FFFFFF" mask="url(#mask-4)" points="6.85714286 20.3525293 7.29693468 20.7878788 8.57142857 19.5262586 8.13171591 19.0909091"></polygon>
                        <polygon id="Fill-22" fill="#FFFFFF" mask="url(#mask-4)" points="7.71428571 18.2424242 5.14285714 18.243499 5.14294279 18.7424242 7.71368617 18.7413495"></polygon>
                        <polygon id="Fill-23" fill="#FFFFFF" mask="url(#mask-4)" points="8.57250316 19.9399874 8.57142857 22.4847637 9.07029077 22.4848485 9.07142857 19.9393939"></polygon>
                        <polygon id="Fill-24" fill="#FFFFFF" mask="url(#mask-4)" points="18.4173713 19.0909091 18.8571429 18.6555596 17.5827078 17.3939394 17.1428571 17.8292889"></polygon>
                        <polygon id="Fill-25" fill="#FFFFFF" mask="url(#mask-4)" points="20.1316571 20.7878788 20.5714286 20.3525293 19.2969935 19.0909091 18.8571429 19.5261802"></polygon>
                        <polygon id="Fill-26" fill="#FFFFFF" mask="url(#mask-4)" points="18 19.9393939 18.0010747 22.4848485 18.5 22.4847637 18.4989253 19.9399874"></polygon>
                        <polygon id="Fill-27" fill="#FFFFFF" mask="url(#mask-4)" points="19.7148852 18.7413495 22.2856286 18.7424242 22.2857143 18.243499 19.7142857 18.2424242"></polygon>
                        <polygon id="Fill-28" fill="#FFFFFF" mask="url(#mask-4)" points="8.58262866 8.90909091 8.14285714 9.34444039 9.41729219 10.6060606 9.85714286 10.1707111"></polygon>
                        <polygon id="Fill-29" fill="#FFFFFF" mask="url(#mask-4)" points="6.86834294 7.21212121 6.42857143 7.64747069 7.70300648 8.90909091 8.14285714 8.47381979"></polygon>
                        <polygon id="Fill-30" fill="#FFFFFF" mask="url(#mask-4)" points="9.07142857 8.48484848 9.07035385 5.93939394 8.57142857 5.93947872 8.5725033 8.484255"></polygon>
                        <polygon id="Fill-31" fill="#FFFFFF" mask="url(#mask-4)" points="7.28511477 9.33440806 4.71437136 9.33333333 4.71428571 9.83225861 7.28571429 9.83333333"></polygon>
                        <polygon id="Fill-32" fill="#FFFFFF" mask="url(#mask-4)" points="7.28571429 14.5 9.42857143 14.5 9.42857143 14 7.28571429 14"></polygon>
                        <polygon id="Fill-33" fill="#FFFFFF" mask="url(#mask-4)" points="4.71428571 14.5 6.85714286 14.5 6.85714286 14 4.71428571 14"></polygon>
                        <polygon id="Fill-34" fill="#FFFFFF" mask="url(#mask-4)" points="6.85714286 13.1343035 5.16008181 11.4545455 4.71428571 11.8963162 6.4109473 13.5757576"></polygon>
                        <polygon id="Fill-35" fill="#FFFFFF" mask="url(#mask-4)" points="6.41093067 15.2727273 4.71428571 16.9521686 5.16001854 17.3939394 6.85714286 15.7141813"></polygon>
                        <polygon id="Fill-36" fill="#FFFFFF" mask="url(#mask-4)" points="12 12.2858351 10.302939 10.6060606 9.85714286 11.047894 11.5538044 12.7272727"></polygon>
                        <polygon id="Fill-37" fill="#FFFFFF" mask="url(#mask-4)" points="14.5714286 15.7141649 16.2684896 17.3939394 16.7142857 16.952106 15.0176241 15.2727273"></polygon>
                    </g>
                    <g id="Group-38-Copy-2" transform="translate(597.000000, 125.000000)">
                        <mask id="mask-6" fill="white">
                            <use xlink:href="#path-5"></use>
                        </mask>
                        <g id="Clip-2"></g>
                        <path d="M20.9814761,19.2561507 L23.4920635,19.2561507 L23.4920635,18.4226988 L20.9814761,18.4226988 L20.9814761,19.2561507 Z M18.1061072,16.5939349 L18.9548158,16.5939349 L18.9548158,14.1818182 L18.1061072,14.1818182 L18.1061072,16.5939349 Z M20.5612806,17.4902029 L22.8532366,15.2400521 L22.2503803,14.6489665 L19.9589643,16.8985876 L20.5612806,17.4902029 Z M19.8218877,17.9204878 C19.4295611,17.5352229 18.9548158,17.3463509 18.4162309,17.3463509 C17.8777541,17.3463509 17.4117584,17.5352229 17.0288295,17.9204878 C16.6356388,18.3063884 16.4444444,18.7717359 16.4444444,19.3097509 C16.4444444,19.847766 16.6356388,20.3135372 17.0288295,20.690116 C17.4117584,21.0761224 17.8777541,21.2727273 18.4162309,21.2727273 C18.9548158,21.2727273 19.4295611,21.0761224 19.8218877,20.690116 C20.2053566,20.3135372 20.3973071,19.847766 20.3973071,19.3097509 C20.3973071,18.7717359 20.2053566,18.3063884 19.8218877,17.9204878 Z M19.1554078,20.0361083 C18.9548158,20.2428824 18.7084235,20.3403373 18.4162309,20.3403373 C18.1334361,20.3403373 17.8868278,20.2428824 17.6862357,20.0361083 C17.4851035,19.829758 17.3752478,19.5874976 17.3752478,19.3097509 C17.3752478,19.014314 17.4851035,18.7717359 17.6862357,18.5748133 C17.8868278,18.3690985 18.1334361,18.2699487 18.4162309,18.2790586 C18.7084235,18.2699487 18.9548158,18.3690985 19.1642654,18.5748133 C19.356432,18.7717359 19.456674,19.014314 19.4663957,19.3097509 C19.456674,19.5874976 19.356432,19.829758 19.1554078,20.0361083 Z" id="Fill-1" fill="#FFFFFF" mask="url(#mask-6)"></path>
                        <polygon id="Fill-3" fill="#FFFFFF" mask="url(#mask-6)" points="18.2063492 13 18.7936508 13 18.7936508 10.0454545 18.2063492 10.0454545"></polygon>
                        <polygon id="Fill-4" fill="#FFFFFF" mask="url(#mask-6)" points="18.2063492 10.0454545 18.7936508 10.0454545 18.7936508 7.09090909 18.2063492 7.09090909"></polygon>
                        <polygon id="Fill-5" fill="#FFFFFF" mask="url(#mask-6)" points="20.5793826 10.0454545 22.9047619 7.70556734 22.2931949 7.09090909 19.968254 9.43024552"></polygon>
                        <polygon id="Fill-6" fill="#FFFFFF" mask="url(#mask-6)" points="17.6190476 9.43022259 15.2942163 7.09090909 14.6825397 7.70559026 17.007919 10.0454545"></polygon>
                        <polygon id="Fill-7" fill="#FFFFFF" mask="url(#mask-6)" points="25.2539683 13.0154425 24.6512906 12.4090909 22.9047619 14.1663756 23.5073311 14.7727273"></polygon>
                        <polygon id="Fill-8" fill="#FFFFFF" mask="url(#mask-6)" points="27.6031746 10.0609251 27.0004969 9.45454545 25.2539683 11.2118022 25.8565375 11.8181818"></polygon>
                        <polygon id="Fill-9" fill="#FFFFFF" mask="url(#mask-6)" points="26.4285714 13 29.952381 12.9987299 29.9522636 12.4090909 26.429393 12.410361"></polygon>
                        <polygon id="Fill-10" fill="#FFFFFF" mask="url(#mask-6)" points="24.6654045 11.2264461 24.6666667 7.68193627 24.0807015 7.68181818 24.0793651 11.2272727"></polygon>
                        <polygon id="Fill-11" fill="#FFFFFF" mask="url(#mask-6)" points="24.6666667 18.9090909 27.6031746 18.9090909 27.6031746 18.3181818 24.6666667 18.3181818"></polygon>
                        <polygon id="Fill-12" fill="#FFFFFF" mask="url(#mask-6)" points="27.6031746 18.9090909 30.5396825 18.9090909 30.5396825 18.3181818 27.6031746 18.3181818"></polygon>
                        <polygon id="Fill-13" fill="#FFFFFF" mask="url(#mask-6)" points="27.6031746 20.7057686 29.9287768 23.0454545 30.5396825 22.4300437 28.2146278 20.0909091"></polygon>
                        <polygon id="Fill-14" fill="#FFFFFF" mask="url(#mask-6)" points="28.2146506 17.7272727 30.5396825 15.3880508 29.9288635 14.7727273 27.6031746 17.1123903"></polygon>
                        <path d="M13.5079365,20.5774705 L16.0185239,20.5774705 L16.0185239,19.7439251 L13.5079365,19.7439251 L13.5079365,20.5774705 Z M18.0451842,24.8181818 L18.8938928,24.8181818 L18.8938928,22.4061012 L18.0451842,22.4061012 L18.0451842,24.8181818 Z M16.4387194,21.5098465 L14.1467634,23.7599637 L14.7496197,24.3509345 L17.0409277,22.101453 L16.4387194,21.5098465 Z M17.1781123,21.079568 C17.5704389,21.4647213 18.0451842,21.6536964 18.5837691,21.6536964 C19.1222459,21.6536964 19.5881336,21.4647213 19.9711705,21.079568 C20.3643612,20.6936733 20.5555556,20.2282268 20.5555556,19.6903257 C20.5555556,19.1523187 20.3643612,18.6865544 19.9711705,18.3099812 C19.5881336,17.9239805 19.1222459,17.7272727 18.5837691,17.7272727 C18.0451842,17.7272727 17.5704389,17.9239805 17.1781123,18.3099812 C16.7946434,18.6865544 16.6026929,19.1523187 16.6026929,19.6903257 C16.6026929,20.2282268 16.7946434,20.6936733 17.1781123,21.079568 Z M17.8445922,18.9638732 C18.0451842,18.7571023 18.2915765,18.6596487 18.5837691,18.6596487 C18.8665639,18.6596487 19.1131722,18.7571023 19.3136563,18.9638732 C19.5148965,19.1703264 19.6246442,19.4124772 19.6246442,19.6903257 C19.6246442,19.9857582 19.5148965,20.2282268 19.3136563,20.4251464 C19.1131722,20.630964 18.8665639,20.7300065 18.5837691,20.7208967 C18.2915765,20.7300065 18.0451842,20.630964 17.8356266,20.4251464 C17.643568,20.2282268 17.543326,19.9857582 17.5336043,19.6903257 C17.543326,19.4124772 17.643568,19.1703264 17.8445922,18.9638732 Z" id="Fill-15" fill="#FFFFFF" mask="url(#mask-6)"></path>
                        <polygon id="Fill-16" fill="#FFFFFF" mask="url(#mask-6)" points="18.2063492 28.9545455 18.7936508 28.9545455 18.7936508 26 18.2063492 26"></polygon>
                        <polygon id="Fill-17" fill="#FFFFFF" mask="url(#mask-6)" points="18.2063492 32.5 18.7936508 32.5 18.7936508 29.5454545 18.2063492 29.5454545"></polygon>
                        <polygon id="Fill-18" fill="#FFFFFF" mask="url(#mask-6)" points="17.007919 28.9545455 14.6825397 31.2944327 15.2941067 31.9090909 17.6190476 29.5697545"></polygon>
                        <polygon id="Fill-19" fill="#FFFFFF" mask="url(#mask-6)" points="19.3809524 29.5697774 21.7057837 31.9090909 22.3174603 31.2944097 19.992081 28.9545455"></polygon>
                        <polygon id="Fill-20" fill="#FFFFFF" mask="url(#mask-6)" points="11.7460317 25.9845575 12.3487094 26.5909091 14.0952381 24.8336244 13.4926689 24.2272727"></polygon>
                        <polygon id="Fill-21" fill="#FFFFFF" mask="url(#mask-6)" points="9.3968254 28.3481658 9.99950307 28.9545455 11.7460317 27.1972887 11.1434625 26.5909091"></polygon>
                        <polygon id="Fill-22" fill="#FFFFFF" mask="url(#mask-6)" points="10.5714286 25.4090909 7.04761905 25.410361 7.04773642 26 10.570607 25.9987299"></polygon>
                        <polygon id="Fill-23" fill="#FFFFFF" mask="url(#mask-6)" points="11.747294 27.7735539 11.7460317 31.3180637 12.3319969 31.3181818 12.3333333 27.7727273"></polygon>
                        <polygon id="Fill-24" fill="#FFFFFF" mask="url(#mask-6)" points="25.23862 26.5909091 25.8412698 25.9845295 24.0948218 24.2272727 23.4920635 24.8336524"></polygon>
                        <polygon id="Fill-25" fill="#FFFFFF" mask="url(#mask-6)" points="27.5878263 28.9545455 28.1904762 28.3481658 26.4440282 26.5909091 25.8412698 27.1971796"></polygon>
                        <polygon id="Fill-26" fill="#FFFFFF" mask="url(#mask-6)" points="24.6666667 27.7727273 24.667929 31.3181818 25.2539683 31.3180637 25.2527059 27.7735539"></polygon>
                        <polygon id="Fill-27" fill="#FFFFFF" mask="url(#mask-6)" points="27.0166946 25.9987299 30.5395652 26 30.5396825 25.410361 27.015873 25.4090909"></polygon>
                        <polygon id="Fill-28" fill="#FFFFFF" mask="url(#mask-6)" points="11.76138 12.4090909 11.1587302 13.0154705 12.9051782 14.7727273 13.5079365 14.1663476"></polygon>
                        <polygon id="Fill-29" fill="#FFFFFF" mask="url(#mask-6)" points="9.41217366 10.0454545 8.80952381 10.6518342 10.5559718 12.4090909 11.1587302 11.8028204"></polygon>
                        <polygon id="Fill-30" fill="#FFFFFF" mask="url(#mask-6)" points="12.3333333 11.8181818 12.332071 8.27272727 11.7460317 8.27284536 11.7472941 11.8173552"></polygon>
                        <polygon id="Fill-31" fill="#FFFFFF" mask="url(#mask-6)" points="9.98330542 13.0012701 6.46043483 13 6.46031746 13.589639 9.98412698 13.5909091"></polygon>
                        <polygon id="Fill-32" fill="#FFFFFF" mask="url(#mask-6)" points="9.98412698 20.0909091 12.9206349 20.0909091 12.9206349 19.5 9.98412698 19.5"></polygon>
                        <polygon id="Fill-33" fill="#FFFFFF" mask="url(#mask-6)" points="6.46031746 20.0909091 9.3968254 20.0909091 9.3968254 19.5 6.46031746 19.5"></polygon>
                        <polygon id="Fill-34" fill="#FFFFFF" mask="url(#mask-6)" points="9.3968254 18.2942085 7.07122322 15.9545455 6.46031746 16.569869 8.78537223 18.9090909"></polygon>
                        <polygon id="Fill-35" fill="#FFFFFF" mask="url(#mask-6)" points="8.78534943 21.2727273 6.46031746 23.6119492 7.07113651 24.2272727 9.3968254 21.8876097"></polygon>
                        <polygon id="Fill-36" fill="#FFFFFF" mask="url(#mask-6)" points="16.4444444 17.1124132 14.1188423 14.7727273 13.5079365 15.3881381 15.8329913 17.7272727"></polygon>
                        <polygon id="Fill-37" fill="#FFFFFF" mask="url(#mask-6)" points="19.968254 21.8875868 22.2938561 24.2272727 22.9047619 23.6118619 20.5797071 21.2727273"></polygon>
                    </g>
                    <g id="Group-38-Copy" transform="translate(715.500000, 40.000000) rotate(-12.000000) translate(-715.500000, -40.000000) translate(700.000000, 24.000000)">
                        <mask id="mask-8" fill="white">
                            <use xlink:href="#path-7"></use>
                        </mask>
                        <g id="Clip-2"></g>
                        <path d="M17.5790746,15.7999185 L19.6825397,15.7999185 L19.6825397,15.1160605 L17.5790746,15.1160605 L17.5790746,15.7999185 Z M15.1699817,13.6155363 L15.8810619,13.6155363 L15.8810619,11.6363636 L15.1699817,11.6363636 L15.1699817,13.6155363 Z M17.2270189,14.3509357 L19.1473064,12.5046582 L18.6422105,12.0196648 L16.7223755,13.8655078 L17.2270189,14.3509357 Z M16.6075275,14.70399 C16.2788215,14.3878752 15.8810619,14.2329033 15.4298151,14.2329033 C14.9786589,14.2329033 14.58823,14.3878752 14.2673977,14.70399 C13.9379677,15.0206263 13.7777778,15.40245 13.7777778,15.8438982 C13.7777778,16.2853464 13.9379677,16.6675177 14.2673977,16.9765054 C14.58823,17.2932287 14.9786589,17.4545455 15.4298151,17.4545455 C15.8810619,17.4545455 16.2788215,17.2932287 16.6075275,16.9765054 C16.9288123,16.6675177 17.0896357,16.2853464 17.0896357,15.8438982 C17.0896357,15.40245 16.9288123,15.0206263 16.6075275,14.70399 Z M16.0491255,16.4398837 C15.8810619,16.6095445 15.6746251,16.6895076 15.4298151,16.6895076 C15.1928789,16.6895076 14.9862611,16.6095445 14.8181975,16.4398837 C14.6496813,16.2705707 14.55764,16.0717929 14.55764,15.8438982 C14.55764,15.6014884 14.6496813,15.40245 14.8181975,15.2408724 C14.9862611,15.0720808 15.1928789,14.9907271 15.4298151,14.9982019 C15.6746251,14.9907271 15.8810619,15.0720808 16.0565467,15.2408724 C16.2175511,15.40245 16.3015377,15.6014884 16.3096829,15.8438982 C16.3015377,16.0717929 16.2175511,16.2705707 16.0491255,16.4398837 Z" id="Fill-1" fill="#FFFFFF" mask="url(#mask-8)"></path>
                        <polygon id="Fill-3" fill="#FFFFFF" mask="url(#mask-8)" points="15.2539683 10.6666667 15.7539683 10.6666667 15.7539683 8.24242424 15.2539683 8.24242424"></polygon>
                        <polygon id="Fill-4" fill="#FFFFFF" mask="url(#mask-8)" points="15.2539683 8.24242424 15.7539683 8.24242424 15.7539683 5.81818182 15.2539683 5.81818182"></polygon>
                        <polygon id="Fill-5" fill="#FFFFFF" mask="url(#mask-8)" points="17.2421854 8.24242424 19.1904762 6.32251679 18.6780822 5.81818182 16.7301587 7.73763735"></polygon>
                        <polygon id="Fill-6" fill="#FFFFFF" mask="url(#mask-8)" points="14.7619048 7.73761853 12.8140731 5.81818182 12.3015873 6.3225356 14.2498781 8.24242424"></polygon>
                        <polygon id="Fill-7" fill="#FFFFFF" mask="url(#mask-8)" points="21.1587302 10.6793375 20.653784 10.1818182 19.1904762 11.6236928 19.6953315 12.1212121"></polygon>
                        <polygon id="Fill-8" fill="#FFFFFF" mask="url(#mask-8)" points="23.1269841 8.25511802 22.622038 7.75757576 21.1587302 9.19942744 21.6635854 9.6969697"></polygon>
                        <polygon id="Fill-9" fill="#FFFFFF" mask="url(#mask-8)" points="22.1428571 10.6818182 25.0952381 10.6807435 25.0951398 10.1818182 22.1435455 10.1828929"></polygon>
                        <polygon id="Fill-10" fill="#FFFFFF" mask="url(#mask-8)" points="20.6735286 9.21144297 20.6746032 6.3031272 20.175741 6.3030303 20.1746032 9.21212121"></polygon>
                        <polygon id="Fill-11" fill="#FFFFFF" mask="url(#mask-8)" points="20.6666667 15.530303 23.1269841 15.530303 23.1269841 15.030303 20.6666667 15.030303"></polygon>
                        <polygon id="Fill-12" fill="#FFFFFF" mask="url(#mask-8)" points="23.1269841 15.530303 25.5873016 15.530303 25.5873016 15.030303 23.1269841 15.030303"></polygon>
                        <polygon id="Fill-13" fill="#FFFFFF" mask="url(#mask-8)" points="23.1269841 16.9893486 25.0754616 18.9090909 25.5873016 18.4041384 23.6392827 16.4848485"></polygon>
                        <polygon id="Fill-14" fill="#FFFFFF" mask="url(#mask-8)" points="23.6393018 14.5454545 25.5873016 12.626093 25.0755343 12.1212121 23.1269841 14.0409356"></polygon>
                        <path d="M11.3174603,16.8840784 L13.4209254,16.8840784 L13.4209254,16.2001437 L11.3174603,16.2001437 L11.3174603,16.8840784 Z M15.1189381,20.3636364 L15.8300183,20.3636364 L15.8300183,18.3844933 L15.1189381,18.3844933 L15.1189381,20.3636364 Z M13.7729811,17.6491048 L11.8526936,19.4953548 L12.3577895,19.980254 L14.277534,18.1345255 L13.7729811,17.6491048 Z M14.3924725,17.2960558 C14.7211785,17.612079 15.1189381,17.7671355 15.5701849,17.7671355 C16.0213411,17.7671355 16.4116795,17.612079 16.7326023,17.2960558 C17.0620323,16.9794242 17.2222222,16.5975194 17.2222222,16.1561647 C17.2222222,15.714723 17.0620323,15.3325574 16.7326023,15.0235744 C16.4116795,14.7068558 16.0213411,14.5454545 15.5701849,14.5454545 C15.1189381,14.5454545 14.7211785,14.7068558 14.3924725,15.0235744 C14.0711877,15.3325574 13.9103643,15.714723 13.9103643,16.1561647 C13.9103643,16.5975194 14.0711877,16.9794242 14.3924725,17.2960558 Z M14.9508745,15.5601011 C15.1189381,15.3904429 15.3253749,15.310481 15.5701849,15.310481 C15.8071211,15.310481 16.0137389,15.3904429 16.181712,15.5601011 C16.3503187,15.7294986 16.4422695,15.9281864 16.4422695,16.1561647 C16.4422695,16.3985708 16.3503187,16.5975194 16.181712,16.7590945 C16.0137389,16.9279705 15.8071211,17.0092361 15.5701849,17.0017614 C15.3253749,17.0092361 15.1189381,16.9279705 14.9433628,16.7590945 C14.7824489,16.5975194 14.6984623,16.3985708 14.6903171,16.1561647 C14.6984623,15.9281864 14.7824489,15.7294986 14.9508745,15.5601011 Z" id="Fill-15" fill="#FFFFFF" mask="url(#mask-8)"></path>
                        <polygon id="Fill-16" fill="#FFFFFF" mask="url(#mask-8)" points="15.2539683 23.7575758 15.7539683 23.7575758 15.7539683 21.3333333 15.2539683 21.3333333"></polygon>
                        <polygon id="Fill-17" fill="#FFFFFF" mask="url(#mask-8)" points="15.2539683 26.6666667 15.7539683 26.6666667 15.7539683 24.2424242 15.2539683 24.2424242"></polygon>
                        <polygon id="Fill-18" fill="#FFFFFF" mask="url(#mask-8)" points="14.2498781 23.7575758 12.3015873 25.6774832 12.8139813 26.1818182 14.7619048 24.2623626"></polygon>
                        <polygon id="Fill-19" fill="#FFFFFF" mask="url(#mask-8)" points="16.2380952 24.2623815 18.1859269 26.1818182 18.6984127 25.6774644 16.7501219 23.7575758"></polygon>
                        <polygon id="Fill-20" fill="#FFFFFF" mask="url(#mask-8)" points="9.84126984 21.3206625 10.346216 21.8181818 11.8095238 20.3763072 11.3046685 19.8787879"></polygon>
                        <polygon id="Fill-21" fill="#FFFFFF" mask="url(#mask-8)" points="7.87301587 23.2600335 8.37796204 23.7575758 9.84126984 22.3157241 9.33641456 21.8181818"></polygon>
                        <polygon id="Fill-22" fill="#FFFFFF" mask="url(#mask-8)" points="8.85714286 20.8484848 5.9047619 20.8495596 5.90486024 21.3484848 8.8564545 21.3474101"></polygon>
                        <polygon id="Fill-23" fill="#FFFFFF" mask="url(#mask-8)" points="9.84234443 22.788557 9.84126984 25.6968728 10.340132 25.6969697 10.3412698 22.7878788"></polygon>
                        <polygon id="Fill-24" fill="#FFFFFF" mask="url(#mask-8)" points="21.1458708 21.8181818 21.6507937 21.3206396 20.1875534 19.8787879 19.6825397 20.3763301"></polygon>
                        <polygon id="Fill-25" fill="#FFFFFF" mask="url(#mask-8)" points="23.1141248 23.7575758 23.6190476 23.2600335 22.1558074 21.8181818 21.6507937 22.3156345"></polygon>
                        <polygon id="Fill-26" fill="#FFFFFF" mask="url(#mask-8)" points="20.6666667 22.7878788 20.6677414 25.6969697 21.1666667 25.6968728 21.1655919 22.7885571"></polygon>
                        <polygon id="Fill-27" fill="#FFFFFF" mask="url(#mask-8)" points="22.635609 21.3474101 25.5872033 21.3484848 25.5873016 20.8495596 22.6349206 20.8484848"></polygon>
                        <polygon id="Fill-28" fill="#FFFFFF" mask="url(#mask-8)" points="9.8541292 10.1818182 9.34920635 10.6793604 10.8124466 12.1212121 11.3174603 11.6236699"></polygon>
                        <polygon id="Fill-29" fill="#FFFFFF" mask="url(#mask-8)" points="7.88587523 8.24242424 7.38095238 8.7399665 8.84419262 10.1818182 9.34920635 9.68436547"></polygon>
                        <polygon id="Fill-30" fill="#FFFFFF" mask="url(#mask-8)" points="10.3412698 9.6969697 10.3401951 6.78787879 9.84126984 6.78797568 9.84234457 9.69629143"></polygon>
                        <polygon id="Fill-31" fill="#FFFFFF" mask="url(#mask-8)" points="8.36439103 10.6677414 5.41279675 10.6666667 5.41269841 11.1655919 8.36507937 11.1666667"></polygon>
                        <polygon id="Fill-32" fill="#FFFFFF" mask="url(#mask-8)" points="8.36507937 16.5 10.8253968 16.5 10.8253968 16 8.36507937 16"></polygon>
                        <polygon id="Fill-33" fill="#FFFFFF" mask="url(#mask-8)" points="5.41269841 16.5 7.87301587 16.5 7.87301587 16 5.41269841 16"></polygon>
                        <polygon id="Fill-34" fill="#FFFFFF" mask="url(#mask-8)" points="7.87301587 15.0106326 5.92453837 13.0909091 5.41269841 13.5957899 7.36071727 15.5151515"></polygon>
                        <polygon id="Fill-35" fill="#FFFFFF" mask="url(#mask-8)" points="7.36069817 17.4545455 5.41269841 19.373907 5.92446573 19.8787879 7.87301587 17.9590644"></polygon>
                        <polygon id="Fill-36" fill="#FFFFFF" mask="url(#mask-8)" points="13.7777778 14.0409544 11.8293003 12.1212121 11.3174603 12.6261646 13.2654792 14.5454545"></polygon>
                        <polygon id="Fill-37" fill="#FFFFFF" mask="url(#mask-8)" points="16.7301587 17.9590456 18.6786362 19.8787879 19.1904762 19.3738354 17.2424573 17.4545455"></polygon>
                    </g>
                    <g id="Group-38-Copy-4" transform="translate(732.500000, 307.000000) rotate(-12.000000) translate(-732.500000, -307.000000) translate(717.000000, 291.000000)">
                        <mask id="mask-10" fill="white">
                            <use xlink:href="#path-9"></use>
                        </mask>
                        <g id="Clip-2"></g>
                        <path d="M17.5790746,15.7999185 L19.6825397,15.7999185 L19.6825397,15.1160605 L17.5790746,15.1160605 L17.5790746,15.7999185 Z M15.1699817,13.6155363 L15.8810619,13.6155363 L15.8810619,11.6363636 L15.1699817,11.6363636 L15.1699817,13.6155363 Z M17.2270189,14.3509357 L19.1473064,12.5046582 L18.6422105,12.0196648 L16.7223755,13.8655078 L17.2270189,14.3509357 Z M16.6075275,14.70399 C16.2788215,14.3878752 15.8810619,14.2329033 15.4298151,14.2329033 C14.9786589,14.2329033 14.58823,14.3878752 14.2673977,14.70399 C13.9379677,15.0206263 13.7777778,15.40245 13.7777778,15.8438982 C13.7777778,16.2853464 13.9379677,16.6675177 14.2673977,16.9765054 C14.58823,17.2932287 14.9786589,17.4545455 15.4298151,17.4545455 C15.8810619,17.4545455 16.2788215,17.2932287 16.6075275,16.9765054 C16.9288123,16.6675177 17.0896357,16.2853464 17.0896357,15.8438982 C17.0896357,15.40245 16.9288123,15.0206263 16.6075275,14.70399 Z M16.0491255,16.4398837 C15.8810619,16.6095445 15.6746251,16.6895076 15.4298151,16.6895076 C15.1928789,16.6895076 14.9862611,16.6095445 14.8181975,16.4398837 C14.6496813,16.2705707 14.55764,16.0717929 14.55764,15.8438982 C14.55764,15.6014884 14.6496813,15.40245 14.8181975,15.2408724 C14.9862611,15.0720808 15.1928789,14.9907271 15.4298151,14.9982019 C15.6746251,14.9907271 15.8810619,15.0720808 16.0565467,15.2408724 C16.2175511,15.40245 16.3015377,15.6014884 16.3096829,15.8438982 C16.3015377,16.0717929 16.2175511,16.2705707 16.0491255,16.4398837 Z" id="Fill-1" fill="#FFFFFF" mask="url(#mask-10)"></path>
                        <polygon id="Fill-3" fill="#FFFFFF" mask="url(#mask-10)" points="15.2539683 10.6666667 15.7539683 10.6666667 15.7539683 8.24242424 15.2539683 8.24242424"></polygon>
                        <polygon id="Fill-4" fill="#FFFFFF" mask="url(#mask-10)" points="15.2539683 8.24242424 15.7539683 8.24242424 15.7539683 5.81818182 15.2539683 5.81818182"></polygon>
                        <polygon id="Fill-5" fill="#FFFFFF" mask="url(#mask-10)" points="17.2421854 8.24242424 19.1904762 6.32251679 18.6780822 5.81818182 16.7301587 7.73763735"></polygon>
                        <polygon id="Fill-6" fill="#FFFFFF" mask="url(#mask-10)" points="14.7619048 7.73761853 12.8140731 5.81818182 12.3015873 6.3225356 14.2498781 8.24242424"></polygon>
                        <polygon id="Fill-7" fill="#FFFFFF" mask="url(#mask-10)" points="21.1587302 10.6793375 20.653784 10.1818182 19.1904762 11.6236928 19.6953315 12.1212121"></polygon>
                        <polygon id="Fill-8" fill="#FFFFFF" mask="url(#mask-10)" points="23.1269841 8.25511802 22.622038 7.75757576 21.1587302 9.19942744 21.6635854 9.6969697"></polygon>
                        <polygon id="Fill-9" fill="#FFFFFF" mask="url(#mask-10)" points="22.1428571 10.6818182 25.0952381 10.6807435 25.0951398 10.1818182 22.1435455 10.1828929"></polygon>
                        <polygon id="Fill-10" fill="#FFFFFF" mask="url(#mask-10)" points="20.6735286 9.21144297 20.6746032 6.3031272 20.175741 6.3030303 20.1746032 9.21212121"></polygon>
                        <polygon id="Fill-11" fill="#FFFFFF" mask="url(#mask-10)" points="20.6666667 15.530303 23.1269841 15.530303 23.1269841 15.030303 20.6666667 15.030303"></polygon>
                        <polygon id="Fill-12" fill="#FFFFFF" mask="url(#mask-10)" points="23.1269841 15.530303 25.5873016 15.530303 25.5873016 15.030303 23.1269841 15.030303"></polygon>
                        <polygon id="Fill-13" fill="#FFFFFF" mask="url(#mask-10)" points="23.1269841 16.9893486 25.0754616 18.9090909 25.5873016 18.4041384 23.6392827 16.4848485"></polygon>
                        <polygon id="Fill-14" fill="#FFFFFF" mask="url(#mask-10)" points="23.6393018 14.5454545 25.5873016 12.626093 25.0755343 12.1212121 23.1269841 14.0409356"></polygon>
                        <path d="M11.3174603,16.8840784 L13.4209254,16.8840784 L13.4209254,16.2001437 L11.3174603,16.2001437 L11.3174603,16.8840784 Z M15.1189381,20.3636364 L15.8300183,20.3636364 L15.8300183,18.3844933 L15.1189381,18.3844933 L15.1189381,20.3636364 Z M13.7729811,17.6491048 L11.8526936,19.4953548 L12.3577895,19.980254 L14.277534,18.1345255 L13.7729811,17.6491048 Z M14.3924725,17.2960558 C14.7211785,17.612079 15.1189381,17.7671355 15.5701849,17.7671355 C16.0213411,17.7671355 16.4116795,17.612079 16.7326023,17.2960558 C17.0620323,16.9794242 17.2222222,16.5975194 17.2222222,16.1561647 C17.2222222,15.714723 17.0620323,15.3325574 16.7326023,15.0235744 C16.4116795,14.7068558 16.0213411,14.5454545 15.5701849,14.5454545 C15.1189381,14.5454545 14.7211785,14.7068558 14.3924725,15.0235744 C14.0711877,15.3325574 13.9103643,15.714723 13.9103643,16.1561647 C13.9103643,16.5975194 14.0711877,16.9794242 14.3924725,17.2960558 Z M14.9508745,15.5601011 C15.1189381,15.3904429 15.3253749,15.310481 15.5701849,15.310481 C15.8071211,15.310481 16.0137389,15.3904429 16.181712,15.5601011 C16.3503187,15.7294986 16.4422695,15.9281864 16.4422695,16.1561647 C16.4422695,16.3985708 16.3503187,16.5975194 16.181712,16.7590945 C16.0137389,16.9279705 15.8071211,17.0092361 15.5701849,17.0017614 C15.3253749,17.0092361 15.1189381,16.9279705 14.9433628,16.7590945 C14.7824489,16.5975194 14.6984623,16.3985708 14.6903171,16.1561647 C14.6984623,15.9281864 14.7824489,15.7294986 14.9508745,15.5601011 Z" id="Fill-15" fill="#FFFFFF" mask="url(#mask-10)"></path>
                        <polygon id="Fill-16" fill="#FFFFFF" mask="url(#mask-10)" points="15.2539683 23.7575758 15.7539683 23.7575758 15.7539683 21.3333333 15.2539683 21.3333333"></polygon>
                        <polygon id="Fill-17" fill="#FFFFFF" mask="url(#mask-10)" points="15.2539683 26.6666667 15.7539683 26.6666667 15.7539683 24.2424242 15.2539683 24.2424242"></polygon>
                        <polygon id="Fill-18" fill="#FFFFFF" mask="url(#mask-10)" points="14.2498781 23.7575758 12.3015873 25.6774832 12.8139813 26.1818182 14.7619048 24.2623626"></polygon>
                        <polygon id="Fill-19" fill="#FFFFFF" mask="url(#mask-10)" points="16.2380952 24.2623815 18.1859269 26.1818182 18.6984127 25.6774644 16.7501219 23.7575758"></polygon>
                        <polygon id="Fill-20" fill="#FFFFFF" mask="url(#mask-10)" points="9.84126984 21.3206625 10.346216 21.8181818 11.8095238 20.3763072 11.3046685 19.8787879"></polygon>
                        <polygon id="Fill-21" fill="#FFFFFF" mask="url(#mask-10)" points="7.87301587 23.2600335 8.37796204 23.7575758 9.84126984 22.3157241 9.33641456 21.8181818"></polygon>
                        <polygon id="Fill-22" fill="#FFFFFF" mask="url(#mask-10)" points="8.85714286 20.8484848 5.9047619 20.8495596 5.90486024 21.3484848 8.8564545 21.3474101"></polygon>
                        <polygon id="Fill-23" fill="#FFFFFF" mask="url(#mask-10)" points="9.84234443 22.788557 9.84126984 25.6968728 10.340132 25.6969697 10.3412698 22.7878788"></polygon>
                        <polygon id="Fill-24" fill="#FFFFFF" mask="url(#mask-10)" points="21.1458708 21.8181818 21.6507937 21.3206396 20.1875534 19.8787879 19.6825397 20.3763301"></polygon>
                        <polygon id="Fill-25" fill="#FFFFFF" mask="url(#mask-10)" points="23.1141248 23.7575758 23.6190476 23.2600335 22.1558074 21.8181818 21.6507937 22.3156345"></polygon>
                        <polygon id="Fill-26" fill="#FFFFFF" mask="url(#mask-10)" points="20.6666667 22.7878788 20.6677414 25.6969697 21.1666667 25.6968728 21.1655919 22.7885571"></polygon>
                        <polygon id="Fill-27" fill="#FFFFFF" mask="url(#mask-10)" points="22.635609 21.3474101 25.5872033 21.3484848 25.5873016 20.8495596 22.6349206 20.8484848"></polygon>
                        <polygon id="Fill-28" fill="#FFFFFF" mask="url(#mask-10)" points="9.8541292 10.1818182 9.34920635 10.6793604 10.8124466 12.1212121 11.3174603 11.6236699"></polygon>
                        <polygon id="Fill-29" fill="#FFFFFF" mask="url(#mask-10)" points="7.88587523 8.24242424 7.38095238 8.7399665 8.84419262 10.1818182 9.34920635 9.68436547"></polygon>
                        <polygon id="Fill-30" fill="#FFFFFF" mask="url(#mask-10)" points="10.3412698 9.6969697 10.3401951 6.78787879 9.84126984 6.78797568 9.84234457 9.69629143"></polygon>
                        <polygon id="Fill-31" fill="#FFFFFF" mask="url(#mask-10)" points="8.36439103 10.6677414 5.41279675 10.6666667 5.41269841 11.1655919 8.36507937 11.1666667"></polygon>
                        <polygon id="Fill-32" fill="#FFFFFF" mask="url(#mask-10)" points="8.36507937 16.5 10.8253968 16.5 10.8253968 16 8.36507937 16"></polygon>
                        <polygon id="Fill-33" fill="#FFFFFF" mask="url(#mask-10)" points="5.41269841 16.5 7.87301587 16.5 7.87301587 16 5.41269841 16"></polygon>
                        <polygon id="Fill-34" fill="#FFFFFF" mask="url(#mask-10)" points="7.87301587 15.0106326 5.92453837 13.0909091 5.41269841 13.5957899 7.36071727 15.5151515"></polygon>
                        <polygon id="Fill-35" fill="#FFFFFF" mask="url(#mask-10)" points="7.36069817 17.4545455 5.41269841 19.373907 5.92446573 19.8787879 7.87301587 17.9590644"></polygon>
                        <polygon id="Fill-36" fill="#FFFFFF" mask="url(#mask-10)" points="13.7777778 14.0409544 11.8293003 12.1212121 11.3174603 12.6261646 13.2654792 14.5454545"></polygon>
                        <polygon id="Fill-37" fill="#FFFFFF" mask="url(#mask-10)" points="16.7301587 17.9590456 18.6786362 19.8787879 19.1904762 19.3738354 17.2424573 17.4545455"></polygon>
                    </g>
                </g>
            </g>
        </g>
    </g>
</svg>