<?xml version="1.0" encoding="UTF-8"?>
<svg width="152px" height="125px" viewBox="0 0 152 125" version="1.1" xmlns="http://www.w3.org/2000/svg" xmlns:xlink="http://www.w3.org/1999/xlink">
    <!-- Generator: sketchtool 51.2 (57519) - http://www.bohemiancoding.com/sketch -->
    <title>A5594DA4-2B3A-4312-879E-830ABF35269C</title>
    <desc>Created with sketchtool.</desc>
    <defs>
        <polygon id="path-1" points="0 0.00049 7.031 0.00049 7.031 7.03049 0 7.03049"></polygon>
        <polygon id="path-3" points="0 0.00067375 9.667625 0.00067375 9.667625 9.66692375 0 9.66692375"></polygon>
        <polygon id="path-5" points="0 4.7826087e-05 10.7020435 4.7826087e-05 10.7020435 10.6928609 0 10.6928609"></polygon>
        <polygon id="path-7" points="0 0 18.9082095 0 18.9082095 18.9085176 0 18.9085176"></polygon>
        <polygon id="path-9" points="0 0 11.942027 0 11.942027 11.9422216 0 11.9422216"></polygon>
        <polygon id="path-11" points="0 -0.0001 18.038 -0.0001 18.038 18.0376 0 18.0376"></polygon>
    </defs>
    <g id="FLUJO-" stroke="none" stroke-width="1" fill="none" fill-rule="evenodd">
        <g id="2.1.-Arma-tu-mancha" transform="translate(-474.000000, -376.000000)">
            <g id="Group-33" transform="translate(474.000000, 376.000000)">
                <g id="Group-19-Copy" transform="translate(27.000000, 18.000000)">
                    <path d="M56.8404818,96.864253 L49.6653519,96.864253 C48.9852842,96.864253 48.4321265,97.4176349 48.4321265,98.0974784 C48.4321265,98.777322 48.9852842,99.3307039 49.6653519,99.3307039 L56.8404818,99.3307039 C57.5203253,99.3307039 58.0737072,98.777322 58.0737072,98.0974784 C58.0737072,97.4176349 57.5203253,96.864253 56.8404818,96.864253" id="Fill-1" fill="#000000"></path>
                    <path d="M82.5139933,10.7626948 L23.9918404,10.7626948 L23.9918404,8.4083553 C23.9918404,5.13201163 26.6574012,2.46645089 29.9337449,2.46645089 L76.5720889,2.46645089 C80.0049401,2.46645089 82.5139933,5.19456979 82.5139933,6.61457283 L82.5139933,10.7626948 Z M29.9337449,0 C25.3030954,0.00538134739 21.5307709,3.77770587 21.5253896,8.40902796 L21.5253896,24.5523975 C21.5253896,25.2324652 22.0785472,25.7856229 22.758615,25.7856229 C23.4386828,25.7856229 23.9918404,25.2324652 23.9918404,24.5523975 L23.9918404,13.2291457 L82.5139933,13.2291457 L82.5139933,80.4514469 C82.5139933,81.1315147 83.0673752,81.6846723 83.7472187,81.6846723 C84.4270623,81.6846723 84.9804442,81.1315147 84.9804442,80.4514469 L84.9804442,6.61457283 C84.9804442,3.1144548 80.2784919,0 76.5720889,0 L29.9337449,0 Z" id="Fill-3" fill="#000000"></path>
                    <path d="M76.5720889,104.039383 L29.9337449,104.039383 C26.6574012,104.039383 23.9918404,101.373822 23.9918404,98.0974784 L23.9918404,92.155574 L82.5139933,92.155574 L82.5139933,98.0974784 C82.5139933,101.373822 79.8484326,104.039383 76.5720889,104.039383 M84.9804442,98.0968058 L84.9804442,80.1596538 C84.9804442,79.4798103 84.4270623,78.9264284 83.7472187,78.9264284 C83.0673752,78.9264284 82.5139933,79.4798103 82.5139933,80.1596538 L82.5139933,89.6891231 L23.9918404,89.6891231 L23.9918404,81.9534363 C23.9918404,81.2735927 23.4386828,80.7202108 22.758615,80.7202108 C22.0785472,80.7202108 21.5253896,81.2735927 21.5253896,81.9534363 L21.5253896,98.0974784 C21.5307709,102.727904 25.3030954,106.500452 29.9344175,106.505834 L76.5720889,106.505834 C81.2025141,106.500452 84.9750628,102.727904 84.9804442,98.0968058" id="Fill-5" fill="#000000"></path>
                    <path d="M55.9435906,5.38134739 L52.3560256,5.38134739 C51.6759579,5.38134739 51.1228002,5.93450506 51.1228002,6.61457283 C51.1228002,7.29464061 51.6759579,7.84779828 52.3560256,7.84779828 L55.9435906,7.84779828 C56.6234341,7.84779828 57.176816,7.29464061 57.176816,6.61457283 C57.176816,5.93450506 56.6234341,5.38134739 55.9435906,5.38134739" id="Fill-7" fill="#000000"></path>
                    <path d="M22.758615,73.545081 C11.5822291,73.5318518 2.47968003,64.4293027 2.46645089,53.2535895 L2.46645089,53.2529169 C2.46645089,42.0637503 11.5694484,32.9607528 22.758615,32.9607528 C33.9477816,32.9607528 43.0507791,42.0637503 43.0507791,53.2529169 C43.0507791,64.4420834 33.9477816,73.545081 22.758615,73.545081 M45.51723,53.2522442 C45.51723,40.703839 35.3076929,30.4943019 22.758615,30.4943019 C10.2095371,30.4943019 0,40.703839 0,53.2529169 C0,65.8019948 10.2095371,76.0115319 22.758615,76.0115319 C35.2931184,75.9971816 45.5028797,65.7871961 45.51723,53.2522442" id="Fill-11" fill="#000000"></path>
                    <path d="M27.8356023,45.1822187 C27.7656448,44.9185327 27.5947871,44.7019334 27.3544202,44.5721084 C26.9021628,44.3290509 26.3346549,44.4792802 26.0622242,44.9149451 L15.7712942,61.3859041 C15.6268947,61.6175263 15.5858619,61.8901812 15.6555952,62.153643 C15.7255527,62.4177775 15.8964105,62.6343767 16.1370016,62.7639775 C16.2834191,62.8426797 16.4417204,62.8803491 16.5982279,62.8803491 C16.9255932,62.8803491 17.2451107,62.7157696 17.4291976,62.4213651 L27.7196792,45.950406 C27.8643029,45.7190081 27.9055599,45.4461289 27.8356023,45.1822187" id="Fill-13" stroke="#DA272C" stroke-width="0.5" fill="#DA272C"></path>
                    <path d="M18.4661833,47.343749 C18.4661833,48.108573 18.2551896,48.7343788 17.8392563,49.203453 C17.4125603,49.6844109 16.8358592,49.9283653 16.1248487,49.9283653 C15.41765,49.9283653 14.8346707,49.6897922 14.3922791,49.2193728 C13.955493,48.7543347 13.7339609,48.1401884 13.7339609,47.3935265 L13.7339609,46.1865351 C13.7339609,45.3860597 13.9521297,44.7447824 14.3824133,44.2801928 C14.8194235,43.8082038 15.394555,43.5691822 16.0918879,43.5691822 C16.8248723,43.5691822 17.4127845,43.8129124 17.8390321,44.2938704 C18.2551896,44.7633929 18.4661833,45.3779876 18.4661833,46.1206136 L18.4661833,47.343749 Z M19.641335,50.6949831 C20.5323964,49.8552687 20.9653707,48.7686849 20.9653707,47.3733464 L20.9653707,46.1898984 C20.9653707,44.7277415 20.531948,43.606179 19.6404381,42.7606348 C18.7439953,41.9103819 17.5831938,41.4971393 16.0918879,41.4971393 C14.623677,41.4971393 13.4740867,41.9153148 12.5774197,42.7756577 C11.6847887,43.6326373 11.2509175,44.7225844 11.2509175,46.1078329 L11.2509175,47.2746884 C11.2509175,48.7254099 11.6868067,49.8415911 12.5834737,50.6866868 C13.4857462,51.5376124 14.6440813,51.9510792 16.1248487,51.9510792 C17.5946292,51.9510792 18.7448922,51.5403031 19.641335,50.6949831 Z" id="Fill-15" stroke="#DA272C" stroke-width="0.5" fill="#DA272C"></path>
                    <path d="M25.1730686,59.6307777 C25.1730686,58.8518276 25.3912374,58.2215373 25.8217452,57.7573961 C26.258307,57.2854071 26.8388199,57.0461614 27.5473639,57.0461614 C28.2554596,57.0461614 28.8361966,57.2854071 29.2732069,57.7573961 C29.7034904,58.2217616 29.9216592,58.8354594 29.9216592,59.5810002 L29.9216592,60.8375448 C29.9216592,62.5174221 29.1119907,63.4053444 27.5803247,63.4053444 C26.8930818,63.4053444 26.3121205,63.1517484 25.8533606,62.65218 C25.4020001,62.160011 25.1730686,61.5606634 25.1730686,60.8707298 L25.1730686,59.6307777 Z M31.0900843,56.2232637 C30.187139,55.3826524 29.0283556,54.9738942 27.5473639,54.9738942 C26.0885703,54.9738942 24.9380831,55.3878095 24.030205,56.2389593 C23.1283808,57.0842793 22.6900252,58.1733294 22.6900252,59.5684437 L22.6900252,60.7846283 C22.6900252,62.2030617 23.1236722,63.3062379 24.0158547,64.1571635 C24.9120733,65.0123493 26.0780319,65.4280584 27.5803247,65.4280584 C29.0707337,65.4280584 30.2257054,65.0154884 31.1111612,64.1661324 C31.9925811,63.3201398 32.4210709,62.235574 32.4210709,60.8503255 L32.4210709,59.6668776 C32.4210709,58.1840921 31.9856302,57.0575967 31.0900843,56.2232637 Z" id="Fill-17" stroke="#DA272C" stroke-width="0.5" fill="#DA272C"></path>
                </g>
                <g id="Group-3-Copy-23" transform="translate(0.000000, 62.000000)">
                    <mask id="mask-2" fill="white">
                        <use xlink:href="#path-1"></use>
                    </mask>
                    <g id="Clip-2"></g>
                    <path d="M3.5152,2.79979 C3.1212,2.79979 2.8002,3.12079 2.8002,3.51579 C2.8002,3.90979 3.1212,4.23079 3.5152,4.23079 C3.9102,4.23079 4.2312,3.90979 4.2312,3.51579 C4.2312,3.12079 3.9102,2.79979 3.5152,2.79979 M3.5152,7.03079 C1.5772,7.03079 -0.0008,5.45379 -0.0008,3.51579 C-0.0008,1.57679 1.5772,-0.00021 3.5152,-0.00021 C5.4532,-0.00021 7.0312,1.57679 7.0312,3.51579 C7.0312,5.45379 5.4532,7.03079 3.5152,7.03079" id="Fill-1" fill="#DA272C" mask="url(#mask-2)"></path>
                </g>
                <g id="Group-3-Copy-24" transform="translate(123.000000, 113.000000)">
                    <mask id="mask-4" fill="white">
                        <use xlink:href="#path-3"></use>
                    </mask>
                    <g id="Clip-2"></g>
                    <path d="M4.8334,3.84971125 C4.29165,3.84971125 3.850275,4.29108625 3.850275,4.83421125 C3.850275,5.37596125 4.29165,5.81733625 4.8334,5.81733625 C5.376525,5.81733625 5.8179,5.37596125 5.8179,4.83421125 C5.8179,4.29108625 5.376525,3.84971125 4.8334,3.84971125 M4.8334,9.66733625 C2.16865,9.66733625 -0.0011,7.49896125 -0.0011,4.83421125 C-0.0011,2.16808625 2.16865,-0.00028875 4.8334,-0.00028875 C7.49815,-0.00028875 9.6679,2.16808625 9.6679,4.83421125 C9.6679,7.49896125 7.49815,9.66733625 4.8334,9.66733625" id="Fill-1" fill="#DA272C" mask="url(#mask-4)"></path>
                </g>
                <g id="Group-3-Copy-25" transform="translate(141.000000, 61.000000)">
                    <mask id="mask-6" fill="white">
                        <use xlink:href="#path-5"></use>
                    </mask>
                    <g id="Clip-2"></g>
                    <path d="M2.24299565,2.23481739 L3.90112609,4.9982087 C4.02834348,5.21055652 4.02834348,5.47503478 3.90112609,5.68738261 L2.24299565,8.45077391 L5.00638696,6.79264348 C5.21873478,6.66542609 5.4836913,6.66542609 5.69556087,6.79264348 L8.45895217,8.45077391 L6.80082174,5.68738261 C6.67408261,5.47503478 6.67408261,5.21055652 6.80082174,4.9982087 L8.45895217,2.23481739 L5.69556087,3.89294783 C5.4836913,4.02016522 5.21873478,4.02016522 5.00638696,3.89294783 L2.24299565,2.23481739 Z M9.83203913,10.6928609 C9.67564783,10.6928609 9.52116957,10.6493391 9.38486522,10.5675565 L5.35121304,8.14755652 L1.31708261,10.5675565 C0.91056087,10.8119478 0.345734783,10.6603391 0.1133,10.2485565 C-0.0421347826,9.97403478 -0.0373521739,9.64786087 0.126213043,9.37573043 L2.54621304,5.34255652 L0.125734783,1.30890435 C-0.0373521739,1.03725217 -0.0421347826,0.7106 0.1133,0.436556522 C0.346213043,0.024773913 0.909604348,-0.127313043 1.31756087,0.118034783 L5.35121304,2.53803478 L9.38486522,0.117556522 C9.79186522,-0.126834783 10.356213,0.0252521739 10.5886478,0.436078261 C10.7440826,0.710121739 10.7397783,1.03677391 10.576213,1.30842609 L8.15573478,5.34255652 L10.576213,9.37668696 C10.7393,9.64786087 10.7440826,9.97403478 10.5886478,10.2485565 C10.4341696,10.5226 10.1443435,10.6928609 9.83203913,10.6928609 Z" id="Fill-1" fill="#DA272C" mask="url(#mask-6)"></path>
                </g>
                <g id="Group-3-Copy-26" transform="translate(21.000000, 0.000000)">
                    <mask id="mask-8" fill="white">
                        <use xlink:href="#path-7"></use>
                    </mask>
                    <g id="Clip-2"></g>
                    <path d="M-0.782398649,9.17533108 L6.38316892,7.38368243 L8.17481757,0.217601351 C8.24773649,-0.0725337838 8.66060135,-0.0725337838 8.73300676,0.217601351 L10.5246554,7.38368243 L17.6907365,9.17533108 C17.9808716,9.24773649 17.9808716,9.66060135 17.6907365,9.73300676 L10.5246554,11.5246554 L8.73300676,18.6907365 C8.66060135,18.9813851 8.24773649,18.9813851 8.17481757,18.6907365 L6.38316892,11.5246554 L-0.782398649,9.73300676 C-1.07253378,9.66060135 -1.07253378,9.24773649 -0.782398649,9.17533108" id="Fill-1" fill="#DA272C" mask="url(#mask-8)"></path>
                </g>
                <g id="Group-3-Copy-27" transform="translate(23.000000, 108.000000)">
                    <mask id="mask-10" fill="white">
                        <use xlink:href="#path-9"></use>
                    </mask>
                    <g id="Clip-2"></g>
                    <path d="M-0.494146515,5.79494595 L4.03147511,4.66337838 L5.16304267,0.137432432 C5.20909673,-0.0458108108 5.46985349,-0.0458108108 5.51558321,0.137432432 L6.64715078,4.66337838 L11.1730967,5.79494595 C11.35634,5.84067568 11.35634,6.10143243 11.1730967,6.14716216 L6.64715078,7.27872973 L5.51558321,11.8046757 C5.46985349,11.9882432 5.20909673,11.9882432 5.16304267,11.8046757 L4.03147511,7.27872973 L-0.494146515,6.14716216 C-0.677389758,6.10143243 -0.677389758,5.84067568 -0.494146515,5.79494595" id="Fill-1" fill="#DA272C" mask="url(#mask-10)"></path>
                </g>
                <g id="Group-3-Copy-28" transform="translate(119.000000, 9.000000)">
                    <mask id="mask-12" fill="white">
                        <use xlink:href="#path-11"></use>
                    </mask>
                    <g id="Clip-2"></g>
                    <path d="M9.0193,2.7999 C5.5893,2.7999 2.7993,5.5899 2.7993,9.0189 C2.7993,12.4479 5.5893,15.2379 9.0193,15.2379 C12.4483,15.2379 15.2383,12.4479 15.2383,9.0189 C15.2383,5.5899 12.4483,2.7999 9.0193,2.7999 M9.0193,18.0379 C4.0453,18.0379 -0.0007,13.9919 -0.0007,9.0189 C-0.0007,4.0459 4.0453,-0.0001 9.0193,-0.0001 C13.9923,-0.0001 18.0383,4.0459 18.0383,9.0189 C18.0383,13.9919 13.9923,18.0379 9.0193,18.0379" id="Fill-1" fill="#DA272C" mask="url(#mask-12)"></path>
                </g>
            </g>
        </g>
    </g>
</svg>