<?xml version="1.0" encoding="UTF-8"?>
<svg width="970px" height="96px" viewBox="0 0 970 96" version="1.1" xmlns="http://www.w3.org/2000/svg" xmlns:xlink="http://www.w3.org/1999/xlink">
    <!-- Generator: sketchtool 51.2 (57519) - http://www.bohemiancoding.com/sketch -->
    <title>9E809590-4229-4326-8C54-95F30FFF2AEE</title>
    <desc>Created with sketchtool.</desc>
    <defs>
        <polygon id="path-1" points="4.77429788e-05 0.0531242355 39.9212355 0.0531242355 39.9212355 28.7310401 4.77429788e-05 28.7310401"></polygon>
        <polygon id="path-3" points="-2.7572013e-05 0.0191022727 29.1030734 0.0191022727 29.1030734 13.0139137 -2.7572013e-05 13.0139137"></polygon>
        <polygon id="path-5" points="0 0 43 0 43 45 0 45"></polygon>
        <polygon id="path-7" points="0 0 43 0 43 45 0 45"></polygon>
    </defs>
    <g id="FLUJO-" stroke="none" stroke-width="1" fill="none" fill-rule="evenodd">
        <g id="2.2.1-tabla-de-la-mancha-(flujo-1)" transform="translate(-222.000000, -506.000000)">
            <g id="Group-18" transform="translate(214.000000, 506.000000)">
                <g id="Group-21" transform="translate(186.000000, 0.000000)">
                    <path d="M4.87838462,22.1117792 C4.87838462,22.1117792 8.82730769,21.3620227 12.9999231,22.1868477 C13.9220769,22.3691791 14.7654615,22.5491887 15.5328462,22.737247 C12.3843846,20.7549738 8.01038462,20.0377213 6.66638462,19.3384232 C5.69776923,20.8377814 4.87838462,22.1117792 4.87838462,22.1117792" id="Fill-1" fill="#DA272C"></path>
                    <path d="M18.2901077,40.7780219 C17.9919538,38.7539581 23.3573385,29.0834308 20.8981077,25.4857142 C19.9951846,24.164044 18.2379538,23.4002026 15.5328769,22.7372779 C17.4468769,23.9420889 18.9082615,25.6140272 18.9604154,28.0341742 C19.0362615,31.5281879 16.3941077,36.4684701 17.2467231,40.3286943 C17.9899538,43.693002 26.6654923,40.84984 30.7002615,36.3511465 C27.6185692,38.1835922 23.7771846,39.5925585 22.3882615,40.3279204 C20.9727231,41.0779864 18.5733385,42.7019428 18.2901077,40.7780219" id="Fill-3" fill="#DA272C"></path>
                    <path d="M27.8777077,26.5520431 C28.4386308,23.5414088 34.3120154,25.5965835 33.1000154,31.5466532 C30.1729385,29.6594153 27.6520154,27.763974 27.8777077,26.5520431 M41.1869385,36.8949366 C40.3549385,35.9614558 37.5697077,34.3376542 34.7595538,32.5937429 C37.0586308,27.6598068 33.3200154,24.2854383 31.3298615,24.2854383 C29.9066308,24.2854383 27.4552462,25.2607099 27.4552462,27.20986 C27.4552462,29.1585458 28.4241692,30.7325081 28.4241692,30.7325081 C28.4241692,30.7325081 29.0529385,32.0287943 32.1847846,34.1788494 C32.1697077,34.2099603 32.1561692,34.2406068 32.1407846,34.2718725 C31.7881692,34.991292 31.2941692,35.6890422 30.7003231,36.3511929 C31.5552462,35.8427392 32.3512462,35.3019363 33.0207846,34.7335825 C33.5612462,35.0810646 34.1623231,35.4469656 34.8318615,35.8305115 C36.7723231,36.9416803 39.3809385,38.2639696 39.9732462,38.9042963 C41.9852462,41.077259 42.5069385,41.0026548 42.8046308,40.4776395 C43.1026308,39.9533982 43.7260154,38.4856152 44.0712462,37.7045931 C44.1700154,37.4809354 44.1820154,37.2597541 44.1278615,37.039192 C44.1166308,37.1238569 44.1012462,37.2037236 44.0780154,37.2741487 C43.9186308,37.7564446 43.0717077,39.0093922 41.1869385,36.8949366" id="Fill-5" fill="#DA272C"></path>
                    <path d="M37.683,16.0430083 C32.4477692,16.5641541 31.779,14.8436147 31.2553077,12.5914045 C28.7963846,2.02160283 27.8276154,2.84627303 25.5323846,0.387895266 C24.1648462,-1.07741118 23.5839231,1.79686163 22.7965385,5.85644307 C23.8445385,3.59401735 24.7448462,1.80135026 25.0706923,1.27184637 C26.0391538,-0.302115945 25.8905385,1.87115624 26.6356154,4.94540539 C27.2677692,7.55268194 30.4357692,12.0666988 31.8519231,15.8899305 C33.2676154,19.7130074 35.4691538,19.1407841 36.7691538,19.1883017 C38.3082308,19.2452609 46.573,18.4072796 48.3188462,17.9885985 C49.5777692,17.6870862 51.2343846,16.7478784 51.7562308,16.7830136 C51.6708462,14.7532229 39.4520769,15.867023 37.683,16.0430083" id="Fill-7" fill="#DA272C"></path>
                    <path d="M51.7561538,16.7830446 C51.7563077,16.7864497 51.7572308,16.7897001 51.7573846,16.7931053 C51.7610769,16.9511361 51.0433846,17.7508867 50.852,17.9135609 C47.8852308,20.439423 42.9909231,22.6526285 41.0515385,24.4174351 C41.4136923,24.1717985 41.8613846,23.9981349 42.4321538,23.9113031 C44.8912308,23.5365796 49.7343077,22.0372215 50.852,20.9875005 C51.9696923,19.9380891 51.7650769,17.752744 51.9143077,17.0029876 C51.9433846,16.8567201 51.8827692,16.7915575 51.7561538,16.7830446" id="Fill-9" fill="#DA272C"></path>
                    <path d="M3.14693846,15.8149084 C0.762938462,16.1145633 1.53846154e-05,16.6400429 1.53846154e-05,16.6400429 L1.53846154e-05,19.1883481 C1.53846154e-05,19.1883481 14.4604769,18.0022656 18.1975538,17.8541407 C18.1443231,18.168345 18.1264769,18.4416873 18.1326308,18.6636424 C18.2017077,21.1758838 19.5027846,22.7780161 20.5832462,22.7452027 C19.9815538,21.7098763 19.5797077,20.0983023 19.8187846,17.9857041 C20.5661692,18.1876926 21.3617077,18.5890382 22.0260154,19.1310794 C21.8690923,18.2016228 21.3666308,17.3314472 20.3014,16.8646293 C20.2127846,16.8257794 20.1203231,16.7875487 20.0252462,16.749937 C20.1601692,16.1238501 20.3483231,15.4623185 20.6000154,14.765497 C21.6335538,11.9059283 22.2624769,8.60879533 22.7964769,5.8564895 C21.2700154,9.1519199 19.4215538,13.4446007 18.5852462,16.2903939 C15.0703231,15.3691407 9.21924615,15.0510669 3.14693846,15.8149084" id="Fill-11" fill="#DA272C"></path>
                    <path d="M20.8236154,22.7115534 C20.7465385,22.732294 20.6676154,22.7428191 20.5876154,22.7451408 C21.3457692,24.0494756 22.4168462,24.4392127 22.9097692,23.7612744 C24.2145385,21.9672143 23.3985385,20.2502348 22.027,19.1311722 C22.2979231,20.7374836 21.5317692,22.521483 20.8236154,22.7115534" id="Fill-13" fill="#DA272C"></path>
                    <path d="M39.0045077,28.7834509 C38.7065077,29.7581033 38.9303538,32.1568906 40.4949692,33.5816446 C41.8763538,34.8392357 43.8557385,35.9290448 44.1278923,37.0391301 C44.4248154,34.8014692 40.6515846,27.7673173 40.2411231,25.9079398 C40.1412769,25.4556713 40.4578923,24.9575879 41.0515846,24.4174041 C39.8535846,25.2300015 39.5997385,26.8394085 39.0045077,28.7834509" id="Fill-15" fill="#DA272C"></path>
                    <path d="M19.8188154,17.9856886 C19.8188154,17.9856886 19.0275846,17.8141919 18.1975846,17.8541252 C18.3945077,16.7657092 18.5851231,16.2903784 18.5851231,16.2903784 L20.0252769,16.7499216 L19.8188154,17.9856886 Z" id="Fill-17" fill="#AF0000"></path>
                    <path d="M33.1000615,31.5465913 C32.9186769,32.5359479 32.1848308,34.1787875 32.1848308,34.1787875 L33.0206769,34.7336754 C33.0206769,34.7336754 34.1823692,33.4098383 34.7596,32.593681 L33.1000615,31.5465913 Z" id="Fill-19" fill="#AF0000"></path>
                </g>
                <g id="Group-15-Copy" transform="translate(833.000000, 21.000000)">
                    <g id="Group-3" transform="translate(0.000000, 12.249837)">
                        <mask id="mask-2" fill="white">
                            <use xlink:href="#path-1"></use>
                        </mask>
                        <g id="Clip-2"></g>
                        <path d="M7.60440154,14.2496277 C2.49196911,14.5616314 0.950810811,14.8172602 1.41552124,13.2584837 C1.82401544,11.8891769 9.663861,12.1901542 15.8164479,12.8122981 C12.1591506,12.8550064 9.00440154,14.1643663 7.60440154,14.2496277 M18.7603861,19.3915557 C14.8868726,19.3915557 6.45104247,22.0967792 6.60610039,21.0062413 C6.74880309,20.0029837 12.976139,18.1912186 19.4570656,19.3361125 C19.4921236,19.3423246 19.5277992,19.3493133 19.5633205,19.3563019 C19.239305,19.3785102 18.9648649,19.3915557 18.7603861,19.3915557 M25.5009266,6.74243447 C11.107722,6.69149508 1.18725869,3.67830568 1.02849421,2.32515038 C0.932586873,1.50313144 2.80208494,-0.255830682 6.43389961,3.46724886 C9.20579151,6.30898371 15.1773745,5.62269962 19.096139,5.48929432 C23.9538996,5.32327538 27.829112,5.45947614 30.8476448,5.77660492 C29.103861,6.36753295 27.2034749,6.74833598 25.5009266,6.74243447 M36.2799228,4.33119962 C37.187722,2.97509356 37.5054054,1.61836629 36.6706564,0.749911742 C36.7324324,1.08272614 36.7250193,1.43712765 36.6332819,1.81606705 C36.4856371,2.42625265 35.8962934,3.08691174 35.0241699,3.7203928 C31.6966023,2.2850822 27.1273359,1.6191428 22.7855598,2.33835114 C8.71667954,4.66944962 8.06447876,1.77304811 6.67019305,0.840764015 C3.81088803,-1.07132689 1.18324324,0.948389015 0.595444015,2.15058977 C-1.56239382,6.56538902 2.40285714,7.84104811 8.33474903,8.67937386 C18.1979151,10.0741504 28.3942085,10.4830633 32.9054054,7.56988902 C33.4671042,7.20710114 34.0153668,6.78358977 34.5219305,6.32591174 C39.4583012,7.33708977 40.5145174,8.95255189 38.9801544,9.88716553 C37.9472587,10.5169193 33.4633977,11.6653852 28.1640927,12.3612981 C23.1866409,10.6992451 16.5403089,9.6601125 9.26525097,10.1005519 C1.69027027,10.5594723 0.714517375,11.9820481 1.34864865,14.4568019 C1.9196139,16.683692 2.02880309,18.8950519 6.89706564,17.9438208 C7.82648649,17.7618057 11.6827027,16.2595595 16.3576062,16.4373814 C21.1355212,16.6193966 26.6295753,16.0663625 31.0907336,14.962158 C34.5109653,15.6167602 36.2616988,16.2278777 35.5728958,16.7823095 C35.3015444,16.999889 35.4650965,17.6753019 27.1647104,18.5431352 C25.839305,18.6818208 23.5943629,18.959192 21.70139,19.1592223 C14.6979923,17.825014 5.31482625,18.1851617 5.44455598,20.3048928 C5.55498069,22.121317 6.59899614,23.4752489 8.21675676,24.4267905 C10.5789189,25.816442 13.0496525,23.5834951 24.0623166,23.086836 C24.8250965,23.052514 25.5894208,23.0278208 26.3466409,23.0007981 C27.3122008,23.9326163 27.7369112,24.798586 27.0969112,25.2666693 C25.3923552,26.5132867 14.5259459,24.6569496 14.5259459,24.6569496 L15.2198456,28.2306277 C17.213668,28.9282489 25.3983784,29.6867489 28.7440154,24.5696693 C29.1443243,23.9574648 29.2487259,23.3902981 29.1131274,22.8678587 C31.4776062,22.7032375 33.6516602,22.3600178 35.3328958,21.4306845 C38.5989961,19.6262186 37.2374517,16.8202034 32.9861776,14.4397186 C36.0746718,13.4933019 38.4380695,12.2522754 39.3383012,10.7933587 C40.8405405,8.3582072 39.3040154,5.98874886 36.2799228,4.33119962" id="Fill-1" fill="#DA272C" mask="url(#mask-2)"></path>
                    </g>
                    <g id="Group-6" transform="translate(7.567568, 0.136201)">
                        <mask id="mask-4" fill="white">
                            <use xlink:href="#path-3"></use>
                        </mask>
                        <g id="Clip-5"></g>
                        <path d="M19.7030734,9.83183106 C11.7231506,9.90979318 0.0908725869,10.2806568 0.888864865,7.90048258 C1.29905792,6.67871364 11.767166,7.17040303 21.2389807,9.80434242 C20.7753514,9.81738788 20.26539,9.82639545 19.7030734,9.83183106 M25.6630734,9.70805455 C25.7293282,9.41732727 25.7920309,9.08451288 25.8581313,8.69905076 C26.3480154,5.84178561 18.4258533,2.0183803 15.8884015,0.939956061 C9.73349807,-1.67534697 9.64608494,1.98576667 9.99295753,3.20675909 C11.3798301,2.77035758 14.7612973,3.38054318 19.4425328,5.82190682 C23.1487876,7.75387652 25.4031506,8.7936303 24.7699459,9.32756212 C23.5640772,8.84394848 22.2896371,8.43627803 21.2025328,8.05578561 C18.9741158,7.2763197 1.19913514,3.07009242 0.11434749,8.36763409 C-0.969667954,13.6656417 5.85705019,12.4943462 11.9004479,12.8833803 C17.9019923,13.2699295 21.4281699,12.7263689 23.0839228,12.1859144 C24.1751969,11.8299598 24.7677838,11.5813197 25.1489421,11.0455242 C26.3339614,11.4741606 27.4751197,11.9408462 28.5456988,12.4474447 C28.7713359,12.5684258 28.9541931,12.7086644 29.1030734,12.8635015 C28.8493282,11.4971455 27.408556,10.5014977 25.6630734,9.70805455" id="Fill-4" fill="#DA272C" mask="url(#mask-4)"></path>
                    </g>
                    <path d="M35.0241699,15.970261 C33.9591506,16.7436701 32.471583,17.4762345 30.8476448,18.0264731 C32.2549035,18.1741663 33.4757529,18.3613064 34.5219305,18.5756246 C35.2104247,17.953636 35.8203089,17.2676625 36.2799228,16.5810678 C35.8854826,16.364886 35.4658687,16.1608178 35.0241699,15.970261" id="Fill-7" fill="#AF0000"></path>
                    <path d="M33.23061,9.84428636 C32.9399537,9.71212348 32.6409575,9.58555152 32.3374826,9.46379394 C32.0083707,9.74132045 30.8979459,9.8821803 28.8065174,9.94057424 C30.1401081,10.3114379 31.4533127,10.7246992 32.7164788,11.1817561 C32.9422703,10.8641614 33.0936216,10.4454644 33.23061,9.84428636" id="Fill-9" fill="#AF0000"></path>
                    <path d="M21.7014363,31.4090284 C20.8900077,31.4947557 20.144834,31.5658845 19.5632124,31.606108 C21.7423629,32.0277557 24.7676911,33.7267708 26.3466873,35.2506042 C27.2853745,35.217214 28.2130965,35.1804072 29.1130193,35.1176648 C28.6614363,33.3798239 25.5392741,32.1401951 21.7014363,31.4090284" id="Fill-11" fill="#AF0000"></path>
                    <path d="M17.0441081,25.0970473 C16.6297452,25.0675398 16.2201699,25.0574451 15.8164633,25.0621042 C16.6609421,25.1475208 17.4737606,25.2389943 18.2311351,25.3329527 C23.5108263,25.9884867 27.9877375,26.6180852 31.090749,27.211964 C31.7468108,27.0496723 32.3804788,26.875267 32.9861931,26.6895246 C31.6470425,25.9397216 30.0229498,25.2318504 28.1641081,24.6111042 C24.5580849,25.0846231 20.5747645,25.3487936 17.0441081,25.0970473" id="Fill-13" fill="#AF0000"></path>
                </g>
                <g id="Group-38-Copy-9" opacity="0.7" transform="translate(0.000000, 58.000000)">
                    <mask id="mask-6" fill="white">
                        <use xlink:href="#path-5"></use>
                    </mask>
                    <g id="Clip-2"></g>
                    <path d="M24.1501441,22.724888 L27,22.724888 L27,21.7845832 L24.1501441,21.7845832 L24.1501441,22.724888 Z M20.8862118,19.7213624 L21.8496107,19.7213624 L21.8496107,17 L20.8862118,17 L20.8862118,19.7213624 Z M23.6731653,20.7325366 L26.2748452,18.193905 L25.5905217,17.5270391 L22.989455,20.0650732 L23.6731653,20.7325366 Z M22.8338545,21.2179863 C22.3885108,20.7833284 21.8496107,20.570242 21.2382441,20.570242 C20.6270002,20.570242 20.098032,20.7833284 19.663356,21.2179863 C19.2170315,21.6533612 19,22.1783687 19,22.78536 C19,23.3923514 19.2170315,23.9178369 19.663356,24.342695 C20.098032,24.7781894 20.6270002,25 21.2382441,25 C21.8496107,25 22.3885108,24.7781894 22.8338545,24.342695 C23.2691435,23.9178369 23.4870333,23.3923514 23.4870333,22.78536 C23.4870333,22.1783687 23.2691435,21.6533612 22.8338545,21.2179863 Z M22.0773098,23.6048402 C21.8496107,23.8381237 21.5699221,23.9480729 21.2382441,23.9480729 C20.9172338,23.9480729 20.6373,23.8381237 20.4096009,23.6048402 C20.1812887,23.3720347 20.0565876,23.0987153 20.0565876,22.78536 C20.0565876,22.4520466 20.1812887,22.1783687 20.4096009,21.9561996 C20.6373,21.7241111 20.9172338,21.6122498 21.2382441,21.6225276 C21.5699221,21.6122498 21.8496107,21.7241111 22.0873644,21.9561996 C22.3054994,22.1783687 22.4192876,22.4520466 22.4303231,22.78536 C22.4192876,23.0987153 22.3054994,23.3720347 22.0773098,23.6048402 Z" id="Fill-1" fill="#DA272C" mask="url(#mask-6)"></path>
                    <polygon id="Fill-3" fill="#DA272C" mask="url(#mask-6)" points="21 15 22 15 22 12 21 12"></polygon>
                    <polygon id="Fill-4" fill="#DA272C" mask="url(#mask-6)" points="21 11 22 11 22 8 21 8"></polygon>
                    <polygon id="Fill-5" fill="#DA272C" mask="url(#mask-6)" points="23.6243422 11 26 8.62411453 25.3752099 8 23 10.3753262"></polygon>
                    <polygon id="Fill-6" fill="#DA272C" mask="url(#mask-6)" points="20 10.3753029 17.624902 8 17 8.6241378 19.3756578 11"></polygon>
                    <polygon id="Fill-7" fill="#DA272C" mask="url(#mask-6)" points="29 15.7696001 28.2303643 15 26 17.2303999 26.7694972 18"></polygon>
                    <polygon id="Fill-8" fill="#DA272C" mask="url(#mask-6)" points="32 10.7696357 31.2303643 10 29 12.2303643 29.7694972 13"></polygon>
                    <polygon id="Fill-9" fill="#DA272C" mask="url(#mask-6)" points="31 16 35 15.9978506 34.9998668 15 31.0009326 15.0021494"></polygon>
                    <polygon id="Fill-10" fill="#DA272C" mask="url(#mask-6)" points="28.9978508 11.9990674 29 8.00013323 28.0022756 8 28 12"></polygon>
                    <polygon id="Fill-11" fill="#DA272C" mask="url(#mask-6)" points="28 22 31 22 31 21 28 21"></polygon>
                    <polygon id="Fill-12" fill="#DA272C" mask="url(#mask-6)" points="33 22 36 22 36 21 33 21"></polygon>
                    <polygon id="Fill-13" fill="#DA272C" mask="url(#mask-6)" points="33 23.6243189 35.3758855 26 36 25.3751213 33.6246738 23"></polygon>
                    <polygon id="Fill-14" fill="#DA272C" mask="url(#mask-6)" points="33.6246971 20 36 17.6247901 35.3759741 17 33 19.3756578"></polygon>
                    <path d="M16,24.2156078 L18.8498559,24.2156078 L18.8498559,23.2751976 L16,23.2751976 L16,24.2156078 Z M21.1503893,29 L22.1137882,29 L22.1137882,26.2786782 L21.1503893,26.2786782 L21.1503893,29 Z M19.3268347,25.2675192 L16.7251548,27.8061128 L17.4094783,28.4728492 L20.0104224,25.9349726 L19.3268347,25.2675192 Z M20.1661455,24.7820768 C20.6114892,25.2166087 21.1503893,25.4298113 21.7617559,25.4298113 C22.3729998,25.4298113 22.9018454,25.2166087 23.336644,24.7820768 C23.7829685,24.3467083 24,23.8215892 24,23.2147264 C24,22.6077441 23.7829685,22.0822665 23.336644,21.6574147 C22.9018454,21.2219268 22.3729998,21 21.7617559,21 C21.1503893,21 20.6114892,21.2219268 20.1661455,21.6574147 C19.7308565,22.0822665 19.5129667,22.6077441 19.5129667,23.2147264 C19.5129667,23.8215892 19.7308565,24.3467083 20.1661455,24.7820768 Z M20.9226902,22.395139 C21.1503893,22.161859 21.4300779,22.0519114 21.7617559,22.0519114 C22.0827662,22.0519114 22.3627,22.161859 22.5902765,22.395139 C22.8187113,22.6280605 22.9432898,22.9012563 22.9432898,23.2147264 C22.9432898,23.5480348 22.8187113,23.8215892 22.5902765,24.0437549 C22.3627,24.2759594 22.0827662,24.3876996 21.7617559,24.3774219 C21.4300779,24.3876996 21.1503893,24.2759594 20.912513,24.0437549 C20.6945006,23.8215892 20.5807124,23.5480348 20.5696769,23.2147264 C20.5807124,22.9012563 20.6945006,22.6280605 20.9226902,22.395139 Z" id="Fill-15" fill="#DA272C" mask="url(#mask-6)"></path>
                    <polygon id="Fill-16" fill="#DA272C" mask="url(#mask-6)" points="21 33 22 33 22 30 21 30"></polygon>
                    <polygon id="Fill-17" fill="#DA272C" mask="url(#mask-6)" points="21 38 22 38 22 35 21 35"></polygon>
                    <polygon id="Fill-18" fill="#DA272C" mask="url(#mask-6)" points="19.3756578 33 17 35.3758855 17.6247901 36 20 33.6246738"></polygon>
                    <polygon id="Fill-19" fill="#DA272C" mask="url(#mask-6)" points="22 33.6246971 24.375098 36 25 35.3758622 22.6243422 33"></polygon>
                    <polygon id="Fill-20" fill="#DA272C" mask="url(#mask-6)" points="14 30.2303999 14.7696357 31 17 28.7696001 16.2305028 28"></polygon>
                    <polygon id="Fill-21" fill="#DA272C" mask="url(#mask-6)" points="10 32.2303643 10.7696357 33 13 30.7696357 12.2305028 30"></polygon>
                    <polygon id="Fill-22" fill="#DA272C" mask="url(#mask-6)" points="12 29 8 29.0021494 8.00013323 30 11.9990674 29.9978506"></polygon>
                    <polygon id="Fill-23" fill="#DA272C" mask="url(#mask-6)" points="14.0021492 33.0009326 14 36.9998668 14.9977244 37 15 33"></polygon>
                    <polygon id="Fill-24" fill="#DA272C" mask="url(#mask-6)" points="29.2303999 31 30 30.2303643 27.7697387 28 27 28.7696357"></polygon>
                    <polygon id="Fill-25" fill="#DA272C" mask="url(#mask-6)" points="33.2303999 33 34 32.2303643 31.7697387 30 31 30.7694972"></polygon>
                    <polygon id="Fill-26" fill="#DA272C" mask="url(#mask-6)" points="28 33 28.0021494 37 29 36.9998668 28.9978506 33.0009326"></polygon>
                    <polygon id="Fill-27" fill="#DA272C" mask="url(#mask-6)" points="31.0009326 29.9978506 34.9998668 30 35 29.0021494 31 29"></polygon>
                    <polygon id="Fill-28" fill="#DA272C" mask="url(#mask-6)" points="12.7696001 15 12 15.7696357 14.2302613 18 15 17.2303643"></polygon>
                    <polygon id="Fill-29" fill="#DA272C" mask="url(#mask-6)" points="10.7696001 12 10 12.7696357 12.2302613 15 13 14.2305028"></polygon>
                    <polygon id="Fill-30" fill="#DA272C" mask="url(#mask-6)" points="15 14 14.9978506 10 14 10.0001332 14.0021494 13.9990674"></polygon>
                    <polygon id="Fill-31" fill="#DA272C" mask="url(#mask-6)" points="11.9990674 15.0021494 8.00013323 15 8 15.9978506 12 16"></polygon>
                    <polygon id="Fill-32" fill="#DA272C" mask="url(#mask-6)" points="12 24 15 24 15 23 12 23"></polygon>
                    <polygon id="Fill-33" fill="#DA272C" mask="url(#mask-6)" points="8 24 11 24 11 23 8 23"></polygon>
                    <polygon id="Fill-34" fill="#DA272C" mask="url(#mask-6)" points="11 21.3756578 8.62411453 19 8 19.6247901 10.3753262 22"></polygon>
                    <polygon id="Fill-35" fill="#DA272C" mask="url(#mask-6)" points="10.3753029 24 8 26.3752099 8.62402595 27 11 24.6243422"></polygon>
                    <polygon id="Fill-36" fill="#DA272C" mask="url(#mask-6)" points="19 19.3756811 16.6241145 17 16 17.6248787 18.3753262 20"></polygon>
                    <polygon id="Fill-37" fill="#DA272C" mask="url(#mask-6)" points="23 24.6243189 25.3758855 27 26 26.3751213 23.6246738 24"></polygon>
                </g>
                <g id="Group-38-Copy-10" opacity="0.7" transform="translate(942.000000, 58.000000)">
                    <mask id="mask-8" fill="white">
                        <use xlink:href="#path-7"></use>
                    </mask>
                    <g id="Clip-2"></g>
                    <path d="M24.1501441,22.724888 L27,22.724888 L27,21.7845832 L24.1501441,21.7845832 L24.1501441,22.724888 Z M20.8862118,19.7213624 L21.8496107,19.7213624 L21.8496107,17 L20.8862118,17 L20.8862118,19.7213624 Z M23.6731653,20.7325366 L26.2748452,18.193905 L25.5905217,17.5270391 L22.989455,20.0650732 L23.6731653,20.7325366 Z M22.8338545,21.2179863 C22.3885108,20.7833284 21.8496107,20.570242 21.2382441,20.570242 C20.6270002,20.570242 20.098032,20.7833284 19.663356,21.2179863 C19.2170315,21.6533612 19,22.1783687 19,22.78536 C19,23.3923514 19.2170315,23.9178369 19.663356,24.342695 C20.098032,24.7781894 20.6270002,25 21.2382441,25 C21.8496107,25 22.3885108,24.7781894 22.8338545,24.342695 C23.2691435,23.9178369 23.4870333,23.3923514 23.4870333,22.78536 C23.4870333,22.1783687 23.2691435,21.6533612 22.8338545,21.2179863 Z M22.0773098,23.6048402 C21.8496107,23.8381237 21.5699221,23.9480729 21.2382441,23.9480729 C20.9172338,23.9480729 20.6373,23.8381237 20.4096009,23.6048402 C20.1812887,23.3720347 20.0565876,23.0987153 20.0565876,22.78536 C20.0565876,22.4520466 20.1812887,22.1783687 20.4096009,21.9561996 C20.6373,21.7241111 20.9172338,21.6122498 21.2382441,21.6225276 C21.5699221,21.6122498 21.8496107,21.7241111 22.0873644,21.9561996 C22.3054994,22.1783687 22.4192876,22.4520466 22.4303231,22.78536 C22.4192876,23.0987153 22.3054994,23.3720347 22.0773098,23.6048402 Z" id="Fill-1" fill="#DA272C" mask="url(#mask-8)"></path>
                    <polygon id="Fill-3" fill="#DA272C" mask="url(#mask-8)" points="21 15 22 15 22 12 21 12"></polygon>
                    <polygon id="Fill-4" fill="#DA272C" mask="url(#mask-8)" points="21 11 22 11 22 8 21 8"></polygon>
                    <polygon id="Fill-5" fill="#DA272C" mask="url(#mask-8)" points="23.6243422 11 26 8.62411453 25.3752099 8 23 10.3753262"></polygon>
                    <polygon id="Fill-6" fill="#DA272C" mask="url(#mask-8)" points="20 10.3753029 17.624902 8 17 8.6241378 19.3756578 11"></polygon>
                    <polygon id="Fill-7" fill="#DA272C" mask="url(#mask-8)" points="29 15.7696001 28.2303643 15 26 17.2303999 26.7694972 18"></polygon>
                    <polygon id="Fill-8" fill="#DA272C" mask="url(#mask-8)" points="32 10.7696357 31.2303643 10 29 12.2303643 29.7694972 13"></polygon>
                    <polygon id="Fill-9" fill="#DA272C" mask="url(#mask-8)" points="31 16 35 15.9978506 34.9998668 15 31.0009326 15.0021494"></polygon>
                    <polygon id="Fill-10" fill="#DA272C" mask="url(#mask-8)" points="28.9978508 11.9990674 29 8.00013323 28.0022756 8 28 12"></polygon>
                    <polygon id="Fill-11" fill="#DA272C" mask="url(#mask-8)" points="28 22 31 22 31 21 28 21"></polygon>
                    <polygon id="Fill-12" fill="#DA272C" mask="url(#mask-8)" points="33 22 36 22 36 21 33 21"></polygon>
                    <polygon id="Fill-13" fill="#DA272C" mask="url(#mask-8)" points="33 23.6243189 35.3758855 26 36 25.3751213 33.6246738 23"></polygon>
                    <polygon id="Fill-14" fill="#DA272C" mask="url(#mask-8)" points="33.6246971 20 36 17.6247901 35.3759741 17 33 19.3756578"></polygon>
                    <path d="M16,24.2156078 L18.8498559,24.2156078 L18.8498559,23.2751976 L16,23.2751976 L16,24.2156078 Z M21.1503893,29 L22.1137882,29 L22.1137882,26.2786782 L21.1503893,26.2786782 L21.1503893,29 Z M19.3268347,25.2675192 L16.7251548,27.8061128 L17.4094783,28.4728492 L20.0104224,25.9349726 L19.3268347,25.2675192 Z M20.1661455,24.7820768 C20.6114892,25.2166087 21.1503893,25.4298113 21.7617559,25.4298113 C22.3729998,25.4298113 22.9018454,25.2166087 23.336644,24.7820768 C23.7829685,24.3467083 24,23.8215892 24,23.2147264 C24,22.6077441 23.7829685,22.0822665 23.336644,21.6574147 C22.9018454,21.2219268 22.3729998,21 21.7617559,21 C21.1503893,21 20.6114892,21.2219268 20.1661455,21.6574147 C19.7308565,22.0822665 19.5129667,22.6077441 19.5129667,23.2147264 C19.5129667,23.8215892 19.7308565,24.3467083 20.1661455,24.7820768 Z M20.9226902,22.395139 C21.1503893,22.161859 21.4300779,22.0519114 21.7617559,22.0519114 C22.0827662,22.0519114 22.3627,22.161859 22.5902765,22.395139 C22.8187113,22.6280605 22.9432898,22.9012563 22.9432898,23.2147264 C22.9432898,23.5480348 22.8187113,23.8215892 22.5902765,24.0437549 C22.3627,24.2759594 22.0827662,24.3876996 21.7617559,24.3774219 C21.4300779,24.3876996 21.1503893,24.2759594 20.912513,24.0437549 C20.6945006,23.8215892 20.5807124,23.5480348 20.5696769,23.2147264 C20.5807124,22.9012563 20.6945006,22.6280605 20.9226902,22.395139 Z" id="Fill-15" fill="#DA272C" mask="url(#mask-8)"></path>
                    <polygon id="Fill-16" fill="#DA272C" mask="url(#mask-8)" points="21 33 22 33 22 30 21 30"></polygon>
                    <polygon id="Fill-17" fill="#DA272C" mask="url(#mask-8)" points="21 38 22 38 22 35 21 35"></polygon>
                    <polygon id="Fill-18" fill="#DA272C" mask="url(#mask-8)" points="19.3756578 33 17 35.3758855 17.6247901 36 20 33.6246738"></polygon>
                    <polygon id="Fill-19" fill="#DA272C" mask="url(#mask-8)" points="22 33.6246971 24.375098 36 25 35.3758622 22.6243422 33"></polygon>
                    <polygon id="Fill-20" fill="#DA272C" mask="url(#mask-8)" points="14 30.2303999 14.7696357 31 17 28.7696001 16.2305028 28"></polygon>
                    <polygon id="Fill-21" fill="#DA272C" mask="url(#mask-8)" points="10 32.2303643 10.7696357 33 13 30.7696357 12.2305028 30"></polygon>
                    <polygon id="Fill-22" fill="#DA272C" mask="url(#mask-8)" points="12 29 8 29.0021494 8.00013323 30 11.9990674 29.9978506"></polygon>
                    <polygon id="Fill-23" fill="#DA272C" mask="url(#mask-8)" points="14.0021492 33.0009326 14 36.9998668 14.9977244 37 15 33"></polygon>
                    <polygon id="Fill-24" fill="#DA272C" mask="url(#mask-8)" points="29.2303999 31 30 30.2303643 27.7697387 28 27 28.7696357"></polygon>
                    <polygon id="Fill-25" fill="#DA272C" mask="url(#mask-8)" points="33.2303999 33 34 32.2303643 31.7697387 30 31 30.7694972"></polygon>
                    <polygon id="Fill-26" fill="#DA272C" mask="url(#mask-8)" points="28 33 28.0021494 37 29 36.9998668 28.9978506 33.0009326"></polygon>
                    <polygon id="Fill-27" fill="#DA272C" mask="url(#mask-8)" points="31.0009326 29.9978506 34.9998668 30 35 29.0021494 31 29"></polygon>
                    <polygon id="Fill-28" fill="#DA272C" mask="url(#mask-8)" points="12.7696001 15 12 15.7696357 14.2302613 18 15 17.2303643"></polygon>
                    <polygon id="Fill-29" fill="#DA272C" mask="url(#mask-8)" points="10.7696001 12 10 12.7696357 12.2302613 15 13 14.2305028"></polygon>
                    <polygon id="Fill-30" fill="#DA272C" mask="url(#mask-8)" points="15 14 14.9978506 10 14 10.0001332 14.0021494 13.9990674"></polygon>
                    <polygon id="Fill-31" fill="#DA272C" mask="url(#mask-8)" points="11.9990674 15.0021494 8.00013323 15 8 15.9978506 12 16"></polygon>
                    <polygon id="Fill-32" fill="#DA272C" mask="url(#mask-8)" points="12 24 15 24 15 23 12 23"></polygon>
                    <polygon id="Fill-33" fill="#DA272C" mask="url(#mask-8)" points="8 24 11 24 11 23 8 23"></polygon>
                    <polygon id="Fill-34" fill="#DA272C" mask="url(#mask-8)" points="11 21.3756578 8.62411453 19 8 19.6247901 10.3753262 22"></polygon>
                    <polygon id="Fill-35" fill="#DA272C" mask="url(#mask-8)" points="10.3753029 24 8 26.3752099 8.62402595 27 11 24.6243422"></polygon>
                    <polygon id="Fill-36" fill="#DA272C" mask="url(#mask-8)" points="19 19.3756811 16.6241145 17 16 17.6248787 18.3753262 20"></polygon>
                    <polygon id="Fill-37" fill="#DA272C" mask="url(#mask-8)" points="23 24.6243189 25.3758855 27 26 26.3751213 23.6246738 24"></polygon>
                </g>
            </g>
        </g>
    </g>
</svg>